ISO-10303-21;
HEADER;
FILE_DESCRIPTION((''),'2;1');
FILE_NAME('35MOTOR','2026-08-09T09:56:41',('gram2'),(''),
'CREO PARAMETRIC BY PTC INC, 2016510','CREO PARAMETRIC BY PTC INC, 2016510','');
FILE_SCHEMA(('AUTOMOTIVE_DESIGN { 1 0 10303 214 1 1 1 1 }'));
ENDSEC;
DATA;
#29=CARTESIAN_POINT('',(1.9E1,9.E0,0.E0));
#30=DIRECTION('',(0.E0,0.E0,-1.E0));
#31=DIRECTION('',(0.E0,1.E0,0.E0));
#32=AXIS2_PLACEMENT_3D('',#29,#30,#31);
#34=DRAUGHTING_PRE_DEFINED_CURVE_FONT('continuous');
#35=CURVE_STYLE('',#34,POSITIVE_LENGTH_MEASURE(2.E-2),#10);
#36=PRESENTATION_STYLE_ASSIGNMENT((#35));
#37=STYLED_ITEM('',(#36),#33);
#38=DIRECTION('',(-1.E0,0.E0,0.E0));
#39=VECTOR('',#38,3.8E1);
#40=CARTESIAN_POINT('',(1.9E1,1.E1,0.E0));
#41=LINE('',#40,#39);
#42=CURVE_STYLE('',#34,POSITIVE_LENGTH_MEASURE(2.E-2),#10);
#43=PRESENTATION_STYLE_ASSIGNMENT((#42));
#44=STYLED_ITEM('',(#43),#41);
#45=CARTESIAN_POINT('',(-1.9E1,9.E0,0.E0));
#46=DIRECTION('',(0.E0,0.E0,-1.E0));
#47=DIRECTION('',(-1.E0,0.E0,0.E0));
#48=AXIS2_PLACEMENT_3D('',#45,#46,#47);
#50=CURVE_STYLE('',#34,POSITIVE_LENGTH_MEASURE(2.E-2),#10);
#51=PRESENTATION_STYLE_ASSIGNMENT((#50));
#52=STYLED_ITEM('',(#51),#49);
#53=DIRECTION('',(0.E0,-1.E0,0.E0));
#54=VECTOR('',#53,1.8E1);
#55=CARTESIAN_POINT('',(-2.E1,9.E0,0.E0));
#56=LINE('',#55,#54);
#57=CURVE_STYLE('',#34,POSITIVE_LENGTH_MEASURE(2.E-2),#10);
#58=PRESENTATION_STYLE_ASSIGNMENT((#57));
#59=STYLED_ITEM('',(#58),#56);
#60=CARTESIAN_POINT('',(-1.9E1,-9.E0,0.E0));
#61=DIRECTION('',(0.E0,0.E0,-1.E0));
#62=DIRECTION('',(0.E0,-1.E0,0.E0));
#63=AXIS2_PLACEMENT_3D('',#60,#61,#62);
#65=CURVE_STYLE('',#34,POSITIVE_LENGTH_MEASURE(2.E-2),#10);
#66=PRESENTATION_STYLE_ASSIGNMENT((#65));
#67=STYLED_ITEM('',(#66),#64);
#68=DIRECTION('',(1.E0,0.E0,0.E0));
#69=VECTOR('',#68,3.8E1);
#70=CARTESIAN_POINT('',(-1.9E1,-1.E1,0.E0));
#71=LINE('',#70,#69);
#72=CURVE_STYLE('',#34,POSITIVE_LENGTH_MEASURE(2.E-2),#10);
#73=PRESENTATION_STYLE_ASSIGNMENT((#72));
#74=STYLED_ITEM('',(#73),#71);
#75=CARTESIAN_POINT('',(1.9E1,-9.E0,0.E0));
#76=DIRECTION('',(0.E0,0.E0,-1.E0));
#77=DIRECTION('',(1.E0,0.E0,0.E0));
#78=AXIS2_PLACEMENT_3D('',#75,#76,#77);
#80=CURVE_STYLE('',#34,POSITIVE_LENGTH_MEASURE(2.E-2),#10);
#81=PRESENTATION_STYLE_ASSIGNMENT((#80));
#82=STYLED_ITEM('',(#81),#79);
#83=DIRECTION('',(0.E0,1.E0,0.E0));
#84=VECTOR('',#83,1.8E1);
#85=CARTESIAN_POINT('',(2.E1,-9.E0,0.E0));
#86=LINE('',#85,#84);
#87=CURVE_STYLE('',#34,POSITIVE_LENGTH_MEASURE(2.E-2),#10);
#88=PRESENTATION_STYLE_ASSIGNMENT((#87));
#89=STYLED_ITEM('',(#88),#86);
#90=CARTESIAN_POINT('',(-1.E1,0.E0,0.E0));
#91=DIRECTION('',(0.E0,0.E0,-1.E0));
#92=DIRECTION('',(-1.E0,0.E0,0.E0));
#93=AXIS2_PLACEMENT_3D('',#90,#91,#92);
#95=CURVE_STYLE('',#34,POSITIVE_LENGTH_MEASURE(2.E-2),#10);
#96=PRESENTATION_STYLE_ASSIGNMENT((#95));
#97=STYLED_ITEM('',(#96),#94);
#98=CARTESIAN_POINT('',(-1.E1,0.E0,0.E0));
#99=DIRECTION('',(0.E0,0.E0,-1.E0));
#100=DIRECTION('',(1.E0,0.E0,0.E0));
#101=AXIS2_PLACEMENT_3D('',#98,#99,#100);
#103=CURVE_STYLE('',#34,POSITIVE_LENGTH_MEASURE(2.E-2),#10);
#104=PRESENTATION_STYLE_ASSIGNMENT((#103));
#105=STYLED_ITEM('',(#104),#102);
#106=CARTESIAN_POINT('',(1.9E1,9.E0,4.94E0));
#107=DIRECTION('',(0.E0,0.E0,-1.E0));
#108=DIRECTION('',(0.E0,1.E0,0.E0));
#109=AXIS2_PLACEMENT_3D('',#106,#107,#108);
#111=CURVE_STYLE('',#34,POSITIVE_LENGTH_MEASURE(2.E-2),#10);
#112=PRESENTATION_STYLE_ASSIGNMENT((#111));
#113=STYLED_ITEM('',(#112),#110);
#114=CARTESIAN_POINT('',(1.9E1,9.E0,7.42E0));
#115=DIRECTION('',(0.E0,0.E0,-1.E0));
#116=DIRECTION('',(0.E0,1.E0,0.E0));
#117=AXIS2_PLACEMENT_3D('',#114,#115,#116);
#119=CURVE_STYLE('',#34,POSITIVE_LENGTH_MEASURE(2.E-2),#10);
#120=PRESENTATION_STYLE_ASSIGNMENT((#119));
#121=STYLED_ITEM('',(#120),#118);
#122=CARTESIAN_POINT('',(-2.5E1,-5.E0,4.94E0));
#123=DIRECTION('',(0.E0,0.E0,-1.E0));
#124=DIRECTION('',(0.E0,-1.E0,0.E0));
#125=AXIS2_PLACEMENT_3D('',#122,#123,#124);
#127=CURVE_STYLE('',#34,POSITIVE_LENGTH_MEASURE(2.E-2),#10);
#128=PRESENTATION_STYLE_ASSIGNMENT((#127));
#129=STYLED_ITEM('',(#128),#126);
#130=CARTESIAN_POINT('',(-2.5E1,-5.E0,4.94E0));
#131=DIRECTION('',(0.E0,0.E0,-1.E0));
#132=DIRECTION('',(0.E0,1.E0,0.E0));
#133=AXIS2_PLACEMENT_3D('',#130,#131,#132);
#135=CURVE_STYLE('',#34,POSITIVE_LENGTH_MEASURE(2.E-2),#10);
#136=PRESENTATION_STYLE_ASSIGNMENT((#135));
#137=STYLED_ITEM('',(#136),#134);
#138=CARTESIAN_POINT('',(-2.5E1,5.E0,4.94E0));
#139=DIRECTION('',(0.E0,0.E0,-1.E0));
#140=DIRECTION('',(0.E0,-1.E0,0.E0));
#141=AXIS2_PLACEMENT_3D('',#138,#139,#140);
#143=CURVE_STYLE('',#34,POSITIVE_LENGTH_MEASURE(2.E-2),#10);
#144=PRESENTATION_STYLE_ASSIGNMENT((#143));
#145=STYLED_ITEM('',(#144),#142);
#146=CARTESIAN_POINT('',(-2.5E1,5.E0,4.94E0));
#147=DIRECTION('',(0.E0,0.E0,-1.E0));
#148=DIRECTION('',(0.E0,1.E0,0.E0));
#149=AXIS2_PLACEMENT_3D('',#146,#147,#148);
#151=CURVE_STYLE('',#34,POSITIVE_LENGTH_MEASURE(2.E-2),#10);
#152=PRESENTATION_STYLE_ASSIGNMENT((#151));
#153=STYLED_ITEM('',(#152),#150);
#154=CARTESIAN_POINT('',(2.5E1,5.E0,4.94E0));
#155=DIRECTION('',(0.E0,0.E0,-1.E0));
#156=DIRECTION('',(0.E0,-1.E0,0.E0));
#157=AXIS2_PLACEMENT_3D('',#154,#155,#156);
#159=CURVE_STYLE('',#34,POSITIVE_LENGTH_MEASURE(2.E-2),#10);
#160=PRESENTATION_STYLE_ASSIGNMENT((#159));
#161=STYLED_ITEM('',(#160),#158);
#162=CARTESIAN_POINT('',(2.5E1,5.E0,4.94E0));
#163=DIRECTION('',(0.E0,0.E0,-1.E0));
#164=DIRECTION('',(0.E0,1.E0,0.E0));
#165=AXIS2_PLACEMENT_3D('',#162,#163,#164);
#167=CURVE_STYLE('',#34,POSITIVE_LENGTH_MEASURE(2.E-2),#10);
#168=PRESENTATION_STYLE_ASSIGNMENT((#167));
#169=STYLED_ITEM('',(#168),#166);
#170=CARTESIAN_POINT('',(2.5E1,-5.E0,4.94E0));
#171=DIRECTION('',(0.E0,0.E0,-1.E0));
#172=DIRECTION('',(0.E0,-1.E0,0.E0));
#173=AXIS2_PLACEMENT_3D('',#170,#171,#172);
#175=CURVE_STYLE('',#34,POSITIVE_LENGTH_MEASURE(2.E-2),#10);
#176=PRESENTATION_STYLE_ASSIGNMENT((#175));
#177=STYLED_ITEM('',(#176),#174);
#178=CARTESIAN_POINT('',(2.5E1,-5.E0,4.94E0));
#179=DIRECTION('',(0.E0,0.E0,-1.E0));
#180=DIRECTION('',(0.E0,1.E0,0.E0));
#181=AXIS2_PLACEMENT_3D('',#178,#179,#180);
#183=CURVE_STYLE('',#34,POSITIVE_LENGTH_MEASURE(2.E-2),#10);
#184=PRESENTATION_STYLE_ASSIGNMENT((#183));
#185=STYLED_ITEM('',(#184),#182);
#186=CARTESIAN_POINT('',(-2.6E1,-8.E0,4.94E0));
#187=DIRECTION('',(0.E0,0.E0,-1.E0));
#188=DIRECTION('',(0.E0,-1.E0,0.E0));
#189=AXIS2_PLACEMENT_3D('',#186,#187,#188);
#191=CURVE_STYLE('',#34,POSITIVE_LENGTH_MEASURE(2.E-2),#10);
#192=PRESENTATION_STYLE_ASSIGNMENT((#191));
#193=STYLED_ITEM('',(#192),#190);
#194=DIRECTION('',(1.E0,0.E0,0.E0));
#195=VECTOR('',#194,7.E0);
#196=CARTESIAN_POINT('',(-2.6E1,-1.E1,4.94E0));
#197=LINE('',#196,#195);
#198=CURVE_STYLE('',#34,POSITIVE_LENGTH_MEASURE(2.E-2),#10);
#199=PRESENTATION_STYLE_ASSIGNMENT((#198));
#200=STYLED_ITEM('',(#199),#197);
#201=DIRECTION('',(-1.E0,0.E0,0.E0));
#202=VECTOR('',#201,7.E0);
#203=CARTESIAN_POINT('',(-1.9E1,1.E1,4.94E0));
#204=LINE('',#203,#202);
#205=CURVE_STYLE('',#34,POSITIVE_LENGTH_MEASURE(2.E-2),#10);
#206=PRESENTATION_STYLE_ASSIGNMENT((#205));
#207=STYLED_ITEM('',(#206),#204);
#208=CARTESIAN_POINT('',(-2.6E1,8.E0,4.94E0));
#209=DIRECTION('',(0.E0,0.E0,-1.E0));
#210=DIRECTION('',(-1.E0,0.E0,0.E0));
#211=AXIS2_PLACEMENT_3D('',#208,#209,#210);
#213=CURVE_STYLE('',#34,POSITIVE_LENGTH_MEASURE(2.E-2),#10);
#214=PRESENTATION_STYLE_ASSIGNMENT((#213));
#215=STYLED_ITEM('',(#214),#212);
#216=DIRECTION('',(0.E0,-1.E0,0.E0));
#217=VECTOR('',#216,1.6E1);
#218=CARTESIAN_POINT('',(-2.8E1,8.E0,4.94E0));
#219=LINE('',#218,#217);
#220=CURVE_STYLE('',#34,POSITIVE_LENGTH_MEASURE(2.E-2),#10);
#221=PRESENTATION_STYLE_ASSIGNMENT((#220));
#222=STYLED_ITEM('',(#221),#219);
#223=CARTESIAN_POINT('',(2.6E1,8.E0,4.94E0));
#224=DIRECTION('',(0.E0,0.E0,-1.E0));
#225=DIRECTION('',(0.E0,1.E0,0.E0));
#226=AXIS2_PLACEMENT_3D('',#223,#224,#225);
#228=CURVE_STYLE('',#34,POSITIVE_LENGTH_MEASURE(2.E-2),#10);
#229=PRESENTATION_STYLE_ASSIGNMENT((#228));
#230=STYLED_ITEM('',(#229),#227);
#231=DIRECTION('',(-1.E0,0.E0,0.E0));
#232=VECTOR('',#231,7.E0);
#233=CARTESIAN_POINT('',(2.6E1,1.E1,4.94E0));
#234=LINE('',#233,#232);
#235=CURVE_STYLE('',#34,POSITIVE_LENGTH_MEASURE(2.E-2),#10);
#236=PRESENTATION_STYLE_ASSIGNMENT((#235));
#237=STYLED_ITEM('',(#236),#234);
#238=DIRECTION('',(1.E0,0.E0,0.E0));
#239=VECTOR('',#238,7.E0);
#240=CARTESIAN_POINT('',(1.9E1,-1.E1,4.94E0));
#241=LINE('',#240,#239);
#242=CURVE_STYLE('',#34,POSITIVE_LENGTH_MEASURE(2.E-2),#10);
#243=PRESENTATION_STYLE_ASSIGNMENT((#242));
#244=STYLED_ITEM('',(#243),#241);
#245=CARTESIAN_POINT('',(2.6E1,-8.E0,4.94E0));
#246=DIRECTION('',(0.E0,0.E0,-1.E0));
#247=DIRECTION('',(1.E0,0.E0,0.E0));
#248=AXIS2_PLACEMENT_3D('',#245,#246,#247);
#250=CURVE_STYLE('',#34,POSITIVE_LENGTH_MEASURE(2.E-2),#10);
#251=PRESENTATION_STYLE_ASSIGNMENT((#250));
#252=STYLED_ITEM('',(#251),#249);
#253=DIRECTION('',(0.E0,1.E0,0.E0));
#254=VECTOR('',#253,1.6E1);
#255=CARTESIAN_POINT('',(2.8E1,-8.E0,4.94E0));
#256=LINE('',#255,#254);
#257=CURVE_STYLE('',#34,POSITIVE_LENGTH_MEASURE(2.E-2),#10);
#258=PRESENTATION_STYLE_ASSIGNMENT((#257));
#259=STYLED_ITEM('',(#258),#256);
#260=DIRECTION('',(0.E0,0.E0,1.E0));
#261=VECTOR('',#260,2.48E0);
#262=CARTESIAN_POINT('',(-2.5E1,-6.9E0,4.94E0));
#263=LINE('',#262,#261);
#264=CURVE_STYLE('',#34,POSITIVE_LENGTH_MEASURE(2.E-2),#10);
#265=PRESENTATION_STYLE_ASSIGNMENT((#264));
#266=STYLED_ITEM('',(#265),#263);
#267=DIRECTION('',(0.E0,0.E0,1.E0));
#268=VECTOR('',#267,2.48E0);
#269=CARTESIAN_POINT('',(-2.5E1,-3.1E0,4.94E0));
#270=LINE('',#269,#268);
#271=CURVE_STYLE('',#34,POSITIVE_LENGTH_MEASURE(2.E-2),#10);
#272=PRESENTATION_STYLE_ASSIGNMENT((#271));
#273=STYLED_ITEM('',(#272),#270);
#274=CARTESIAN_POINT('',(-2.5E1,-5.E0,7.42E0));
#275=DIRECTION('',(0.E0,0.E0,-1.E0));
#276=DIRECTION('',(0.E0,-1.E0,0.E0));
#277=AXIS2_PLACEMENT_3D('',#274,#275,#276);
#279=CURVE_STYLE('',#34,POSITIVE_LENGTH_MEASURE(2.E-2),#10);
#280=PRESENTATION_STYLE_ASSIGNMENT((#279));
#281=STYLED_ITEM('',(#280),#278);
#282=CARTESIAN_POINT('',(-2.5E1,-5.E0,7.42E0));
#283=DIRECTION('',(0.E0,0.E0,-1.E0));
#284=DIRECTION('',(0.E0,1.E0,0.E0));
#285=AXIS2_PLACEMENT_3D('',#282,#283,#284);
#287=CURVE_STYLE('',#34,POSITIVE_LENGTH_MEASURE(2.E-2),#10);
#288=PRESENTATION_STYLE_ASSIGNMENT((#287));
#289=STYLED_ITEM('',(#288),#286);
#290=CARTESIAN_POINT('',(-2.5E1,5.E0,7.42E0));
#291=DIRECTION('',(0.E0,0.E0,-1.E0));
#292=DIRECTION('',(0.E0,-1.E0,0.E0));
#293=AXIS2_PLACEMENT_3D('',#290,#291,#292);
#295=CURVE_STYLE('',#34,POSITIVE_LENGTH_MEASURE(2.E-2),#10);
#296=PRESENTATION_STYLE_ASSIGNMENT((#295));
#297=STYLED_ITEM('',(#296),#294);
#298=CARTESIAN_POINT('',(-2.5E1,5.E0,7.42E0));
#299=DIRECTION('',(0.E0,0.E0,-1.E0));
#300=DIRECTION('',(0.E0,1.E0,0.E0));
#301=AXIS2_PLACEMENT_3D('',#298,#299,#300);
#303=CURVE_STYLE('',#34,POSITIVE_LENGTH_MEASURE(2.E-2),#10);
#304=PRESENTATION_STYLE_ASSIGNMENT((#303));
#305=STYLED_ITEM('',(#304),#302);
#306=CARTESIAN_POINT('',(2.5E1,5.E0,7.42E0));
#307=DIRECTION('',(0.E0,0.E0,-1.E0));
#308=DIRECTION('',(0.E0,-1.E0,0.E0));
#309=AXIS2_PLACEMENT_3D('',#306,#307,#308);
#311=CURVE_STYLE('',#34,POSITIVE_LENGTH_MEASURE(2.E-2),#10);
#312=PRESENTATION_STYLE_ASSIGNMENT((#311));
#313=STYLED_ITEM('',(#312),#310);
#314=CARTESIAN_POINT('',(2.5E1,5.E0,7.42E0));
#315=DIRECTION('',(0.E0,0.E0,-1.E0));
#316=DIRECTION('',(0.E0,1.E0,0.E0));
#317=AXIS2_PLACEMENT_3D('',#314,#315,#316);
#319=CURVE_STYLE('',#34,POSITIVE_LENGTH_MEASURE(2.E-2),#10);
#320=PRESENTATION_STYLE_ASSIGNMENT((#319));
#321=STYLED_ITEM('',(#320),#318);
#322=CARTESIAN_POINT('',(2.5E1,-5.E0,7.42E0));
#323=DIRECTION('',(0.E0,0.E0,-1.E0));
#324=DIRECTION('',(0.E0,-1.E0,0.E0));
#325=AXIS2_PLACEMENT_3D('',#322,#323,#324);
#327=CURVE_STYLE('',#34,POSITIVE_LENGTH_MEASURE(2.E-2),#10);
#328=PRESENTATION_STYLE_ASSIGNMENT((#327));
#329=STYLED_ITEM('',(#328),#326);
#330=CARTESIAN_POINT('',(2.5E1,-5.E0,7.42E0));
#331=DIRECTION('',(0.E0,0.E0,-1.E0));
#332=DIRECTION('',(0.E0,1.E0,0.E0));
#333=AXIS2_PLACEMENT_3D('',#330,#331,#332);
#335=CURVE_STYLE('',#34,POSITIVE_LENGTH_MEASURE(2.E-2),#10);
#336=PRESENTATION_STYLE_ASSIGNMENT((#335));
#337=STYLED_ITEM('',(#336),#334);
#338=CARTESIAN_POINT('',(-2.6E1,-8.E0,7.42E0));
#339=DIRECTION('',(0.E0,0.E0,1.E0));
#340=DIRECTION('',(-1.E0,0.E0,0.E0));
#341=AXIS2_PLACEMENT_3D('',#338,#339,#340);
#343=CURVE_STYLE('',#34,POSITIVE_LENGTH_MEASURE(2.E-2),#10);
#344=PRESENTATION_STYLE_ASSIGNMENT((#343));
#345=STYLED_ITEM('',(#344),#342);
#346=DIRECTION('',(0.E0,-1.E0,0.E0));
#347=VECTOR('',#346,1.6E1);
#348=CARTESIAN_POINT('',(-2.8E1,8.E0,7.42E0));
#349=LINE('',#348,#347);
#350=CURVE_STYLE('',#34,POSITIVE_LENGTH_MEASURE(2.E-2),#10);
#351=PRESENTATION_STYLE_ASSIGNMENT((#350));
#352=STYLED_ITEM('',(#351),#349);
#353=CARTESIAN_POINT('',(-2.6E1,8.E0,7.42E0));
#354=DIRECTION('',(0.E0,0.E0,1.E0));
#355=DIRECTION('',(0.E0,1.E0,0.E0));
#356=AXIS2_PLACEMENT_3D('',#353,#354,#355);
#358=CURVE_STYLE('',#34,POSITIVE_LENGTH_MEASURE(2.E-2),#10);
#359=PRESENTATION_STYLE_ASSIGNMENT((#358));
#360=STYLED_ITEM('',(#359),#357);
#361=DIRECTION('',(-1.E0,0.E0,0.E0));
#362=VECTOR('',#361,7.E0);
#363=CARTESIAN_POINT('',(-1.9E1,1.E1,7.42E0));
#364=LINE('',#363,#362);
#365=CURVE_STYLE('',#34,POSITIVE_LENGTH_MEASURE(2.E-2),#10);
#366=PRESENTATION_STYLE_ASSIGNMENT((#365));
#367=STYLED_ITEM('',(#366),#364);
#368=DIRECTION('',(1.E0,0.E0,0.E0));
#369=VECTOR('',#368,7.E0);
#370=CARTESIAN_POINT('',(-2.6E1,-1.E1,7.42E0));
#371=LINE('',#370,#369);
#372=CURVE_STYLE('',#34,POSITIVE_LENGTH_MEASURE(2.E-2),#10);
#373=PRESENTATION_STYLE_ASSIGNMENT((#372));
#374=STYLED_ITEM('',(#373),#371);
#375=CARTESIAN_POINT('',(2.6E1,8.E0,7.42E0));
#376=DIRECTION('',(0.E0,0.E0,1.E0));
#377=DIRECTION('',(1.E0,0.E0,0.E0));
#378=AXIS2_PLACEMENT_3D('',#375,#376,#377);
#380=CURVE_STYLE('',#34,POSITIVE_LENGTH_MEASURE(2.E-2),#10);
#381=PRESENTATION_STYLE_ASSIGNMENT((#380));
#382=STYLED_ITEM('',(#381),#379);
#383=DIRECTION('',(0.E0,1.E0,0.E0));
#384=VECTOR('',#383,1.6E1);
#385=CARTESIAN_POINT('',(2.8E1,-8.E0,7.42E0));
#386=LINE('',#385,#384);
#387=CURVE_STYLE('',#34,POSITIVE_LENGTH_MEASURE(2.E-2),#10);
#388=PRESENTATION_STYLE_ASSIGNMENT((#387));
#389=STYLED_ITEM('',(#388),#386);
#390=CARTESIAN_POINT('',(2.6E1,-8.E0,7.42E0));
#391=DIRECTION('',(0.E0,0.E0,1.E0));
#392=DIRECTION('',(0.E0,-1.E0,0.E0));
#393=AXIS2_PLACEMENT_3D('',#390,#391,#392);
#395=CURVE_STYLE('',#34,POSITIVE_LENGTH_MEASURE(2.E-2),#10);
#396=PRESENTATION_STYLE_ASSIGNMENT((#395));
#397=STYLED_ITEM('',(#396),#394);
#398=DIRECTION('',(1.E0,0.E0,0.E0));
#399=VECTOR('',#398,7.E0);
#400=CARTESIAN_POINT('',(1.9E1,-1.E1,7.42E0));
#401=LINE('',#400,#399);
#402=CURVE_STYLE('',#34,POSITIVE_LENGTH_MEASURE(2.E-2),#10);
#403=PRESENTATION_STYLE_ASSIGNMENT((#402));
#404=STYLED_ITEM('',(#403),#401);
#405=DIRECTION('',(-1.E0,0.E0,0.E0));
#406=VECTOR('',#405,7.E0);
#407=CARTESIAN_POINT('',(2.6E1,1.E1,7.42E0));
#408=LINE('',#407,#406);
#409=CURVE_STYLE('',#34,POSITIVE_LENGTH_MEASURE(2.E-2),#10);
#410=PRESENTATION_STYLE_ASSIGNMENT((#409));
#411=STYLED_ITEM('',(#410),#408);
#412=DIRECTION('',(0.E0,0.E0,1.E0));
#413=VECTOR('',#412,2.48E0);
#414=CARTESIAN_POINT('',(-2.5E1,3.1E0,4.94E0));
#415=LINE('',#414,#413);
#416=CURVE_STYLE('',#34,POSITIVE_LENGTH_MEASURE(2.E-2),#10);
#417=PRESENTATION_STYLE_ASSIGNMENT((#416));
#418=STYLED_ITEM('',(#417),#415);
#419=DIRECTION('',(0.E0,0.E0,1.E0));
#420=VECTOR('',#419,2.48E0);
#421=CARTESIAN_POINT('',(-2.5E1,6.9E0,4.94E0));
#422=LINE('',#421,#420);
#423=CURVE_STYLE('',#34,POSITIVE_LENGTH_MEASURE(2.E-2),#10);
#424=PRESENTATION_STYLE_ASSIGNMENT((#423));
#425=STYLED_ITEM('',(#424),#422);
#426=DIRECTION('',(0.E0,0.E0,1.E0));
#427=VECTOR('',#426,2.48E0);
#428=CARTESIAN_POINT('',(2.5E1,3.1E0,4.94E0));
#429=LINE('',#428,#427);
#430=CURVE_STYLE('',#34,POSITIVE_LENGTH_MEASURE(2.E-2),#10);
#431=PRESENTATION_STYLE_ASSIGNMENT((#430));
#432=STYLED_ITEM('',(#431),#429);
#433=DIRECTION('',(0.E0,0.E0,1.E0));
#434=VECTOR('',#433,2.48E0);
#435=CARTESIAN_POINT('',(2.5E1,6.9E0,4.94E0));
#436=LINE('',#435,#434);
#437=CURVE_STYLE('',#34,POSITIVE_LENGTH_MEASURE(2.E-2),#10);
#438=PRESENTATION_STYLE_ASSIGNMENT((#437));
#439=STYLED_ITEM('',(#438),#436);
#440=DIRECTION('',(0.E0,0.E0,1.E0));
#441=VECTOR('',#440,2.48E0);
#442=CARTESIAN_POINT('',(2.5E1,-6.9E0,4.94E0));
#443=LINE('',#442,#441);
#444=CURVE_STYLE('',#34,POSITIVE_LENGTH_MEASURE(2.E-2),#10);
#445=PRESENTATION_STYLE_ASSIGNMENT((#444));
#446=STYLED_ITEM('',(#445),#443);
#447=DIRECTION('',(0.E0,0.E0,1.E0));
#448=VECTOR('',#447,2.48E0);
#449=CARTESIAN_POINT('',(2.5E1,-3.1E0,4.94E0));
#450=LINE('',#449,#448);
#451=CURVE_STYLE('',#34,POSITIVE_LENGTH_MEASURE(2.E-2),#10);
#452=PRESENTATION_STYLE_ASSIGNMENT((#451));
#453=STYLED_ITEM('',(#452),#450);
#454=DIRECTION('',(0.E0,0.E0,-1.E0));
#455=VECTOR('',#454,2.48E0);
#456=CARTESIAN_POINT('',(-2.8E1,-8.E0,7.42E0));
#457=LINE('',#456,#455);
#458=CURVE_STYLE('',#34,POSITIVE_LENGTH_MEASURE(2.E-2),#10);
#459=PRESENTATION_STYLE_ASSIGNMENT((#458));
#460=STYLED_ITEM('',(#459),#457);
#461=DIRECTION('',(0.E0,0.E0,-1.E0));
#462=VECTOR('',#461,2.48E0);
#463=CARTESIAN_POINT('',(-2.8E1,8.E0,7.42E0));
#464=LINE('',#463,#462);
#465=CURVE_STYLE('',#34,POSITIVE_LENGTH_MEASURE(2.E-2),#10);
#466=PRESENTATION_STYLE_ASSIGNMENT((#465));
#467=STYLED_ITEM('',(#466),#464);
#468=DIRECTION('',(0.E0,0.E0,-1.E0));
#469=VECTOR('',#468,2.48E0);
#470=CARTESIAN_POINT('',(-2.6E1,1.E1,7.42E0));
#471=LINE('',#470,#469);
#472=CURVE_STYLE('',#34,POSITIVE_LENGTH_MEASURE(2.E-2),#10);
#473=PRESENTATION_STYLE_ASSIGNMENT((#472));
#474=STYLED_ITEM('',(#473),#471);
#475=DIRECTION('',(0.E0,0.E0,-1.E0));
#476=VECTOR('',#475,4.94E0);
#477=CARTESIAN_POINT('',(-1.9E1,1.E1,4.94E0));
#478=LINE('',#477,#476);
#479=CURVE_STYLE('',#34,POSITIVE_LENGTH_MEASURE(2.E-2),#10);
#480=PRESENTATION_STYLE_ASSIGNMENT((#479));
#481=STYLED_ITEM('',(#480),#478);
#482=DIRECTION('',(0.E0,0.E0,-1.E0));
#483=VECTOR('',#482,4.94E0);
#484=CARTESIAN_POINT('',(1.9E1,1.E1,4.94E0));
#485=LINE('',#484,#483);
#486=CURVE_STYLE('',#34,POSITIVE_LENGTH_MEASURE(2.E-2),#10);
#487=PRESENTATION_STYLE_ASSIGNMENT((#486));
#488=STYLED_ITEM('',(#487),#485);
#489=DIRECTION('',(0.E0,0.E0,-1.E0));
#490=VECTOR('',#489,2.48E0);
#491=CARTESIAN_POINT('',(2.6E1,1.E1,7.42E0));
#492=LINE('',#491,#490);
#493=CURVE_STYLE('',#34,POSITIVE_LENGTH_MEASURE(2.E-2),#10);
#494=PRESENTATION_STYLE_ASSIGNMENT((#493));
#495=STYLED_ITEM('',(#494),#492);
#496=DIRECTION('',(0.E0,0.E0,-1.E0));
#497=VECTOR('',#496,3.258E1);
#498=CARTESIAN_POINT('',(1.9E1,1.E1,4.E1));
#499=LINE('',#498,#497);
#500=CURVE_STYLE('',#34,POSITIVE_LENGTH_MEASURE(2.E-2),#10);
#501=PRESENTATION_STYLE_ASSIGNMENT((#500));
#502=STYLED_ITEM('',(#501),#499);
#503=DIRECTION('',(0.E0,0.E0,-1.E0));
#504=VECTOR('',#503,3.258E1);
#505=CARTESIAN_POINT('',(-1.9E1,1.E1,4.E1));
#506=LINE('',#505,#504);
#507=CURVE_STYLE('',#34,POSITIVE_LENGTH_MEASURE(2.E-2),#10);
#508=PRESENTATION_STYLE_ASSIGNMENT((#507));
#509=STYLED_ITEM('',(#508),#506);
#510=CARTESIAN_POINT('',(-1.9E1,9.E0,4.94E0));
#511=DIRECTION('',(0.E0,0.E0,-1.E0));
#512=DIRECTION('',(-1.E0,0.E0,0.E0));
#513=AXIS2_PLACEMENT_3D('',#510,#511,#512);
#515=CURVE_STYLE('',#34,POSITIVE_LENGTH_MEASURE(2.E-2),#10);
#516=PRESENTATION_STYLE_ASSIGNMENT((#515));
#517=STYLED_ITEM('',(#516),#514);
#518=CARTESIAN_POINT('',(-1.9E1,9.E0,7.42E0));
#519=DIRECTION('',(0.E0,0.E0,-1.E0));
#520=DIRECTION('',(-1.E0,0.E0,0.E0));
#521=AXIS2_PLACEMENT_3D('',#518,#519,#520);
#523=CURVE_STYLE('',#34,POSITIVE_LENGTH_MEASURE(2.E-2),#10);
#524=PRESENTATION_STYLE_ASSIGNMENT((#523));
#525=STYLED_ITEM('',(#524),#522);
#526=DIRECTION('',(0.E0,-1.E0,0.E0));
#527=VECTOR('',#526,1.8E1);
#528=CARTESIAN_POINT('',(-2.E1,9.E0,4.94E0));
#529=LINE('',#528,#527);
#530=CURVE_STYLE('',#34,POSITIVE_LENGTH_MEASURE(2.E-2),#10);
#531=PRESENTATION_STYLE_ASSIGNMENT((#530));
#532=STYLED_ITEM('',(#531),#529);
#533=DIRECTION('',(0.E0,0.E0,-1.E0));
#534=VECTOR('',#533,4.94E0);
#535=CARTESIAN_POINT('',(-2.E1,-9.E0,4.94E0));
#536=LINE('',#535,#534);
#537=CURVE_STYLE('',#34,POSITIVE_LENGTH_MEASURE(2.E-2),#10);
#538=PRESENTATION_STYLE_ASSIGNMENT((#537));
#539=STYLED_ITEM('',(#538),#536);
#540=DIRECTION('',(0.E0,0.E0,-1.E0));
#541=VECTOR('',#540,4.94E0);
#542=CARTESIAN_POINT('',(-2.E1,9.E0,4.94E0));
#543=LINE('',#542,#541);
#544=CURVE_STYLE('',#34,POSITIVE_LENGTH_MEASURE(2.E-2),#10);
#545=PRESENTATION_STYLE_ASSIGNMENT((#544));
#546=STYLED_ITEM('',(#545),#543);
#547=DIRECTION('',(0.E0,-1.E0,0.E0));
#548=VECTOR('',#547,1.8E1);
#549=CARTESIAN_POINT('',(-2.E1,9.E0,7.42E0));
#550=LINE('',#549,#548);
#551=CURVE_STYLE('',#34,POSITIVE_LENGTH_MEASURE(2.E-2),#10);
#552=PRESENTATION_STYLE_ASSIGNMENT((#551));
#553=STYLED_ITEM('',(#552),#550);
#554=DIRECTION('',(0.E0,0.E0,-1.E0));
#555=VECTOR('',#554,3.258E1);
#556=CARTESIAN_POINT('',(-2.E1,9.E0,4.E1));
#557=LINE('',#556,#555);
#558=CURVE_STYLE('',#34,POSITIVE_LENGTH_MEASURE(2.E-2),#10);
#559=PRESENTATION_STYLE_ASSIGNMENT((#558));
#560=STYLED_ITEM('',(#559),#557);
#561=DIRECTION('',(0.E0,0.E0,-1.E0));
#562=VECTOR('',#561,3.258E1);
#563=CARTESIAN_POINT('',(-2.E1,-9.E0,4.E1));
#564=LINE('',#563,#562);
#565=CURVE_STYLE('',#34,POSITIVE_LENGTH_MEASURE(2.E-2),#10);
#566=PRESENTATION_STYLE_ASSIGNMENT((#565));
#567=STYLED_ITEM('',(#566),#564);
#568=CARTESIAN_POINT('',(-1.9E1,-9.E0,4.94E0));
#569=DIRECTION('',(0.E0,0.E0,-1.E0));
#570=DIRECTION('',(0.E0,-1.E0,0.E0));
#571=AXIS2_PLACEMENT_3D('',#568,#569,#570);
#573=CURVE_STYLE('',#34,POSITIVE_LENGTH_MEASURE(2.E-2),#10);
#574=PRESENTATION_STYLE_ASSIGNMENT((#573));
#575=STYLED_ITEM('',(#574),#572);
#576=CARTESIAN_POINT('',(-1.9E1,-9.E0,7.42E0));
#577=DIRECTION('',(0.E0,0.E0,-1.E0));
#578=DIRECTION('',(0.E0,-1.E0,0.E0));
#579=AXIS2_PLACEMENT_3D('',#576,#577,#578);
#581=CURVE_STYLE('',#34,POSITIVE_LENGTH_MEASURE(2.E-2),#10);
#582=PRESENTATION_STYLE_ASSIGNMENT((#581));
#583=STYLED_ITEM('',(#582),#580);
#584=DIRECTION('',(0.E0,0.E0,-1.E0));
#585=VECTOR('',#584,2.48E0);
#586=CARTESIAN_POINT('',(-2.6E1,-1.E1,7.42E0));
#587=LINE('',#586,#585);
#588=CURVE_STYLE('',#34,POSITIVE_LENGTH_MEASURE(2.E-2),#10);
#589=PRESENTATION_STYLE_ASSIGNMENT((#588));
#590=STYLED_ITEM('',(#589),#587);
#591=DIRECTION('',(0.E0,0.E0,-1.E0));
#592=VECTOR('',#591,3.258E1);
#593=CARTESIAN_POINT('',(-1.9E1,-1.E1,4.E1));
#594=LINE('',#593,#592);
#595=CURVE_STYLE('',#34,POSITIVE_LENGTH_MEASURE(2.E-2),#10);
#596=PRESENTATION_STYLE_ASSIGNMENT((#595));
#597=STYLED_ITEM('',(#596),#594);
#598=DIRECTION('',(0.E0,0.E0,-1.E0));
#599=VECTOR('',#598,3.258E1);
#600=CARTESIAN_POINT('',(1.9E1,-1.E1,4.E1));
#601=LINE('',#600,#599);
#602=CURVE_STYLE('',#34,POSITIVE_LENGTH_MEASURE(2.E-2),#10);
#603=PRESENTATION_STYLE_ASSIGNMENT((#602));
#604=STYLED_ITEM('',(#603),#601);
#605=DIRECTION('',(0.E0,0.E0,-1.E0));
#606=VECTOR('',#605,2.48E0);
#607=CARTESIAN_POINT('',(2.6E1,-1.E1,7.42E0));
#608=LINE('',#607,#606);
#609=CURVE_STYLE('',#34,POSITIVE_LENGTH_MEASURE(2.E-2),#10);
#610=PRESENTATION_STYLE_ASSIGNMENT((#609));
#611=STYLED_ITEM('',(#610),#608);
#612=DIRECTION('',(0.E0,0.E0,-1.E0));
#613=VECTOR('',#612,4.94E0);
#614=CARTESIAN_POINT('',(1.9E1,-1.E1,4.94E0));
#615=LINE('',#614,#613);
#616=CURVE_STYLE('',#34,POSITIVE_LENGTH_MEASURE(2.E-2),#10);
#617=PRESENTATION_STYLE_ASSIGNMENT((#616));
#618=STYLED_ITEM('',(#617),#615);
#619=DIRECTION('',(0.E0,0.E0,-1.E0));
#620=VECTOR('',#619,4.94E0);
#621=CARTESIAN_POINT('',(-1.9E1,-1.E1,4.94E0));
#622=LINE('',#621,#620);
#623=CURVE_STYLE('',#34,POSITIVE_LENGTH_MEASURE(2.E-2),#10);
#624=PRESENTATION_STYLE_ASSIGNMENT((#623));
#625=STYLED_ITEM('',(#624),#622);
#626=CARTESIAN_POINT('',(1.9E1,9.E0,4.E1));
#627=DIRECTION('',(0.E0,0.E0,1.E0));
#628=DIRECTION('',(1.E0,0.E0,0.E0));
#629=AXIS2_PLACEMENT_3D('',#626,#627,#628);
#631=CURVE_STYLE('',#34,POSITIVE_LENGTH_MEASURE(2.E-2),#10);
#632=PRESENTATION_STYLE_ASSIGNMENT((#631));
#633=STYLED_ITEM('',(#632),#630);
#634=DIRECTION('',(0.E0,1.E0,0.E0));
#635=VECTOR('',#634,1.8E1);
#636=CARTESIAN_POINT('',(2.E1,-9.E0,4.E1));
#637=LINE('',#636,#635);
#638=CURVE_STYLE('',#34,POSITIVE_LENGTH_MEASURE(2.E-2),#10);
#639=PRESENTATION_STYLE_ASSIGNMENT((#638));
#640=STYLED_ITEM('',(#639),#637);
#641=CARTESIAN_POINT('',(1.9E1,-9.E0,4.E1));
#642=DIRECTION('',(0.E0,0.E0,1.E0));
#643=DIRECTION('',(0.E0,-1.E0,0.E0));
#644=AXIS2_PLACEMENT_3D('',#641,#642,#643);
#646=CURVE_STYLE('',#34,POSITIVE_LENGTH_MEASURE(2.E-2),#10);
#647=PRESENTATION_STYLE_ASSIGNMENT((#646));
#648=STYLED_ITEM('',(#647),#645);
#649=DIRECTION('',(1.E0,0.E0,0.E0));
#650=VECTOR('',#649,3.8E1);
#651=CARTESIAN_POINT('',(-1.9E1,-1.E1,4.E1));
#652=LINE('',#651,#650);
#653=CURVE_STYLE('',#34,POSITIVE_LENGTH_MEASURE(2.E-2),#10);
#654=PRESENTATION_STYLE_ASSIGNMENT((#653));
#655=STYLED_ITEM('',(#654),#652);
#656=CARTESIAN_POINT('',(-1.9E1,-9.E0,4.E1));
#657=DIRECTION('',(0.E0,0.E0,1.E0));
#658=DIRECTION('',(-1.E0,0.E0,0.E0));
#659=AXIS2_PLACEMENT_3D('',#656,#657,#658);
#661=CURVE_STYLE('',#34,POSITIVE_LENGTH_MEASURE(2.E-2),#10);
#662=PRESENTATION_STYLE_ASSIGNMENT((#661));
#663=STYLED_ITEM('',(#662),#660);
#664=DIRECTION('',(0.E0,-1.E0,0.E0));
#665=VECTOR('',#664,1.8E1);
#666=CARTESIAN_POINT('',(-2.E1,9.E0,4.E1));
#667=LINE('',#666,#665);
#668=CURVE_STYLE('',#34,POSITIVE_LENGTH_MEASURE(2.E-2),#10);
#669=PRESENTATION_STYLE_ASSIGNMENT((#668));
#670=STYLED_ITEM('',(#669),#667);
#671=CARTESIAN_POINT('',(-1.9E1,9.E0,4.E1));
#672=DIRECTION('',(0.E0,0.E0,1.E0));
#673=DIRECTION('',(0.E0,1.E0,0.E0));
#674=AXIS2_PLACEMENT_3D('',#671,#672,#673);
#676=CURVE_STYLE('',#34,POSITIVE_LENGTH_MEASURE(2.E-2),#10);
#677=PRESENTATION_STYLE_ASSIGNMENT((#676));
#678=STYLED_ITEM('',(#677),#675);
#679=DIRECTION('',(-1.E0,0.E0,0.E0));
#680=VECTOR('',#679,3.8E1);
#681=CARTESIAN_POINT('',(1.9E1,1.E1,4.E1));
#682=LINE('',#681,#680);
#683=CURVE_STYLE('',#34,POSITIVE_LENGTH_MEASURE(2.E-2),#10);
#684=PRESENTATION_STYLE_ASSIGNMENT((#683));
#685=STYLED_ITEM('',(#684),#682);
#686=DIRECTION('',(0.E0,1.E0,0.E0));
#687=VECTOR('',#686,1.8E1);
#688=CARTESIAN_POINT('',(2.E1,-9.E0,4.94E0));
#689=LINE('',#688,#687);
#690=CURVE_STYLE('',#34,POSITIVE_LENGTH_MEASURE(2.E-2),#10);
#691=PRESENTATION_STYLE_ASSIGNMENT((#690));
#692=STYLED_ITEM('',(#691),#689);
#693=DIRECTION('',(0.E0,0.E0,-1.E0));
#694=VECTOR('',#693,4.94E0);
#695=CARTESIAN_POINT('',(2.E1,9.E0,4.94E0));
#696=LINE('',#695,#694);
#697=CURVE_STYLE('',#34,POSITIVE_LENGTH_MEASURE(2.E-2),#10);
#698=PRESENTATION_STYLE_ASSIGNMENT((#697));
#699=STYLED_ITEM('',(#698),#696);
#700=DIRECTION('',(0.E0,0.E0,-1.E0));
#701=VECTOR('',#700,4.94E0);
#702=CARTESIAN_POINT('',(2.E1,-9.E0,4.94E0));
#703=LINE('',#702,#701);
#704=CURVE_STYLE('',#34,POSITIVE_LENGTH_MEASURE(2.E-2),#10);
#705=PRESENTATION_STYLE_ASSIGNMENT((#704));
#706=STYLED_ITEM('',(#705),#703);
#707=DIRECTION('',(0.E0,1.E0,0.E0));
#708=VECTOR('',#707,1.8E1);
#709=CARTESIAN_POINT('',(2.E1,-9.E0,7.42E0));
#710=LINE('',#709,#708);
#711=CURVE_STYLE('',#34,POSITIVE_LENGTH_MEASURE(2.E-2),#10);
#712=PRESENTATION_STYLE_ASSIGNMENT((#711));
#713=STYLED_ITEM('',(#712),#710);
#714=DIRECTION('',(0.E0,0.E0,-1.E0));
#715=VECTOR('',#714,3.258E1);
#716=CARTESIAN_POINT('',(2.E1,-9.E0,4.E1));
#717=LINE('',#716,#715);
#718=CURVE_STYLE('',#34,POSITIVE_LENGTH_MEASURE(2.E-2),#10);
#719=PRESENTATION_STYLE_ASSIGNMENT((#718));
#720=STYLED_ITEM('',(#719),#717);
#721=DIRECTION('',(0.E0,0.E0,-1.E0));
#722=VECTOR('',#721,3.258E1);
#723=CARTESIAN_POINT('',(2.E1,9.E0,4.E1));
#724=LINE('',#723,#722);
#725=CURVE_STYLE('',#34,POSITIVE_LENGTH_MEASURE(2.E-2),#10);
#726=PRESENTATION_STYLE_ASSIGNMENT((#725));
#727=STYLED_ITEM('',(#726),#724);
#728=CARTESIAN_POINT('',(1.9E1,-9.E0,4.94E0));
#729=DIRECTION('',(0.E0,0.E0,-1.E0));
#730=DIRECTION('',(1.E0,0.E0,0.E0));
#731=AXIS2_PLACEMENT_3D('',#728,#729,#730);
#733=CURVE_STYLE('',#34,POSITIVE_LENGTH_MEASURE(2.E-2),#10);
#734=PRESENTATION_STYLE_ASSIGNMENT((#733));
#735=STYLED_ITEM('',(#734),#732);
#736=CARTESIAN_POINT('',(1.9E1,-9.E0,7.42E0));
#737=DIRECTION('',(0.E0,0.E0,-1.E0));
#738=DIRECTION('',(1.E0,0.E0,0.E0));
#739=AXIS2_PLACEMENT_3D('',#736,#737,#738);
#741=CURVE_STYLE('',#34,POSITIVE_LENGTH_MEASURE(2.E-2),#10);
#742=PRESENTATION_STYLE_ASSIGNMENT((#741));
#743=STYLED_ITEM('',(#742),#740);
#744=DIRECTION('',(0.E0,0.E0,-1.E0));
#745=VECTOR('',#744,2.48E0);
#746=CARTESIAN_POINT('',(2.8E1,8.E0,7.42E0));
#747=LINE('',#746,#745);
#748=CURVE_STYLE('',#34,POSITIVE_LENGTH_MEASURE(2.E-2),#10);
#749=PRESENTATION_STYLE_ASSIGNMENT((#748));
#750=STYLED_ITEM('',(#749),#747);
#751=DIRECTION('',(0.E0,0.E0,-1.E0));
#752=VECTOR('',#751,2.48E0);
#753=CARTESIAN_POINT('',(2.8E1,-8.E0,7.42E0));
#754=LINE('',#753,#752);
#755=CURVE_STYLE('',#34,POSITIVE_LENGTH_MEASURE(2.E-2),#10);
#756=PRESENTATION_STYLE_ASSIGNMENT((#755));
#757=STYLED_ITEM('',(#756),#754);
#758=DIRECTION('',(0.E0,0.E0,-1.E0));
#759=VECTOR('',#758,5.E0);
#760=CARTESIAN_POINT('',(-1.2E1,0.E0,0.E0));
#761=LINE('',#760,#759);
#762=CURVE_STYLE('',#34,POSITIVE_LENGTH_MEASURE(2.E-2),#10);
#763=PRESENTATION_STYLE_ASSIGNMENT((#762));
#764=STYLED_ITEM('',(#763),#761);
#765=DIRECTION('',(0.E0,0.E0,-1.E0));
#766=VECTOR('',#765,5.E0);
#767=CARTESIAN_POINT('',(-8.E0,0.E0,0.E0));
#768=LINE('',#767,#766);
#769=CURVE_STYLE('',#34,POSITIVE_LENGTH_MEASURE(2.E-2),#10);
#770=PRESENTATION_STYLE_ASSIGNMENT((#769));
#771=STYLED_ITEM('',(#770),#768);
#772=CARTESIAN_POINT('',(-1.E1,0.E0,-5.E0));
#773=DIRECTION('',(0.E0,0.E0,-1.E0));
#774=DIRECTION('',(-1.E0,0.E0,0.E0));
#775=AXIS2_PLACEMENT_3D('',#772,#773,#774);
#777=CURVE_STYLE('',#34,POSITIVE_LENGTH_MEASURE(2.E-2),#10);
#778=PRESENTATION_STYLE_ASSIGNMENT((#777));
#779=STYLED_ITEM('',(#778),#776);
#780=CARTESIAN_POINT('',(-1.E1,0.E0,-5.E0));
#781=DIRECTION('',(0.E0,0.E0,-1.E0));
#782=DIRECTION('',(1.E0,0.E0,0.E0));
#783=AXIS2_PLACEMENT_3D('',#780,#781,#782);
#785=CURVE_STYLE('',#34,POSITIVE_LENGTH_MEASURE(2.E-2),#10);
#786=PRESENTATION_STYLE_ASSIGNMENT((#785));
#787=STYLED_ITEM('',(#786),#784);
#788=CARTESIAN_POINT('',(1.9E1,1.E1,0.E0));
#789=CARTESIAN_POINT('',(2.E1,9.E0,0.E0));
#790=VERTEX_POINT('',#788);
#791=VERTEX_POINT('',#789);
#792=CARTESIAN_POINT('',(2.E1,9.E0,4.E1));
#793=CARTESIAN_POINT('',(1.9E1,1.E1,4.E1));
#794=VERTEX_POINT('',#792);
#795=VERTEX_POINT('',#793);
#796=CARTESIAN_POINT('',(-2.E1,9.E0,0.E0));
#797=CARTESIAN_POINT('',(-1.9E1,1.E1,0.E0));
#798=VERTEX_POINT('',#796);
#799=VERTEX_POINT('',#797);
#800=CARTESIAN_POINT('',(-1.9E1,1.E1,4.E1));
#801=CARTESIAN_POINT('',(-2.E1,9.E0,4.E1));
#802=VERTEX_POINT('',#800);
#803=VERTEX_POINT('',#801);
#804=CARTESIAN_POINT('',(2.E1,-9.E0,0.E0));
#805=CARTESIAN_POINT('',(1.9E1,-1.E1,0.E0));
#806=VERTEX_POINT('',#804);
#807=VERTEX_POINT('',#805);
#808=CARTESIAN_POINT('',(1.9E1,-1.E1,4.E1));
#809=CARTESIAN_POINT('',(2.E1,-9.E0,4.E1));
#810=VERTEX_POINT('',#808);
#811=VERTEX_POINT('',#809);
#812=CARTESIAN_POINT('',(-1.9E1,-1.E1,0.E0));
#813=CARTESIAN_POINT('',(-2.E1,-9.E0,0.E0));
#814=VERTEX_POINT('',#812);
#815=VERTEX_POINT('',#813);
#816=CARTESIAN_POINT('',(-2.E1,-9.E0,4.E1));
#817=CARTESIAN_POINT('',(-1.9E1,-1.E1,4.E1));
#818=VERTEX_POINT('',#816);
#819=VERTEX_POINT('',#817);
#820=CARTESIAN_POINT('',(-1.2E1,0.E0,-5.E0));
#821=CARTESIAN_POINT('',(-8.E0,0.E0,-5.E0));
#822=VERTEX_POINT('',#820);
#823=VERTEX_POINT('',#821);
#824=CARTESIAN_POINT('',(-1.2E1,0.E0,0.E0));
#825=CARTESIAN_POINT('',(-8.E0,0.E0,0.E0));
#826=VERTEX_POINT('',#824);
#827=VERTEX_POINT('',#825);
#828=CARTESIAN_POINT('',(2.5E1,3.1E0,4.94E0));
#829=CARTESIAN_POINT('',(2.5E1,6.9E0,4.94E0));
#830=VERTEX_POINT('',#828);
#831=VERTEX_POINT('',#829);
#832=CARTESIAN_POINT('',(2.5E1,-6.9E0,4.94E0));
#833=CARTESIAN_POINT('',(2.5E1,-3.1E0,4.94E0));
#834=VERTEX_POINT('',#832);
#835=VERTEX_POINT('',#833);
#836=CARTESIAN_POINT('',(-2.5E1,-6.9E0,4.94E0));
#837=CARTESIAN_POINT('',(-2.5E1,-3.1E0,4.94E0));
#838=VERTEX_POINT('',#836);
#839=VERTEX_POINT('',#837);
#840=CARTESIAN_POINT('',(-2.5E1,3.1E0,4.94E0));
#841=CARTESIAN_POINT('',(-2.5E1,6.9E0,4.94E0));
#842=VERTEX_POINT('',#840);
#843=VERTEX_POINT('',#841);
#844=CARTESIAN_POINT('',(2.5E1,3.1E0,7.42E0));
#845=CARTESIAN_POINT('',(2.5E1,6.9E0,7.42E0));
#846=VERTEX_POINT('',#844);
#847=VERTEX_POINT('',#845);
#848=CARTESIAN_POINT('',(2.5E1,-6.9E0,7.42E0));
#849=CARTESIAN_POINT('',(2.5E1,-3.1E0,7.42E0));
#850=VERTEX_POINT('',#848);
#851=VERTEX_POINT('',#849);
#852=CARTESIAN_POINT('',(-2.5E1,-6.9E0,7.42E0));
#853=CARTESIAN_POINT('',(-2.5E1,-3.1E0,7.42E0));
#854=VERTEX_POINT('',#852);
#855=VERTEX_POINT('',#853);
#856=CARTESIAN_POINT('',(-2.5E1,3.1E0,7.42E0));
#857=CARTESIAN_POINT('',(-2.5E1,6.9E0,7.42E0));
#858=VERTEX_POINT('',#856);
#859=VERTEX_POINT('',#857);
#860=CARTESIAN_POINT('',(-2.E1,9.E0,4.94E0));
#861=CARTESIAN_POINT('',(-2.E1,-9.E0,4.94E0));
#862=VERTEX_POINT('',#860);
#863=VERTEX_POINT('',#861);
#864=CARTESIAN_POINT('',(-2.E1,9.E0,7.42E0));
#865=CARTESIAN_POINT('',(-2.E1,-9.E0,7.42E0));
#866=VERTEX_POINT('',#864);
#867=VERTEX_POINT('',#865);
#868=CARTESIAN_POINT('',(2.E1,-9.E0,4.94E0));
#869=CARTESIAN_POINT('',(2.E1,9.E0,4.94E0));
#870=VERTEX_POINT('',#868);
#871=VERTEX_POINT('',#869);
#872=CARTESIAN_POINT('',(2.E1,-9.E0,7.42E0));
#873=CARTESIAN_POINT('',(2.E1,9.E0,7.42E0));
#874=VERTEX_POINT('',#872);
#875=VERTEX_POINT('',#873);
#876=CARTESIAN_POINT('',(1.9E1,1.E1,4.94E0));
#877=VERTEX_POINT('',#876);
#878=CARTESIAN_POINT('',(1.9E1,1.E1,7.42E0));
#879=VERTEX_POINT('',#878);
#880=CARTESIAN_POINT('',(-1.9E1,1.E1,4.94E0));
#881=VERTEX_POINT('',#880);
#882=CARTESIAN_POINT('',(-1.9E1,1.E1,7.42E0));
#883=VERTEX_POINT('',#882);
#884=CARTESIAN_POINT('',(1.9E1,-1.E1,4.94E0));
#885=VERTEX_POINT('',#884);
#886=CARTESIAN_POINT('',(1.9E1,-1.E1,7.42E0));
#887=VERTEX_POINT('',#886);
#888=CARTESIAN_POINT('',(-1.9E1,-1.E1,4.94E0));
#889=VERTEX_POINT('',#888);
#890=CARTESIAN_POINT('',(-1.9E1,-1.E1,7.42E0));
#891=VERTEX_POINT('',#890);
#892=CARTESIAN_POINT('',(-2.6E1,-1.E1,4.94E0));
#893=CARTESIAN_POINT('',(-2.8E1,-8.E0,4.94E0));
#894=VERTEX_POINT('',#892);
#895=VERTEX_POINT('',#893);
#896=CARTESIAN_POINT('',(-2.8E1,-8.E0,7.42E0));
#897=VERTEX_POINT('',#896);
#898=CARTESIAN_POINT('',(-2.6E1,-1.E1,7.42E0));
#899=VERTEX_POINT('',#898);
#900=CARTESIAN_POINT('',(-2.8E1,8.E0,4.94E0));
#901=CARTESIAN_POINT('',(-2.6E1,1.E1,4.94E0));
#902=VERTEX_POINT('',#900);
#903=VERTEX_POINT('',#901);
#904=CARTESIAN_POINT('',(-2.6E1,1.E1,7.42E0));
#905=VERTEX_POINT('',#904);
#906=CARTESIAN_POINT('',(-2.8E1,8.E0,7.42E0));
#907=VERTEX_POINT('',#906);
#908=CARTESIAN_POINT('',(2.6E1,1.E1,4.94E0));
#909=CARTESIAN_POINT('',(2.8E1,8.E0,4.94E0));
#910=VERTEX_POINT('',#908);
#911=VERTEX_POINT('',#909);
#912=CARTESIAN_POINT('',(2.8E1,8.E0,7.42E0));
#913=VERTEX_POINT('',#912);
#914=CARTESIAN_POINT('',(2.6E1,1.E1,7.42E0));
#915=VERTEX_POINT('',#914);
#916=CARTESIAN_POINT('',(2.8E1,-8.E0,4.94E0));
#917=CARTESIAN_POINT('',(2.6E1,-1.E1,4.94E0));
#918=VERTEX_POINT('',#916);
#919=VERTEX_POINT('',#917);
#920=CARTESIAN_POINT('',(2.6E1,-1.E1,7.42E0));
#921=VERTEX_POINT('',#920);
#922=CARTESIAN_POINT('',(2.8E1,-8.E0,7.42E0));
#923=VERTEX_POINT('',#922);
#924=CARTESIAN_POINT('',(0.E0,0.E0,0.E0));
#925=DIRECTION('',(0.E0,0.E0,1.E0));
#926=DIRECTION('',(1.E0,0.E0,0.E0));
#927=AXIS2_PLACEMENT_3D('',#924,#925,#926);
#928=PLANE('',#927);
#930=ORIENTED_EDGE('',*,*,#929,.F.);
#932=ORIENTED_EDGE('',*,*,#931,.T.);
#934=ORIENTED_EDGE('',*,*,#933,.F.);
#936=ORIENTED_EDGE('',*,*,#935,.T.);
#938=ORIENTED_EDGE('',*,*,#937,.F.);
#940=ORIENTED_EDGE('',*,*,#939,.T.);
#942=ORIENTED_EDGE('',*,*,#941,.F.);
#944=ORIENTED_EDGE('',*,*,#943,.T.);
#945=EDGE_LOOP('',(#930,#932,#934,#936,#938,#940,#942,#944));
#946=FACE_OUTER_BOUND('',#945,.F.);
#948=ORIENTED_EDGE('',*,*,#947,.T.);
#950=ORIENTED_EDGE('',*,*,#949,.T.);
#951=EDGE_LOOP('',(#948,#950));
#952=FACE_BOUND('',#951,.F.);
#954=FILL_AREA_STYLE_COLOUR('',#10);
#955=FILL_AREA_STYLE('',(#954));
#956=SURFACE_STYLE_FILL_AREA(#955);
#957=SURFACE_SIDE_STYLE('',(#956));
#958=SURFACE_STYLE_USAGE(.BOTH.,#957);
#959=PRESENTATION_STYLE_ASSIGNMENT((#958));
#960=STYLED_ITEM('',(#959),#953);
#961=CARTESIAN_POINT('',(1.9E1,9.E0,9.2144E1));
#962=DIRECTION('',(0.E0,0.E0,-1.E0));
#963=DIRECTION('',(0.E0,1.E0,0.E0));
#964=AXIS2_PLACEMENT_3D('',#961,#962,#963);
#965=CYLINDRICAL_SURFACE('',#964,1.E0);
#967=ORIENTED_EDGE('',*,*,#966,.F.);
#969=ORIENTED_EDGE('',*,*,#968,.T.);
#970=ORIENTED_EDGE('',*,*,#929,.T.);
#972=ORIENTED_EDGE('',*,*,#971,.F.);
#973=EDGE_LOOP('',(#967,#969,#970,#972));
#974=FACE_OUTER_BOUND('',#973,.F.);
#976=FILL_AREA_STYLE_COLOUR('',#10);
#977=FILL_AREA_STYLE('',(#976));
#978=SURFACE_STYLE_FILL_AREA(#977);
#979=SURFACE_SIDE_STYLE('',(#978));
#980=SURFACE_STYLE_USAGE(.BOTH.,#979);
#981=PRESENTATION_STYLE_ASSIGNMENT((#980));
#982=STYLED_ITEM('',(#981),#975);
#983=CARTESIAN_POINT('',(1.9E1,9.E0,9.2144E1));
#984=DIRECTION('',(0.E0,0.E0,-1.E0));
#985=DIRECTION('',(0.E0,1.E0,0.E0));
#986=AXIS2_PLACEMENT_3D('',#983,#984,#985);
#987=CYLINDRICAL_SURFACE('',#986,1.E0);
#989=ORIENTED_EDGE('',*,*,#988,.T.);
#991=ORIENTED_EDGE('',*,*,#990,.F.);
#993=ORIENTED_EDGE('',*,*,#992,.T.);
#995=ORIENTED_EDGE('',*,*,#994,.T.);
#996=EDGE_LOOP('',(#989,#991,#993,#995));
#997=FACE_OUTER_BOUND('',#996,.F.);
#999=FILL_AREA_STYLE_COLOUR('',#10);
#1000=FILL_AREA_STYLE('',(#999));
#1001=SURFACE_STYLE_FILL_AREA(#1000);
#1002=SURFACE_SIDE_STYLE('',(#1001));
#1003=SURFACE_STYLE_USAGE(.POSITIVE.,#1002);
#1004=PRESENTATION_STYLE_ASSIGNMENT((#1003));
#1005=STYLED_ITEM('',(#1004),#998);
#1006=CARTESIAN_POINT('',(0.E0,0.E0,4.94E0));
#1007=DIRECTION('',(0.E0,0.E0,1.E0));
#1008=DIRECTION('',(0.E0,-1.E0,0.E0));
#1009=AXIS2_PLACEMENT_3D('',#1006,#1007,#1008);
#1010=PLANE('',#1009);
#1012=ORIENTED_EDGE('',*,*,#1011,.F.);
#1014=ORIENTED_EDGE('',*,*,#1013,.T.);
#1016=ORIENTED_EDGE('',*,*,#1015,.T.);
#1018=ORIENTED_EDGE('',*,*,#1017,.F.);
#1020=ORIENTED_EDGE('',*,*,#1019,.T.);
#1022=ORIENTED_EDGE('',*,*,#1021,.T.);
#1024=ORIENTED_EDGE('',*,*,#1023,.F.);
#1026=ORIENTED_EDGE('',*,*,#1025,.T.);
#1027=EDGE_LOOP('',(#1012,#1014,#1016,#1018,#1020,#1022,#1024,#1026));
#1028=FACE_OUTER_BOUND('',#1027,.F.);
#1030=ORIENTED_EDGE('',*,*,#1029,.T.);
#1032=ORIENTED_EDGE('',*,*,#1031,.T.);
#1033=EDGE_LOOP('',(#1030,#1032));
#1034=FACE_BOUND('',#1033,.F.);
#1036=ORIENTED_EDGE('',*,*,#1035,.T.);
#1038=ORIENTED_EDGE('',*,*,#1037,.T.);
#1039=EDGE_LOOP('',(#1036,#1038));
#1040=FACE_BOUND('',#1039,.F.);
#1042=FILL_AREA_STYLE_COLOUR('',#10);
#1043=FILL_AREA_STYLE('',(#1042));
#1044=SURFACE_STYLE_FILL_AREA(#1043);
#1045=SURFACE_SIDE_STYLE('',(#1044));
#1046=SURFACE_STYLE_USAGE(.BOTH.,#1045);
#1047=PRESENTATION_STYLE_ASSIGNMENT((#1046));
#1048=STYLED_ITEM('',(#1047),#1041);
#1049=CARTESIAN_POINT('',(0.E0,0.E0,4.94E0));
#1050=DIRECTION('',(0.E0,0.E0,1.E0));
#1051=DIRECTION('',(0.E0,-1.E0,0.E0));
#1052=AXIS2_PLACEMENT_3D('',#1049,#1050,#1051);
#1053=PLANE('',#1052);
#1055=ORIENTED_EDGE('',*,*,#1054,.F.);
#1057=ORIENTED_EDGE('',*,*,#1056,.T.);
#1058=ORIENTED_EDGE('',*,*,#966,.T.);
#1060=ORIENTED_EDGE('',*,*,#1059,.F.);
#1062=ORIENTED_EDGE('',*,*,#1061,.T.);
#1064=ORIENTED_EDGE('',*,*,#1063,.T.);
#1066=ORIENTED_EDGE('',*,*,#1065,.F.);
#1068=ORIENTED_EDGE('',*,*,#1067,.T.);
#1069=EDGE_LOOP('',(#1055,#1057,#1058,#1060,#1062,#1064,#1066,#1068));
#1070=FACE_OUTER_BOUND('',#1069,.F.);
#1072=ORIENTED_EDGE('',*,*,#1071,.T.);
#1074=ORIENTED_EDGE('',*,*,#1073,.T.);
#1075=EDGE_LOOP('',(#1072,#1074));
#1076=FACE_BOUND('',#1075,.F.);
#1078=ORIENTED_EDGE('',*,*,#1077,.T.);
#1080=ORIENTED_EDGE('',*,*,#1079,.T.);
#1081=EDGE_LOOP('',(#1078,#1080));
#1082=FACE_BOUND('',#1081,.F.);
#1084=FILL_AREA_STYLE_COLOUR('',#10);
#1085=FILL_AREA_STYLE('',(#1084));
#1086=SURFACE_STYLE_FILL_AREA(#1085);
#1087=SURFACE_SIDE_STYLE('',(#1086));
#1088=SURFACE_STYLE_USAGE(.POSITIVE.,#1087);
#1089=PRESENTATION_STYLE_ASSIGNMENT((#1088));
#1090=STYLED_ITEM('',(#1089),#1083);
#1091=CARTESIAN_POINT('',(-2.5E1,-5.E0,4.94E0));
#1092=DIRECTION('',(0.E0,0.E0,1.E0));
#1093=DIRECTION('',(0.E0,-1.E0,0.E0));
#1094=AXIS2_PLACEMENT_3D('',#1091,#1092,#1093);
#1095=CYLINDRICAL_SURFACE('',#1094,1.9E0);
#1096=ORIENTED_EDGE('',*,*,#1029,.F.);
#1098=ORIENTED_EDGE('',*,*,#1097,.T.);
#1100=ORIENTED_EDGE('',*,*,#1099,.T.);
#1102=ORIENTED_EDGE('',*,*,#1101,.F.);
#1103=EDGE_LOOP('',(#1096,#1098,#1100,#1102));
#1104=FACE_OUTER_BOUND('',#1103,.F.);
#1106=FILL_AREA_STYLE_COLOUR('',#10);
#1107=FILL_AREA_STYLE('',(#1106));
#1108=SURFACE_STYLE_FILL_AREA(#1107);
#1109=SURFACE_SIDE_STYLE('',(#1108));
#1110=SURFACE_STYLE_USAGE(.BOTH.,#1109);
#1111=PRESENTATION_STYLE_ASSIGNMENT((#1110));
#1112=STYLED_ITEM('',(#1111),#1105);
#1113=CARTESIAN_POINT('',(-2.5E1,-5.E0,4.94E0));
#1114=DIRECTION('',(0.E0,0.E0,1.E0));
#1115=DIRECTION('',(0.E0,-1.E0,0.E0));
#1116=AXIS2_PLACEMENT_3D('',#1113,#1114,#1115);
#1117=CYLINDRICAL_SURFACE('',#1116,1.9E0);
#1118=ORIENTED_EDGE('',*,*,#1031,.F.);
#1119=ORIENTED_EDGE('',*,*,#1101,.T.);
#1121=ORIENTED_EDGE('',*,*,#1120,.T.);
#1122=ORIENTED_EDGE('',*,*,#1097,.F.);
#1123=EDGE_LOOP('',(#1118,#1119,#1121,#1122));
#1124=FACE_OUTER_BOUND('',#1123,.F.);
#1126=FILL_AREA_STYLE_COLOUR('',#10);
#1127=FILL_AREA_STYLE('',(#1126));
#1128=SURFACE_STYLE_FILL_AREA(#1127);
#1129=SURFACE_SIDE_STYLE('',(#1128));
#1130=SURFACE_STYLE_USAGE(.BOTH.,#1129);
#1131=PRESENTATION_STYLE_ASSIGNMENT((#1130));
#1132=STYLED_ITEM('',(#1131),#1125);
#1133=CARTESIAN_POINT('',(0.E0,0.E0,7.42E0));
#1134=DIRECTION('',(0.E0,0.E0,1.E0));
#1135=DIRECTION('',(0.E0,-1.E0,0.E0));
#1136=AXIS2_PLACEMENT_3D('',#1133,#1134,#1135);
#1137=PLANE('',#1136);
#1139=ORIENTED_EDGE('',*,*,#1138,.F.);
#1141=ORIENTED_EDGE('',*,*,#1140,.F.);
#1143=ORIENTED_EDGE('',*,*,#1142,.F.);
#1145=ORIENTED_EDGE('',*,*,#1144,.F.);
#1147=ORIENTED_EDGE('',*,*,#1146,.F.);
#1149=ORIENTED_EDGE('',*,*,#1148,.T.);
#1151=ORIENTED_EDGE('',*,*,#1150,.F.);
#1153=ORIENTED_EDGE('',*,*,#1152,.F.);
#1154=EDGE_LOOP('',(#1139,#1141,#1143,#1145,#1147,#1149,#1151,#1153));
#1155=FACE_OUTER_BOUND('',#1154,.F.);
#1156=ORIENTED_EDGE('',*,*,#1099,.F.);
#1157=ORIENTED_EDGE('',*,*,#1120,.F.);
#1158=EDGE_LOOP('',(#1156,#1157));
#1159=FACE_BOUND('',#1158,.F.);
#1161=ORIENTED_EDGE('',*,*,#1160,.F.);
#1163=ORIENTED_EDGE('',*,*,#1162,.F.);
#1164=EDGE_LOOP('',(#1161,#1163));
#1165=FACE_BOUND('',#1164,.F.);
#1167=FILL_AREA_STYLE_COLOUR('',#10);
#1168=FILL_AREA_STYLE('',(#1167));
#1169=SURFACE_STYLE_FILL_AREA(#1168);
#1170=SURFACE_SIDE_STYLE('',(#1169));
#1171=SURFACE_STYLE_USAGE(.BOTH.,#1170);
#1172=PRESENTATION_STYLE_ASSIGNMENT((#1171));
#1173=STYLED_ITEM('',(#1172),#1166);
#1174=CARTESIAN_POINT('',(0.E0,0.E0,7.42E0));
#1175=DIRECTION('',(0.E0,0.E0,1.E0));
#1176=DIRECTION('',(0.E0,-1.E0,0.E0));
#1177=AXIS2_PLACEMENT_3D('',#1174,#1175,#1176);
#1178=PLANE('',#1177);
#1180=ORIENTED_EDGE('',*,*,#1179,.F.);
#1182=ORIENTED_EDGE('',*,*,#1181,.F.);
#1184=ORIENTED_EDGE('',*,*,#1183,.F.);
#1186=ORIENTED_EDGE('',*,*,#1185,.F.);
#1188=ORIENTED_EDGE('',*,*,#1187,.F.);
#1190=ORIENTED_EDGE('',*,*,#1189,.T.);
#1191=ORIENTED_EDGE('',*,*,#988,.F.);
#1193=ORIENTED_EDGE('',*,*,#1192,.F.);
#1194=EDGE_LOOP('',(#1180,#1182,#1184,#1186,#1188,#1190,#1191,#1193));
#1195=FACE_OUTER_BOUND('',#1194,.F.);
#1197=ORIENTED_EDGE('',*,*,#1196,.F.);
#1199=ORIENTED_EDGE('',*,*,#1198,.F.);
#1200=EDGE_LOOP('',(#1197,#1199));
#1201=FACE_BOUND('',#1200,.F.);
#1203=ORIENTED_EDGE('',*,*,#1202,.F.);
#1205=ORIENTED_EDGE('',*,*,#1204,.F.);
#1206=EDGE_LOOP('',(#1203,#1205));
#1207=FACE_BOUND('',#1206,.F.);
#1209=FILL_AREA_STYLE_COLOUR('',#10);
#1210=FILL_AREA_STYLE('',(#1209));
#1211=SURFACE_STYLE_FILL_AREA(#1210);
#1212=SURFACE_SIDE_STYLE('',(#1211));
#1213=SURFACE_STYLE_USAGE(.POSITIVE.,#1212);
#1214=PRESENTATION_STYLE_ASSIGNMENT((#1213));
#1215=STYLED_ITEM('',(#1214),#1208);
#1216=CARTESIAN_POINT('',(-2.5E1,5.E0,4.94E0));
#1217=DIRECTION('',(0.E0,0.E0,1.E0));
#1218=DIRECTION('',(0.E0,-1.E0,0.E0));
#1219=AXIS2_PLACEMENT_3D('',#1216,#1217,#1218);
#1220=CYLINDRICAL_SURFACE('',#1219,1.9E0);
#1221=ORIENTED_EDGE('',*,*,#1035,.F.);
#1223=ORIENTED_EDGE('',*,*,#1222,.T.);
#1224=ORIENTED_EDGE('',*,*,#1160,.T.);
#1226=ORIENTED_EDGE('',*,*,#1225,.F.);
#1227=EDGE_LOOP('',(#1221,#1223,#1224,#1226));
#1228=FACE_OUTER_BOUND('',#1227,.F.);
#1230=FILL_AREA_STYLE_COLOUR('',#10);
#1231=FILL_AREA_STYLE('',(#1230));
#1232=SURFACE_STYLE_FILL_AREA(#1231);
#1233=SURFACE_SIDE_STYLE('',(#1232));
#1234=SURFACE_STYLE_USAGE(.BOTH.,#1233);
#1235=PRESENTATION_STYLE_ASSIGNMENT((#1234));
#1236=STYLED_ITEM('',(#1235),#1229);
#1237=CARTESIAN_POINT('',(-2.5E1,5.E0,4.94E0));
#1238=DIRECTION('',(0.E0,0.E0,1.E0));
#1239=DIRECTION('',(0.E0,-1.E0,0.E0));
#1240=AXIS2_PLACEMENT_3D('',#1237,#1238,#1239);
#1241=CYLINDRICAL_SURFACE('',#1240,1.9E0);
#1242=ORIENTED_EDGE('',*,*,#1037,.F.);
#1243=ORIENTED_EDGE('',*,*,#1225,.T.);
#1244=ORIENTED_EDGE('',*,*,#1162,.T.);
#1245=ORIENTED_EDGE('',*,*,#1222,.F.);
#1246=EDGE_LOOP('',(#1242,#1243,#1244,#1245));
#1247=FACE_OUTER_BOUND('',#1246,.F.);
#1249=FILL_AREA_STYLE_COLOUR('',#10);
#1250=FILL_AREA_STYLE('',(#1249));
#1251=SURFACE_STYLE_FILL_AREA(#1250);
#1252=SURFACE_SIDE_STYLE('',(#1251));
#1253=SURFACE_STYLE_USAGE(.BOTH.,#1252);
#1254=PRESENTATION_STYLE_ASSIGNMENT((#1253));
#1255=STYLED_ITEM('',(#1254),#1248);
#1256=CARTESIAN_POINT('',(2.5E1,5.E0,4.94E0));
#1257=DIRECTION('',(0.E0,0.E0,1.E0));
#1258=DIRECTION('',(0.E0,-1.E0,0.E0));
#1259=AXIS2_PLACEMENT_3D('',#1256,#1257,#1258);
#1260=CYLINDRICAL_SURFACE('',#1259,1.9E0);
#1261=ORIENTED_EDGE('',*,*,#1071,.F.);
#1263=ORIENTED_EDGE('',*,*,#1262,.T.);
#1264=ORIENTED_EDGE('',*,*,#1196,.T.);
#1266=ORIENTED_EDGE('',*,*,#1265,.F.);
#1267=EDGE_LOOP('',(#1261,#1263,#1264,#1266));
#1268=FACE_OUTER_BOUND('',#1267,.F.);
#1270=FILL_AREA_STYLE_COLOUR('',#10);
#1271=FILL_AREA_STYLE('',(#1270));
#1272=SURFACE_STYLE_FILL_AREA(#1271);
#1273=SURFACE_SIDE_STYLE('',(#1272));
#1274=SURFACE_STYLE_USAGE(.BOTH.,#1273);
#1275=PRESENTATION_STYLE_ASSIGNMENT((#1274));
#1276=STYLED_ITEM('',(#1275),#1269);
#1277=CARTESIAN_POINT('',(2.5E1,5.E0,4.94E0));
#1278=DIRECTION('',(0.E0,0.E0,1.E0));
#1279=DIRECTION('',(0.E0,-1.E0,0.E0));
#1280=AXIS2_PLACEMENT_3D('',#1277,#1278,#1279);
#1281=CYLINDRICAL_SURFACE('',#1280,1.9E0);
#1282=ORIENTED_EDGE('',*,*,#1073,.F.);
#1283=ORIENTED_EDGE('',*,*,#1265,.T.);
#1284=ORIENTED_EDGE('',*,*,#1198,.T.);
#1285=ORIENTED_EDGE('',*,*,#1262,.F.);
#1286=EDGE_LOOP('',(#1282,#1283,#1284,#1285));
#1287=FACE_OUTER_BOUND('',#1286,.F.);
#1289=FILL_AREA_STYLE_COLOUR('',#10);
#1290=FILL_AREA_STYLE('',(#1289));
#1291=SURFACE_STYLE_FILL_AREA(#1290);
#1292=SURFACE_SIDE_STYLE('',(#1291));
#1293=SURFACE_STYLE_USAGE(.BOTH.,#1292);
#1294=PRESENTATION_STYLE_ASSIGNMENT((#1293));
#1295=STYLED_ITEM('',(#1294),#1288);
#1296=CARTESIAN_POINT('',(2.5E1,-5.E0,4.94E0));
#1297=DIRECTION('',(0.E0,0.E0,1.E0));
#1298=DIRECTION('',(0.E0,-1.E0,0.E0));
#1299=AXIS2_PLACEMENT_3D('',#1296,#1297,#1298);
#1300=CYLINDRICAL_SURFACE('',#1299,1.9E0);
#1301=ORIENTED_EDGE('',*,*,#1077,.F.);
#1303=ORIENTED_EDGE('',*,*,#1302,.T.);
#1304=ORIENTED_EDGE('',*,*,#1202,.T.);
#1306=ORIENTED_EDGE('',*,*,#1305,.F.);
#1307=EDGE_LOOP('',(#1301,#1303,#1304,#1306));
#1308=FACE_OUTER_BOUND('',#1307,.F.);
#1310=FILL_AREA_STYLE_COLOUR('',#10);
#1311=FILL_AREA_STYLE('',(#1310));
#1312=SURFACE_STYLE_FILL_AREA(#1311);
#1313=SURFACE_SIDE_STYLE('',(#1312));
#1314=SURFACE_STYLE_USAGE(.BOTH.,#1313);
#1315=PRESENTATION_STYLE_ASSIGNMENT((#1314));
#1316=STYLED_ITEM('',(#1315),#1309);
#1317=CARTESIAN_POINT('',(2.5E1,-5.E0,4.94E0));
#1318=DIRECTION('',(0.E0,0.E0,1.E0));
#1319=DIRECTION('',(0.E0,-1.E0,0.E0));
#1320=AXIS2_PLACEMENT_3D('',#1317,#1318,#1319);
#1321=CYLINDRICAL_SURFACE('',#1320,1.9E0);
#1322=ORIENTED_EDGE('',*,*,#1079,.F.);
#1323=ORIENTED_EDGE('',*,*,#1305,.T.);
#1324=ORIENTED_EDGE('',*,*,#1204,.T.);
#1325=ORIENTED_EDGE('',*,*,#1302,.F.);
#1326=EDGE_LOOP('',(#1322,#1323,#1324,#1325));
#1327=FACE_OUTER_BOUND('',#1326,.F.);
#1329=FILL_AREA_STYLE_COLOUR('',#10);
#1330=FILL_AREA_STYLE('',(#1329));
#1331=SURFACE_STYLE_FILL_AREA(#1330);
#1332=SURFACE_SIDE_STYLE('',(#1331));
#1333=SURFACE_STYLE_USAGE(.BOTH.,#1332);
#1334=PRESENTATION_STYLE_ASSIGNMENT((#1333));
#1335=STYLED_ITEM('',(#1334),#1328);
#1336=CARTESIAN_POINT('',(-2.6E1,-8.E0,9.8662E1));
#1337=DIRECTION('',(0.E0,0.E0,-1.E0));
#1338=DIRECTION('',(0.E0,-1.E0,0.E0));
#1339=AXIS2_PLACEMENT_3D('',#1336,#1337,#1338);
#1340=CYLINDRICAL_SURFACE('',#1339,2.E0);
#1341=ORIENTED_EDGE('',*,*,#1011,.T.);
#1343=ORIENTED_EDGE('',*,*,#1342,.F.);
#1344=ORIENTED_EDGE('',*,*,#1138,.T.);
#1346=ORIENTED_EDGE('',*,*,#1345,.T.);
#1347=EDGE_LOOP('',(#1341,#1343,#1344,#1346));
#1348=FACE_OUTER_BOUND('',#1347,.F.);
#1350=FILL_AREA_STYLE_COLOUR('',#10);
#1351=FILL_AREA_STYLE('',(#1350));
#1352=SURFACE_STYLE_FILL_AREA(#1351);
#1353=SURFACE_SIDE_STYLE('',(#1352));
#1354=SURFACE_STYLE_USAGE(.BOTH.,#1353);
#1355=PRESENTATION_STYLE_ASSIGNMENT((#1354));
#1356=STYLED_ITEM('',(#1355),#1349);
#1357=CARTESIAN_POINT('',(-2.8E1,1.E1,4.94E0));
#1358=DIRECTION('',(-1.E0,0.E0,0.E0));
#1359=DIRECTION('',(0.E0,-1.E0,0.E0));
#1360=AXIS2_PLACEMENT_3D('',#1357,#1358,#1359);
#1361=PLANE('',#1360);
#1362=ORIENTED_EDGE('',*,*,#1342,.T.);
#1363=ORIENTED_EDGE('',*,*,#1025,.F.);
#1365=ORIENTED_EDGE('',*,*,#1364,.F.);
#1366=ORIENTED_EDGE('',*,*,#1140,.T.);
#1367=EDGE_LOOP('',(#1362,#1363,#1365,#1366));
#1368=FACE_OUTER_BOUND('',#1367,.F.);
#1370=FILL_AREA_STYLE_COLOUR('',#10);
#1371=FILL_AREA_STYLE('',(#1370));
#1372=SURFACE_STYLE_FILL_AREA(#1371);
#1373=SURFACE_SIDE_STYLE('',(#1372));
#1374=SURFACE_STYLE_USAGE(.BOTH.,#1373);
#1375=PRESENTATION_STYLE_ASSIGNMENT((#1374));
#1376=STYLED_ITEM('',(#1375),#1369);
#1377=CARTESIAN_POINT('',(-2.6E1,8.E0,9.8662E1));
#1378=DIRECTION('',(0.E0,0.E0,-1.E0));
#1379=DIRECTION('',(-1.E0,0.E0,0.E0));
#1380=AXIS2_PLACEMENT_3D('',#1377,#1378,#1379);
#1381=CYLINDRICAL_SURFACE('',#1380,2.E0);
#1382=ORIENTED_EDGE('',*,*,#1023,.T.);
#1384=ORIENTED_EDGE('',*,*,#1383,.F.);
#1385=ORIENTED_EDGE('',*,*,#1142,.T.);
#1386=ORIENTED_EDGE('',*,*,#1364,.T.);
#1387=EDGE_LOOP('',(#1382,#1384,#1385,#1386));
#1388=FACE_OUTER_BOUND('',#1387,.F.);
#1390=FILL_AREA_STYLE_COLOUR('',#10);
#1391=FILL_AREA_STYLE('',(#1390));
#1392=SURFACE_STYLE_FILL_AREA(#1391);
#1393=SURFACE_SIDE_STYLE('',(#1392));
#1394=SURFACE_STYLE_USAGE(.BOTH.,#1393);
#1395=PRESENTATION_STYLE_ASSIGNMENT((#1394));
#1396=STYLED_ITEM('',(#1395),#1389);
#1397=CARTESIAN_POINT('',(2.E1,1.E1,0.E0));
#1398=DIRECTION('',(0.E0,1.E0,0.E0));
#1399=DIRECTION('',(-1.E0,0.E0,0.E0));
#1400=AXIS2_PLACEMENT_3D('',#1397,#1398,#1399);
#1401=PLANE('',#1400);
#1402=ORIENTED_EDGE('',*,*,#1383,.T.);
#1403=ORIENTED_EDGE('',*,*,#1021,.F.);
#1405=ORIENTED_EDGE('',*,*,#1404,.T.);
#1406=ORIENTED_EDGE('',*,*,#931,.F.);
#1407=ORIENTED_EDGE('',*,*,#968,.F.);
#1408=ORIENTED_EDGE('',*,*,#1056,.F.);
#1410=ORIENTED_EDGE('',*,*,#1409,.F.);
#1411=ORIENTED_EDGE('',*,*,#1192,.T.);
#1412=ORIENTED_EDGE('',*,*,#994,.F.);
#1414=ORIENTED_EDGE('',*,*,#1413,.T.);
#1416=ORIENTED_EDGE('',*,*,#1415,.T.);
#1417=ORIENTED_EDGE('',*,*,#1144,.T.);
#1418=EDGE_LOOP('',(#1402,#1403,#1405,#1406,#1407,#1408,#1410,#1411,#1412,#1414,
#1416,#1417));
#1419=FACE_OUTER_BOUND('',#1418,.F.);
#1421=FILL_AREA_STYLE_COLOUR('',#10);
#1422=FILL_AREA_STYLE('',(#1421));
#1423=SURFACE_STYLE_FILL_AREA(#1422);
#1424=SURFACE_SIDE_STYLE('',(#1423));
#1425=SURFACE_STYLE_USAGE(.BOTH.,#1424);
#1426=PRESENTATION_STYLE_ASSIGNMENT((#1425));
#1427=STYLED_ITEM('',(#1426),#1420);
#1428=CARTESIAN_POINT('',(-1.9E1,9.E0,9.2144E1));
#1429=DIRECTION('',(0.E0,0.E0,-1.E0));
#1430=DIRECTION('',(-1.E0,0.E0,0.E0));
#1431=AXIS2_PLACEMENT_3D('',#1428,#1429,#1430);
#1432=CYLINDRICAL_SURFACE('',#1431,1.E0);
#1433=ORIENTED_EDGE('',*,*,#1019,.F.);
#1435=ORIENTED_EDGE('',*,*,#1434,.T.);
#1436=ORIENTED_EDGE('',*,*,#933,.T.);
#1437=ORIENTED_EDGE('',*,*,#1404,.F.);
#1438=EDGE_LOOP('',(#1433,#1435,#1436,#1437));
#1439=FACE_OUTER_BOUND('',#1438,.F.);
#1441=FILL_AREA_STYLE_COLOUR('',#10);
#1442=FILL_AREA_STYLE('',(#1441));
#1443=SURFACE_STYLE_FILL_AREA(#1442);
#1444=SURFACE_SIDE_STYLE('',(#1443));
#1445=SURFACE_STYLE_USAGE(.BOTH.,#1444);
#1446=PRESENTATION_STYLE_ASSIGNMENT((#1445));
#1447=STYLED_ITEM('',(#1446),#1440);
#1448=CARTESIAN_POINT('',(-1.9E1,9.E0,9.2144E1));
#1449=DIRECTION('',(0.E0,0.E0,-1.E0));
#1450=DIRECTION('',(-1.E0,0.E0,0.E0));
#1451=AXIS2_PLACEMENT_3D('',#1448,#1449,#1450);
#1452=CYLINDRICAL_SURFACE('',#1451,1.E0);
#1453=ORIENTED_EDGE('',*,*,#1146,.T.);
#1454=ORIENTED_EDGE('',*,*,#1415,.F.);
#1456=ORIENTED_EDGE('',*,*,#1455,.T.);
#1458=ORIENTED_EDGE('',*,*,#1457,.T.);
#1459=EDGE_LOOP('',(#1453,#1454,#1456,#1458));
#1460=FACE_OUTER_BOUND('',#1459,.F.);
#1462=FILL_AREA_STYLE_COLOUR('',#10);
#1463=FILL_AREA_STYLE('',(#1462));
#1464=SURFACE_STYLE_FILL_AREA(#1463);
#1465=SURFACE_SIDE_STYLE('',(#1464));
#1466=SURFACE_STYLE_USAGE(.POSITIVE.,#1465);
#1467=PRESENTATION_STYLE_ASSIGNMENT((#1466));
#1468=STYLED_ITEM('',(#1467),#1461);
#1469=CARTESIAN_POINT('',(-2.E1,1.E1,0.E0));
#1470=DIRECTION('',(-1.E0,0.E0,0.E0));
#1471=DIRECTION('',(0.E0,-1.E0,0.E0));
#1472=AXIS2_PLACEMENT_3D('',#1469,#1470,#1471);
#1473=PLANE('',#1472);
#1474=ORIENTED_EDGE('',*,*,#1017,.T.);
#1476=ORIENTED_EDGE('',*,*,#1475,.T.);
#1477=ORIENTED_EDGE('',*,*,#935,.F.);
#1478=ORIENTED_EDGE('',*,*,#1434,.F.);
#1479=EDGE_LOOP('',(#1474,#1476,#1477,#1478));
#1480=FACE_OUTER_BOUND('',#1479,.F.);
#1482=FILL_AREA_STYLE_COLOUR('',#10);
#1483=FILL_AREA_STYLE('',(#1482));
#1484=SURFACE_STYLE_FILL_AREA(#1483);
#1485=SURFACE_SIDE_STYLE('',(#1484));
#1486=SURFACE_STYLE_USAGE(.BOTH.,#1485);
#1487=PRESENTATION_STYLE_ASSIGNMENT((#1486));
#1488=STYLED_ITEM('',(#1487),#1481);
#1489=CARTESIAN_POINT('',(-2.E1,1.E1,0.E0));
#1490=DIRECTION('',(-1.E0,0.E0,0.E0));
#1491=DIRECTION('',(0.E0,-1.E0,0.E0));
#1492=AXIS2_PLACEMENT_3D('',#1489,#1490,#1491);
#1493=PLANE('',#1492);
#1494=ORIENTED_EDGE('',*,*,#1148,.F.);
#1495=ORIENTED_EDGE('',*,*,#1457,.F.);
#1497=ORIENTED_EDGE('',*,*,#1496,.T.);
#1499=ORIENTED_EDGE('',*,*,#1498,.T.);
#1500=EDGE_LOOP('',(#1494,#1495,#1497,#1499));
#1501=FACE_OUTER_BOUND('',#1500,.F.);
#1503=FILL_AREA_STYLE_COLOUR('',#10);
#1504=FILL_AREA_STYLE('',(#1503));
#1505=SURFACE_STYLE_FILL_AREA(#1504);
#1506=SURFACE_SIDE_STYLE('',(#1505));
#1507=SURFACE_STYLE_USAGE(.POSITIVE.,#1506);
#1508=PRESENTATION_STYLE_ASSIGNMENT((#1507));
#1509=STYLED_ITEM('',(#1508),#1502);
#1510=CARTESIAN_POINT('',(-1.9E1,-9.E0,9.2144E1));
#1511=DIRECTION('',(0.E0,0.E0,-1.E0));
#1512=DIRECTION('',(0.E0,-1.E0,0.E0));
#1513=AXIS2_PLACEMENT_3D('',#1510,#1511,#1512);
#1514=CYLINDRICAL_SURFACE('',#1513,1.E0);
#1515=ORIENTED_EDGE('',*,*,#1015,.F.);
#1517=ORIENTED_EDGE('',*,*,#1516,.T.);
#1518=ORIENTED_EDGE('',*,*,#937,.T.);
#1519=ORIENTED_EDGE('',*,*,#1475,.F.);
#1520=EDGE_LOOP('',(#1515,#1517,#1518,#1519));
#1521=FACE_OUTER_BOUND('',#1520,.F.);
#1523=FILL_AREA_STYLE_COLOUR('',#10);
#1524=FILL_AREA_STYLE('',(#1523));
#1525=SURFACE_STYLE_FILL_AREA(#1524);
#1526=SURFACE_SIDE_STYLE('',(#1525));
#1527=SURFACE_STYLE_USAGE(.BOTH.,#1526);
#1528=PRESENTATION_STYLE_ASSIGNMENT((#1527));
#1529=STYLED_ITEM('',(#1528),#1522);
#1530=CARTESIAN_POINT('',(-1.9E1,-9.E0,9.2144E1));
#1531=DIRECTION('',(0.E0,0.E0,-1.E0));
#1532=DIRECTION('',(0.E0,-1.E0,0.E0));
#1533=AXIS2_PLACEMENT_3D('',#1530,#1531,#1532);
#1534=CYLINDRICAL_SURFACE('',#1533,1.E0);
#1535=ORIENTED_EDGE('',*,*,#1150,.T.);
#1536=ORIENTED_EDGE('',*,*,#1498,.F.);
#1538=ORIENTED_EDGE('',*,*,#1537,.T.);
#1540=ORIENTED_EDGE('',*,*,#1539,.T.);
#1541=EDGE_LOOP('',(#1535,#1536,#1538,#1540));
#1542=FACE_OUTER_BOUND('',#1541,.F.);
#1544=FILL_AREA_STYLE_COLOUR('',#10);
#1545=FILL_AREA_STYLE('',(#1544));
#1546=SURFACE_STYLE_FILL_AREA(#1545);
#1547=SURFACE_SIDE_STYLE('',(#1546));
#1548=SURFACE_STYLE_USAGE(.POSITIVE.,#1547);
#1549=PRESENTATION_STYLE_ASSIGNMENT((#1548));
#1550=STYLED_ITEM('',(#1549),#1543);
#1551=CARTESIAN_POINT('',(-2.E1,-1.E1,0.E0));
#1552=DIRECTION('',(0.E0,-1.E0,0.E0));
#1553=DIRECTION('',(1.E0,0.E0,0.E0));
#1554=AXIS2_PLACEMENT_3D('',#1551,#1552,#1553);
#1555=PLANE('',#1554);
#1556=ORIENTED_EDGE('',*,*,#1345,.F.);
#1557=ORIENTED_EDGE('',*,*,#1152,.T.);
#1558=ORIENTED_EDGE('',*,*,#1539,.F.);
#1560=ORIENTED_EDGE('',*,*,#1559,.T.);
#1562=ORIENTED_EDGE('',*,*,#1561,.T.);
#1563=ORIENTED_EDGE('',*,*,#1185,.T.);
#1565=ORIENTED_EDGE('',*,*,#1564,.T.);
#1566=ORIENTED_EDGE('',*,*,#1063,.F.);
#1568=ORIENTED_EDGE('',*,*,#1567,.T.);
#1569=ORIENTED_EDGE('',*,*,#939,.F.);
#1570=ORIENTED_EDGE('',*,*,#1516,.F.);
#1571=ORIENTED_EDGE('',*,*,#1013,.F.);
#1572=EDGE_LOOP('',(#1556,#1557,#1558,#1560,#1562,#1563,#1565,#1566,#1568,#1569,
#1570,#1571));
#1573=FACE_OUTER_BOUND('',#1572,.F.);
#1575=FILL_AREA_STYLE_COLOUR('',#10);
#1576=FILL_AREA_STYLE('',(#1575));
#1577=SURFACE_STYLE_FILL_AREA(#1576);
#1578=SURFACE_SIDE_STYLE('',(#1577));
#1579=SURFACE_STYLE_USAGE(.BOTH.,#1578);
#1580=PRESENTATION_STYLE_ASSIGNMENT((#1579));
#1581=STYLED_ITEM('',(#1580),#1574);
#1582=CARTESIAN_POINT('',(0.E0,0.E0,4.E1));
#1583=DIRECTION('',(0.E0,0.E0,1.E0));
#1584=DIRECTION('',(1.E0,0.E0,0.E0));
#1585=AXIS2_PLACEMENT_3D('',#1582,#1583,#1584);
#1586=PLANE('',#1585);
#1587=ORIENTED_EDGE('',*,*,#992,.F.);
#1589=ORIENTED_EDGE('',*,*,#1588,.F.);
#1591=ORIENTED_EDGE('',*,*,#1590,.F.);
#1592=ORIENTED_EDGE('',*,*,#1559,.F.);
#1593=ORIENTED_EDGE('',*,*,#1537,.F.);
#1594=ORIENTED_EDGE('',*,*,#1496,.F.);
#1595=ORIENTED_EDGE('',*,*,#1455,.F.);
#1596=ORIENTED_EDGE('',*,*,#1413,.F.);
#1597=EDGE_LOOP('',(#1587,#1589,#1591,#1592,#1593,#1594,#1595,#1596));
#1598=FACE_OUTER_BOUND('',#1597,.F.);
#1600=FILL_AREA_STYLE_COLOUR('',#10);
#1601=FILL_AREA_STYLE('',(#1600));
#1602=SURFACE_STYLE_FILL_AREA(#1601);
#1603=SURFACE_SIDE_STYLE('',(#1602));
#1604=SURFACE_STYLE_USAGE(.BOTH.,#1603);
#1605=PRESENTATION_STYLE_ASSIGNMENT((#1604));
#1606=STYLED_ITEM('',(#1605),#1599);
#1607=CARTESIAN_POINT('',(2.E1,-1.E1,0.E0));
#1608=DIRECTION('',(1.E0,0.E0,0.E0));
#1609=DIRECTION('',(0.E0,1.E0,0.E0));
#1610=AXIS2_PLACEMENT_3D('',#1607,#1608,#1609);
#1611=PLANE('',#1610);
#1612=ORIENTED_EDGE('',*,*,#1059,.T.);
#1613=ORIENTED_EDGE('',*,*,#971,.T.);
#1614=ORIENTED_EDGE('',*,*,#943,.F.);
#1616=ORIENTED_EDGE('',*,*,#1615,.F.);
#1617=EDGE_LOOP('',(#1612,#1613,#1614,#1616));
#1618=FACE_OUTER_BOUND('',#1617,.F.);
#1620=FILL_AREA_STYLE_COLOUR('',#10);
#1621=FILL_AREA_STYLE('',(#1620));
#1622=SURFACE_STYLE_FILL_AREA(#1621);
#1623=SURFACE_SIDE_STYLE('',(#1622));
#1624=SURFACE_STYLE_USAGE(.BOTH.,#1623);
#1625=PRESENTATION_STYLE_ASSIGNMENT((#1624));
#1626=STYLED_ITEM('',(#1625),#1619);
#1627=CARTESIAN_POINT('',(2.E1,-1.E1,0.E0));
#1628=DIRECTION('',(1.E0,0.E0,0.E0));
#1629=DIRECTION('',(0.E0,1.E0,0.E0));
#1630=AXIS2_PLACEMENT_3D('',#1627,#1628,#1629);
#1631=PLANE('',#1630);
#1632=ORIENTED_EDGE('',*,*,#1189,.F.);
#1634=ORIENTED_EDGE('',*,*,#1633,.F.);
#1635=ORIENTED_EDGE('',*,*,#1588,.T.);
#1636=ORIENTED_EDGE('',*,*,#990,.T.);
#1637=EDGE_LOOP('',(#1632,#1634,#1635,#1636));
#1638=FACE_OUTER_BOUND('',#1637,.F.);
#1640=FILL_AREA_STYLE_COLOUR('',#10);
#1641=FILL_AREA_STYLE('',(#1640));
#1642=SURFACE_STYLE_FILL_AREA(#1641);
#1643=SURFACE_SIDE_STYLE('',(#1642));
#1644=SURFACE_STYLE_USAGE(.POSITIVE.,#1643);
#1645=PRESENTATION_STYLE_ASSIGNMENT((#1644));
#1646=STYLED_ITEM('',(#1645),#1639);
#1647=CARTESIAN_POINT('',(1.9E1,-9.E0,9.2144E1));
#1648=DIRECTION('',(0.E0,0.E0,-1.E0));
#1649=DIRECTION('',(1.E0,0.E0,0.E0));
#1650=AXIS2_PLACEMENT_3D('',#1647,#1648,#1649);
#1651=CYLINDRICAL_SURFACE('',#1650,1.E0);
#1652=ORIENTED_EDGE('',*,*,#1061,.F.);
#1653=ORIENTED_EDGE('',*,*,#1615,.T.);
#1654=ORIENTED_EDGE('',*,*,#941,.T.);
#1655=ORIENTED_EDGE('',*,*,#1567,.F.);
#1656=EDGE_LOOP('',(#1652,#1653,#1654,#1655));
#1657=FACE_OUTER_BOUND('',#1656,.F.);
#1659=FILL_AREA_STYLE_COLOUR('',#10);
#1660=FILL_AREA_STYLE('',(#1659));
#1661=SURFACE_STYLE_FILL_AREA(#1660);
#1662=SURFACE_SIDE_STYLE('',(#1661));
#1663=SURFACE_STYLE_USAGE(.BOTH.,#1662);
#1664=PRESENTATION_STYLE_ASSIGNMENT((#1663));
#1665=STYLED_ITEM('',(#1664),#1658);
#1666=CARTESIAN_POINT('',(1.9E1,-9.E0,9.2144E1));
#1667=DIRECTION('',(0.E0,0.E0,-1.E0));
#1668=DIRECTION('',(1.E0,0.E0,0.E0));
#1669=AXIS2_PLACEMENT_3D('',#1666,#1667,#1668);
#1670=CYLINDRICAL_SURFACE('',#1669,1.E0);
#1671=ORIENTED_EDGE('',*,*,#1187,.T.);
#1672=ORIENTED_EDGE('',*,*,#1561,.F.);
#1673=ORIENTED_EDGE('',*,*,#1590,.T.);
#1674=ORIENTED_EDGE('',*,*,#1633,.T.);
#1675=EDGE_LOOP('',(#1671,#1672,#1673,#1674));
#1676=FACE_OUTER_BOUND('',#1675,.F.);
#1678=FILL_AREA_STYLE_COLOUR('',#10);
#1679=FILL_AREA_STYLE('',(#1678));
#1680=SURFACE_STYLE_FILL_AREA(#1679);
#1681=SURFACE_SIDE_STYLE('',(#1680));
#1682=SURFACE_STYLE_USAGE(.POSITIVE.,#1681);
#1683=PRESENTATION_STYLE_ASSIGNMENT((#1682));
#1684=STYLED_ITEM('',(#1683),#1677);
#1685=CARTESIAN_POINT('',(2.6E1,-8.E0,9.8662E1));
#1686=DIRECTION('',(0.E0,0.E0,-1.E0));
#1687=DIRECTION('',(1.E0,0.E0,0.E0));
#1688=AXIS2_PLACEMENT_3D('',#1685,#1686,#1687);
#1689=CYLINDRICAL_SURFACE('',#1688,2.E0);
#1690=ORIENTED_EDGE('',*,*,#1065,.T.);
#1691=ORIENTED_EDGE('',*,*,#1564,.F.);
#1692=ORIENTED_EDGE('',*,*,#1183,.T.);
#1694=ORIENTED_EDGE('',*,*,#1693,.T.);
#1695=EDGE_LOOP('',(#1690,#1691,#1692,#1694));
#1696=FACE_OUTER_BOUND('',#1695,.F.);
#1698=FILL_AREA_STYLE_COLOUR('',#10);
#1699=FILL_AREA_STYLE('',(#1698));
#1700=SURFACE_STYLE_FILL_AREA(#1699);
#1701=SURFACE_SIDE_STYLE('',(#1700));
#1702=SURFACE_STYLE_USAGE(.BOTH.,#1701);
#1703=PRESENTATION_STYLE_ASSIGNMENT((#1702));
#1704=STYLED_ITEM('',(#1703),#1697);
#1705=CARTESIAN_POINT('',(2.8E1,-1.E1,4.94E0));
#1706=DIRECTION('',(1.E0,0.E0,0.E0));
#1707=DIRECTION('',(0.E0,1.E0,0.E0));
#1708=AXIS2_PLACEMENT_3D('',#1705,#1706,#1707);
#1709=PLANE('',#1708);
#1711=ORIENTED_EDGE('',*,*,#1710,.T.);
#1712=ORIENTED_EDGE('',*,*,#1067,.F.);
#1713=ORIENTED_EDGE('',*,*,#1693,.F.);
#1714=ORIENTED_EDGE('',*,*,#1181,.T.);
#1715=EDGE_LOOP('',(#1711,#1712,#1713,#1714));
#1716=FACE_OUTER_BOUND('',#1715,.F.);
#1718=FILL_AREA_STYLE_COLOUR('',#10);
#1719=FILL_AREA_STYLE('',(#1718));
#1720=SURFACE_STYLE_FILL_AREA(#1719);
#1721=SURFACE_SIDE_STYLE('',(#1720));
#1722=SURFACE_STYLE_USAGE(.BOTH.,#1721);
#1723=PRESENTATION_STYLE_ASSIGNMENT((#1722));
#1724=STYLED_ITEM('',(#1723),#1717);
#1725=CARTESIAN_POINT('',(2.6E1,8.E0,9.8662E1));
#1726=DIRECTION('',(0.E0,0.E0,-1.E0));
#1727=DIRECTION('',(0.E0,1.E0,0.E0));
#1728=AXIS2_PLACEMENT_3D('',#1725,#1726,#1727);
#1729=CYLINDRICAL_SURFACE('',#1728,2.E0);
#1730=ORIENTED_EDGE('',*,*,#1054,.T.);
#1731=ORIENTED_EDGE('',*,*,#1710,.F.);
#1732=ORIENTED_EDGE('',*,*,#1179,.T.);
#1733=ORIENTED_EDGE('',*,*,#1409,.T.);
#1734=EDGE_LOOP('',(#1730,#1731,#1732,#1733));
#1735=FACE_OUTER_BOUND('',#1734,.F.);
#1737=FILL_AREA_STYLE_COLOUR('',#10);
#1738=FILL_AREA_STYLE('',(#1737));
#1739=SURFACE_STYLE_FILL_AREA(#1738);
#1740=SURFACE_SIDE_STYLE('',(#1739));
#1741=SURFACE_STYLE_USAGE(.BOTH.,#1740);
#1742=PRESENTATION_STYLE_ASSIGNMENT((#1741));
#1743=STYLED_ITEM('',(#1742),#1736);
#1744=CARTESIAN_POINT('',(-1.E1,0.E0,0.E0));
#1745=DIRECTION('',(0.E0,0.E0,-1.E0));
#1746=DIRECTION('',(-1.E0,0.E0,0.E0));
#1747=AXIS2_PLACEMENT_3D('',#1744,#1745,#1746);
#1748=CYLINDRICAL_SURFACE('',#1747,2.E0);
#1749=ORIENTED_EDGE('',*,*,#947,.F.);
#1751=ORIENTED_EDGE('',*,*,#1750,.T.);
#1753=ORIENTED_EDGE('',*,*,#1752,.T.);
#1755=ORIENTED_EDGE('',*,*,#1754,.F.);
#1756=EDGE_LOOP('',(#1749,#1751,#1753,#1755));
#1757=FACE_OUTER_BOUND('',#1756,.F.);
#1759=FILL_AREA_STYLE_COLOUR('',#10);
#1760=FILL_AREA_STYLE('',(#1759));
#1761=SURFACE_STYLE_FILL_AREA(#1760);
#1762=SURFACE_SIDE_STYLE('',(#1761));
#1763=SURFACE_STYLE_USAGE(.BOTH.,#1762);
#1764=PRESENTATION_STYLE_ASSIGNMENT((#1763));
#1765=STYLED_ITEM('',(#1764),#1758);
#1766=CARTESIAN_POINT('',(-1.E1,0.E0,0.E0));
#1767=DIRECTION('',(0.E0,0.E0,-1.E0));
#1768=DIRECTION('',(-1.E0,0.E0,0.E0));
#1769=AXIS2_PLACEMENT_3D('',#1766,#1767,#1768);
#1770=CYLINDRICAL_SURFACE('',#1769,2.E0);
#1771=ORIENTED_EDGE('',*,*,#949,.F.);
#1772=ORIENTED_EDGE('',*,*,#1754,.T.);
#1774=ORIENTED_EDGE('',*,*,#1773,.T.);
#1775=ORIENTED_EDGE('',*,*,#1750,.F.);
#1776=EDGE_LOOP('',(#1771,#1772,#1774,#1775));
#1777=FACE_OUTER_BOUND('',#1776,.F.);
#1779=FILL_AREA_STYLE_COLOUR('',#10);
#1780=FILL_AREA_STYLE('',(#1779));
#1781=SURFACE_STYLE_FILL_AREA(#1780);
#1782=SURFACE_SIDE_STYLE('',(#1781));
#1783=SURFACE_STYLE_USAGE(.BOTH.,#1782);
#1784=PRESENTATION_STYLE_ASSIGNMENT((#1783));
#1785=STYLED_ITEM('',(#1784),#1778);
#1786=CARTESIAN_POINT('',(0.E0,0.E0,-5.E0));
#1787=DIRECTION('',(0.E0,0.E0,-1.E0));
#1788=DIRECTION('',(-1.E0,0.E0,0.E0));
#1789=AXIS2_PLACEMENT_3D('',#1786,#1787,#1788);
#1790=PLANE('',#1789);
#1791=ORIENTED_EDGE('',*,*,#1752,.F.);
#1792=ORIENTED_EDGE('',*,*,#1773,.F.);
#1793=EDGE_LOOP('',(#1791,#1792));
#1794=FACE_OUTER_BOUND('',#1793,.F.);
#1796=FILL_AREA_STYLE_COLOUR('',#10);
#1797=FILL_AREA_STYLE('',(#1796));
#1798=SURFACE_STYLE_FILL_AREA(#1797);
#1799=SURFACE_SIDE_STYLE('',(#1798));
#1800=SURFACE_STYLE_USAGE(.BOTH.,#1799);
#1801=PRESENTATION_STYLE_ASSIGNMENT((#1800));
#1802=STYLED_ITEM('',(#1801),#1795);
#1803=CLOSED_SHELL('',(#953,#975,#998,#1041,#1083,#1105,#1125,#1166,#1208,#1229,
#1248,#1269,#1288,#1309,#1328,#1349,#1369,#1389,#1420,#1440,#1461,#1481,#1502,
#1522,#1543,#1574,#1599,#1619,#1639,#1658,#1677,#1697,#1717,#1736,#1758,#1778,
#1795));
#1804=MANIFOLD_SOLID_BREP('',#1803);
#1805=FILL_AREA_STYLE_COLOUR('',#10);
#1806=FILL_AREA_STYLE('',(#1805));
#1807=SURFACE_STYLE_FILL_AREA(#1806);
#1808=SURFACE_SIDE_STYLE('',(#1807));
#1809=SURFACE_STYLE_USAGE(.BOTH.,#1808);
#1810=PRESENTATION_STYLE_ASSIGNMENT((#1809));
#28=STYLED_ITEM('',(#1810),#1804);
#1813=PLANE_ANGLE_MEASURE_WITH_UNIT(PLANE_ANGLE_MEASURE(1.745329251994E-2),
#1812);
#1814=(CONVERSION_BASED_UNIT('DEGREE',#1813)NAMED_UNIT(*)PLANE_ANGLE_UNIT());
#1816=UNCERTAINTY_MEASURE_WITH_UNIT(LENGTH_MEASURE(7.456912986550E-3),#1811,
'distance_accuracy_value',
'Maximum model space distance between geometric entities at asserted connectivities');
#1818=CARTESIAN_POINT('',(0.E0,0.E0,0.E0));
#1819=DIRECTION('',(0.E0,0.E0,1.E0));
#1820=DIRECTION('',(1.E0,0.E0,0.E0));
#1823=MECHANICAL_DESIGN_GEOMETRIC_PRESENTATION_REPRESENTATION('',(#37,#44,#52,
#59,#67,#74,#82,#89,#97,#105,#113,#121,#129,#137,#145,#153,#161,#169,#177,#185,
#193,#200,#207,#215,#222,#230,#237,#244,#252,#259,#266,#273,#281,#289,#297,#305,
#313,#321,#329,#337,#345,#352,#360,#367,#374,#382,#389,#397,#404,#411,#418,#425,
#432,#439,#446,#453,#460,#467,#474,#481,#488,#495,#502,#509,#517,#525,#532,#539,
#546,#553,#560,#567,#575,#583,#590,#597,#604,#611,#618,#625,#633,#640,#648,#655,
#663,#670,#678,#685,#692,#699,#706,#713,#720,#727,#735,#743,#750,#757,#764,#771,
#779,#787,#960,#982,#1005,#1048,#1090,#1112,#1132,#1173,#1215,#1236,#1255,#1276,
#1295,#1316,#1335,#1356,#1376,#1396,#1427,#1447,#1468,#1488,#1509,#1529,#1550,
#1581,#1606,#1626,#1646,#1665,#1684,#1704,#1724,#1743,#1765,#1785,#1802,#28),
#1817);
#1824=APPLICATION_CONTEXT('automotive_design');
#1825=APPLICATION_PROTOCOL_DEFINITION('international standard',
'automotive_design',2001,#1824);
#1826=PRODUCT_DEFINITION_CONTEXT('part definition',#1824,'design');
#1827=PRODUCT_CONTEXT('',#1824,'mechanical');
#1828=PRODUCT('35MOTOR','35MOTOR','NOT SPECIFIED',(#1827));
#1829=PRODUCT_DEFINITION_FORMATION('14','LAST_VERSION',#1828);
#1837=DERIVED_UNIT_ELEMENT(#1836,2.E0);
#1838=DERIVED_UNIT((#1837));
#1839=MEASURE_REPRESENTATION_ITEM('surface area measure',AREA_MEASURE(
7.130090586949E3),#1838);
#1844=DERIVED_UNIT_ELEMENT(#1843,3.E0);
#1845=DERIVED_UNIT((#1844));
#1846=MEASURE_REPRESENTATION_ITEM('volume measure',VOLUME_MEASURE(
3.270320441497E4),#1845);
#1850=CARTESIAN_POINT('centre point',(-1.921333463465E-2,-1.795547189967E-6,
1.967164691963E1));
#1855=DERIVED_UNIT_ELEMENT(#1854,2.E0);
#1856=DERIVED_UNIT((#1855));
#1857=MEASURE_REPRESENTATION_ITEM('surface area measure',AREA_MEASURE(
7.130090586949E3),#1856);
#1862=DERIVED_UNIT_ELEMENT(#1861,3.E0);
#1863=DERIVED_UNIT((#1862));
#1864=MEASURE_REPRESENTATION_ITEM('volume measure',VOLUME_MEASURE(
3.270320441497E4),#1863);
#1868=CARTESIAN_POINT('centre point',(-1.921333463465E-2,-1.795547189967E-6,
1.967164691963E1));
#1=DRAUGHTING_PRE_DEFINED_COLOUR('green');
#2=DRAUGHTING_PRE_DEFINED_COLOUR('green');
#3=DRAUGHTING_PRE_DEFINED_COLOUR('green');
#4=COLOUR_RGB('',1.1E-2,1.2E-2,1.E0);
#5=COLOUR_RGB('',1.1E-2,1.2E-2,1.E0);
#6=COLOUR_RGB('',4.1E-1,2.61589E-1,1.12848E-1);
#7=COLOUR_RGB('',5.04854E-1,1.5455E-2,1.5455E-2);
#8=COLOUR_RGB('',6.35294E-1,6.86275E-1,7.4902E-1);
#9=COLOUR_RGB('',6.40777E-1,6.40777E-1,6.40777E-1);
#10=COLOUR_RGB('',6.66667E-1,6.66667E-1,6.66667E-1);
#11=COLOUR_RGB('',6.69062E-1,6.69903E-1,6.55217E-1);
#12=COLOUR_RGB('',7.45098E-1,3.92157E-1,2.94118E-1);
#13=COLOUR_RGB('',8.03922E-1,5.88235E-1,1.96078E-1);
#14=COLOUR_RGB('',9.21569E-1,7.05882E-1,4.70588E-1);
#15=DRAUGHTING_PRE_DEFINED_COLOUR('red');
#16=DRAUGHTING_PRE_DEFINED_COLOUR('red');
#17=DRAUGHTING_PRE_DEFINED_COLOUR('red');
#18=DRAUGHTING_PRE_DEFINED_COLOUR('red');
#19=DRAUGHTING_PRE_DEFINED_COLOUR('red');
#20=DRAUGHTING_PRE_DEFINED_COLOUR('red');
#21=DRAUGHTING_PRE_DEFINED_COLOUR('red');
#22=DRAUGHTING_PRE_DEFINED_COLOUR('yellow');
#23=DRAUGHTING_PRE_DEFINED_COLOUR('yellow');
#24=COLOUR_RGB('',1.E0,1.E0,5.3E-1);
#25=COLOUR_RGB('',1.E0,1.E0,9.49E-1);
#26=COLOUR_RGB('',1.E0,1.E0,9.49E-1);
#27=DRAUGHTING_PRE_DEFINED_COLOUR('white');
#33=CIRCLE('',#32,1.E0);
#49=CIRCLE('',#48,1.E0);
#64=CIRCLE('',#63,1.E0);
#79=CIRCLE('',#78,1.E0);
#94=CIRCLE('',#93,2.E0);
#102=CIRCLE('',#101,2.E0);
#110=CIRCLE('',#109,1.E0);
#118=CIRCLE('',#117,1.E0);
#126=CIRCLE('',#125,1.9E0);
#134=CIRCLE('',#133,1.9E0);
#142=CIRCLE('',#141,1.9E0);
#150=CIRCLE('',#149,1.9E0);
#158=CIRCLE('',#157,1.9E0);
#166=CIRCLE('',#165,1.9E0);
#174=CIRCLE('',#173,1.9E0);
#182=CIRCLE('',#181,1.9E0);
#190=CIRCLE('',#189,2.E0);
#212=CIRCLE('',#211,2.E0);
#227=CIRCLE('',#226,2.E0);
#249=CIRCLE('',#248,2.E0);
#278=CIRCLE('',#277,1.9E0);
#286=CIRCLE('',#285,1.9E0);
#294=CIRCLE('',#293,1.9E0);
#302=CIRCLE('',#301,1.9E0);
#310=CIRCLE('',#309,1.9E0);
#318=CIRCLE('',#317,1.9E0);
#326=CIRCLE('',#325,1.9E0);
#334=CIRCLE('',#333,1.9E0);
#342=CIRCLE('',#341,2.E0);
#357=CIRCLE('',#356,2.E0);
#379=CIRCLE('',#378,2.E0);
#394=CIRCLE('',#393,2.E0);
#514=CIRCLE('',#513,1.E0);
#522=CIRCLE('',#521,1.E0);
#572=CIRCLE('',#571,1.E0);
#580=CIRCLE('',#579,1.E0);
#630=CIRCLE('',#629,1.E0);
#645=CIRCLE('',#644,1.E0);
#660=CIRCLE('',#659,1.E0);
#675=CIRCLE('',#674,1.E0);
#732=CIRCLE('',#731,1.E0);
#740=CIRCLE('',#739,1.E0);
#776=CIRCLE('',#775,2.E0);
#784=CIRCLE('',#783,2.E0);
#929=EDGE_CURVE('',#790,#791,#33,.T.);
#931=EDGE_CURVE('',#790,#799,#41,.T.);
#933=EDGE_CURVE('',#798,#799,#49,.T.);
#935=EDGE_CURVE('',#798,#815,#56,.T.);
#937=EDGE_CURVE('',#814,#815,#64,.T.);
#939=EDGE_CURVE('',#814,#807,#71,.T.);
#941=EDGE_CURVE('',#806,#807,#79,.T.);
#943=EDGE_CURVE('',#806,#791,#86,.T.);
#947=EDGE_CURVE('',#826,#827,#94,.T.);
#949=EDGE_CURVE('',#827,#826,#102,.T.);
#953=ADVANCED_FACE('',(#946,#952),#928,.F.);
#966=EDGE_CURVE('',#877,#871,#110,.T.);
#968=EDGE_CURVE('',#877,#790,#485,.T.);
#971=EDGE_CURVE('',#871,#791,#696,.T.);
#975=ADVANCED_FACE('',(#974),#965,.T.);
#988=EDGE_CURVE('',#879,#875,#118,.T.);
#990=EDGE_CURVE('',#794,#875,#724,.T.);
#992=EDGE_CURVE('',#794,#795,#630,.T.);
#994=EDGE_CURVE('',#795,#879,#499,.T.);
#998=ADVANCED_FACE('',(#997),#987,.T.);
#1011=EDGE_CURVE('',#894,#895,#190,.T.);
#1013=EDGE_CURVE('',#894,#889,#197,.T.);
#1015=EDGE_CURVE('',#889,#863,#572,.T.);
#1017=EDGE_CURVE('',#862,#863,#529,.T.);
#1019=EDGE_CURVE('',#862,#881,#514,.T.);
#1021=EDGE_CURVE('',#881,#903,#204,.T.);
#1023=EDGE_CURVE('',#902,#903,#212,.T.);
#1025=EDGE_CURVE('',#902,#895,#219,.T.);
#1029=EDGE_CURVE('',#838,#839,#126,.T.);
#1031=EDGE_CURVE('',#839,#838,#134,.T.);
#1035=EDGE_CURVE('',#842,#843,#142,.T.);
#1037=EDGE_CURVE('',#843,#842,#150,.T.);
#1041=ADVANCED_FACE('',(#1028,#1034,#1040),#1010,.F.);
#1054=EDGE_CURVE('',#910,#911,#227,.T.);
#1056=EDGE_CURVE('',#910,#877,#234,.T.);
#1059=EDGE_CURVE('',#870,#871,#689,.T.);
#1061=EDGE_CURVE('',#870,#885,#732,.T.);
#1063=EDGE_CURVE('',#885,#919,#241,.T.);
#1065=EDGE_CURVE('',#918,#919,#249,.T.);
#1067=EDGE_CURVE('',#918,#911,#256,.T.);
#1071=EDGE_CURVE('',#830,#831,#158,.T.);
#1073=EDGE_CURVE('',#831,#830,#166,.T.);
#1077=EDGE_CURVE('',#834,#835,#174,.T.);
#1079=EDGE_CURVE('',#835,#834,#182,.T.);
#1083=ADVANCED_FACE('',(#1070,#1076,#1082),#1053,.F.);
#1097=EDGE_CURVE('',#838,#854,#263,.T.);
#1099=EDGE_CURVE('',#854,#855,#278,.T.);
#1101=EDGE_CURVE('',#839,#855,#270,.T.);
#1105=ADVANCED_FACE('',(#1104),#1095,.F.);
#1120=EDGE_CURVE('',#855,#854,#286,.T.);
#1125=ADVANCED_FACE('',(#1124),#1117,.F.);
#1138=EDGE_CURVE('',#897,#899,#342,.T.);
#1140=EDGE_CURVE('',#907,#897,#349,.T.);
#1142=EDGE_CURVE('',#905,#907,#357,.T.);
#1144=EDGE_CURVE('',#883,#905,#364,.T.);
#1146=EDGE_CURVE('',#866,#883,#522,.T.);
#1148=EDGE_CURVE('',#866,#867,#550,.T.);
#1150=EDGE_CURVE('',#891,#867,#580,.T.);
#1152=EDGE_CURVE('',#899,#891,#371,.T.);
#1160=EDGE_CURVE('',#858,#859,#294,.T.);
#1162=EDGE_CURVE('',#859,#858,#302,.T.);
#1166=ADVANCED_FACE('',(#1155,#1159,#1165),#1137,.T.);
#1179=EDGE_CURVE('',#913,#915,#379,.T.);
#1181=EDGE_CURVE('',#923,#913,#386,.T.);
#1183=EDGE_CURVE('',#921,#923,#394,.T.);
#1185=EDGE_CURVE('',#887,#921,#401,.T.);
#1187=EDGE_CURVE('',#874,#887,#740,.T.);
#1189=EDGE_CURVE('',#874,#875,#710,.T.);
#1192=EDGE_CURVE('',#915,#879,#408,.T.);
#1196=EDGE_CURVE('',#846,#847,#310,.T.);
#1198=EDGE_CURVE('',#847,#846,#318,.T.);
#1202=EDGE_CURVE('',#850,#851,#326,.T.);
#1204=EDGE_CURVE('',#851,#850,#334,.T.);
#1208=ADVANCED_FACE('',(#1195,#1201,#1207),#1178,.T.);
#1222=EDGE_CURVE('',#842,#858,#415,.T.);
#1225=EDGE_CURVE('',#843,#859,#422,.T.);
#1229=ADVANCED_FACE('',(#1228),#1220,.F.);
#1248=ADVANCED_FACE('',(#1247),#1241,.F.);
#1262=EDGE_CURVE('',#830,#846,#429,.T.);
#1265=EDGE_CURVE('',#831,#847,#436,.T.);
#1269=ADVANCED_FACE('',(#1268),#1260,.F.);
#1288=ADVANCED_FACE('',(#1287),#1281,.F.);
#1302=EDGE_CURVE('',#834,#850,#443,.T.);
#1305=EDGE_CURVE('',#835,#851,#450,.T.);
#1309=ADVANCED_FACE('',(#1308),#1300,.F.);
#1328=ADVANCED_FACE('',(#1327),#1321,.F.);
#1342=EDGE_CURVE('',#897,#895,#457,.T.);
#1345=EDGE_CURVE('',#899,#894,#587,.T.);
#1349=ADVANCED_FACE('',(#1348),#1340,.T.);
#1364=EDGE_CURVE('',#907,#902,#464,.T.);
#1369=ADVANCED_FACE('',(#1368),#1361,.T.);
#1383=EDGE_CURVE('',#905,#903,#471,.T.);
#1389=ADVANCED_FACE('',(#1388),#1381,.T.);
#1404=EDGE_CURVE('',#881,#799,#478,.T.);
#1409=EDGE_CURVE('',#915,#910,#492,.T.);
#1413=EDGE_CURVE('',#795,#802,#682,.T.);
#1415=EDGE_CURVE('',#802,#883,#506,.T.);
#1420=ADVANCED_FACE('',(#1419),#1401,.T.);
#1434=EDGE_CURVE('',#862,#798,#543,.T.);
#1440=ADVANCED_FACE('',(#1439),#1432,.T.);
#1455=EDGE_CURVE('',#802,#803,#675,.T.);
#1457=EDGE_CURVE('',#803,#866,#557,.T.);
#1461=ADVANCED_FACE('',(#1460),#1452,.T.);
#1475=EDGE_CURVE('',#863,#815,#536,.T.);
#1481=ADVANCED_FACE('',(#1480),#1473,.T.);
#1496=EDGE_CURVE('',#803,#818,#667,.T.);
#1498=EDGE_CURVE('',#818,#867,#564,.T.);
#1502=ADVANCED_FACE('',(#1501),#1493,.T.);
#1516=EDGE_CURVE('',#889,#814,#622,.T.);
#1522=ADVANCED_FACE('',(#1521),#1514,.T.);
#1537=EDGE_CURVE('',#818,#819,#660,.T.);
#1539=EDGE_CURVE('',#819,#891,#594,.T.);
#1543=ADVANCED_FACE('',(#1542),#1534,.T.);
#1559=EDGE_CURVE('',#819,#810,#652,.T.);
#1561=EDGE_CURVE('',#810,#887,#601,.T.);
#1564=EDGE_CURVE('',#921,#919,#608,.T.);
#1567=EDGE_CURVE('',#885,#807,#615,.T.);
#1574=ADVANCED_FACE('',(#1573),#1555,.T.);
#1588=EDGE_CURVE('',#811,#794,#637,.T.);
#1590=EDGE_CURVE('',#810,#811,#645,.T.);
#1599=ADVANCED_FACE('',(#1598),#1586,.T.);
#1615=EDGE_CURVE('',#870,#806,#703,.T.);
#1619=ADVANCED_FACE('',(#1618),#1611,.T.);
#1633=EDGE_CURVE('',#811,#874,#717,.T.);
#1639=ADVANCED_FACE('',(#1638),#1631,.T.);
#1658=ADVANCED_FACE('',(#1657),#1651,.T.);
#1677=ADVANCED_FACE('',(#1676),#1670,.T.);
#1693=EDGE_CURVE('',#923,#918,#754,.T.);
#1697=ADVANCED_FACE('',(#1696),#1689,.T.);
#1710=EDGE_CURVE('',#913,#911,#747,.T.);
#1717=ADVANCED_FACE('',(#1716),#1709,.T.);
#1736=ADVANCED_FACE('',(#1735),#1729,.T.);
#1750=EDGE_CURVE('',#826,#822,#761,.T.);
#1752=EDGE_CURVE('',#822,#823,#776,.T.);
#1754=EDGE_CURVE('',#827,#823,#768,.T.);
#1758=ADVANCED_FACE('',(#1757),#1748,.T.);
#1773=EDGE_CURVE('',#823,#822,#784,.T.);
#1778=ADVANCED_FACE('',(#1777),#1770,.T.);
#1795=ADVANCED_FACE('',(#1794),#1790,.T.);
#1811=(LENGTH_UNIT()NAMED_UNIT(*)SI_UNIT(.MILLI.,.METRE.));
#1812=(NAMED_UNIT(*)PLANE_ANGLE_UNIT()SI_UNIT($,.RADIAN.));
#1815=(NAMED_UNIT(*)SI_UNIT($,.STERADIAN.)SOLID_ANGLE_UNIT());
#1817=(GEOMETRIC_REPRESENTATION_CONTEXT(3)GLOBAL_UNCERTAINTY_ASSIGNED_CONTEXT((
#1816))GLOBAL_UNIT_ASSIGNED_CONTEXT((#1811,#1814,#1815))REPRESENTATION_CONTEXT(
'ID1','external'));
#1821=AXIS2_PLACEMENT_3D('',#1818,#1819,#1820);
#1822=ADVANCED_BREP_SHAPE_REPRESENTATION('',(#1821,#1804),#1817);
#1830=PRODUCT_DEFINITION('part definition','',#1829,#1826);
#1831=PRODUCT_DEFINITION_SHAPE('','SHAPE FOR 35MOTOR.',#1830);
#1832=SHAPE_ASPECT('','solid data associated with 35MOTOR',#1831,.F.);
#1833=PROPERTY_DEFINITION('',
'shape for solid data with which properties are associated',#1832);
#1834=SHAPE_REPRESENTATION('',(#1804),#1817);
#1835=SHAPE_DEFINITION_REPRESENTATION(#1833,#1834);
#1836=(LENGTH_UNIT()NAMED_UNIT(*)SI_UNIT(.MILLI.,.METRE.));
#1840=PROPERTY_DEFINITION('geometric validation property','area of 35MOTOR',
#1832);
#1841=REPRESENTATION('surface area',(#1839),#1817);
#1842=PROPERTY_DEFINITION_REPRESENTATION(#1840,#1841);
#1843=(LENGTH_UNIT()NAMED_UNIT(*)SI_UNIT(.MILLI.,.METRE.));
#1847=PROPERTY_DEFINITION('geometric validation property','volume of 35MOTOR',
#1832);
#1848=REPRESENTATION('volume',(#1846),#1817);
#1849=PROPERTY_DEFINITION_REPRESENTATION(#1847,#1848);
#1851=PROPERTY_DEFINITION('geometric validation property','centroid of 35MOTOR',
#1832);
#1852=REPRESENTATION('centroid',(#1850),#1817);
#1853=PROPERTY_DEFINITION_REPRESENTATION(#1851,#1852);
#1854=(LENGTH_UNIT()NAMED_UNIT(*)SI_UNIT(.MILLI.,.METRE.));
#1858=PROPERTY_DEFINITION('geometric validation property','area of 35MOTOR',
#1831);
#1859=REPRESENTATION('surface area',(#1857),#1817);
#1860=PROPERTY_DEFINITION_REPRESENTATION(#1858,#1859);
#1861=(LENGTH_UNIT()NAMED_UNIT(*)SI_UNIT(.MILLI.,.METRE.));
#1865=PROPERTY_DEFINITION('geometric validation property','volume of 35MOTOR',
#1831);
#1866=REPRESENTATION('volume',(#1864),#1817);
#1867=PROPERTY_DEFINITION_REPRESENTATION(#1865,#1866);
#1869=PROPERTY_DEFINITION('geometric validation property','centroid of 35MOTOR',
#1831);
#1870=REPRESENTATION('centroid',(#1868),#1817);
#1871=PROPERTY_DEFINITION_REPRESENTATION(#1869,#1870);
#1872=SHAPE_DEFINITION_REPRESENTATION(#1831,#1822);
#1873=PRODUCT_RELATED_PRODUCT_CATEGORY('part','',(#1828));
ENDSEC;
END-ISO-10303-21;
