ISO-10303-21;
HEADER;
FILE_DESCRIPTION((''),'2;1');
FILE_NAME('AXISCOVER','2026-08-09T09:56:41',('gram2'),(''),
'CREO PARAMETRIC BY PTC INC, 2016510','CREO PARAMETRIC BY PTC INC, 2016510','');
FILE_SCHEMA(('AUTOMOTIVE_DESIGN { 1 0 10303 214 1 1 1 1 }'));
ENDSEC;
DATA;
#28=CARTESIAN_POINT('',(1.022E1,2.3E-1,0.E0));
#29=DIRECTION('',(0.E0,0.E0,-1.E0));
#30=DIRECTION('',(1.E0,0.E0,0.E0));
#31=AXIS2_PLACEMENT_3D('',#28,#29,#30);
#33=CARTESIAN_POINT('',(1.022E1,2.3E-1,0.E0));
#34=DIRECTION('',(0.E0,0.E0,-1.E0));
#35=DIRECTION('',(-1.E0,0.E0,0.E0));
#36=AXIS2_PLACEMENT_3D('',#33,#34,#35);
#38=CARTESIAN_POINT('',(-1.018E1,2.3E-1,0.E0));
#39=DIRECTION('',(0.E0,0.E0,-1.E0));
#40=DIRECTION('',(1.E0,0.E0,0.E0));
#41=AXIS2_PLACEMENT_3D('',#38,#39,#40);
#43=CARTESIAN_POINT('',(-1.018E1,2.3E-1,0.E0));
#44=DIRECTION('',(0.E0,0.E0,-1.E0));
#45=DIRECTION('',(-1.E0,0.E0,0.E0));
#46=AXIS2_PLACEMENT_3D('',#43,#44,#45);
#48=DIRECTION('',(1.E0,0.E0,0.E0));
#49=VECTOR('',#48,7.789736837660E0);
#50=CARTESIAN_POINT('',(-3.894868418830E0,-2.4E0,0.E0));
#51=LINE('',#50,#49);
#52=DIRECTION('',(0.E0,1.E0,0.E0));
#53=VECTOR('',#52,1.9E0);
#54=CARTESIAN_POINT('',(-3.894868418830E0,-2.4E0,0.E0));
#55=LINE('',#54,#53);
#56=DIRECTION('',(-1.E0,0.E0,0.E0));
#57=VECTOR('',#56,1.001284522575E-1);
#58=CARTESIAN_POINT('',(-3.894868418830E0,-5.E-1,0.E0));
#59=LINE('',#58,#57);
#60=DIRECTION('',(0.E0,1.E0,0.E0));
#61=VECTOR('',#60,3.5E0);
#62=CARTESIAN_POINT('',(-3.994996871088E0,-5.E-1,0.E0));
#63=LINE('',#62,#61);
#64=DIRECTION('',(-1.E0,0.E0,0.E0));
#65=VECTOR('',#64,2.051696440136E0);
#66=CARTESIAN_POINT('',(-3.994996871088E0,3.E0,0.E0));
#67=LINE('',#66,#65);
#68=DIRECTION('',(0.E0,1.E0,0.E0));
#69=VECTOR('',#68,4.5E0);
#70=CARTESIAN_POINT('',(-6.046693311224E0,3.E0,0.E0));
#71=LINE('',#70,#69);
#72=DIRECTION('',(-1.E0,0.E0,0.E0));
#73=VECTOR('',#72,8.953306688776E0);
#74=CARTESIAN_POINT('',(-6.046693311224E0,7.5E0,0.E0));
#75=LINE('',#74,#73);
#76=DIRECTION('',(0.E0,-1.E0,0.E0));
#77=VECTOR('',#76,1.5E1);
#78=CARTESIAN_POINT('',(-1.5E1,7.5E0,0.E0));
#79=LINE('',#78,#77);
#80=DIRECTION('',(1.E0,0.E0,0.E0));
#81=VECTOR('',#80,3.E1);
#82=CARTESIAN_POINT('',(-1.5E1,-7.5E0,0.E0));
#83=LINE('',#82,#81);
#84=DIRECTION('',(0.E0,1.E0,0.E0));
#85=VECTOR('',#84,1.5E1);
#86=CARTESIAN_POINT('',(1.5E1,-7.5E0,0.E0));
#87=LINE('',#86,#85);
#88=DIRECTION('',(-1.E0,0.E0,0.E0));
#89=VECTOR('',#88,8.953306688776E0);
#90=CARTESIAN_POINT('',(1.5E1,7.5E0,0.E0));
#91=LINE('',#90,#89);
#92=DIRECTION('',(0.E0,1.E0,0.E0));
#93=VECTOR('',#92,4.5E0);
#94=CARTESIAN_POINT('',(6.046693311224E0,3.E0,0.E0));
#95=LINE('',#94,#93);
#96=DIRECTION('',(-1.E0,0.E0,0.E0));
#97=VECTOR('',#96,2.051696440136E0);
#98=CARTESIAN_POINT('',(6.046693311224E0,3.E0,0.E0));
#99=LINE('',#98,#97);
#100=DIRECTION('',(0.E0,1.E0,0.E0));
#101=VECTOR('',#100,3.5E0);
#102=CARTESIAN_POINT('',(3.994996871088E0,-5.E-1,0.E0));
#103=LINE('',#102,#101);
#104=DIRECTION('',(-1.E0,0.E0,0.E0));
#105=VECTOR('',#104,1.001284522575E-1);
#106=CARTESIAN_POINT('',(3.994996871088E0,-5.E-1,0.E0));
#107=LINE('',#106,#105);
#108=DIRECTION('',(0.E0,1.E0,0.E0));
#109=VECTOR('',#108,1.9E0);
#110=CARTESIAN_POINT('',(3.894868418830E0,-2.4E0,0.E0));
#111=LINE('',#110,#109);
#112=DIRECTION('',(0.E0,0.E0,1.E0));
#113=VECTOR('',#112,8.E0);
#114=CARTESIAN_POINT('',(1.182E1,2.3E-1,0.E0));
#115=LINE('',#114,#113);
#116=DIRECTION('',(0.E0,0.E0,1.E0));
#117=VECTOR('',#116,8.E0);
#118=CARTESIAN_POINT('',(8.62E0,2.3E-1,0.E0));
#119=LINE('',#118,#117);
#120=CARTESIAN_POINT('',(1.022E1,2.3E-1,8.E0));
#121=DIRECTION('',(0.E0,0.E0,-1.E0));
#122=DIRECTION('',(1.E0,0.E0,0.E0));
#123=AXIS2_PLACEMENT_3D('',#120,#121,#122);
#125=CARTESIAN_POINT('',(1.022E1,2.3E-1,8.E0));
#126=DIRECTION('',(0.E0,0.E0,-1.E0));
#127=DIRECTION('',(-1.E0,0.E0,0.E0));
#128=AXIS2_PLACEMENT_3D('',#125,#126,#127);
#130=CARTESIAN_POINT('',(-1.018E1,2.3E-1,8.E0));
#131=DIRECTION('',(0.E0,0.E0,-1.E0));
#132=DIRECTION('',(1.E0,0.E0,0.E0));
#133=AXIS2_PLACEMENT_3D('',#130,#131,#132);
#135=CARTESIAN_POINT('',(-1.018E1,2.3E-1,8.E0));
#136=DIRECTION('',(0.E0,0.E0,-1.E0));
#137=DIRECTION('',(-1.E0,0.E0,0.E0));
#138=AXIS2_PLACEMENT_3D('',#135,#136,#137);
#140=DIRECTION('',(0.E0,-1.E0,0.E0));
#141=VECTOR('',#140,1.5E1);
#142=CARTESIAN_POINT('',(6.E0,7.5E0,8.E0));
#143=LINE('',#142,#141);
#144=DIRECTION('',(-1.E0,0.E0,0.E0));
#145=VECTOR('',#144,7.E0);
#146=CARTESIAN_POINT('',(1.3E1,7.5E0,8.E0));
#147=LINE('',#146,#145);
#148=DIRECTION('',(0.E0,1.E0,0.E0));
#149=VECTOR('',#148,1.5E1);
#150=CARTESIAN_POINT('',(1.3E1,-7.5E0,8.E0));
#151=LINE('',#150,#149);
#152=DIRECTION('',(1.E0,0.E0,0.E0));
#153=VECTOR('',#152,7.E0);
#154=CARTESIAN_POINT('',(6.E0,-7.5E0,8.E0));
#155=LINE('',#154,#153);
#156=DIRECTION('',(0.E0,-1.E0,0.E0));
#157=VECTOR('',#156,1.5E1);
#158=CARTESIAN_POINT('',(-6.E0,7.5E0,8.E0));
#159=LINE('',#158,#157);
#160=DIRECTION('',(1.E0,0.E0,0.E0));
#161=VECTOR('',#160,7.E0);
#162=CARTESIAN_POINT('',(-1.3E1,-7.5E0,8.E0));
#163=LINE('',#162,#161);
#164=DIRECTION('',(0.E0,-1.E0,0.E0));
#165=VECTOR('',#164,1.5E1);
#166=CARTESIAN_POINT('',(-1.3E1,7.5E0,8.E0));
#167=LINE('',#166,#165);
#168=DIRECTION('',(-1.E0,0.E0,0.E0));
#169=VECTOR('',#168,7.E0);
#170=CARTESIAN_POINT('',(-6.E0,7.5E0,8.E0));
#171=LINE('',#170,#169);
#172=DIRECTION('',(0.E0,0.E0,1.E0));
#173=VECTOR('',#172,8.E0);
#174=CARTESIAN_POINT('',(-8.58E0,2.3E-1,0.E0));
#175=LINE('',#174,#173);
#176=DIRECTION('',(0.E0,0.E0,1.E0));
#177=VECTOR('',#176,8.E0);
#178=CARTESIAN_POINT('',(-1.178E1,2.3E-1,0.E0));
#179=LINE('',#178,#177);
#180=DIRECTION('',(-7.071067811865E-1,0.E0,7.071067811865E-1));
#181=VECTOR('',#180,2.828427124746E0);
#182=CARTESIAN_POINT('',(6.E0,-7.5E0,8.E0));
#183=LINE('',#182,#181);
#184=CARTESIAN_POINT('',(1.3E1,-7.5E0,6.E0));
#185=DIRECTION('',(0.E0,-1.E0,0.E0));
#186=DIRECTION('',(1.E0,0.E0,0.E0));
#187=AXIS2_PLACEMENT_3D('',#184,#185,#186);
#189=DIRECTION('',(0.E0,0.E0,1.E0));
#190=VECTOR('',#189,6.E0);
#191=CARTESIAN_POINT('',(-1.5E1,-7.5E0,0.E0));
#192=LINE('',#191,#190);
#193=CARTESIAN_POINT('',(-1.3E1,-7.5E0,6.E0));
#194=DIRECTION('',(0.E0,-1.E0,0.E0));
#195=DIRECTION('',(0.E0,0.E0,1.E0));
#196=AXIS2_PLACEMENT_3D('',#193,#194,#195);
#198=DIRECTION('',(-7.071067811865E-1,0.E0,-7.071067811865E-1));
#199=VECTOR('',#198,2.828427124746E0);
#200=CARTESIAN_POINT('',(-4.E0,-7.5E0,1.E1));
#201=LINE('',#200,#199);
#202=DIRECTION('',(1.E0,0.E0,0.E0));
#203=VECTOR('',#202,8.E0);
#204=CARTESIAN_POINT('',(-4.E0,-7.5E0,1.E1));
#205=LINE('',#204,#203);
#206=DIRECTION('',(7.071067811865E-1,0.E0,-7.071067811865E-1));
#207=VECTOR('',#206,2.828427124746E0);
#208=CARTESIAN_POINT('',(4.E0,7.5E0,1.E1));
#209=LINE('',#208,#207);
#210=DIRECTION('',(1.E0,0.E0,0.E0));
#211=VECTOR('',#210,8.E0);
#212=CARTESIAN_POINT('',(-4.E0,7.5E0,1.E1));
#213=LINE('',#212,#211);
#214=DIRECTION('',(7.071067811865E-1,0.E0,7.071067811865E-1));
#215=VECTOR('',#214,2.828427124746E0);
#216=CARTESIAN_POINT('',(-6.E0,7.5E0,8.E0));
#217=LINE('',#216,#215);
#218=CARTESIAN_POINT('',(-1.3E1,7.5E0,6.E0));
#219=DIRECTION('',(0.E0,1.E0,0.E0));
#220=DIRECTION('',(-1.E0,0.E0,0.E0));
#221=AXIS2_PLACEMENT_3D('',#218,#219,#220);
#223=CARTESIAN_POINT('',(0.E0,7.5E0,-2.E-1));
#224=DIRECTION('',(0.E0,1.E0,0.E0));
#225=DIRECTION('',(-9.994534398717E-1,0.E0,3.305785123967E-2));
#226=AXIS2_PLACEMENT_3D('',#223,#224,#225);
#228=DIRECTION('',(0.E0,0.E0,1.E0));
#229=VECTOR('',#228,6.E0);
#230=CARTESIAN_POINT('',(1.5E1,7.5E0,0.E0));
#231=LINE('',#230,#229);
#232=CARTESIAN_POINT('',(1.3E1,7.5E0,6.E0));
#233=DIRECTION('',(0.E0,1.E0,0.E0));
#234=DIRECTION('',(0.E0,0.E0,1.E0));
#235=AXIS2_PLACEMENT_3D('',#232,#233,#234);
#237=DIRECTION('',(0.E0,-1.E0,0.E0));
#238=VECTOR('',#237,1.5E1);
#239=CARTESIAN_POINT('',(4.E0,7.5E0,1.E1));
#240=LINE('',#239,#238);
#241=DIRECTION('',(0.E0,-1.E0,0.E0));
#242=VECTOR('',#241,1.5E1);
#243=CARTESIAN_POINT('',(-4.E0,7.5E0,1.E1));
#244=LINE('',#243,#242);
#245=DIRECTION('',(0.E0,-1.E0,0.E0));
#246=VECTOR('',#245,1.5E1);
#247=CARTESIAN_POINT('',(-1.5E1,7.5E0,6.E0));
#248=LINE('',#247,#246);
#249=DIRECTION('',(0.E0,0.E0,1.E0));
#250=VECTOR('',#249,6.E0);
#251=CARTESIAN_POINT('',(-1.5E1,7.5E0,0.E0));
#252=LINE('',#251,#250);
#253=CARTESIAN_POINT('',(0.E0,3.E0,-2.E-1));
#254=DIRECTION('',(0.E0,1.E0,0.E0));
#255=DIRECTION('',(-9.987492177719E-1,0.E0,5.E-2));
#256=AXIS2_PLACEMENT_3D('',#253,#254,#255);
#258=CARTESIAN_POINT('',(0.E0,3.E0,-2.E-1));
#259=DIRECTION('',(0.E0,1.E0,0.E0));
#260=DIRECTION('',(-9.994534398717E-1,0.E0,3.305785123967E-2));
#261=AXIS2_PLACEMENT_3D('',#258,#259,#260);
#263=DIRECTION('',(-7.295535384493E-1,0.E0,-6.839237052012E-1));
#264=VECTOR('',#263,8.207084462414E-1);
#265=CARTESIAN_POINT('',(3.891879881439E0,-5.E-1,-4.515372506185E-1));
#266=LINE('',#265,#264);
#267=CARTESIAN_POINT('',(0.E0,-5.E-1,-2.E-1));
#268=DIRECTION('',(0.E0,1.E0,0.E0));
#269=DIRECTION('',(9.986842099564E-1,0.E0,5.128205128205E-2));
#270=AXIS2_PLACEMENT_3D('',#267,#268,#269);
#272=CARTESIAN_POINT('',(0.E0,-5.E-1,-2.E-1));
#273=DIRECTION('',(0.E0,1.E0,0.E0));
#274=DIRECTION('',(-9.987492177719E-1,0.E0,5.E-2));
#275=AXIS2_PLACEMENT_3D('',#272,#273,#274);
#277=CARTESIAN_POINT('',(0.E0,-5.E-1,-2.E-1));
#278=DIRECTION('',(0.E0,1.E0,0.E0));
#279=DIRECTION('',(-9.979179183177E-1,0.E0,-6.449673092783E-2));
#280=AXIS2_PLACEMENT_3D('',#277,#278,#279);
#282=DIRECTION('',(-7.295535384493E-1,0.E0,6.839237052012E-1));
#283=VECTOR('',#282,8.207084462414E-1);
#284=CARTESIAN_POINT('',(-3.293129130449E0,-5.E-1,-1.012839212062E0));
#285=LINE('',#284,#283);
#286=DIRECTION('',(-1.E0,0.E0,0.E0));
#287=VECTOR('',#286,6.586258260897E0);
#288=CARTESIAN_POINT('',(3.293129130449E0,-5.E-1,-1.012839212062E0));
#289=LINE('',#288,#287);
#290=DIRECTION('',(-6.021863151807E-1,5.645226487082E-1,-5.645226487082E-1));
#291=VECTOR('',#290,3.542816226376E-1);
#292=CARTESIAN_POINT('',(3.506472675321E0,-2.4E0,-8.128392120618E-1));
#293=LINE('',#292,#291);
#294=DIRECTION('',(1.E0,0.E0,0.E0));
#295=VECTOR('',#294,6.586258260897E0);
#296=CARTESIAN_POINT('',(-3.293129130449E0,-2.2E0,-1.012839212062E0));
#297=LINE('',#296,#295);
#298=DIRECTION('',(0.E0,-1.E0,0.E0));
#299=VECTOR('',#298,1.7E0);
#300=CARTESIAN_POINT('',(3.293129130449E0,-5.E-1,-1.012839212062E0));
#301=LINE('',#300,#299);
#302=DIRECTION('',(0.E0,-1.E0,0.E0));
#303=VECTOR('',#302,1.7E0);
#304=CARTESIAN_POINT('',(-3.293129130449E0,-5.E-1,-1.012839212062E0));
#305=LINE('',#304,#303);
#306=DIRECTION('',(-6.021863151807E-1,-5.645226487082E-1,5.645226487082E-1));
#307=VECTOR('',#306,3.542816226376E-1);
#308=CARTESIAN_POINT('',(-3.293129130449E0,-2.2E0,-1.012839212062E0));
#309=LINE('',#308,#307);
#310=DIRECTION('',(0.E0,-1.E0,0.E0));
#311=VECTOR('',#310,1.9E0);
#312=CARTESIAN_POINT('',(3.891879881439E0,-5.E-1,-4.515372506185E-1));
#313=LINE('',#312,#311);
#314=DIRECTION('',(0.E0,-1.E0,0.E0));
#315=VECTOR('',#314,1.9E0);
#316=CARTESIAN_POINT('',(-3.891879881439E0,-5.E-1,-4.515372506185E-1));
#317=LINE('',#316,#315);
#318=DIRECTION('',(1.E0,0.E0,0.E0));
#319=VECTOR('',#318,7.012945350642E0);
#320=CARTESIAN_POINT('',(-3.506472675321E0,-2.4E0,-8.128392120618E-1));
#321=LINE('',#320,#319);
#322=DIRECTION('',(7.295535384493E-1,0.E0,-6.839237052012E-1));
#323=VECTOR('',#322,5.282781671342E-1);
#324=CARTESIAN_POINT('',(-3.891879881439E0,-2.4E0,-4.515372506185E-1));
#325=LINE('',#324,#323);
#326=CARTESIAN_POINT('',(0.E0,-2.4E0,-2.E-1));
#327=DIRECTION('',(0.E0,1.E0,0.E0));
#328=DIRECTION('',(-9.979179183177E-1,0.E0,-6.449673092783E-2));
#329=AXIS2_PLACEMENT_3D('',#326,#327,#328);
#331=CARTESIAN_POINT('',(0.E0,-2.4E0,-2.E-1));
#332=DIRECTION('',(0.E0,1.E0,0.E0));
#333=DIRECTION('',(9.986842099564E-1,0.E0,5.128205128205E-2));
#334=AXIS2_PLACEMENT_3D('',#331,#332,#333);
#336=DIRECTION('',(7.295535384493E-1,0.E0,6.839237052012E-1));
#337=VECTOR('',#336,5.282781671342E-1);
#338=CARTESIAN_POINT('',(3.506472675321E0,-2.4E0,-8.128392120618E-1));
#339=LINE('',#338,#337);
#340=DIRECTION('',(0.E0,1.E0,0.E0));
#341=VECTOR('',#340,1.5E1);
#342=CARTESIAN_POINT('',(1.5E1,-7.5E0,6.E0));
#343=LINE('',#342,#341);
#344=DIRECTION('',(0.E0,0.E0,1.E0));
#345=VECTOR('',#344,6.E0);
#346=CARTESIAN_POINT('',(1.5E1,-7.5E0,0.E0));
#347=LINE('',#346,#345);
#348=CARTESIAN_POINT('',(1.182E1,2.3E-1,0.E0));
#349=CARTESIAN_POINT('',(8.62E0,2.3E-1,0.E0));
#350=VERTEX_POINT('',#348);
#351=VERTEX_POINT('',#349);
#352=CARTESIAN_POINT('',(-8.58E0,2.3E-1,0.E0));
#353=CARTESIAN_POINT('',(-1.178E1,2.3E-1,0.E0));
#354=VERTEX_POINT('',#352);
#355=VERTEX_POINT('',#353);
#356=CARTESIAN_POINT('',(-1.5E1,7.5E0,0.E0));
#357=CARTESIAN_POINT('',(-1.5E1,-7.5E0,0.E0));
#358=VERTEX_POINT('',#356);
#359=VERTEX_POINT('',#357);
#360=CARTESIAN_POINT('',(1.5E1,-7.5E0,0.E0));
#361=VERTEX_POINT('',#360);
#362=CARTESIAN_POINT('',(1.5E1,7.5E0,0.E0));
#363=VERTEX_POINT('',#362);
#364=CARTESIAN_POINT('',(1.182E1,2.3E-1,8.E0));
#365=CARTESIAN_POINT('',(8.62E0,2.3E-1,8.E0));
#366=VERTEX_POINT('',#364);
#367=VERTEX_POINT('',#365);
#368=CARTESIAN_POINT('',(-8.58E0,2.3E-1,8.E0));
#369=CARTESIAN_POINT('',(-1.178E1,2.3E-1,8.E0));
#370=VERTEX_POINT('',#368);
#371=VERTEX_POINT('',#369);
#372=CARTESIAN_POINT('',(-6.046693311224E0,3.E0,0.E0));
#373=CARTESIAN_POINT('',(-6.046693311224E0,7.5E0,0.E0));
#374=VERTEX_POINT('',#372);
#375=VERTEX_POINT('',#373);
#376=CARTESIAN_POINT('',(6.046693311224E0,3.E0,0.E0));
#377=CARTESIAN_POINT('',(6.046693311224E0,7.5E0,0.E0));
#378=VERTEX_POINT('',#376);
#379=VERTEX_POINT('',#377);
#380=CARTESIAN_POINT('',(-3.994996871088E0,-5.E-1,0.E0));
#381=CARTESIAN_POINT('',(-3.994996871088E0,3.E0,0.E0));
#382=VERTEX_POINT('',#380);
#383=VERTEX_POINT('',#381);
#384=CARTESIAN_POINT('',(3.994996871088E0,-5.E-1,0.E0));
#385=CARTESIAN_POINT('',(3.994996871088E0,3.E0,0.E0));
#386=VERTEX_POINT('',#384);
#387=VERTEX_POINT('',#385);
#388=CARTESIAN_POINT('',(-1.3E1,-7.5E0,8.E0));
#389=CARTESIAN_POINT('',(-1.5E1,-7.5E0,6.E0));
#390=VERTEX_POINT('',#388);
#391=VERTEX_POINT('',#389);
#392=CARTESIAN_POINT('',(-1.5E1,7.5E0,6.E0));
#393=VERTEX_POINT('',#392);
#394=CARTESIAN_POINT('',(-1.3E1,7.5E0,8.E0));
#395=VERTEX_POINT('',#394);
#396=CARTESIAN_POINT('',(1.3E1,7.5E0,8.E0));
#397=CARTESIAN_POINT('',(1.5E1,7.5E0,6.E0));
#398=VERTEX_POINT('',#396);
#399=VERTEX_POINT('',#397);
#400=CARTESIAN_POINT('',(1.5E1,-7.5E0,6.E0));
#401=VERTEX_POINT('',#400);
#402=CARTESIAN_POINT('',(1.3E1,-7.5E0,8.E0));
#403=VERTEX_POINT('',#402);
#404=CARTESIAN_POINT('',(-3.894868418830E0,-2.4E0,0.E0));
#405=CARTESIAN_POINT('',(3.894868418830E0,-2.4E0,0.E0));
#406=VERTEX_POINT('',#404);
#407=VERTEX_POINT('',#405);
#408=CARTESIAN_POINT('',(-3.894868418830E0,-5.E-1,0.E0));
#409=VERTEX_POINT('',#408);
#410=CARTESIAN_POINT('',(3.894868418830E0,-5.E-1,0.E0));
#411=VERTEX_POINT('',#410);
#412=CARTESIAN_POINT('',(3.891879881439E0,-5.E-1,-4.515372506185E-1));
#413=CARTESIAN_POINT('',(3.891879881439E0,-2.4E0,-4.515372506185E-1));
#414=VERTEX_POINT('',#412);
#415=VERTEX_POINT('',#413);
#416=CARTESIAN_POINT('',(3.293129130449E0,-5.E-1,-1.012839212062E0));
#417=VERTEX_POINT('',#416);
#418=CARTESIAN_POINT('',(-3.293129130449E0,-5.E-1,-1.012839212062E0));
#419=CARTESIAN_POINT('',(-3.891879881439E0,-5.E-1,-4.515372506185E-1));
#420=VERTEX_POINT('',#418);
#421=VERTEX_POINT('',#419);
#422=CARTESIAN_POINT('',(-3.891879881439E0,-2.4E0,-4.515372506185E-1));
#423=VERTEX_POINT('',#422);
#424=CARTESIAN_POINT('',(3.506472675321E0,-2.4E0,-8.128392120618E-1));
#425=CARTESIAN_POINT('',(3.293129130449E0,-2.2E0,-1.012839212062E0));
#426=VERTEX_POINT('',#424);
#427=VERTEX_POINT('',#425);
#428=CARTESIAN_POINT('',(-3.293129130449E0,-2.2E0,-1.012839212062E0));
#429=VERTEX_POINT('',#428);
#430=CARTESIAN_POINT('',(-3.506472675321E0,-2.4E0,-8.128392120618E-1));
#431=VERTEX_POINT('',#430);
#432=CARTESIAN_POINT('',(6.E0,-7.5E0,8.E0));
#433=CARTESIAN_POINT('',(4.E0,-7.5E0,1.E1));
#434=VERTEX_POINT('',#432);
#435=VERTEX_POINT('',#433);
#436=CARTESIAN_POINT('',(4.E0,7.5E0,1.E1));
#437=VERTEX_POINT('',#436);
#438=CARTESIAN_POINT('',(6.E0,7.5E0,8.E0));
#439=VERTEX_POINT('',#438);
#440=CARTESIAN_POINT('',(-4.E0,-7.5E0,1.E1));
#441=CARTESIAN_POINT('',(-6.E0,-7.5E0,8.E0));
#442=VERTEX_POINT('',#440);
#443=VERTEX_POINT('',#441);
#444=CARTESIAN_POINT('',(-6.E0,7.5E0,8.E0));
#445=VERTEX_POINT('',#444);
#446=CARTESIAN_POINT('',(-4.E0,7.5E0,1.E1));
#447=VERTEX_POINT('',#446);
#448=CARTESIAN_POINT('',(0.E0,0.E0,0.E0));
#449=DIRECTION('',(0.E0,0.E0,1.E0));
#450=DIRECTION('',(1.E0,0.E0,0.E0));
#451=AXIS2_PLACEMENT_3D('',#448,#449,#450);
#452=PLANE('',#451);
#454=ORIENTED_EDGE('',*,*,#453,.F.);
#456=ORIENTED_EDGE('',*,*,#455,.T.);
#458=ORIENTED_EDGE('',*,*,#457,.T.);
#460=ORIENTED_EDGE('',*,*,#459,.T.);
#462=ORIENTED_EDGE('',*,*,#461,.T.);
#464=ORIENTED_EDGE('',*,*,#463,.T.);
#466=ORIENTED_EDGE('',*,*,#465,.T.);
#468=ORIENTED_EDGE('',*,*,#467,.T.);
#470=ORIENTED_EDGE('',*,*,#469,.T.);
#472=ORIENTED_EDGE('',*,*,#471,.T.);
#474=ORIENTED_EDGE('',*,*,#473,.T.);
#476=ORIENTED_EDGE('',*,*,#475,.F.);
#478=ORIENTED_EDGE('',*,*,#477,.T.);
#480=ORIENTED_EDGE('',*,*,#479,.F.);
#482=ORIENTED_EDGE('',*,*,#481,.T.);
#484=ORIENTED_EDGE('',*,*,#483,.F.);
#485=EDGE_LOOP('',(#454,#456,#458,#460,#462,#464,#466,#468,#470,#472,#474,#476,
#478,#480,#482,#484));
#486=FACE_OUTER_BOUND('',#485,.F.);
#488=ORIENTED_EDGE('',*,*,#487,.T.);
#490=ORIENTED_EDGE('',*,*,#489,.T.);
#491=EDGE_LOOP('',(#488,#490));
#492=FACE_BOUND('',#491,.F.);
#494=ORIENTED_EDGE('',*,*,#493,.T.);
#496=ORIENTED_EDGE('',*,*,#495,.T.);
#497=EDGE_LOOP('',(#494,#496));
#498=FACE_BOUND('',#497,.F.);
#500=CARTESIAN_POINT('',(1.022E1,2.3E-1,0.E0));
#501=DIRECTION('',(0.E0,0.E0,1.E0));
#502=DIRECTION('',(1.E0,0.E0,0.E0));
#503=AXIS2_PLACEMENT_3D('',#500,#501,#502);
#504=CYLINDRICAL_SURFACE('',#503,1.6E0);
#505=ORIENTED_EDGE('',*,*,#493,.F.);
#507=ORIENTED_EDGE('',*,*,#506,.T.);
#509=ORIENTED_EDGE('',*,*,#508,.T.);
#511=ORIENTED_EDGE('',*,*,#510,.F.);
#512=EDGE_LOOP('',(#505,#507,#509,#511));
#513=FACE_OUTER_BOUND('',#512,.F.);
#515=CARTESIAN_POINT('',(1.022E1,2.3E-1,0.E0));
#516=DIRECTION('',(0.E0,0.E0,1.E0));
#517=DIRECTION('',(1.E0,0.E0,0.E0));
#518=AXIS2_PLACEMENT_3D('',#515,#516,#517);
#519=CYLINDRICAL_SURFACE('',#518,1.6E0);
#520=ORIENTED_EDGE('',*,*,#495,.F.);
#521=ORIENTED_EDGE('',*,*,#510,.T.);
#523=ORIENTED_EDGE('',*,*,#522,.T.);
#524=ORIENTED_EDGE('',*,*,#506,.F.);
#525=EDGE_LOOP('',(#520,#521,#523,#524));
#526=FACE_OUTER_BOUND('',#525,.F.);
#528=CARTESIAN_POINT('',(0.E0,0.E0,8.E0));
#529=DIRECTION('',(0.E0,0.E0,1.E0));
#530=DIRECTION('',(1.E0,0.E0,0.E0));
#531=AXIS2_PLACEMENT_3D('',#528,#529,#530);
#532=PLANE('',#531);
#534=ORIENTED_EDGE('',*,*,#533,.F.);
#536=ORIENTED_EDGE('',*,*,#535,.F.);
#538=ORIENTED_EDGE('',*,*,#537,.F.);
#540=ORIENTED_EDGE('',*,*,#539,.F.);
#541=EDGE_LOOP('',(#534,#536,#538,#540));
#542=FACE_OUTER_BOUND('',#541,.F.);
#543=ORIENTED_EDGE('',*,*,#508,.F.);
#544=ORIENTED_EDGE('',*,*,#522,.F.);
#545=EDGE_LOOP('',(#543,#544));
#546=FACE_BOUND('',#545,.F.);
#548=CARTESIAN_POINT('',(0.E0,0.E0,8.E0));
#549=DIRECTION('',(0.E0,0.E0,1.E0));
#550=DIRECTION('',(1.E0,0.E0,0.E0));
#551=AXIS2_PLACEMENT_3D('',#548,#549,#550);
#552=PLANE('',#551);
#554=ORIENTED_EDGE('',*,*,#553,.T.);
#556=ORIENTED_EDGE('',*,*,#555,.F.);
#558=ORIENTED_EDGE('',*,*,#557,.F.);
#560=ORIENTED_EDGE('',*,*,#559,.F.);
#561=EDGE_LOOP('',(#554,#556,#558,#560));
#562=FACE_OUTER_BOUND('',#561,.F.);
#564=ORIENTED_EDGE('',*,*,#563,.F.);
#566=ORIENTED_EDGE('',*,*,#565,.F.);
#567=EDGE_LOOP('',(#564,#566));
#568=FACE_BOUND('',#567,.F.);
#570=CARTESIAN_POINT('',(-1.018E1,2.3E-1,0.E0));
#571=DIRECTION('',(0.E0,0.E0,1.E0));
#572=DIRECTION('',(1.E0,0.E0,0.E0));
#573=AXIS2_PLACEMENT_3D('',#570,#571,#572);
#574=CYLINDRICAL_SURFACE('',#573,1.6E0);
#575=ORIENTED_EDGE('',*,*,#487,.F.);
#577=ORIENTED_EDGE('',*,*,#576,.T.);
#578=ORIENTED_EDGE('',*,*,#563,.T.);
#580=ORIENTED_EDGE('',*,*,#579,.F.);
#581=EDGE_LOOP('',(#575,#577,#578,#580));
#582=FACE_OUTER_BOUND('',#581,.F.);
#584=CARTESIAN_POINT('',(-1.018E1,2.3E-1,0.E0));
#585=DIRECTION('',(0.E0,0.E0,1.E0));
#586=DIRECTION('',(1.E0,0.E0,0.E0));
#587=AXIS2_PLACEMENT_3D('',#584,#585,#586);
#588=CYLINDRICAL_SURFACE('',#587,1.6E0);
#589=ORIENTED_EDGE('',*,*,#489,.F.);
#590=ORIENTED_EDGE('',*,*,#579,.T.);
#591=ORIENTED_EDGE('',*,*,#565,.T.);
#592=ORIENTED_EDGE('',*,*,#576,.F.);
#593=EDGE_LOOP('',(#589,#590,#591,#592));
#594=FACE_OUTER_BOUND('',#593,.F.);
#596=CARTESIAN_POINT('',(5.E0,1.065814103640E-14,9.E0));
#597=DIRECTION('',(7.071067811865E-1,0.E0,7.071067811865E-1));
#598=DIRECTION('',(-7.071067811865E-1,0.E0,7.071067811865E-1));
#599=AXIS2_PLACEMENT_3D('',#596,#597,#598);
#600=PLANE('',#599);
#602=ORIENTED_EDGE('',*,*,#601,.T.);
#604=ORIENTED_EDGE('',*,*,#603,.F.);
#606=ORIENTED_EDGE('',*,*,#605,.T.);
#607=ORIENTED_EDGE('',*,*,#533,.T.);
#608=EDGE_LOOP('',(#602,#604,#606,#607));
#609=FACE_OUTER_BOUND('',#608,.F.);
#611=CARTESIAN_POINT('',(-1.5E1,-7.5E0,0.E0));
#612=DIRECTION('',(0.E0,-1.E0,0.E0));
#613=DIRECTION('',(1.E0,0.E0,0.E0));
#614=AXIS2_PLACEMENT_3D('',#611,#612,#613);
#615=PLANE('',#614);
#616=ORIENTED_EDGE('',*,*,#601,.F.);
#617=ORIENTED_EDGE('',*,*,#539,.T.);
#619=ORIENTED_EDGE('',*,*,#618,.F.);
#621=ORIENTED_EDGE('',*,*,#620,.F.);
#622=ORIENTED_EDGE('',*,*,#469,.F.);
#624=ORIENTED_EDGE('',*,*,#623,.T.);
#626=ORIENTED_EDGE('',*,*,#625,.F.);
#627=ORIENTED_EDGE('',*,*,#555,.T.);
#629=ORIENTED_EDGE('',*,*,#628,.F.);
#631=ORIENTED_EDGE('',*,*,#630,.T.);
#632=EDGE_LOOP('',(#616,#617,#619,#621,#622,#624,#626,#627,#629,#631));
#633=FACE_OUTER_BOUND('',#632,.F.);
#635=CARTESIAN_POINT('',(1.3E1,-2.7054E1,6.E0));
#636=DIRECTION('',(0.E0,1.E0,0.E0));
#637=DIRECTION('',(0.E0,0.E0,1.E0));
#638=AXIS2_PLACEMENT_3D('',#635,#636,#637);
#639=CYLINDRICAL_SURFACE('',#638,2.E0);
#641=ORIENTED_EDGE('',*,*,#640,.T.);
#643=ORIENTED_EDGE('',*,*,#642,.F.);
#644=ORIENTED_EDGE('',*,*,#618,.T.);
#645=ORIENTED_EDGE('',*,*,#537,.T.);
#646=EDGE_LOOP('',(#641,#643,#644,#645));
#647=FACE_OUTER_BOUND('',#646,.F.);
#649=CARTESIAN_POINT('',(1.5E1,7.5E0,0.E0));
#650=DIRECTION('',(0.E0,1.E0,0.E0));
#651=DIRECTION('',(-1.E0,0.E0,0.E0));
#652=AXIS2_PLACEMENT_3D('',#649,#650,#651);
#653=PLANE('',#652);
#654=ORIENTED_EDGE('',*,*,#605,.F.);
#656=ORIENTED_EDGE('',*,*,#655,.F.);
#658=ORIENTED_EDGE('',*,*,#657,.F.);
#659=ORIENTED_EDGE('',*,*,#559,.T.);
#661=ORIENTED_EDGE('',*,*,#660,.F.);
#663=ORIENTED_EDGE('',*,*,#662,.F.);
#664=ORIENTED_EDGE('',*,*,#465,.F.);
#666=ORIENTED_EDGE('',*,*,#665,.T.);
#667=ORIENTED_EDGE('',*,*,#473,.F.);
#669=ORIENTED_EDGE('',*,*,#668,.T.);
#670=ORIENTED_EDGE('',*,*,#640,.F.);
#671=ORIENTED_EDGE('',*,*,#535,.T.);
#672=EDGE_LOOP('',(#654,#656,#658,#659,#661,#663,#664,#666,#667,#669,#670,
#671));
#673=FACE_OUTER_BOUND('',#672,.F.);
#675=CARTESIAN_POINT('',(-6.E0,7.5E0,1.E1));
#676=DIRECTION('',(0.E0,0.E0,1.E0));
#677=DIRECTION('',(1.E0,0.E0,0.E0));
#678=AXIS2_PLACEMENT_3D('',#675,#676,#677);
#679=PLANE('',#678);
#680=ORIENTED_EDGE('',*,*,#603,.T.);
#681=ORIENTED_EDGE('',*,*,#630,.F.);
#683=ORIENTED_EDGE('',*,*,#682,.F.);
#684=ORIENTED_EDGE('',*,*,#655,.T.);
#685=EDGE_LOOP('',(#680,#681,#683,#684));
#686=FACE_OUTER_BOUND('',#685,.F.);
#688=CARTESIAN_POINT('',(-5.E0,1.598721155460E-14,9.E0));
#689=DIRECTION('',(-7.071067811865E-1,0.E0,7.071067811865E-1));
#690=DIRECTION('',(-7.071067811865E-1,0.E0,-7.071067811865E-1));
#691=AXIS2_PLACEMENT_3D('',#688,#689,#690);
#692=PLANE('',#691);
#693=ORIENTED_EDGE('',*,*,#628,.T.);
#694=ORIENTED_EDGE('',*,*,#553,.F.);
#695=ORIENTED_EDGE('',*,*,#657,.T.);
#696=ORIENTED_EDGE('',*,*,#682,.T.);
#697=EDGE_LOOP('',(#693,#694,#695,#696));
#698=FACE_OUTER_BOUND('',#697,.F.);
#700=CARTESIAN_POINT('',(-1.3E1,2.7054E1,6.E0));
#701=DIRECTION('',(0.E0,-1.E0,0.E0));
#702=DIRECTION('',(0.E0,0.E0,1.E0));
#703=AXIS2_PLACEMENT_3D('',#700,#701,#702);
#704=CYLINDRICAL_SURFACE('',#703,2.E0);
#705=ORIENTED_EDGE('',*,*,#625,.T.);
#707=ORIENTED_EDGE('',*,*,#706,.F.);
#708=ORIENTED_EDGE('',*,*,#660,.T.);
#709=ORIENTED_EDGE('',*,*,#557,.T.);
#710=EDGE_LOOP('',(#705,#707,#708,#709));
#711=FACE_OUTER_BOUND('',#710,.F.);
#713=CARTESIAN_POINT('',(-1.5E1,7.5E0,0.E0));
#714=DIRECTION('',(-1.E0,0.E0,0.E0));
#715=DIRECTION('',(0.E0,-1.E0,0.E0));
#716=AXIS2_PLACEMENT_3D('',#713,#714,#715);
#717=PLANE('',#716);
#718=ORIENTED_EDGE('',*,*,#706,.T.);
#719=ORIENTED_EDGE('',*,*,#623,.F.);
#720=ORIENTED_EDGE('',*,*,#467,.F.);
#721=ORIENTED_EDGE('',*,*,#662,.T.);
#722=EDGE_LOOP('',(#718,#719,#720,#721));
#723=FACE_OUTER_BOUND('',#722,.F.);
#725=CARTESIAN_POINT('',(0.E0,7.5E0,-2.E-1));
#726=DIRECTION('',(0.E0,1.E0,0.E0));
#727=DIRECTION('',(-1.E0,0.E0,0.E0));
#728=AXIS2_PLACEMENT_3D('',#725,#726,#727);
#729=CYLINDRICAL_SURFACE('',#728,6.05E0);
#730=ORIENTED_EDGE('',*,*,#463,.F.);
#732=ORIENTED_EDGE('',*,*,#731,.T.);
#733=ORIENTED_EDGE('',*,*,#475,.T.);
#734=ORIENTED_EDGE('',*,*,#665,.F.);
#735=EDGE_LOOP('',(#730,#732,#733,#734));
#736=FACE_OUTER_BOUND('',#735,.F.);
#738=CARTESIAN_POINT('',(0.E0,3.E0,0.E0));
#739=DIRECTION('',(0.E0,1.E0,0.E0));
#740=DIRECTION('',(-1.E0,0.E0,0.E0));
#741=AXIS2_PLACEMENT_3D('',#738,#739,#740);
#742=PLANE('',#741);
#744=ORIENTED_EDGE('',*,*,#743,.T.);
#745=ORIENTED_EDGE('',*,*,#477,.F.);
#746=ORIENTED_EDGE('',*,*,#731,.F.);
#747=ORIENTED_EDGE('',*,*,#461,.F.);
#748=EDGE_LOOP('',(#744,#745,#746,#747));
#749=FACE_OUTER_BOUND('',#748,.F.);
#751=CARTESIAN_POINT('',(0.E0,7.5E0,-2.E-1));
#752=DIRECTION('',(0.E0,1.E0,0.E0));
#753=DIRECTION('',(-1.E0,0.E0,0.E0));
#754=AXIS2_PLACEMENT_3D('',#751,#752,#753);
#755=CYLINDRICAL_SURFACE('',#754,4.E0);
#756=ORIENTED_EDGE('',*,*,#459,.F.);
#758=ORIENTED_EDGE('',*,*,#757,.T.);
#759=ORIENTED_EDGE('',*,*,#479,.T.);
#760=ORIENTED_EDGE('',*,*,#743,.F.);
#761=EDGE_LOOP('',(#756,#758,#759,#760));
#762=FACE_OUTER_BOUND('',#761,.F.);
#764=CARTESIAN_POINT('',(0.E0,-5.E-1,0.E0));
#765=DIRECTION('',(0.E0,1.E0,0.E0));
#766=DIRECTION('',(-1.E0,0.E0,0.E0));
#767=AXIS2_PLACEMENT_3D('',#764,#765,#766);
#768=PLANE('',#767);
#770=ORIENTED_EDGE('',*,*,#769,.F.);
#772=ORIENTED_EDGE('',*,*,#771,.F.);
#773=ORIENTED_EDGE('',*,*,#481,.F.);
#774=ORIENTED_EDGE('',*,*,#757,.F.);
#775=ORIENTED_EDGE('',*,*,#457,.F.);
#777=ORIENTED_EDGE('',*,*,#776,.F.);
#779=ORIENTED_EDGE('',*,*,#778,.F.);
#781=ORIENTED_EDGE('',*,*,#780,.F.);
#782=EDGE_LOOP('',(#770,#772,#773,#774,#775,#777,#779,#781));
#783=FACE_OUTER_BOUND('',#782,.F.);
#785=CARTESIAN_POINT('',(3.592504505944E0,-1.45E0,-7.321882313402E-1));
#786=DIRECTION('',(6.839237052012E-1,0.E0,-7.295535384493E-1));
#787=DIRECTION('',(7.295535384493E-1,0.E0,6.839237052012E-1));
#788=AXIS2_PLACEMENT_3D('',#785,#786,#787);
#789=PLANE('',#788);
#791=ORIENTED_EDGE('',*,*,#790,.F.);
#793=ORIENTED_EDGE('',*,*,#792,.T.);
#795=ORIENTED_EDGE('',*,*,#794,.F.);
#796=ORIENTED_EDGE('',*,*,#769,.T.);
#798=ORIENTED_EDGE('',*,*,#797,.T.);
#799=EDGE_LOOP('',(#791,#793,#795,#796,#798));
#800=FACE_OUTER_BOUND('',#799,.F.);
#802=CARTESIAN_POINT('',(0.E0,-2.3E0,-9.128392120618E-1));
#803=DIRECTION('',(0.E0,-7.071067811865E-1,-7.071067811865E-1));
#804=DIRECTION('',(0.E0,7.071067811865E-1,-7.071067811865E-1));
#805=AXIS2_PLACEMENT_3D('',#802,#803,#804);
#806=PLANE('',#805);
#807=ORIENTED_EDGE('',*,*,#790,.T.);
#809=ORIENTED_EDGE('',*,*,#808,.F.);
#811=ORIENTED_EDGE('',*,*,#810,.T.);
#813=ORIENTED_EDGE('',*,*,#812,.T.);
#814=EDGE_LOOP('',(#807,#809,#811,#813));
#815=FACE_OUTER_BOUND('',#814,.F.);
#817=CARTESIAN_POINT('',(3.814353472783E0,-5.E-1,-1.012839212062E0));
#818=DIRECTION('',(0.E0,0.E0,-1.E0));
#819=DIRECTION('',(-1.E0,0.E0,0.E0));
#820=AXIS2_PLACEMENT_3D('',#817,#818,#819);
#821=PLANE('',#820);
#822=ORIENTED_EDGE('',*,*,#808,.T.);
#823=ORIENTED_EDGE('',*,*,#797,.F.);
#824=ORIENTED_EDGE('',*,*,#780,.T.);
#826=ORIENTED_EDGE('',*,*,#825,.T.);
#827=EDGE_LOOP('',(#822,#823,#824,#826));
#828=FACE_OUTER_BOUND('',#827,.F.);
#830=CARTESIAN_POINT('',(-3.592504505944E0,-1.45E0,-7.321882313402E-1));
#831=DIRECTION('',(-6.839237052012E-1,0.E0,-7.295535384493E-1));
#832=DIRECTION('',(7.295535384493E-1,0.E0,-6.839237052012E-1));
#833=AXIS2_PLACEMENT_3D('',#830,#831,#832);
#834=PLANE('',#833);
#835=ORIENTED_EDGE('',*,*,#810,.F.);
#836=ORIENTED_EDGE('',*,*,#825,.F.);
#837=ORIENTED_EDGE('',*,*,#778,.T.);
#839=ORIENTED_EDGE('',*,*,#838,.T.);
#841=ORIENTED_EDGE('',*,*,#840,.T.);
#842=EDGE_LOOP('',(#835,#836,#837,#839,#841));
#843=FACE_OUTER_BOUND('',#842,.F.);
#845=CARTESIAN_POINT('',(0.E0,-5.E-1,-2.E-1));
#846=DIRECTION('',(0.E0,1.E0,0.E0));
#847=DIRECTION('',(1.E0,0.E0,0.E0));
#848=AXIS2_PLACEMENT_3D('',#845,#846,#847);
#849=CYLINDRICAL_SURFACE('',#848,3.9E0);
#850=ORIENTED_EDGE('',*,*,#794,.T.);
#852=ORIENTED_EDGE('',*,*,#851,.F.);
#853=ORIENTED_EDGE('',*,*,#483,.T.);
#854=ORIENTED_EDGE('',*,*,#771,.T.);
#855=EDGE_LOOP('',(#850,#852,#853,#854));
#856=FACE_OUTER_BOUND('',#855,.F.);
#858=CARTESIAN_POINT('',(0.E0,-5.E-1,-2.E-1));
#859=DIRECTION('',(0.E0,1.E0,0.E0));
#860=DIRECTION('',(1.E0,0.E0,0.E0));
#861=AXIS2_PLACEMENT_3D('',#858,#859,#860);
#862=CYLINDRICAL_SURFACE('',#861,3.9E0);
#863=ORIENTED_EDGE('',*,*,#838,.F.);
#864=ORIENTED_EDGE('',*,*,#776,.T.);
#865=ORIENTED_EDGE('',*,*,#455,.F.);
#867=ORIENTED_EDGE('',*,*,#866,.F.);
#868=EDGE_LOOP('',(#863,#864,#865,#867));
#869=FACE_OUTER_BOUND('',#868,.F.);
#871=CARTESIAN_POINT('',(0.E0,-2.4E0,0.E0));
#872=DIRECTION('',(0.E0,1.E0,0.E0));
#873=DIRECTION('',(1.E0,0.E0,0.E0));
#874=AXIS2_PLACEMENT_3D('',#871,#872,#873);
#875=PLANE('',#874);
#876=ORIENTED_EDGE('',*,*,#812,.F.);
#877=ORIENTED_EDGE('',*,*,#840,.F.);
#878=ORIENTED_EDGE('',*,*,#866,.T.);
#879=ORIENTED_EDGE('',*,*,#453,.T.);
#880=ORIENTED_EDGE('',*,*,#851,.T.);
#881=ORIENTED_EDGE('',*,*,#792,.F.);
#882=EDGE_LOOP('',(#876,#877,#878,#879,#880,#881));
#883=FACE_OUTER_BOUND('',#882,.F.);
#885=CARTESIAN_POINT('',(1.5E1,-7.5E0,0.E0));
#886=DIRECTION('',(1.E0,0.E0,0.E0));
#887=DIRECTION('',(0.E0,1.E0,0.E0));
#888=AXIS2_PLACEMENT_3D('',#885,#886,#887);
#889=PLANE('',#888);
#890=ORIENTED_EDGE('',*,*,#642,.T.);
#891=ORIENTED_EDGE('',*,*,#668,.F.);
#892=ORIENTED_EDGE('',*,*,#471,.F.);
#893=ORIENTED_EDGE('',*,*,#620,.T.);
#894=EDGE_LOOP('',(#890,#891,#892,#893));
#895=FACE_OUTER_BOUND('',#894,.F.);
#897=CLOSED_SHELL('',(#499,#514,#527,#547,#569,#583,#595,#610,#634,#648,#674,
#687,#699,#712,#724,#737,#750,#763,#784,#801,#816,#829,#844,#857,#870,#884,
#896));
#898=MANIFOLD_SOLID_BREP('',#897);
#901=PLANE_ANGLE_MEASURE_WITH_UNIT(PLANE_ANGLE_MEASURE(1.745329251994E-2),#900);
#902=(CONVERSION_BASED_UNIT('DEGREE',#901)NAMED_UNIT(*)PLANE_ANGLE_UNIT());
#904=UNCERTAINTY_MEASURE_WITH_UNIT(LENGTH_MEASURE(3.714049417527E-3),#899,
'distance_accuracy_value',
'Maximum model space distance between geometric entities at asserted connectivities');
#906=CARTESIAN_POINT('',(0.E0,0.E0,0.E0));
#907=DIRECTION('',(0.E0,0.E0,1.E0));
#908=DIRECTION('',(1.E0,0.E0,0.E0));
#911=APPLICATION_CONTEXT('automotive_design');
#912=APPLICATION_PROTOCOL_DEFINITION('international standard',
'automotive_design',2001,#911);
#913=PRODUCT_DEFINITION_CONTEXT('part definition',#911,'design');
#914=PRODUCT_CONTEXT('',#911,'mechanical');
#915=PRODUCT('AXISCOVER','AXISCOVER','NOT SPECIFIED',(#914));
#916=PRODUCT_DEFINITION_FORMATION('2','LAST_VERSION',#915);
#924=DERIVED_UNIT_ELEMENT(#923,2.E0);
#925=DERIVED_UNIT((#924));
#926=MEASURE_REPRESENTATION_ITEM('surface area measure',AREA_MEASURE(
1.845114917976E3),#925);
#931=DERIVED_UNIT_ELEMENT(#930,3.E0);
#932=DERIVED_UNIT((#931));
#933=MEASURE_REPRESENTATION_ITEM('volume measure',VOLUME_MEASURE(
3.429577358168E3),#932);
#937=CARTESIAN_POINT('centre point',(-7.508038148796E-4,-4.240196512701E-1,
4.553872017554E0));
#942=DERIVED_UNIT_ELEMENT(#941,2.E0);
#943=DERIVED_UNIT((#942));
#944=MEASURE_REPRESENTATION_ITEM('surface area measure',AREA_MEASURE(
1.845114917976E3),#943);
#949=DERIVED_UNIT_ELEMENT(#948,3.E0);
#950=DERIVED_UNIT((#949));
#951=MEASURE_REPRESENTATION_ITEM('volume measure',VOLUME_MEASURE(
3.429577358168E3),#950);
#955=CARTESIAN_POINT('centre point',(-7.508038148796E-4,-4.240196512701E-1,
4.553872017554E0));
#1=DRAUGHTING_PRE_DEFINED_COLOUR('green');
#2=DRAUGHTING_PRE_DEFINED_COLOUR('green');
#3=DRAUGHTING_PRE_DEFINED_COLOUR('green');
#4=COLOUR_RGB('',1.1E-2,1.2E-2,1.E0);
#5=COLOUR_RGB('',1.1E-2,1.2E-2,1.E0);
#6=COLOUR_RGB('',4.1E-1,2.61589E-1,1.12848E-1);
#7=COLOUR_RGB('',5.04854E-1,1.5455E-2,1.5455E-2);
#8=COLOUR_RGB('',6.35294E-1,6.86275E-1,7.4902E-1);
#9=COLOUR_RGB('',6.40777E-1,6.40777E-1,6.40777E-1);
#10=COLOUR_RGB('',6.66667E-1,6.66667E-1,6.66667E-1);
#11=COLOUR_RGB('',6.69062E-1,6.69903E-1,6.55217E-1);
#12=COLOUR_RGB('',7.45098E-1,3.92157E-1,2.94118E-1);
#13=COLOUR_RGB('',8.03922E-1,5.88235E-1,1.96078E-1);
#14=COLOUR_RGB('',9.21569E-1,7.05882E-1,4.70588E-1);
#15=DRAUGHTING_PRE_DEFINED_COLOUR('red');
#16=DRAUGHTING_PRE_DEFINED_COLOUR('red');
#17=DRAUGHTING_PRE_DEFINED_COLOUR('red');
#18=DRAUGHTING_PRE_DEFINED_COLOUR('red');
#19=DRAUGHTING_PRE_DEFINED_COLOUR('red');
#20=DRAUGHTING_PRE_DEFINED_COLOUR('red');
#21=DRAUGHTING_PRE_DEFINED_COLOUR('red');
#22=DRAUGHTING_PRE_DEFINED_COLOUR('yellow');
#23=DRAUGHTING_PRE_DEFINED_COLOUR('yellow');
#24=COLOUR_RGB('',1.E0,1.E0,5.3E-1);
#25=COLOUR_RGB('',1.E0,1.E0,9.49E-1);
#26=COLOUR_RGB('',1.E0,1.E0,9.49E-1);
#27=DRAUGHTING_PRE_DEFINED_COLOUR('white');
#32=CIRCLE('',#31,1.6E0);
#37=CIRCLE('',#36,1.6E0);
#42=CIRCLE('',#41,1.6E0);
#47=CIRCLE('',#46,1.6E0);
#124=CIRCLE('',#123,1.6E0);
#129=CIRCLE('',#128,1.6E0);
#134=CIRCLE('',#133,1.6E0);
#139=CIRCLE('',#138,1.6E0);
#188=CIRCLE('',#187,2.E0);
#197=CIRCLE('',#196,2.E0);
#222=CIRCLE('',#221,2.E0);
#227=CIRCLE('',#226,6.05E0);
#236=CIRCLE('',#235,2.E0);
#257=CIRCLE('',#256,4.E0);
#262=CIRCLE('',#261,6.05E0);
#271=CIRCLE('',#270,3.9E0);
#276=CIRCLE('',#275,4.E0);
#281=CIRCLE('',#280,3.9E0);
#330=CIRCLE('',#329,3.9E0);
#335=CIRCLE('',#334,3.9E0);
#453=EDGE_CURVE('',#406,#407,#51,.T.);
#455=EDGE_CURVE('',#406,#409,#55,.T.);
#457=EDGE_CURVE('',#409,#382,#59,.T.);
#459=EDGE_CURVE('',#382,#383,#63,.T.);
#461=EDGE_CURVE('',#383,#374,#67,.T.);
#463=EDGE_CURVE('',#374,#375,#71,.T.);
#465=EDGE_CURVE('',#375,#358,#75,.T.);
#467=EDGE_CURVE('',#358,#359,#79,.T.);
#469=EDGE_CURVE('',#359,#361,#83,.T.);
#471=EDGE_CURVE('',#361,#363,#87,.T.);
#473=EDGE_CURVE('',#363,#379,#91,.T.);
#475=EDGE_CURVE('',#378,#379,#95,.T.);
#477=EDGE_CURVE('',#378,#387,#99,.T.);
#479=EDGE_CURVE('',#386,#387,#103,.T.);
#481=EDGE_CURVE('',#386,#411,#107,.T.);
#483=EDGE_CURVE('',#407,#411,#111,.T.);
#487=EDGE_CURVE('',#354,#355,#42,.T.);
#489=EDGE_CURVE('',#355,#354,#47,.T.);
#493=EDGE_CURVE('',#350,#351,#32,.T.);
#495=EDGE_CURVE('',#351,#350,#37,.T.);
#499=ADVANCED_FACE('',(#486,#492,#498),#452,.F.);
#506=EDGE_CURVE('',#350,#366,#115,.T.);
#508=EDGE_CURVE('',#366,#367,#124,.T.);
#510=EDGE_CURVE('',#351,#367,#119,.T.);
#514=ADVANCED_FACE('',(#513),#504,.F.);
#522=EDGE_CURVE('',#367,#366,#129,.T.);
#527=ADVANCED_FACE('',(#526),#519,.F.);
#533=EDGE_CURVE('',#439,#434,#143,.T.);
#535=EDGE_CURVE('',#398,#439,#147,.T.);
#537=EDGE_CURVE('',#403,#398,#151,.T.);
#539=EDGE_CURVE('',#434,#403,#155,.T.);
#547=ADVANCED_FACE('',(#542,#546),#532,.T.);
#553=EDGE_CURVE('',#445,#443,#159,.T.);
#555=EDGE_CURVE('',#390,#443,#163,.T.);
#557=EDGE_CURVE('',#395,#390,#167,.T.);
#559=EDGE_CURVE('',#445,#395,#171,.T.);
#563=EDGE_CURVE('',#370,#371,#134,.T.);
#565=EDGE_CURVE('',#371,#370,#139,.T.);
#569=ADVANCED_FACE('',(#562,#568),#552,.T.);
#576=EDGE_CURVE('',#354,#370,#175,.T.);
#579=EDGE_CURVE('',#355,#371,#179,.T.);
#583=ADVANCED_FACE('',(#582),#574,.F.);
#595=ADVANCED_FACE('',(#594),#588,.F.);
#601=EDGE_CURVE('',#434,#435,#183,.T.);
#603=EDGE_CURVE('',#437,#435,#240,.T.);
#605=EDGE_CURVE('',#437,#439,#209,.T.);
#610=ADVANCED_FACE('',(#609),#600,.T.);
#618=EDGE_CURVE('',#401,#403,#188,.T.);
#620=EDGE_CURVE('',#361,#401,#347,.T.);
#623=EDGE_CURVE('',#359,#391,#192,.T.);
#625=EDGE_CURVE('',#390,#391,#197,.T.);
#628=EDGE_CURVE('',#442,#443,#201,.T.);
#630=EDGE_CURVE('',#442,#435,#205,.T.);
#634=ADVANCED_FACE('',(#633),#615,.T.);
#640=EDGE_CURVE('',#398,#399,#236,.T.);
#642=EDGE_CURVE('',#401,#399,#343,.T.);
#648=ADVANCED_FACE('',(#647),#639,.T.);
#655=EDGE_CURVE('',#447,#437,#213,.T.);
#657=EDGE_CURVE('',#445,#447,#217,.T.);
#660=EDGE_CURVE('',#393,#395,#222,.T.);
#662=EDGE_CURVE('',#358,#393,#252,.T.);
#665=EDGE_CURVE('',#375,#379,#227,.T.);
#668=EDGE_CURVE('',#363,#399,#231,.T.);
#674=ADVANCED_FACE('',(#673),#653,.T.);
#682=EDGE_CURVE('',#447,#442,#244,.T.);
#687=ADVANCED_FACE('',(#686),#679,.T.);
#699=ADVANCED_FACE('',(#698),#692,.T.);
#706=EDGE_CURVE('',#393,#391,#248,.T.);
#712=ADVANCED_FACE('',(#711),#704,.T.);
#724=ADVANCED_FACE('',(#723),#717,.T.);
#731=EDGE_CURVE('',#374,#378,#262,.T.);
#737=ADVANCED_FACE('',(#736),#729,.F.);
#743=EDGE_CURVE('',#383,#387,#257,.T.);
#750=ADVANCED_FACE('',(#749),#742,.T.);
#757=EDGE_CURVE('',#382,#386,#276,.T.);
#763=ADVANCED_FACE('',(#762),#755,.F.);
#769=EDGE_CURVE('',#414,#417,#266,.T.);
#771=EDGE_CURVE('',#411,#414,#271,.T.);
#776=EDGE_CURVE('',#421,#409,#281,.T.);
#778=EDGE_CURVE('',#420,#421,#285,.T.);
#780=EDGE_CURVE('',#417,#420,#289,.T.);
#784=ADVANCED_FACE('',(#783),#768,.T.);
#790=EDGE_CURVE('',#426,#427,#293,.T.);
#792=EDGE_CURVE('',#426,#415,#339,.T.);
#794=EDGE_CURVE('',#414,#415,#313,.T.);
#797=EDGE_CURVE('',#417,#427,#301,.T.);
#801=ADVANCED_FACE('',(#800),#789,.T.);
#808=EDGE_CURVE('',#429,#427,#297,.T.);
#810=EDGE_CURVE('',#429,#431,#309,.T.);
#812=EDGE_CURVE('',#431,#426,#321,.T.);
#816=ADVANCED_FACE('',(#815),#806,.T.);
#825=EDGE_CURVE('',#420,#429,#305,.T.);
#829=ADVANCED_FACE('',(#828),#821,.T.);
#838=EDGE_CURVE('',#421,#423,#317,.T.);
#840=EDGE_CURVE('',#423,#431,#325,.T.);
#844=ADVANCED_FACE('',(#843),#834,.T.);
#851=EDGE_CURVE('',#407,#415,#335,.T.);
#857=ADVANCED_FACE('',(#856),#849,.T.);
#866=EDGE_CURVE('',#423,#406,#330,.T.);
#870=ADVANCED_FACE('',(#869),#862,.T.);
#884=ADVANCED_FACE('',(#883),#875,.F.);
#896=ADVANCED_FACE('',(#895),#889,.T.);
#899=(LENGTH_UNIT()NAMED_UNIT(*)SI_UNIT(.MILLI.,.METRE.));
#900=(NAMED_UNIT(*)PLANE_ANGLE_UNIT()SI_UNIT($,.RADIAN.));
#903=(NAMED_UNIT(*)SI_UNIT($,.STERADIAN.)SOLID_ANGLE_UNIT());
#905=(GEOMETRIC_REPRESENTATION_CONTEXT(3)GLOBAL_UNCERTAINTY_ASSIGNED_CONTEXT((
#904))GLOBAL_UNIT_ASSIGNED_CONTEXT((#899,#902,#903))REPRESENTATION_CONTEXT
('ID1','external'));
#909=AXIS2_PLACEMENT_3D('',#906,#907,#908);
#910=ADVANCED_BREP_SHAPE_REPRESENTATION('',(#909,#898),#905);
#917=PRODUCT_DEFINITION('part definition','',#916,#913);
#918=PRODUCT_DEFINITION_SHAPE('','SHAPE FOR AXISCOVER.',#917);
#919=SHAPE_ASPECT('','solid data associated with AXISCOVER',#918,.F.);
#920=PROPERTY_DEFINITION('',
'shape for solid data with which properties are associated',#919);
#921=SHAPE_REPRESENTATION('',(#898),#905);
#922=SHAPE_DEFINITION_REPRESENTATION(#920,#921);
#923=(LENGTH_UNIT()NAMED_UNIT(*)SI_UNIT(.MILLI.,.METRE.));
#927=PROPERTY_DEFINITION('geometric validation property','area of AXISCOVER',
#919);
#928=REPRESENTATION('surface area',(#926),#905);
#929=PROPERTY_DEFINITION_REPRESENTATION(#927,#928);
#930=(LENGTH_UNIT()NAMED_UNIT(*)SI_UNIT(.MILLI.,.METRE.));
#934=PROPERTY_DEFINITION('geometric validation property','volume of AXISCOVER',
#919);
#935=REPRESENTATION('volume',(#933),#905);
#936=PROPERTY_DEFINITION_REPRESENTATION(#934,#935);
#938=PROPERTY_DEFINITION('geometric validation property',
'centroid of AXISCOVER',#919);
#939=REPRESENTATION('centroid',(#937),#905);
#940=PROPERTY_DEFINITION_REPRESENTATION(#938,#939);
#941=(LENGTH_UNIT()NAMED_UNIT(*)SI_UNIT(.MILLI.,.METRE.));
#945=PROPERTY_DEFINITION('geometric validation property','area of AXISCOVER',
#918);
#946=REPRESENTATION('surface area',(#944),#905);
#947=PROPERTY_DEFINITION_REPRESENTATION(#945,#946);
#948=(LENGTH_UNIT()NAMED_UNIT(*)SI_UNIT(.MILLI.,.METRE.));
#952=PROPERTY_DEFINITION('geometric validation property','volume of AXISCOVER',
#918);
#953=REPRESENTATION('volume',(#951),#905);
#954=PROPERTY_DEFINITION_REPRESENTATION(#952,#953);
#956=PROPERTY_DEFINITION('geometric validation property',
'centroid of AXISCOVER',#918);
#957=REPRESENTATION('centroid',(#955),#905);
#958=PROPERTY_DEFINITION_REPRESENTATION(#956,#957);
#959=SHAPE_DEFINITION_REPRESENTATION(#918,#910);
#960=PRODUCT_RELATED_PRODUCT_CATEGORY('part','',(#915));
ENDSEC;
END-ISO-10303-21;
