ISO-10303-21;
HEADER;
FILE_DESCRIPTION((''),'2;1');
FILE_NAME('BEAR4-2','2026-08-09T09:56:41',('gram2'),(''),
'CREO PARAMETRIC BY PTC INC, 2016510','CREO PARAMETRIC BY PTC INC, 2016510','');
FILE_SCHEMA(('AUTOMOTIVE_DESIGN { 1 0 10303 214 1 1 1 1 }'));
ENDSEC;
DATA;
#28=CARTESIAN_POINT('',(0.E0,0.E0,0.E0));
#29=DIRECTION('',(0.E0,0.E0,-1.E0));
#30=DIRECTION('',(1.E0,0.E0,0.E0));
#31=AXIS2_PLACEMENT_3D('',#28,#29,#30);
#33=CARTESIAN_POINT('',(0.E0,0.E0,0.E0));
#34=DIRECTION('',(0.E0,0.E0,-1.E0));
#35=DIRECTION('',(-1.E0,0.E0,0.E0));
#36=AXIS2_PLACEMENT_3D('',#33,#34,#35);
#38=CARTESIAN_POINT('',(0.E0,0.E0,0.E0));
#39=DIRECTION('',(0.E0,0.E0,1.E0));
#40=DIRECTION('',(1.E0,0.E0,0.E0));
#41=AXIS2_PLACEMENT_3D('',#38,#39,#40);
#43=CARTESIAN_POINT('',(0.E0,0.E0,0.E0));
#44=DIRECTION('',(0.E0,0.E0,1.E0));
#45=DIRECTION('',(-1.E0,0.E0,0.E0));
#46=AXIS2_PLACEMENT_3D('',#43,#44,#45);
#48=CARTESIAN_POINT('',(0.E0,1.259316406928E1,0.E0));
#49=DIRECTION('',(0.E0,0.E0,1.E0));
#50=DIRECTION('',(1.E0,0.E0,0.E0));
#51=AXIS2_PLACEMENT_3D('',#48,#49,#50);
#53=CARTESIAN_POINT('',(0.E0,1.259316406928E1,0.E0));
#54=DIRECTION('',(0.E0,0.E0,1.E0));
#55=DIRECTION('',(-1.E0,0.E0,0.E0));
#56=AXIS2_PLACEMENT_3D('',#53,#54,#55);
#58=CARTESIAN_POINT('',(0.E0,-1.259316406928E1,0.E0));
#59=DIRECTION('',(0.E0,0.E0,1.E0));
#60=DIRECTION('',(1.E0,0.E0,0.E0));
#61=AXIS2_PLACEMENT_3D('',#58,#59,#60);
#63=CARTESIAN_POINT('',(0.E0,-1.259316406928E1,0.E0));
#64=DIRECTION('',(0.E0,0.E0,1.E0));
#65=DIRECTION('',(-1.E0,0.E0,0.E0));
#66=AXIS2_PLACEMENT_3D('',#63,#64,#65);
#68=CARTESIAN_POINT('',(-1.090599999802E1,6.296582034639E0,0.E0));
#69=DIRECTION('',(0.E0,0.E0,1.E0));
#70=DIRECTION('',(1.E0,0.E0,0.E0));
#71=AXIS2_PLACEMENT_3D('',#68,#69,#70);
#73=CARTESIAN_POINT('',(-1.090599999802E1,6.296582034639E0,0.E0));
#74=DIRECTION('',(0.E0,0.E0,1.E0));
#75=DIRECTION('',(-1.E0,0.E0,0.E0));
#76=AXIS2_PLACEMENT_3D('',#73,#74,#75);
#78=CARTESIAN_POINT('',(1.090599999802E1,6.296582034639E0,0.E0));
#79=DIRECTION('',(0.E0,0.E0,1.E0));
#80=DIRECTION('',(1.E0,0.E0,0.E0));
#81=AXIS2_PLACEMENT_3D('',#78,#79,#80);
#83=CARTESIAN_POINT('',(1.090599999802E1,6.296582034639E0,0.E0));
#84=DIRECTION('',(0.E0,0.E0,1.E0));
#85=DIRECTION('',(-1.E0,0.E0,0.E0));
#86=AXIS2_PLACEMENT_3D('',#83,#84,#85);
#88=CARTESIAN_POINT('',(1.090599999802E1,-6.296582034639E0,0.E0));
#89=DIRECTION('',(0.E0,0.E0,1.E0));
#90=DIRECTION('',(1.E0,0.E0,0.E0));
#91=AXIS2_PLACEMENT_3D('',#88,#89,#90);
#93=CARTESIAN_POINT('',(1.090599999802E1,-6.296582034639E0,0.E0));
#94=DIRECTION('',(0.E0,0.E0,1.E0));
#95=DIRECTION('',(-1.E0,0.E0,0.E0));
#96=AXIS2_PLACEMENT_3D('',#93,#94,#95);
#98=CARTESIAN_POINT('',(-1.090599999802E1,-6.296582034639E0,0.E0));
#99=DIRECTION('',(0.E0,0.E0,1.E0));
#100=DIRECTION('',(1.E0,0.E0,0.E0));
#101=AXIS2_PLACEMENT_3D('',#98,#99,#100);
#103=CARTESIAN_POINT('',(-1.090599999802E1,-6.296582034639E0,0.E0));
#104=DIRECTION('',(0.E0,0.E0,1.E0));
#105=DIRECTION('',(-1.E0,0.E0,0.E0));
#106=AXIS2_PLACEMENT_3D('',#103,#104,#105);
#108=CARTESIAN_POINT('',(0.E0,0.E0,4.E0));
#109=DIRECTION('',(0.E0,0.E0,1.E0));
#110=DIRECTION('',(-1.E0,0.E0,0.E0));
#111=AXIS2_PLACEMENT_3D('',#108,#109,#110);
#113=DIRECTION('',(0.E0,0.E0,1.E0));
#114=VECTOR('',#113,4.E0);
#115=CARTESIAN_POINT('',(6.9E0,0.E0,0.E0));
#116=LINE('',#115,#114);
#117=CARTESIAN_POINT('',(0.E0,0.E0,4.E0));
#118=DIRECTION('',(0.E0,0.E0,1.E0));
#119=DIRECTION('',(7.582451216891E-1,6.519695816789E-1,0.E0));
#120=AXIS2_PLACEMENT_3D('',#117,#118,#119);
#122=CARTESIAN_POINT('',(0.E0,0.E0,4.E0));
#123=DIRECTION('',(0.E0,0.E0,1.E0));
#124=DIRECTION('',(1.854996593841E-1,-9.826443285179E-1,0.E0));
#125=AXIS2_PLACEMENT_3D('',#122,#123,#124);
#127=CARTESIAN_POINT('',(0.E0,0.E0,4.E0));
#128=DIRECTION('',(0.E0,0.E0,1.E0));
#129=DIRECTION('',(-7.582451216891E-1,-6.519695816789E-1,0.E0));
#130=AXIS2_PLACEMENT_3D('',#127,#128,#129);
#132=CARTESIAN_POINT('',(0.E0,0.E0,4.E0));
#133=DIRECTION('',(0.E0,0.E0,1.E0));
#134=DIRECTION('',(-1.854996593841E-1,9.826443285179E-1,0.E0));
#135=AXIS2_PLACEMENT_3D('',#132,#133,#134);
#137=CARTESIAN_POINT('',(0.E0,0.E0,4.E0));
#138=DIRECTION('',(0.E0,0.E0,1.E0));
#139=DIRECTION('',(1.E0,0.E0,0.E0));
#140=AXIS2_PLACEMENT_3D('',#137,#138,#139);
#142=DIRECTION('',(0.E0,0.E0,1.E0));
#143=VECTOR('',#142,4.E0);
#144=CARTESIAN_POINT('',(-6.9E0,0.E0,0.E0));
#145=LINE('',#144,#143);
#146=CARTESIAN_POINT('',(0.E0,1.259316406928E1,4.E0));
#147=DIRECTION('',(0.E0,0.E0,1.E0));
#148=DIRECTION('',(-1.E0,0.E0,0.E0));
#149=AXIS2_PLACEMENT_3D('',#146,#147,#148);
#151=DIRECTION('',(0.E0,0.E0,-1.E0));
#152=VECTOR('',#151,4.E0);
#153=CARTESIAN_POINT('',(-2.845864763856E0,1.259316406928E1,4.E0));
#154=LINE('',#153,#152);
#155=CARTESIAN_POINT('',(0.E0,1.259316406928E1,4.E0));
#156=DIRECTION('',(0.E0,0.E0,1.E0));
#157=DIRECTION('',(1.E0,0.E0,0.E0));
#158=AXIS2_PLACEMENT_3D('',#155,#156,#157);
#160=DIRECTION('',(0.E0,0.E0,-1.E0));
#161=VECTOR('',#160,4.E0);
#162=CARTESIAN_POINT('',(2.845864763856E0,1.259316406928E1,4.E0));
#163=LINE('',#162,#161);
#164=CARTESIAN_POINT('',(0.E0,1.259316406928E1,4.E0));
#165=DIRECTION('',(0.E0,0.E0,1.E0));
#166=DIRECTION('',(-9.125504712525E-1,4.089641028463E-1,0.E0));
#167=AXIS2_PLACEMENT_3D('',#164,#165,#166);
#169=DIRECTION('',(0.E0,0.E0,1.E0));
#170=VECTOR('',#169,8.E0);
#171=CARTESIAN_POINT('',(-2.596995231377E0,1.375702059925E1,4.E0));
#172=LINE('',#171,#170);
#173=DIRECTION('',(0.E0,0.E0,1.E0));
#174=VECTOR('',#173,8.E0);
#175=CARTESIAN_POINT('',(2.596995231377E0,1.375702059925E1,4.E0));
#176=LINE('',#175,#174);
#177=CARTESIAN_POINT('',(0.E0,0.E0,1.2E1));
#178=DIRECTION('',(0.E0,0.E0,-1.E0));
#179=DIRECTION('',(9.437447810732E-1,3.306747468390E-1,0.E0));
#180=AXIS2_PLACEMENT_3D('',#177,#178,#179);
#182=CARTESIAN_POINT('',(0.E0,0.E0,4.E0));
#183=DIRECTION('',(0.E0,0.E0,1.E0));
#184=DIRECTION('',(9.437447810732E-1,-3.306747468390E-1,0.E0));
#185=AXIS2_PLACEMENT_3D('',#182,#183,#184);
#187=CARTESIAN_POINT('',(0.E0,0.E0,4.E0));
#188=DIRECTION('',(0.E0,0.E0,1.E0));
#189=DIRECTION('',(-9.437447810732E-1,3.306747468390E-1,0.E0));
#190=AXIS2_PLACEMENT_3D('',#187,#188,#189);
#192=CARTESIAN_POINT('',(0.E0,0.E0,1.2E1));
#193=DIRECTION('',(0.E0,0.E0,-1.E0));
#194=DIRECTION('',(-9.437447810732E-1,-3.306747468390E-1,0.E0));
#195=AXIS2_PLACEMENT_3D('',#192,#193,#194);
#197=CARTESIAN_POINT('',(0.E0,0.E0,1.2E1));
#198=DIRECTION('',(0.E0,0.E0,1.E0));
#199=DIRECTION('',(1.E0,0.E0,0.E0));
#200=AXIS2_PLACEMENT_3D('',#197,#198,#199);
#202=CARTESIAN_POINT('',(0.E0,0.E0,1.2E1));
#203=DIRECTION('',(0.E0,0.E0,1.E0));
#204=DIRECTION('',(-1.E0,0.E0,0.E0));
#205=AXIS2_PLACEMENT_3D('',#202,#203,#204);
#207=CARTESIAN_POINT('',(1.090599999802E1,6.296582034639E0,1.2E1));
#208=DIRECTION('',(0.E0,0.E0,1.E0));
#209=DIRECTION('',(8.104485379271E-1,-5.858098389169E-1,0.E0));
#210=AXIS2_PLACEMENT_3D('',#207,#208,#209);
#212=CARTESIAN_POINT('',(1.090599999802E1,6.296582034639E0,1.2E1));
#213=DIRECTION('',(0.E0,0.E0,1.E0));
#214=DIRECTION('',(1.E0,0.E0,0.E0));
#215=AXIS2_PLACEMENT_3D('',#212,#213,#214);
#217=CARTESIAN_POINT('',(0.E0,0.E0,1.2E1));
#218=DIRECTION('',(0.E0,0.E0,1.E0));
#219=DIRECTION('',(7.582451216891E-1,6.519695816789E-1,0.E0));
#220=AXIS2_PLACEMENT_3D('',#217,#218,#219);
#222=CARTESIAN_POINT('',(0.E0,1.259316406928E1,1.2E1));
#223=DIRECTION('',(0.E0,0.E0,1.E0));
#224=DIRECTION('',(9.125504712525E-1,4.089641028463E-1,0.E0));
#225=AXIS2_PLACEMENT_3D('',#222,#223,#224);
#227=CARTESIAN_POINT('',(0.E0,0.E0,1.2E1));
#228=DIRECTION('',(0.E0,0.E0,1.E0));
#229=DIRECTION('',(-1.854996593841E-1,9.826443285179E-1,0.E0));
#230=AXIS2_PLACEMENT_3D('',#227,#228,#229);
#232=CARTESIAN_POINT('',(-1.090599999802E1,6.296582034639E0,1.2E1));
#233=DIRECTION('',(0.E0,0.E0,1.E0));
#234=DIRECTION('',(1.021019333254E-1,9.947739417633E-1,0.E0));
#235=AXIS2_PLACEMENT_3D('',#232,#233,#234);
#237=CARTESIAN_POINT('',(-1.090599999802E1,6.296582034639E0,1.2E1));
#238=DIRECTION('',(0.E0,0.E0,1.E0));
#239=DIRECTION('',(-1.E0,0.E0,0.E0));
#240=AXIS2_PLACEMENT_3D('',#237,#238,#239);
#242=CARTESIAN_POINT('',(-1.090599999802E1,-6.296582034639E0,1.2E1));
#243=DIRECTION('',(0.E0,0.E0,1.E0));
#244=DIRECTION('',(-8.104485379271E-1,5.858098389169E-1,0.E0));
#245=AXIS2_PLACEMENT_3D('',#242,#243,#244);
#247=CARTESIAN_POINT('',(-1.090599999802E1,-6.296582034639E0,1.2E1));
#248=DIRECTION('',(0.E0,0.E0,1.E0));
#249=DIRECTION('',(-1.E0,0.E0,0.E0));
#250=AXIS2_PLACEMENT_3D('',#247,#248,#249);
#252=CARTESIAN_POINT('',(0.E0,0.E0,1.2E1));
#253=DIRECTION('',(0.E0,0.E0,1.E0));
#254=DIRECTION('',(-7.582451216891E-1,-6.519695816789E-1,0.E0));
#255=AXIS2_PLACEMENT_3D('',#252,#253,#254);
#257=CARTESIAN_POINT('',(0.E0,-1.259316406928E1,1.2E1));
#258=DIRECTION('',(0.E0,0.E0,1.E0));
#259=DIRECTION('',(-9.125504712525E-1,-4.089641028463E-1,0.E0));
#260=AXIS2_PLACEMENT_3D('',#257,#258,#259);
#262=CARTESIAN_POINT('',(0.E0,0.E0,1.2E1));
#263=DIRECTION('',(0.E0,0.E0,1.E0));
#264=DIRECTION('',(1.854996593841E-1,-9.826443285179E-1,0.E0));
#265=AXIS2_PLACEMENT_3D('',#262,#263,#264);
#267=CARTESIAN_POINT('',(1.090599999802E1,-6.296582034639E0,1.2E1));
#268=DIRECTION('',(0.E0,0.E0,1.E0));
#269=DIRECTION('',(-1.021019333254E-1,-9.947739417633E-1,0.E0));
#270=AXIS2_PLACEMENT_3D('',#267,#268,#269);
#272=CARTESIAN_POINT('',(1.090599999802E1,-6.296582034639E0,1.2E1));
#273=DIRECTION('',(0.E0,0.E0,1.E0));
#274=DIRECTION('',(1.E0,0.E0,0.E0));
#275=AXIS2_PLACEMENT_3D('',#272,#273,#274);
#277=CARTESIAN_POINT('',(0.E0,0.E0,2.5E0));
#278=DIRECTION('',(0.E0,0.E0,1.E0));
#279=DIRECTION('',(0.E0,1.E0,0.E0));
#280=AXIS2_PLACEMENT_3D('',#277,#278,#279);
#282=CARTESIAN_POINT('',(0.E0,0.E0,5.5E0));
#283=DIRECTION('',(0.E0,0.E0,1.E0));
#284=DIRECTION('',(0.E0,1.E0,0.E0));
#285=AXIS2_PLACEMENT_3D('',#282,#283,#284);
#287=DIRECTION('',(0.E0,0.E0,1.E0));
#288=VECTOR('',#287,3.E0);
#289=CARTESIAN_POINT('',(0.E0,1.85E1,2.5E0));
#290=LINE('',#289,#288);
#291=DIRECTION('',(0.E0,0.E0,1.E0));
#292=VECTOR('',#291,3.E0);
#293=CARTESIAN_POINT('',(-1.85E1,0.E0,2.5E0));
#294=LINE('',#293,#292);
#295=DIRECTION('',(0.E0,0.E0,1.E0));
#296=VECTOR('',#295,2.5E0);
#297=CARTESIAN_POINT('',(1.85E1,0.E0,0.E0));
#298=LINE('',#297,#296);
#299=CARTESIAN_POINT('',(0.E0,0.E0,2.5E0));
#300=DIRECTION('',(0.E0,0.E0,1.E0));
#301=DIRECTION('',(1.E0,0.E0,0.E0));
#302=AXIS2_PLACEMENT_3D('',#299,#300,#301);
#304=CARTESIAN_POINT('',(0.E0,0.E0,5.5E0));
#305=DIRECTION('',(0.E0,0.E0,1.E0));
#306=DIRECTION('',(1.E0,0.E0,0.E0));
#307=AXIS2_PLACEMENT_3D('',#304,#305,#306);
#309=DIRECTION('',(0.E0,0.E0,1.E0));
#310=VECTOR('',#309,6.5E0);
#311=CARTESIAN_POINT('',(1.85E1,0.E0,5.5E0));
#312=LINE('',#311,#310);
#313=CARTESIAN_POINT('',(0.E0,1.85E1,4.E0));
#314=DIRECTION('',(1.E0,0.E0,0.E0));
#315=DIRECTION('',(0.E0,3.999999999996E-1,9.165151389913E-1));
#316=AXIS2_PLACEMENT_3D('',#313,#314,#315);
#318=CARTESIAN_POINT('',(-1.308147545195E1,1.308147545195E1,4.E0));
#319=DIRECTION('',(7.071067811865E-1,7.071067811865E-1,0.E0));
#320=DIRECTION('',(-2.828427124746E-1,2.828427124746E-1,9.165151389912E-1));
#321=AXIS2_PLACEMENT_3D('',#318,#319,#320);
#323=CARTESIAN_POINT('',(0.E0,0.E0,5.374772708487E0));
#324=DIRECTION('',(0.E0,0.E0,1.E0));
#325=DIRECTION('',(0.E0,1.E0,0.E0));
#326=AXIS2_PLACEMENT_3D('',#323,#324,#325);
#328=CARTESIAN_POINT('',(0.E0,1.85E1,4.E0));
#329=DIRECTION('',(1.E0,0.E0,0.E0));
#330=DIRECTION('',(0.E0,0.E0,-1.E0));
#331=AXIS2_PLACEMENT_3D('',#328,#329,#330);
#333=CARTESIAN_POINT('',(0.E0,0.E0,2.625227291513E0));
#334=DIRECTION('',(0.E0,0.E0,1.E0));
#335=DIRECTION('',(0.E0,1.E0,0.E0));
#336=AXIS2_PLACEMENT_3D('',#333,#334,#335);
#338=CARTESIAN_POINT('',(-1.308147545195E1,1.308147545195E1,4.E0));
#339=DIRECTION('',(7.071067811865E-1,7.071067811865E-1,0.E0));
#340=DIRECTION('',(0.E0,0.E0,-1.E0));
#341=AXIS2_PLACEMENT_3D('',#338,#339,#340);
#343=CARTESIAN_POINT('',(-1.85E1,0.E0,4.E0));
#344=DIRECTION('',(0.E0,1.E0,0.E0));
#345=DIRECTION('',(-4.E-1,0.E0,9.165151389912E-1));
#346=AXIS2_PLACEMENT_3D('',#343,#344,#345);
#348=CARTESIAN_POINT('',(-1.308147545195E1,-1.308147545195E1,4.E0));
#349=DIRECTION('',(-7.071067811865E-1,7.071067811865E-1,0.E0));
#350=DIRECTION('',(-2.828427124746E-1,-2.828427124746E-1,9.165151389912E-1));
#351=AXIS2_PLACEMENT_3D('',#348,#349,#350);
#353=CARTESIAN_POINT('',(0.E0,0.E0,5.374772708487E0));
#354=DIRECTION('',(0.E0,0.E0,1.E0));
#355=DIRECTION('',(-1.E0,0.E0,0.E0));
#356=AXIS2_PLACEMENT_3D('',#353,#354,#355);
#358=CARTESIAN_POINT('',(-1.85E1,0.E0,4.E0));
#359=DIRECTION('',(0.E0,1.E0,0.E0));
#360=DIRECTION('',(0.E0,0.E0,-1.E0));
#361=AXIS2_PLACEMENT_3D('',#358,#359,#360);
#363=CARTESIAN_POINT('',(0.E0,0.E0,2.625227291513E0));
#364=DIRECTION('',(0.E0,0.E0,1.E0));
#365=DIRECTION('',(-1.E0,0.E0,0.E0));
#366=AXIS2_PLACEMENT_3D('',#363,#364,#365);
#368=CARTESIAN_POINT('',(-1.308147545195E1,-1.308147545195E1,4.E0));
#369=DIRECTION('',(-7.071067811865E-1,7.071067811865E-1,0.E0));
#370=DIRECTION('',(0.E0,0.E0,-1.E0));
#371=AXIS2_PLACEMENT_3D('',#368,#369,#370);
#373=CARTESIAN_POINT('',(0.E0,1.89E1,4.916515138991E0));
#374=DIRECTION('',(1.E0,0.E0,0.E0));
#375=DIRECTION('',(0.E0,1.E0,-4.796163466381E-14));
#376=AXIS2_PLACEMENT_3D('',#373,#374,#375);
#378=CARTESIAN_POINT('',(-1.336431816443E1,1.336431816443E1,4.916515138991E0));
#379=DIRECTION('',(7.071067811865E-1,7.071067811865E-1,0.E0));
#380=DIRECTION('',(-7.071067811865E-1,7.071067811865E-1,-3.552713678801E-14));
#381=AXIS2_PLACEMENT_3D('',#378,#379,#380);
#383=CARTESIAN_POINT('',(-1.89E1,0.E0,4.916515138991E0));
#384=DIRECTION('',(0.E0,1.E0,0.E0));
#385=DIRECTION('',(-1.E0,0.E0,-4.796163466381E-14));
#386=AXIS2_PLACEMENT_3D('',#383,#384,#385);
#388=CARTESIAN_POINT('',(-1.336431816443E1,-1.336431816443E1,4.916515138991E0));
#389=DIRECTION('',(-7.071067811865E-1,7.071067811865E-1,0.E0));
#390=DIRECTION('',(-7.071067811865E-1,-7.071067811865E-1,-1.776356839400E-14));
#391=AXIS2_PLACEMENT_3D('',#388,#389,#390);
#393=DIRECTION('',(0.E0,0.E0,1.E0));
#394=VECTOR('',#393,3.E0);
#395=CARTESIAN_POINT('',(-1.308147545195E1,1.308147545195E1,2.5E0));
#396=LINE('',#395,#394);
#397=CARTESIAN_POINT('',(0.E0,1.89E1,3.083484861009E0));
#398=DIRECTION('',(1.E0,0.E0,0.E0));
#399=DIRECTION('',(0.E0,3.999999999989E-1,-9.165151389917E-1));
#400=AXIS2_PLACEMENT_3D('',#397,#398,#399);
#402=CARTESIAN_POINT('',(-1.336431816443E1,1.336431816443E1,3.083484861009E0));
#403=DIRECTION('',(7.071067811865E-1,7.071067811865E-1,0.E0));
#404=DIRECTION('',(-2.828427124746E-1,2.828427124746E-1,-9.165151389912E-1));
#405=AXIS2_PLACEMENT_3D('',#402,#403,#404);
#407=CARTESIAN_POINT('',(-1.89E1,0.E0,3.083484861009E0));
#408=DIRECTION('',(0.E0,1.E0,0.E0));
#409=DIRECTION('',(-4.E-1,0.E0,-9.165151389912E-1));
#410=AXIS2_PLACEMENT_3D('',#407,#408,#409);
#412=CARTESIAN_POINT('',(-1.336431816443E1,-1.336431816443E1,3.083484861009E0));
#413=DIRECTION('',(-7.071067811865E-1,7.071067811865E-1,0.E0));
#414=DIRECTION('',(-2.828427124746E-1,-2.828427124746E-1,-9.165151389912E-1));
#415=AXIS2_PLACEMENT_3D('',#412,#413,#414);
#417=DIRECTION('',(0.E0,0.E0,1.E0));
#418=VECTOR('',#417,1.833030277982E0);
#419=CARTESIAN_POINT('',(0.E0,1.94E1,3.083484861009E0));
#420=LINE('',#419,#418);
#421=CARTESIAN_POINT('',(0.E0,0.E0,4.916515138991E0));
#422=DIRECTION('',(0.E0,0.E0,1.E0));
#423=DIRECTION('',(0.E0,1.E0,0.E0));
#424=AXIS2_PLACEMENT_3D('',#421,#422,#423);
#426=DIRECTION('',(0.E0,0.E0,1.E0));
#427=VECTOR('',#426,1.833030277982E0);
#428=CARTESIAN_POINT('',(-1.371787155502E1,1.371787155502E1,3.083484861009E0));
#429=LINE('',#428,#427);
#430=CARTESIAN_POINT('',(0.E0,0.E0,3.083484861009E0));
#431=DIRECTION('',(0.E0,0.E0,1.E0));
#432=DIRECTION('',(0.E0,1.E0,0.E0));
#433=AXIS2_PLACEMENT_3D('',#430,#431,#432);
#435=DIRECTION('',(0.E0,0.E0,1.E0));
#436=VECTOR('',#435,1.833030277982E0);
#437=CARTESIAN_POINT('',(-1.94E1,0.E0,3.083484861009E0));
#438=LINE('',#437,#436);
#439=CARTESIAN_POINT('',(0.E0,0.E0,4.916515138991E0));
#440=DIRECTION('',(0.E0,0.E0,1.E0));
#441=DIRECTION('',(-1.E0,0.E0,0.E0));
#442=AXIS2_PLACEMENT_3D('',#439,#440,#441);
#444=DIRECTION('',(0.E0,0.E0,1.E0));
#445=VECTOR('',#444,1.833030277982E0);
#446=CARTESIAN_POINT('',(-1.371787155502E1,-1.371787155502E1,3.083484861009E0));
#447=LINE('',#446,#445);
#448=CARTESIAN_POINT('',(0.E0,0.E0,3.083484861009E0));
#449=DIRECTION('',(0.E0,0.E0,1.E0));
#450=DIRECTION('',(-1.E0,0.E0,0.E0));
#451=AXIS2_PLACEMENT_3D('',#448,#449,#450);
#453=DIRECTION('',(0.E0,0.E0,1.E0));
#454=VECTOR('',#453,3.E0);
#455=CARTESIAN_POINT('',(-1.308147545195E1,-1.308147545195E1,2.5E0));
#456=LINE('',#455,#454);
#457=CARTESIAN_POINT('',(0.E0,0.E0,2.5E0));
#458=DIRECTION('',(0.E0,0.E0,1.E0));
#459=DIRECTION('',(0.E0,-1.E0,0.E0));
#460=AXIS2_PLACEMENT_3D('',#457,#458,#459);
#462=CARTESIAN_POINT('',(0.E0,0.E0,5.5E0));
#463=DIRECTION('',(0.E0,0.E0,1.E0));
#464=DIRECTION('',(0.E0,-1.E0,0.E0));
#465=AXIS2_PLACEMENT_3D('',#462,#463,#464);
#467=DIRECTION('',(0.E0,0.E0,1.E0));
#468=VECTOR('',#467,3.E0);
#469=CARTESIAN_POINT('',(0.E0,-1.85E1,2.5E0));
#470=LINE('',#469,#468);
#471=DIRECTION('',(0.E0,0.E0,1.E0));
#472=VECTOR('',#471,3.E0);
#473=CARTESIAN_POINT('',(1.85E1,0.E0,2.5E0));
#474=LINE('',#473,#472);
#475=DIRECTION('',(0.E0,0.E0,1.E0));
#476=VECTOR('',#475,2.5E0);
#477=CARTESIAN_POINT('',(-1.85E1,0.E0,0.E0));
#478=LINE('',#477,#476);
#479=CARTESIAN_POINT('',(0.E0,0.E0,2.5E0));
#480=DIRECTION('',(0.E0,0.E0,1.E0));
#481=DIRECTION('',(-1.E0,0.E0,0.E0));
#482=AXIS2_PLACEMENT_3D('',#479,#480,#481);
#484=CARTESIAN_POINT('',(0.E0,0.E0,5.5E0));
#485=DIRECTION('',(0.E0,0.E0,1.E0));
#486=DIRECTION('',(-1.E0,0.E0,0.E0));
#487=AXIS2_PLACEMENT_3D('',#484,#485,#486);
#489=DIRECTION('',(0.E0,0.E0,1.E0));
#490=VECTOR('',#489,6.5E0);
#491=CARTESIAN_POINT('',(-1.85E1,0.E0,5.5E0));
#492=LINE('',#491,#490);
#493=CARTESIAN_POINT('',(0.E0,-1.85E1,4.E0));
#494=DIRECTION('',(-1.E0,0.E0,0.E0));
#495=DIRECTION('',(0.E0,-3.999999999997E-1,9.165151389913E-1));
#496=AXIS2_PLACEMENT_3D('',#493,#494,#495);
#498=CARTESIAN_POINT('',(1.308147545195E1,-1.308147545195E1,4.E0));
#499=DIRECTION('',(-7.071067811865E-1,-7.071067811865E-1,0.E0));
#500=DIRECTION('',(2.828427124746E-1,-2.828427124746E-1,9.165151389912E-1));
#501=AXIS2_PLACEMENT_3D('',#498,#499,#500);
#503=CARTESIAN_POINT('',(0.E0,0.E0,5.374772708487E0));
#504=DIRECTION('',(0.E0,0.E0,1.E0));
#505=DIRECTION('',(0.E0,-1.E0,0.E0));
#506=AXIS2_PLACEMENT_3D('',#503,#504,#505);
#508=CARTESIAN_POINT('',(0.E0,-1.85E1,4.E0));
#509=DIRECTION('',(-1.E0,0.E0,0.E0));
#510=DIRECTION('',(0.E0,0.E0,-1.E0));
#511=AXIS2_PLACEMENT_3D('',#508,#509,#510);
#513=CARTESIAN_POINT('',(0.E0,0.E0,2.625227291513E0));
#514=DIRECTION('',(0.E0,0.E0,1.E0));
#515=DIRECTION('',(0.E0,-1.E0,0.E0));
#516=AXIS2_PLACEMENT_3D('',#513,#514,#515);
#518=CARTESIAN_POINT('',(1.308147545195E1,-1.308147545195E1,4.E0));
#519=DIRECTION('',(-7.071067811865E-1,-7.071067811865E-1,0.E0));
#520=DIRECTION('',(0.E0,0.E0,-1.E0));
#521=AXIS2_PLACEMENT_3D('',#518,#519,#520);
#523=CARTESIAN_POINT('',(1.308147545195E1,1.308147545195E1,4.E0));
#524=DIRECTION('',(7.071067811865E-1,-7.071067811865E-1,0.E0));
#525=DIRECTION('',(2.828427124746E-1,2.828427124746E-1,9.165151389912E-1));
#526=AXIS2_PLACEMENT_3D('',#523,#524,#525);
#528=CARTESIAN_POINT('',(0.E0,0.E0,5.374772708487E0));
#529=DIRECTION('',(0.E0,0.E0,1.E0));
#530=DIRECTION('',(1.E0,0.E0,0.E0));
#531=AXIS2_PLACEMENT_3D('',#528,#529,#530);
#533=CARTESIAN_POINT('',(1.85E1,0.E0,4.E0));
#534=DIRECTION('',(0.E0,-1.E0,0.E0));
#535=DIRECTION('',(4.E-1,0.E0,9.165151389912E-1));
#536=AXIS2_PLACEMENT_3D('',#533,#534,#535);
#538=CARTESIAN_POINT('',(1.308147545195E1,1.308147545195E1,4.E0));
#539=DIRECTION('',(7.071067811865E-1,-7.071067811865E-1,0.E0));
#540=DIRECTION('',(0.E0,0.E0,-1.E0));
#541=AXIS2_PLACEMENT_3D('',#538,#539,#540);
#543=CARTESIAN_POINT('',(1.85E1,0.E0,4.E0));
#544=DIRECTION('',(0.E0,-1.E0,0.E0));
#545=DIRECTION('',(0.E0,0.E0,-1.E0));
#546=AXIS2_PLACEMENT_3D('',#543,#544,#545);
#548=CARTESIAN_POINT('',(0.E0,0.E0,2.625227291513E0));
#549=DIRECTION('',(0.E0,0.E0,1.E0));
#550=DIRECTION('',(1.E0,0.E0,0.E0));
#551=AXIS2_PLACEMENT_3D('',#548,#549,#550);
#553=CARTESIAN_POINT('',(1.336431816443E1,1.336431816443E1,4.916515138991E0));
#554=DIRECTION('',(7.071067811865E-1,-7.071067811865E-1,0.E0));
#555=DIRECTION('',(7.071067811865E-1,7.071067811865E-1,-5.151434834261E-14));
#556=AXIS2_PLACEMENT_3D('',#553,#554,#555);
#558=CARTESIAN_POINT('',(1.89E1,0.E0,4.916515138991E0));
#559=DIRECTION('',(0.E0,-1.E0,0.E0));
#560=DIRECTION('',(1.E0,0.E0,-4.796163466381E-14));
#561=AXIS2_PLACEMENT_3D('',#558,#559,#560);
#563=CARTESIAN_POINT('',(0.E0,-1.89E1,4.916515138991E0));
#564=DIRECTION('',(-1.E0,0.E0,0.E0));
#565=DIRECTION('',(0.E0,-1.E0,-4.796163466381E-14));
#566=AXIS2_PLACEMENT_3D('',#563,#564,#565);
#568=CARTESIAN_POINT('',(1.336431816443E1,-1.336431816443E1,4.916515138991E0));
#569=DIRECTION('',(-7.071067811865E-1,-7.071067811865E-1,0.E0));
#570=DIRECTION('',(7.071067811865E-1,-7.071067811865E-1,-8.704148513061E-14));
#571=AXIS2_PLACEMENT_3D('',#568,#569,#570);
#573=DIRECTION('',(0.E0,0.E0,1.E0));
#574=VECTOR('',#573,3.E0);
#575=CARTESIAN_POINT('',(1.308147545195E1,1.308147545195E1,2.5E0));
#576=LINE('',#575,#574);
#577=CARTESIAN_POINT('',(1.336431816443E1,1.336431816443E1,3.083484861009E0));
#578=DIRECTION('',(7.071067811865E-1,-7.071067811865E-1,0.E0));
#579=DIRECTION('',(2.828427124746E-1,2.828427124746E-1,-9.165151389912E-1));
#580=AXIS2_PLACEMENT_3D('',#577,#578,#579);
#582=CARTESIAN_POINT('',(1.89E1,0.E0,3.083484861009E0));
#583=DIRECTION('',(0.E0,-1.E0,0.E0));
#584=DIRECTION('',(4.E-1,0.E0,-9.165151389912E-1));
#585=AXIS2_PLACEMENT_3D('',#582,#583,#584);
#587=CARTESIAN_POINT('',(0.E0,-1.89E1,3.083484861009E0));
#588=DIRECTION('',(-1.E0,0.E0,0.E0));
#589=DIRECTION('',(0.E0,-3.999999999970E-1,-9.165151389925E-1));
#590=AXIS2_PLACEMENT_3D('',#587,#588,#589);
#592=CARTESIAN_POINT('',(1.336431816443E1,-1.336431816443E1,3.083484861009E0));
#593=DIRECTION('',(-7.071067811865E-1,-7.071067811865E-1,0.E0));
#594=DIRECTION('',(2.828427124746E-1,-2.828427124746E-1,-9.165151389912E-1));
#595=AXIS2_PLACEMENT_3D('',#592,#593,#594);
#597=DIRECTION('',(0.E0,0.E0,1.E0));
#598=VECTOR('',#597,1.833030277982E0);
#599=CARTESIAN_POINT('',(0.E0,-1.94E1,3.083484861009E0));
#600=LINE('',#599,#598);
#601=CARTESIAN_POINT('',(0.E0,0.E0,4.916515138991E0));
#602=DIRECTION('',(0.E0,0.E0,1.E0));
#603=DIRECTION('',(0.E0,-1.E0,0.E0));
#604=AXIS2_PLACEMENT_3D('',#601,#602,#603);
#606=DIRECTION('',(0.E0,0.E0,1.E0));
#607=VECTOR('',#606,1.833030277982E0);
#608=CARTESIAN_POINT('',(1.371787155502E1,-1.371787155502E1,3.083484861009E0));
#609=LINE('',#608,#607);
#610=CARTESIAN_POINT('',(0.E0,0.E0,3.083484861009E0));
#611=DIRECTION('',(0.E0,0.E0,1.E0));
#612=DIRECTION('',(0.E0,-1.E0,0.E0));
#613=AXIS2_PLACEMENT_3D('',#610,#611,#612);
#615=DIRECTION('',(0.E0,0.E0,1.E0));
#616=VECTOR('',#615,1.833030277982E0);
#617=CARTESIAN_POINT('',(1.371787155502E1,1.371787155502E1,3.083484861009E0));
#618=LINE('',#617,#616);
#619=CARTESIAN_POINT('',(0.E0,0.E0,3.083484861009E0));
#620=DIRECTION('',(0.E0,0.E0,1.E0));
#621=DIRECTION('',(1.E0,0.E0,0.E0));
#622=AXIS2_PLACEMENT_3D('',#619,#620,#621);
#624=DIRECTION('',(0.E0,0.E0,1.E0));
#625=VECTOR('',#624,1.833030277982E0);
#626=CARTESIAN_POINT('',(1.94E1,0.E0,3.083484861009E0));
#627=LINE('',#626,#625);
#628=CARTESIAN_POINT('',(0.E0,0.E0,4.916515138991E0));
#629=DIRECTION('',(0.E0,0.E0,1.E0));
#630=DIRECTION('',(1.E0,0.E0,0.E0));
#631=AXIS2_PLACEMENT_3D('',#628,#629,#630);
#633=DIRECTION('',(0.E0,0.E0,1.E0));
#634=VECTOR('',#633,3.E0);
#635=CARTESIAN_POINT('',(1.308147545195E1,-1.308147545195E1,2.5E0));
#636=LINE('',#635,#634);
#637=CARTESIAN_POINT('',(1.090599999802E1,6.296582034639E0,4.E0));
#638=DIRECTION('',(0.E0,0.E0,1.E0));
#639=DIRECTION('',(-1.E0,0.E0,0.E0));
#640=AXIS2_PLACEMENT_3D('',#637,#638,#639);
#642=DIRECTION('',(0.E0,0.E0,-1.E0));
#643=VECTOR('',#642,4.E0);
#644=CARTESIAN_POINT('',(8.060135234164E0,6.296582034639E0,4.E0));
#645=LINE('',#644,#643);
#646=DIRECTION('',(0.E0,0.E0,-1.E0));
#647=VECTOR('',#646,8.E0);
#648=CARTESIAN_POINT('',(1.321242693503E1,4.629446455745E0,1.2E1));
#649=LINE('',#648,#647);
#650=CARTESIAN_POINT('',(1.090599999802E1,6.296582034639E0,4.E0));
#651=DIRECTION('',(0.E0,0.E0,1.E0));
#652=DIRECTION('',(-1.021019333254E-1,9.947739417633E-1,0.E0));
#653=AXIS2_PLACEMENT_3D('',#650,#651,#652);
#655=DIRECTION('',(0.E0,0.E0,1.E0));
#656=VECTOR('',#655,8.E0);
#657=CARTESIAN_POINT('',(1.061543170365E1,9.127574143505E0,4.E0));
#658=LINE('',#657,#656);
#659=DIRECTION('',(0.E0,0.E0,-1.E0));
#660=VECTOR('',#659,1.2E1);
#661=CARTESIAN_POINT('',(1.375186476188E1,6.296582034639E0,1.2E1));
#662=LINE('',#661,#660);
#663=CARTESIAN_POINT('',(-1.090599999802E1,6.296582034639E0,4.E0));
#664=DIRECTION('',(0.E0,0.E0,1.E0));
#665=DIRECTION('',(1.E0,0.E0,0.E0));
#666=AXIS2_PLACEMENT_3D('',#663,#664,#665);
#668=DIRECTION('',(0.E0,0.E0,-1.E0));
#669=VECTOR('',#668,4.E0);
#670=CARTESIAN_POINT('',(-8.060135234164E0,6.296582034639E0,4.E0));
#671=LINE('',#670,#669);
#672=DIRECTION('',(0.E0,0.E0,1.E0));
#673=VECTOR('',#672,8.E0);
#674=CARTESIAN_POINT('',(-1.061543170365E1,9.127574143505E0,4.E0));
#675=LINE('',#674,#673);
#676=CARTESIAN_POINT('',(-1.090599999802E1,6.296582034639E0,4.E0));
#677=DIRECTION('',(0.E0,0.E0,1.E0));
#678=DIRECTION('',(-8.104485379271E-1,-5.858098389169E-1,0.E0));
#679=AXIS2_PLACEMENT_3D('',#676,#677,#678);
#681=DIRECTION('',(0.E0,0.E0,1.E0));
#682=VECTOR('',#681,8.E0);
#683=CARTESIAN_POINT('',(-1.321242693503E1,4.629446455745E0,4.E0));
#684=LINE('',#683,#682);
#685=DIRECTION('',(0.E0,0.E0,-1.E0));
#686=VECTOR('',#685,1.2E1);
#687=CARTESIAN_POINT('',(-1.375186476188E1,6.296582034639E0,1.2E1));
#688=LINE('',#687,#686);
#689=CARTESIAN_POINT('',(-1.090599999802E1,-6.296582034639E0,4.E0));
#690=DIRECTION('',(0.E0,0.E0,1.E0));
#691=DIRECTION('',(1.E0,0.E0,0.E0));
#692=AXIS2_PLACEMENT_3D('',#689,#690,#691);
#694=DIRECTION('',(0.E0,0.E0,-1.E0));
#695=VECTOR('',#694,4.E0);
#696=CARTESIAN_POINT('',(-8.060135234164E0,-6.296582034639E0,4.E0));
#697=LINE('',#696,#695);
#698=DIRECTION('',(0.E0,0.E0,-1.E0));
#699=VECTOR('',#698,8.E0);
#700=CARTESIAN_POINT('',(-1.321242693503E1,-4.629446455745E0,1.2E1));
#701=LINE('',#700,#699);
#702=CARTESIAN_POINT('',(-1.090599999802E1,-6.296582034639E0,4.E0));
#703=DIRECTION('',(0.E0,0.E0,1.E0));
#704=DIRECTION('',(1.021019333254E-1,-9.947739417633E-1,0.E0));
#705=AXIS2_PLACEMENT_3D('',#702,#703,#704);
#707=DIRECTION('',(0.E0,0.E0,1.E0));
#708=VECTOR('',#707,8.E0);
#709=CARTESIAN_POINT('',(-1.061543170365E1,-9.127574143505E0,4.E0));
#710=LINE('',#709,#708);
#711=DIRECTION('',(0.E0,0.E0,-1.E0));
#712=VECTOR('',#711,1.2E1);
#713=CARTESIAN_POINT('',(-1.375186476188E1,-6.296582034639E0,1.2E1));
#714=LINE('',#713,#712);
#715=CARTESIAN_POINT('',(0.E0,-1.259316406928E1,4.E0));
#716=DIRECTION('',(0.E0,0.E0,1.E0));
#717=DIRECTION('',(-1.E0,0.E0,0.E0));
#718=AXIS2_PLACEMENT_3D('',#715,#716,#717);
#720=DIRECTION('',(0.E0,0.E0,-1.E0));
#721=VECTOR('',#720,4.E0);
#722=CARTESIAN_POINT('',(-2.845864763856E0,-1.259316406928E1,4.E0));
#723=LINE('',#722,#721);
#724=CARTESIAN_POINT('',(0.E0,-1.259316406928E1,4.E0));
#725=DIRECTION('',(0.E0,0.E0,1.E0));
#726=DIRECTION('',(9.125504712525E-1,-4.089641028463E-1,0.E0));
#727=AXIS2_PLACEMENT_3D('',#724,#725,#726);
#729=DIRECTION('',(0.E0,0.E0,1.E0));
#730=VECTOR('',#729,8.E0);
#731=CARTESIAN_POINT('',(2.596995231377E0,-1.375702059925E1,4.E0));
#732=LINE('',#731,#730);
#733=DIRECTION('',(0.E0,0.E0,1.E0));
#734=VECTOR('',#733,8.E0);
#735=CARTESIAN_POINT('',(-2.596995231377E0,-1.375702059925E1,4.E0));
#736=LINE('',#735,#734);
#737=CARTESIAN_POINT('',(0.E0,-1.259316406928E1,4.E0));
#738=DIRECTION('',(0.E0,0.E0,1.E0));
#739=DIRECTION('',(1.E0,0.E0,0.E0));
#740=AXIS2_PLACEMENT_3D('',#737,#738,#739);
#742=DIRECTION('',(0.E0,0.E0,-1.E0));
#743=VECTOR('',#742,4.E0);
#744=CARTESIAN_POINT('',(2.845864763856E0,-1.259316406928E1,4.E0));
#745=LINE('',#744,#743);
#746=CARTESIAN_POINT('',(1.090599999802E1,-6.296582034639E0,4.E0));
#747=DIRECTION('',(0.E0,0.E0,1.E0));
#748=DIRECTION('',(-1.E0,0.E0,0.E0));
#749=AXIS2_PLACEMENT_3D('',#746,#747,#748);
#751=DIRECTION('',(0.E0,0.E0,-1.E0));
#752=VECTOR('',#751,4.E0);
#753=CARTESIAN_POINT('',(8.060135234164E0,-6.296582034639E0,4.E0));
#754=LINE('',#753,#752);
#755=DIRECTION('',(0.E0,0.E0,1.E0));
#756=VECTOR('',#755,8.E0);
#757=CARTESIAN_POINT('',(1.061543170365E1,-9.127574143505E0,4.E0));
#758=LINE('',#757,#756);
#759=CARTESIAN_POINT('',(1.090599999802E1,-6.296582034639E0,4.E0));
#760=DIRECTION('',(0.E0,0.E0,1.E0));
#761=DIRECTION('',(8.104485379271E-1,5.858098389169E-1,0.E0));
#762=AXIS2_PLACEMENT_3D('',#759,#760,#761);
#764=DIRECTION('',(0.E0,0.E0,1.E0));
#765=VECTOR('',#764,8.E0);
#766=CARTESIAN_POINT('',(1.321242693503E1,-4.629446455745E0,4.E0));
#767=LINE('',#766,#765);
#768=DIRECTION('',(0.E0,0.E0,-1.E0));
#769=VECTOR('',#768,1.2E1);
#770=CARTESIAN_POINT('',(1.375186476188E1,-6.296582034639E0,1.2E1));
#771=LINE('',#770,#769);
#772=CARTESIAN_POINT('',(6.9E0,0.E0,0.E0));
#773=CARTESIAN_POINT('',(-6.9E0,0.E0,0.E0));
#774=VERTEX_POINT('',#772);
#775=VERTEX_POINT('',#773);
#776=CARTESIAN_POINT('',(1.85E1,0.E0,0.E0));
#777=CARTESIAN_POINT('',(-1.85E1,0.E0,0.E0));
#778=VERTEX_POINT('',#776);
#779=VERTEX_POINT('',#777);
#780=CARTESIAN_POINT('',(1.85E1,0.E0,1.2E1));
#781=CARTESIAN_POINT('',(-1.85E1,0.E0,1.2E1));
#782=VERTEX_POINT('',#780);
#783=VERTEX_POINT('',#781);
#784=CARTESIAN_POINT('',(2.845864763856E0,1.259316406928E1,0.E0));
#785=CARTESIAN_POINT('',(-2.845864763856E0,1.259316406928E1,0.E0));
#786=VERTEX_POINT('',#784);
#787=VERTEX_POINT('',#785);
#788=CARTESIAN_POINT('',(2.845864763856E0,-1.259316406928E1,0.E0));
#789=CARTESIAN_POINT('',(-2.845864763856E0,-1.259316406928E1,0.E0));
#790=VERTEX_POINT('',#788);
#791=VERTEX_POINT('',#789);
#792=CARTESIAN_POINT('',(-8.060135234164E0,6.296582034639E0,0.E0));
#793=CARTESIAN_POINT('',(-1.375186476188E1,6.296582034639E0,0.E0));
#794=VERTEX_POINT('',#792);
#795=VERTEX_POINT('',#793);
#796=CARTESIAN_POINT('',(1.375186476188E1,6.296582034639E0,0.E0));
#797=CARTESIAN_POINT('',(8.060135234164E0,6.296582034639E0,0.E0));
#798=VERTEX_POINT('',#796);
#799=VERTEX_POINT('',#797);
#800=CARTESIAN_POINT('',(1.375186476188E1,-6.296582034639E0,0.E0));
#801=CARTESIAN_POINT('',(8.060135234164E0,-6.296582034639E0,0.E0));
#802=VERTEX_POINT('',#800);
#803=VERTEX_POINT('',#801);
#804=CARTESIAN_POINT('',(-8.060135234164E0,-6.296582034639E0,0.E0));
#805=CARTESIAN_POINT('',(-1.375186476188E1,-6.296582034639E0,0.E0));
#806=VERTEX_POINT('',#804);
#807=VERTEX_POINT('',#805);
#808=CARTESIAN_POINT('',(-1.375186476188E1,6.296582034639E0,1.2E1));
#809=VERTEX_POINT('',#808);
#810=CARTESIAN_POINT('',(1.375186476188E1,6.296582034639E0,1.2E1));
#811=VERTEX_POINT('',#810);
#812=CARTESIAN_POINT('',(1.375186476188E1,-6.296582034639E0,1.2E1));
#813=VERTEX_POINT('',#812);
#814=CARTESIAN_POINT('',(-1.375186476188E1,-6.296582034639E0,1.2E1));
#815=VERTEX_POINT('',#814);
#816=CARTESIAN_POINT('',(0.E0,1.91E1,5.374772708487E0));
#817=CARTESIAN_POINT('',(0.E0,1.85E1,5.5E0));
#818=VERTEX_POINT('',#816);
#819=VERTEX_POINT('',#817);
#820=CARTESIAN_POINT('',(0.E0,1.85E1,2.5E0));
#821=CARTESIAN_POINT('',(0.E0,1.91E1,2.625227291513E0));
#822=VERTEX_POINT('',#820);
#823=VERTEX_POINT('',#821);
#824=CARTESIAN_POINT('',(-1.350573952066E1,1.350573952066E1,5.374772708487E0));
#825=CARTESIAN_POINT('',(-1.308147545195E1,1.308147545195E1,5.5E0));
#826=VERTEX_POINT('',#824);
#827=VERTEX_POINT('',#825);
#828=CARTESIAN_POINT('',(-1.308147545195E1,1.308147545195E1,2.5E0));
#829=CARTESIAN_POINT('',(-1.350573952066E1,1.350573952066E1,2.625227291513E0));
#830=VERTEX_POINT('',#828);
#831=VERTEX_POINT('',#829);
#832=CARTESIAN_POINT('',(-1.91E1,0.E0,5.374772708487E0));
#833=CARTESIAN_POINT('',(-1.85E1,0.E0,5.5E0));
#834=VERTEX_POINT('',#832);
#835=VERTEX_POINT('',#833);
#836=CARTESIAN_POINT('',(-1.85E1,0.E0,2.5E0));
#837=CARTESIAN_POINT('',(-1.91E1,0.E0,2.625227291513E0));
#838=VERTEX_POINT('',#836);
#839=VERTEX_POINT('',#837);
#840=CARTESIAN_POINT('',(-1.350573952066E1,-1.350573952066E1,5.374772708487E0));
#841=CARTESIAN_POINT('',(-1.308147545195E1,-1.308147545195E1,5.5E0));
#842=VERTEX_POINT('',#840);
#843=VERTEX_POINT('',#841);
#844=CARTESIAN_POINT('',(-1.308147545195E1,-1.308147545195E1,2.5E0));
#845=CARTESIAN_POINT('',(-1.350573952066E1,-1.350573952066E1,2.625227291513E0));
#846=VERTEX_POINT('',#844);
#847=VERTEX_POINT('',#845);
#848=CARTESIAN_POINT('',(0.E0,-1.91E1,5.374772708487E0));
#849=CARTESIAN_POINT('',(0.E0,-1.85E1,5.5E0));
#850=VERTEX_POINT('',#848);
#851=VERTEX_POINT('',#849);
#852=CARTESIAN_POINT('',(0.E0,-1.85E1,2.5E0));
#853=CARTESIAN_POINT('',(0.E0,-1.91E1,2.625227291513E0));
#854=VERTEX_POINT('',#852);
#855=VERTEX_POINT('',#853);
#856=CARTESIAN_POINT('',(0.E0,1.94E1,3.083484861009E0));
#857=CARTESIAN_POINT('',(0.E0,1.94E1,4.916515138991E0));
#858=VERTEX_POINT('',#856);
#859=VERTEX_POINT('',#857);
#860=CARTESIAN_POINT('',(-1.371787155502E1,1.371787155502E1,3.083484861009E0));
#861=CARTESIAN_POINT('',(-1.371787155502E1,1.371787155502E1,4.916515138991E0));
#862=VERTEX_POINT('',#860);
#863=VERTEX_POINT('',#861);
#864=CARTESIAN_POINT('',(-1.94E1,0.E0,3.083484861009E0));
#865=CARTESIAN_POINT('',(-1.94E1,0.E0,4.916515138991E0));
#866=VERTEX_POINT('',#864);
#867=VERTEX_POINT('',#865);
#868=CARTESIAN_POINT('',(-1.371787155502E1,-1.371787155502E1,3.083484861009E0));
#869=CARTESIAN_POINT('',(-1.371787155502E1,-1.371787155502E1,4.916515138991E0));
#870=VERTEX_POINT('',#868);
#871=VERTEX_POINT('',#869);
#872=CARTESIAN_POINT('',(0.E0,-1.94E1,3.083484861009E0));
#873=CARTESIAN_POINT('',(0.E0,-1.94E1,4.916515138991E0));
#874=VERTEX_POINT('',#872);
#875=VERTEX_POINT('',#873);
#876=CARTESIAN_POINT('',(1.350573952066E1,1.350573952066E1,5.374772708487E0));
#877=CARTESIAN_POINT('',(1.308147545195E1,1.308147545195E1,5.5E0));
#878=VERTEX_POINT('',#876);
#879=VERTEX_POINT('',#877);
#880=CARTESIAN_POINT('',(1.308147545195E1,1.308147545195E1,2.5E0));
#881=CARTESIAN_POINT('',(1.350573952066E1,1.350573952066E1,2.625227291513E0));
#882=VERTEX_POINT('',#880);
#883=VERTEX_POINT('',#881);
#884=CARTESIAN_POINT('',(1.91E1,0.E0,5.374772708487E0));
#885=CARTESIAN_POINT('',(1.85E1,0.E0,5.5E0));
#886=VERTEX_POINT('',#884);
#887=VERTEX_POINT('',#885);
#888=CARTESIAN_POINT('',(1.85E1,0.E0,2.5E0));
#889=CARTESIAN_POINT('',(1.91E1,0.E0,2.625227291513E0));
#890=VERTEX_POINT('',#888);
#891=VERTEX_POINT('',#889);
#892=CARTESIAN_POINT('',(1.350573952066E1,-1.350573952066E1,5.374772708487E0));
#893=CARTESIAN_POINT('',(1.308147545195E1,-1.308147545195E1,5.5E0));
#894=VERTEX_POINT('',#892);
#895=VERTEX_POINT('',#893);
#896=CARTESIAN_POINT('',(1.308147545195E1,-1.308147545195E1,2.5E0));
#897=CARTESIAN_POINT('',(1.350573952066E1,-1.350573952066E1,2.625227291513E0));
#898=VERTEX_POINT('',#896);
#899=VERTEX_POINT('',#897);
#900=CARTESIAN_POINT('',(1.371787155502E1,1.371787155502E1,3.083484861009E0));
#901=CARTESIAN_POINT('',(1.371787155502E1,1.371787155502E1,4.916515138991E0));
#902=VERTEX_POINT('',#900);
#903=VERTEX_POINT('',#901);
#904=CARTESIAN_POINT('',(1.94E1,0.E0,3.083484861009E0));
#905=CARTESIAN_POINT('',(1.94E1,0.E0,4.916515138991E0));
#906=VERTEX_POINT('',#904);
#907=VERTEX_POINT('',#905);
#908=CARTESIAN_POINT('',(1.371787155502E1,-1.371787155502E1,3.083484861009E0));
#909=CARTESIAN_POINT('',(1.371787155502E1,-1.371787155502E1,4.916515138991E0));
#910=VERTEX_POINT('',#908);
#911=VERTEX_POINT('',#909);
#912=CARTESIAN_POINT('',(1.061543170365E1,9.127574143505E0,1.2E1));
#913=CARTESIAN_POINT('',(2.596995231377E0,1.375702059925E1,1.2E1));
#914=VERTEX_POINT('',#912);
#915=VERTEX_POINT('',#913);
#916=CARTESIAN_POINT('',(-2.596995231377E0,1.375702059925E1,1.2E1));
#917=CARTESIAN_POINT('',(-1.061543170365E1,9.127574143505E0,1.2E1));
#918=VERTEX_POINT('',#916);
#919=VERTEX_POINT('',#917);
#920=CARTESIAN_POINT('',(-1.061543170365E1,-9.127574143505E0,1.2E1));
#921=CARTESIAN_POINT('',(-2.596995231377E0,-1.375702059925E1,1.2E1));
#922=VERTEX_POINT('',#920);
#923=VERTEX_POINT('',#921);
#924=CARTESIAN_POINT('',(2.596995231377E0,-1.375702059925E1,1.2E1));
#925=CARTESIAN_POINT('',(1.061543170365E1,-9.127574143505E0,1.2E1));
#926=VERTEX_POINT('',#924);
#927=VERTEX_POINT('',#925);
#928=CARTESIAN_POINT('',(-6.9E0,0.E0,4.E0));
#929=CARTESIAN_POINT('',(6.9E0,0.E0,4.E0));
#930=VERTEX_POINT('',#928);
#931=VERTEX_POINT('',#929);
#932=CARTESIAN_POINT('',(-2.845864763856E0,1.259316406928E1,4.E0));
#933=CARTESIAN_POINT('',(2.845864763856E0,1.259316406928E1,4.E0));
#934=VERTEX_POINT('',#932);
#935=VERTEX_POINT('',#933);
#936=CARTESIAN_POINT('',(2.845864763856E0,-1.259316406928E1,4.E0));
#937=CARTESIAN_POINT('',(-2.845864763856E0,-1.259316406928E1,4.E0));
#938=VERTEX_POINT('',#936);
#939=VERTEX_POINT('',#937);
#940=CARTESIAN_POINT('',(-1.321242693503E1,4.629446455745E0,4.E0));
#941=CARTESIAN_POINT('',(-8.060135234164E0,6.296582034639E0,4.E0));
#942=VERTEX_POINT('',#940);
#943=VERTEX_POINT('',#941);
#944=CARTESIAN_POINT('',(-1.321242693503E1,4.629446455745E0,1.2E1));
#945=VERTEX_POINT('',#944);
#946=CARTESIAN_POINT('',(8.060135234164E0,6.296582034639E0,4.E0));
#947=CARTESIAN_POINT('',(1.321242693503E1,4.629446455745E0,4.E0));
#948=VERTEX_POINT('',#946);
#949=VERTEX_POINT('',#947);
#950=CARTESIAN_POINT('',(1.321242693503E1,4.629446455745E0,1.2E1));
#951=VERTEX_POINT('',#950);
#952=CARTESIAN_POINT('',(1.321242693503E1,-4.629446455745E0,4.E0));
#953=CARTESIAN_POINT('',(8.060135234164E0,-6.296582034639E0,4.E0));
#954=VERTEX_POINT('',#952);
#955=VERTEX_POINT('',#953);
#956=CARTESIAN_POINT('',(1.321242693503E1,-4.629446455745E0,1.2E1));
#957=VERTEX_POINT('',#956);
#958=CARTESIAN_POINT('',(-8.060135234164E0,-6.296582034639E0,4.E0));
#959=CARTESIAN_POINT('',(-1.321242693503E1,-4.629446455745E0,4.E0));
#960=VERTEX_POINT('',#958);
#961=VERTEX_POINT('',#959);
#962=CARTESIAN_POINT('',(-1.321242693503E1,-4.629446455745E0,1.2E1));
#963=VERTEX_POINT('',#962);
#964=CARTESIAN_POINT('',(1.061543170365E1,9.127574143505E0,4.E0));
#965=CARTESIAN_POINT('',(2.596995231377E0,1.375702059925E1,4.E0));
#966=VERTEX_POINT('',#964);
#967=VERTEX_POINT('',#965);
#968=CARTESIAN_POINT('',(-2.596995231377E0,1.375702059925E1,4.E0));
#969=CARTESIAN_POINT('',(-1.061543170365E1,9.127574143505E0,4.E0));
#970=VERTEX_POINT('',#968);
#971=VERTEX_POINT('',#969);
#972=CARTESIAN_POINT('',(-1.061543170365E1,-9.127574143505E0,4.E0));
#973=CARTESIAN_POINT('',(-2.596995231377E0,-1.375702059925E1,4.E0));
#974=VERTEX_POINT('',#972);
#975=VERTEX_POINT('',#973);
#976=CARTESIAN_POINT('',(2.596995231377E0,-1.375702059925E1,4.E0));
#977=CARTESIAN_POINT('',(1.061543170365E1,-9.127574143505E0,4.E0));
#978=VERTEX_POINT('',#976);
#979=VERTEX_POINT('',#977);
#980=CARTESIAN_POINT('',(0.E0,0.E0,0.E0));
#981=DIRECTION('',(0.E0,0.E0,1.E0));
#982=DIRECTION('',(1.E0,0.E0,0.E0));
#983=AXIS2_PLACEMENT_3D('',#980,#981,#982);
#984=PLANE('',#983);
#986=ORIENTED_EDGE('',*,*,#985,.T.);
#988=ORIENTED_EDGE('',*,*,#987,.T.);
#989=EDGE_LOOP('',(#986,#988));
#990=FACE_OUTER_BOUND('',#989,.F.);
#992=ORIENTED_EDGE('',*,*,#991,.T.);
#994=ORIENTED_EDGE('',*,*,#993,.T.);
#995=EDGE_LOOP('',(#992,#994));
#996=FACE_BOUND('',#995,.F.);
#998=ORIENTED_EDGE('',*,*,#997,.F.);
#1000=ORIENTED_EDGE('',*,*,#999,.F.);
#1001=EDGE_LOOP('',(#998,#1000));
#1002=FACE_BOUND('',#1001,.F.);
#1004=ORIENTED_EDGE('',*,*,#1003,.F.);
#1006=ORIENTED_EDGE('',*,*,#1005,.F.);
#1007=EDGE_LOOP('',(#1004,#1006));
#1008=FACE_BOUND('',#1007,.F.);
#1010=ORIENTED_EDGE('',*,*,#1009,.F.);
#1012=ORIENTED_EDGE('',*,*,#1011,.F.);
#1013=EDGE_LOOP('',(#1010,#1012));
#1014=FACE_BOUND('',#1013,.F.);
#1016=ORIENTED_EDGE('',*,*,#1015,.F.);
#1018=ORIENTED_EDGE('',*,*,#1017,.F.);
#1019=EDGE_LOOP('',(#1016,#1018));
#1020=FACE_BOUND('',#1019,.F.);
#1022=ORIENTED_EDGE('',*,*,#1021,.F.);
#1024=ORIENTED_EDGE('',*,*,#1023,.F.);
#1025=EDGE_LOOP('',(#1022,#1024));
#1026=FACE_BOUND('',#1025,.F.);
#1028=ORIENTED_EDGE('',*,*,#1027,.F.);
#1030=ORIENTED_EDGE('',*,*,#1029,.F.);
#1031=EDGE_LOOP('',(#1028,#1030));
#1032=FACE_BOUND('',#1031,.F.);
#1034=CARTESIAN_POINT('',(0.E0,0.E0,0.E0));
#1035=DIRECTION('',(0.E0,0.E0,1.E0));
#1036=DIRECTION('',(1.E0,0.E0,0.E0));
#1037=AXIS2_PLACEMENT_3D('',#1034,#1035,#1036);
#1038=CYLINDRICAL_SURFACE('',#1037,6.9E0);
#1040=ORIENTED_EDGE('',*,*,#1039,.F.);
#1042=ORIENTED_EDGE('',*,*,#1041,.F.);
#1043=ORIENTED_EDGE('',*,*,#991,.F.);
#1045=ORIENTED_EDGE('',*,*,#1044,.T.);
#1046=EDGE_LOOP('',(#1040,#1042,#1043,#1045));
#1047=FACE_OUTER_BOUND('',#1046,.F.);
#1049=CARTESIAN_POINT('',(0.E0,0.E0,4.E0));
#1050=DIRECTION('',(0.E0,0.E0,1.E0));
#1051=DIRECTION('',(1.E0,0.E0,0.E0));
#1052=AXIS2_PLACEMENT_3D('',#1049,#1050,#1051);
#1053=PLANE('',#1052);
#1055=ORIENTED_EDGE('',*,*,#1054,.T.);
#1057=ORIENTED_EDGE('',*,*,#1056,.T.);
#1059=ORIENTED_EDGE('',*,*,#1058,.F.);
#1061=ORIENTED_EDGE('',*,*,#1060,.T.);
#1063=ORIENTED_EDGE('',*,*,#1062,.T.);
#1065=ORIENTED_EDGE('',*,*,#1064,.F.);
#1067=ORIENTED_EDGE('',*,*,#1066,.T.);
#1069=ORIENTED_EDGE('',*,*,#1068,.T.);
#1071=ORIENTED_EDGE('',*,*,#1070,.F.);
#1073=ORIENTED_EDGE('',*,*,#1072,.T.);
#1075=ORIENTED_EDGE('',*,*,#1074,.T.);
#1077=ORIENTED_EDGE('',*,*,#1076,.T.);
#1079=ORIENTED_EDGE('',*,*,#1078,.F.);
#1081=ORIENTED_EDGE('',*,*,#1080,.T.);
#1083=ORIENTED_EDGE('',*,*,#1082,.T.);
#1085=ORIENTED_EDGE('',*,*,#1084,.F.);
#1087=ORIENTED_EDGE('',*,*,#1086,.T.);
#1089=ORIENTED_EDGE('',*,*,#1088,.T.);
#1091=ORIENTED_EDGE('',*,*,#1090,.F.);
#1093=ORIENTED_EDGE('',*,*,#1092,.T.);
#1094=EDGE_LOOP('',(#1055,#1057,#1059,#1061,#1063,#1065,#1067,#1069,#1071,#1073,
#1075,#1077,#1079,#1081,#1083,#1085,#1087,#1089,#1091,#1093));
#1095=FACE_OUTER_BOUND('',#1094,.F.);
#1096=ORIENTED_EDGE('',*,*,#1039,.T.);
#1098=ORIENTED_EDGE('',*,*,#1097,.T.);
#1099=EDGE_LOOP('',(#1096,#1098));
#1100=FACE_BOUND('',#1099,.F.);
#1102=CARTESIAN_POINT('',(0.E0,0.E0,0.E0));
#1103=DIRECTION('',(0.E0,0.E0,1.E0));
#1104=DIRECTION('',(1.E0,0.E0,0.E0));
#1105=AXIS2_PLACEMENT_3D('',#1102,#1103,#1104);
#1106=CYLINDRICAL_SURFACE('',#1105,6.9E0);
#1107=ORIENTED_EDGE('',*,*,#1097,.F.);
#1108=ORIENTED_EDGE('',*,*,#1044,.F.);
#1109=ORIENTED_EDGE('',*,*,#993,.F.);
#1110=ORIENTED_EDGE('',*,*,#1041,.T.);
#1111=EDGE_LOOP('',(#1107,#1108,#1109,#1110));
#1112=FACE_OUTER_BOUND('',#1111,.F.);
#1114=CARTESIAN_POINT('',(0.E0,1.259316406928E1,1.2E1));
#1115=DIRECTION('',(0.E0,0.E0,1.E0));
#1116=DIRECTION('',(1.E0,0.E0,0.E0));
#1117=AXIS2_PLACEMENT_3D('',#1114,#1115,#1116);
#1118=CYLINDRICAL_SURFACE('',#1117,2.845864763856E0);
#1119=ORIENTED_EDGE('',*,*,#1054,.F.);
#1121=ORIENTED_EDGE('',*,*,#1120,.T.);
#1122=ORIENTED_EDGE('',*,*,#999,.T.);
#1124=ORIENTED_EDGE('',*,*,#1123,.F.);
#1125=EDGE_LOOP('',(#1119,#1121,#1122,#1124));
#1126=FACE_OUTER_BOUND('',#1125,.F.);
#1128=CARTESIAN_POINT('',(0.E0,1.259316406928E1,1.2E1));
#1129=DIRECTION('',(0.E0,0.E0,1.E0));
#1130=DIRECTION('',(1.E0,0.E0,0.E0));
#1131=AXIS2_PLACEMENT_3D('',#1128,#1129,#1130);
#1132=CYLINDRICAL_SURFACE('',#1131,2.845864763856E0);
#1133=ORIENTED_EDGE('',*,*,#1056,.F.);
#1134=ORIENTED_EDGE('',*,*,#1123,.T.);
#1135=ORIENTED_EDGE('',*,*,#997,.T.);
#1136=ORIENTED_EDGE('',*,*,#1120,.F.);
#1137=ORIENTED_EDGE('',*,*,#1092,.F.);
#1139=ORIENTED_EDGE('',*,*,#1138,.T.);
#1141=ORIENTED_EDGE('',*,*,#1140,.F.);
#1143=ORIENTED_EDGE('',*,*,#1142,.F.);
#1144=EDGE_LOOP('',(#1133,#1134,#1135,#1136,#1137,#1139,#1141,#1143));
#1145=FACE_OUTER_BOUND('',#1144,.F.);
#1147=CARTESIAN_POINT('',(0.E0,0.E0,1.2E1));
#1148=DIRECTION('',(0.E0,0.E0,1.E0));
#1149=DIRECTION('',(1.E0,0.E0,0.E0));
#1150=AXIS2_PLACEMENT_3D('',#1147,#1148,#1149);
#1151=CYLINDRICAL_SURFACE('',#1150,1.4E1);
#1153=ORIENTED_EDGE('',*,*,#1152,.F.);
#1155=ORIENTED_EDGE('',*,*,#1154,.F.);
#1156=ORIENTED_EDGE('',*,*,#1070,.T.);
#1158=ORIENTED_EDGE('',*,*,#1157,.T.);
#1159=EDGE_LOOP('',(#1153,#1155,#1156,#1158));
#1160=FACE_OUTER_BOUND('',#1159,.F.);
#1162=CARTESIAN_POINT('',(0.E0,0.E0,1.2E1));
#1163=DIRECTION('',(0.E0,0.E0,1.E0));
#1164=DIRECTION('',(1.E0,0.E0,0.E0));
#1165=AXIS2_PLACEMENT_3D('',#1162,#1163,#1164);
#1166=CYLINDRICAL_SURFACE('',#1165,1.4E1);
#1168=ORIENTED_EDGE('',*,*,#1167,.F.);
#1170=ORIENTED_EDGE('',*,*,#1169,.F.);
#1171=ORIENTED_EDGE('',*,*,#1078,.T.);
#1173=ORIENTED_EDGE('',*,*,#1172,.T.);
#1174=EDGE_LOOP('',(#1168,#1170,#1171,#1173));
#1175=FACE_OUTER_BOUND('',#1174,.F.);
#1177=CARTESIAN_POINT('',(0.E0,0.E0,1.2E1));
#1178=DIRECTION('',(0.E0,0.E0,1.E0));
#1179=DIRECTION('',(1.E0,0.E0,0.E0));
#1180=AXIS2_PLACEMENT_3D('',#1177,#1178,#1179);
#1181=CYLINDRICAL_SURFACE('',#1180,1.4E1);
#1183=ORIENTED_EDGE('',*,*,#1182,.T.);
#1185=ORIENTED_EDGE('',*,*,#1184,.F.);
#1186=ORIENTED_EDGE('',*,*,#1064,.T.);
#1188=ORIENTED_EDGE('',*,*,#1187,.F.);
#1189=EDGE_LOOP('',(#1183,#1185,#1186,#1188));
#1190=FACE_OUTER_BOUND('',#1189,.F.);
#1192=CARTESIAN_POINT('',(0.E0,0.E0,1.2E1));
#1193=DIRECTION('',(0.E0,0.E0,1.E0));
#1194=DIRECTION('',(1.E0,0.E0,0.E0));
#1195=AXIS2_PLACEMENT_3D('',#1192,#1193,#1194);
#1196=CYLINDRICAL_SURFACE('',#1195,1.4E1);
#1198=ORIENTED_EDGE('',*,*,#1197,.F.);
#1200=ORIENTED_EDGE('',*,*,#1199,.F.);
#1201=ORIENTED_EDGE('',*,*,#1058,.T.);
#1202=ORIENTED_EDGE('',*,*,#1142,.T.);
#1203=EDGE_LOOP('',(#1198,#1200,#1201,#1202));
#1204=FACE_OUTER_BOUND('',#1203,.F.);
#1206=CARTESIAN_POINT('',(0.E0,0.E0,1.2E1));
#1207=DIRECTION('',(0.E0,0.E0,1.E0));
#1208=DIRECTION('',(1.E0,0.E0,0.E0));
#1209=AXIS2_PLACEMENT_3D('',#1206,#1207,#1208);
#1210=CYLINDRICAL_SURFACE('',#1209,1.4E1);
#1212=ORIENTED_EDGE('',*,*,#1211,.F.);
#1213=ORIENTED_EDGE('',*,*,#1138,.F.);
#1214=ORIENTED_EDGE('',*,*,#1090,.T.);
#1216=ORIENTED_EDGE('',*,*,#1215,.T.);
#1217=EDGE_LOOP('',(#1212,#1213,#1214,#1216));
#1218=FACE_OUTER_BOUND('',#1217,.F.);
#1220=CARTESIAN_POINT('',(0.E0,0.E0,1.2E1));
#1221=DIRECTION('',(0.E0,0.E0,1.E0));
#1222=DIRECTION('',(1.E0,0.E0,0.E0));
#1223=AXIS2_PLACEMENT_3D('',#1220,#1221,#1222);
#1224=CYLINDRICAL_SURFACE('',#1223,1.4E1);
#1225=ORIENTED_EDGE('',*,*,#1084,.T.);
#1227=ORIENTED_EDGE('',*,*,#1226,.F.);
#1229=ORIENTED_EDGE('',*,*,#1228,.T.);
#1231=ORIENTED_EDGE('',*,*,#1230,.F.);
#1232=EDGE_LOOP('',(#1225,#1227,#1229,#1231));
#1233=FACE_OUTER_BOUND('',#1232,.F.);
#1235=CARTESIAN_POINT('',(0.E0,0.E0,1.2E1));
#1236=DIRECTION('',(0.E0,0.E0,1.E0));
#1237=DIRECTION('',(1.E0,0.E0,0.E0));
#1238=AXIS2_PLACEMENT_3D('',#1235,#1236,#1237);
#1239=PLANE('',#1238);
#1241=ORIENTED_EDGE('',*,*,#1240,.F.);
#1243=ORIENTED_EDGE('',*,*,#1242,.F.);
#1244=EDGE_LOOP('',(#1241,#1243));
#1245=FACE_OUTER_BOUND('',#1244,.F.);
#1246=ORIENTED_EDGE('',*,*,#1182,.F.);
#1248=ORIENTED_EDGE('',*,*,#1247,.T.);
#1250=ORIENTED_EDGE('',*,*,#1249,.T.);
#1251=ORIENTED_EDGE('',*,*,#1197,.T.);
#1252=ORIENTED_EDGE('',*,*,#1140,.T.);
#1253=ORIENTED_EDGE('',*,*,#1211,.T.);
#1255=ORIENTED_EDGE('',*,*,#1254,.T.);
#1257=ORIENTED_EDGE('',*,*,#1256,.T.);
#1258=ORIENTED_EDGE('',*,*,#1228,.F.);
#1260=ORIENTED_EDGE('',*,*,#1259,.T.);
#1262=ORIENTED_EDGE('',*,*,#1261,.T.);
#1263=ORIENTED_EDGE('',*,*,#1167,.T.);
#1265=ORIENTED_EDGE('',*,*,#1264,.T.);
#1266=ORIENTED_EDGE('',*,*,#1152,.T.);
#1268=ORIENTED_EDGE('',*,*,#1267,.T.);
#1270=ORIENTED_EDGE('',*,*,#1269,.T.);
#1271=EDGE_LOOP('',(#1246,#1248,#1250,#1251,#1252,#1253,#1255,#1257,#1258,#1260,
#1262,#1263,#1265,#1266,#1268,#1270));
#1272=FACE_BOUND('',#1271,.F.);
#1274=CARTESIAN_POINT('',(0.E0,0.E0,0.E0));
#1275=DIRECTION('',(0.E0,0.E0,1.E0));
#1276=DIRECTION('',(1.E0,0.E0,0.E0));
#1277=AXIS2_PLACEMENT_3D('',#1274,#1275,#1276);
#1278=CYLINDRICAL_SURFACE('',#1277,1.85E1);
#1280=ORIENTED_EDGE('',*,*,#1279,.F.);
#1282=ORIENTED_EDGE('',*,*,#1281,.F.);
#1284=ORIENTED_EDGE('',*,*,#1283,.F.);
#1285=ORIENTED_EDGE('',*,*,#985,.F.);
#1287=ORIENTED_EDGE('',*,*,#1286,.T.);
#1289=ORIENTED_EDGE('',*,*,#1288,.T.);
#1291=ORIENTED_EDGE('',*,*,#1290,.T.);
#1293=ORIENTED_EDGE('',*,*,#1292,.F.);
#1295=ORIENTED_EDGE('',*,*,#1294,.T.);
#1296=ORIENTED_EDGE('',*,*,#1240,.T.);
#1297=EDGE_LOOP('',(#1280,#1282,#1284,#1285,#1287,#1289,#1291,#1293,#1295,
#1296));
#1298=FACE_OUTER_BOUND('',#1297,.F.);
#1300=ORIENTED_EDGE('',*,*,#1299,.T.);
#1302=ORIENTED_EDGE('',*,*,#1301,.T.);
#1304=ORIENTED_EDGE('',*,*,#1303,.F.);
#1306=ORIENTED_EDGE('',*,*,#1305,.F.);
#1307=EDGE_LOOP('',(#1300,#1302,#1304,#1306));
#1308=FACE_BOUND('',#1307,.F.);
#1310=CARTESIAN_POINT('',(0.E0,0.E0,4.E0));
#1311=DIRECTION('',(0.E0,0.E0,1.E0));
#1312=DIRECTION('',(0.E0,1.E0,0.E0));
#1313=AXIS2_PLACEMENT_3D('',#1310,#1311,#1312);
#1314=TOROIDAL_SURFACE('',#1313,1.85E1,1.5E0);
#1316=ORIENTED_EDGE('',*,*,#1315,.T.);
#1317=ORIENTED_EDGE('',*,*,#1303,.T.);
#1319=ORIENTED_EDGE('',*,*,#1318,.F.);
#1321=ORIENTED_EDGE('',*,*,#1320,.F.);
#1322=EDGE_LOOP('',(#1316,#1317,#1319,#1321));
#1323=FACE_OUTER_BOUND('',#1322,.F.);
#1325=CARTESIAN_POINT('',(0.E0,0.E0,4.E0));
#1326=DIRECTION('',(0.E0,0.E0,1.E0));
#1327=DIRECTION('',(0.E0,1.E0,0.E0));
#1328=AXIS2_PLACEMENT_3D('',#1325,#1326,#1327);
#1329=TOROIDAL_SURFACE('',#1328,1.85E1,1.5E0);
#1331=ORIENTED_EDGE('',*,*,#1330,.T.);
#1333=ORIENTED_EDGE('',*,*,#1332,.T.);
#1335=ORIENTED_EDGE('',*,*,#1334,.F.);
#1336=ORIENTED_EDGE('',*,*,#1299,.F.);
#1337=EDGE_LOOP('',(#1331,#1333,#1335,#1336));
#1338=FACE_OUTER_BOUND('',#1337,.F.);
#1340=CARTESIAN_POINT('',(0.E0,0.E0,4.E0));
#1341=DIRECTION('',(0.E0,0.E0,1.E0));
#1342=DIRECTION('',(0.E0,1.E0,0.E0));
#1343=AXIS2_PLACEMENT_3D('',#1340,#1341,#1342);
#1344=TOROIDAL_SURFACE('',#1343,1.85E1,1.5E0);
#1346=ORIENTED_EDGE('',*,*,#1345,.T.);
#1348=ORIENTED_EDGE('',*,*,#1347,.T.);
#1350=ORIENTED_EDGE('',*,*,#1349,.F.);
#1352=ORIENTED_EDGE('',*,*,#1351,.F.);
#1353=EDGE_LOOP('',(#1346,#1348,#1350,#1352));
#1354=FACE_OUTER_BOUND('',#1353,.F.);
#1356=CARTESIAN_POINT('',(0.E0,0.E0,4.E0));
#1357=DIRECTION('',(0.E0,0.E0,1.E0));
#1358=DIRECTION('',(0.E0,1.E0,0.E0));
#1359=AXIS2_PLACEMENT_3D('',#1356,#1357,#1358);
#1360=TOROIDAL_SURFACE('',#1359,1.85E1,1.5E0);
#1362=ORIENTED_EDGE('',*,*,#1361,.T.);
#1364=ORIENTED_EDGE('',*,*,#1363,.T.);
#1366=ORIENTED_EDGE('',*,*,#1365,.F.);
#1368=ORIENTED_EDGE('',*,*,#1367,.F.);
#1369=EDGE_LOOP('',(#1362,#1364,#1366,#1368));
#1370=FACE_OUTER_BOUND('',#1369,.F.);
#1372=CARTESIAN_POINT('',(0.E0,2.072215471172E1,0.E0));
#1373=DIRECTION('',(-1.E0,0.E0,0.E0));
#1374=DIRECTION('',(0.E0,-1.E0,0.E0));
#1375=AXIS2_PLACEMENT_3D('',#1372,#1373,#1374);
#1376=PLANE('',#1375);
#1377=ORIENTED_EDGE('',*,*,#1315,.F.);
#1379=ORIENTED_EDGE('',*,*,#1378,.F.);
#1381=ORIENTED_EDGE('',*,*,#1380,.F.);
#1383=ORIENTED_EDGE('',*,*,#1382,.F.);
#1384=ORIENTED_EDGE('',*,*,#1330,.F.);
#1385=ORIENTED_EDGE('',*,*,#1305,.T.);
#1386=EDGE_LOOP('',(#1377,#1379,#1381,#1383,#1384,#1385));
#1387=FACE_OUTER_BOUND('',#1386,.F.);
#1389=CARTESIAN_POINT('',(0.E0,0.E0,4.916515138991E0));
#1390=DIRECTION('',(0.E0,0.E0,1.E0));
#1391=DIRECTION('',(4.451812366836E-3,9.999900906342E-1,0.E0));
#1392=AXIS2_PLACEMENT_3D('',#1389,#1390,#1391);
#1393=TOROIDAL_SURFACE('',#1392,1.89E1,5.E-1);
#1394=ORIENTED_EDGE('',*,*,#1378,.T.);
#1395=ORIENTED_EDGE('',*,*,#1320,.T.);
#1397=ORIENTED_EDGE('',*,*,#1396,.F.);
#1399=ORIENTED_EDGE('',*,*,#1398,.F.);
#1400=EDGE_LOOP('',(#1394,#1395,#1397,#1399));
#1401=FACE_OUTER_BOUND('',#1400,.F.);
#1403=CARTESIAN_POINT('',(0.E0,0.E0,4.916515138991E0));
#1404=DIRECTION('',(0.E0,0.E0,1.E0));
#1405=DIRECTION('',(4.451812366836E-3,9.999900906342E-1,0.E0));
#1406=AXIS2_PLACEMENT_3D('',#1403,#1404,#1405);
#1407=TOROIDAL_SURFACE('',#1406,1.89E1,5.E-1);
#1409=ORIENTED_EDGE('',*,*,#1408,.T.);
#1410=ORIENTED_EDGE('',*,*,#1351,.T.);
#1412=ORIENTED_EDGE('',*,*,#1411,.F.);
#1414=ORIENTED_EDGE('',*,*,#1413,.F.);
#1415=EDGE_LOOP('',(#1409,#1410,#1412,#1414));
#1416=FACE_OUTER_BOUND('',#1415,.F.);
#1418=CARTESIAN_POINT('',(-1.308147545195E1,1.308147545195E1,0.E0));
#1419=DIRECTION('',(7.071067811865E-1,7.071067811865E-1,0.E0));
#1420=DIRECTION('',(-7.071067811865E-1,7.071067811865E-1,0.E0));
#1421=AXIS2_PLACEMENT_3D('',#1418,#1419,#1420);
#1422=PLANE('',#1421);
#1423=ORIENTED_EDGE('',*,*,#1318,.T.);
#1424=ORIENTED_EDGE('',*,*,#1301,.F.);
#1425=ORIENTED_EDGE('',*,*,#1334,.T.);
#1427=ORIENTED_EDGE('',*,*,#1426,.T.);
#1429=ORIENTED_EDGE('',*,*,#1428,.T.);
#1430=ORIENTED_EDGE('',*,*,#1396,.T.);
#1431=EDGE_LOOP('',(#1423,#1424,#1425,#1427,#1429,#1430));
#1432=FACE_OUTER_BOUND('',#1431,.F.);
#1434=CARTESIAN_POINT('',(0.E0,0.E0,3.083484861009E0));
#1435=DIRECTION('',(0.E0,0.E0,1.E0));
#1436=DIRECTION('',(4.666515077265E-3,9.999891117592E-1,0.E0));
#1437=AXIS2_PLACEMENT_3D('',#1434,#1435,#1436);
#1438=TOROIDAL_SURFACE('',#1437,1.89E1,5.E-1);
#1439=ORIENTED_EDGE('',*,*,#1382,.T.);
#1441=ORIENTED_EDGE('',*,*,#1440,.T.);
#1442=ORIENTED_EDGE('',*,*,#1426,.F.);
#1443=ORIENTED_EDGE('',*,*,#1332,.F.);
#1444=EDGE_LOOP('',(#1439,#1441,#1442,#1443));
#1445=FACE_OUTER_BOUND('',#1444,.F.);
#1447=CARTESIAN_POINT('',(0.E0,0.E0,3.083484861009E0));
#1448=DIRECTION('',(0.E0,0.E0,1.E0));
#1449=DIRECTION('',(4.666515077265E-3,9.999891117592E-1,0.E0));
#1450=AXIS2_PLACEMENT_3D('',#1447,#1448,#1449);
#1451=TOROIDAL_SURFACE('',#1450,1.89E1,5.E-1);
#1453=ORIENTED_EDGE('',*,*,#1452,.T.);
#1455=ORIENTED_EDGE('',*,*,#1454,.T.);
#1457=ORIENTED_EDGE('',*,*,#1456,.F.);
#1458=ORIENTED_EDGE('',*,*,#1363,.F.);
#1459=EDGE_LOOP('',(#1453,#1455,#1457,#1458));
#1460=FACE_OUTER_BOUND('',#1459,.F.);
#1462=CARTESIAN_POINT('',(0.E0,0.E0,0.E0));
#1463=DIRECTION('',(0.E0,0.E0,1.E0));
#1464=DIRECTION('',(0.E0,1.E0,0.E0));
#1465=AXIS2_PLACEMENT_3D('',#1462,#1463,#1464);
#1466=CYLINDRICAL_SURFACE('',#1465,1.94E1);
#1467=ORIENTED_EDGE('',*,*,#1380,.T.);
#1468=ORIENTED_EDGE('',*,*,#1398,.T.);
#1469=ORIENTED_EDGE('',*,*,#1428,.F.);
#1470=ORIENTED_EDGE('',*,*,#1440,.F.);
#1471=EDGE_LOOP('',(#1467,#1468,#1469,#1470));
#1472=FACE_OUTER_BOUND('',#1471,.F.);
#1474=CARTESIAN_POINT('',(0.E0,0.E0,0.E0));
#1475=DIRECTION('',(0.E0,0.E0,1.E0));
#1476=DIRECTION('',(0.E0,1.E0,0.E0));
#1477=AXIS2_PLACEMENT_3D('',#1474,#1475,#1476);
#1478=CYLINDRICAL_SURFACE('',#1477,1.94E1);
#1480=ORIENTED_EDGE('',*,*,#1479,.T.);
#1481=ORIENTED_EDGE('',*,*,#1413,.T.);
#1483=ORIENTED_EDGE('',*,*,#1482,.F.);
#1484=ORIENTED_EDGE('',*,*,#1454,.F.);
#1485=EDGE_LOOP('',(#1480,#1481,#1483,#1484));
#1486=FACE_OUTER_BOUND('',#1485,.F.);
#1488=CARTESIAN_POINT('',(-2.072215471172E1,0.E0,0.E0));
#1489=DIRECTION('',(0.E0,-1.E0,0.E0));
#1490=DIRECTION('',(1.E0,0.E0,0.E0));
#1491=AXIS2_PLACEMENT_3D('',#1488,#1489,#1490);
#1492=PLANE('',#1491);
#1493=ORIENTED_EDGE('',*,*,#1345,.F.);
#1494=ORIENTED_EDGE('',*,*,#1408,.F.);
#1495=ORIENTED_EDGE('',*,*,#1479,.F.);
#1496=ORIENTED_EDGE('',*,*,#1452,.F.);
#1497=ORIENTED_EDGE('',*,*,#1361,.F.);
#1498=ORIENTED_EDGE('',*,*,#1281,.T.);
#1499=EDGE_LOOP('',(#1493,#1494,#1495,#1496,#1497,#1498));
#1500=FACE_OUTER_BOUND('',#1499,.F.);
#1502=CARTESIAN_POINT('',(-1.308147545195E1,-1.308147545195E1,0.E0));
#1503=DIRECTION('',(-7.071067811865E-1,7.071067811865E-1,0.E0));
#1504=DIRECTION('',(-7.071067811865E-1,-7.071067811865E-1,0.E0));
#1505=AXIS2_PLACEMENT_3D('',#1502,#1503,#1504);
#1506=PLANE('',#1505);
#1507=ORIENTED_EDGE('',*,*,#1349,.T.);
#1509=ORIENTED_EDGE('',*,*,#1508,.F.);
#1510=ORIENTED_EDGE('',*,*,#1365,.T.);
#1511=ORIENTED_EDGE('',*,*,#1456,.T.);
#1512=ORIENTED_EDGE('',*,*,#1482,.T.);
#1513=ORIENTED_EDGE('',*,*,#1411,.T.);
#1514=EDGE_LOOP('',(#1507,#1509,#1510,#1511,#1512,#1513));
#1515=FACE_OUTER_BOUND('',#1514,.F.);
#1517=CARTESIAN_POINT('',(0.E0,0.E0,0.E0));
#1518=DIRECTION('',(0.E0,0.E0,1.E0));
#1519=DIRECTION('',(1.E0,0.E0,0.E0));
#1520=AXIS2_PLACEMENT_3D('',#1517,#1518,#1519);
#1521=CYLINDRICAL_SURFACE('',#1520,1.85E1);
#1522=ORIENTED_EDGE('',*,*,#1294,.F.);
#1524=ORIENTED_EDGE('',*,*,#1523,.F.);
#1525=ORIENTED_EDGE('',*,*,#1286,.F.);
#1526=ORIENTED_EDGE('',*,*,#987,.F.);
#1527=ORIENTED_EDGE('',*,*,#1283,.T.);
#1528=ORIENTED_EDGE('',*,*,#1367,.T.);
#1529=ORIENTED_EDGE('',*,*,#1508,.T.);
#1530=ORIENTED_EDGE('',*,*,#1347,.F.);
#1531=ORIENTED_EDGE('',*,*,#1279,.T.);
#1532=ORIENTED_EDGE('',*,*,#1242,.T.);
#1533=EDGE_LOOP('',(#1522,#1524,#1525,#1526,#1527,#1528,#1529,#1530,#1531,
#1532));
#1534=FACE_OUTER_BOUND('',#1533,.F.);
#1536=ORIENTED_EDGE('',*,*,#1535,.T.);
#1538=ORIENTED_EDGE('',*,*,#1537,.T.);
#1540=ORIENTED_EDGE('',*,*,#1539,.F.);
#1542=ORIENTED_EDGE('',*,*,#1541,.F.);
#1543=EDGE_LOOP('',(#1536,#1538,#1540,#1542));
#1544=FACE_BOUND('',#1543,.F.);
#1546=CARTESIAN_POINT('',(0.E0,0.E0,4.E0));
#1547=DIRECTION('',(0.E0,0.E0,1.E0));
#1548=DIRECTION('',(0.E0,1.E0,0.E0));
#1549=AXIS2_PLACEMENT_3D('',#1546,#1547,#1548);
#1550=TOROIDAL_SURFACE('',#1549,1.85E1,1.5E0);
#1552=ORIENTED_EDGE('',*,*,#1551,.T.);
#1553=ORIENTED_EDGE('',*,*,#1539,.T.);
#1555=ORIENTED_EDGE('',*,*,#1554,.F.);
#1557=ORIENTED_EDGE('',*,*,#1556,.F.);
#1558=EDGE_LOOP('',(#1552,#1553,#1555,#1557));
#1559=FACE_OUTER_BOUND('',#1558,.F.);
#1561=CARTESIAN_POINT('',(0.E0,0.E0,4.E0));
#1562=DIRECTION('',(0.E0,0.E0,1.E0));
#1563=DIRECTION('',(0.E0,1.E0,0.E0));
#1564=AXIS2_PLACEMENT_3D('',#1561,#1562,#1563);
#1565=TOROIDAL_SURFACE('',#1564,1.85E1,1.5E0);
#1567=ORIENTED_EDGE('',*,*,#1566,.T.);
#1569=ORIENTED_EDGE('',*,*,#1568,.T.);
#1571=ORIENTED_EDGE('',*,*,#1570,.F.);
#1572=ORIENTED_EDGE('',*,*,#1535,.F.);
#1573=EDGE_LOOP('',(#1567,#1569,#1571,#1572));
#1574=FACE_OUTER_BOUND('',#1573,.F.);
#1576=CARTESIAN_POINT('',(0.E0,0.E0,4.E0));
#1577=DIRECTION('',(0.E0,0.E0,1.E0));
#1578=DIRECTION('',(0.E0,1.E0,0.E0));
#1579=AXIS2_PLACEMENT_3D('',#1576,#1577,#1578);
#1580=TOROIDAL_SURFACE('',#1579,1.85E1,1.5E0);
#1582=ORIENTED_EDGE('',*,*,#1581,.F.);
#1584=ORIENTED_EDGE('',*,*,#1583,.F.);
#1586=ORIENTED_EDGE('',*,*,#1585,.T.);
#1587=ORIENTED_EDGE('',*,*,#1292,.T.);
#1588=EDGE_LOOP('',(#1582,#1584,#1586,#1587));
#1589=FACE_OUTER_BOUND('',#1588,.F.);
#1591=CARTESIAN_POINT('',(0.E0,0.E0,4.E0));
#1592=DIRECTION('',(0.E0,0.E0,1.E0));
#1593=DIRECTION('',(0.E0,1.E0,0.E0));
#1594=AXIS2_PLACEMENT_3D('',#1591,#1592,#1593);
#1595=TOROIDAL_SURFACE('',#1594,1.85E1,1.5E0);
#1597=ORIENTED_EDGE('',*,*,#1596,.F.);
#1598=ORIENTED_EDGE('',*,*,#1288,.F.);
#1600=ORIENTED_EDGE('',*,*,#1599,.T.);
#1602=ORIENTED_EDGE('',*,*,#1601,.T.);
#1603=EDGE_LOOP('',(#1597,#1598,#1600,#1602));
#1604=FACE_OUTER_BOUND('',#1603,.F.);
#1606=CARTESIAN_POINT('',(0.E0,-2.072215471172E1,0.E0));
#1607=DIRECTION('',(1.E0,0.E0,0.E0));
#1608=DIRECTION('',(0.E0,1.E0,0.E0));
#1609=AXIS2_PLACEMENT_3D('',#1606,#1607,#1608);
#1610=PLANE('',#1609);
#1611=ORIENTED_EDGE('',*,*,#1551,.F.);
#1613=ORIENTED_EDGE('',*,*,#1612,.F.);
#1615=ORIENTED_EDGE('',*,*,#1614,.F.);
#1617=ORIENTED_EDGE('',*,*,#1616,.F.);
#1618=ORIENTED_EDGE('',*,*,#1566,.F.);
#1619=ORIENTED_EDGE('',*,*,#1541,.T.);
#1620=EDGE_LOOP('',(#1611,#1613,#1615,#1617,#1618,#1619));
#1621=FACE_OUTER_BOUND('',#1620,.F.);
#1623=CARTESIAN_POINT('',(0.E0,0.E0,4.916515138991E0));
#1624=DIRECTION('',(0.E0,0.E0,1.E0));
#1625=DIRECTION('',(-4.451812366837E-3,-9.999900906342E-1,0.E0));
#1626=AXIS2_PLACEMENT_3D('',#1623,#1624,#1625);
#1627=TOROIDAL_SURFACE('',#1626,1.89E1,5.E-1);
#1629=ORIENTED_EDGE('',*,*,#1628,.F.);
#1631=ORIENTED_EDGE('',*,*,#1630,.F.);
#1633=ORIENTED_EDGE('',*,*,#1632,.T.);
#1634=ORIENTED_EDGE('',*,*,#1583,.T.);
#1635=EDGE_LOOP('',(#1629,#1631,#1633,#1634));
#1636=FACE_OUTER_BOUND('',#1635,.F.);
#1638=CARTESIAN_POINT('',(0.E0,0.E0,4.916515138991E0));
#1639=DIRECTION('',(0.E0,0.E0,1.E0));
#1640=DIRECTION('',(-4.451812366837E-3,-9.999900906342E-1,0.E0));
#1641=AXIS2_PLACEMENT_3D('',#1638,#1639,#1640);
#1642=TOROIDAL_SURFACE('',#1641,1.89E1,5.E-1);
#1643=ORIENTED_EDGE('',*,*,#1612,.T.);
#1644=ORIENTED_EDGE('',*,*,#1556,.T.);
#1646=ORIENTED_EDGE('',*,*,#1645,.F.);
#1648=ORIENTED_EDGE('',*,*,#1647,.F.);
#1649=EDGE_LOOP('',(#1643,#1644,#1646,#1648));
#1650=FACE_OUTER_BOUND('',#1649,.F.);
#1652=CARTESIAN_POINT('',(1.308147545195E1,1.308147545195E1,0.E0));
#1653=DIRECTION('',(7.071067811865E-1,-7.071067811865E-1,0.E0));
#1654=DIRECTION('',(7.071067811865E-1,7.071067811865E-1,0.E0));
#1655=AXIS2_PLACEMENT_3D('',#1652,#1653,#1654);
#1656=PLANE('',#1655);
#1657=ORIENTED_EDGE('',*,*,#1581,.T.);
#1658=ORIENTED_EDGE('',*,*,#1290,.F.);
#1659=ORIENTED_EDGE('',*,*,#1596,.T.);
#1661=ORIENTED_EDGE('',*,*,#1660,.T.);
#1663=ORIENTED_EDGE('',*,*,#1662,.T.);
#1664=ORIENTED_EDGE('',*,*,#1628,.T.);
#1665=EDGE_LOOP('',(#1657,#1658,#1659,#1661,#1663,#1664));
#1666=FACE_OUTER_BOUND('',#1665,.F.);
#1668=CARTESIAN_POINT('',(0.E0,0.E0,3.083484861009E0));
#1669=DIRECTION('',(0.E0,0.E0,1.E0));
#1670=DIRECTION('',(-4.666515077266E-3,-9.999891117592E-1,0.E0));
#1671=AXIS2_PLACEMENT_3D('',#1668,#1669,#1670);
#1672=TOROIDAL_SURFACE('',#1671,1.89E1,5.E-1);
#1673=ORIENTED_EDGE('',*,*,#1660,.F.);
#1674=ORIENTED_EDGE('',*,*,#1601,.F.);
#1676=ORIENTED_EDGE('',*,*,#1675,.T.);
#1678=ORIENTED_EDGE('',*,*,#1677,.T.);
#1679=EDGE_LOOP('',(#1673,#1674,#1676,#1678));
#1680=FACE_OUTER_BOUND('',#1679,.F.);
#1682=CARTESIAN_POINT('',(0.E0,0.E0,3.083484861009E0));
#1683=DIRECTION('',(0.E0,0.E0,1.E0));
#1684=DIRECTION('',(-4.666515077266E-3,-9.999891117592E-1,0.E0));
#1685=AXIS2_PLACEMENT_3D('',#1682,#1683,#1684);
#1686=TOROIDAL_SURFACE('',#1685,1.89E1,5.E-1);
#1687=ORIENTED_EDGE('',*,*,#1616,.T.);
#1689=ORIENTED_EDGE('',*,*,#1688,.T.);
#1691=ORIENTED_EDGE('',*,*,#1690,.F.);
#1692=ORIENTED_EDGE('',*,*,#1568,.F.);
#1693=EDGE_LOOP('',(#1687,#1689,#1691,#1692));
#1694=FACE_OUTER_BOUND('',#1693,.F.);
#1696=CARTESIAN_POINT('',(2.072215471172E1,0.E0,0.E0));
#1697=DIRECTION('',(0.E0,1.E0,0.E0));
#1698=DIRECTION('',(-1.E0,0.E0,0.E0));
#1699=AXIS2_PLACEMENT_3D('',#1696,#1697,#1698);
#1700=PLANE('',#1699);
#1701=ORIENTED_EDGE('',*,*,#1585,.F.);
#1702=ORIENTED_EDGE('',*,*,#1632,.F.);
#1704=ORIENTED_EDGE('',*,*,#1703,.F.);
#1705=ORIENTED_EDGE('',*,*,#1675,.F.);
#1706=ORIENTED_EDGE('',*,*,#1599,.F.);
#1707=ORIENTED_EDGE('',*,*,#1523,.T.);
#1708=EDGE_LOOP('',(#1701,#1702,#1704,#1705,#1706,#1707));
#1709=FACE_OUTER_BOUND('',#1708,.F.);
#1711=CARTESIAN_POINT('',(0.E0,0.E0,0.E0));
#1712=DIRECTION('',(0.E0,0.E0,1.E0));
#1713=DIRECTION('',(0.E0,1.E0,0.E0));
#1714=AXIS2_PLACEMENT_3D('',#1711,#1712,#1713);
#1715=CYLINDRICAL_SURFACE('',#1714,1.94E1);
#1716=ORIENTED_EDGE('',*,*,#1614,.T.);
#1717=ORIENTED_EDGE('',*,*,#1647,.T.);
#1719=ORIENTED_EDGE('',*,*,#1718,.F.);
#1720=ORIENTED_EDGE('',*,*,#1688,.F.);
#1721=EDGE_LOOP('',(#1716,#1717,#1719,#1720));
#1722=FACE_OUTER_BOUND('',#1721,.F.);
#1724=CARTESIAN_POINT('',(0.E0,0.E0,0.E0));
#1725=DIRECTION('',(0.E0,0.E0,1.E0));
#1726=DIRECTION('',(0.E0,1.E0,0.E0));
#1727=AXIS2_PLACEMENT_3D('',#1724,#1725,#1726);
#1728=CYLINDRICAL_SURFACE('',#1727,1.94E1);
#1729=ORIENTED_EDGE('',*,*,#1662,.F.);
#1730=ORIENTED_EDGE('',*,*,#1677,.F.);
#1731=ORIENTED_EDGE('',*,*,#1703,.T.);
#1732=ORIENTED_EDGE('',*,*,#1630,.T.);
#1733=EDGE_LOOP('',(#1729,#1730,#1731,#1732));
#1734=FACE_OUTER_BOUND('',#1733,.F.);
#1736=CARTESIAN_POINT('',(1.308147545195E1,-1.308147545195E1,0.E0));
#1737=DIRECTION('',(-7.071067811865E-1,-7.071067811865E-1,0.E0));
#1738=DIRECTION('',(7.071067811865E-1,-7.071067811865E-1,0.E0));
#1739=AXIS2_PLACEMENT_3D('',#1736,#1737,#1738);
#1740=PLANE('',#1739);
#1741=ORIENTED_EDGE('',*,*,#1554,.T.);
#1742=ORIENTED_EDGE('',*,*,#1537,.F.);
#1743=ORIENTED_EDGE('',*,*,#1570,.T.);
#1744=ORIENTED_EDGE('',*,*,#1690,.T.);
#1745=ORIENTED_EDGE('',*,*,#1718,.T.);
#1746=ORIENTED_EDGE('',*,*,#1645,.T.);
#1747=EDGE_LOOP('',(#1741,#1742,#1743,#1744,#1745,#1746));
#1748=FACE_OUTER_BOUND('',#1747,.F.);
#1750=CARTESIAN_POINT('',(1.090599999802E1,6.296582034639E0,1.2E1));
#1751=DIRECTION('',(0.E0,0.E0,1.E0));
#1752=DIRECTION('',(1.E0,0.E0,0.E0));
#1753=AXIS2_PLACEMENT_3D('',#1750,#1751,#1752);
#1754=CYLINDRICAL_SURFACE('',#1753,2.845864763856E0);
#1755=ORIENTED_EDGE('',*,*,#1062,.F.);
#1757=ORIENTED_EDGE('',*,*,#1756,.T.);
#1758=ORIENTED_EDGE('',*,*,#1017,.T.);
#1760=ORIENTED_EDGE('',*,*,#1759,.F.);
#1761=ORIENTED_EDGE('',*,*,#1247,.F.);
#1762=ORIENTED_EDGE('',*,*,#1187,.T.);
#1763=EDGE_LOOP('',(#1755,#1757,#1758,#1760,#1761,#1762));
#1764=FACE_OUTER_BOUND('',#1763,.F.);
#1766=CARTESIAN_POINT('',(1.090599999802E1,6.296582034639E0,1.2E1));
#1767=DIRECTION('',(0.E0,0.E0,1.E0));
#1768=DIRECTION('',(1.E0,0.E0,0.E0));
#1769=AXIS2_PLACEMENT_3D('',#1766,#1767,#1768);
#1770=CYLINDRICAL_SURFACE('',#1769,2.845864763856E0);
#1771=ORIENTED_EDGE('',*,*,#1060,.F.);
#1772=ORIENTED_EDGE('',*,*,#1199,.T.);
#1773=ORIENTED_EDGE('',*,*,#1249,.F.);
#1774=ORIENTED_EDGE('',*,*,#1759,.T.);
#1775=ORIENTED_EDGE('',*,*,#1015,.T.);
#1776=ORIENTED_EDGE('',*,*,#1756,.F.);
#1777=EDGE_LOOP('',(#1771,#1772,#1773,#1774,#1775,#1776));
#1778=FACE_OUTER_BOUND('',#1777,.F.);
#1780=CARTESIAN_POINT('',(-1.090599999802E1,6.296582034639E0,1.2E1));
#1781=DIRECTION('',(0.E0,0.E0,1.E0));
#1782=DIRECTION('',(1.E0,0.E0,0.E0));
#1783=AXIS2_PLACEMENT_3D('',#1780,#1781,#1782);
#1784=CYLINDRICAL_SURFACE('',#1783,2.845864763856E0);
#1785=ORIENTED_EDGE('',*,*,#1088,.F.);
#1787=ORIENTED_EDGE('',*,*,#1786,.T.);
#1788=ORIENTED_EDGE('',*,*,#1009,.T.);
#1790=ORIENTED_EDGE('',*,*,#1789,.F.);
#1791=ORIENTED_EDGE('',*,*,#1254,.F.);
#1792=ORIENTED_EDGE('',*,*,#1215,.F.);
#1793=EDGE_LOOP('',(#1785,#1787,#1788,#1790,#1791,#1792));
#1794=FACE_OUTER_BOUND('',#1793,.F.);
#1796=CARTESIAN_POINT('',(-1.090599999802E1,6.296582034639E0,1.2E1));
#1797=DIRECTION('',(0.E0,0.E0,1.E0));
#1798=DIRECTION('',(1.E0,0.E0,0.E0));
#1799=AXIS2_PLACEMENT_3D('',#1796,#1797,#1798);
#1800=CYLINDRICAL_SURFACE('',#1799,2.845864763856E0);
#1801=ORIENTED_EDGE('',*,*,#1086,.F.);
#1802=ORIENTED_EDGE('',*,*,#1230,.T.);
#1803=ORIENTED_EDGE('',*,*,#1256,.F.);
#1804=ORIENTED_EDGE('',*,*,#1789,.T.);
#1805=ORIENTED_EDGE('',*,*,#1011,.T.);
#1806=ORIENTED_EDGE('',*,*,#1786,.F.);
#1807=EDGE_LOOP('',(#1801,#1802,#1803,#1804,#1805,#1806));
#1808=FACE_OUTER_BOUND('',#1807,.F.);
#1810=CARTESIAN_POINT('',(-1.090599999802E1,-6.296582034639E0,1.2E1));
#1811=DIRECTION('',(0.E0,0.E0,1.E0));
#1812=DIRECTION('',(1.E0,0.E0,0.E0));
#1813=AXIS2_PLACEMENT_3D('',#1810,#1811,#1812);
#1814=CYLINDRICAL_SURFACE('',#1813,2.845864763856E0);
#1815=ORIENTED_EDGE('',*,*,#1082,.F.);
#1817=ORIENTED_EDGE('',*,*,#1816,.T.);
#1818=ORIENTED_EDGE('',*,*,#1027,.T.);
#1820=ORIENTED_EDGE('',*,*,#1819,.F.);
#1821=ORIENTED_EDGE('',*,*,#1259,.F.);
#1822=ORIENTED_EDGE('',*,*,#1226,.T.);
#1823=EDGE_LOOP('',(#1815,#1817,#1818,#1820,#1821,#1822));
#1824=FACE_OUTER_BOUND('',#1823,.F.);
#1826=CARTESIAN_POINT('',(-1.090599999802E1,-6.296582034639E0,1.2E1));
#1827=DIRECTION('',(0.E0,0.E0,1.E0));
#1828=DIRECTION('',(1.E0,0.E0,0.E0));
#1829=AXIS2_PLACEMENT_3D('',#1826,#1827,#1828);
#1830=CYLINDRICAL_SURFACE('',#1829,2.845864763856E0);
#1831=ORIENTED_EDGE('',*,*,#1080,.F.);
#1832=ORIENTED_EDGE('',*,*,#1169,.T.);
#1833=ORIENTED_EDGE('',*,*,#1261,.F.);
#1834=ORIENTED_EDGE('',*,*,#1819,.T.);
#1835=ORIENTED_EDGE('',*,*,#1029,.T.);
#1836=ORIENTED_EDGE('',*,*,#1816,.F.);
#1837=EDGE_LOOP('',(#1831,#1832,#1833,#1834,#1835,#1836));
#1838=FACE_OUTER_BOUND('',#1837,.F.);
#1840=CARTESIAN_POINT('',(0.E0,-1.259316406928E1,1.2E1));
#1841=DIRECTION('',(0.E0,0.E0,1.E0));
#1842=DIRECTION('',(1.E0,0.E0,0.E0));
#1843=AXIS2_PLACEMENT_3D('',#1840,#1841,#1842);
#1844=CYLINDRICAL_SURFACE('',#1843,2.845864763856E0);
#1845=ORIENTED_EDGE('',*,*,#1076,.F.);
#1847=ORIENTED_EDGE('',*,*,#1846,.T.);
#1848=ORIENTED_EDGE('',*,*,#1005,.T.);
#1850=ORIENTED_EDGE('',*,*,#1849,.F.);
#1851=ORIENTED_EDGE('',*,*,#1072,.F.);
#1852=ORIENTED_EDGE('',*,*,#1154,.T.);
#1853=ORIENTED_EDGE('',*,*,#1264,.F.);
#1854=ORIENTED_EDGE('',*,*,#1172,.F.);
#1855=EDGE_LOOP('',(#1845,#1847,#1848,#1850,#1851,#1852,#1853,#1854));
#1856=FACE_OUTER_BOUND('',#1855,.F.);
#1858=CARTESIAN_POINT('',(0.E0,-1.259316406928E1,1.2E1));
#1859=DIRECTION('',(0.E0,0.E0,1.E0));
#1860=DIRECTION('',(1.E0,0.E0,0.E0));
#1861=AXIS2_PLACEMENT_3D('',#1858,#1859,#1860);
#1862=CYLINDRICAL_SURFACE('',#1861,2.845864763856E0);
#1863=ORIENTED_EDGE('',*,*,#1074,.F.);
#1864=ORIENTED_EDGE('',*,*,#1849,.T.);
#1865=ORIENTED_EDGE('',*,*,#1003,.T.);
#1866=ORIENTED_EDGE('',*,*,#1846,.F.);
#1867=EDGE_LOOP('',(#1863,#1864,#1865,#1866));
#1868=FACE_OUTER_BOUND('',#1867,.F.);
#1870=CARTESIAN_POINT('',(1.090599999802E1,-6.296582034639E0,1.2E1));
#1871=DIRECTION('',(0.E0,0.E0,1.E0));
#1872=DIRECTION('',(1.E0,0.E0,0.E0));
#1873=AXIS2_PLACEMENT_3D('',#1870,#1871,#1872);
#1874=CYLINDRICAL_SURFACE('',#1873,2.845864763856E0);
#1875=ORIENTED_EDGE('',*,*,#1068,.F.);
#1877=ORIENTED_EDGE('',*,*,#1876,.T.);
#1878=ORIENTED_EDGE('',*,*,#1023,.T.);
#1880=ORIENTED_EDGE('',*,*,#1879,.F.);
#1881=ORIENTED_EDGE('',*,*,#1267,.F.);
#1882=ORIENTED_EDGE('',*,*,#1157,.F.);
#1883=EDGE_LOOP('',(#1875,#1877,#1878,#1880,#1881,#1882));
#1884=FACE_OUTER_BOUND('',#1883,.F.);
#1886=CARTESIAN_POINT('',(1.090599999802E1,-6.296582034639E0,1.2E1));
#1887=DIRECTION('',(0.E0,0.E0,1.E0));
#1888=DIRECTION('',(1.E0,0.E0,0.E0));
#1889=AXIS2_PLACEMENT_3D('',#1886,#1887,#1888);
#1890=CYLINDRICAL_SURFACE('',#1889,2.845864763856E0);
#1891=ORIENTED_EDGE('',*,*,#1066,.F.);
#1892=ORIENTED_EDGE('',*,*,#1184,.T.);
#1893=ORIENTED_EDGE('',*,*,#1269,.F.);
#1894=ORIENTED_EDGE('',*,*,#1879,.T.);
#1895=ORIENTED_EDGE('',*,*,#1021,.T.);
#1896=ORIENTED_EDGE('',*,*,#1876,.F.);
#1897=EDGE_LOOP('',(#1891,#1892,#1893,#1894,#1895,#1896));
#1898=FACE_OUTER_BOUND('',#1897,.F.);
#1900=CLOSED_SHELL('',(#1033,#1048,#1101,#1113,#1127,#1146,#1161,#1176,#1191,
#1205,#1219,#1234,#1273,#1309,#1324,#1339,#1355,#1371,#1388,#1402,#1417,#1433,
#1446,#1461,#1473,#1487,#1501,#1516,#1545,#1560,#1575,#1590,#1605,#1622,#1637,
#1651,#1667,#1681,#1695,#1710,#1723,#1735,#1749,#1765,#1779,#1795,#1809,#1825,
#1839,#1857,#1869,#1885,#1899));
#1901=MANIFOLD_SOLID_BREP('',#1900);
#1904=PLANE_ANGLE_MEASURE_WITH_UNIT(PLANE_ANGLE_MEASURE(1.745329251994E-2),
#1903);
#1905=(CONVERSION_BASED_UNIT('DEGREE',#1904)NAMED_UNIT(*)PLANE_ANGLE_UNIT());
#1907=UNCERTAINTY_MEASURE_WITH_UNIT(LENGTH_MEASURE(5.929473051695E-3),#1902,
'distance_accuracy_value',
'Maximum model space distance between geometric entities at asserted connectivities');
#1909=CARTESIAN_POINT('',(0.E0,0.E0,0.E0));
#1910=DIRECTION('',(0.E0,0.E0,1.E0));
#1911=DIRECTION('',(1.E0,0.E0,0.E0));
#1914=APPLICATION_CONTEXT('automotive_design');
#1915=APPLICATION_PROTOCOL_DEFINITION('international standard',
'automotive_design',2001,#1914);
#1916=PRODUCT_DEFINITION_CONTEXT('part definition',#1914,'design');
#1917=PRODUCT_CONTEXT('',#1914,'mechanical');
#1918=PRODUCT('BEAR4-2','BEAR4-2','NOT SPECIFIED',(#1917));
#1919=PRODUCT_DEFINITION_FORMATION('2','LAST_VERSION',#1918);
#1927=DERIVED_UNIT_ELEMENT(#1926,2.E0);
#1928=DERIVED_UNIT((#1927));
#1929=MEASURE_REPRESENTATION_ITEM('surface area measure',AREA_MEASURE(
4.410932327055E3),#1928);
#1934=DERIVED_UNIT_ELEMENT(#1933,3.E0);
#1935=DERIVED_UNIT((#1934));
#1936=MEASURE_REPRESENTATION_ITEM('volume measure',VOLUME_MEASURE(
6.654855843089E3),#1935);
#1940=CARTESIAN_POINT('centre point',(0.E0,0.E0,5.123021835864E0));
#1945=DERIVED_UNIT_ELEMENT(#1944,2.E0);
#1946=DERIVED_UNIT((#1945));
#1947=MEASURE_REPRESENTATION_ITEM('surface area measure',AREA_MEASURE(
4.410932327055E3),#1946);
#1952=DERIVED_UNIT_ELEMENT(#1951,3.E0);
#1953=DERIVED_UNIT((#1952));
#1954=MEASURE_REPRESENTATION_ITEM('volume measure',VOLUME_MEASURE(
6.654855843089E3),#1953);
#1958=CARTESIAN_POINT('centre point',(0.E0,0.E0,5.123021835864E0));
#1=DRAUGHTING_PRE_DEFINED_COLOUR('green');
#2=DRAUGHTING_PRE_DEFINED_COLOUR('green');
#3=DRAUGHTING_PRE_DEFINED_COLOUR('green');
#4=COLOUR_RGB('',1.1E-2,1.2E-2,1.E0);
#5=COLOUR_RGB('',1.1E-2,1.2E-2,1.E0);
#6=COLOUR_RGB('',4.1E-1,2.61589E-1,1.12848E-1);
#7=COLOUR_RGB('',5.04854E-1,1.5455E-2,1.5455E-2);
#8=COLOUR_RGB('',6.35294E-1,6.86275E-1,7.4902E-1);
#9=COLOUR_RGB('',6.40777E-1,6.40777E-1,6.40777E-1);
#10=COLOUR_RGB('',6.66667E-1,6.66667E-1,6.66667E-1);
#11=COLOUR_RGB('',6.69062E-1,6.69903E-1,6.55217E-1);
#12=COLOUR_RGB('',7.45098E-1,3.92157E-1,2.94118E-1);
#13=COLOUR_RGB('',8.03922E-1,5.88235E-1,1.96078E-1);
#14=COLOUR_RGB('',9.21569E-1,7.05882E-1,4.70588E-1);
#15=DRAUGHTING_PRE_DEFINED_COLOUR('red');
#16=DRAUGHTING_PRE_DEFINED_COLOUR('red');
#17=DRAUGHTING_PRE_DEFINED_COLOUR('red');
#18=DRAUGHTING_PRE_DEFINED_COLOUR('red');
#19=DRAUGHTING_PRE_DEFINED_COLOUR('red');
#20=DRAUGHTING_PRE_DEFINED_COLOUR('red');
#21=DRAUGHTING_PRE_DEFINED_COLOUR('red');
#22=DRAUGHTING_PRE_DEFINED_COLOUR('yellow');
#23=DRAUGHTING_PRE_DEFINED_COLOUR('yellow');
#24=COLOUR_RGB('',1.E0,1.E0,5.3E-1);
#25=COLOUR_RGB('',1.E0,1.E0,9.49E-1);
#26=COLOUR_RGB('',1.E0,1.E0,9.49E-1);
#27=DRAUGHTING_PRE_DEFINED_COLOUR('white');
#32=CIRCLE('',#31,6.9E0);
#37=CIRCLE('',#36,6.9E0);
#42=CIRCLE('',#41,1.85E1);
#47=CIRCLE('',#46,1.85E1);
#52=CIRCLE('',#51,2.845864763856E0);
#57=CIRCLE('',#56,2.845864763856E0);
#62=CIRCLE('',#61,2.845864763856E0);
#67=CIRCLE('',#66,2.845864763856E0);
#72=CIRCLE('',#71,2.845864763856E0);
#77=CIRCLE('',#76,2.845864763856E0);
#82=CIRCLE('',#81,2.845864763856E0);
#87=CIRCLE('',#86,2.845864763856E0);
#92=CIRCLE('',#91,2.845864763856E0);
#97=CIRCLE('',#96,2.845864763856E0);
#102=CIRCLE('',#101,2.845864763856E0);
#107=CIRCLE('',#106,2.845864763856E0);
#112=CIRCLE('',#111,6.9E0);
#121=CIRCLE('',#120,1.4E1);
#126=CIRCLE('',#125,1.4E1);
#131=CIRCLE('',#130,1.4E1);
#136=CIRCLE('',#135,1.4E1);
#141=CIRCLE('',#140,6.9E0);
#150=CIRCLE('',#149,2.845864763856E0);
#159=CIRCLE('',#158,2.845864763856E0);
#168=CIRCLE('',#167,2.845864763856E0);
#181=CIRCLE('',#180,1.4E1);
#186=CIRCLE('',#185,1.4E1);
#191=CIRCLE('',#190,1.4E1);
#196=CIRCLE('',#195,1.4E1);
#201=CIRCLE('',#200,1.85E1);
#206=CIRCLE('',#205,1.85E1);
#211=CIRCLE('',#210,2.845864763856E0);
#216=CIRCLE('',#215,2.845864763856E0);
#221=CIRCLE('',#220,1.4E1);
#226=CIRCLE('',#225,2.845864763856E0);
#231=CIRCLE('',#230,1.4E1);
#236=CIRCLE('',#235,2.845864763856E0);
#241=CIRCLE('',#240,2.845864763856E0);
#246=CIRCLE('',#245,2.845864763856E0);
#251=CIRCLE('',#250,2.845864763856E0);
#256=CIRCLE('',#255,1.4E1);
#261=CIRCLE('',#260,2.845864763856E0);
#266=CIRCLE('',#265,1.4E1);
#271=CIRCLE('',#270,2.845864763856E0);
#276=CIRCLE('',#275,2.845864763856E0);
#281=CIRCLE('',#280,1.85E1);
#286=CIRCLE('',#285,1.85E1);
#303=CIRCLE('',#302,1.85E1);
#308=CIRCLE('',#307,1.85E1);
#317=CIRCLE('',#316,1.5E0);
#322=CIRCLE('',#321,1.5E0);
#327=CIRCLE('',#326,1.91E1);
#332=CIRCLE('',#331,1.5E0);
#337=CIRCLE('',#336,1.91E1);
#342=CIRCLE('',#341,1.5E0);
#347=CIRCLE('',#346,1.5E0);
#352=CIRCLE('',#351,1.5E0);
#357=CIRCLE('',#356,1.91E1);
#362=CIRCLE('',#361,1.5E0);
#367=CIRCLE('',#366,1.91E1);
#372=CIRCLE('',#371,1.5E0);
#377=CIRCLE('',#376,5.E-1);
#382=CIRCLE('',#381,5.E-1);
#387=CIRCLE('',#386,5.E-1);
#392=CIRCLE('',#391,5.E-1);
#401=CIRCLE('',#400,5.E-1);
#406=CIRCLE('',#405,5.E-1);
#411=CIRCLE('',#410,5.E-1);
#416=CIRCLE('',#415,5.E-1);
#425=CIRCLE('',#424,1.94E1);
#434=CIRCLE('',#433,1.94E1);
#443=CIRCLE('',#442,1.94E1);
#452=CIRCLE('',#451,1.94E1);
#461=CIRCLE('',#460,1.85E1);
#466=CIRCLE('',#465,1.85E1);
#483=CIRCLE('',#482,1.85E1);
#488=CIRCLE('',#487,1.85E1);
#497=CIRCLE('',#496,1.5E0);
#502=CIRCLE('',#501,1.5E0);
#507=CIRCLE('',#506,1.91E1);
#512=CIRCLE('',#511,1.5E0);
#517=CIRCLE('',#516,1.91E1);
#522=CIRCLE('',#521,1.5E0);
#527=CIRCLE('',#526,1.5E0);
#532=CIRCLE('',#531,1.91E1);
#537=CIRCLE('',#536,1.5E0);
#542=CIRCLE('',#541,1.5E0);
#547=CIRCLE('',#546,1.5E0);
#552=CIRCLE('',#551,1.91E1);
#557=CIRCLE('',#556,5.E-1);
#562=CIRCLE('',#561,5.E-1);
#567=CIRCLE('',#566,5.E-1);
#572=CIRCLE('',#571,5.E-1);
#581=CIRCLE('',#580,5.E-1);
#586=CIRCLE('',#585,5.E-1);
#591=CIRCLE('',#590,5.E-1);
#596=CIRCLE('',#595,5.E-1);
#605=CIRCLE('',#604,1.94E1);
#614=CIRCLE('',#613,1.94E1);
#623=CIRCLE('',#622,1.94E1);
#632=CIRCLE('',#631,1.94E1);
#641=CIRCLE('',#640,2.845864763856E0);
#654=CIRCLE('',#653,2.845864763856E0);
#667=CIRCLE('',#666,2.845864763856E0);
#680=CIRCLE('',#679,2.845864763856E0);
#693=CIRCLE('',#692,2.845864763856E0);
#706=CIRCLE('',#705,2.845864763856E0);
#719=CIRCLE('',#718,2.845864763856E0);
#728=CIRCLE('',#727,2.845864763856E0);
#741=CIRCLE('',#740,2.845864763856E0);
#750=CIRCLE('',#749,2.845864763856E0);
#763=CIRCLE('',#762,2.845864763856E0);
#985=EDGE_CURVE('',#778,#779,#42,.T.);
#987=EDGE_CURVE('',#779,#778,#47,.T.);
#991=EDGE_CURVE('',#774,#775,#32,.T.);
#993=EDGE_CURVE('',#775,#774,#37,.T.);
#997=EDGE_CURVE('',#786,#787,#52,.T.);
#999=EDGE_CURVE('',#787,#786,#57,.T.);
#1003=EDGE_CURVE('',#790,#791,#62,.T.);
#1005=EDGE_CURVE('',#791,#790,#67,.T.);
#1009=EDGE_CURVE('',#794,#795,#72,.T.);
#1011=EDGE_CURVE('',#795,#794,#77,.T.);
#1015=EDGE_CURVE('',#798,#799,#82,.T.);
#1017=EDGE_CURVE('',#799,#798,#87,.T.);
#1021=EDGE_CURVE('',#802,#803,#92,.T.);
#1023=EDGE_CURVE('',#803,#802,#97,.T.);
#1027=EDGE_CURVE('',#806,#807,#102,.T.);
#1029=EDGE_CURVE('',#807,#806,#107,.T.);
#1033=ADVANCED_FACE('',(#990,#996,#1002,#1008,#1014,#1020,#1026,#1032),#984,
.F.);
#1039=EDGE_CURVE('',#930,#931,#112,.T.);
#1041=EDGE_CURVE('',#775,#930,#145,.T.);
#1044=EDGE_CURVE('',#774,#931,#116,.T.);
#1048=ADVANCED_FACE('',(#1047),#1038,.F.);
#1054=EDGE_CURVE('',#934,#935,#150,.T.);
#1056=EDGE_CURVE('',#935,#967,#159,.T.);
#1058=EDGE_CURVE('',#966,#967,#121,.T.);
#1060=EDGE_CURVE('',#966,#948,#654,.T.);
#1062=EDGE_CURVE('',#948,#949,#641,.T.);
#1064=EDGE_CURVE('',#954,#949,#186,.T.);
#1066=EDGE_CURVE('',#954,#955,#763,.T.);
#1068=EDGE_CURVE('',#955,#979,#750,.T.);
#1070=EDGE_CURVE('',#978,#979,#126,.T.);
#1072=EDGE_CURVE('',#978,#938,#728,.T.);
#1074=EDGE_CURVE('',#938,#939,#741,.T.);
#1076=EDGE_CURVE('',#939,#975,#719,.T.);
#1078=EDGE_CURVE('',#974,#975,#131,.T.);
#1080=EDGE_CURVE('',#974,#960,#706,.T.);
#1082=EDGE_CURVE('',#960,#961,#693,.T.);
#1084=EDGE_CURVE('',#942,#961,#191,.T.);
#1086=EDGE_CURVE('',#942,#943,#680,.T.);
#1088=EDGE_CURVE('',#943,#971,#667,.T.);
#1090=EDGE_CURVE('',#970,#971,#136,.T.);
#1092=EDGE_CURVE('',#970,#934,#168,.T.);
#1097=EDGE_CURVE('',#931,#930,#141,.T.);
#1101=ADVANCED_FACE('',(#1095,#1100),#1053,.T.);
#1113=ADVANCED_FACE('',(#1112),#1106,.F.);
#1120=EDGE_CURVE('',#934,#787,#154,.T.);
#1123=EDGE_CURVE('',#935,#786,#163,.T.);
#1127=ADVANCED_FACE('',(#1126),#1118,.F.);
#1138=EDGE_CURVE('',#970,#918,#172,.T.);
#1140=EDGE_CURVE('',#915,#918,#226,.T.);
#1142=EDGE_CURVE('',#967,#915,#176,.T.);
#1146=ADVANCED_FACE('',(#1145),#1132,.F.);
#1152=EDGE_CURVE('',#926,#927,#266,.T.);
#1154=EDGE_CURVE('',#978,#926,#732,.T.);
#1157=EDGE_CURVE('',#979,#927,#758,.T.);
#1161=ADVANCED_FACE('',(#1160),#1151,.F.);
#1167=EDGE_CURVE('',#922,#923,#256,.T.);
#1169=EDGE_CURVE('',#974,#922,#710,.T.);
#1172=EDGE_CURVE('',#975,#923,#736,.T.);
#1176=ADVANCED_FACE('',(#1175),#1166,.F.);
#1182=EDGE_CURVE('',#951,#957,#181,.T.);
#1184=EDGE_CURVE('',#954,#957,#767,.T.);
#1187=EDGE_CURVE('',#951,#949,#649,.T.);
#1191=ADVANCED_FACE('',(#1190),#1181,.F.);
#1197=EDGE_CURVE('',#914,#915,#221,.T.);
#1199=EDGE_CURVE('',#966,#914,#658,.T.);
#1205=ADVANCED_FACE('',(#1204),#1196,.F.);
#1211=EDGE_CURVE('',#918,#919,#231,.T.);
#1215=EDGE_CURVE('',#971,#919,#675,.T.);
#1219=ADVANCED_FACE('',(#1218),#1210,.F.);
#1226=EDGE_CURVE('',#963,#961,#701,.T.);
#1228=EDGE_CURVE('',#963,#945,#196,.T.);
#1230=EDGE_CURVE('',#942,#945,#684,.T.);
#1234=ADVANCED_FACE('',(#1233),#1224,.F.);
#1240=EDGE_CURVE('',#782,#783,#201,.T.);
#1242=EDGE_CURVE('',#783,#782,#206,.T.);
#1247=EDGE_CURVE('',#951,#811,#211,.T.);
#1249=EDGE_CURVE('',#811,#914,#216,.T.);
#1254=EDGE_CURVE('',#919,#809,#236,.T.);
#1256=EDGE_CURVE('',#809,#945,#241,.T.);
#1259=EDGE_CURVE('',#963,#815,#246,.T.);
#1261=EDGE_CURVE('',#815,#922,#251,.T.);
#1264=EDGE_CURVE('',#923,#926,#261,.T.);
#1267=EDGE_CURVE('',#927,#813,#271,.T.);
#1269=EDGE_CURVE('',#813,#957,#276,.T.);
#1273=ADVANCED_FACE('',(#1245,#1272),#1239,.T.);
#1279=EDGE_CURVE('',#835,#783,#492,.T.);
#1281=EDGE_CURVE('',#838,#835,#294,.T.);
#1283=EDGE_CURVE('',#779,#838,#478,.T.);
#1286=EDGE_CURVE('',#778,#890,#298,.T.);
#1288=EDGE_CURVE('',#890,#882,#303,.T.);
#1290=EDGE_CURVE('',#882,#879,#576,.T.);
#1292=EDGE_CURVE('',#887,#879,#308,.T.);
#1294=EDGE_CURVE('',#887,#782,#312,.T.);
#1299=EDGE_CURVE('',#822,#830,#281,.T.);
#1301=EDGE_CURVE('',#830,#827,#396,.T.);
#1303=EDGE_CURVE('',#819,#827,#286,.T.);
#1305=EDGE_CURVE('',#822,#819,#290,.T.);
#1309=ADVANCED_FACE('',(#1298,#1308),#1278,.T.);
#1315=EDGE_CURVE('',#818,#819,#317,.T.);
#1318=EDGE_CURVE('',#826,#827,#322,.T.);
#1320=EDGE_CURVE('',#818,#826,#327,.T.);
#1324=ADVANCED_FACE('',(#1323),#1314,.T.);
#1330=EDGE_CURVE('',#822,#823,#332,.T.);
#1332=EDGE_CURVE('',#823,#831,#337,.T.);
#1334=EDGE_CURVE('',#830,#831,#342,.T.);
#1339=ADVANCED_FACE('',(#1338),#1329,.T.);
#1345=EDGE_CURVE('',#834,#835,#347,.T.);
#1347=EDGE_CURVE('',#835,#843,#488,.T.);
#1349=EDGE_CURVE('',#842,#843,#352,.T.);
#1351=EDGE_CURVE('',#834,#842,#357,.T.);
#1355=ADVANCED_FACE('',(#1354),#1344,.T.);
#1361=EDGE_CURVE('',#838,#839,#362,.T.);
#1363=EDGE_CURVE('',#839,#847,#367,.T.);
#1365=EDGE_CURVE('',#846,#847,#372,.T.);
#1367=EDGE_CURVE('',#838,#846,#483,.T.);
#1371=ADVANCED_FACE('',(#1370),#1360,.T.);
#1378=EDGE_CURVE('',#859,#818,#377,.T.);
#1380=EDGE_CURVE('',#858,#859,#420,.T.);
#1382=EDGE_CURVE('',#823,#858,#401,.T.);
#1388=ADVANCED_FACE('',(#1387),#1376,.F.);
#1396=EDGE_CURVE('',#863,#826,#382,.T.);
#1398=EDGE_CURVE('',#859,#863,#425,.T.);
#1402=ADVANCED_FACE('',(#1401),#1393,.T.);
#1408=EDGE_CURVE('',#867,#834,#387,.T.);
#1411=EDGE_CURVE('',#871,#842,#392,.T.);
#1413=EDGE_CURVE('',#867,#871,#443,.T.);
#1417=ADVANCED_FACE('',(#1416),#1407,.T.);
#1426=EDGE_CURVE('',#831,#862,#406,.T.);
#1428=EDGE_CURVE('',#862,#863,#429,.T.);
#1433=ADVANCED_FACE('',(#1432),#1422,.F.);
#1440=EDGE_CURVE('',#858,#862,#434,.T.);
#1446=ADVANCED_FACE('',(#1445),#1438,.T.);
#1452=EDGE_CURVE('',#839,#866,#411,.T.);
#1454=EDGE_CURVE('',#866,#870,#452,.T.);
#1456=EDGE_CURVE('',#847,#870,#416,.T.);
#1461=ADVANCED_FACE('',(#1460),#1451,.T.);
#1473=ADVANCED_FACE('',(#1472),#1466,.T.);
#1479=EDGE_CURVE('',#866,#867,#438,.T.);
#1482=EDGE_CURVE('',#870,#871,#447,.T.);
#1487=ADVANCED_FACE('',(#1486),#1478,.T.);
#1501=ADVANCED_FACE('',(#1500),#1492,.F.);
#1508=EDGE_CURVE('',#846,#843,#456,.T.);
#1516=ADVANCED_FACE('',(#1515),#1506,.F.);
#1523=EDGE_CURVE('',#890,#887,#474,.T.);
#1535=EDGE_CURVE('',#854,#898,#461,.T.);
#1537=EDGE_CURVE('',#898,#895,#636,.T.);
#1539=EDGE_CURVE('',#851,#895,#466,.T.);
#1541=EDGE_CURVE('',#854,#851,#470,.T.);
#1545=ADVANCED_FACE('',(#1534,#1544),#1521,.T.);
#1551=EDGE_CURVE('',#850,#851,#497,.T.);
#1554=EDGE_CURVE('',#894,#895,#502,.T.);
#1556=EDGE_CURVE('',#850,#894,#507,.T.);
#1560=ADVANCED_FACE('',(#1559),#1550,.T.);
#1566=EDGE_CURVE('',#854,#855,#512,.T.);
#1568=EDGE_CURVE('',#855,#899,#517,.T.);
#1570=EDGE_CURVE('',#898,#899,#522,.T.);
#1575=ADVANCED_FACE('',(#1574),#1565,.T.);
#1581=EDGE_CURVE('',#878,#879,#527,.T.);
#1583=EDGE_CURVE('',#886,#878,#532,.T.);
#1585=EDGE_CURVE('',#886,#887,#537,.T.);
#1590=ADVANCED_FACE('',(#1589),#1580,.T.);
#1596=EDGE_CURVE('',#882,#883,#542,.T.);
#1599=EDGE_CURVE('',#890,#891,#547,.T.);
#1601=EDGE_CURVE('',#891,#883,#552,.T.);
#1605=ADVANCED_FACE('',(#1604),#1595,.T.);
#1612=EDGE_CURVE('',#875,#850,#567,.T.);
#1614=EDGE_CURVE('',#874,#875,#600,.T.);
#1616=EDGE_CURVE('',#855,#874,#591,.T.);
#1622=ADVANCED_FACE('',(#1621),#1610,.F.);
#1628=EDGE_CURVE('',#903,#878,#557,.T.);
#1630=EDGE_CURVE('',#907,#903,#632,.T.);
#1632=EDGE_CURVE('',#907,#886,#562,.T.);
#1637=ADVANCED_FACE('',(#1636),#1627,.T.);
#1645=EDGE_CURVE('',#911,#894,#572,.T.);
#1647=EDGE_CURVE('',#875,#911,#605,.T.);
#1651=ADVANCED_FACE('',(#1650),#1642,.T.);
#1660=EDGE_CURVE('',#883,#902,#581,.T.);
#1662=EDGE_CURVE('',#902,#903,#618,.T.);
#1667=ADVANCED_FACE('',(#1666),#1656,.F.);
#1675=EDGE_CURVE('',#891,#906,#586,.T.);
#1677=EDGE_CURVE('',#906,#902,#623,.T.);
#1681=ADVANCED_FACE('',(#1680),#1672,.T.);
#1688=EDGE_CURVE('',#874,#910,#614,.T.);
#1690=EDGE_CURVE('',#899,#910,#596,.T.);
#1695=ADVANCED_FACE('',(#1694),#1686,.T.);
#1703=EDGE_CURVE('',#906,#907,#627,.T.);
#1710=ADVANCED_FACE('',(#1709),#1700,.F.);
#1718=EDGE_CURVE('',#910,#911,#609,.T.);
#1723=ADVANCED_FACE('',(#1722),#1715,.T.);
#1735=ADVANCED_FACE('',(#1734),#1728,.T.);
#1749=ADVANCED_FACE('',(#1748),#1740,.F.);
#1756=EDGE_CURVE('',#948,#799,#645,.T.);
#1759=EDGE_CURVE('',#811,#798,#662,.T.);
#1765=ADVANCED_FACE('',(#1764),#1754,.F.);
#1779=ADVANCED_FACE('',(#1778),#1770,.F.);
#1786=EDGE_CURVE('',#943,#794,#671,.T.);
#1789=EDGE_CURVE('',#809,#795,#688,.T.);
#1795=ADVANCED_FACE('',(#1794),#1784,.F.);
#1809=ADVANCED_FACE('',(#1808),#1800,.F.);
#1816=EDGE_CURVE('',#960,#806,#697,.T.);
#1819=EDGE_CURVE('',#815,#807,#714,.T.);
#1825=ADVANCED_FACE('',(#1824),#1814,.F.);
#1839=ADVANCED_FACE('',(#1838),#1830,.F.);
#1846=EDGE_CURVE('',#939,#791,#723,.T.);
#1849=EDGE_CURVE('',#938,#790,#745,.T.);
#1857=ADVANCED_FACE('',(#1856),#1844,.F.);
#1869=ADVANCED_FACE('',(#1868),#1862,.F.);
#1876=EDGE_CURVE('',#955,#803,#754,.T.);
#1879=EDGE_CURVE('',#813,#802,#771,.T.);
#1885=ADVANCED_FACE('',(#1884),#1874,.F.);
#1899=ADVANCED_FACE('',(#1898),#1890,.F.);
#1902=(LENGTH_UNIT()NAMED_UNIT(*)SI_UNIT(.MILLI.,.METRE.));
#1903=(NAMED_UNIT(*)PLANE_ANGLE_UNIT()SI_UNIT($,.RADIAN.));
#1906=(NAMED_UNIT(*)SI_UNIT($,.STERADIAN.)SOLID_ANGLE_UNIT());
#1908=(GEOMETRIC_REPRESENTATION_CONTEXT(3)GLOBAL_UNCERTAINTY_ASSIGNED_CONTEXT((
#1907))GLOBAL_UNIT_ASSIGNED_CONTEXT((#1902,#1905,#1906))REPRESENTATION_CONTEXT(
'ID1','external'));
#1912=AXIS2_PLACEMENT_3D('',#1909,#1910,#1911);
#1913=ADVANCED_BREP_SHAPE_REPRESENTATION('',(#1912,#1901),#1908);
#1920=PRODUCT_DEFINITION('part definition','',#1919,#1916);
#1921=PRODUCT_DEFINITION_SHAPE('','SHAPE FOR BEAR4-2.',#1920);
#1922=SHAPE_ASPECT('','solid data associated with BEAR4-2',#1921,.F.);
#1923=PROPERTY_DEFINITION('',
'shape for solid data with which properties are associated',#1922);
#1924=SHAPE_REPRESENTATION('',(#1901),#1908);
#1925=SHAPE_DEFINITION_REPRESENTATION(#1923,#1924);
#1926=(LENGTH_UNIT()NAMED_UNIT(*)SI_UNIT(.MILLI.,.METRE.));
#1930=PROPERTY_DEFINITION('geometric validation property','area of BEAR4-2',
#1922);
#1931=REPRESENTATION('surface area',(#1929),#1908);
#1932=PROPERTY_DEFINITION_REPRESENTATION(#1930,#1931);
#1933=(LENGTH_UNIT()NAMED_UNIT(*)SI_UNIT(.MILLI.,.METRE.));
#1937=PROPERTY_DEFINITION('geometric validation property','volume of BEAR4-2',
#1922);
#1938=REPRESENTATION('volume',(#1936),#1908);
#1939=PROPERTY_DEFINITION_REPRESENTATION(#1937,#1938);
#1941=PROPERTY_DEFINITION('geometric validation property','centroid of BEAR4-2',
#1922);
#1942=REPRESENTATION('centroid',(#1940),#1908);
#1943=PROPERTY_DEFINITION_REPRESENTATION(#1941,#1942);
#1944=(LENGTH_UNIT()NAMED_UNIT(*)SI_UNIT(.MILLI.,.METRE.));
#1948=PROPERTY_DEFINITION('geometric validation property','area of BEAR4-2',
#1921);
#1949=REPRESENTATION('surface area',(#1947),#1908);
#1950=PROPERTY_DEFINITION_REPRESENTATION(#1948,#1949);
#1951=(LENGTH_UNIT()NAMED_UNIT(*)SI_UNIT(.MILLI.,.METRE.));
#1955=PROPERTY_DEFINITION('geometric validation property','volume of BEAR4-2',
#1921);
#1956=REPRESENTATION('volume',(#1954),#1908);
#1957=PROPERTY_DEFINITION_REPRESENTATION(#1955,#1956);
#1959=PROPERTY_DEFINITION('geometric validation property','centroid of BEAR4-2',
#1921);
#1960=REPRESENTATION('centroid',(#1958),#1908);
#1961=PROPERTY_DEFINITION_REPRESENTATION(#1959,#1960);
#1962=SHAPE_DEFINITION_REPRESENTATION(#1921,#1913);
#1963=PRODUCT_RELATED_PRODUCT_CATEGORY('part','',(#1918));
ENDSEC;
END-ISO-10303-21;
