ISO-10303-21;
HEADER;
FILE_DESCRIPTION((''),'2;1');
FILE_NAME('BEAR4','2026-08-09T09:56:41',('gram2'),(''),
'CREO PARAMETRIC BY PTC INC, 2016510','CREO PARAMETRIC BY PTC INC, 2016510','');
FILE_SCHEMA(('AUTOMOTIVE_DESIGN { 1 0 10303 214 1 1 1 1 }'));
ENDSEC;
DATA;
#28=CARTESIAN_POINT('',(0.E0,0.E0,0.E0));
#29=DIRECTION('',(0.E0,0.E0,-1.E0));
#30=DIRECTION('',(1.E0,0.E0,0.E0));
#31=AXIS2_PLACEMENT_3D('',#28,#29,#30);
#33=CARTESIAN_POINT('',(0.E0,0.E0,0.E0));
#34=DIRECTION('',(0.E0,0.E0,-1.E0));
#35=DIRECTION('',(-1.E0,0.E0,0.E0));
#36=AXIS2_PLACEMENT_3D('',#33,#34,#35);
#38=CARTESIAN_POINT('',(0.E0,0.E0,0.E0));
#39=DIRECTION('',(0.E0,0.E0,1.E0));
#40=DIRECTION('',(1.E0,0.E0,0.E0));
#41=AXIS2_PLACEMENT_3D('',#38,#39,#40);
#43=CARTESIAN_POINT('',(0.E0,0.E0,0.E0));
#44=DIRECTION('',(0.E0,0.E0,1.E0));
#45=DIRECTION('',(-1.E0,0.E0,0.E0));
#46=AXIS2_PLACEMENT_3D('',#43,#44,#45);
#48=CARTESIAN_POINT('',(0.E0,1.259316406928E1,0.E0));
#49=DIRECTION('',(0.E0,0.E0,1.E0));
#50=DIRECTION('',(1.E0,0.E0,0.E0));
#51=AXIS2_PLACEMENT_3D('',#48,#49,#50);
#53=CARTESIAN_POINT('',(0.E0,1.259316406928E1,0.E0));
#54=DIRECTION('',(0.E0,0.E0,1.E0));
#55=DIRECTION('',(-1.E0,0.E0,0.E0));
#56=AXIS2_PLACEMENT_3D('',#53,#54,#55);
#58=CARTESIAN_POINT('',(0.E0,-1.259316406928E1,0.E0));
#59=DIRECTION('',(0.E0,0.E0,1.E0));
#60=DIRECTION('',(1.E0,0.E0,0.E0));
#61=AXIS2_PLACEMENT_3D('',#58,#59,#60);
#63=CARTESIAN_POINT('',(0.E0,-1.259316406928E1,0.E0));
#64=DIRECTION('',(0.E0,0.E0,1.E0));
#65=DIRECTION('',(-1.E0,0.E0,0.E0));
#66=AXIS2_PLACEMENT_3D('',#63,#64,#65);
#68=CARTESIAN_POINT('',(-1.090599999802E1,6.296582034639E0,0.E0));
#69=DIRECTION('',(0.E0,0.E0,1.E0));
#70=DIRECTION('',(1.E0,0.E0,0.E0));
#71=AXIS2_PLACEMENT_3D('',#68,#69,#70);
#73=CARTESIAN_POINT('',(-1.090599999802E1,6.296582034639E0,0.E0));
#74=DIRECTION('',(0.E0,0.E0,1.E0));
#75=DIRECTION('',(-1.E0,0.E0,0.E0));
#76=AXIS2_PLACEMENT_3D('',#73,#74,#75);
#78=CARTESIAN_POINT('',(1.090599999802E1,6.296582034639E0,0.E0));
#79=DIRECTION('',(0.E0,0.E0,1.E0));
#80=DIRECTION('',(1.E0,0.E0,0.E0));
#81=AXIS2_PLACEMENT_3D('',#78,#79,#80);
#83=CARTESIAN_POINT('',(1.090599999802E1,6.296582034639E0,0.E0));
#84=DIRECTION('',(0.E0,0.E0,1.E0));
#85=DIRECTION('',(-1.E0,0.E0,0.E0));
#86=AXIS2_PLACEMENT_3D('',#83,#84,#85);
#88=CARTESIAN_POINT('',(1.090599999802E1,-6.296582034639E0,0.E0));
#89=DIRECTION('',(0.E0,0.E0,1.E0));
#90=DIRECTION('',(1.E0,0.E0,0.E0));
#91=AXIS2_PLACEMENT_3D('',#88,#89,#90);
#93=CARTESIAN_POINT('',(1.090599999802E1,-6.296582034639E0,0.E0));
#94=DIRECTION('',(0.E0,0.E0,1.E0));
#95=DIRECTION('',(-1.E0,0.E0,0.E0));
#96=AXIS2_PLACEMENT_3D('',#93,#94,#95);
#98=CARTESIAN_POINT('',(-1.090599999802E1,-6.296582034639E0,0.E0));
#99=DIRECTION('',(0.E0,0.E0,1.E0));
#100=DIRECTION('',(1.E0,0.E0,0.E0));
#101=AXIS2_PLACEMENT_3D('',#98,#99,#100);
#103=CARTESIAN_POINT('',(-1.090599999802E1,-6.296582034639E0,0.E0));
#104=DIRECTION('',(0.E0,0.E0,1.E0));
#105=DIRECTION('',(-1.E0,0.E0,0.E0));
#106=AXIS2_PLACEMENT_3D('',#103,#104,#105);
#108=CARTESIAN_POINT('',(0.E0,0.E0,1.E1));
#109=DIRECTION('',(0.E0,0.E0,1.E0));
#110=DIRECTION('',(-1.E0,0.E0,0.E0));
#111=AXIS2_PLACEMENT_3D('',#108,#109,#110);
#113=DIRECTION('',(0.E0,0.E0,1.E0));
#114=VECTOR('',#113,1.E1);
#115=CARTESIAN_POINT('',(6.9E0,0.E0,0.E0));
#116=LINE('',#115,#114);
#117=CARTESIAN_POINT('',(0.E0,0.E0,1.E1));
#118=DIRECTION('',(0.E0,0.E0,1.E0));
#119=DIRECTION('',(7.988891117772E-1,6.014783346753E-1,0.E0));
#120=AXIS2_PLACEMENT_3D('',#117,#118,#119);
#122=CARTESIAN_POINT('',(0.E0,0.E0,1.E1));
#123=DIRECTION('',(0.E0,0.E0,1.E0));
#124=DIRECTION('',(1.214509617662E-1,-9.925974329435E-1,0.E0));
#125=AXIS2_PLACEMENT_3D('',#122,#123,#124);
#127=CARTESIAN_POINT('',(0.E0,0.E0,1.E1));
#128=DIRECTION('',(0.E0,0.E0,1.E0));
#129=DIRECTION('',(-7.988891117772E-1,-6.014783346753E-1,0.E0));
#130=AXIS2_PLACEMENT_3D('',#127,#128,#129);
#132=CARTESIAN_POINT('',(0.E0,0.E0,1.E1));
#133=DIRECTION('',(0.E0,0.E0,1.E0));
#134=DIRECTION('',(-1.214509617662E-1,9.925974329435E-1,0.E0));
#135=AXIS2_PLACEMENT_3D('',#132,#133,#134);
#137=CARTESIAN_POINT('',(0.E0,0.E0,1.E1));
#138=DIRECTION('',(0.E0,0.E0,1.E0));
#139=DIRECTION('',(1.E0,0.E0,0.E0));
#140=AXIS2_PLACEMENT_3D('',#137,#138,#139);
#142=DIRECTION('',(0.E0,0.E0,1.E0));
#143=VECTOR('',#142,1.E1);
#144=CARTESIAN_POINT('',(-6.9E0,0.E0,0.E0));
#145=LINE('',#144,#143);
#146=CARTESIAN_POINT('',(0.E0,1.259316406928E1,1.E1));
#147=DIRECTION('',(0.E0,0.E0,1.E0));
#148=DIRECTION('',(-4.310305708893E-1,-9.023373243742E-1,0.E0));
#149=AXIS2_PLACEMENT_3D('',#146,#147,#148);
#151=DIRECTION('',(0.E0,0.E0,1.E0));
#152=VECTOR('',#151,2.E0);
#153=CARTESIAN_POINT('',(-1.226654713838E0,1.002523407273E1,1.E1));
#154=LINE('',#153,#152);
#155=DIRECTION('',(0.E0,0.E0,-1.E0));
#156=VECTOR('',#155,1.2E1);
#157=CARTESIAN_POINT('',(-2.845864763856E0,1.259316406928E1,1.2E1));
#158=LINE('',#157,#156);
#159=DIRECTION('',(0.E0,0.E0,1.E0));
#160=VECTOR('',#159,2.E0);
#161=CARTESIAN_POINT('',(1.226654713838E0,1.002523407273E1,1.E1));
#162=LINE('',#161,#160);
#163=CARTESIAN_POINT('',(0.E0,0.E0,1.2E1));
#164=DIRECTION('',(0.E0,0.E0,-1.E0));
#165=DIRECTION('',(9.203400735434E-1,3.911190982682E-1,0.E0));
#166=AXIS2_PLACEMENT_3D('',#163,#164,#165);
#168=CARTESIAN_POINT('',(0.E0,0.E0,1.E1));
#169=DIRECTION('',(0.E0,0.E0,1.E0));
#170=DIRECTION('',(9.203400735434E-1,-3.911190982682E-1,0.E0));
#171=AXIS2_PLACEMENT_3D('',#168,#169,#170);
#173=CARTESIAN_POINT('',(0.E0,0.E0,1.E1));
#174=DIRECTION('',(0.E0,0.E0,1.E0));
#175=DIRECTION('',(-9.203400735434E-1,3.911190982682E-1,0.E0));
#176=AXIS2_PLACEMENT_3D('',#173,#174,#175);
#178=CARTESIAN_POINT('',(0.E0,0.E0,1.2E1));
#179=DIRECTION('',(0.E0,0.E0,-1.E0));
#180=DIRECTION('',(-9.203400735434E-1,-3.911190982682E-1,0.E0));
#181=AXIS2_PLACEMENT_3D('',#178,#179,#180);
#183=CARTESIAN_POINT('',(0.E0,0.E0,1.2E1));
#184=DIRECTION('',(0.E0,0.E0,1.E0));
#185=DIRECTION('',(1.E0,0.E0,0.E0));
#186=AXIS2_PLACEMENT_3D('',#183,#184,#185);
#188=CARTESIAN_POINT('',(0.E0,0.E0,1.2E1));
#189=DIRECTION('',(0.E0,0.E0,1.E0));
#190=DIRECTION('',(-1.E0,0.E0,0.E0));
#191=AXIS2_PLACEMENT_3D('',#188,#189,#190);
#193=CARTESIAN_POINT('',(1.090599999802E1,6.296582034639E0,1.2E1));
#194=DIRECTION('',(0.E0,0.E0,1.E0));
#195=DIRECTION('',(-5.659317602463E-1,-8.244520863849E-1,0.E0));
#196=AXIS2_PLACEMENT_3D('',#193,#194,#195);
#198=CARTESIAN_POINT('',(1.090599999802E1,6.296582034639E0,1.2E1));
#199=DIRECTION('',(0.E0,0.E0,1.E0));
#200=DIRECTION('',(1.E0,0.E0,0.E0));
#201=AXIS2_PLACEMENT_3D('',#198,#199,#200);
#203=CARTESIAN_POINT('',(1.090599999802E1,6.296582034639E0,1.2E1));
#204=DIRECTION('',(0.E0,0.E0,1.E0));
#205=DIRECTION('',(-1.E0,0.E0,0.E0));
#206=AXIS2_PLACEMENT_3D('',#203,#204,#205);
#208=CARTESIAN_POINT('',(0.E0,0.E0,1.2E1));
#209=DIRECTION('',(0.E0,0.E0,1.E0));
#210=DIRECTION('',(7.988891117772E-1,6.014783346753E-1,0.E0));
#211=AXIS2_PLACEMENT_3D('',#208,#209,#210);
#213=CARTESIAN_POINT('',(0.E0,1.259316406928E1,1.2E1));
#214=DIRECTION('',(0.E0,0.E0,1.E0));
#215=DIRECTION('',(4.310305708893E-1,-9.023373243742E-1,0.E0));
#216=AXIS2_PLACEMENT_3D('',#213,#214,#215);
#218=CARTESIAN_POINT('',(0.E0,1.259316406928E1,1.2E1));
#219=DIRECTION('',(0.E0,0.E0,1.E0));
#220=DIRECTION('',(1.E0,0.E0,0.E0));
#221=AXIS2_PLACEMENT_3D('',#218,#219,#220);
#223=CARTESIAN_POINT('',(0.E0,1.259316406928E1,1.2E1));
#224=DIRECTION('',(0.E0,0.E0,1.E0));
#225=DIRECTION('',(-1.E0,0.E0,0.E0));
#226=AXIS2_PLACEMENT_3D('',#223,#224,#225);
#228=CARTESIAN_POINT('',(0.E0,0.E0,1.2E1));
#229=DIRECTION('',(0.E0,0.E0,1.E0));
#230=DIRECTION('',(-1.214509617662E-1,9.925974329435E-1,0.E0));
#231=AXIS2_PLACEMENT_3D('',#228,#229,#230);
#233=CARTESIAN_POINT('',(-1.090599999802E1,6.296582034639E0,1.2E1));
#234=DIRECTION('',(0.E0,0.E0,1.E0));
#235=DIRECTION('',(9.969623311356E-1,-7.788523798930E-2,0.E0));
#236=AXIS2_PLACEMENT_3D('',#233,#234,#235);
#238=CARTESIAN_POINT('',(-1.090599999802E1,6.296582034639E0,1.2E1));
#239=DIRECTION('',(0.E0,0.E0,1.E0));
#240=DIRECTION('',(1.E0,0.E0,0.E0));
#241=AXIS2_PLACEMENT_3D('',#238,#239,#240);
#243=CARTESIAN_POINT('',(-1.090599999802E1,6.296582034639E0,1.2E1));
#244=DIRECTION('',(0.E0,0.E0,1.E0));
#245=DIRECTION('',(-1.E0,0.E0,0.E0));
#246=AXIS2_PLACEMENT_3D('',#243,#244,#245);
#248=CARTESIAN_POINT('',(-1.090599999802E1,-6.296582034639E0,1.2E1));
#249=DIRECTION('',(0.E0,0.E0,1.E0));
#250=DIRECTION('',(5.659317602463E-1,8.244520863849E-1,0.E0));
#251=AXIS2_PLACEMENT_3D('',#248,#249,#250);
#253=CARTESIAN_POINT('',(-1.090599999802E1,-6.296582034639E0,1.2E1));
#254=DIRECTION('',(0.E0,0.E0,1.E0));
#255=DIRECTION('',(-1.E0,0.E0,0.E0));
#256=AXIS2_PLACEMENT_3D('',#253,#254,#255);
#258=CARTESIAN_POINT('',(-1.090599999802E1,-6.296582034639E0,1.2E1));
#259=DIRECTION('',(0.E0,0.E0,1.E0));
#260=DIRECTION('',(1.E0,0.E0,0.E0));
#261=AXIS2_PLACEMENT_3D('',#258,#259,#260);
#263=CARTESIAN_POINT('',(0.E0,0.E0,1.2E1));
#264=DIRECTION('',(0.E0,0.E0,1.E0));
#265=DIRECTION('',(-7.988891117772E-1,-6.014783346753E-1,0.E0));
#266=AXIS2_PLACEMENT_3D('',#263,#264,#265);
#268=CARTESIAN_POINT('',(0.E0,-1.259316406928E1,1.2E1));
#269=DIRECTION('',(0.E0,0.E0,1.E0));
#270=DIRECTION('',(-4.310305708893E-1,9.023373243742E-1,0.E0));
#271=AXIS2_PLACEMENT_3D('',#268,#269,#270);
#273=CARTESIAN_POINT('',(0.E0,-1.259316406928E1,1.2E1));
#274=DIRECTION('',(0.E0,0.E0,1.E0));
#275=DIRECTION('',(-1.E0,0.E0,0.E0));
#276=AXIS2_PLACEMENT_3D('',#273,#274,#275);
#278=CARTESIAN_POINT('',(0.E0,-1.259316406928E1,1.2E1));
#279=DIRECTION('',(0.E0,0.E0,1.E0));
#280=DIRECTION('',(1.E0,0.E0,0.E0));
#281=AXIS2_PLACEMENT_3D('',#278,#279,#280);
#283=CARTESIAN_POINT('',(0.E0,0.E0,1.2E1));
#284=DIRECTION('',(0.E0,0.E0,1.E0));
#285=DIRECTION('',(1.214509617662E-1,-9.925974329435E-1,0.E0));
#286=AXIS2_PLACEMENT_3D('',#283,#284,#285);
#288=CARTESIAN_POINT('',(1.090599999802E1,-6.296582034639E0,1.2E1));
#289=DIRECTION('',(0.E0,0.E0,1.E0));
#290=DIRECTION('',(-9.969623311356E-1,7.788523798930E-2,0.E0));
#291=AXIS2_PLACEMENT_3D('',#288,#289,#290);
#293=CARTESIAN_POINT('',(1.090599999802E1,-6.296582034639E0,1.2E1));
#294=DIRECTION('',(0.E0,0.E0,1.E0));
#295=DIRECTION('',(-1.E0,0.E0,0.E0));
#296=AXIS2_PLACEMENT_3D('',#293,#294,#295);
#298=CARTESIAN_POINT('',(1.090599999802E1,-6.296582034639E0,1.2E1));
#299=DIRECTION('',(0.E0,0.E0,1.E0));
#300=DIRECTION('',(1.E0,0.E0,0.E0));
#301=AXIS2_PLACEMENT_3D('',#298,#299,#300);
#303=CARTESIAN_POINT('',(0.E0,0.E0,2.5E0));
#304=DIRECTION('',(0.E0,0.E0,1.E0));
#305=DIRECTION('',(0.E0,1.E0,0.E0));
#306=AXIS2_PLACEMENT_3D('',#303,#304,#305);
#308=CARTESIAN_POINT('',(0.E0,0.E0,5.5E0));
#309=DIRECTION('',(0.E0,0.E0,1.E0));
#310=DIRECTION('',(0.E0,1.E0,0.E0));
#311=AXIS2_PLACEMENT_3D('',#308,#309,#310);
#313=DIRECTION('',(0.E0,0.E0,1.E0));
#314=VECTOR('',#313,3.E0);
#315=CARTESIAN_POINT('',(0.E0,1.85E1,2.5E0));
#316=LINE('',#315,#314);
#317=DIRECTION('',(0.E0,0.E0,1.E0));
#318=VECTOR('',#317,3.E0);
#319=CARTESIAN_POINT('',(-1.85E1,0.E0,2.5E0));
#320=LINE('',#319,#318);
#321=DIRECTION('',(0.E0,0.E0,1.E0));
#322=VECTOR('',#321,2.5E0);
#323=CARTESIAN_POINT('',(1.85E1,0.E0,0.E0));
#324=LINE('',#323,#322);
#325=CARTESIAN_POINT('',(0.E0,0.E0,2.5E0));
#326=DIRECTION('',(0.E0,0.E0,1.E0));
#327=DIRECTION('',(1.E0,0.E0,0.E0));
#328=AXIS2_PLACEMENT_3D('',#325,#326,#327);
#330=CARTESIAN_POINT('',(0.E0,0.E0,5.5E0));
#331=DIRECTION('',(0.E0,0.E0,1.E0));
#332=DIRECTION('',(1.E0,0.E0,0.E0));
#333=AXIS2_PLACEMENT_3D('',#330,#331,#332);
#335=DIRECTION('',(0.E0,0.E0,1.E0));
#336=VECTOR('',#335,6.5E0);
#337=CARTESIAN_POINT('',(1.85E1,0.E0,5.5E0));
#338=LINE('',#337,#336);
#339=CARTESIAN_POINT('',(0.E0,1.85E1,4.E0));
#340=DIRECTION('',(1.E0,0.E0,0.E0));
#341=DIRECTION('',(0.E0,3.999999999996E-1,9.165151389913E-1));
#342=AXIS2_PLACEMENT_3D('',#339,#340,#341);
#344=CARTESIAN_POINT('',(-1.308147545195E1,1.308147545195E1,4.E0));
#345=DIRECTION('',(7.071067811865E-1,7.071067811865E-1,0.E0));
#346=DIRECTION('',(-2.828427124746E-1,2.828427124746E-1,9.165151389912E-1));
#347=AXIS2_PLACEMENT_3D('',#344,#345,#346);
#349=CARTESIAN_POINT('',(0.E0,0.E0,5.374772708487E0));
#350=DIRECTION('',(0.E0,0.E0,1.E0));
#351=DIRECTION('',(0.E0,1.E0,0.E0));
#352=AXIS2_PLACEMENT_3D('',#349,#350,#351);
#354=CARTESIAN_POINT('',(0.E0,1.85E1,4.E0));
#355=DIRECTION('',(1.E0,0.E0,0.E0));
#356=DIRECTION('',(0.E0,0.E0,-1.E0));
#357=AXIS2_PLACEMENT_3D('',#354,#355,#356);
#359=CARTESIAN_POINT('',(0.E0,0.E0,2.625227291513E0));
#360=DIRECTION('',(0.E0,0.E0,1.E0));
#361=DIRECTION('',(0.E0,1.E0,0.E0));
#362=AXIS2_PLACEMENT_3D('',#359,#360,#361);
#364=CARTESIAN_POINT('',(-1.308147545195E1,1.308147545195E1,4.E0));
#365=DIRECTION('',(7.071067811865E-1,7.071067811865E-1,0.E0));
#366=DIRECTION('',(0.E0,0.E0,-1.E0));
#367=AXIS2_PLACEMENT_3D('',#364,#365,#366);
#369=CARTESIAN_POINT('',(-1.85E1,0.E0,4.E0));
#370=DIRECTION('',(0.E0,1.E0,0.E0));
#371=DIRECTION('',(-4.E-1,0.E0,9.165151389912E-1));
#372=AXIS2_PLACEMENT_3D('',#369,#370,#371);
#374=CARTESIAN_POINT('',(-1.308147545195E1,-1.308147545195E1,4.E0));
#375=DIRECTION('',(-7.071067811865E-1,7.071067811865E-1,0.E0));
#376=DIRECTION('',(-2.828427124746E-1,-2.828427124746E-1,9.165151389912E-1));
#377=AXIS2_PLACEMENT_3D('',#374,#375,#376);
#379=CARTESIAN_POINT('',(0.E0,0.E0,5.374772708487E0));
#380=DIRECTION('',(0.E0,0.E0,1.E0));
#381=DIRECTION('',(-1.E0,0.E0,0.E0));
#382=AXIS2_PLACEMENT_3D('',#379,#380,#381);
#384=CARTESIAN_POINT('',(-1.85E1,0.E0,4.E0));
#385=DIRECTION('',(0.E0,1.E0,0.E0));
#386=DIRECTION('',(0.E0,0.E0,-1.E0));
#387=AXIS2_PLACEMENT_3D('',#384,#385,#386);
#389=CARTESIAN_POINT('',(0.E0,0.E0,2.625227291513E0));
#390=DIRECTION('',(0.E0,0.E0,1.E0));
#391=DIRECTION('',(-1.E0,0.E0,0.E0));
#392=AXIS2_PLACEMENT_3D('',#389,#390,#391);
#394=CARTESIAN_POINT('',(-1.308147545195E1,-1.308147545195E1,4.E0));
#395=DIRECTION('',(-7.071067811865E-1,7.071067811865E-1,0.E0));
#396=DIRECTION('',(0.E0,0.E0,-1.E0));
#397=AXIS2_PLACEMENT_3D('',#394,#395,#396);
#399=CARTESIAN_POINT('',(0.E0,1.89E1,4.916515138991E0));
#400=DIRECTION('',(1.E0,0.E0,0.E0));
#401=DIRECTION('',(0.E0,1.E0,-4.796163466381E-14));
#402=AXIS2_PLACEMENT_3D('',#399,#400,#401);
#404=CARTESIAN_POINT('',(-1.336431816443E1,1.336431816443E1,4.916515138991E0));
#405=DIRECTION('',(7.071067811865E-1,7.071067811865E-1,0.E0));
#406=DIRECTION('',(-7.071067811865E-1,7.071067811865E-1,-3.552713678801E-14));
#407=AXIS2_PLACEMENT_3D('',#404,#405,#406);
#409=CARTESIAN_POINT('',(-1.89E1,0.E0,4.916515138991E0));
#410=DIRECTION('',(0.E0,1.E0,0.E0));
#411=DIRECTION('',(-1.E0,0.E0,-4.796163466381E-14));
#412=AXIS2_PLACEMENT_3D('',#409,#410,#411);
#414=CARTESIAN_POINT('',(-1.336431816443E1,-1.336431816443E1,4.916515138991E0));
#415=DIRECTION('',(-7.071067811865E-1,7.071067811865E-1,0.E0));
#416=DIRECTION('',(-7.071067811865E-1,-7.071067811865E-1,-1.776356839400E-14));
#417=AXIS2_PLACEMENT_3D('',#414,#415,#416);
#419=DIRECTION('',(0.E0,0.E0,1.E0));
#420=VECTOR('',#419,3.E0);
#421=CARTESIAN_POINT('',(-1.308147545195E1,1.308147545195E1,2.5E0));
#422=LINE('',#421,#420);
#423=CARTESIAN_POINT('',(0.E0,1.89E1,3.083484861009E0));
#424=DIRECTION('',(1.E0,0.E0,0.E0));
#425=DIRECTION('',(0.E0,3.999999999989E-1,-9.165151389917E-1));
#426=AXIS2_PLACEMENT_3D('',#423,#424,#425);
#428=CARTESIAN_POINT('',(-1.336431816443E1,1.336431816443E1,3.083484861009E0));
#429=DIRECTION('',(7.071067811865E-1,7.071067811865E-1,0.E0));
#430=DIRECTION('',(-2.828427124746E-1,2.828427124746E-1,-9.165151389912E-1));
#431=AXIS2_PLACEMENT_3D('',#428,#429,#430);
#433=CARTESIAN_POINT('',(-1.89E1,0.E0,3.083484861009E0));
#434=DIRECTION('',(0.E0,1.E0,0.E0));
#435=DIRECTION('',(-4.E-1,0.E0,-9.165151389912E-1));
#436=AXIS2_PLACEMENT_3D('',#433,#434,#435);
#438=CARTESIAN_POINT('',(-1.336431816443E1,-1.336431816443E1,3.083484861009E0));
#439=DIRECTION('',(-7.071067811865E-1,7.071067811865E-1,0.E0));
#440=DIRECTION('',(-2.828427124746E-1,-2.828427124746E-1,-9.165151389912E-1));
#441=AXIS2_PLACEMENT_3D('',#438,#439,#440);
#443=DIRECTION('',(0.E0,0.E0,1.E0));
#444=VECTOR('',#443,1.833030277982E0);
#445=CARTESIAN_POINT('',(0.E0,1.94E1,3.083484861009E0));
#446=LINE('',#445,#444);
#447=CARTESIAN_POINT('',(0.E0,0.E0,4.916515138991E0));
#448=DIRECTION('',(0.E0,0.E0,1.E0));
#449=DIRECTION('',(0.E0,1.E0,0.E0));
#450=AXIS2_PLACEMENT_3D('',#447,#448,#449);
#452=DIRECTION('',(0.E0,0.E0,1.E0));
#453=VECTOR('',#452,1.833030277982E0);
#454=CARTESIAN_POINT('',(-1.371787155502E1,1.371787155502E1,3.083484861009E0));
#455=LINE('',#454,#453);
#456=CARTESIAN_POINT('',(0.E0,0.E0,3.083484861009E0));
#457=DIRECTION('',(0.E0,0.E0,1.E0));
#458=DIRECTION('',(0.E0,1.E0,0.E0));
#459=AXIS2_PLACEMENT_3D('',#456,#457,#458);
#461=DIRECTION('',(0.E0,0.E0,1.E0));
#462=VECTOR('',#461,1.833030277982E0);
#463=CARTESIAN_POINT('',(-1.94E1,0.E0,3.083484861009E0));
#464=LINE('',#463,#462);
#465=CARTESIAN_POINT('',(0.E0,0.E0,4.916515138991E0));
#466=DIRECTION('',(0.E0,0.E0,1.E0));
#467=DIRECTION('',(-1.E0,0.E0,0.E0));
#468=AXIS2_PLACEMENT_3D('',#465,#466,#467);
#470=DIRECTION('',(0.E0,0.E0,1.E0));
#471=VECTOR('',#470,1.833030277982E0);
#472=CARTESIAN_POINT('',(-1.371787155502E1,-1.371787155502E1,3.083484861009E0));
#473=LINE('',#472,#471);
#474=CARTESIAN_POINT('',(0.E0,0.E0,3.083484861009E0));
#475=DIRECTION('',(0.E0,0.E0,1.E0));
#476=DIRECTION('',(-1.E0,0.E0,0.E0));
#477=AXIS2_PLACEMENT_3D('',#474,#475,#476);
#479=DIRECTION('',(0.E0,0.E0,1.E0));
#480=VECTOR('',#479,3.E0);
#481=CARTESIAN_POINT('',(-1.308147545195E1,-1.308147545195E1,2.5E0));
#482=LINE('',#481,#480);
#483=CARTESIAN_POINT('',(0.E0,0.E0,2.5E0));
#484=DIRECTION('',(0.E0,0.E0,1.E0));
#485=DIRECTION('',(0.E0,-1.E0,0.E0));
#486=AXIS2_PLACEMENT_3D('',#483,#484,#485);
#488=CARTESIAN_POINT('',(0.E0,0.E0,5.5E0));
#489=DIRECTION('',(0.E0,0.E0,1.E0));
#490=DIRECTION('',(0.E0,-1.E0,0.E0));
#491=AXIS2_PLACEMENT_3D('',#488,#489,#490);
#493=DIRECTION('',(0.E0,0.E0,1.E0));
#494=VECTOR('',#493,3.E0);
#495=CARTESIAN_POINT('',(0.E0,-1.85E1,2.5E0));
#496=LINE('',#495,#494);
#497=DIRECTION('',(0.E0,0.E0,1.E0));
#498=VECTOR('',#497,3.E0);
#499=CARTESIAN_POINT('',(1.85E1,0.E0,2.5E0));
#500=LINE('',#499,#498);
#501=DIRECTION('',(0.E0,0.E0,1.E0));
#502=VECTOR('',#501,2.5E0);
#503=CARTESIAN_POINT('',(-1.85E1,0.E0,0.E0));
#504=LINE('',#503,#502);
#505=CARTESIAN_POINT('',(0.E0,0.E0,2.5E0));
#506=DIRECTION('',(0.E0,0.E0,1.E0));
#507=DIRECTION('',(-1.E0,0.E0,0.E0));
#508=AXIS2_PLACEMENT_3D('',#505,#506,#507);
#510=CARTESIAN_POINT('',(0.E0,0.E0,5.5E0));
#511=DIRECTION('',(0.E0,0.E0,1.E0));
#512=DIRECTION('',(-1.E0,0.E0,0.E0));
#513=AXIS2_PLACEMENT_3D('',#510,#511,#512);
#515=DIRECTION('',(0.E0,0.E0,1.E0));
#516=VECTOR('',#515,6.5E0);
#517=CARTESIAN_POINT('',(-1.85E1,0.E0,5.5E0));
#518=LINE('',#517,#516);
#519=CARTESIAN_POINT('',(0.E0,-1.85E1,4.E0));
#520=DIRECTION('',(-1.E0,0.E0,0.E0));
#521=DIRECTION('',(0.E0,-3.999999999997E-1,9.165151389913E-1));
#522=AXIS2_PLACEMENT_3D('',#519,#520,#521);
#524=CARTESIAN_POINT('',(1.308147545195E1,-1.308147545195E1,4.E0));
#525=DIRECTION('',(-7.071067811865E-1,-7.071067811865E-1,0.E0));
#526=DIRECTION('',(2.828427124746E-1,-2.828427124746E-1,9.165151389912E-1));
#527=AXIS2_PLACEMENT_3D('',#524,#525,#526);
#529=CARTESIAN_POINT('',(0.E0,0.E0,5.374772708487E0));
#530=DIRECTION('',(0.E0,0.E0,1.E0));
#531=DIRECTION('',(0.E0,-1.E0,0.E0));
#532=AXIS2_PLACEMENT_3D('',#529,#530,#531);
#534=CARTESIAN_POINT('',(0.E0,-1.85E1,4.E0));
#535=DIRECTION('',(-1.E0,0.E0,0.E0));
#536=DIRECTION('',(0.E0,0.E0,-1.E0));
#537=AXIS2_PLACEMENT_3D('',#534,#535,#536);
#539=CARTESIAN_POINT('',(0.E0,0.E0,2.625227291513E0));
#540=DIRECTION('',(0.E0,0.E0,1.E0));
#541=DIRECTION('',(0.E0,-1.E0,0.E0));
#542=AXIS2_PLACEMENT_3D('',#539,#540,#541);
#544=CARTESIAN_POINT('',(1.308147545195E1,-1.308147545195E1,4.E0));
#545=DIRECTION('',(-7.071067811865E-1,-7.071067811865E-1,0.E0));
#546=DIRECTION('',(0.E0,0.E0,-1.E0));
#547=AXIS2_PLACEMENT_3D('',#544,#545,#546);
#549=CARTESIAN_POINT('',(1.308147545195E1,1.308147545195E1,4.E0));
#550=DIRECTION('',(7.071067811865E-1,-7.071067811865E-1,0.E0));
#551=DIRECTION('',(2.828427124746E-1,2.828427124746E-1,9.165151389912E-1));
#552=AXIS2_PLACEMENT_3D('',#549,#550,#551);
#554=CARTESIAN_POINT('',(0.E0,0.E0,5.374772708487E0));
#555=DIRECTION('',(0.E0,0.E0,1.E0));
#556=DIRECTION('',(1.E0,0.E0,0.E0));
#557=AXIS2_PLACEMENT_3D('',#554,#555,#556);
#559=CARTESIAN_POINT('',(1.85E1,0.E0,4.E0));
#560=DIRECTION('',(0.E0,-1.E0,0.E0));
#561=DIRECTION('',(4.E-1,0.E0,9.165151389912E-1));
#562=AXIS2_PLACEMENT_3D('',#559,#560,#561);
#564=CARTESIAN_POINT('',(1.308147545195E1,1.308147545195E1,4.E0));
#565=DIRECTION('',(7.071067811865E-1,-7.071067811865E-1,0.E0));
#566=DIRECTION('',(0.E0,0.E0,-1.E0));
#567=AXIS2_PLACEMENT_3D('',#564,#565,#566);
#569=CARTESIAN_POINT('',(1.85E1,0.E0,4.E0));
#570=DIRECTION('',(0.E0,-1.E0,0.E0));
#571=DIRECTION('',(0.E0,0.E0,-1.E0));
#572=AXIS2_PLACEMENT_3D('',#569,#570,#571);
#574=CARTESIAN_POINT('',(0.E0,0.E0,2.625227291513E0));
#575=DIRECTION('',(0.E0,0.E0,1.E0));
#576=DIRECTION('',(1.E0,0.E0,0.E0));
#577=AXIS2_PLACEMENT_3D('',#574,#575,#576);
#579=CARTESIAN_POINT('',(1.336431816443E1,1.336431816443E1,4.916515138991E0));
#580=DIRECTION('',(7.071067811865E-1,-7.071067811865E-1,0.E0));
#581=DIRECTION('',(7.071067811865E-1,7.071067811865E-1,-5.151434834261E-14));
#582=AXIS2_PLACEMENT_3D('',#579,#580,#581);
#584=CARTESIAN_POINT('',(1.89E1,0.E0,4.916515138991E0));
#585=DIRECTION('',(0.E0,-1.E0,0.E0));
#586=DIRECTION('',(1.E0,0.E0,-4.796163466381E-14));
#587=AXIS2_PLACEMENT_3D('',#584,#585,#586);
#589=CARTESIAN_POINT('',(0.E0,-1.89E1,4.916515138991E0));
#590=DIRECTION('',(-1.E0,0.E0,0.E0));
#591=DIRECTION('',(0.E0,-1.E0,-4.796163466381E-14));
#592=AXIS2_PLACEMENT_3D('',#589,#590,#591);
#594=CARTESIAN_POINT('',(1.336431816443E1,-1.336431816443E1,4.916515138991E0));
#595=DIRECTION('',(-7.071067811865E-1,-7.071067811865E-1,0.E0));
#596=DIRECTION('',(7.071067811865E-1,-7.071067811865E-1,-8.704148513061E-14));
#597=AXIS2_PLACEMENT_3D('',#594,#595,#596);
#599=DIRECTION('',(0.E0,0.E0,1.E0));
#600=VECTOR('',#599,3.E0);
#601=CARTESIAN_POINT('',(1.308147545195E1,1.308147545195E1,2.5E0));
#602=LINE('',#601,#600);
#603=CARTESIAN_POINT('',(1.336431816443E1,1.336431816443E1,3.083484861009E0));
#604=DIRECTION('',(7.071067811865E-1,-7.071067811865E-1,0.E0));
#605=DIRECTION('',(2.828427124746E-1,2.828427124746E-1,-9.165151389912E-1));
#606=AXIS2_PLACEMENT_3D('',#603,#604,#605);
#608=CARTESIAN_POINT('',(1.89E1,0.E0,3.083484861009E0));
#609=DIRECTION('',(0.E0,-1.E0,0.E0));
#610=DIRECTION('',(4.E-1,0.E0,-9.165151389912E-1));
#611=AXIS2_PLACEMENT_3D('',#608,#609,#610);
#613=CARTESIAN_POINT('',(0.E0,-1.89E1,3.083484861009E0));
#614=DIRECTION('',(-1.E0,0.E0,0.E0));
#615=DIRECTION('',(0.E0,-3.999999999970E-1,-9.165151389925E-1));
#616=AXIS2_PLACEMENT_3D('',#613,#614,#615);
#618=CARTESIAN_POINT('',(1.336431816443E1,-1.336431816443E1,3.083484861009E0));
#619=DIRECTION('',(-7.071067811865E-1,-7.071067811865E-1,0.E0));
#620=DIRECTION('',(2.828427124746E-1,-2.828427124746E-1,-9.165151389912E-1));
#621=AXIS2_PLACEMENT_3D('',#618,#619,#620);
#623=DIRECTION('',(0.E0,0.E0,1.E0));
#624=VECTOR('',#623,1.833030277982E0);
#625=CARTESIAN_POINT('',(0.E0,-1.94E1,3.083484861009E0));
#626=LINE('',#625,#624);
#627=CARTESIAN_POINT('',(0.E0,0.E0,4.916515138991E0));
#628=DIRECTION('',(0.E0,0.E0,1.E0));
#629=DIRECTION('',(0.E0,-1.E0,0.E0));
#630=AXIS2_PLACEMENT_3D('',#627,#628,#629);
#632=DIRECTION('',(0.E0,0.E0,1.E0));
#633=VECTOR('',#632,1.833030277982E0);
#634=CARTESIAN_POINT('',(1.371787155502E1,-1.371787155502E1,3.083484861009E0));
#635=LINE('',#634,#633);
#636=CARTESIAN_POINT('',(0.E0,0.E0,3.083484861009E0));
#637=DIRECTION('',(0.E0,0.E0,1.E0));
#638=DIRECTION('',(0.E0,-1.E0,0.E0));
#639=AXIS2_PLACEMENT_3D('',#636,#637,#638);
#641=DIRECTION('',(0.E0,0.E0,1.E0));
#642=VECTOR('',#641,1.833030277982E0);
#643=CARTESIAN_POINT('',(1.371787155502E1,1.371787155502E1,3.083484861009E0));
#644=LINE('',#643,#642);
#645=CARTESIAN_POINT('',(0.E0,0.E0,3.083484861009E0));
#646=DIRECTION('',(0.E0,0.E0,1.E0));
#647=DIRECTION('',(1.E0,0.E0,0.E0));
#648=AXIS2_PLACEMENT_3D('',#645,#646,#647);
#650=DIRECTION('',(0.E0,0.E0,1.E0));
#651=VECTOR('',#650,1.833030277982E0);
#652=CARTESIAN_POINT('',(1.94E1,0.E0,3.083484861009E0));
#653=LINE('',#652,#651);
#654=CARTESIAN_POINT('',(0.E0,0.E0,4.916515138991E0));
#655=DIRECTION('',(0.E0,0.E0,1.E0));
#656=DIRECTION('',(1.E0,0.E0,0.E0));
#657=AXIS2_PLACEMENT_3D('',#654,#655,#656);
#659=DIRECTION('',(0.E0,0.E0,1.E0));
#660=VECTOR('',#659,3.E0);
#661=CARTESIAN_POINT('',(1.308147545195E1,-1.308147545195E1,2.5E0));
#662=LINE('',#661,#660);
#663=CARTESIAN_POINT('',(1.090599999802E1,6.296582034639E0,1.E1));
#664=DIRECTION('',(0.E0,0.E0,1.E0));
#665=DIRECTION('',(-9.969623311356E-1,-7.788523798930E-2,0.E0));
#666=AXIS2_PLACEMENT_3D('',#663,#664,#665);
#668=DIRECTION('',(0.E0,0.E0,1.E0));
#669=VECTOR('',#668,2.E0);
#670=CARTESIAN_POINT('',(8.068780028950E0,6.074931180221E0,1.E1));
#671=LINE('',#670,#669);
#672=DIRECTION('',(0.E0,0.E0,-1.E0));
#673=VECTOR('',#672,1.2E1);
#674=CARTESIAN_POINT('',(8.060135234164E0,6.296582034639E0,1.2E1));
#675=LINE('',#674,#673);
#676=DIRECTION('',(0.E0,0.E0,1.E0));
#677=VECTOR('',#676,2.E0);
#678=CARTESIAN_POINT('',(9.295434742788E0,3.950302892509E0,1.E1));
#679=LINE('',#678,#677);
#680=DIRECTION('',(0.E0,0.E0,-1.E0));
#681=VECTOR('',#680,1.2E1);
#682=CARTESIAN_POINT('',(1.375186476188E1,6.296582034639E0,1.2E1));
#683=LINE('',#682,#681);
#684=DIRECTION('',(0.E0,0.E0,-1.E0));
#685=VECTOR('',#684,1.2E1);
#686=CARTESIAN_POINT('',(2.845864763856E0,1.259316406928E1,1.2E1));
#687=LINE('',#686,#685);
#688=CARTESIAN_POINT('',(-1.090599999802E1,6.296582034639E0,1.E1));
#689=DIRECTION('',(0.E0,0.E0,1.E0));
#690=DIRECTION('',(5.659317602463E-1,-8.244520863849E-1,0.E0));
#691=AXIS2_PLACEMENT_3D('',#688,#689,#690);
#693=DIRECTION('',(0.E0,0.E0,1.E0));
#694=VECTOR('',#693,2.E0);
#695=CARTESIAN_POINT('',(-9.295434742788E0,3.950302892509E0,1.E1));
#696=LINE('',#695,#694);
#697=DIRECTION('',(0.E0,0.E0,-1.E0));
#698=VECTOR('',#697,1.2E1);
#699=CARTESIAN_POINT('',(-1.375186476188E1,6.296582034639E0,1.2E1));
#700=LINE('',#699,#698);
#701=DIRECTION('',(0.E0,0.E0,1.E0));
#702=VECTOR('',#701,2.E0);
#703=CARTESIAN_POINT('',(-8.068780028950E0,6.074931180221E0,1.E1));
#704=LINE('',#703,#702);
#705=DIRECTION('',(0.E0,0.E0,-1.E0));
#706=VECTOR('',#705,1.2E1);
#707=CARTESIAN_POINT('',(-8.060135234164E0,6.296582034639E0,1.2E1));
#708=LINE('',#707,#706);
#709=CARTESIAN_POINT('',(-1.090599999802E1,-6.296582034639E0,1.E1));
#710=DIRECTION('',(0.E0,0.E0,1.E0));
#711=DIRECTION('',(9.969623311356E-1,7.788523798930E-2,0.E0));
#712=AXIS2_PLACEMENT_3D('',#709,#710,#711);
#714=DIRECTION('',(0.E0,0.E0,1.E0));
#715=VECTOR('',#714,2.E0);
#716=CARTESIAN_POINT('',(-8.068780028950E0,-6.074931180221E0,1.E1));
#717=LINE('',#716,#715);
#718=DIRECTION('',(0.E0,0.E0,-1.E0));
#719=VECTOR('',#718,1.2E1);
#720=CARTESIAN_POINT('',(-8.060135234164E0,-6.296582034639E0,1.2E1));
#721=LINE('',#720,#719);
#722=DIRECTION('',(0.E0,0.E0,1.E0));
#723=VECTOR('',#722,2.E0);
#724=CARTESIAN_POINT('',(-9.295434742788E0,-3.950302892509E0,1.E1));
#725=LINE('',#724,#723);
#726=DIRECTION('',(0.E0,0.E0,-1.E0));
#727=VECTOR('',#726,1.2E1);
#728=CARTESIAN_POINT('',(-1.375186476188E1,-6.296582034639E0,1.2E1));
#729=LINE('',#728,#727);
#730=CARTESIAN_POINT('',(0.E0,-1.259316406928E1,1.E1));
#731=DIRECTION('',(0.E0,0.E0,1.E0));
#732=DIRECTION('',(4.310305708893E-1,9.023373243742E-1,0.E0));
#733=AXIS2_PLACEMENT_3D('',#730,#731,#732);
#735=DIRECTION('',(0.E0,0.E0,1.E0));
#736=VECTOR('',#735,2.E0);
#737=CARTESIAN_POINT('',(1.226654713838E0,-1.002523407273E1,1.E1));
#738=LINE('',#737,#736);
#739=DIRECTION('',(0.E0,0.E0,-1.E0));
#740=VECTOR('',#739,1.2E1);
#741=CARTESIAN_POINT('',(2.845864763856E0,-1.259316406928E1,1.2E1));
#742=LINE('',#741,#740);
#743=DIRECTION('',(0.E0,0.E0,1.E0));
#744=VECTOR('',#743,2.E0);
#745=CARTESIAN_POINT('',(-1.226654713838E0,-1.002523407273E1,1.E1));
#746=LINE('',#745,#744);
#747=DIRECTION('',(0.E0,0.E0,-1.E0));
#748=VECTOR('',#747,1.2E1);
#749=CARTESIAN_POINT('',(-2.845864763856E0,-1.259316406928E1,1.2E1));
#750=LINE('',#749,#748);
#751=CARTESIAN_POINT('',(1.090599999802E1,-6.296582034639E0,1.E1));
#752=DIRECTION('',(0.E0,0.E0,1.E0));
#753=DIRECTION('',(-5.659317602463E-1,8.244520863849E-1,0.E0));
#754=AXIS2_PLACEMENT_3D('',#751,#752,#753);
#756=DIRECTION('',(0.E0,0.E0,1.E0));
#757=VECTOR('',#756,2.E0);
#758=CARTESIAN_POINT('',(9.295434742788E0,-3.950302892509E0,1.E1));
#759=LINE('',#758,#757);
#760=DIRECTION('',(0.E0,0.E0,-1.E0));
#761=VECTOR('',#760,1.2E1);
#762=CARTESIAN_POINT('',(1.375186476188E1,-6.296582034639E0,1.2E1));
#763=LINE('',#762,#761);
#764=DIRECTION('',(0.E0,0.E0,1.E0));
#765=VECTOR('',#764,2.E0);
#766=CARTESIAN_POINT('',(8.068780028950E0,-6.074931180221E0,1.E1));
#767=LINE('',#766,#765);
#768=DIRECTION('',(0.E0,0.E0,-1.E0));
#769=VECTOR('',#768,1.2E1);
#770=CARTESIAN_POINT('',(8.060135234164E0,-6.296582034639E0,1.2E1));
#771=LINE('',#770,#769);
#772=CARTESIAN_POINT('',(6.9E0,0.E0,0.E0));
#773=CARTESIAN_POINT('',(-6.9E0,0.E0,0.E0));
#774=VERTEX_POINT('',#772);
#775=VERTEX_POINT('',#773);
#776=CARTESIAN_POINT('',(1.85E1,0.E0,0.E0));
#777=CARTESIAN_POINT('',(-1.85E1,0.E0,0.E0));
#778=VERTEX_POINT('',#776);
#779=VERTEX_POINT('',#777);
#780=CARTESIAN_POINT('',(1.85E1,0.E0,1.2E1));
#781=CARTESIAN_POINT('',(-1.85E1,0.E0,1.2E1));
#782=VERTEX_POINT('',#780);
#783=VERTEX_POINT('',#781);
#784=CARTESIAN_POINT('',(2.845864763856E0,1.259316406928E1,0.E0));
#785=CARTESIAN_POINT('',(-2.845864763856E0,1.259316406928E1,0.E0));
#786=VERTEX_POINT('',#784);
#787=VERTEX_POINT('',#785);
#788=CARTESIAN_POINT('',(2.845864763856E0,-1.259316406928E1,0.E0));
#789=CARTESIAN_POINT('',(-2.845864763856E0,-1.259316406928E1,0.E0));
#790=VERTEX_POINT('',#788);
#791=VERTEX_POINT('',#789);
#792=CARTESIAN_POINT('',(-8.060135234164E0,6.296582034639E0,0.E0));
#793=CARTESIAN_POINT('',(-1.375186476188E1,6.296582034639E0,0.E0));
#794=VERTEX_POINT('',#792);
#795=VERTEX_POINT('',#793);
#796=CARTESIAN_POINT('',(1.375186476188E1,6.296582034639E0,0.E0));
#797=CARTESIAN_POINT('',(8.060135234164E0,6.296582034639E0,0.E0));
#798=VERTEX_POINT('',#796);
#799=VERTEX_POINT('',#797);
#800=CARTESIAN_POINT('',(1.375186476188E1,-6.296582034639E0,0.E0));
#801=CARTESIAN_POINT('',(8.060135234164E0,-6.296582034639E0,0.E0));
#802=VERTEX_POINT('',#800);
#803=VERTEX_POINT('',#801);
#804=CARTESIAN_POINT('',(-8.060135234164E0,-6.296582034639E0,0.E0));
#805=CARTESIAN_POINT('',(-1.375186476188E1,-6.296582034639E0,0.E0));
#806=VERTEX_POINT('',#804);
#807=VERTEX_POINT('',#805);
#808=CARTESIAN_POINT('',(2.845864763856E0,1.259316406928E1,1.2E1));
#809=CARTESIAN_POINT('',(-2.845864763856E0,1.259316406928E1,1.2E1));
#810=VERTEX_POINT('',#808);
#811=VERTEX_POINT('',#809);
#812=CARTESIAN_POINT('',(-2.845864763856E0,-1.259316406928E1,1.2E1));
#813=CARTESIAN_POINT('',(2.845864763856E0,-1.259316406928E1,1.2E1));
#814=VERTEX_POINT('',#812);
#815=VERTEX_POINT('',#813);
#816=CARTESIAN_POINT('',(-8.060135234164E0,6.296582034639E0,1.2E1));
#817=CARTESIAN_POINT('',(-1.375186476188E1,6.296582034639E0,1.2E1));
#818=VERTEX_POINT('',#816);
#819=VERTEX_POINT('',#817);
#820=CARTESIAN_POINT('',(1.375186476188E1,6.296582034639E0,1.2E1));
#821=CARTESIAN_POINT('',(8.060135234164E0,6.296582034639E0,1.2E1));
#822=VERTEX_POINT('',#820);
#823=VERTEX_POINT('',#821);
#824=CARTESIAN_POINT('',(8.060135234164E0,-6.296582034639E0,1.2E1));
#825=CARTESIAN_POINT('',(1.375186476188E1,-6.296582034639E0,1.2E1));
#826=VERTEX_POINT('',#824);
#827=VERTEX_POINT('',#825);
#828=CARTESIAN_POINT('',(-1.375186476188E1,-6.296582034639E0,1.2E1));
#829=CARTESIAN_POINT('',(-8.060135234164E0,-6.296582034639E0,1.2E1));
#830=VERTEX_POINT('',#828);
#831=VERTEX_POINT('',#829);
#832=CARTESIAN_POINT('',(0.E0,1.91E1,5.374772708487E0));
#833=CARTESIAN_POINT('',(0.E0,1.85E1,5.5E0));
#834=VERTEX_POINT('',#832);
#835=VERTEX_POINT('',#833);
#836=CARTESIAN_POINT('',(0.E0,1.85E1,2.5E0));
#837=CARTESIAN_POINT('',(0.E0,1.91E1,2.625227291513E0));
#838=VERTEX_POINT('',#836);
#839=VERTEX_POINT('',#837);
#840=CARTESIAN_POINT('',(-1.350573952066E1,1.350573952066E1,5.374772708487E0));
#841=CARTESIAN_POINT('',(-1.308147545195E1,1.308147545195E1,5.5E0));
#842=VERTEX_POINT('',#840);
#843=VERTEX_POINT('',#841);
#844=CARTESIAN_POINT('',(-1.308147545195E1,1.308147545195E1,2.5E0));
#845=CARTESIAN_POINT('',(-1.350573952066E1,1.350573952066E1,2.625227291513E0));
#846=VERTEX_POINT('',#844);
#847=VERTEX_POINT('',#845);
#848=CARTESIAN_POINT('',(-1.91E1,0.E0,5.374772708487E0));
#849=CARTESIAN_POINT('',(-1.85E1,0.E0,5.5E0));
#850=VERTEX_POINT('',#848);
#851=VERTEX_POINT('',#849);
#852=CARTESIAN_POINT('',(-1.85E1,0.E0,2.5E0));
#853=CARTESIAN_POINT('',(-1.91E1,0.E0,2.625227291513E0));
#854=VERTEX_POINT('',#852);
#855=VERTEX_POINT('',#853);
#856=CARTESIAN_POINT('',(-1.350573952066E1,-1.350573952066E1,5.374772708487E0));
#857=CARTESIAN_POINT('',(-1.308147545195E1,-1.308147545195E1,5.5E0));
#858=VERTEX_POINT('',#856);
#859=VERTEX_POINT('',#857);
#860=CARTESIAN_POINT('',(-1.308147545195E1,-1.308147545195E1,2.5E0));
#861=CARTESIAN_POINT('',(-1.350573952066E1,-1.350573952066E1,2.625227291513E0));
#862=VERTEX_POINT('',#860);
#863=VERTEX_POINT('',#861);
#864=CARTESIAN_POINT('',(0.E0,-1.91E1,5.374772708487E0));
#865=CARTESIAN_POINT('',(0.E0,-1.85E1,5.5E0));
#866=VERTEX_POINT('',#864);
#867=VERTEX_POINT('',#865);
#868=CARTESIAN_POINT('',(0.E0,-1.85E1,2.5E0));
#869=CARTESIAN_POINT('',(0.E0,-1.91E1,2.625227291513E0));
#870=VERTEX_POINT('',#868);
#871=VERTEX_POINT('',#869);
#872=CARTESIAN_POINT('',(0.E0,1.94E1,3.083484861009E0));
#873=CARTESIAN_POINT('',(0.E0,1.94E1,4.916515138991E0));
#874=VERTEX_POINT('',#872);
#875=VERTEX_POINT('',#873);
#876=CARTESIAN_POINT('',(-1.371787155502E1,1.371787155502E1,3.083484861009E0));
#877=CARTESIAN_POINT('',(-1.371787155502E1,1.371787155502E1,4.916515138991E0));
#878=VERTEX_POINT('',#876);
#879=VERTEX_POINT('',#877);
#880=CARTESIAN_POINT('',(-1.94E1,0.E0,3.083484861009E0));
#881=CARTESIAN_POINT('',(-1.94E1,0.E0,4.916515138991E0));
#882=VERTEX_POINT('',#880);
#883=VERTEX_POINT('',#881);
#884=CARTESIAN_POINT('',(-1.371787155502E1,-1.371787155502E1,3.083484861009E0));
#885=CARTESIAN_POINT('',(-1.371787155502E1,-1.371787155502E1,4.916515138991E0));
#886=VERTEX_POINT('',#884);
#887=VERTEX_POINT('',#885);
#888=CARTESIAN_POINT('',(0.E0,-1.94E1,3.083484861009E0));
#889=CARTESIAN_POINT('',(0.E0,-1.94E1,4.916515138991E0));
#890=VERTEX_POINT('',#888);
#891=VERTEX_POINT('',#889);
#892=CARTESIAN_POINT('',(1.350573952066E1,1.350573952066E1,5.374772708487E0));
#893=CARTESIAN_POINT('',(1.308147545195E1,1.308147545195E1,5.5E0));
#894=VERTEX_POINT('',#892);
#895=VERTEX_POINT('',#893);
#896=CARTESIAN_POINT('',(1.308147545195E1,1.308147545195E1,2.5E0));
#897=CARTESIAN_POINT('',(1.350573952066E1,1.350573952066E1,2.625227291513E0));
#898=VERTEX_POINT('',#896);
#899=VERTEX_POINT('',#897);
#900=CARTESIAN_POINT('',(1.91E1,0.E0,5.374772708487E0));
#901=CARTESIAN_POINT('',(1.85E1,0.E0,5.5E0));
#902=VERTEX_POINT('',#900);
#903=VERTEX_POINT('',#901);
#904=CARTESIAN_POINT('',(1.85E1,0.E0,2.5E0));
#905=CARTESIAN_POINT('',(1.91E1,0.E0,2.625227291513E0));
#906=VERTEX_POINT('',#904);
#907=VERTEX_POINT('',#905);
#908=CARTESIAN_POINT('',(1.350573952066E1,-1.350573952066E1,5.374772708487E0));
#909=CARTESIAN_POINT('',(1.308147545195E1,-1.308147545195E1,5.5E0));
#910=VERTEX_POINT('',#908);
#911=VERTEX_POINT('',#909);
#912=CARTESIAN_POINT('',(1.308147545195E1,-1.308147545195E1,2.5E0));
#913=CARTESIAN_POINT('',(1.350573952066E1,-1.350573952066E1,2.625227291513E0));
#914=VERTEX_POINT('',#912);
#915=VERTEX_POINT('',#913);
#916=CARTESIAN_POINT('',(1.371787155502E1,1.371787155502E1,3.083484861009E0));
#917=CARTESIAN_POINT('',(1.371787155502E1,1.371787155502E1,4.916515138991E0));
#918=VERTEX_POINT('',#916);
#919=VERTEX_POINT('',#917);
#920=CARTESIAN_POINT('',(1.94E1,0.E0,3.083484861009E0));
#921=CARTESIAN_POINT('',(1.94E1,0.E0,4.916515138991E0));
#922=VERTEX_POINT('',#920);
#923=VERTEX_POINT('',#921);
#924=CARTESIAN_POINT('',(1.371787155502E1,-1.371787155502E1,3.083484861009E0));
#925=CARTESIAN_POINT('',(1.371787155502E1,-1.371787155502E1,4.916515138991E0));
#926=VERTEX_POINT('',#924);
#927=VERTEX_POINT('',#925);
#928=CARTESIAN_POINT('',(8.068780028950E0,6.074931180221E0,1.2E1));
#929=CARTESIAN_POINT('',(1.226654713838E0,1.002523407273E1,1.2E1));
#930=VERTEX_POINT('',#928);
#931=VERTEX_POINT('',#929);
#932=CARTESIAN_POINT('',(-1.226654713838E0,1.002523407273E1,1.2E1));
#933=CARTESIAN_POINT('',(-8.068780028950E0,6.074931180221E0,1.2E1));
#934=VERTEX_POINT('',#932);
#935=VERTEX_POINT('',#933);
#936=CARTESIAN_POINT('',(-8.068780028950E0,-6.074931180221E0,1.2E1));
#937=CARTESIAN_POINT('',(-1.226654713838E0,-1.002523407273E1,1.2E1));
#938=VERTEX_POINT('',#936);
#939=VERTEX_POINT('',#937);
#940=CARTESIAN_POINT('',(1.226654713838E0,-1.002523407273E1,1.2E1));
#941=CARTESIAN_POINT('',(8.068780028950E0,-6.074931180221E0,1.2E1));
#942=VERTEX_POINT('',#940);
#943=VERTEX_POINT('',#941);
#944=CARTESIAN_POINT('',(-6.9E0,0.E0,1.E1));
#945=CARTESIAN_POINT('',(6.9E0,0.E0,1.E1));
#946=VERTEX_POINT('',#944);
#947=VERTEX_POINT('',#945);
#948=CARTESIAN_POINT('',(-1.226654713838E0,1.002523407273E1,1.E1));
#949=CARTESIAN_POINT('',(1.226654713838E0,1.002523407273E1,1.E1));
#950=VERTEX_POINT('',#948);
#951=VERTEX_POINT('',#949);
#952=CARTESIAN_POINT('',(1.226654713838E0,-1.002523407273E1,1.E1));
#953=CARTESIAN_POINT('',(-1.226654713838E0,-1.002523407273E1,1.E1));
#954=VERTEX_POINT('',#952);
#955=VERTEX_POINT('',#953);
#956=CARTESIAN_POINT('',(-9.295434742788E0,3.950302892509E0,1.E1));
#957=CARTESIAN_POINT('',(-8.068780028950E0,6.074931180221E0,1.E1));
#958=VERTEX_POINT('',#956);
#959=VERTEX_POINT('',#957);
#960=CARTESIAN_POINT('',(-9.295434742788E0,3.950302892509E0,1.2E1));
#961=VERTEX_POINT('',#960);
#962=CARTESIAN_POINT('',(8.068780028950E0,6.074931180221E0,1.E1));
#963=CARTESIAN_POINT('',(9.295434742788E0,3.950302892509E0,1.E1));
#964=VERTEX_POINT('',#962);
#965=VERTEX_POINT('',#963);
#966=CARTESIAN_POINT('',(9.295434742788E0,3.950302892509E0,1.2E1));
#967=VERTEX_POINT('',#966);
#968=CARTESIAN_POINT('',(9.295434742788E0,-3.950302892509E0,1.E1));
#969=CARTESIAN_POINT('',(8.068780028950E0,-6.074931180221E0,1.E1));
#970=VERTEX_POINT('',#968);
#971=VERTEX_POINT('',#969);
#972=CARTESIAN_POINT('',(9.295434742788E0,-3.950302892509E0,1.2E1));
#973=VERTEX_POINT('',#972);
#974=CARTESIAN_POINT('',(-8.068780028950E0,-6.074931180221E0,1.E1));
#975=CARTESIAN_POINT('',(-9.295434742788E0,-3.950302892509E0,1.E1));
#976=VERTEX_POINT('',#974);
#977=VERTEX_POINT('',#975);
#978=CARTESIAN_POINT('',(-9.295434742788E0,-3.950302892509E0,1.2E1));
#979=VERTEX_POINT('',#978);
#980=CARTESIAN_POINT('',(0.E0,0.E0,0.E0));
#981=DIRECTION('',(0.E0,0.E0,1.E0));
#982=DIRECTION('',(1.E0,0.E0,0.E0));
#983=AXIS2_PLACEMENT_3D('',#980,#981,#982);
#984=PLANE('',#983);
#986=ORIENTED_EDGE('',*,*,#985,.T.);
#988=ORIENTED_EDGE('',*,*,#987,.T.);
#989=EDGE_LOOP('',(#986,#988));
#990=FACE_OUTER_BOUND('',#989,.F.);
#992=ORIENTED_EDGE('',*,*,#991,.T.);
#994=ORIENTED_EDGE('',*,*,#993,.T.);
#995=EDGE_LOOP('',(#992,#994));
#996=FACE_BOUND('',#995,.F.);
#998=ORIENTED_EDGE('',*,*,#997,.F.);
#1000=ORIENTED_EDGE('',*,*,#999,.F.);
#1001=EDGE_LOOP('',(#998,#1000));
#1002=FACE_BOUND('',#1001,.F.);
#1004=ORIENTED_EDGE('',*,*,#1003,.F.);
#1006=ORIENTED_EDGE('',*,*,#1005,.F.);
#1007=EDGE_LOOP('',(#1004,#1006));
#1008=FACE_BOUND('',#1007,.F.);
#1010=ORIENTED_EDGE('',*,*,#1009,.F.);
#1012=ORIENTED_EDGE('',*,*,#1011,.F.);
#1013=EDGE_LOOP('',(#1010,#1012));
#1014=FACE_BOUND('',#1013,.F.);
#1016=ORIENTED_EDGE('',*,*,#1015,.F.);
#1018=ORIENTED_EDGE('',*,*,#1017,.F.);
#1019=EDGE_LOOP('',(#1016,#1018));
#1020=FACE_BOUND('',#1019,.F.);
#1022=ORIENTED_EDGE('',*,*,#1021,.F.);
#1024=ORIENTED_EDGE('',*,*,#1023,.F.);
#1025=EDGE_LOOP('',(#1022,#1024));
#1026=FACE_BOUND('',#1025,.F.);
#1028=ORIENTED_EDGE('',*,*,#1027,.F.);
#1030=ORIENTED_EDGE('',*,*,#1029,.F.);
#1031=EDGE_LOOP('',(#1028,#1030));
#1032=FACE_BOUND('',#1031,.F.);
#1034=CARTESIAN_POINT('',(0.E0,0.E0,0.E0));
#1035=DIRECTION('',(0.E0,0.E0,1.E0));
#1036=DIRECTION('',(1.E0,0.E0,0.E0));
#1037=AXIS2_PLACEMENT_3D('',#1034,#1035,#1036);
#1038=CYLINDRICAL_SURFACE('',#1037,6.9E0);
#1040=ORIENTED_EDGE('',*,*,#1039,.F.);
#1042=ORIENTED_EDGE('',*,*,#1041,.F.);
#1043=ORIENTED_EDGE('',*,*,#991,.F.);
#1045=ORIENTED_EDGE('',*,*,#1044,.T.);
#1046=EDGE_LOOP('',(#1040,#1042,#1043,#1045));
#1047=FACE_OUTER_BOUND('',#1046,.F.);
#1049=CARTESIAN_POINT('',(0.E0,0.E0,1.E1));
#1050=DIRECTION('',(0.E0,0.E0,1.E0));
#1051=DIRECTION('',(1.E0,0.E0,0.E0));
#1052=AXIS2_PLACEMENT_3D('',#1049,#1050,#1051);
#1053=PLANE('',#1052);
#1055=ORIENTED_EDGE('',*,*,#1054,.T.);
#1057=ORIENTED_EDGE('',*,*,#1056,.F.);
#1059=ORIENTED_EDGE('',*,*,#1058,.T.);
#1061=ORIENTED_EDGE('',*,*,#1060,.F.);
#1063=ORIENTED_EDGE('',*,*,#1062,.T.);
#1065=ORIENTED_EDGE('',*,*,#1064,.F.);
#1067=ORIENTED_EDGE('',*,*,#1066,.T.);
#1069=ORIENTED_EDGE('',*,*,#1068,.F.);
#1071=ORIENTED_EDGE('',*,*,#1070,.T.);
#1073=ORIENTED_EDGE('',*,*,#1072,.F.);
#1075=ORIENTED_EDGE('',*,*,#1074,.T.);
#1077=ORIENTED_EDGE('',*,*,#1076,.F.);
#1078=EDGE_LOOP('',(#1055,#1057,#1059,#1061,#1063,#1065,#1067,#1069,#1071,#1073,
#1075,#1077));
#1079=FACE_OUTER_BOUND('',#1078,.F.);
#1080=ORIENTED_EDGE('',*,*,#1039,.T.);
#1082=ORIENTED_EDGE('',*,*,#1081,.T.);
#1083=EDGE_LOOP('',(#1080,#1082));
#1084=FACE_BOUND('',#1083,.F.);
#1086=CARTESIAN_POINT('',(0.E0,0.E0,0.E0));
#1087=DIRECTION('',(0.E0,0.E0,1.E0));
#1088=DIRECTION('',(1.E0,0.E0,0.E0));
#1089=AXIS2_PLACEMENT_3D('',#1086,#1087,#1088);
#1090=CYLINDRICAL_SURFACE('',#1089,6.9E0);
#1091=ORIENTED_EDGE('',*,*,#1081,.F.);
#1092=ORIENTED_EDGE('',*,*,#1044,.F.);
#1093=ORIENTED_EDGE('',*,*,#993,.F.);
#1094=ORIENTED_EDGE('',*,*,#1041,.T.);
#1095=EDGE_LOOP('',(#1091,#1092,#1093,#1094));
#1096=FACE_OUTER_BOUND('',#1095,.F.);
#1098=CARTESIAN_POINT('',(0.E0,1.259316406928E1,1.2E1));
#1099=DIRECTION('',(0.E0,0.E0,1.E0));
#1100=DIRECTION('',(1.E0,0.E0,0.E0));
#1101=AXIS2_PLACEMENT_3D('',#1098,#1099,#1100);
#1102=CYLINDRICAL_SURFACE('',#1101,2.845864763856E0);
#1103=ORIENTED_EDGE('',*,*,#1054,.F.);
#1105=ORIENTED_EDGE('',*,*,#1104,.T.);
#1107=ORIENTED_EDGE('',*,*,#1106,.F.);
#1109=ORIENTED_EDGE('',*,*,#1108,.T.);
#1110=ORIENTED_EDGE('',*,*,#999,.T.);
#1112=ORIENTED_EDGE('',*,*,#1111,.F.);
#1114=ORIENTED_EDGE('',*,*,#1113,.F.);
#1116=ORIENTED_EDGE('',*,*,#1115,.F.);
#1117=EDGE_LOOP('',(#1103,#1105,#1107,#1109,#1110,#1112,#1114,#1116));
#1118=FACE_OUTER_BOUND('',#1117,.F.);
#1120=CARTESIAN_POINT('',(0.E0,0.E0,1.2E1));
#1121=DIRECTION('',(0.E0,0.E0,1.E0));
#1122=DIRECTION('',(1.E0,0.E0,0.E0));
#1123=AXIS2_PLACEMENT_3D('',#1120,#1121,#1122);
#1124=CYLINDRICAL_SURFACE('',#1123,1.01E1);
#1126=ORIENTED_EDGE('',*,*,#1125,.F.);
#1128=ORIENTED_EDGE('',*,*,#1127,.F.);
#1129=ORIENTED_EDGE('',*,*,#1064,.T.);
#1131=ORIENTED_EDGE('',*,*,#1130,.T.);
#1132=EDGE_LOOP('',(#1126,#1128,#1129,#1131));
#1133=FACE_OUTER_BOUND('',#1132,.F.);
#1135=CARTESIAN_POINT('',(0.E0,0.E0,1.2E1));
#1136=DIRECTION('',(0.E0,0.E0,1.E0));
#1137=DIRECTION('',(1.E0,0.E0,0.E0));
#1138=AXIS2_PLACEMENT_3D('',#1135,#1136,#1137);
#1139=CYLINDRICAL_SURFACE('',#1138,1.01E1);
#1141=ORIENTED_EDGE('',*,*,#1140,.F.);
#1143=ORIENTED_EDGE('',*,*,#1142,.F.);
#1144=ORIENTED_EDGE('',*,*,#1068,.T.);
#1146=ORIENTED_EDGE('',*,*,#1145,.T.);
#1147=EDGE_LOOP('',(#1141,#1143,#1144,#1146));
#1148=FACE_OUTER_BOUND('',#1147,.F.);
#1150=CARTESIAN_POINT('',(0.E0,0.E0,1.2E1));
#1151=DIRECTION('',(0.E0,0.E0,1.E0));
#1152=DIRECTION('',(1.E0,0.E0,0.E0));
#1153=AXIS2_PLACEMENT_3D('',#1150,#1151,#1152);
#1154=CYLINDRICAL_SURFACE('',#1153,1.01E1);
#1156=ORIENTED_EDGE('',*,*,#1155,.T.);
#1158=ORIENTED_EDGE('',*,*,#1157,.F.);
#1159=ORIENTED_EDGE('',*,*,#1060,.T.);
#1161=ORIENTED_EDGE('',*,*,#1160,.T.);
#1162=EDGE_LOOP('',(#1156,#1158,#1159,#1161));
#1163=FACE_OUTER_BOUND('',#1162,.F.);
#1165=CARTESIAN_POINT('',(0.E0,0.E0,1.2E1));
#1166=DIRECTION('',(0.E0,0.E0,1.E0));
#1167=DIRECTION('',(1.E0,0.E0,0.E0));
#1168=AXIS2_PLACEMENT_3D('',#1165,#1166,#1167);
#1169=CYLINDRICAL_SURFACE('',#1168,1.01E1);
#1171=ORIENTED_EDGE('',*,*,#1170,.F.);
#1173=ORIENTED_EDGE('',*,*,#1172,.F.);
#1174=ORIENTED_EDGE('',*,*,#1056,.T.);
#1175=ORIENTED_EDGE('',*,*,#1115,.T.);
#1176=EDGE_LOOP('',(#1171,#1173,#1174,#1175));
#1177=FACE_OUTER_BOUND('',#1176,.F.);
#1179=CARTESIAN_POINT('',(0.E0,0.E0,1.2E1));
#1180=DIRECTION('',(0.E0,0.E0,1.E0));
#1181=DIRECTION('',(1.E0,0.E0,0.E0));
#1182=AXIS2_PLACEMENT_3D('',#1179,#1180,#1181);
#1183=CYLINDRICAL_SURFACE('',#1182,1.01E1);
#1185=ORIENTED_EDGE('',*,*,#1184,.F.);
#1186=ORIENTED_EDGE('',*,*,#1104,.F.);
#1187=ORIENTED_EDGE('',*,*,#1076,.T.);
#1189=ORIENTED_EDGE('',*,*,#1188,.T.);
#1190=EDGE_LOOP('',(#1185,#1186,#1187,#1189));
#1191=FACE_OUTER_BOUND('',#1190,.F.);
#1193=CARTESIAN_POINT('',(0.E0,0.E0,1.2E1));
#1194=DIRECTION('',(0.E0,0.E0,1.E0));
#1195=DIRECTION('',(1.E0,0.E0,0.E0));
#1196=AXIS2_PLACEMENT_3D('',#1193,#1194,#1195);
#1197=CYLINDRICAL_SURFACE('',#1196,1.01E1);
#1198=ORIENTED_EDGE('',*,*,#1072,.T.);
#1200=ORIENTED_EDGE('',*,*,#1199,.T.);
#1202=ORIENTED_EDGE('',*,*,#1201,.T.);
#1204=ORIENTED_EDGE('',*,*,#1203,.F.);
#1205=EDGE_LOOP('',(#1198,#1200,#1202,#1204));
#1206=FACE_OUTER_BOUND('',#1205,.F.);
#1208=CARTESIAN_POINT('',(0.E0,0.E0,1.2E1));
#1209=DIRECTION('',(0.E0,0.E0,1.E0));
#1210=DIRECTION('',(1.E0,0.E0,0.E0));
#1211=AXIS2_PLACEMENT_3D('',#1208,#1209,#1210);
#1212=PLANE('',#1211);
#1214=ORIENTED_EDGE('',*,*,#1213,.F.);
#1216=ORIENTED_EDGE('',*,*,#1215,.F.);
#1217=EDGE_LOOP('',(#1214,#1216));
#1218=FACE_OUTER_BOUND('',#1217,.F.);
#1219=ORIENTED_EDGE('',*,*,#1155,.F.);
#1221=ORIENTED_EDGE('',*,*,#1220,.T.);
#1223=ORIENTED_EDGE('',*,*,#1222,.T.);
#1225=ORIENTED_EDGE('',*,*,#1224,.T.);
#1226=ORIENTED_EDGE('',*,*,#1170,.T.);
#1227=ORIENTED_EDGE('',*,*,#1113,.T.);
#1229=ORIENTED_EDGE('',*,*,#1228,.T.);
#1230=ORIENTED_EDGE('',*,*,#1106,.T.);
#1231=ORIENTED_EDGE('',*,*,#1184,.T.);
#1233=ORIENTED_EDGE('',*,*,#1232,.T.);
#1235=ORIENTED_EDGE('',*,*,#1234,.T.);
#1237=ORIENTED_EDGE('',*,*,#1236,.T.);
#1238=ORIENTED_EDGE('',*,*,#1201,.F.);
#1240=ORIENTED_EDGE('',*,*,#1239,.T.);
#1242=ORIENTED_EDGE('',*,*,#1241,.T.);
#1244=ORIENTED_EDGE('',*,*,#1243,.T.);
#1245=ORIENTED_EDGE('',*,*,#1140,.T.);
#1247=ORIENTED_EDGE('',*,*,#1246,.T.);
#1249=ORIENTED_EDGE('',*,*,#1248,.T.);
#1251=ORIENTED_EDGE('',*,*,#1250,.T.);
#1252=ORIENTED_EDGE('',*,*,#1125,.T.);
#1254=ORIENTED_EDGE('',*,*,#1253,.T.);
#1256=ORIENTED_EDGE('',*,*,#1255,.T.);
#1258=ORIENTED_EDGE('',*,*,#1257,.T.);
#1259=EDGE_LOOP('',(#1219,#1221,#1223,#1225,#1226,#1227,#1229,#1230,#1231,#1233,
#1235,#1237,#1238,#1240,#1242,#1244,#1245,#1247,#1249,#1251,#1252,#1254,#1256,
#1258));
#1260=FACE_BOUND('',#1259,.F.);
#1262=CARTESIAN_POINT('',(0.E0,0.E0,0.E0));
#1263=DIRECTION('',(0.E0,0.E0,1.E0));
#1264=DIRECTION('',(1.E0,0.E0,0.E0));
#1265=AXIS2_PLACEMENT_3D('',#1262,#1263,#1264);
#1266=CYLINDRICAL_SURFACE('',#1265,1.85E1);
#1268=ORIENTED_EDGE('',*,*,#1267,.F.);
#1270=ORIENTED_EDGE('',*,*,#1269,.F.);
#1272=ORIENTED_EDGE('',*,*,#1271,.F.);
#1273=ORIENTED_EDGE('',*,*,#985,.F.);
#1275=ORIENTED_EDGE('',*,*,#1274,.T.);
#1277=ORIENTED_EDGE('',*,*,#1276,.T.);
#1279=ORIENTED_EDGE('',*,*,#1278,.T.);
#1281=ORIENTED_EDGE('',*,*,#1280,.F.);
#1283=ORIENTED_EDGE('',*,*,#1282,.T.);
#1284=ORIENTED_EDGE('',*,*,#1213,.T.);
#1285=EDGE_LOOP('',(#1268,#1270,#1272,#1273,#1275,#1277,#1279,#1281,#1283,
#1284));
#1286=FACE_OUTER_BOUND('',#1285,.F.);
#1288=ORIENTED_EDGE('',*,*,#1287,.T.);
#1290=ORIENTED_EDGE('',*,*,#1289,.T.);
#1292=ORIENTED_EDGE('',*,*,#1291,.F.);
#1294=ORIENTED_EDGE('',*,*,#1293,.F.);
#1295=EDGE_LOOP('',(#1288,#1290,#1292,#1294));
#1296=FACE_BOUND('',#1295,.F.);
#1298=CARTESIAN_POINT('',(0.E0,0.E0,4.E0));
#1299=DIRECTION('',(0.E0,0.E0,1.E0));
#1300=DIRECTION('',(0.E0,1.E0,0.E0));
#1301=AXIS2_PLACEMENT_3D('',#1298,#1299,#1300);
#1302=TOROIDAL_SURFACE('',#1301,1.85E1,1.5E0);
#1304=ORIENTED_EDGE('',*,*,#1303,.T.);
#1305=ORIENTED_EDGE('',*,*,#1291,.T.);
#1307=ORIENTED_EDGE('',*,*,#1306,.F.);
#1309=ORIENTED_EDGE('',*,*,#1308,.F.);
#1310=EDGE_LOOP('',(#1304,#1305,#1307,#1309));
#1311=FACE_OUTER_BOUND('',#1310,.F.);
#1313=CARTESIAN_POINT('',(0.E0,0.E0,4.E0));
#1314=DIRECTION('',(0.E0,0.E0,1.E0));
#1315=DIRECTION('',(0.E0,1.E0,0.E0));
#1316=AXIS2_PLACEMENT_3D('',#1313,#1314,#1315);
#1317=TOROIDAL_SURFACE('',#1316,1.85E1,1.5E0);
#1319=ORIENTED_EDGE('',*,*,#1318,.T.);
#1321=ORIENTED_EDGE('',*,*,#1320,.T.);
#1323=ORIENTED_EDGE('',*,*,#1322,.F.);
#1324=ORIENTED_EDGE('',*,*,#1287,.F.);
#1325=EDGE_LOOP('',(#1319,#1321,#1323,#1324));
#1326=FACE_OUTER_BOUND('',#1325,.F.);
#1328=CARTESIAN_POINT('',(0.E0,0.E0,4.E0));
#1329=DIRECTION('',(0.E0,0.E0,1.E0));
#1330=DIRECTION('',(0.E0,1.E0,0.E0));
#1331=AXIS2_PLACEMENT_3D('',#1328,#1329,#1330);
#1332=TOROIDAL_SURFACE('',#1331,1.85E1,1.5E0);
#1334=ORIENTED_EDGE('',*,*,#1333,.T.);
#1336=ORIENTED_EDGE('',*,*,#1335,.T.);
#1338=ORIENTED_EDGE('',*,*,#1337,.F.);
#1340=ORIENTED_EDGE('',*,*,#1339,.F.);
#1341=EDGE_LOOP('',(#1334,#1336,#1338,#1340));
#1342=FACE_OUTER_BOUND('',#1341,.F.);
#1344=CARTESIAN_POINT('',(0.E0,0.E0,4.E0));
#1345=DIRECTION('',(0.E0,0.E0,1.E0));
#1346=DIRECTION('',(0.E0,1.E0,0.E0));
#1347=AXIS2_PLACEMENT_3D('',#1344,#1345,#1346);
#1348=TOROIDAL_SURFACE('',#1347,1.85E1,1.5E0);
#1350=ORIENTED_EDGE('',*,*,#1349,.T.);
#1352=ORIENTED_EDGE('',*,*,#1351,.T.);
#1354=ORIENTED_EDGE('',*,*,#1353,.F.);
#1356=ORIENTED_EDGE('',*,*,#1355,.F.);
#1357=EDGE_LOOP('',(#1350,#1352,#1354,#1356));
#1358=FACE_OUTER_BOUND('',#1357,.F.);
#1360=CARTESIAN_POINT('',(0.E0,2.072215471172E1,0.E0));
#1361=DIRECTION('',(-1.E0,0.E0,0.E0));
#1362=DIRECTION('',(0.E0,-1.E0,0.E0));
#1363=AXIS2_PLACEMENT_3D('',#1360,#1361,#1362);
#1364=PLANE('',#1363);
#1365=ORIENTED_EDGE('',*,*,#1303,.F.);
#1367=ORIENTED_EDGE('',*,*,#1366,.F.);
#1369=ORIENTED_EDGE('',*,*,#1368,.F.);
#1371=ORIENTED_EDGE('',*,*,#1370,.F.);
#1372=ORIENTED_EDGE('',*,*,#1318,.F.);
#1373=ORIENTED_EDGE('',*,*,#1293,.T.);
#1374=EDGE_LOOP('',(#1365,#1367,#1369,#1371,#1372,#1373));
#1375=FACE_OUTER_BOUND('',#1374,.F.);
#1377=CARTESIAN_POINT('',(0.E0,0.E0,4.916515138991E0));
#1378=DIRECTION('',(0.E0,0.E0,1.E0));
#1379=DIRECTION('',(4.451812366836E-3,9.999900906342E-1,0.E0));
#1380=AXIS2_PLACEMENT_3D('',#1377,#1378,#1379);
#1381=TOROIDAL_SURFACE('',#1380,1.89E1,5.E-1);
#1382=ORIENTED_EDGE('',*,*,#1366,.T.);
#1383=ORIENTED_EDGE('',*,*,#1308,.T.);
#1385=ORIENTED_EDGE('',*,*,#1384,.F.);
#1387=ORIENTED_EDGE('',*,*,#1386,.F.);
#1388=EDGE_LOOP('',(#1382,#1383,#1385,#1387));
#1389=FACE_OUTER_BOUND('',#1388,.F.);
#1391=CARTESIAN_POINT('',(0.E0,0.E0,4.916515138991E0));
#1392=DIRECTION('',(0.E0,0.E0,1.E0));
#1393=DIRECTION('',(4.451812366836E-3,9.999900906342E-1,0.E0));
#1394=AXIS2_PLACEMENT_3D('',#1391,#1392,#1393);
#1395=TOROIDAL_SURFACE('',#1394,1.89E1,5.E-1);
#1397=ORIENTED_EDGE('',*,*,#1396,.T.);
#1398=ORIENTED_EDGE('',*,*,#1339,.T.);
#1400=ORIENTED_EDGE('',*,*,#1399,.F.);
#1402=ORIENTED_EDGE('',*,*,#1401,.F.);
#1403=EDGE_LOOP('',(#1397,#1398,#1400,#1402));
#1404=FACE_OUTER_BOUND('',#1403,.F.);
#1406=CARTESIAN_POINT('',(-1.308147545195E1,1.308147545195E1,0.E0));
#1407=DIRECTION('',(7.071067811865E-1,7.071067811865E-1,0.E0));
#1408=DIRECTION('',(-7.071067811865E-1,7.071067811865E-1,0.E0));
#1409=AXIS2_PLACEMENT_3D('',#1406,#1407,#1408);
#1410=PLANE('',#1409);
#1411=ORIENTED_EDGE('',*,*,#1306,.T.);
#1412=ORIENTED_EDGE('',*,*,#1289,.F.);
#1413=ORIENTED_EDGE('',*,*,#1322,.T.);
#1415=ORIENTED_EDGE('',*,*,#1414,.T.);
#1417=ORIENTED_EDGE('',*,*,#1416,.T.);
#1418=ORIENTED_EDGE('',*,*,#1384,.T.);
#1419=EDGE_LOOP('',(#1411,#1412,#1413,#1415,#1417,#1418));
#1420=FACE_OUTER_BOUND('',#1419,.F.);
#1422=CARTESIAN_POINT('',(0.E0,0.E0,3.083484861009E0));
#1423=DIRECTION('',(0.E0,0.E0,1.E0));
#1424=DIRECTION('',(4.666515077265E-3,9.999891117592E-1,0.E0));
#1425=AXIS2_PLACEMENT_3D('',#1422,#1423,#1424);
#1426=TOROIDAL_SURFACE('',#1425,1.89E1,5.E-1);
#1427=ORIENTED_EDGE('',*,*,#1370,.T.);
#1429=ORIENTED_EDGE('',*,*,#1428,.T.);
#1430=ORIENTED_EDGE('',*,*,#1414,.F.);
#1431=ORIENTED_EDGE('',*,*,#1320,.F.);
#1432=EDGE_LOOP('',(#1427,#1429,#1430,#1431));
#1433=FACE_OUTER_BOUND('',#1432,.F.);
#1435=CARTESIAN_POINT('',(0.E0,0.E0,3.083484861009E0));
#1436=DIRECTION('',(0.E0,0.E0,1.E0));
#1437=DIRECTION('',(4.666515077265E-3,9.999891117592E-1,0.E0));
#1438=AXIS2_PLACEMENT_3D('',#1435,#1436,#1437);
#1439=TOROIDAL_SURFACE('',#1438,1.89E1,5.E-1);
#1441=ORIENTED_EDGE('',*,*,#1440,.T.);
#1443=ORIENTED_EDGE('',*,*,#1442,.T.);
#1445=ORIENTED_EDGE('',*,*,#1444,.F.);
#1446=ORIENTED_EDGE('',*,*,#1351,.F.);
#1447=EDGE_LOOP('',(#1441,#1443,#1445,#1446));
#1448=FACE_OUTER_BOUND('',#1447,.F.);
#1450=CARTESIAN_POINT('',(0.E0,0.E0,0.E0));
#1451=DIRECTION('',(0.E0,0.E0,1.E0));
#1452=DIRECTION('',(0.E0,1.E0,0.E0));
#1453=AXIS2_PLACEMENT_3D('',#1450,#1451,#1452);
#1454=CYLINDRICAL_SURFACE('',#1453,1.94E1);
#1455=ORIENTED_EDGE('',*,*,#1368,.T.);
#1456=ORIENTED_EDGE('',*,*,#1386,.T.);
#1457=ORIENTED_EDGE('',*,*,#1416,.F.);
#1458=ORIENTED_EDGE('',*,*,#1428,.F.);
#1459=EDGE_LOOP('',(#1455,#1456,#1457,#1458));
#1460=FACE_OUTER_BOUND('',#1459,.F.);
#1462=CARTESIAN_POINT('',(0.E0,0.E0,0.E0));
#1463=DIRECTION('',(0.E0,0.E0,1.E0));
#1464=DIRECTION('',(0.E0,1.E0,0.E0));
#1465=AXIS2_PLACEMENT_3D('',#1462,#1463,#1464);
#1466=CYLINDRICAL_SURFACE('',#1465,1.94E1);
#1468=ORIENTED_EDGE('',*,*,#1467,.T.);
#1469=ORIENTED_EDGE('',*,*,#1401,.T.);
#1471=ORIENTED_EDGE('',*,*,#1470,.F.);
#1472=ORIENTED_EDGE('',*,*,#1442,.F.);
#1473=EDGE_LOOP('',(#1468,#1469,#1471,#1472));
#1474=FACE_OUTER_BOUND('',#1473,.F.);
#1476=CARTESIAN_POINT('',(-2.072215471172E1,0.E0,0.E0));
#1477=DIRECTION('',(0.E0,-1.E0,0.E0));
#1478=DIRECTION('',(1.E0,0.E0,0.E0));
#1479=AXIS2_PLACEMENT_3D('',#1476,#1477,#1478);
#1480=PLANE('',#1479);
#1481=ORIENTED_EDGE('',*,*,#1333,.F.);
#1482=ORIENTED_EDGE('',*,*,#1396,.F.);
#1483=ORIENTED_EDGE('',*,*,#1467,.F.);
#1484=ORIENTED_EDGE('',*,*,#1440,.F.);
#1485=ORIENTED_EDGE('',*,*,#1349,.F.);
#1486=ORIENTED_EDGE('',*,*,#1269,.T.);
#1487=EDGE_LOOP('',(#1481,#1482,#1483,#1484,#1485,#1486));
#1488=FACE_OUTER_BOUND('',#1487,.F.);
#1490=CARTESIAN_POINT('',(-1.308147545195E1,-1.308147545195E1,0.E0));
#1491=DIRECTION('',(-7.071067811865E-1,7.071067811865E-1,0.E0));
#1492=DIRECTION('',(-7.071067811865E-1,-7.071067811865E-1,0.E0));
#1493=AXIS2_PLACEMENT_3D('',#1490,#1491,#1492);
#1494=PLANE('',#1493);
#1495=ORIENTED_EDGE('',*,*,#1337,.T.);
#1497=ORIENTED_EDGE('',*,*,#1496,.F.);
#1498=ORIENTED_EDGE('',*,*,#1353,.T.);
#1499=ORIENTED_EDGE('',*,*,#1444,.T.);
#1500=ORIENTED_EDGE('',*,*,#1470,.T.);
#1501=ORIENTED_EDGE('',*,*,#1399,.T.);
#1502=EDGE_LOOP('',(#1495,#1497,#1498,#1499,#1500,#1501));
#1503=FACE_OUTER_BOUND('',#1502,.F.);
#1505=CARTESIAN_POINT('',(0.E0,0.E0,0.E0));
#1506=DIRECTION('',(0.E0,0.E0,1.E0));
#1507=DIRECTION('',(1.E0,0.E0,0.E0));
#1508=AXIS2_PLACEMENT_3D('',#1505,#1506,#1507);
#1509=CYLINDRICAL_SURFACE('',#1508,1.85E1);
#1510=ORIENTED_EDGE('',*,*,#1282,.F.);
#1512=ORIENTED_EDGE('',*,*,#1511,.F.);
#1513=ORIENTED_EDGE('',*,*,#1274,.F.);
#1514=ORIENTED_EDGE('',*,*,#987,.F.);
#1515=ORIENTED_EDGE('',*,*,#1271,.T.);
#1516=ORIENTED_EDGE('',*,*,#1355,.T.);
#1517=ORIENTED_EDGE('',*,*,#1496,.T.);
#1518=ORIENTED_EDGE('',*,*,#1335,.F.);
#1519=ORIENTED_EDGE('',*,*,#1267,.T.);
#1520=ORIENTED_EDGE('',*,*,#1215,.T.);
#1521=EDGE_LOOP('',(#1510,#1512,#1513,#1514,#1515,#1516,#1517,#1518,#1519,
#1520));
#1522=FACE_OUTER_BOUND('',#1521,.F.);
#1524=ORIENTED_EDGE('',*,*,#1523,.T.);
#1526=ORIENTED_EDGE('',*,*,#1525,.T.);
#1528=ORIENTED_EDGE('',*,*,#1527,.F.);
#1530=ORIENTED_EDGE('',*,*,#1529,.F.);
#1531=EDGE_LOOP('',(#1524,#1526,#1528,#1530));
#1532=FACE_BOUND('',#1531,.F.);
#1534=CARTESIAN_POINT('',(0.E0,0.E0,4.E0));
#1535=DIRECTION('',(0.E0,0.E0,1.E0));
#1536=DIRECTION('',(0.E0,1.E0,0.E0));
#1537=AXIS2_PLACEMENT_3D('',#1534,#1535,#1536);
#1538=TOROIDAL_SURFACE('',#1537,1.85E1,1.5E0);
#1540=ORIENTED_EDGE('',*,*,#1539,.T.);
#1541=ORIENTED_EDGE('',*,*,#1527,.T.);
#1543=ORIENTED_EDGE('',*,*,#1542,.F.);
#1545=ORIENTED_EDGE('',*,*,#1544,.F.);
#1546=EDGE_LOOP('',(#1540,#1541,#1543,#1545));
#1547=FACE_OUTER_BOUND('',#1546,.F.);
#1549=CARTESIAN_POINT('',(0.E0,0.E0,4.E0));
#1550=DIRECTION('',(0.E0,0.E0,1.E0));
#1551=DIRECTION('',(0.E0,1.E0,0.E0));
#1552=AXIS2_PLACEMENT_3D('',#1549,#1550,#1551);
#1553=TOROIDAL_SURFACE('',#1552,1.85E1,1.5E0);
#1555=ORIENTED_EDGE('',*,*,#1554,.T.);
#1557=ORIENTED_EDGE('',*,*,#1556,.T.);
#1559=ORIENTED_EDGE('',*,*,#1558,.F.);
#1560=ORIENTED_EDGE('',*,*,#1523,.F.);
#1561=EDGE_LOOP('',(#1555,#1557,#1559,#1560));
#1562=FACE_OUTER_BOUND('',#1561,.F.);
#1564=CARTESIAN_POINT('',(0.E0,0.E0,4.E0));
#1565=DIRECTION('',(0.E0,0.E0,1.E0));
#1566=DIRECTION('',(0.E0,1.E0,0.E0));
#1567=AXIS2_PLACEMENT_3D('',#1564,#1565,#1566);
#1568=TOROIDAL_SURFACE('',#1567,1.85E1,1.5E0);
#1570=ORIENTED_EDGE('',*,*,#1569,.F.);
#1572=ORIENTED_EDGE('',*,*,#1571,.F.);
#1574=ORIENTED_EDGE('',*,*,#1573,.T.);
#1575=ORIENTED_EDGE('',*,*,#1280,.T.);
#1576=EDGE_LOOP('',(#1570,#1572,#1574,#1575));
#1577=FACE_OUTER_BOUND('',#1576,.F.);
#1579=CARTESIAN_POINT('',(0.E0,0.E0,4.E0));
#1580=DIRECTION('',(0.E0,0.E0,1.E0));
#1581=DIRECTION('',(0.E0,1.E0,0.E0));
#1582=AXIS2_PLACEMENT_3D('',#1579,#1580,#1581);
#1583=TOROIDAL_SURFACE('',#1582,1.85E1,1.5E0);
#1585=ORIENTED_EDGE('',*,*,#1584,.F.);
#1586=ORIENTED_EDGE('',*,*,#1276,.F.);
#1588=ORIENTED_EDGE('',*,*,#1587,.T.);
#1590=ORIENTED_EDGE('',*,*,#1589,.T.);
#1591=EDGE_LOOP('',(#1585,#1586,#1588,#1590));
#1592=FACE_OUTER_BOUND('',#1591,.F.);
#1594=CARTESIAN_POINT('',(0.E0,-2.072215471172E1,0.E0));
#1595=DIRECTION('',(1.E0,0.E0,0.E0));
#1596=DIRECTION('',(0.E0,1.E0,0.E0));
#1597=AXIS2_PLACEMENT_3D('',#1594,#1595,#1596);
#1598=PLANE('',#1597);
#1599=ORIENTED_EDGE('',*,*,#1539,.F.);
#1601=ORIENTED_EDGE('',*,*,#1600,.F.);
#1603=ORIENTED_EDGE('',*,*,#1602,.F.);
#1605=ORIENTED_EDGE('',*,*,#1604,.F.);
#1606=ORIENTED_EDGE('',*,*,#1554,.F.);
#1607=ORIENTED_EDGE('',*,*,#1529,.T.);
#1608=EDGE_LOOP('',(#1599,#1601,#1603,#1605,#1606,#1607));
#1609=FACE_OUTER_BOUND('',#1608,.F.);
#1611=CARTESIAN_POINT('',(0.E0,0.E0,4.916515138991E0));
#1612=DIRECTION('',(0.E0,0.E0,1.E0));
#1613=DIRECTION('',(-4.451812366837E-3,-9.999900906342E-1,0.E0));
#1614=AXIS2_PLACEMENT_3D('',#1611,#1612,#1613);
#1615=TOROIDAL_SURFACE('',#1614,1.89E1,5.E-1);
#1617=ORIENTED_EDGE('',*,*,#1616,.F.);
#1619=ORIENTED_EDGE('',*,*,#1618,.F.);
#1621=ORIENTED_EDGE('',*,*,#1620,.T.);
#1622=ORIENTED_EDGE('',*,*,#1571,.T.);
#1623=EDGE_LOOP('',(#1617,#1619,#1621,#1622));
#1624=FACE_OUTER_BOUND('',#1623,.F.);
#1626=CARTESIAN_POINT('',(0.E0,0.E0,4.916515138991E0));
#1627=DIRECTION('',(0.E0,0.E0,1.E0));
#1628=DIRECTION('',(-4.451812366837E-3,-9.999900906342E-1,0.E0));
#1629=AXIS2_PLACEMENT_3D('',#1626,#1627,#1628);
#1630=TOROIDAL_SURFACE('',#1629,1.89E1,5.E-1);
#1631=ORIENTED_EDGE('',*,*,#1600,.T.);
#1632=ORIENTED_EDGE('',*,*,#1544,.T.);
#1634=ORIENTED_EDGE('',*,*,#1633,.F.);
#1636=ORIENTED_EDGE('',*,*,#1635,.F.);
#1637=EDGE_LOOP('',(#1631,#1632,#1634,#1636));
#1638=FACE_OUTER_BOUND('',#1637,.F.);
#1640=CARTESIAN_POINT('',(1.308147545195E1,1.308147545195E1,0.E0));
#1641=DIRECTION('',(7.071067811865E-1,-7.071067811865E-1,0.E0));
#1642=DIRECTION('',(7.071067811865E-1,7.071067811865E-1,0.E0));
#1643=AXIS2_PLACEMENT_3D('',#1640,#1641,#1642);
#1644=PLANE('',#1643);
#1645=ORIENTED_EDGE('',*,*,#1569,.T.);
#1646=ORIENTED_EDGE('',*,*,#1278,.F.);
#1647=ORIENTED_EDGE('',*,*,#1584,.T.);
#1649=ORIENTED_EDGE('',*,*,#1648,.T.);
#1651=ORIENTED_EDGE('',*,*,#1650,.T.);
#1652=ORIENTED_EDGE('',*,*,#1616,.T.);
#1653=EDGE_LOOP('',(#1645,#1646,#1647,#1649,#1651,#1652));
#1654=FACE_OUTER_BOUND('',#1653,.F.);
#1656=CARTESIAN_POINT('',(0.E0,0.E0,3.083484861009E0));
#1657=DIRECTION('',(0.E0,0.E0,1.E0));
#1658=DIRECTION('',(-4.666515077266E-3,-9.999891117592E-1,0.E0));
#1659=AXIS2_PLACEMENT_3D('',#1656,#1657,#1658);
#1660=TOROIDAL_SURFACE('',#1659,1.89E1,5.E-1);
#1661=ORIENTED_EDGE('',*,*,#1648,.F.);
#1662=ORIENTED_EDGE('',*,*,#1589,.F.);
#1664=ORIENTED_EDGE('',*,*,#1663,.T.);
#1666=ORIENTED_EDGE('',*,*,#1665,.T.);
#1667=EDGE_LOOP('',(#1661,#1662,#1664,#1666));
#1668=FACE_OUTER_BOUND('',#1667,.F.);
#1670=CARTESIAN_POINT('',(0.E0,0.E0,3.083484861009E0));
#1671=DIRECTION('',(0.E0,0.E0,1.E0));
#1672=DIRECTION('',(-4.666515077266E-3,-9.999891117592E-1,0.E0));
#1673=AXIS2_PLACEMENT_3D('',#1670,#1671,#1672);
#1674=TOROIDAL_SURFACE('',#1673,1.89E1,5.E-1);
#1675=ORIENTED_EDGE('',*,*,#1604,.T.);
#1677=ORIENTED_EDGE('',*,*,#1676,.T.);
#1679=ORIENTED_EDGE('',*,*,#1678,.F.);
#1680=ORIENTED_EDGE('',*,*,#1556,.F.);
#1681=EDGE_LOOP('',(#1675,#1677,#1679,#1680));
#1682=FACE_OUTER_BOUND('',#1681,.F.);
#1684=CARTESIAN_POINT('',(2.072215471172E1,0.E0,0.E0));
#1685=DIRECTION('',(0.E0,1.E0,0.E0));
#1686=DIRECTION('',(-1.E0,0.E0,0.E0));
#1687=AXIS2_PLACEMENT_3D('',#1684,#1685,#1686);
#1688=PLANE('',#1687);
#1689=ORIENTED_EDGE('',*,*,#1573,.F.);
#1690=ORIENTED_EDGE('',*,*,#1620,.F.);
#1692=ORIENTED_EDGE('',*,*,#1691,.F.);
#1693=ORIENTED_EDGE('',*,*,#1663,.F.);
#1694=ORIENTED_EDGE('',*,*,#1587,.F.);
#1695=ORIENTED_EDGE('',*,*,#1511,.T.);
#1696=EDGE_LOOP('',(#1689,#1690,#1692,#1693,#1694,#1695));
#1697=FACE_OUTER_BOUND('',#1696,.F.);
#1699=CARTESIAN_POINT('',(0.E0,0.E0,0.E0));
#1700=DIRECTION('',(0.E0,0.E0,1.E0));
#1701=DIRECTION('',(0.E0,1.E0,0.E0));
#1702=AXIS2_PLACEMENT_3D('',#1699,#1700,#1701);
#1703=CYLINDRICAL_SURFACE('',#1702,1.94E1);
#1704=ORIENTED_EDGE('',*,*,#1602,.T.);
#1705=ORIENTED_EDGE('',*,*,#1635,.T.);
#1707=ORIENTED_EDGE('',*,*,#1706,.F.);
#1708=ORIENTED_EDGE('',*,*,#1676,.F.);
#1709=EDGE_LOOP('',(#1704,#1705,#1707,#1708));
#1710=FACE_OUTER_BOUND('',#1709,.F.);
#1712=CARTESIAN_POINT('',(0.E0,0.E0,0.E0));
#1713=DIRECTION('',(0.E0,0.E0,1.E0));
#1714=DIRECTION('',(0.E0,1.E0,0.E0));
#1715=AXIS2_PLACEMENT_3D('',#1712,#1713,#1714);
#1716=CYLINDRICAL_SURFACE('',#1715,1.94E1);
#1717=ORIENTED_EDGE('',*,*,#1650,.F.);
#1718=ORIENTED_EDGE('',*,*,#1665,.F.);
#1719=ORIENTED_EDGE('',*,*,#1691,.T.);
#1720=ORIENTED_EDGE('',*,*,#1618,.T.);
#1721=EDGE_LOOP('',(#1717,#1718,#1719,#1720));
#1722=FACE_OUTER_BOUND('',#1721,.F.);
#1724=CARTESIAN_POINT('',(1.308147545195E1,-1.308147545195E1,0.E0));
#1725=DIRECTION('',(-7.071067811865E-1,-7.071067811865E-1,0.E0));
#1726=DIRECTION('',(7.071067811865E-1,-7.071067811865E-1,0.E0));
#1727=AXIS2_PLACEMENT_3D('',#1724,#1725,#1726);
#1728=PLANE('',#1727);
#1729=ORIENTED_EDGE('',*,*,#1542,.T.);
#1730=ORIENTED_EDGE('',*,*,#1525,.F.);
#1731=ORIENTED_EDGE('',*,*,#1558,.T.);
#1732=ORIENTED_EDGE('',*,*,#1678,.T.);
#1733=ORIENTED_EDGE('',*,*,#1706,.T.);
#1734=ORIENTED_EDGE('',*,*,#1633,.T.);
#1735=EDGE_LOOP('',(#1729,#1730,#1731,#1732,#1733,#1734));
#1736=FACE_OUTER_BOUND('',#1735,.F.);
#1738=CARTESIAN_POINT('',(1.090599999802E1,6.296582034639E0,1.2E1));
#1739=DIRECTION('',(0.E0,0.E0,1.E0));
#1740=DIRECTION('',(1.E0,0.E0,0.E0));
#1741=AXIS2_PLACEMENT_3D('',#1738,#1739,#1740);
#1742=CYLINDRICAL_SURFACE('',#1741,2.845864763856E0);
#1743=ORIENTED_EDGE('',*,*,#1058,.F.);
#1744=ORIENTED_EDGE('',*,*,#1172,.T.);
#1745=ORIENTED_EDGE('',*,*,#1224,.F.);
#1747=ORIENTED_EDGE('',*,*,#1746,.T.);
#1748=ORIENTED_EDGE('',*,*,#1017,.T.);
#1750=ORIENTED_EDGE('',*,*,#1749,.F.);
#1751=ORIENTED_EDGE('',*,*,#1220,.F.);
#1752=ORIENTED_EDGE('',*,*,#1160,.F.);
#1753=EDGE_LOOP('',(#1743,#1744,#1745,#1747,#1748,#1750,#1751,#1752));
#1754=FACE_OUTER_BOUND('',#1753,.F.);
#1756=CARTESIAN_POINT('',(1.090599999802E1,6.296582034639E0,1.2E1));
#1757=DIRECTION('',(0.E0,0.E0,1.E0));
#1758=DIRECTION('',(1.E0,0.E0,0.E0));
#1759=AXIS2_PLACEMENT_3D('',#1756,#1757,#1758);
#1760=CYLINDRICAL_SURFACE('',#1759,2.845864763856E0);
#1761=ORIENTED_EDGE('',*,*,#1015,.T.);
#1762=ORIENTED_EDGE('',*,*,#1746,.F.);
#1763=ORIENTED_EDGE('',*,*,#1222,.F.);
#1764=ORIENTED_EDGE('',*,*,#1749,.T.);
#1765=EDGE_LOOP('',(#1761,#1762,#1763,#1764));
#1766=FACE_OUTER_BOUND('',#1765,.F.);
#1768=CARTESIAN_POINT('',(0.E0,1.259316406928E1,1.2E1));
#1769=DIRECTION('',(0.E0,0.E0,1.E0));
#1770=DIRECTION('',(1.E0,0.E0,0.E0));
#1771=AXIS2_PLACEMENT_3D('',#1768,#1769,#1770);
#1772=CYLINDRICAL_SURFACE('',#1771,2.845864763856E0);
#1773=ORIENTED_EDGE('',*,*,#997,.T.);
#1774=ORIENTED_EDGE('',*,*,#1108,.F.);
#1775=ORIENTED_EDGE('',*,*,#1228,.F.);
#1776=ORIENTED_EDGE('',*,*,#1111,.T.);
#1777=EDGE_LOOP('',(#1773,#1774,#1775,#1776));
#1778=FACE_OUTER_BOUND('',#1777,.F.);
#1780=CARTESIAN_POINT('',(-1.090599999802E1,6.296582034639E0,1.2E1));
#1781=DIRECTION('',(0.E0,0.E0,1.E0));
#1782=DIRECTION('',(1.E0,0.E0,0.E0));
#1783=AXIS2_PLACEMENT_3D('',#1780,#1781,#1782);
#1784=CYLINDRICAL_SURFACE('',#1783,2.845864763856E0);
#1785=ORIENTED_EDGE('',*,*,#1074,.F.);
#1786=ORIENTED_EDGE('',*,*,#1203,.T.);
#1787=ORIENTED_EDGE('',*,*,#1236,.F.);
#1789=ORIENTED_EDGE('',*,*,#1788,.T.);
#1790=ORIENTED_EDGE('',*,*,#1011,.T.);
#1792=ORIENTED_EDGE('',*,*,#1791,.F.);
#1793=ORIENTED_EDGE('',*,*,#1232,.F.);
#1794=ORIENTED_EDGE('',*,*,#1188,.F.);
#1795=EDGE_LOOP('',(#1785,#1786,#1787,#1789,#1790,#1792,#1793,#1794));
#1796=FACE_OUTER_BOUND('',#1795,.F.);
#1798=CARTESIAN_POINT('',(-1.090599999802E1,6.296582034639E0,1.2E1));
#1799=DIRECTION('',(0.E0,0.E0,1.E0));
#1800=DIRECTION('',(1.E0,0.E0,0.E0));
#1801=AXIS2_PLACEMENT_3D('',#1798,#1799,#1800);
#1802=CYLINDRICAL_SURFACE('',#1801,2.845864763856E0);
#1803=ORIENTED_EDGE('',*,*,#1009,.T.);
#1804=ORIENTED_EDGE('',*,*,#1788,.F.);
#1805=ORIENTED_EDGE('',*,*,#1234,.F.);
#1806=ORIENTED_EDGE('',*,*,#1791,.T.);
#1807=EDGE_LOOP('',(#1803,#1804,#1805,#1806));
#1808=FACE_OUTER_BOUND('',#1807,.F.);
#1810=CARTESIAN_POINT('',(-1.090599999802E1,-6.296582034639E0,1.2E1));
#1811=DIRECTION('',(0.E0,0.E0,1.E0));
#1812=DIRECTION('',(1.E0,0.E0,0.E0));
#1813=AXIS2_PLACEMENT_3D('',#1810,#1811,#1812);
#1814=CYLINDRICAL_SURFACE('',#1813,2.845864763856E0);
#1815=ORIENTED_EDGE('',*,*,#1070,.F.);
#1816=ORIENTED_EDGE('',*,*,#1142,.T.);
#1817=ORIENTED_EDGE('',*,*,#1243,.F.);
#1819=ORIENTED_EDGE('',*,*,#1818,.T.);
#1820=ORIENTED_EDGE('',*,*,#1027,.T.);
#1822=ORIENTED_EDGE('',*,*,#1821,.F.);
#1823=ORIENTED_EDGE('',*,*,#1239,.F.);
#1824=ORIENTED_EDGE('',*,*,#1199,.F.);
#1825=EDGE_LOOP('',(#1815,#1816,#1817,#1819,#1820,#1822,#1823,#1824));
#1826=FACE_OUTER_BOUND('',#1825,.F.);
#1828=CARTESIAN_POINT('',(-1.090599999802E1,-6.296582034639E0,1.2E1));
#1829=DIRECTION('',(0.E0,0.E0,1.E0));
#1830=DIRECTION('',(1.E0,0.E0,0.E0));
#1831=AXIS2_PLACEMENT_3D('',#1828,#1829,#1830);
#1832=CYLINDRICAL_SURFACE('',#1831,2.845864763856E0);
#1833=ORIENTED_EDGE('',*,*,#1029,.T.);
#1834=ORIENTED_EDGE('',*,*,#1818,.F.);
#1835=ORIENTED_EDGE('',*,*,#1241,.F.);
#1836=ORIENTED_EDGE('',*,*,#1821,.T.);
#1837=EDGE_LOOP('',(#1833,#1834,#1835,#1836));
#1838=FACE_OUTER_BOUND('',#1837,.F.);
#1840=CARTESIAN_POINT('',(0.E0,-1.259316406928E1,1.2E1));
#1841=DIRECTION('',(0.E0,0.E0,1.E0));
#1842=DIRECTION('',(1.E0,0.E0,0.E0));
#1843=AXIS2_PLACEMENT_3D('',#1840,#1841,#1842);
#1844=CYLINDRICAL_SURFACE('',#1843,2.845864763856E0);
#1845=ORIENTED_EDGE('',*,*,#1066,.F.);
#1846=ORIENTED_EDGE('',*,*,#1127,.T.);
#1847=ORIENTED_EDGE('',*,*,#1250,.F.);
#1849=ORIENTED_EDGE('',*,*,#1848,.T.);
#1850=ORIENTED_EDGE('',*,*,#1003,.T.);
#1852=ORIENTED_EDGE('',*,*,#1851,.F.);
#1853=ORIENTED_EDGE('',*,*,#1246,.F.);
#1854=ORIENTED_EDGE('',*,*,#1145,.F.);
#1855=EDGE_LOOP('',(#1845,#1846,#1847,#1849,#1850,#1852,#1853,#1854));
#1856=FACE_OUTER_BOUND('',#1855,.F.);
#1858=CARTESIAN_POINT('',(0.E0,-1.259316406928E1,1.2E1));
#1859=DIRECTION('',(0.E0,0.E0,1.E0));
#1860=DIRECTION('',(1.E0,0.E0,0.E0));
#1861=AXIS2_PLACEMENT_3D('',#1858,#1859,#1860);
#1862=CYLINDRICAL_SURFACE('',#1861,2.845864763856E0);
#1863=ORIENTED_EDGE('',*,*,#1005,.T.);
#1864=ORIENTED_EDGE('',*,*,#1848,.F.);
#1865=ORIENTED_EDGE('',*,*,#1248,.F.);
#1866=ORIENTED_EDGE('',*,*,#1851,.T.);
#1867=EDGE_LOOP('',(#1863,#1864,#1865,#1866));
#1868=FACE_OUTER_BOUND('',#1867,.F.);
#1870=CARTESIAN_POINT('',(1.090599999802E1,-6.296582034639E0,1.2E1));
#1871=DIRECTION('',(0.E0,0.E0,1.E0));
#1872=DIRECTION('',(1.E0,0.E0,0.E0));
#1873=AXIS2_PLACEMENT_3D('',#1870,#1871,#1872);
#1874=CYLINDRICAL_SURFACE('',#1873,2.845864763856E0);
#1875=ORIENTED_EDGE('',*,*,#1062,.F.);
#1876=ORIENTED_EDGE('',*,*,#1157,.T.);
#1877=ORIENTED_EDGE('',*,*,#1257,.F.);
#1879=ORIENTED_EDGE('',*,*,#1878,.T.);
#1880=ORIENTED_EDGE('',*,*,#1021,.T.);
#1882=ORIENTED_EDGE('',*,*,#1881,.F.);
#1883=ORIENTED_EDGE('',*,*,#1253,.F.);
#1884=ORIENTED_EDGE('',*,*,#1130,.F.);
#1885=EDGE_LOOP('',(#1875,#1876,#1877,#1879,#1880,#1882,#1883,#1884));
#1886=FACE_OUTER_BOUND('',#1885,.F.);
#1888=CARTESIAN_POINT('',(1.090599999802E1,-6.296582034639E0,1.2E1));
#1889=DIRECTION('',(0.E0,0.E0,1.E0));
#1890=DIRECTION('',(1.E0,0.E0,0.E0));
#1891=AXIS2_PLACEMENT_3D('',#1888,#1889,#1890);
#1892=CYLINDRICAL_SURFACE('',#1891,2.845864763856E0);
#1893=ORIENTED_EDGE('',*,*,#1023,.T.);
#1894=ORIENTED_EDGE('',*,*,#1878,.F.);
#1895=ORIENTED_EDGE('',*,*,#1255,.F.);
#1896=ORIENTED_EDGE('',*,*,#1881,.T.);
#1897=EDGE_LOOP('',(#1893,#1894,#1895,#1896));
#1898=FACE_OUTER_BOUND('',#1897,.F.);
#1900=CLOSED_SHELL('',(#1033,#1048,#1085,#1097,#1119,#1134,#1149,#1164,#1178,
#1192,#1207,#1261,#1297,#1312,#1327,#1343,#1359,#1376,#1390,#1405,#1421,#1434,
#1449,#1461,#1475,#1489,#1504,#1533,#1548,#1563,#1578,#1593,#1610,#1625,#1639,
#1655,#1669,#1683,#1698,#1711,#1723,#1737,#1755,#1767,#1779,#1797,#1809,#1827,
#1839,#1857,#1869,#1887,#1899));
#1901=MANIFOLD_SOLID_BREP('',#1900);
#1904=PLANE_ANGLE_MEASURE_WITH_UNIT(PLANE_ANGLE_MEASURE(1.745329251994E-2),
#1903);
#1905=(CONVERSION_BASED_UNIT('DEGREE',#1904)NAMED_UNIT(*)PLANE_ANGLE_UNIT());
#1907=UNCERTAINTY_MEASURE_WITH_UNIT(LENGTH_MEASURE(5.929473051695E-3),#1902,
'distance_accuracy_value',
'Maximum model space distance between geometric entities at asserted connectivities');
#1909=CARTESIAN_POINT('',(0.E0,0.E0,0.E0));
#1910=DIRECTION('',(0.E0,0.E0,1.E0));
#1911=DIRECTION('',(1.E0,0.E0,0.E0));
#1914=APPLICATION_CONTEXT('automotive_design');
#1915=APPLICATION_PROTOCOL_DEFINITION('international standard',
'automotive_design',2001,#1914);
#1916=PRODUCT_DEFINITION_CONTEXT('part definition',#1914,'design');
#1917=PRODUCT_CONTEXT('',#1914,'mechanical');
#1918=PRODUCT('BEAR4','BEAR4','NOT SPECIFIED',(#1917));
#1919=PRODUCT_DEFINITION_FORMATION('5','LAST_VERSION',#1918);
#1927=DERIVED_UNIT_ELEMENT(#1926,2.E0);
#1928=DERIVED_UNIT((#1927));
#1929=MEASURE_REPRESENTATION_ITEM('surface area measure',AREA_MEASURE(
4.829325801494E3),#1928);
#1934=DERIVED_UNIT_ELEMENT(#1933,3.E0);
#1935=DERIVED_UNIT((#1934));
#1936=MEASURE_REPRESENTATION_ITEM('volume measure',VOLUME_MEASURE(
9.089506582826E3),#1935);
#1940=CARTESIAN_POINT('centre point',(0.E0,0.E0,5.783118996752E0));
#1945=DERIVED_UNIT_ELEMENT(#1944,2.E0);
#1946=DERIVED_UNIT((#1945));
#1947=MEASURE_REPRESENTATION_ITEM('surface area measure',AREA_MEASURE(
4.829325801494E3),#1946);
#1952=DERIVED_UNIT_ELEMENT(#1951,3.E0);
#1953=DERIVED_UNIT((#1952));
#1954=MEASURE_REPRESENTATION_ITEM('volume measure',VOLUME_MEASURE(
9.089506582826E3),#1953);
#1958=CARTESIAN_POINT('centre point',(0.E0,0.E0,5.783118996752E0));
#1=DRAUGHTING_PRE_DEFINED_COLOUR('green');
#2=DRAUGHTING_PRE_DEFINED_COLOUR('green');
#3=DRAUGHTING_PRE_DEFINED_COLOUR('green');
#4=COLOUR_RGB('',1.1E-2,1.2E-2,1.E0);
#5=COLOUR_RGB('',1.1E-2,1.2E-2,1.E0);
#6=COLOUR_RGB('',4.1E-1,2.61589E-1,1.12848E-1);
#7=COLOUR_RGB('',5.04854E-1,1.5455E-2,1.5455E-2);
#8=COLOUR_RGB('',6.35294E-1,6.86275E-1,7.4902E-1);
#9=COLOUR_RGB('',6.40777E-1,6.40777E-1,6.40777E-1);
#10=COLOUR_RGB('',6.66667E-1,6.66667E-1,6.66667E-1);
#11=COLOUR_RGB('',6.69062E-1,6.69903E-1,6.55217E-1);
#12=COLOUR_RGB('',7.45098E-1,3.92157E-1,2.94118E-1);
#13=COLOUR_RGB('',8.03922E-1,5.88235E-1,1.96078E-1);
#14=COLOUR_RGB('',9.21569E-1,7.05882E-1,4.70588E-1);
#15=DRAUGHTING_PRE_DEFINED_COLOUR('red');
#16=DRAUGHTING_PRE_DEFINED_COLOUR('red');
#17=DRAUGHTING_PRE_DEFINED_COLOUR('red');
#18=DRAUGHTING_PRE_DEFINED_COLOUR('red');
#19=DRAUGHTING_PRE_DEFINED_COLOUR('red');
#20=DRAUGHTING_PRE_DEFINED_COLOUR('red');
#21=DRAUGHTING_PRE_DEFINED_COLOUR('red');
#22=DRAUGHTING_PRE_DEFINED_COLOUR('yellow');
#23=DRAUGHTING_PRE_DEFINED_COLOUR('yellow');
#24=COLOUR_RGB('',1.E0,1.E0,5.3E-1);
#25=COLOUR_RGB('',1.E0,1.E0,9.49E-1);
#26=COLOUR_RGB('',1.E0,1.E0,9.49E-1);
#27=DRAUGHTING_PRE_DEFINED_COLOUR('white');
#32=CIRCLE('',#31,6.9E0);
#37=CIRCLE('',#36,6.9E0);
#42=CIRCLE('',#41,1.85E1);
#47=CIRCLE('',#46,1.85E1);
#52=CIRCLE('',#51,2.845864763856E0);
#57=CIRCLE('',#56,2.845864763856E0);
#62=CIRCLE('',#61,2.845864763856E0);
#67=CIRCLE('',#66,2.845864763856E0);
#72=CIRCLE('',#71,2.845864763856E0);
#77=CIRCLE('',#76,2.845864763856E0);
#82=CIRCLE('',#81,2.845864763856E0);
#87=CIRCLE('',#86,2.845864763856E0);
#92=CIRCLE('',#91,2.845864763856E0);
#97=CIRCLE('',#96,2.845864763856E0);
#102=CIRCLE('',#101,2.845864763856E0);
#107=CIRCLE('',#106,2.845864763856E0);
#112=CIRCLE('',#111,6.9E0);
#121=CIRCLE('',#120,1.01E1);
#126=CIRCLE('',#125,1.01E1);
#131=CIRCLE('',#130,1.01E1);
#136=CIRCLE('',#135,1.01E1);
#141=CIRCLE('',#140,6.9E0);
#150=CIRCLE('',#149,2.845864763856E0);
#167=CIRCLE('',#166,1.01E1);
#172=CIRCLE('',#171,1.01E1);
#177=CIRCLE('',#176,1.01E1);
#182=CIRCLE('',#181,1.01E1);
#187=CIRCLE('',#186,1.85E1);
#192=CIRCLE('',#191,1.85E1);
#197=CIRCLE('',#196,2.845864763856E0);
#202=CIRCLE('',#201,2.845864763856E0);
#207=CIRCLE('',#206,2.845864763856E0);
#212=CIRCLE('',#211,1.01E1);
#217=CIRCLE('',#216,2.845864763856E0);
#222=CIRCLE('',#221,2.845864763856E0);
#227=CIRCLE('',#226,2.845864763856E0);
#232=CIRCLE('',#231,1.01E1);
#237=CIRCLE('',#236,2.845864763856E0);
#242=CIRCLE('',#241,2.845864763856E0);
#247=CIRCLE('',#246,2.845864763856E0);
#252=CIRCLE('',#251,2.845864763856E0);
#257=CIRCLE('',#256,2.845864763856E0);
#262=CIRCLE('',#261,2.845864763856E0);
#267=CIRCLE('',#266,1.01E1);
#272=CIRCLE('',#271,2.845864763856E0);
#277=CIRCLE('',#276,2.845864763856E0);
#282=CIRCLE('',#281,2.845864763856E0);
#287=CIRCLE('',#286,1.01E1);
#292=CIRCLE('',#291,2.845864763856E0);
#297=CIRCLE('',#296,2.845864763856E0);
#302=CIRCLE('',#301,2.845864763856E0);
#307=CIRCLE('',#306,1.85E1);
#312=CIRCLE('',#311,1.85E1);
#329=CIRCLE('',#328,1.85E1);
#334=CIRCLE('',#333,1.85E1);
#343=CIRCLE('',#342,1.5E0);
#348=CIRCLE('',#347,1.5E0);
#353=CIRCLE('',#352,1.91E1);
#358=CIRCLE('',#357,1.5E0);
#363=CIRCLE('',#362,1.91E1);
#368=CIRCLE('',#367,1.5E0);
#373=CIRCLE('',#372,1.5E0);
#378=CIRCLE('',#377,1.5E0);
#383=CIRCLE('',#382,1.91E1);
#388=CIRCLE('',#387,1.5E0);
#393=CIRCLE('',#392,1.91E1);
#398=CIRCLE('',#397,1.5E0);
#403=CIRCLE('',#402,5.E-1);
#408=CIRCLE('',#407,5.E-1);
#413=CIRCLE('',#412,5.E-1);
#418=CIRCLE('',#417,5.E-1);
#427=CIRCLE('',#426,5.E-1);
#432=CIRCLE('',#431,5.E-1);
#437=CIRCLE('',#436,5.E-1);
#442=CIRCLE('',#441,5.E-1);
#451=CIRCLE('',#450,1.94E1);
#460=CIRCLE('',#459,1.94E1);
#469=CIRCLE('',#468,1.94E1);
#478=CIRCLE('',#477,1.94E1);
#487=CIRCLE('',#486,1.85E1);
#492=CIRCLE('',#491,1.85E1);
#509=CIRCLE('',#508,1.85E1);
#514=CIRCLE('',#513,1.85E1);
#523=CIRCLE('',#522,1.5E0);
#528=CIRCLE('',#527,1.5E0);
#533=CIRCLE('',#532,1.91E1);
#538=CIRCLE('',#537,1.5E0);
#543=CIRCLE('',#542,1.91E1);
#548=CIRCLE('',#547,1.5E0);
#553=CIRCLE('',#552,1.5E0);
#558=CIRCLE('',#557,1.91E1);
#563=CIRCLE('',#562,1.5E0);
#568=CIRCLE('',#567,1.5E0);
#573=CIRCLE('',#572,1.5E0);
#578=CIRCLE('',#577,1.91E1);
#583=CIRCLE('',#582,5.E-1);
#588=CIRCLE('',#587,5.E-1);
#593=CIRCLE('',#592,5.E-1);
#598=CIRCLE('',#597,5.E-1);
#607=CIRCLE('',#606,5.E-1);
#612=CIRCLE('',#611,5.E-1);
#617=CIRCLE('',#616,5.E-1);
#622=CIRCLE('',#621,5.E-1);
#631=CIRCLE('',#630,1.94E1);
#640=CIRCLE('',#639,1.94E1);
#649=CIRCLE('',#648,1.94E1);
#658=CIRCLE('',#657,1.94E1);
#667=CIRCLE('',#666,2.845864763856E0);
#692=CIRCLE('',#691,2.845864763856E0);
#713=CIRCLE('',#712,2.845864763856E0);
#734=CIRCLE('',#733,2.845864763856E0);
#755=CIRCLE('',#754,2.845864763856E0);
#985=EDGE_CURVE('',#778,#779,#42,.T.);
#987=EDGE_CURVE('',#779,#778,#47,.T.);
#991=EDGE_CURVE('',#774,#775,#32,.T.);
#993=EDGE_CURVE('',#775,#774,#37,.T.);
#997=EDGE_CURVE('',#786,#787,#52,.T.);
#999=EDGE_CURVE('',#787,#786,#57,.T.);
#1003=EDGE_CURVE('',#790,#791,#62,.T.);
#1005=EDGE_CURVE('',#791,#790,#67,.T.);
#1009=EDGE_CURVE('',#794,#795,#72,.T.);
#1011=EDGE_CURVE('',#795,#794,#77,.T.);
#1015=EDGE_CURVE('',#798,#799,#82,.T.);
#1017=EDGE_CURVE('',#799,#798,#87,.T.);
#1021=EDGE_CURVE('',#802,#803,#92,.T.);
#1023=EDGE_CURVE('',#803,#802,#97,.T.);
#1027=EDGE_CURVE('',#806,#807,#102,.T.);
#1029=EDGE_CURVE('',#807,#806,#107,.T.);
#1033=ADVANCED_FACE('',(#990,#996,#1002,#1008,#1014,#1020,#1026,#1032),#984,
.F.);
#1039=EDGE_CURVE('',#946,#947,#112,.T.);
#1041=EDGE_CURVE('',#775,#946,#145,.T.);
#1044=EDGE_CURVE('',#774,#947,#116,.T.);
#1048=ADVANCED_FACE('',(#1047),#1038,.F.);
#1054=EDGE_CURVE('',#950,#951,#150,.T.);
#1056=EDGE_CURVE('',#964,#951,#121,.T.);
#1058=EDGE_CURVE('',#964,#965,#667,.T.);
#1060=EDGE_CURVE('',#970,#965,#172,.T.);
#1062=EDGE_CURVE('',#970,#971,#755,.T.);
#1064=EDGE_CURVE('',#954,#971,#126,.T.);
#1066=EDGE_CURVE('',#954,#955,#734,.T.);
#1068=EDGE_CURVE('',#976,#955,#131,.T.);
#1070=EDGE_CURVE('',#976,#977,#713,.T.);
#1072=EDGE_CURVE('',#958,#977,#177,.T.);
#1074=EDGE_CURVE('',#958,#959,#692,.T.);
#1076=EDGE_CURVE('',#950,#959,#136,.T.);
#1081=EDGE_CURVE('',#947,#946,#141,.T.);
#1085=ADVANCED_FACE('',(#1079,#1084),#1053,.T.);
#1097=ADVANCED_FACE('',(#1096),#1090,.F.);
#1104=EDGE_CURVE('',#950,#934,#154,.T.);
#1106=EDGE_CURVE('',#811,#934,#227,.T.);
#1108=EDGE_CURVE('',#811,#787,#158,.T.);
#1111=EDGE_CURVE('',#810,#786,#687,.T.);
#1113=EDGE_CURVE('',#931,#810,#217,.T.);
#1115=EDGE_CURVE('',#951,#931,#162,.T.);
#1119=ADVANCED_FACE('',(#1118),#1102,.F.);
#1125=EDGE_CURVE('',#942,#943,#287,.T.);
#1127=EDGE_CURVE('',#954,#942,#738,.T.);
#1130=EDGE_CURVE('',#971,#943,#767,.T.);
#1134=ADVANCED_FACE('',(#1133),#1124,.F.);
#1140=EDGE_CURVE('',#938,#939,#267,.T.);
#1142=EDGE_CURVE('',#976,#938,#717,.T.);
#1145=EDGE_CURVE('',#955,#939,#746,.T.);
#1149=ADVANCED_FACE('',(#1148),#1139,.F.);
#1155=EDGE_CURVE('',#967,#973,#167,.T.);
#1157=EDGE_CURVE('',#970,#973,#759,.T.);
#1160=EDGE_CURVE('',#965,#967,#679,.T.);
#1164=ADVANCED_FACE('',(#1163),#1154,.F.);
#1170=EDGE_CURVE('',#930,#931,#212,.T.);
#1172=EDGE_CURVE('',#964,#930,#671,.T.);
#1178=ADVANCED_FACE('',(#1177),#1169,.F.);
#1184=EDGE_CURVE('',#934,#935,#232,.T.);
#1188=EDGE_CURVE('',#959,#935,#704,.T.);
#1192=ADVANCED_FACE('',(#1191),#1183,.F.);
#1199=EDGE_CURVE('',#977,#979,#725,.T.);
#1201=EDGE_CURVE('',#979,#961,#182,.T.);
#1203=EDGE_CURVE('',#958,#961,#696,.T.);
#1207=ADVANCED_FACE('',(#1206),#1197,.F.);
#1213=EDGE_CURVE('',#782,#783,#187,.T.);
#1215=EDGE_CURVE('',#783,#782,#192,.T.);
#1220=EDGE_CURVE('',#967,#822,#197,.T.);
#1222=EDGE_CURVE('',#822,#823,#202,.T.);
#1224=EDGE_CURVE('',#823,#930,#207,.T.);
#1228=EDGE_CURVE('',#810,#811,#222,.T.);
#1232=EDGE_CURVE('',#935,#818,#237,.T.);
#1234=EDGE_CURVE('',#818,#819,#242,.T.);
#1236=EDGE_CURVE('',#819,#961,#247,.T.);
#1239=EDGE_CURVE('',#979,#830,#252,.T.);
#1241=EDGE_CURVE('',#830,#831,#257,.T.);
#1243=EDGE_CURVE('',#831,#938,#262,.T.);
#1246=EDGE_CURVE('',#939,#814,#272,.T.);
#1248=EDGE_CURVE('',#814,#815,#277,.T.);
#1250=EDGE_CURVE('',#815,#942,#282,.T.);
#1253=EDGE_CURVE('',#943,#826,#292,.T.);
#1255=EDGE_CURVE('',#826,#827,#297,.T.);
#1257=EDGE_CURVE('',#827,#973,#302,.T.);
#1261=ADVANCED_FACE('',(#1218,#1260),#1212,.T.);
#1267=EDGE_CURVE('',#851,#783,#518,.T.);
#1269=EDGE_CURVE('',#854,#851,#320,.T.);
#1271=EDGE_CURVE('',#779,#854,#504,.T.);
#1274=EDGE_CURVE('',#778,#906,#324,.T.);
#1276=EDGE_CURVE('',#906,#898,#329,.T.);
#1278=EDGE_CURVE('',#898,#895,#602,.T.);
#1280=EDGE_CURVE('',#903,#895,#334,.T.);
#1282=EDGE_CURVE('',#903,#782,#338,.T.);
#1287=EDGE_CURVE('',#838,#846,#307,.T.);
#1289=EDGE_CURVE('',#846,#843,#422,.T.);
#1291=EDGE_CURVE('',#835,#843,#312,.T.);
#1293=EDGE_CURVE('',#838,#835,#316,.T.);
#1297=ADVANCED_FACE('',(#1286,#1296),#1266,.T.);
#1303=EDGE_CURVE('',#834,#835,#343,.T.);
#1306=EDGE_CURVE('',#842,#843,#348,.T.);
#1308=EDGE_CURVE('',#834,#842,#353,.T.);
#1312=ADVANCED_FACE('',(#1311),#1302,.T.);
#1318=EDGE_CURVE('',#838,#839,#358,.T.);
#1320=EDGE_CURVE('',#839,#847,#363,.T.);
#1322=EDGE_CURVE('',#846,#847,#368,.T.);
#1327=ADVANCED_FACE('',(#1326),#1317,.T.);
#1333=EDGE_CURVE('',#850,#851,#373,.T.);
#1335=EDGE_CURVE('',#851,#859,#514,.T.);
#1337=EDGE_CURVE('',#858,#859,#378,.T.);
#1339=EDGE_CURVE('',#850,#858,#383,.T.);
#1343=ADVANCED_FACE('',(#1342),#1332,.T.);
#1349=EDGE_CURVE('',#854,#855,#388,.T.);
#1351=EDGE_CURVE('',#855,#863,#393,.T.);
#1353=EDGE_CURVE('',#862,#863,#398,.T.);
#1355=EDGE_CURVE('',#854,#862,#509,.T.);
#1359=ADVANCED_FACE('',(#1358),#1348,.T.);
#1366=EDGE_CURVE('',#875,#834,#403,.T.);
#1368=EDGE_CURVE('',#874,#875,#446,.T.);
#1370=EDGE_CURVE('',#839,#874,#427,.T.);
#1376=ADVANCED_FACE('',(#1375),#1364,.F.);
#1384=EDGE_CURVE('',#879,#842,#408,.T.);
#1386=EDGE_CURVE('',#875,#879,#451,.T.);
#1390=ADVANCED_FACE('',(#1389),#1381,.T.);
#1396=EDGE_CURVE('',#883,#850,#413,.T.);
#1399=EDGE_CURVE('',#887,#858,#418,.T.);
#1401=EDGE_CURVE('',#883,#887,#469,.T.);
#1405=ADVANCED_FACE('',(#1404),#1395,.T.);
#1414=EDGE_CURVE('',#847,#878,#432,.T.);
#1416=EDGE_CURVE('',#878,#879,#455,.T.);
#1421=ADVANCED_FACE('',(#1420),#1410,.F.);
#1428=EDGE_CURVE('',#874,#878,#460,.T.);
#1434=ADVANCED_FACE('',(#1433),#1426,.T.);
#1440=EDGE_CURVE('',#855,#882,#437,.T.);
#1442=EDGE_CURVE('',#882,#886,#478,.T.);
#1444=EDGE_CURVE('',#863,#886,#442,.T.);
#1449=ADVANCED_FACE('',(#1448),#1439,.T.);
#1461=ADVANCED_FACE('',(#1460),#1454,.T.);
#1467=EDGE_CURVE('',#882,#883,#464,.T.);
#1470=EDGE_CURVE('',#886,#887,#473,.T.);
#1475=ADVANCED_FACE('',(#1474),#1466,.T.);
#1489=ADVANCED_FACE('',(#1488),#1480,.F.);
#1496=EDGE_CURVE('',#862,#859,#482,.T.);
#1504=ADVANCED_FACE('',(#1503),#1494,.F.);
#1511=EDGE_CURVE('',#906,#903,#500,.T.);
#1523=EDGE_CURVE('',#870,#914,#487,.T.);
#1525=EDGE_CURVE('',#914,#911,#662,.T.);
#1527=EDGE_CURVE('',#867,#911,#492,.T.);
#1529=EDGE_CURVE('',#870,#867,#496,.T.);
#1533=ADVANCED_FACE('',(#1522,#1532),#1509,.T.);
#1539=EDGE_CURVE('',#866,#867,#523,.T.);
#1542=EDGE_CURVE('',#910,#911,#528,.T.);
#1544=EDGE_CURVE('',#866,#910,#533,.T.);
#1548=ADVANCED_FACE('',(#1547),#1538,.T.);
#1554=EDGE_CURVE('',#870,#871,#538,.T.);
#1556=EDGE_CURVE('',#871,#915,#543,.T.);
#1558=EDGE_CURVE('',#914,#915,#548,.T.);
#1563=ADVANCED_FACE('',(#1562),#1553,.T.);
#1569=EDGE_CURVE('',#894,#895,#553,.T.);
#1571=EDGE_CURVE('',#902,#894,#558,.T.);
#1573=EDGE_CURVE('',#902,#903,#563,.T.);
#1578=ADVANCED_FACE('',(#1577),#1568,.T.);
#1584=EDGE_CURVE('',#898,#899,#568,.T.);
#1587=EDGE_CURVE('',#906,#907,#573,.T.);
#1589=EDGE_CURVE('',#907,#899,#578,.T.);
#1593=ADVANCED_FACE('',(#1592),#1583,.T.);
#1600=EDGE_CURVE('',#891,#866,#593,.T.);
#1602=EDGE_CURVE('',#890,#891,#626,.T.);
#1604=EDGE_CURVE('',#871,#890,#617,.T.);
#1610=ADVANCED_FACE('',(#1609),#1598,.F.);
#1616=EDGE_CURVE('',#919,#894,#583,.T.);
#1618=EDGE_CURVE('',#923,#919,#658,.T.);
#1620=EDGE_CURVE('',#923,#902,#588,.T.);
#1625=ADVANCED_FACE('',(#1624),#1615,.T.);
#1633=EDGE_CURVE('',#927,#910,#598,.T.);
#1635=EDGE_CURVE('',#891,#927,#631,.T.);
#1639=ADVANCED_FACE('',(#1638),#1630,.T.);
#1648=EDGE_CURVE('',#899,#918,#607,.T.);
#1650=EDGE_CURVE('',#918,#919,#644,.T.);
#1655=ADVANCED_FACE('',(#1654),#1644,.F.);
#1663=EDGE_CURVE('',#907,#922,#612,.T.);
#1665=EDGE_CURVE('',#922,#918,#649,.T.);
#1669=ADVANCED_FACE('',(#1668),#1660,.T.);
#1676=EDGE_CURVE('',#890,#926,#640,.T.);
#1678=EDGE_CURVE('',#915,#926,#622,.T.);
#1683=ADVANCED_FACE('',(#1682),#1674,.T.);
#1691=EDGE_CURVE('',#922,#923,#653,.T.);
#1698=ADVANCED_FACE('',(#1697),#1688,.F.);
#1706=EDGE_CURVE('',#926,#927,#635,.T.);
#1711=ADVANCED_FACE('',(#1710),#1703,.T.);
#1723=ADVANCED_FACE('',(#1722),#1716,.T.);
#1737=ADVANCED_FACE('',(#1736),#1728,.F.);
#1746=EDGE_CURVE('',#823,#799,#675,.T.);
#1749=EDGE_CURVE('',#822,#798,#683,.T.);
#1755=ADVANCED_FACE('',(#1754),#1742,.F.);
#1767=ADVANCED_FACE('',(#1766),#1760,.F.);
#1779=ADVANCED_FACE('',(#1778),#1772,.F.);
#1788=EDGE_CURVE('',#819,#795,#700,.T.);
#1791=EDGE_CURVE('',#818,#794,#708,.T.);
#1797=ADVANCED_FACE('',(#1796),#1784,.F.);
#1809=ADVANCED_FACE('',(#1808),#1802,.F.);
#1818=EDGE_CURVE('',#831,#806,#721,.T.);
#1821=EDGE_CURVE('',#830,#807,#729,.T.);
#1827=ADVANCED_FACE('',(#1826),#1814,.F.);
#1839=ADVANCED_FACE('',(#1838),#1832,.F.);
#1848=EDGE_CURVE('',#815,#790,#742,.T.);
#1851=EDGE_CURVE('',#814,#791,#750,.T.);
#1857=ADVANCED_FACE('',(#1856),#1844,.F.);
#1869=ADVANCED_FACE('',(#1868),#1862,.F.);
#1878=EDGE_CURVE('',#827,#802,#763,.T.);
#1881=EDGE_CURVE('',#826,#803,#771,.T.);
#1887=ADVANCED_FACE('',(#1886),#1874,.F.);
#1899=ADVANCED_FACE('',(#1898),#1892,.F.);
#1902=(LENGTH_UNIT()NAMED_UNIT(*)SI_UNIT(.MILLI.,.METRE.));
#1903=(NAMED_UNIT(*)PLANE_ANGLE_UNIT()SI_UNIT($,.RADIAN.));
#1906=(NAMED_UNIT(*)SI_UNIT($,.STERADIAN.)SOLID_ANGLE_UNIT());
#1908=(GEOMETRIC_REPRESENTATION_CONTEXT(3)GLOBAL_UNCERTAINTY_ASSIGNED_CONTEXT((
#1907))GLOBAL_UNIT_ASSIGNED_CONTEXT((#1902,#1905,#1906))REPRESENTATION_CONTEXT(
'ID1','external'));
#1912=AXIS2_PLACEMENT_3D('',#1909,#1910,#1911);
#1913=ADVANCED_BREP_SHAPE_REPRESENTATION('',(#1912,#1901),#1908);
#1920=PRODUCT_DEFINITION('part definition','',#1919,#1916);
#1921=PRODUCT_DEFINITION_SHAPE('','SHAPE FOR BEAR4.',#1920);
#1922=SHAPE_ASPECT('','solid data associated with BEAR4',#1921,.F.);
#1923=PROPERTY_DEFINITION('',
'shape for solid data with which properties are associated',#1922);
#1924=SHAPE_REPRESENTATION('',(#1901),#1908);
#1925=SHAPE_DEFINITION_REPRESENTATION(#1923,#1924);
#1926=(LENGTH_UNIT()NAMED_UNIT(*)SI_UNIT(.MILLI.,.METRE.));
#1930=PROPERTY_DEFINITION('geometric validation property','area of BEAR4',
#1922);
#1931=REPRESENTATION('surface area',(#1929),#1908);
#1932=PROPERTY_DEFINITION_REPRESENTATION(#1930,#1931);
#1933=(LENGTH_UNIT()NAMED_UNIT(*)SI_UNIT(.MILLI.,.METRE.));
#1937=PROPERTY_DEFINITION('geometric validation property','volume of BEAR4',
#1922);
#1938=REPRESENTATION('volume',(#1936),#1908);
#1939=PROPERTY_DEFINITION_REPRESENTATION(#1937,#1938);
#1941=PROPERTY_DEFINITION('geometric validation property','centroid of BEAR4',
#1922);
#1942=REPRESENTATION('centroid',(#1940),#1908);
#1943=PROPERTY_DEFINITION_REPRESENTATION(#1941,#1942);
#1944=(LENGTH_UNIT()NAMED_UNIT(*)SI_UNIT(.MILLI.,.METRE.));
#1948=PROPERTY_DEFINITION('geometric validation property','area of BEAR4',
#1921);
#1949=REPRESENTATION('surface area',(#1947),#1908);
#1950=PROPERTY_DEFINITION_REPRESENTATION(#1948,#1949);
#1951=(LENGTH_UNIT()NAMED_UNIT(*)SI_UNIT(.MILLI.,.METRE.));
#1955=PROPERTY_DEFINITION('geometric validation property','volume of BEAR4',
#1921);
#1956=REPRESENTATION('volume',(#1954),#1908);
#1957=PROPERTY_DEFINITION_REPRESENTATION(#1955,#1956);
#1959=PROPERTY_DEFINITION('geometric validation property','centroid of BEAR4',
#1921);
#1960=REPRESENTATION('centroid',(#1958),#1908);
#1961=PROPERTY_DEFINITION_REPRESENTATION(#1959,#1960);
#1962=SHAPE_DEFINITION_REPRESENTATION(#1921,#1913);
#1963=PRODUCT_RELATED_PRODUCT_CATEGORY('part','',(#1918));
ENDSEC;
END-ISO-10303-21;
