ISO-10303-21;
HEADER;
FILE_DESCRIPTION((''),'2;1');
FILE_NAME('BRAKE1','2026-08-09T09:56:41',('gram2'),(''),
'CREO PARAMETRIC BY PTC INC, 2016510','CREO PARAMETRIC BY PTC INC, 2016510','');
FILE_SCHEMA(('AUTOMOTIVE_DESIGN { 1 0 10303 214 1 1 1 1 }'));
ENDSEC;
DATA;
#29=CARTESIAN_POINT('',(-4.E0,0.E0,3.E0));
#30=DIRECTION('',(0.E0,0.E0,1.E0));
#31=DIRECTION('',(1.E0,0.E0,0.E0));
#32=AXIS2_PLACEMENT_3D('',#29,#30,#31);
#34=DRAUGHTING_PRE_DEFINED_CURVE_FONT('continuous');
#35=CURVE_STYLE('',#34,POSITIVE_LENGTH_MEASURE(2.E-2),#21);
#36=PRESENTATION_STYLE_ASSIGNMENT((#35));
#37=STYLED_ITEM('',(#36),#33);
#38=CARTESIAN_POINT('',(-4.E0,0.E0,3.E0));
#39=DIRECTION('',(0.E0,0.E0,1.E0));
#40=DIRECTION('',(-1.E0,0.E0,0.E0));
#41=AXIS2_PLACEMENT_3D('',#38,#39,#40);
#43=CURVE_STYLE('',#34,POSITIVE_LENGTH_MEASURE(2.E-2),#21);
#44=PRESENTATION_STYLE_ASSIGNMENT((#43));
#45=STYLED_ITEM('',(#44),#42);
#46=CARTESIAN_POINT('',(4.E0,0.E0,3.E0));
#47=DIRECTION('',(0.E0,0.E0,1.E0));
#48=DIRECTION('',(1.E0,0.E0,0.E0));
#49=AXIS2_PLACEMENT_3D('',#46,#47,#48);
#51=CURVE_STYLE('',#34,POSITIVE_LENGTH_MEASURE(2.E-2),#21);
#52=PRESENTATION_STYLE_ASSIGNMENT((#51));
#53=STYLED_ITEM('',(#52),#50);
#54=CARTESIAN_POINT('',(4.E0,0.E0,3.E0));
#55=DIRECTION('',(0.E0,0.E0,1.E0));
#56=DIRECTION('',(-1.E0,0.E0,0.E0));
#57=AXIS2_PLACEMENT_3D('',#54,#55,#56);
#59=CURVE_STYLE('',#34,POSITIVE_LENGTH_MEASURE(2.E-2),#21);
#60=PRESENTATION_STYLE_ASSIGNMENT((#59));
#61=STYLED_ITEM('',(#60),#58);
#62=DIRECTION('',(0.E0,1.E0,0.E0));
#63=VECTOR('',#62,3.E0);
#64=CARTESIAN_POINT('',(-5.690977705434E0,-1.5E0,3.E0));
#65=LINE('',#64,#63);
#66=CURVE_STYLE('',#34,POSITIVE_LENGTH_MEASURE(2.E-2),#21);
#67=PRESENTATION_STYLE_ASSIGNMENT((#66));
#68=STYLED_ITEM('',(#67),#65);
#69=DIRECTION('',(-1.E0,0.E0,0.E0));
#70=VECTOR('',#69,4.090977705434E0);
#71=CARTESIAN_POINT('',(-1.6E0,1.5E0,3.E0));
#72=LINE('',#71,#70);
#73=CURVE_STYLE('',#34,POSITIVE_LENGTH_MEASURE(2.E-2),#21);
#74=PRESENTATION_STYLE_ASSIGNMENT((#73));
#75=STYLED_ITEM('',(#74),#72);
#76=DIRECTION('',(0.E0,1.E0,0.E0));
#77=VECTOR('',#76,3.E0);
#78=CARTESIAN_POINT('',(-1.6E0,-1.5E0,3.E0));
#79=LINE('',#78,#77);
#80=CURVE_STYLE('',#34,POSITIVE_LENGTH_MEASURE(2.E-2),#21);
#81=PRESENTATION_STYLE_ASSIGNMENT((#80));
#82=STYLED_ITEM('',(#81),#79);
#83=DIRECTION('',(1.E0,0.E0,0.E0));
#84=VECTOR('',#83,4.090977705434E0);
#85=CARTESIAN_POINT('',(-5.690977705434E0,-1.5E0,3.E0));
#86=LINE('',#85,#84);
#87=CURVE_STYLE('',#34,POSITIVE_LENGTH_MEASURE(2.E-2),#21);
#88=PRESENTATION_STYLE_ASSIGNMENT((#87));
#89=STYLED_ITEM('',(#88),#86);
#90=DIRECTION('',(0.E0,1.E0,0.E0));
#91=VECTOR('',#90,3.E0);
#92=CARTESIAN_POINT('',(5.679561501411E0,-1.5E0,3.E0));
#93=LINE('',#92,#91);
#94=CURVE_STYLE('',#34,POSITIVE_LENGTH_MEASURE(2.E-2),#21);
#95=PRESENTATION_STYLE_ASSIGNMENT((#94));
#96=STYLED_ITEM('',(#95),#93);
#97=DIRECTION('',(1.E0,0.E0,0.E0));
#98=VECTOR('',#97,4.079561501411E0);
#99=CARTESIAN_POINT('',(1.6E0,-1.5E0,3.E0));
#100=LINE('',#99,#98);
#101=CURVE_STYLE('',#34,POSITIVE_LENGTH_MEASURE(2.E-2),#21);
#102=PRESENTATION_STYLE_ASSIGNMENT((#101));
#103=STYLED_ITEM('',(#102),#100);
#104=DIRECTION('',(0.E0,1.E0,0.E0));
#105=VECTOR('',#104,3.E0);
#106=CARTESIAN_POINT('',(1.6E0,-1.5E0,3.E0));
#107=LINE('',#106,#105);
#108=CURVE_STYLE('',#34,POSITIVE_LENGTH_MEASURE(2.E-2),#21);
#109=PRESENTATION_STYLE_ASSIGNMENT((#108));
#110=STYLED_ITEM('',(#109),#107);
#111=DIRECTION('',(-1.E0,0.E0,0.E0));
#112=VECTOR('',#111,4.079561501411E0);
#113=CARTESIAN_POINT('',(5.679561501411E0,1.5E0,3.E0));
#114=LINE('',#113,#112);
#115=CURVE_STYLE('',#34,POSITIVE_LENGTH_MEASURE(2.E-2),#21);
#116=PRESENTATION_STYLE_ASSIGNMENT((#115));
#117=STYLED_ITEM('',(#116),#114);
#118=CARTESIAN_POINT('',(-4.E0,0.E0,9.6E0));
#119=DIRECTION('',(0.E0,0.E0,1.E0));
#120=DIRECTION('',(1.E0,0.E0,0.E0));
#121=AXIS2_PLACEMENT_3D('',#118,#119,#120);
#123=CURVE_STYLE('',#34,POSITIVE_LENGTH_MEASURE(2.E-2),#21);
#124=PRESENTATION_STYLE_ASSIGNMENT((#123));
#125=STYLED_ITEM('',(#124),#122);
#126=DIRECTION('',(-5.275948028350E-11,-1.648411910596E-10,1.E0));
#127=VECTOR('',#126,6.600000000348E0);
#128=CARTESIAN_POINT('',(-3.E0,0.E0,3.E0));
#129=LINE('',#128,#127);
#130=CURVE_STYLE('',#34,POSITIVE_LENGTH_MEASURE(2.E-2),#21);
#131=PRESENTATION_STYLE_ASSIGNMENT((#130));
#132=STYLED_ITEM('',(#131),#129);
#133=DIRECTION('',(7.071067811865E-1,-3.846492977911E-10,-7.071067811865E-1));
#134=VECTOR('',#133,5.656854248508E-1);
#135=CARTESIAN_POINT('',(-3.400000000279E0,-8.703615228973E-10,
1.000000000028E1));
#136=LINE('',#135,#134);
#137=CURVE_STYLE('',#34,POSITIVE_LENGTH_MEASURE(2.E-2),#21);
#138=PRESENTATION_STYLE_ASSIGNMENT((#137));
#139=STYLED_ITEM('',(#138),#136);
#140=CARTESIAN_POINT('',(4.E0,0.E0,1.E1));
#141=DIRECTION('',(0.E0,0.E0,1.E0));
#142=DIRECTION('',(1.E0,0.E0,0.E0));
#143=AXIS2_PLACEMENT_3D('',#140,#141,#142);
#145=CURVE_STYLE('',#34,POSITIVE_LENGTH_MEASURE(2.E-2),#21);
#146=PRESENTATION_STYLE_ASSIGNMENT((#145));
#147=STYLED_ITEM('',(#146),#144);
#148=CARTESIAN_POINT('',(4.E0,0.E0,1.E1));
#149=DIRECTION('',(0.E0,0.E0,1.E0));
#150=DIRECTION('',(-1.E0,0.E0,0.E0));
#151=AXIS2_PLACEMENT_3D('',#148,#149,#150);
#153=CURVE_STYLE('',#34,POSITIVE_LENGTH_MEASURE(2.E-2),#21);
#154=PRESENTATION_STYLE_ASSIGNMENT((#153));
#155=STYLED_ITEM('',(#154),#152);
#156=CARTESIAN_POINT('',(-4.E0,0.E0,1.E1));
#157=DIRECTION('',(0.E0,0.E0,1.E0));
#158=DIRECTION('',(-1.E0,0.E0,0.E0));
#159=AXIS2_PLACEMENT_3D('',#156,#157,#158);
#161=CURVE_STYLE('',#34,POSITIVE_LENGTH_MEASURE(2.E-2),#21);
#162=PRESENTATION_STYLE_ASSIGNMENT((#161));
#163=STYLED_ITEM('',(#162),#160);
#164=CARTESIAN_POINT('',(-4.E0,0.E0,1.E1));
#165=DIRECTION('',(0.E0,0.E0,1.E0));
#166=DIRECTION('',(1.E0,0.E0,0.E0));
#167=AXIS2_PLACEMENT_3D('',#164,#165,#166);
#169=CURVE_STYLE('',#34,POSITIVE_LENGTH_MEASURE(2.E-2),#21);
#170=PRESENTATION_STYLE_ASSIGNMENT((#169));
#171=STYLED_ITEM('',(#170),#168);
#172=DIRECTION('',(7.071067811865E-1,-3.846492781650E-10,-7.071067811865E-1));
#173=VECTOR('',#172,5.656854248508E-1);
#174=CARTESIAN_POINT('',(4.599999999721E0,-8.703619683471E-10,
1.000000000028E1));
#175=LINE('',#174,#173);
#176=CURVE_STYLE('',#34,POSITIVE_LENGTH_MEASURE(2.E-2),#21);
#177=PRESENTATION_STYLE_ASSIGNMENT((#176));
#178=STYLED_ITEM('',(#177),#175);
#179=DIRECTION('',(-7.071067811865E-1,3.846492272276E-10,-7.071067811865E-1));
#180=VECTOR('',#179,5.656854248507E-1);
#181=CARTESIAN_POINT('',(3.400000000279E0,8.703611306887E-10,1.000000000028E1));
#182=LINE('',#181,#180);
#183=CURVE_STYLE('',#34,POSITIVE_LENGTH_MEASURE(2.E-2),#21);
#184=PRESENTATION_STYLE_ASSIGNMENT((#183));
#185=STYLED_ITEM('',(#184),#182);
#186=CARTESIAN_POINT('',(4.E0,0.E0,9.6E0));
#187=DIRECTION('',(0.E0,0.E0,1.E0));
#188=DIRECTION('',(-1.E0,0.E0,0.E0));
#189=AXIS2_PLACEMENT_3D('',#186,#187,#188);
#191=CURVE_STYLE('',#34,POSITIVE_LENGTH_MEASURE(2.E-2),#21);
#192=PRESENTATION_STYLE_ASSIGNMENT((#191));
#193=STYLED_ITEM('',(#192),#190);
#194=DIRECTION('',(5.275954756975E-11,1.648412059921E-10,1.E0));
#195=VECTOR('',#194,6.600000000348E0);
#196=CARTESIAN_POINT('',(3.E0,0.E0,3.E0));
#197=LINE('',#196,#195);
#198=CURVE_STYLE('',#34,POSITIVE_LENGTH_MEASURE(2.E-2),#21);
#199=PRESENTATION_STYLE_ASSIGNMENT((#198));
#200=STYLED_ITEM('',(#199),#197);
#201=CARTESIAN_POINT('',(4.E0,0.E0,9.6E0));
#202=DIRECTION('',(0.E0,0.E0,1.E0));
#203=DIRECTION('',(1.E0,0.E0,0.E0));
#204=AXIS2_PLACEMENT_3D('',#201,#202,#203);
#206=CURVE_STYLE('',#34,POSITIVE_LENGTH_MEASURE(2.E-2),#21);
#207=PRESENTATION_STYLE_ASSIGNMENT((#206));
#208=STYLED_ITEM('',(#207),#205);
#209=DIRECTION('',(-5.275954756975E-11,-1.648411826488E-10,1.E0));
#210=VECTOR('',#209,6.600000000348E0);
#211=CARTESIAN_POINT('',(5.E0,0.E0,3.E0));
#212=LINE('',#211,#210);
#213=CURVE_STYLE('',#34,POSITIVE_LENGTH_MEASURE(2.E-2),#21);
#214=PRESENTATION_STYLE_ASSIGNMENT((#213));
#215=STYLED_ITEM('',(#214),#212);
#216=DIRECTION('',(-7.071067811865E-1,3.846492272276E-10,-7.071067811865E-1));
#217=VECTOR('',#216,5.656854248508E-1);
#218=CARTESIAN_POINT('',(-4.599999999721E0,8.703616205474E-10,
1.000000000028E1));
#219=LINE('',#218,#217);
#220=CURVE_STYLE('',#34,POSITIVE_LENGTH_MEASURE(2.E-2),#21);
#221=PRESENTATION_STYLE_ASSIGNMENT((#220));
#222=STYLED_ITEM('',(#221),#219);
#223=CARTESIAN_POINT('',(-4.E0,0.E0,9.6E0));
#224=DIRECTION('',(0.E0,0.E0,1.E0));
#225=DIRECTION('',(-1.E0,0.E0,0.E0));
#226=AXIS2_PLACEMENT_3D('',#223,#224,#225);
#228=CURVE_STYLE('',#34,POSITIVE_LENGTH_MEASURE(2.E-2),#21);
#229=PRESENTATION_STYLE_ASSIGNMENT((#228));
#230=STYLED_ITEM('',(#229),#227);
#231=DIRECTION('',(5.275954756975E-11,1.648412059921E-10,1.E0));
#232=VECTOR('',#231,6.600000000348E0);
#233=CARTESIAN_POINT('',(-5.E0,0.E0,3.E0));
#234=LINE('',#233,#232);
#235=CURVE_STYLE('',#34,POSITIVE_LENGTH_MEASURE(2.E-2),#21);
#236=PRESENTATION_STYLE_ASSIGNMENT((#235));
#237=STYLED_ITEM('',(#236),#234);
#238=DIRECTION('',(0.E0,0.E0,1.E0));
#239=VECTOR('',#238,2.663312963688E0);
#240=CARTESIAN_POINT('',(-5.690977705434E0,-1.5E0,3.366870363115E-1));
#241=LINE('',#240,#239);
#242=CURVE_STYLE('',#34,POSITIVE_LENGTH_MEASURE(2.E-2),#21);
#243=PRESENTATION_STYLE_ASSIGNMENT((#242));
#244=STYLED_ITEM('',(#243),#241);
#245=DIRECTION('',(1.E0,0.E0,0.E0));
#246=VECTOR('',#245,4.090977705434E0);
#247=CARTESIAN_POINT('',(-5.690977705434E0,-1.5E0,3.366870363115E-1));
#248=LINE('',#247,#246);
#249=CURVE_STYLE('',#34,POSITIVE_LENGTH_MEASURE(2.E-2),#21);
#250=PRESENTATION_STYLE_ASSIGNMENT((#249));
#251=STYLED_ITEM('',(#250),#248);
#252=CARTESIAN_POINT('',(-1.6E0,1.211225925682E0,1.53E1));
#253=CARTESIAN_POINT('',(-1.6E0,1.214315932463E0,1.526996694096E1));
#254=CARTESIAN_POINT('',(-1.6E0,1.221534021636E0,1.521033776468E1));
#255=CARTESIAN_POINT('',(-1.6E0,1.236063813425E0,1.512305054894E1));
#256=CARTESIAN_POINT('',(-1.6E0,1.255653603326E0,1.503569943442E1));
#257=CARTESIAN_POINT('',(-1.6E0,1.282113218612E0,1.494747789832E1));
#258=CARTESIAN_POINT('',(-1.6E0,1.318560274176E0,1.485730082711E1));
#259=CARTESIAN_POINT('',(-1.6E0,1.367831349129E0,1.476904074597E1));
#260=CARTESIAN_POINT('',(-1.6E0,1.432268657510E0,1.468790677947E1));
#261=CARTESIAN_POINT('',(-1.6E0,1.518200200111E0,1.461862882586E1));
#262=CARTESIAN_POINT('',(-1.6E0,1.620390643927E0,1.457894749E1));
#263=CARTESIAN_POINT('',(-1.6E0,1.716628745682E0,1.457508917761E1));
#264=CARTESIAN_POINT('',(-1.6E0,1.808467909125E0,1.459897235958E1));
#265=CARTESIAN_POINT('',(-1.6E0,1.898899760669E0,1.465348432956E1));
#266=CARTESIAN_POINT('',(-1.6E0,1.981536975007E0,1.473979801434E1));
#267=CARTESIAN_POINT('',(-1.6E0,2.050864947486E0,1.485578170689E1));
#268=CARTESIAN_POINT('',(-1.6E0,2.102469523158E0,1.499303043399E1));
#269=CARTESIAN_POINT('',(-1.6E0,2.137064486314E0,1.514281228621E1));
#270=CARTESIAN_POINT('',(-1.6E0,2.151087239170E0,1.524674695284E1));
#271=CARTESIAN_POINT('',(-1.6E0,2.156566277340E0,1.53E1));
#273=CURVE_STYLE('',#34,POSITIVE_LENGTH_MEASURE(2.E-2),#21);
#274=PRESENTATION_STYLE_ASSIGNMENT((#273));
#275=STYLED_ITEM('',(#274),#272);
#276=CARTESIAN_POINT('',(-1.6E0,-4.649638062507E-1,1.53E1));
#277=CARTESIAN_POINT('',(-1.6E0,-4.618737994692E-1,1.526996694096E1));
#278=CARTESIAN_POINT('',(-1.6E0,-4.546557102966E-1,1.521033776468E1));
#279=CARTESIAN_POINT('',(-1.6E0,-4.401259185080E-1,1.512305054894E1));
#280=CARTESIAN_POINT('',(-1.6E0,-4.205361286062E-1,1.503569943442E1));
#281=CARTESIAN_POINT('',(-1.6E0,-3.940765133204E-1,1.494747789832E1));
#282=CARTESIAN_POINT('',(-1.6E0,-3.576294577563E-1,1.485730082711E1));
#283=CARTESIAN_POINT('',(-1.6E0,-3.083583828033E-1,1.476904074597E1));
#284=CARTESIAN_POINT('',(-1.6E0,-2.439210744224E-1,1.468790677947E1));
#285=CARTESIAN_POINT('',(-1.6E0,-1.579895318214E-1,1.461862882586E1));
#286=CARTESIAN_POINT('',(-1.6E0,-5.579908800552E-2,1.457894749E1));
#287=CARTESIAN_POINT('',(-1.6E0,4.043901374988E-2,1.457508917761E1));
#288=CARTESIAN_POINT('',(-1.6E0,1.322781771927E-1,1.459897235958E1));
#289=CARTESIAN_POINT('',(-1.6E0,2.227100287366E-1,1.465348432956E1));
#290=CARTESIAN_POINT('',(-1.6E0,3.053472430747E-1,1.473979801434E1));
#291=CARTESIAN_POINT('',(-1.6E0,3.746752155530E-1,1.485578170689E1));
#292=CARTESIAN_POINT('',(-1.6E0,4.262797912257E-1,1.499303043399E1));
#293=CARTESIAN_POINT('',(-1.6E0,4.608747543816E-1,1.514281228621E1));
#294=CARTESIAN_POINT('',(-1.6E0,4.748975072375E-1,1.524674695284E1));
#295=CARTESIAN_POINT('',(-1.6E0,4.803765454070E-1,1.53E1));
#297=CURVE_STYLE('',#34,POSITIVE_LENGTH_MEASURE(2.E-2),#21);
#298=PRESENTATION_STYLE_ASSIGNMENT((#297));
#299=STYLED_ITEM('',(#298),#296);
#300=CARTESIAN_POINT('',(-1.6E0,-2.166508055091E0,1.53E1));
#301=CARTESIAN_POINT('',(-1.6E0,-2.163418048309E0,1.526996694096E1));
#302=CARTESIAN_POINT('',(-1.6E0,-2.156199959137E0,1.521033776468E1));
#303=CARTESIAN_POINT('',(-1.6E0,-2.141670167348E0,1.512305054894E1));
#304=CARTESIAN_POINT('',(-1.6E0,-2.122080377446E0,1.503569943442E1));
#305=CARTESIAN_POINT('',(-1.6E0,-2.095620762161E0,1.494747789832E1));
#306=CARTESIAN_POINT('',(-1.6E0,-2.059173706596E0,1.485730082711E1));
#307=CARTESIAN_POINT('',(-1.6E0,-2.009902631643E0,1.476904074597E1));
#308=CARTESIAN_POINT('',(-1.6E0,-1.945465323263E0,1.468790677947E1));
#309=CARTESIAN_POINT('',(-1.6E0,-1.859533780662E0,1.461862882586E1));
#310=CARTESIAN_POINT('',(-1.6E0,-1.757343336846E0,1.457894749E1));
#311=CARTESIAN_POINT('',(-1.6E0,-1.661105235090E0,1.457508917761E1));
#312=CARTESIAN_POINT('',(-1.6E0,-1.569266071647E0,1.459897235958E1));
#313=CARTESIAN_POINT('',(-1.6E0,-1.478834220104E0,1.465348432956E1));
#314=CARTESIAN_POINT('',(-1.6E0,-1.396197005765E0,1.473979801434E1));
#315=CARTESIAN_POINT('',(-1.6E0,-1.326869033287E0,1.485578170689E1));
#316=CARTESIAN_POINT('',(-1.6E0,-1.275264457614E0,1.499303043399E1));
#317=CARTESIAN_POINT('',(-1.6E0,-1.240669494459E0,1.514281228621E1));
#318=CARTESIAN_POINT('',(-1.6E0,-1.226646741603E0,1.524674695284E1));
#319=CARTESIAN_POINT('',(-1.6E0,-1.221167703433E0,1.53E1));
#321=CURVE_STYLE('',#34,POSITIVE_LENGTH_MEASURE(2.E-2),#21);
#322=PRESENTATION_STYLE_ASSIGNMENT((#321));
#323=STYLED_ITEM('',(#322),#320);
#324=DIRECTION('',(0.E0,0.E0,-1.E0));
#325=VECTOR('',#324,1.361185983122E1);
#326=CARTESIAN_POINT('',(-1.6E0,-3.E0,1.53E1));
#327=LINE('',#326,#325);
#328=CURVE_STYLE('',#34,POSITIVE_LENGTH_MEASURE(2.E-2),#21);
#329=PRESENTATION_STYLE_ASSIGNMENT((#328));
#330=STYLED_ITEM('',(#329),#327);
#331=CARTESIAN_POINT('',(-1.6E0,0.E0,3.509725509944E0));
#332=DIRECTION('',(1.E0,0.E0,0.E0));
#333=DIRECTION('',(0.E0,-8.547676994967E-1,-5.190107705020E-1));
#334=AXIS2_PLACEMENT_3D('',#331,#332,#333);
#336=CURVE_STYLE('',#34,POSITIVE_LENGTH_MEASURE(2.E-2),#21);
#337=PRESENTATION_STYLE_ASSIGNMENT((#336));
#338=STYLED_ITEM('',(#337),#335);
#339=DIRECTION('',(0.E0,0.E0,1.E0));
#340=VECTOR('',#339,2.663312963688E0);
#341=CARTESIAN_POINT('',(-1.6E0,-1.5E0,3.366870363115E-1));
#342=LINE('',#341,#340);
#343=CURVE_STYLE('',#34,POSITIVE_LENGTH_MEASURE(2.E-2),#21);
#344=PRESENTATION_STYLE_ASSIGNMENT((#343));
#345=STYLED_ITEM('',(#344),#342);
#346=CARTESIAN_POINT('',(-1.6E0,0.E0,3.509725509944E0));
#347=DIRECTION('',(1.E0,0.E0,0.E0));
#348=DIRECTION('',(0.E0,4.273838497484E-1,-9.040702655072E-1));
#349=AXIS2_PLACEMENT_3D('',#346,#347,#348);
#351=CURVE_STYLE('',#34,POSITIVE_LENGTH_MEASURE(2.E-2),#21);
#352=PRESENTATION_STYLE_ASSIGNMENT((#351));
#353=STYLED_ITEM('',(#352),#350);
#354=DIRECTION('',(0.E0,0.E0,1.E0));
#355=VECTOR('',#354,1.361185983122E1);
#356=CARTESIAN_POINT('',(-1.6E0,3.E0,1.688140168778E0));
#357=LINE('',#356,#355);
#358=CURVE_STYLE('',#34,POSITIVE_LENGTH_MEASURE(2.E-2),#21);
#359=PRESENTATION_STYLE_ASSIGNMENT((#358));
#360=STYLED_ITEM('',(#359),#357);
#361=DIRECTION('',(0.E0,1.E0,0.E0));
#362=VECTOR('',#361,8.334919449092E-1);
#363=CARTESIAN_POINT('',(1.6E0,-3.E0,1.53E1));
#364=LINE('',#363,#362);
#365=CURVE_STYLE('',#34,POSITIVE_LENGTH_MEASURE(2.E-2),#21);
#366=PRESENTATION_STYLE_ASSIGNMENT((#365));
#367=STYLED_ITEM('',(#366),#364);
#368=DIRECTION('',(1.E0,0.E0,0.E0));
#369=VECTOR('',#368,1.857864376269E-1);
#370=CARTESIAN_POINT('',(1.414213562373E0,-3.E0,1.53E1));
#371=LINE('',#370,#369);
#372=CURVE_STYLE('',#34,POSITIVE_LENGTH_MEASURE(2.E-2),#21);
#373=PRESENTATION_STYLE_ASSIGNMENT((#372));
#374=STYLED_ITEM('',(#373),#371);
#375=DIRECTION('',(0.E0,1.E0,0.E0));
#376=VECTOR('',#375,8.063380539254E-1);
#377=CARTESIAN_POINT('',(1.414213562373E0,-3.E0,1.53E1));
#378=LINE('',#377,#376);
#379=CURVE_STYLE('',#34,POSITIVE_LENGTH_MEASURE(2.E-2),#21);
#380=PRESENTATION_STYLE_ASSIGNMENT((#379));
#381=STYLED_ITEM('',(#380),#378);
#382=DIRECTION('',(0.E0,1.E0,0.E0));
#383=VECTOR('',#382,7.562038971825E-1);
#384=CARTESIAN_POINT('',(1.6E0,-1.221167703433E0,1.53E1));
#385=LINE('',#384,#383);
#386=CURVE_STYLE('',#34,POSITIVE_LENGTH_MEASURE(2.E-2),#21);
#387=PRESENTATION_STYLE_ASSIGNMENT((#386));
#388=STYLED_ITEM('',(#387),#385);
#389=DIRECTION('',(0.E0,1.E0,0.E0));
#390=VECTOR('',#389,7.018961152150E-1);
#391=CARTESIAN_POINT('',(1.414213562373E0,-1.194013812449E0,1.53E1));
#392=LINE('',#391,#390);
#393=CURVE_STYLE('',#34,POSITIVE_LENGTH_MEASURE(2.E-2),#21);
#394=PRESENTATION_STYLE_ASSIGNMENT((#393));
#395=STYLED_ITEM('',(#394),#392);
#396=DIRECTION('',(0.E0,1.E0,0.E0));
#397=VECTOR('',#396,7.308493802750E-1);
#398=CARTESIAN_POINT('',(1.6E0,4.803765454070E-1,1.53E1));
#399=LINE('',#398,#397);
#400=CURVE_STYLE('',#34,POSITIVE_LENGTH_MEASURE(2.E-2),#21);
#401=PRESENTATION_STYLE_ASSIGNMENT((#400));
#402=STYLED_ITEM('',(#401),#399);
#403=DIRECTION('',(0.E0,1.E0,0.E0));
#404=VECTOR('',#403,6.765415983075E-1);
#405=CARTESIAN_POINT('',(1.414213562373E0,5.075304363907E-1,1.53E1));
#406=LINE('',#405,#404);
#407=CURVE_STYLE('',#34,POSITIVE_LENGTH_MEASURE(2.E-2),#21);
#408=PRESENTATION_STYLE_ASSIGNMENT((#407));
#409=STYLED_ITEM('',(#408),#406);
#410=DIRECTION('',(0.E0,1.E0,0.E0));
#411=VECTOR('',#410,8.434337226604E-1);
#412=CARTESIAN_POINT('',(1.6E0,2.156566277340E0,1.53E1));
#413=LINE('',#412,#411);
#414=CURVE_STYLE('',#34,POSITIVE_LENGTH_MEASURE(2.E-2),#21);
#415=PRESENTATION_STYLE_ASSIGNMENT((#414));
#416=STYLED_ITEM('',(#415),#413);
#417=DIRECTION('',(0.E0,1.E0,0.E0));
#418=VECTOR('',#417,8.162798316767E-1);
#419=CARTESIAN_POINT('',(1.414213562373E0,2.183720168323E0,1.53E1));
#420=LINE('',#419,#418);
#421=CURVE_STYLE('',#34,POSITIVE_LENGTH_MEASURE(2.E-2),#21);
#422=PRESENTATION_STYLE_ASSIGNMENT((#421));
#423=STYLED_ITEM('',(#422),#420);
#424=DIRECTION('',(-1.E0,0.E0,0.E0));
#425=VECTOR('',#424,1.857864376269E-1);
#426=CARTESIAN_POINT('',(1.6E0,3.E0,1.53E1));
#427=LINE('',#426,#425);
#428=CURVE_STYLE('',#34,POSITIVE_LENGTH_MEASURE(2.E-2),#21);
#429=PRESENTATION_STYLE_ASSIGNMENT((#428));
#430=STYLED_ITEM('',(#429),#427);
#431=DIRECTION('',(0.E0,-1.E0,0.E0));
#432=VECTOR('',#431,8.434337226604E-1);
#433=CARTESIAN_POINT('',(-1.6E0,3.E0,1.53E1));
#434=LINE('',#433,#432);
#435=CURVE_STYLE('',#34,POSITIVE_LENGTH_MEASURE(2.E-2),#21);
#436=PRESENTATION_STYLE_ASSIGNMENT((#435));
#437=STYLED_ITEM('',(#436),#434);
#438=DIRECTION('',(-1.E0,0.E0,0.E0));
#439=VECTOR('',#438,1.857864376269E-1);
#440=CARTESIAN_POINT('',(-1.414213562373E0,3.E0,1.53E1));
#441=LINE('',#440,#439);
#442=CURVE_STYLE('',#34,POSITIVE_LENGTH_MEASURE(2.E-2),#21);
#443=PRESENTATION_STYLE_ASSIGNMENT((#442));
#444=STYLED_ITEM('',(#443),#441);
#445=DIRECTION('',(0.E0,1.E0,0.E0));
#446=VECTOR('',#445,8.162798316767E-1);
#447=CARTESIAN_POINT('',(-1.414213562373E0,2.183720168323E0,1.53E1));
#448=LINE('',#447,#446);
#449=CURVE_STYLE('',#34,POSITIVE_LENGTH_MEASURE(2.E-2),#21);
#450=PRESENTATION_STYLE_ASSIGNMENT((#449));
#451=STYLED_ITEM('',(#450),#448);
#452=DIRECTION('',(0.E0,-1.E0,0.E0));
#453=VECTOR('',#452,7.308493802750E-1);
#454=CARTESIAN_POINT('',(-1.6E0,1.211225925682E0,1.53E1));
#455=LINE('',#454,#453);
#456=CURVE_STYLE('',#34,POSITIVE_LENGTH_MEASURE(2.E-2),#21);
#457=PRESENTATION_STYLE_ASSIGNMENT((#456));
#458=STYLED_ITEM('',(#457),#455);
#459=DIRECTION('',(0.E0,1.E0,0.E0));
#460=VECTOR('',#459,6.765415983075E-1);
#461=CARTESIAN_POINT('',(-1.414213562373E0,5.075304363907E-1,1.53E1));
#462=LINE('',#461,#460);
#463=CURVE_STYLE('',#34,POSITIVE_LENGTH_MEASURE(2.E-2),#21);
#464=PRESENTATION_STYLE_ASSIGNMENT((#463));
#465=STYLED_ITEM('',(#464),#462);
#466=DIRECTION('',(0.E0,-1.E0,0.E0));
#467=VECTOR('',#466,7.562038971825E-1);
#468=CARTESIAN_POINT('',(-1.6E0,-4.649638062507E-1,1.53E1));
#469=LINE('',#468,#467);
#470=CURVE_STYLE('',#34,POSITIVE_LENGTH_MEASURE(2.E-2),#21);
#471=PRESENTATION_STYLE_ASSIGNMENT((#470));
#472=STYLED_ITEM('',(#471),#469);
#473=DIRECTION('',(0.E0,1.E0,0.E0));
#474=VECTOR('',#473,7.018961152150E-1);
#475=CARTESIAN_POINT('',(-1.414213562373E0,-1.194013812449E0,1.53E1));
#476=LINE('',#475,#474);
#477=CURVE_STYLE('',#34,POSITIVE_LENGTH_MEASURE(2.E-2),#21);
#478=PRESENTATION_STYLE_ASSIGNMENT((#477));
#479=STYLED_ITEM('',(#478),#476);
#480=DIRECTION('',(0.E0,-1.E0,0.E0));
#481=VECTOR('',#480,8.334919449092E-1);
#482=CARTESIAN_POINT('',(-1.6E0,-2.166508055091E0,1.53E1));
#483=LINE('',#482,#481);
#484=CURVE_STYLE('',#34,POSITIVE_LENGTH_MEASURE(2.E-2),#21);
#485=PRESENTATION_STYLE_ASSIGNMENT((#484));
#486=STYLED_ITEM('',(#485),#483);
#487=DIRECTION('',(0.E0,1.E0,0.E0));
#488=VECTOR('',#487,8.063380539254E-1);
#489=CARTESIAN_POINT('',(-1.414213562373E0,-3.E0,1.53E1));
#490=LINE('',#489,#488);
#491=CURVE_STYLE('',#34,POSITIVE_LENGTH_MEASURE(2.E-2),#21);
#492=PRESENTATION_STYLE_ASSIGNMENT((#491));
#493=STYLED_ITEM('',(#492),#490);
#494=DIRECTION('',(1.E0,0.E0,0.E0));
#495=VECTOR('',#494,1.857864376269E-1);
#496=CARTESIAN_POINT('',(-1.6E0,-3.E0,1.53E1));
#497=LINE('',#496,#495);
#498=CURVE_STYLE('',#34,POSITIVE_LENGTH_MEASURE(2.E-2),#21);
#499=PRESENTATION_STYLE_ASSIGNMENT((#498));
#500=STYLED_ITEM('',(#499),#497);
#501=CARTESIAN_POINT('',(1.6E0,-1.221167703433E0,1.53E1));
#502=CARTESIAN_POINT('',(1.6E0,-1.224082164589E0,1.527167314179E1));
#503=CARTESIAN_POINT('',(1.6E0,-1.230839179080E0,1.521533206082E1));
#504=CARTESIAN_POINT('',(1.6E0,-1.244333949719E0,1.513226419584E1));
#505=CARTESIAN_POINT('',(1.6E0,-1.262238596610E0,1.504940428784E1));
#506=CARTESIAN_POINT('',(1.6E0,-1.285887868705E0,1.496636940091E1));
#507=CARTESIAN_POINT('',(1.6E0,-1.317613298708E0,1.488198171062E1));
#508=CARTESIAN_POINT('',(1.6E0,-1.360267312710E0,1.479758473558E1));
#509=CARTESIAN_POINT('',(1.6E0,-1.416912659402E0,1.471628079166E1));
#510=CARTESIAN_POINT('',(1.6E0,-1.494368793276E0,1.464155315324E1));
#511=CARTESIAN_POINT('',(1.6E0,-1.589136002787E0,1.459091282098E1));
#512=CARTESIAN_POINT('',(1.6E0,-1.681935570722E0,1.457374422137E1));
#513=CARTESIAN_POINT('',(1.6E0,-1.774944646867E0,1.458364231305E1));
#514=CARTESIAN_POINT('',(1.6E0,-1.871660984250E0,1.462648801284E1));
#515=CARTESIAN_POINT('',(1.6E0,-1.954390374085E0,1.469743936873E1));
#516=CARTESIAN_POINT('',(1.6E0,-2.015724188217E0,1.477827878311E1));
#517=CARTESIAN_POINT('',(1.6E0,-2.062423210803E0,1.486455750329E1));
#518=CARTESIAN_POINT('',(1.6E0,-2.097122745680E0,1.495207789354E1));
#519=CARTESIAN_POINT('',(1.6E0,-2.122759385448E0,1.503845660685E1));
#520=CARTESIAN_POINT('',(1.6E0,-2.142007533830E0,1.512486579821E1));
#521=CARTESIAN_POINT('',(1.6E0,-2.156362936225E0,1.521157563872E1));
#522=CARTESIAN_POINT('',(1.6E0,-2.163463804883E0,1.527041166810E1));
#523=CARTESIAN_POINT('',(1.6E0,-2.166508055091E0,1.53E1));
#525=CURVE_STYLE('',#34,POSITIVE_LENGTH_MEASURE(2.E-2),#21);
#526=PRESENTATION_STYLE_ASSIGNMENT((#525));
#527=STYLED_ITEM('',(#526),#524);
#528=CARTESIAN_POINT('',(1.6E0,4.803765454070E-1,1.53E1));
#529=CARTESIAN_POINT('',(1.6E0,4.774620842514E-1,1.527167314179E1));
#530=CARTESIAN_POINT('',(1.6E0,4.707050697602E-1,1.521533206082E1));
#531=CARTESIAN_POINT('',(1.6E0,4.572102991208E-1,1.513226419584E1));
#532=CARTESIAN_POINT('',(1.6E0,4.393056522298E-1,1.504940428784E1));
#533=CARTESIAN_POINT('',(1.6E0,4.156563801356E-1,1.496636940091E1));
#534=CARTESIAN_POINT('',(1.6E0,3.839309501317E-1,1.488198171062E1));
#535=CARTESIAN_POINT('',(1.6E0,3.412769361298E-1,1.479758473558E1));
#536=CARTESIAN_POINT('',(1.6E0,2.846315894379E-1,1.471628079166E1));
#537=CARTESIAN_POINT('',(1.6E0,2.071754555640E-1,1.464155315324E1));
#538=CARTESIAN_POINT('',(1.6E0,1.124082460534E-1,1.459091282098E1));
#539=CARTESIAN_POINT('',(1.6E0,1.960867811782E-2,1.457374422137E1));
#540=CARTESIAN_POINT('',(1.6E0,-7.340039802680E-2,1.458364231305E1));
#541=CARTESIAN_POINT('',(1.6E0,-1.701167354098E-1,1.462648801284E1));
#542=CARTESIAN_POINT('',(1.6E0,-2.528461252447E-1,1.469743936873E1));
#543=CARTESIAN_POINT('',(1.6E0,-3.141799393765E-1,1.477827878311E1));
#544=CARTESIAN_POINT('',(1.6E0,-3.608789619629E-1,1.486455750329E1));
#545=CARTESIAN_POINT('',(1.6E0,-3.955784968403E-1,1.495207789354E1));
#546=CARTESIAN_POINT('',(1.6E0,-4.212151366077E-1,1.503845660685E1));
#547=CARTESIAN_POINT('',(1.6E0,-4.404632849900E-1,1.512486579821E1));
#548=CARTESIAN_POINT('',(1.6E0,-4.548186873852E-1,1.521157563872E1));
#549=CARTESIAN_POINT('',(1.6E0,-4.619195560429E-1,1.527041166810E1));
#550=CARTESIAN_POINT('',(1.6E0,-4.649638062507E-1,1.53E1));
#552=CURVE_STYLE('',#34,POSITIVE_LENGTH_MEASURE(2.E-2),#21);
#553=PRESENTATION_STYLE_ASSIGNMENT((#552));
#554=STYLED_ITEM('',(#553),#551);
#555=CARTESIAN_POINT('',(1.6E0,2.156566277340E0,1.53E1));
#556=CARTESIAN_POINT('',(1.6E0,2.153651816184E0,1.527167314179E1));
#557=CARTESIAN_POINT('',(1.6E0,2.146894801693E0,1.521533206082E1));
#558=CARTESIAN_POINT('',(1.6E0,2.133400031053E0,1.513226419584E1));
#559=CARTESIAN_POINT('',(1.6E0,2.115495384162E0,1.504940428784E1));
#560=CARTESIAN_POINT('',(1.6E0,2.091846112068E0,1.496636940091E1));
#561=CARTESIAN_POINT('',(1.6E0,2.060120682064E0,1.488198171062E1));
#562=CARTESIAN_POINT('',(1.6E0,2.017466668062E0,1.479758473558E1));
#563=CARTESIAN_POINT('',(1.6E0,1.960821321371E0,1.471628079166E1));
#564=CARTESIAN_POINT('',(1.6E0,1.883365187497E0,1.464155315324E1));
#565=CARTESIAN_POINT('',(1.6E0,1.788597977986E0,1.459091282098E1));
#566=CARTESIAN_POINT('',(1.6E0,1.695798410050E0,1.457374422137E1));
#567=CARTESIAN_POINT('',(1.6E0,1.602789333906E0,1.458364231305E1));
#568=CARTESIAN_POINT('',(1.6E0,1.506072996523E0,1.462648801284E1));
#569=CARTESIAN_POINT('',(1.6E0,1.423343606688E0,1.469743936873E1));
#570=CARTESIAN_POINT('',(1.6E0,1.362009792556E0,1.477827878311E1));
#571=CARTESIAN_POINT('',(1.6E0,1.315310769970E0,1.486455750329E1));
#572=CARTESIAN_POINT('',(1.6E0,1.280611235092E0,1.495207789354E1));
#573=CARTESIAN_POINT('',(1.6E0,1.254974595325E0,1.503845660685E1));
#574=CARTESIAN_POINT('',(1.6E0,1.235726446943E0,1.512486579821E1));
#575=CARTESIAN_POINT('',(1.6E0,1.221371044547E0,1.521157563872E1));
#576=CARTESIAN_POINT('',(1.6E0,1.214270175890E0,1.527041166810E1));
#577=CARTESIAN_POINT('',(1.6E0,1.211225925682E0,1.53E1));
#579=CURVE_STYLE('',#34,POSITIVE_LENGTH_MEASURE(2.E-2),#21);
#580=PRESENTATION_STYLE_ASSIGNMENT((#579));
#581=STYLED_ITEM('',(#580),#578);
#582=CARTESIAN_POINT('',(1.6E0,0.E0,3.509725509944E0));
#583=DIRECTION('',(1.E0,0.E0,0.E0));
#584=DIRECTION('',(0.E0,4.273838497484E-1,-9.040702655072E-1));
#585=AXIS2_PLACEMENT_3D('',#582,#583,#584);
#587=CURVE_STYLE('',#34,POSITIVE_LENGTH_MEASURE(2.E-2),#21);
#588=PRESENTATION_STYLE_ASSIGNMENT((#587));
#589=STYLED_ITEM('',(#588),#586);
#590=DIRECTION('',(0.E0,0.E0,1.E0));
#591=VECTOR('',#590,2.663312963688E0);
#592=CARTESIAN_POINT('',(1.6E0,1.5E0,3.366870363115E-1));
#593=LINE('',#592,#591);
#594=CURVE_STYLE('',#34,POSITIVE_LENGTH_MEASURE(2.E-2),#21);
#595=PRESENTATION_STYLE_ASSIGNMENT((#594));
#596=STYLED_ITEM('',(#595),#593);
#597=CARTESIAN_POINT('',(1.6E0,0.E0,3.509725509944E0));
#598=DIRECTION('',(1.E0,0.E0,0.E0));
#599=DIRECTION('',(0.E0,-8.547676994967E-1,-5.190107705020E-1));
#600=AXIS2_PLACEMENT_3D('',#597,#598,#599);
#602=CURVE_STYLE('',#34,POSITIVE_LENGTH_MEASURE(2.E-2),#21);
#603=PRESENTATION_STYLE_ASSIGNMENT((#602));
#604=STYLED_ITEM('',(#603),#601);
#605=DIRECTION('',(0.E0,0.E0,1.E0));
#606=VECTOR('',#605,1.361185983122E1);
#607=CARTESIAN_POINT('',(1.6E0,-3.E0,1.688140168778E0));
#608=LINE('',#607,#606);
#609=CURVE_STYLE('',#34,POSITIVE_LENGTH_MEASURE(2.E-2),#21);
#610=PRESENTATION_STYLE_ASSIGNMENT((#609));
#611=STYLED_ITEM('',(#610),#608);
#612=CARTESIAN_POINT('',(0.E0,-1.194013812449E0,1.58E1));
#613=DIRECTION('',(0.E0,-1.E0,0.E0));
#614=DIRECTION('',(-9.428090415821E-1,0.E0,-3.333333333333E-1));
#615=AXIS2_PLACEMENT_3D('',#612,#613,#614);
#617=CURVE_STYLE('',#34,POSITIVE_LENGTH_MEASURE(2.E-2),#21);
#618=PRESENTATION_STYLE_ASSIGNMENT((#617));
#619=STYLED_ITEM('',(#618),#616);
#620=CARTESIAN_POINT('',(1.414213562373E0,-1.194013812449E0,1.53E1));
#621=CARTESIAN_POINT('',(1.435638538763E0,-1.193477815145E0,1.53E1));
#622=CARTESIAN_POINT('',(1.477974296495E0,-1.194844393424E0,1.53E1));
#623=CARTESIAN_POINT('',(1.540403504267E0,-1.204040488606E0,1.53E1));
#624=CARTESIAN_POINT('',(1.580356336072E0,-1.214700264505E0,1.53E1));
#625=CARTESIAN_POINT('',(1.6E0,-1.221167703433E0,1.53E1));
#627=CURVE_STYLE('',#34,POSITIVE_LENGTH_MEASURE(2.E-2),#21);
#628=PRESENTATION_STYLE_ASSIGNMENT((#627));
#629=STYLED_ITEM('',(#628),#626);
#630=CARTESIAN_POINT('',(1.6E0,-2.166508055091E0,1.53E1));
#631=CARTESIAN_POINT('',(1.580365520448E0,-2.172972470174E0,1.53E1));
#632=CARTESIAN_POINT('',(1.540425595388E0,-2.183630965594E0,1.53E1));
#633=CARTESIAN_POINT('',(1.477975950698E0,-2.192831854139E0,1.53E1));
#634=CARTESIAN_POINT('',(1.435639171138E0,-2.194197959200E0,1.53E1));
#635=CARTESIAN_POINT('',(1.414213562373E0,-2.193661946075E0,1.53E1));
#637=CURVE_STYLE('',#34,POSITIVE_LENGTH_MEASURE(2.E-2),#21);
#638=PRESENTATION_STYLE_ASSIGNMENT((#637));
#639=STYLED_ITEM('',(#638),#636);
#640=CARTESIAN_POINT('',(0.E0,-2.193661946075E0,1.58E1));
#641=DIRECTION('',(0.E0,1.E0,0.E0));
#642=DIRECTION('',(9.428090415821E-1,0.E0,-3.333333333333E-1));
#643=AXIS2_PLACEMENT_3D('',#640,#641,#642);
#645=CURVE_STYLE('',#34,POSITIVE_LENGTH_MEASURE(2.E-2),#21);
#646=PRESENTATION_STYLE_ASSIGNMENT((#645));
#647=STYLED_ITEM('',(#646),#644);
#648=CARTESIAN_POINT('',(-1.414213562373E0,-2.193661946075E0,1.53E1));
#649=CARTESIAN_POINT('',(-1.435639171031E0,-2.194197959197E0,1.53E1));
#650=CARTESIAN_POINT('',(-1.477975950471E0,-2.192831854234E0,1.53E1));
#651=CARTESIAN_POINT('',(-1.540425597804E0,-2.183630965136E0,1.53E1));
#652=CARTESIAN_POINT('',(-1.580365521453E0,-2.172972469844E0,1.53E1));
#653=CARTESIAN_POINT('',(-1.6E0,-2.166508055091E0,1.53E1));
#655=CURVE_STYLE('',#34,POSITIVE_LENGTH_MEASURE(2.E-2),#21);
#656=PRESENTATION_STYLE_ASSIGNMENT((#655));
#657=STYLED_ITEM('',(#656),#654);
#658=CARTESIAN_POINT('',(-1.6E0,-1.221167703433E0,1.53E1));
#659=CARTESIAN_POINT('',(-1.580356336351E0,-1.214700264597E0,1.53E1));
#660=CARTESIAN_POINT('',(-1.540403504938E0,-1.204040488747E0,1.53E1));
#661=CARTESIAN_POINT('',(-1.477974296884E0,-1.194844393444E0,1.53E1));
#662=CARTESIAN_POINT('',(-1.435638538929E0,-1.193477815141E0,1.53E1));
#663=CARTESIAN_POINT('',(-1.414213562373E0,-1.194013812449E0,1.53E1));
#665=CURVE_STYLE('',#34,POSITIVE_LENGTH_MEASURE(2.E-2),#21);
#666=PRESENTATION_STYLE_ASSIGNMENT((#665));
#667=STYLED_ITEM('',(#666),#664);
#668=DIRECTION('',(1.E0,0.E0,0.E0));
#669=VECTOR('',#668,3.2E0);
#670=CARTESIAN_POINT('',(-1.6E0,-3.E0,1.688140168778E0));
#671=LINE('',#670,#669);
#672=CURVE_STYLE('',#34,POSITIVE_LENGTH_MEASURE(2.E-2),#21);
#673=PRESENTATION_STYLE_ASSIGNMENT((#672));
#674=STYLED_ITEM('',(#673),#671);
#675=CARTESIAN_POINT('',(0.E0,-3.E0,1.58E1));
#676=DIRECTION('',(0.E0,1.E0,0.E0));
#677=DIRECTION('',(9.428090415821E-1,0.E0,-3.333333333333E-1));
#678=AXIS2_PLACEMENT_3D('',#675,#676,#677);
#680=CURVE_STYLE('',#34,POSITIVE_LENGTH_MEASURE(2.E-2),#21);
#681=PRESENTATION_STYLE_ASSIGNMENT((#680));
#682=STYLED_ITEM('',(#681),#679);
#683=CARTESIAN_POINT('',(-5.690977705434E0,0.E0,3.509725509944E0));
#684=DIRECTION('',(1.E0,0.E0,0.E0));
#685=DIRECTION('',(0.E0,-4.273838497484E-1,-9.040702655072E-1));
#686=AXIS2_PLACEMENT_3D('',#683,#684,#685);
#688=CURVE_STYLE('',#34,POSITIVE_LENGTH_MEASURE(2.E-2),#21);
#689=PRESENTATION_STYLE_ASSIGNMENT((#688));
#690=STYLED_ITEM('',(#689),#687);
#691=CARTESIAN_POINT('',(5.679561501411E0,0.E0,3.509725509944E0));
#692=DIRECTION('',(1.E0,0.E0,0.E0));
#693=DIRECTION('',(0.E0,-4.273838497484E-1,-9.040702655072E-1));
#694=AXIS2_PLACEMENT_3D('',#691,#692,#693);
#696=CURVE_STYLE('',#34,POSITIVE_LENGTH_MEASURE(2.E-2),#21);
#697=PRESENTATION_STYLE_ASSIGNMENT((#696));
#698=STYLED_ITEM('',(#697),#695);
#699=DIRECTION('',(0.E0,0.E0,1.E0));
#700=VECTOR('',#699,2.663312963688E0);
#701=CARTESIAN_POINT('',(5.679561501411E0,-1.5E0,3.366870363115E-1));
#702=LINE('',#701,#700);
#703=CURVE_STYLE('',#34,POSITIVE_LENGTH_MEASURE(2.E-2),#21);
#704=PRESENTATION_STYLE_ASSIGNMENT((#703));
#705=STYLED_ITEM('',(#704),#702);
#706=DIRECTION('',(1.E0,0.E0,0.E0));
#707=VECTOR('',#706,4.079561501411E0);
#708=CARTESIAN_POINT('',(1.6E0,-1.5E0,3.366870363115E-1));
#709=LINE('',#708,#707);
#710=CURVE_STYLE('',#34,POSITIVE_LENGTH_MEASURE(2.E-2),#21);
#711=PRESENTATION_STYLE_ASSIGNMENT((#710));
#712=STYLED_ITEM('',(#711),#709);
#713=DIRECTION('',(0.E0,0.E0,1.E0));
#714=VECTOR('',#713,2.663312963688E0);
#715=CARTESIAN_POINT('',(1.6E0,-1.5E0,3.366870363115E-1));
#716=LINE('',#715,#714);
#717=CURVE_STYLE('',#34,POSITIVE_LENGTH_MEASURE(2.E-2),#21);
#718=PRESENTATION_STYLE_ASSIGNMENT((#717));
#719=STYLED_ITEM('',(#718),#716);
#720=DIRECTION('',(0.E0,0.E0,1.E0));
#721=VECTOR('',#720,2.663312963688E0);
#722=CARTESIAN_POINT('',(5.679561501411E0,1.5E0,3.366870363115E-1));
#723=LINE('',#722,#721);
#724=CURVE_STYLE('',#34,POSITIVE_LENGTH_MEASURE(2.E-2),#21);
#725=PRESENTATION_STYLE_ASSIGNMENT((#724));
#726=STYLED_ITEM('',(#725),#723);
#727=DIRECTION('',(1.E0,0.E0,0.E0));
#728=VECTOR('',#727,4.079561501411E0);
#729=CARTESIAN_POINT('',(1.6E0,1.5E0,3.366870363115E-1));
#730=LINE('',#729,#728);
#731=CURVE_STYLE('',#34,POSITIVE_LENGTH_MEASURE(2.E-2),#21);
#732=PRESENTATION_STYLE_ASSIGNMENT((#731));
#733=STYLED_ITEM('',(#732),#730);
#734=DIRECTION('',(1.E0,0.E0,0.E0));
#735=VECTOR('',#734,3.2E0);
#736=CARTESIAN_POINT('',(-1.6E0,3.E0,1.688140168778E0));
#737=LINE('',#736,#735);
#738=CURVE_STYLE('',#34,POSITIVE_LENGTH_MEASURE(2.E-2),#21);
#739=PRESENTATION_STYLE_ASSIGNMENT((#738));
#740=STYLED_ITEM('',(#739),#737);
#741=DIRECTION('',(0.E0,0.E0,1.E0));
#742=VECTOR('',#741,1.361185983122E1);
#743=CARTESIAN_POINT('',(1.6E0,3.E0,1.688140168778E0));
#744=LINE('',#743,#742);
#745=CURVE_STYLE('',#34,POSITIVE_LENGTH_MEASURE(2.E-2),#21);
#746=PRESENTATION_STYLE_ASSIGNMENT((#745));
#747=STYLED_ITEM('',(#746),#744);
#748=CARTESIAN_POINT('',(0.E0,3.E0,1.58E1));
#749=DIRECTION('',(0.E0,1.E0,0.E0));
#750=DIRECTION('',(9.428090415821E-1,0.E0,-3.333333333333E-1));
#751=AXIS2_PLACEMENT_3D('',#748,#749,#750);
#753=CURVE_STYLE('',#34,POSITIVE_LENGTH_MEASURE(2.E-2),#21);
#754=PRESENTATION_STYLE_ASSIGNMENT((#753));
#755=STYLED_ITEM('',(#754),#752);
#756=DIRECTION('',(0.E0,0.E0,1.E0));
#757=VECTOR('',#756,2.663312963688E0);
#758=CARTESIAN_POINT('',(-5.690977705434E0,1.5E0,3.366870363115E-1));
#759=LINE('',#758,#757);
#760=CURVE_STYLE('',#34,POSITIVE_LENGTH_MEASURE(2.E-2),#21);
#761=PRESENTATION_STYLE_ASSIGNMENT((#760));
#762=STYLED_ITEM('',(#761),#759);
#763=DIRECTION('',(1.E0,0.E0,0.E0));
#764=VECTOR('',#763,4.090977705434E0);
#765=CARTESIAN_POINT('',(-5.690977705434E0,1.5E0,3.366870363115E-1));
#766=LINE('',#765,#764);
#767=CURVE_STYLE('',#34,POSITIVE_LENGTH_MEASURE(2.E-2),#21);
#768=PRESENTATION_STYLE_ASSIGNMENT((#767));
#769=STYLED_ITEM('',(#768),#766);
#770=DIRECTION('',(0.E0,0.E0,1.E0));
#771=VECTOR('',#770,2.663312963688E0);
#772=CARTESIAN_POINT('',(-1.6E0,1.5E0,3.366870363115E-1));
#773=LINE('',#772,#771);
#774=CURVE_STYLE('',#34,POSITIVE_LENGTH_MEASURE(2.E-2),#21);
#775=PRESENTATION_STYLE_ASSIGNMENT((#774));
#776=STYLED_ITEM('',(#775),#773);
#777=CARTESIAN_POINT('',(0.E0,5.075304363907E-1,1.58E1));
#778=DIRECTION('',(0.E0,-1.E0,0.E0));
#779=DIRECTION('',(-9.428090415821E-1,0.E0,-3.333333333333E-1));
#780=AXIS2_PLACEMENT_3D('',#777,#778,#779);
#782=CURVE_STYLE('',#34,POSITIVE_LENGTH_MEASURE(2.E-2),#21);
#783=PRESENTATION_STYLE_ASSIGNMENT((#782));
#784=STYLED_ITEM('',(#783),#781);
#785=CARTESIAN_POINT('',(1.414213562373E0,5.075304363907E-1,1.53E1));
#786=CARTESIAN_POINT('',(1.435638538763E0,5.080664336953E-1,1.53E1));
#787=CARTESIAN_POINT('',(1.477974296495E0,5.066998554159E-1,1.53E1));
#788=CARTESIAN_POINT('',(1.540403504267E0,4.975037602339E-1,1.53E1));
#789=CARTESIAN_POINT('',(1.580356336072E0,4.868439843354E-1,1.53E1));
#790=CARTESIAN_POINT('',(1.6E0,4.803765454070E-1,1.53E1));
#792=CURVE_STYLE('',#34,POSITIVE_LENGTH_MEASURE(2.E-2),#21);
#793=PRESENTATION_STYLE_ASSIGNMENT((#792));
#794=STYLED_ITEM('',(#793),#791);
#795=CARTESIAN_POINT('',(1.6E0,-4.649638062507E-1,1.53E1));
#796=CARTESIAN_POINT('',(1.580365520448E0,-4.714282213342E-1,1.53E1));
#797=CARTESIAN_POINT('',(1.540425595388E0,-4.820867167542E-1,1.53E1));
#798=CARTESIAN_POINT('',(1.477975950698E0,-4.912876052990E-1,1.53E1));
#799=CARTESIAN_POINT('',(1.435639171138E0,-4.926537103594E-1,1.53E1));
#800=CARTESIAN_POINT('',(1.414213562373E0,-4.921176972344E-1,1.53E1));
#802=CURVE_STYLE('',#34,POSITIVE_LENGTH_MEASURE(2.E-2),#21);
#803=PRESENTATION_STYLE_ASSIGNMENT((#802));
#804=STYLED_ITEM('',(#803),#801);
#805=CARTESIAN_POINT('',(0.E0,-4.921176972344E-1,1.58E1));
#806=DIRECTION('',(0.E0,1.E0,0.E0));
#807=DIRECTION('',(9.428090415821E-1,0.E0,-3.333333333333E-1));
#808=AXIS2_PLACEMENT_3D('',#805,#806,#807);
#810=CURVE_STYLE('',#34,POSITIVE_LENGTH_MEASURE(2.E-2),#21);
#811=PRESENTATION_STYLE_ASSIGNMENT((#810));
#812=STYLED_ITEM('',(#811),#809);
#813=CARTESIAN_POINT('',(-1.414213562373E0,-4.921176972344E-1,1.53E1));
#814=CARTESIAN_POINT('',(-1.435639171031E0,-4.926537103567E-1,1.53E1));
#815=CARTESIAN_POINT('',(-1.477975950471E0,-4.912876053940E-1,1.53E1));
#816=CARTESIAN_POINT('',(-1.540425597804E0,-4.820867162956E-1,1.53E1));
#817=CARTESIAN_POINT('',(-1.580365521453E0,-4.714282210035E-1,1.53E1));
#818=CARTESIAN_POINT('',(-1.6E0,-4.649638062507E-1,1.53E1));
#820=CURVE_STYLE('',#34,POSITIVE_LENGTH_MEASURE(2.E-2),#21);
#821=PRESENTATION_STYLE_ASSIGNMENT((#820));
#822=STYLED_ITEM('',(#821),#819);
#823=CARTESIAN_POINT('',(-1.6E0,4.803765454070E-1,1.53E1));
#824=CARTESIAN_POINT('',(-1.580356336351E0,4.868439842435E-1,1.53E1));
#825=CARTESIAN_POINT('',(-1.540403504938E0,4.975037600930E-1,1.53E1));
#826=CARTESIAN_POINT('',(-1.477974296884E0,5.066998553963E-1,1.53E1));
#827=CARTESIAN_POINT('',(-1.435638538929E0,5.080664336994E-1,1.53E1));
#828=CARTESIAN_POINT('',(-1.414213562373E0,5.075304363907E-1,1.53E1));
#830=CURVE_STYLE('',#34,POSITIVE_LENGTH_MEASURE(2.E-2),#21);
#831=PRESENTATION_STYLE_ASSIGNMENT((#830));
#832=STYLED_ITEM('',(#831),#829);
#833=CARTESIAN_POINT('',(0.E0,2.183720168323E0,1.58E1));
#834=DIRECTION('',(0.E0,-1.E0,0.E0));
#835=DIRECTION('',(-9.428090415821E-1,0.E0,-3.333333333333E-1));
#836=AXIS2_PLACEMENT_3D('',#833,#834,#835);
#838=CURVE_STYLE('',#34,POSITIVE_LENGTH_MEASURE(2.E-2),#21);
#839=PRESENTATION_STYLE_ASSIGNMENT((#838));
#840=STYLED_ITEM('',(#839),#837);
#841=CARTESIAN_POINT('',(1.414213562373E0,2.183720168323E0,1.53E1));
#842=CARTESIAN_POINT('',(1.435638538763E0,2.184256165628E0,1.53E1));
#843=CARTESIAN_POINT('',(1.477974296495E0,2.182889587349E0,1.53E1));
#844=CARTESIAN_POINT('',(1.540403504267E0,2.173693492167E0,1.53E1));
#845=CARTESIAN_POINT('',(1.580356336072E0,2.163033716268E0,1.53E1));
#846=CARTESIAN_POINT('',(1.6E0,2.156566277340E0,1.53E1));
#848=CURVE_STYLE('',#34,POSITIVE_LENGTH_MEASURE(2.E-2),#21);
#849=PRESENTATION_STYLE_ASSIGNMENT((#848));
#850=STYLED_ITEM('',(#849),#847);
#851=CARTESIAN_POINT('',(1.6E0,1.211225925682E0,1.53E1));
#852=CARTESIAN_POINT('',(1.580365520448E0,1.204761510598E0,1.53E1));
#853=CARTESIAN_POINT('',(1.540425595388E0,1.194103015178E0,1.53E1));
#854=CARTESIAN_POINT('',(1.477975950698E0,1.184902126634E0,1.53E1));
#855=CARTESIAN_POINT('',(1.435639171138E0,1.183536021573E0,1.53E1));
#856=CARTESIAN_POINT('',(1.414213562373E0,1.184072034698E0,1.53E1));
#858=CURVE_STYLE('',#34,POSITIVE_LENGTH_MEASURE(2.E-2),#21);
#859=PRESENTATION_STYLE_ASSIGNMENT((#858));
#860=STYLED_ITEM('',(#859),#857);
#861=CARTESIAN_POINT('',(0.E0,1.184072034698E0,1.58E1));
#862=DIRECTION('',(0.E0,1.E0,0.E0));
#863=DIRECTION('',(9.428090415821E-1,0.E0,-3.333333333333E-1));
#864=AXIS2_PLACEMENT_3D('',#861,#862,#863);
#866=CURVE_STYLE('',#34,POSITIVE_LENGTH_MEASURE(2.E-2),#21);
#867=PRESENTATION_STYLE_ASSIGNMENT((#866));
#868=STYLED_ITEM('',(#867),#865);
#869=CARTESIAN_POINT('',(-1.414213562373E0,1.184072034698E0,1.53E1));
#870=CARTESIAN_POINT('',(-1.435639171031E0,1.183536021576E0,1.53E1));
#871=CARTESIAN_POINT('',(-1.477975950471E0,1.184902126539E0,1.53E1));
#872=CARTESIAN_POINT('',(-1.540425597804E0,1.194103015637E0,1.53E1));
#873=CARTESIAN_POINT('',(-1.580365521453E0,1.204761510929E0,1.53E1));
#874=CARTESIAN_POINT('',(-1.6E0,1.211225925682E0,1.53E1));
#876=CURVE_STYLE('',#34,POSITIVE_LENGTH_MEASURE(2.E-2),#21);
#877=PRESENTATION_STYLE_ASSIGNMENT((#876));
#878=STYLED_ITEM('',(#877),#875);
#879=CARTESIAN_POINT('',(-1.6E0,2.156566277340E0,1.53E1));
#880=CARTESIAN_POINT('',(-1.580356336351E0,2.163033716176E0,1.53E1));
#881=CARTESIAN_POINT('',(-1.540403504938E0,2.173693492026E0,1.53E1));
#882=CARTESIAN_POINT('',(-1.477974296884E0,2.182889587329E0,1.53E1));
#883=CARTESIAN_POINT('',(-1.435638538929E0,2.184256165632E0,1.53E1));
#884=CARTESIAN_POINT('',(-1.414213562373E0,2.183720168323E0,1.53E1));
#886=CURVE_STYLE('',#34,POSITIVE_LENGTH_MEASURE(2.E-2),#21);
#887=PRESENTATION_STYLE_ASSIGNMENT((#886));
#888=STYLED_ITEM('',(#887),#885);
#889=CARTESIAN_POINT('',(-3.E0,0.E0,3.E0));
#890=CARTESIAN_POINT('',(-5.E0,0.E0,3.E0));
#891=VERTEX_POINT('',#889);
#892=VERTEX_POINT('',#890);
#893=CARTESIAN_POINT('',(5.E0,0.E0,3.E0));
#894=CARTESIAN_POINT('',(3.E0,0.E0,3.E0));
#895=VERTEX_POINT('',#893);
#896=VERTEX_POINT('',#894);
#897=CARTESIAN_POINT('',(1.6E0,-1.5E0,3.E0));
#898=CARTESIAN_POINT('',(1.6E0,1.5E0,3.E0));
#899=VERTEX_POINT('',#897);
#900=VERTEX_POINT('',#898);
#901=CARTESIAN_POINT('',(-1.6E0,-1.5E0,3.E0));
#902=CARTESIAN_POINT('',(-1.6E0,1.5E0,3.E0));
#903=VERTEX_POINT('',#901);
#904=VERTEX_POINT('',#902);
#905=CARTESIAN_POINT('',(1.414213562373E0,-3.E0,1.53E1));
#906=CARTESIAN_POINT('',(-1.414213562373E0,-3.E0,1.53E1));
#907=VERTEX_POINT('',#905);
#908=VERTEX_POINT('',#906);
#909=CARTESIAN_POINT('',(1.414213562373E0,3.E0,1.53E1));
#910=CARTESIAN_POINT('',(-1.414213562373E0,3.E0,1.53E1));
#911=VERTEX_POINT('',#909);
#912=VERTEX_POINT('',#910);
#913=CARTESIAN_POINT('',(-1.6E0,-3.E0,1.53E1));
#914=VERTEX_POINT('',#913);
#915=CARTESIAN_POINT('',(1.6E0,-3.E0,1.53E1));
#916=VERTEX_POINT('',#915);
#917=CARTESIAN_POINT('',(1.6E0,3.E0,1.53E1));
#918=VERTEX_POINT('',#917);
#919=CARTESIAN_POINT('',(-1.6E0,3.E0,1.53E1));
#920=VERTEX_POINT('',#919);
#921=CARTESIAN_POINT('',(-1.6E0,-3.E0,1.688140168778E0));
#922=CARTESIAN_POINT('',(-1.6E0,-1.5E0,3.366870363115E-1));
#923=VERTEX_POINT('',#921);
#924=VERTEX_POINT('',#922);
#925=CARTESIAN_POINT('',(-1.6E0,1.5E0,3.366870363115E-1));
#926=CARTESIAN_POINT('',(-1.6E0,3.E0,1.688140168778E0));
#927=VERTEX_POINT('',#925);
#928=VERTEX_POINT('',#926);
#929=CARTESIAN_POINT('',(1.6E0,-3.E0,1.688140168778E0));
#930=VERTEX_POINT('',#929);
#931=CARTESIAN_POINT('',(1.6E0,-1.5E0,3.366870363115E-1));
#932=VERTEX_POINT('',#931);
#933=CARTESIAN_POINT('',(1.6E0,1.5E0,3.366870363115E-1));
#934=CARTESIAN_POINT('',(1.6E0,3.E0,1.688140168778E0));
#935=VERTEX_POINT('',#933);
#936=VERTEX_POINT('',#934);
#937=CARTESIAN_POINT('',(4.6E0,0.E0,1.E1));
#938=CARTESIAN_POINT('',(3.4E0,0.E0,1.E1));
#939=VERTEX_POINT('',#937);
#940=VERTEX_POINT('',#938);
#941=CARTESIAN_POINT('',(5.E0,0.E0,9.6E0));
#942=CARTESIAN_POINT('',(3.E0,0.E0,9.6E0));
#943=VERTEX_POINT('',#941);
#944=VERTEX_POINT('',#942);
#945=CARTESIAN_POINT('',(-4.6E0,0.E0,1.E1));
#946=CARTESIAN_POINT('',(-3.4E0,0.E0,1.E1));
#947=VERTEX_POINT('',#945);
#948=VERTEX_POINT('',#946);
#949=CARTESIAN_POINT('',(-5.E0,0.E0,9.6E0));
#950=CARTESIAN_POINT('',(-3.E0,0.E0,9.6E0));
#951=VERTEX_POINT('',#949);
#952=VERTEX_POINT('',#950);
#953=CARTESIAN_POINT('',(1.6E0,-2.166508055091E0,1.53E1));
#954=VERTEX_POINT('',#953);
#955=CARTESIAN_POINT('',(1.6E0,-1.221167703433E0,1.53E1));
#956=CARTESIAN_POINT('',(1.6E0,-4.649638062507E-1,1.53E1));
#957=VERTEX_POINT('',#955);
#958=VERTEX_POINT('',#956);
#959=CARTESIAN_POINT('',(1.6E0,4.803765454070E-1,1.53E1));
#960=CARTESIAN_POINT('',(1.6E0,1.211225925682E0,1.53E1));
#961=VERTEX_POINT('',#959);
#962=VERTEX_POINT('',#960);
#963=CARTESIAN_POINT('',(1.6E0,2.156566277340E0,1.53E1));
#964=VERTEX_POINT('',#963);
#965=CARTESIAN_POINT('',(-1.6E0,2.156566277340E0,1.53E1));
#966=VERTEX_POINT('',#965);
#967=CARTESIAN_POINT('',(-1.6E0,1.211225925682E0,1.53E1));
#968=CARTESIAN_POINT('',(-1.6E0,4.803765454070E-1,1.53E1));
#969=VERTEX_POINT('',#967);
#970=VERTEX_POINT('',#968);
#971=CARTESIAN_POINT('',(-1.6E0,-4.649638062507E-1,1.53E1));
#972=CARTESIAN_POINT('',(-1.6E0,-1.221167703433E0,1.53E1));
#973=VERTEX_POINT('',#971);
#974=VERTEX_POINT('',#972);
#975=CARTESIAN_POINT('',(-1.6E0,-2.166508055091E0,1.53E1));
#976=VERTEX_POINT('',#975);
#977=CARTESIAN_POINT('',(1.414213562373E0,-2.193661946075E0,1.53E1));
#978=VERTEX_POINT('',#977);
#979=CARTESIAN_POINT('',(1.414213562373E0,-1.194013812449E0,1.53E1));
#980=CARTESIAN_POINT('',(1.414213562373E0,-4.921176972344E-1,1.53E1));
#981=VERTEX_POINT('',#979);
#982=VERTEX_POINT('',#980);
#983=CARTESIAN_POINT('',(1.414213562373E0,5.075304363907E-1,1.53E1));
#984=CARTESIAN_POINT('',(1.414213562373E0,1.184072034698E0,1.53E1));
#985=VERTEX_POINT('',#983);
#986=VERTEX_POINT('',#984);
#987=CARTESIAN_POINT('',(1.414213562373E0,2.183720168323E0,1.53E1));
#988=VERTEX_POINT('',#987);
#989=CARTESIAN_POINT('',(-1.414213562373E0,-2.193661946075E0,1.53E1));
#990=VERTEX_POINT('',#989);
#991=CARTESIAN_POINT('',(-1.414213562373E0,-1.194013812449E0,1.53E1));
#992=CARTESIAN_POINT('',(-1.414213562373E0,-4.921176972344E-1,1.53E1));
#993=VERTEX_POINT('',#991);
#994=VERTEX_POINT('',#992);
#995=CARTESIAN_POINT('',(-1.414213562373E0,5.075304363907E-1,1.53E1));
#996=CARTESIAN_POINT('',(-1.414213562373E0,1.184072034698E0,1.53E1));
#997=VERTEX_POINT('',#995);
#998=VERTEX_POINT('',#996);
#999=CARTESIAN_POINT('',(-1.414213562373E0,2.183720168323E0,1.53E1));
#1000=VERTEX_POINT('',#999);
#1001=CARTESIAN_POINT('',(-5.690977705434E0,-1.5E0,3.E0));
#1002=CARTESIAN_POINT('',(-5.690977705434E0,1.5E0,3.E0));
#1003=VERTEX_POINT('',#1001);
#1004=VERTEX_POINT('',#1002);
#1005=CARTESIAN_POINT('',(5.679561501411E0,-1.5E0,3.E0));
#1006=CARTESIAN_POINT('',(5.679561501411E0,1.5E0,3.E0));
#1007=VERTEX_POINT('',#1005);
#1008=VERTEX_POINT('',#1006);
#1009=CARTESIAN_POINT('',(-5.690977705434E0,-1.5E0,3.366870363115E-1));
#1010=VERTEX_POINT('',#1009);
#1011=CARTESIAN_POINT('',(5.679561501411E0,-1.5E0,3.366870363115E-1));
#1012=VERTEX_POINT('',#1011);
#1013=CARTESIAN_POINT('',(5.679561501411E0,1.5E0,3.366870363115E-1));
#1014=VERTEX_POINT('',#1013);
#1015=CARTESIAN_POINT('',(-5.690977705434E0,1.5E0,3.366870363115E-1));
#1016=VERTEX_POINT('',#1015);
#1017=CARTESIAN_POINT('',(0.E0,0.E0,3.E0));
#1018=DIRECTION('',(0.E0,0.E0,1.E0));
#1019=DIRECTION('',(1.E0,0.E0,0.E0));
#1020=AXIS2_PLACEMENT_3D('',#1017,#1018,#1019);
#1021=PLANE('',#1020);
#1023=ORIENTED_EDGE('',*,*,#1022,.T.);
#1025=ORIENTED_EDGE('',*,*,#1024,.F.);
#1027=ORIENTED_EDGE('',*,*,#1026,.F.);
#1029=ORIENTED_EDGE('',*,*,#1028,.F.);
#1030=EDGE_LOOP('',(#1023,#1025,#1027,#1029));
#1031=FACE_OUTER_BOUND('',#1030,.F.);
#1033=ORIENTED_EDGE('',*,*,#1032,.T.);
#1035=ORIENTED_EDGE('',*,*,#1034,.T.);
#1036=EDGE_LOOP('',(#1033,#1035));
#1037=FACE_BOUND('',#1036,.F.);
#1039=FILL_AREA_STYLE_COLOUR('',#21);
#1040=FILL_AREA_STYLE('',(#1039));
#1041=SURFACE_STYLE_FILL_AREA(#1040);
#1042=SURFACE_SIDE_STYLE('',(#1041));
#1043=SURFACE_STYLE_USAGE(.BOTH.,#1042);
#1044=PRESENTATION_STYLE_ASSIGNMENT((#1043));
#1045=STYLED_ITEM('',(#1044),#1038);
#1046=CARTESIAN_POINT('',(0.E0,0.E0,3.E0));
#1047=DIRECTION('',(0.E0,0.E0,1.E0));
#1048=DIRECTION('',(1.E0,0.E0,0.E0));
#1049=AXIS2_PLACEMENT_3D('',#1046,#1047,#1048);
#1050=PLANE('',#1049);
#1052=ORIENTED_EDGE('',*,*,#1051,.F.);
#1054=ORIENTED_EDGE('',*,*,#1053,.F.);
#1056=ORIENTED_EDGE('',*,*,#1055,.T.);
#1058=ORIENTED_EDGE('',*,*,#1057,.F.);
#1059=EDGE_LOOP('',(#1052,#1054,#1056,#1058));
#1060=FACE_OUTER_BOUND('',#1059,.F.);
#1062=ORIENTED_EDGE('',*,*,#1061,.T.);
#1064=ORIENTED_EDGE('',*,*,#1063,.T.);
#1065=EDGE_LOOP('',(#1062,#1064));
#1066=FACE_BOUND('',#1065,.F.);
#1068=FILL_AREA_STYLE_COLOUR('',#21);
#1069=FILL_AREA_STYLE('',(#1068));
#1070=SURFACE_STYLE_FILL_AREA(#1069);
#1071=SURFACE_SIDE_STYLE('',(#1070));
#1072=SURFACE_STYLE_USAGE(.POSITIVE.,#1071);
#1073=PRESENTATION_STYLE_ASSIGNMENT((#1072));
#1074=STYLED_ITEM('',(#1073),#1067);
#1075=CARTESIAN_POINT('',(-4.E0,0.E0,0.E0));
#1076=DIRECTION('',(0.E0,0.E0,1.E0));
#1077=DIRECTION('',(1.E0,0.E0,0.E0));
#1078=AXIS2_PLACEMENT_3D('',#1075,#1076,#1077);
#1079=CYLINDRICAL_SURFACE('',#1078,1.E0);
#1081=ORIENTED_EDGE('',*,*,#1080,.T.);
#1083=ORIENTED_EDGE('',*,*,#1082,.F.);
#1084=ORIENTED_EDGE('',*,*,#1032,.F.);
#1086=ORIENTED_EDGE('',*,*,#1085,.T.);
#1087=EDGE_LOOP('',(#1081,#1083,#1084,#1086));
#1088=FACE_OUTER_BOUND('',#1087,.F.);
#1090=FILL_AREA_STYLE_COLOUR('',#21);
#1091=FILL_AREA_STYLE('',(#1090));
#1092=SURFACE_STYLE_FILL_AREA(#1091);
#1093=SURFACE_SIDE_STYLE('',(#1092));
#1094=SURFACE_STYLE_USAGE(.BOTH.,#1093);
#1095=PRESENTATION_STYLE_ASSIGNMENT((#1094));
#1096=STYLED_ITEM('',(#1095),#1089);
#1097=CARTESIAN_POINT('',(-4.E0,0.E0,9.800000000251E0));
#1098=DIRECTION('',(0.E0,0.E0,-1.E0));
#1099=DIRECTION('',(0.E0,-1.E0,0.E0));
#1100=AXIS2_PLACEMENT_3D('',#1097,#1098,#1099);
#1101=CONICAL_SURFACE('',#1100,7.999999997485E-1,4.5E1);
#1103=ORIENTED_EDGE('',*,*,#1102,.T.);
#1105=ORIENTED_EDGE('',*,*,#1104,.T.);
#1106=ORIENTED_EDGE('',*,*,#1080,.F.);
#1108=ORIENTED_EDGE('',*,*,#1107,.F.);
#1109=EDGE_LOOP('',(#1103,#1105,#1106,#1108));
#1110=FACE_OUTER_BOUND('',#1109,.F.);
#1112=FILL_AREA_STYLE_COLOUR('',#21);
#1113=FILL_AREA_STYLE('',(#1112));
#1114=SURFACE_STYLE_FILL_AREA(#1113);
#1115=SURFACE_SIDE_STYLE('',(#1114));
#1116=SURFACE_STYLE_USAGE(.BOTH.,#1115);
#1117=PRESENTATION_STYLE_ASSIGNMENT((#1116));
#1118=STYLED_ITEM('',(#1117),#1111);
#1119=CARTESIAN_POINT('',(0.E0,0.E0,1.E1));
#1120=DIRECTION('',(0.E0,0.E0,1.E0));
#1121=DIRECTION('',(1.E0,0.E0,0.E0));
#1122=AXIS2_PLACEMENT_3D('',#1119,#1120,#1121);
#1123=PLANE('',#1122);
#1125=ORIENTED_EDGE('',*,*,#1124,.F.);
#1127=ORIENTED_EDGE('',*,*,#1126,.F.);
#1128=EDGE_LOOP('',(#1125,#1127));
#1129=FACE_OUTER_BOUND('',#1128,.F.);
#1131=FILL_AREA_STYLE_COLOUR('',#21);
#1132=FILL_AREA_STYLE('',(#1131));
#1133=SURFACE_STYLE_FILL_AREA(#1132);
#1134=SURFACE_SIDE_STYLE('',(#1133));
#1135=SURFACE_STYLE_USAGE(.BOTH.,#1134);
#1136=PRESENTATION_STYLE_ASSIGNMENT((#1135));
#1137=STYLED_ITEM('',(#1136),#1130);
#1138=CARTESIAN_POINT('',(0.E0,0.E0,1.E1));
#1139=DIRECTION('',(0.E0,0.E0,1.E0));
#1140=DIRECTION('',(1.E0,0.E0,0.E0));
#1141=AXIS2_PLACEMENT_3D('',#1138,#1139,#1140);
#1142=PLANE('',#1141);
#1144=ORIENTED_EDGE('',*,*,#1143,.F.);
#1145=ORIENTED_EDGE('',*,*,#1102,.F.);
#1146=EDGE_LOOP('',(#1144,#1145));
#1147=FACE_OUTER_BOUND('',#1146,.F.);
#1149=FILL_AREA_STYLE_COLOUR('',#21);
#1150=FILL_AREA_STYLE('',(#1149));
#1151=SURFACE_STYLE_FILL_AREA(#1150);
#1152=SURFACE_SIDE_STYLE('',(#1151));
#1153=SURFACE_STYLE_USAGE(.POSITIVE.,#1152);
#1154=PRESENTATION_STYLE_ASSIGNMENT((#1153));
#1155=STYLED_ITEM('',(#1154),#1148);
#1156=CARTESIAN_POINT('',(4.E0,0.E0,9.800000000251E0));
#1157=DIRECTION('',(0.E0,0.E0,-1.E0));
#1158=DIRECTION('',(0.E0,-1.E0,0.E0));
#1159=AXIS2_PLACEMENT_3D('',#1156,#1157,#1158);
#1160=CONICAL_SURFACE('',#1159,7.999999997485E-1,4.5E1);
#1161=ORIENTED_EDGE('',*,*,#1124,.T.);
#1163=ORIENTED_EDGE('',*,*,#1162,.T.);
#1165=ORIENTED_EDGE('',*,*,#1164,.F.);
#1167=ORIENTED_EDGE('',*,*,#1166,.F.);
#1168=EDGE_LOOP('',(#1161,#1163,#1165,#1167));
#1169=FACE_OUTER_BOUND('',#1168,.F.);
#1171=FILL_AREA_STYLE_COLOUR('',#21);
#1172=FILL_AREA_STYLE('',(#1171));
#1173=SURFACE_STYLE_FILL_AREA(#1172);
#1174=SURFACE_SIDE_STYLE('',(#1173));
#1175=SURFACE_STYLE_USAGE(.BOTH.,#1174);
#1176=PRESENTATION_STYLE_ASSIGNMENT((#1175));
#1177=STYLED_ITEM('',(#1176),#1170);
#1178=CARTESIAN_POINT('',(4.E0,0.E0,9.800000000251E0));
#1179=DIRECTION('',(0.E0,0.E0,-1.E0));
#1180=DIRECTION('',(0.E0,-1.E0,0.E0));
#1181=AXIS2_PLACEMENT_3D('',#1178,#1179,#1180);
#1182=CONICAL_SURFACE('',#1181,7.999999997485E-1,4.5E1);
#1183=ORIENTED_EDGE('',*,*,#1126,.T.);
#1184=ORIENTED_EDGE('',*,*,#1166,.T.);
#1186=ORIENTED_EDGE('',*,*,#1185,.F.);
#1187=ORIENTED_EDGE('',*,*,#1162,.F.);
#1188=EDGE_LOOP('',(#1183,#1184,#1186,#1187));
#1189=FACE_OUTER_BOUND('',#1188,.F.);
#1191=FILL_AREA_STYLE_COLOUR('',#21);
#1192=FILL_AREA_STYLE('',(#1191));
#1193=SURFACE_STYLE_FILL_AREA(#1192);
#1194=SURFACE_SIDE_STYLE('',(#1193));
#1195=SURFACE_STYLE_USAGE(.BOTH.,#1194);
#1196=PRESENTATION_STYLE_ASSIGNMENT((#1195));
#1197=STYLED_ITEM('',(#1196),#1190);
#1198=CARTESIAN_POINT('',(4.E0,0.E0,0.E0));
#1199=DIRECTION('',(0.E0,0.E0,1.E0));
#1200=DIRECTION('',(1.E0,0.E0,0.E0));
#1201=AXIS2_PLACEMENT_3D('',#1198,#1199,#1200);
#1202=CYLINDRICAL_SURFACE('',#1201,1.E0);
#1203=ORIENTED_EDGE('',*,*,#1185,.T.);
#1205=ORIENTED_EDGE('',*,*,#1204,.F.);
#1206=ORIENTED_EDGE('',*,*,#1063,.F.);
#1208=ORIENTED_EDGE('',*,*,#1207,.T.);
#1209=EDGE_LOOP('',(#1203,#1205,#1206,#1208));
#1210=FACE_OUTER_BOUND('',#1209,.F.);
#1212=FILL_AREA_STYLE_COLOUR('',#21);
#1213=FILL_AREA_STYLE('',(#1212));
#1214=SURFACE_STYLE_FILL_AREA(#1213);
#1215=SURFACE_SIDE_STYLE('',(#1214));
#1216=SURFACE_STYLE_USAGE(.BOTH.,#1215);
#1217=PRESENTATION_STYLE_ASSIGNMENT((#1216));
#1218=STYLED_ITEM('',(#1217),#1211);
#1219=CARTESIAN_POINT('',(4.E0,0.E0,0.E0));
#1220=DIRECTION('',(0.E0,0.E0,1.E0));
#1221=DIRECTION('',(1.E0,0.E0,0.E0));
#1222=AXIS2_PLACEMENT_3D('',#1219,#1220,#1221);
#1223=CYLINDRICAL_SURFACE('',#1222,1.E0);
#1224=ORIENTED_EDGE('',*,*,#1164,.T.);
#1225=ORIENTED_EDGE('',*,*,#1207,.F.);
#1226=ORIENTED_EDGE('',*,*,#1061,.F.);
#1227=ORIENTED_EDGE('',*,*,#1204,.T.);
#1228=EDGE_LOOP('',(#1224,#1225,#1226,#1227));
#1229=FACE_OUTER_BOUND('',#1228,.F.);
#1231=FILL_AREA_STYLE_COLOUR('',#21);
#1232=FILL_AREA_STYLE('',(#1231));
#1233=SURFACE_STYLE_FILL_AREA(#1232);
#1234=SURFACE_SIDE_STYLE('',(#1233));
#1235=SURFACE_STYLE_USAGE(.BOTH.,#1234);
#1236=PRESENTATION_STYLE_ASSIGNMENT((#1235));
#1237=STYLED_ITEM('',(#1236),#1230);
#1238=CARTESIAN_POINT('',(-4.E0,0.E0,9.800000000251E0));
#1239=DIRECTION('',(0.E0,0.E0,-1.E0));
#1240=DIRECTION('',(0.E0,-1.E0,0.E0));
#1241=AXIS2_PLACEMENT_3D('',#1238,#1239,#1240);
#1242=CONICAL_SURFACE('',#1241,7.999999997485E-1,4.5E1);
#1243=ORIENTED_EDGE('',*,*,#1143,.T.);
#1244=ORIENTED_EDGE('',*,*,#1107,.T.);
#1246=ORIENTED_EDGE('',*,*,#1245,.F.);
#1247=ORIENTED_EDGE('',*,*,#1104,.F.);
#1248=EDGE_LOOP('',(#1243,#1244,#1246,#1247));
#1249=FACE_OUTER_BOUND('',#1248,.F.);
#1251=FILL_AREA_STYLE_COLOUR('',#21);
#1252=FILL_AREA_STYLE('',(#1251));
#1253=SURFACE_STYLE_FILL_AREA(#1252);
#1254=SURFACE_SIDE_STYLE('',(#1253));
#1255=SURFACE_STYLE_USAGE(.BOTH.,#1254);
#1256=PRESENTATION_STYLE_ASSIGNMENT((#1255));
#1257=STYLED_ITEM('',(#1256),#1250);
#1258=CARTESIAN_POINT('',(-4.E0,0.E0,0.E0));
#1259=DIRECTION('',(0.E0,0.E0,1.E0));
#1260=DIRECTION('',(1.E0,0.E0,0.E0));
#1261=AXIS2_PLACEMENT_3D('',#1258,#1259,#1260);
#1262=CYLINDRICAL_SURFACE('',#1261,1.E0);
#1263=ORIENTED_EDGE('',*,*,#1245,.T.);
#1264=ORIENTED_EDGE('',*,*,#1085,.F.);
#1265=ORIENTED_EDGE('',*,*,#1034,.F.);
#1266=ORIENTED_EDGE('',*,*,#1082,.T.);
#1267=EDGE_LOOP('',(#1263,#1264,#1265,#1266));
#1268=FACE_OUTER_BOUND('',#1267,.F.);
#1270=FILL_AREA_STYLE_COLOUR('',#21);
#1271=FILL_AREA_STYLE('',(#1270));
#1272=SURFACE_STYLE_FILL_AREA(#1271);
#1273=SURFACE_SIDE_STYLE('',(#1272));
#1274=SURFACE_STYLE_USAGE(.BOTH.,#1273);
#1275=PRESENTATION_STYLE_ASSIGNMENT((#1274));
#1276=STYLED_ITEM('',(#1275),#1269);
#1277=CARTESIAN_POINT('',(-5.690977705434E0,-1.5E0,3.E0));
#1278=DIRECTION('',(1.E0,0.E0,0.E0));
#1279=DIRECTION('',(0.E0,1.E0,0.E0));
#1280=AXIS2_PLACEMENT_3D('',#1277,#1278,#1279);
#1281=PLANE('',#1280);
#1282=ORIENTED_EDGE('',*,*,#1022,.F.);
#1284=ORIENTED_EDGE('',*,*,#1283,.F.);
#1286=ORIENTED_EDGE('',*,*,#1285,.T.);
#1288=ORIENTED_EDGE('',*,*,#1287,.T.);
#1289=EDGE_LOOP('',(#1282,#1284,#1286,#1288));
#1290=FACE_OUTER_BOUND('',#1289,.F.);
#1292=FILL_AREA_STYLE_COLOUR('',#21);
#1293=FILL_AREA_STYLE('',(#1292));
#1294=SURFACE_STYLE_FILL_AREA(#1293);
#1295=SURFACE_SIDE_STYLE('',(#1294));
#1296=SURFACE_STYLE_USAGE(.BOTH.,#1295);
#1297=PRESENTATION_STYLE_ASSIGNMENT((#1296));
#1298=STYLED_ITEM('',(#1297),#1291);
#1299=CARTESIAN_POINT('',(-6.1E0,-1.5E0,0.E0));
#1300=DIRECTION('',(0.E0,-1.E0,0.E0));
#1301=DIRECTION('',(1.E0,0.E0,0.E0));
#1302=AXIS2_PLACEMENT_3D('',#1299,#1300,#1301);
#1303=PLANE('',#1302);
#1304=ORIENTED_EDGE('',*,*,#1283,.T.);
#1305=ORIENTED_EDGE('',*,*,#1028,.T.);
#1307=ORIENTED_EDGE('',*,*,#1306,.F.);
#1309=ORIENTED_EDGE('',*,*,#1308,.F.);
#1310=EDGE_LOOP('',(#1304,#1305,#1307,#1309));
#1311=FACE_OUTER_BOUND('',#1310,.F.);
#1313=FILL_AREA_STYLE_COLOUR('',#21);
#1314=FILL_AREA_STYLE('',(#1313));
#1315=SURFACE_STYLE_FILL_AREA(#1314);
#1316=SURFACE_SIDE_STYLE('',(#1315));
#1317=SURFACE_STYLE_USAGE(.BOTH.,#1316);
#1318=PRESENTATION_STYLE_ASSIGNMENT((#1317));
#1319=STYLED_ITEM('',(#1318),#1312);
#1320=CARTESIAN_POINT('',(-1.6E0,-1.5E0,0.E0));
#1321=DIRECTION('',(-1.E0,0.E0,0.E0));
#1322=DIRECTION('',(0.E0,-1.E0,0.E0));
#1323=AXIS2_PLACEMENT_3D('',#1320,#1321,#1322);
#1324=PLANE('',#1323);
#1326=ORIENTED_EDGE('',*,*,#1325,.T.);
#1328=ORIENTED_EDGE('',*,*,#1327,.F.);
#1330=ORIENTED_EDGE('',*,*,#1329,.T.);
#1332=ORIENTED_EDGE('',*,*,#1331,.F.);
#1334=ORIENTED_EDGE('',*,*,#1333,.T.);
#1336=ORIENTED_EDGE('',*,*,#1335,.F.);
#1338=ORIENTED_EDGE('',*,*,#1337,.T.);
#1340=ORIENTED_EDGE('',*,*,#1339,.T.);
#1342=ORIENTED_EDGE('',*,*,#1341,.T.);
#1343=ORIENTED_EDGE('',*,*,#1306,.T.);
#1344=ORIENTED_EDGE('',*,*,#1026,.T.);
#1346=ORIENTED_EDGE('',*,*,#1345,.F.);
#1348=ORIENTED_EDGE('',*,*,#1347,.T.);
#1350=ORIENTED_EDGE('',*,*,#1349,.T.);
#1351=EDGE_LOOP('',(#1326,#1328,#1330,#1332,#1334,#1336,#1338,#1340,#1342,#1343,
#1344,#1346,#1348,#1350));
#1352=FACE_OUTER_BOUND('',#1351,.F.);
#1354=FILL_AREA_STYLE_COLOUR('',#21);
#1355=FILL_AREA_STYLE('',(#1354));
#1356=SURFACE_STYLE_FILL_AREA(#1355);
#1357=SURFACE_SIDE_STYLE('',(#1356));
#1358=SURFACE_STYLE_USAGE(.BOTH.,#1357);
#1359=PRESENTATION_STYLE_ASSIGNMENT((#1358));
#1360=STYLED_ITEM('',(#1359),#1353);
#1361=CARTESIAN_POINT('',(0.E0,0.E0,1.53E1));
#1362=DIRECTION('',(0.E0,0.E0,1.E0));
#1363=DIRECTION('',(0.E0,1.E0,0.E0));
#1364=AXIS2_PLACEMENT_3D('',#1361,#1362,#1363);
#1365=PLANE('',#1364);
#1367=ORIENTED_EDGE('',*,*,#1366,.F.);
#1369=ORIENTED_EDGE('',*,*,#1368,.F.);
#1371=ORIENTED_EDGE('',*,*,#1370,.T.);
#1373=ORIENTED_EDGE('',*,*,#1372,.F.);
#1374=EDGE_LOOP('',(#1367,#1369,#1371,#1373));
#1375=FACE_OUTER_BOUND('',#1374,.F.);
#1377=FILL_AREA_STYLE_COLOUR('',#21);
#1378=FILL_AREA_STYLE('',(#1377));
#1379=SURFACE_STYLE_FILL_AREA(#1378);
#1380=SURFACE_SIDE_STYLE('',(#1379));
#1381=SURFACE_STYLE_USAGE(.BOTH.,#1380);
#1382=PRESENTATION_STYLE_ASSIGNMENT((#1381));
#1383=STYLED_ITEM('',(#1382),#1376);
#1384=CARTESIAN_POINT('',(0.E0,0.E0,1.53E1));
#1385=DIRECTION('',(0.E0,0.E0,1.E0));
#1386=DIRECTION('',(0.E0,1.E0,0.E0));
#1387=AXIS2_PLACEMENT_3D('',#1384,#1385,#1386);
#1388=PLANE('',#1387);
#1390=ORIENTED_EDGE('',*,*,#1389,.F.);
#1392=ORIENTED_EDGE('',*,*,#1391,.F.);
#1394=ORIENTED_EDGE('',*,*,#1393,.T.);
#1396=ORIENTED_EDGE('',*,*,#1395,.F.);
#1397=EDGE_LOOP('',(#1390,#1392,#1394,#1396));
#1398=FACE_OUTER_BOUND('',#1397,.F.);
#1400=FILL_AREA_STYLE_COLOUR('',#21);
#1401=FILL_AREA_STYLE('',(#1400));
#1402=SURFACE_STYLE_FILL_AREA(#1401);
#1403=SURFACE_SIDE_STYLE('',(#1402));
#1404=SURFACE_STYLE_USAGE(.POSITIVE.,#1403);
#1405=PRESENTATION_STYLE_ASSIGNMENT((#1404));
#1406=STYLED_ITEM('',(#1405),#1399);
#1407=CARTESIAN_POINT('',(0.E0,0.E0,1.53E1));
#1408=DIRECTION('',(0.E0,0.E0,1.E0));
#1409=DIRECTION('',(0.E0,1.E0,0.E0));
#1410=AXIS2_PLACEMENT_3D('',#1407,#1408,#1409);
#1411=PLANE('',#1410);
#1413=ORIENTED_EDGE('',*,*,#1412,.F.);
#1415=ORIENTED_EDGE('',*,*,#1414,.F.);
#1417=ORIENTED_EDGE('',*,*,#1416,.T.);
#1419=ORIENTED_EDGE('',*,*,#1418,.F.);
#1420=EDGE_LOOP('',(#1413,#1415,#1417,#1419));
#1421=FACE_OUTER_BOUND('',#1420,.F.);
#1423=FILL_AREA_STYLE_COLOUR('',#21);
#1424=FILL_AREA_STYLE('',(#1423));
#1425=SURFACE_STYLE_FILL_AREA(#1424);
#1426=SURFACE_SIDE_STYLE('',(#1425));
#1427=SURFACE_STYLE_USAGE(.POSITIVE.,#1426);
#1428=PRESENTATION_STYLE_ASSIGNMENT((#1427));
#1429=STYLED_ITEM('',(#1428),#1422);
#1430=CARTESIAN_POINT('',(0.E0,0.E0,1.53E1));
#1431=DIRECTION('',(0.E0,0.E0,1.E0));
#1432=DIRECTION('',(0.E0,1.E0,0.E0));
#1433=AXIS2_PLACEMENT_3D('',#1430,#1431,#1432);
#1434=PLANE('',#1433);
#1436=ORIENTED_EDGE('',*,*,#1435,.F.);
#1438=ORIENTED_EDGE('',*,*,#1437,.F.);
#1440=ORIENTED_EDGE('',*,*,#1439,.T.);
#1442=ORIENTED_EDGE('',*,*,#1441,.F.);
#1443=EDGE_LOOP('',(#1436,#1438,#1440,#1442));
#1444=FACE_OUTER_BOUND('',#1443,.F.);
#1446=FILL_AREA_STYLE_COLOUR('',#21);
#1447=FILL_AREA_STYLE('',(#1446));
#1448=SURFACE_STYLE_FILL_AREA(#1447);
#1449=SURFACE_SIDE_STYLE('',(#1448));
#1450=SURFACE_STYLE_USAGE(.POSITIVE.,#1449);
#1451=PRESENTATION_STYLE_ASSIGNMENT((#1450));
#1452=STYLED_ITEM('',(#1451),#1445);
#1453=CARTESIAN_POINT('',(0.E0,0.E0,1.53E1));
#1454=DIRECTION('',(0.E0,0.E0,1.E0));
#1455=DIRECTION('',(0.E0,1.E0,0.E0));
#1456=AXIS2_PLACEMENT_3D('',#1453,#1454,#1455);
#1457=PLANE('',#1456);
#1458=ORIENTED_EDGE('',*,*,#1325,.F.);
#1460=ORIENTED_EDGE('',*,*,#1459,.F.);
#1462=ORIENTED_EDGE('',*,*,#1461,.F.);
#1464=ORIENTED_EDGE('',*,*,#1463,.F.);
#1465=EDGE_LOOP('',(#1458,#1460,#1462,#1464));
#1466=FACE_OUTER_BOUND('',#1465,.F.);
#1468=FILL_AREA_STYLE_COLOUR('',#21);
#1469=FILL_AREA_STYLE('',(#1468));
#1470=SURFACE_STYLE_FILL_AREA(#1469);
#1471=SURFACE_SIDE_STYLE('',(#1470));
#1472=SURFACE_STYLE_USAGE(.POSITIVE.,#1471);
#1473=PRESENTATION_STYLE_ASSIGNMENT((#1472));
#1474=STYLED_ITEM('',(#1473),#1467);
#1475=CARTESIAN_POINT('',(0.E0,0.E0,1.53E1));
#1476=DIRECTION('',(0.E0,0.E0,1.E0));
#1477=DIRECTION('',(0.E0,1.E0,0.E0));
#1478=AXIS2_PLACEMENT_3D('',#1475,#1476,#1477);
#1479=PLANE('',#1478);
#1480=ORIENTED_EDGE('',*,*,#1329,.F.);
#1482=ORIENTED_EDGE('',*,*,#1481,.F.);
#1484=ORIENTED_EDGE('',*,*,#1483,.F.);
#1486=ORIENTED_EDGE('',*,*,#1485,.F.);
#1487=EDGE_LOOP('',(#1480,#1482,#1484,#1486));
#1488=FACE_OUTER_BOUND('',#1487,.F.);
#1490=FILL_AREA_STYLE_COLOUR('',#21);
#1491=FILL_AREA_STYLE('',(#1490));
#1492=SURFACE_STYLE_FILL_AREA(#1491);
#1493=SURFACE_SIDE_STYLE('',(#1492));
#1494=SURFACE_STYLE_USAGE(.POSITIVE.,#1493);
#1495=PRESENTATION_STYLE_ASSIGNMENT((#1494));
#1496=STYLED_ITEM('',(#1495),#1489);
#1497=CARTESIAN_POINT('',(0.E0,0.E0,1.53E1));
#1498=DIRECTION('',(0.E0,0.E0,1.E0));
#1499=DIRECTION('',(0.E0,1.E0,0.E0));
#1500=AXIS2_PLACEMENT_3D('',#1497,#1498,#1499);
#1501=PLANE('',#1500);
#1502=ORIENTED_EDGE('',*,*,#1333,.F.);
#1504=ORIENTED_EDGE('',*,*,#1503,.F.);
#1506=ORIENTED_EDGE('',*,*,#1505,.F.);
#1508=ORIENTED_EDGE('',*,*,#1507,.F.);
#1509=EDGE_LOOP('',(#1502,#1504,#1506,#1508));
#1510=FACE_OUTER_BOUND('',#1509,.F.);
#1512=FILL_AREA_STYLE_COLOUR('',#21);
#1513=FILL_AREA_STYLE('',(#1512));
#1514=SURFACE_STYLE_FILL_AREA(#1513);
#1515=SURFACE_SIDE_STYLE('',(#1514));
#1516=SURFACE_STYLE_USAGE(.POSITIVE.,#1515);
#1517=PRESENTATION_STYLE_ASSIGNMENT((#1516));
#1518=STYLED_ITEM('',(#1517),#1511);
#1519=CARTESIAN_POINT('',(0.E0,0.E0,1.53E1));
#1520=DIRECTION('',(0.E0,0.E0,1.E0));
#1521=DIRECTION('',(0.E0,1.E0,0.E0));
#1522=AXIS2_PLACEMENT_3D('',#1519,#1520,#1521);
#1523=PLANE('',#1522);
#1524=ORIENTED_EDGE('',*,*,#1337,.F.);
#1526=ORIENTED_EDGE('',*,*,#1525,.F.);
#1528=ORIENTED_EDGE('',*,*,#1527,.F.);
#1530=ORIENTED_EDGE('',*,*,#1529,.F.);
#1531=EDGE_LOOP('',(#1524,#1526,#1528,#1530));
#1532=FACE_OUTER_BOUND('',#1531,.F.);
#1534=FILL_AREA_STYLE_COLOUR('',#21);
#1535=FILL_AREA_STYLE('',(#1534));
#1536=SURFACE_STYLE_FILL_AREA(#1535);
#1537=SURFACE_SIDE_STYLE('',(#1536));
#1538=SURFACE_STYLE_USAGE(.POSITIVE.,#1537);
#1539=PRESENTATION_STYLE_ASSIGNMENT((#1538));
#1540=STYLED_ITEM('',(#1539),#1533);
#1541=CARTESIAN_POINT('',(1.6E0,-3.E0,0.E0));
#1542=DIRECTION('',(1.E0,0.E0,0.E0));
#1543=DIRECTION('',(0.E0,1.E0,0.E0));
#1544=AXIS2_PLACEMENT_3D('',#1541,#1542,#1543);
#1545=PLANE('',#1544);
#1546=ORIENTED_EDGE('',*,*,#1366,.T.);
#1548=ORIENTED_EDGE('',*,*,#1547,.F.);
#1549=ORIENTED_EDGE('',*,*,#1389,.T.);
#1551=ORIENTED_EDGE('',*,*,#1550,.F.);
#1552=ORIENTED_EDGE('',*,*,#1412,.T.);
#1554=ORIENTED_EDGE('',*,*,#1553,.F.);
#1555=ORIENTED_EDGE('',*,*,#1435,.T.);
#1557=ORIENTED_EDGE('',*,*,#1556,.F.);
#1559=ORIENTED_EDGE('',*,*,#1558,.F.);
#1561=ORIENTED_EDGE('',*,*,#1560,.T.);
#1562=ORIENTED_EDGE('',*,*,#1055,.F.);
#1564=ORIENTED_EDGE('',*,*,#1563,.F.);
#1566=ORIENTED_EDGE('',*,*,#1565,.F.);
#1568=ORIENTED_EDGE('',*,*,#1567,.T.);
#1569=EDGE_LOOP('',(#1546,#1548,#1549,#1551,#1552,#1554,#1555,#1557,#1559,#1561,
#1562,#1564,#1566,#1568));
#1570=FACE_OUTER_BOUND('',#1569,.F.);
#1572=FILL_AREA_STYLE_COLOUR('',#21);
#1573=FILL_AREA_STYLE('',(#1572));
#1574=SURFACE_STYLE_FILL_AREA(#1573);
#1575=SURFACE_SIDE_STYLE('',(#1574));
#1576=SURFACE_STYLE_USAGE(.BOTH.,#1575);
#1577=PRESENTATION_STYLE_ASSIGNMENT((#1576));
#1578=STYLED_ITEM('',(#1577),#1571);
#1579=CARTESIAN_POINT('',(0.E0,-1.693837879262E0,1.58E1));
#1580=DIRECTION('',(0.E0,1.E0,0.E0));
#1581=DIRECTION('',(0.E0,0.E0,-1.E0));
#1582=AXIS2_PLACEMENT_3D('',#1579,#1580,#1581);
#1583=TOROIDAL_SURFACE('',#1582,1.513262813991E0,5.E-1);
#1585=ORIENTED_EDGE('',*,*,#1584,.T.);
#1586=ORIENTED_EDGE('',*,*,#1391,.T.);
#1587=ORIENTED_EDGE('',*,*,#1547,.T.);
#1588=ORIENTED_EDGE('',*,*,#1372,.T.);
#1590=ORIENTED_EDGE('',*,*,#1589,.T.);
#1591=ORIENTED_EDGE('',*,*,#1525,.T.);
#1592=ORIENTED_EDGE('',*,*,#1335,.T.);
#1593=ORIENTED_EDGE('',*,*,#1507,.T.);
#1594=EDGE_LOOP('',(#1585,#1586,#1587,#1588,#1590,#1591,#1592,#1593));
#1595=FACE_OUTER_BOUND('',#1594,.F.);
#1597=FILL_AREA_STYLE_COLOUR('',#21);
#1598=FILL_AREA_STYLE('',(#1597));
#1599=SURFACE_STYLE_FILL_AREA(#1598);
#1600=SURFACE_SIDE_STYLE('',(#1599));
#1601=SURFACE_STYLE_USAGE(.BOTH.,#1600);
#1602=PRESENTATION_STYLE_ASSIGNMENT((#1601));
#1603=STYLED_ITEM('',(#1602),#1596);
#1604=CARTESIAN_POINT('',(0.E0,-3.E0,1.58E1));
#1605=DIRECTION('',(0.E0,1.E0,0.E0));
#1606=DIRECTION('',(-1.E0,0.E0,0.E0));
#1607=AXIS2_PLACEMENT_3D('',#1604,#1605,#1606);
#1608=CYLINDRICAL_SURFACE('',#1607,1.5E0);
#1609=ORIENTED_EDGE('',*,*,#1370,.F.);
#1611=ORIENTED_EDGE('',*,*,#1610,.T.);
#1612=ORIENTED_EDGE('',*,*,#1527,.T.);
#1613=ORIENTED_EDGE('',*,*,#1589,.F.);
#1614=EDGE_LOOP('',(#1609,#1611,#1612,#1613));
#1615=FACE_OUTER_BOUND('',#1614,.F.);
#1617=FILL_AREA_STYLE_COLOUR('',#21);
#1618=FILL_AREA_STYLE('',(#1617));
#1619=SURFACE_STYLE_FILL_AREA(#1618);
#1620=SURFACE_SIDE_STYLE('',(#1619));
#1621=SURFACE_STYLE_USAGE(.BOTH.,#1620);
#1622=PRESENTATION_STYLE_ASSIGNMENT((#1621));
#1623=STYLED_ITEM('',(#1622),#1616);
#1624=CARTESIAN_POINT('',(0.E0,-3.E0,1.58E1));
#1625=DIRECTION('',(0.E0,1.E0,0.E0));
#1626=DIRECTION('',(-1.E0,0.E0,0.E0));
#1627=AXIS2_PLACEMENT_3D('',#1624,#1625,#1626);
#1628=CYLINDRICAL_SURFACE('',#1627,1.5E0);
#1629=ORIENTED_EDGE('',*,*,#1393,.F.);
#1630=ORIENTED_EDGE('',*,*,#1584,.F.);
#1631=ORIENTED_EDGE('',*,*,#1505,.T.);
#1633=ORIENTED_EDGE('',*,*,#1632,.F.);
#1634=EDGE_LOOP('',(#1629,#1630,#1631,#1633));
#1635=FACE_OUTER_BOUND('',#1634,.F.);
#1637=FILL_AREA_STYLE_COLOUR('',#21);
#1638=FILL_AREA_STYLE('',(#1637));
#1639=SURFACE_STYLE_FILL_AREA(#1638);
#1640=SURFACE_SIDE_STYLE('',(#1639));
#1641=SURFACE_STYLE_USAGE(.POSITIVE.,#1640);
#1642=PRESENTATION_STYLE_ASSIGNMENT((#1641));
#1643=STYLED_ITEM('',(#1642),#1636);
#1644=CARTESIAN_POINT('',(0.E0,-3.E0,1.58E1));
#1645=DIRECTION('',(0.E0,1.E0,0.E0));
#1646=DIRECTION('',(-1.E0,0.E0,0.E0));
#1647=AXIS2_PLACEMENT_3D('',#1644,#1645,#1646);
#1648=CYLINDRICAL_SURFACE('',#1647,1.5E0);
#1649=ORIENTED_EDGE('',*,*,#1416,.F.);
#1651=ORIENTED_EDGE('',*,*,#1650,.F.);
#1652=ORIENTED_EDGE('',*,*,#1483,.T.);
#1654=ORIENTED_EDGE('',*,*,#1653,.F.);
#1655=EDGE_LOOP('',(#1649,#1651,#1652,#1654));
#1656=FACE_OUTER_BOUND('',#1655,.F.);
#1658=FILL_AREA_STYLE_COLOUR('',#21);
#1659=FILL_AREA_STYLE('',(#1658));
#1660=SURFACE_STYLE_FILL_AREA(#1659);
#1661=SURFACE_SIDE_STYLE('',(#1660));
#1662=SURFACE_STYLE_USAGE(.POSITIVE.,#1661);
#1663=PRESENTATION_STYLE_ASSIGNMENT((#1662));
#1664=STYLED_ITEM('',(#1663),#1657);
#1665=CARTESIAN_POINT('',(0.E0,-3.E0,1.58E1));
#1666=DIRECTION('',(0.E0,1.E0,0.E0));
#1667=DIRECTION('',(-1.E0,0.E0,0.E0));
#1668=AXIS2_PLACEMENT_3D('',#1665,#1666,#1667);
#1669=CYLINDRICAL_SURFACE('',#1668,1.5E0);
#1670=ORIENTED_EDGE('',*,*,#1439,.F.);
#1672=ORIENTED_EDGE('',*,*,#1671,.F.);
#1673=ORIENTED_EDGE('',*,*,#1461,.T.);
#1675=ORIENTED_EDGE('',*,*,#1674,.F.);
#1676=EDGE_LOOP('',(#1670,#1672,#1673,#1675));
#1677=FACE_OUTER_BOUND('',#1676,.F.);
#1679=FILL_AREA_STYLE_COLOUR('',#21);
#1680=FILL_AREA_STYLE('',(#1679));
#1681=SURFACE_STYLE_FILL_AREA(#1680);
#1682=SURFACE_SIDE_STYLE('',(#1681));
#1683=SURFACE_STYLE_USAGE(.POSITIVE.,#1682);
#1684=PRESENTATION_STYLE_ASSIGNMENT((#1683));
#1685=STYLED_ITEM('',(#1684),#1678);
#1686=CARTESIAN_POINT('',(-1.6E0,-3.E0,0.E0));
#1687=DIRECTION('',(0.E0,-1.E0,0.E0));
#1688=DIRECTION('',(1.E0,0.E0,0.E0));
#1689=AXIS2_PLACEMENT_3D('',#1686,#1687,#1688);
#1690=PLANE('',#1689);
#1692=ORIENTED_EDGE('',*,*,#1691,.F.);
#1693=ORIENTED_EDGE('',*,*,#1339,.F.);
#1694=ORIENTED_EDGE('',*,*,#1529,.T.);
#1695=ORIENTED_EDGE('',*,*,#1610,.F.);
#1696=ORIENTED_EDGE('',*,*,#1368,.T.);
#1697=ORIENTED_EDGE('',*,*,#1567,.F.);
#1698=EDGE_LOOP('',(#1692,#1693,#1694,#1695,#1696,#1697));
#1699=FACE_OUTER_BOUND('',#1698,.F.);
#1701=FILL_AREA_STYLE_COLOUR('',#21);
#1702=FILL_AREA_STYLE('',(#1701));
#1703=SURFACE_STYLE_FILL_AREA(#1702);
#1704=SURFACE_SIDE_STYLE('',(#1703));
#1705=SURFACE_STYLE_USAGE(.BOTH.,#1704);
#1706=PRESENTATION_STYLE_ASSIGNMENT((#1705));
#1707=STYLED_ITEM('',(#1706),#1700);
#1708=CARTESIAN_POINT('',(-7.5E0,0.E0,3.509725509944E0));
#1709=DIRECTION('',(1.E0,0.E0,0.E0));
#1710=DIRECTION('',(0.E0,0.E0,-1.E0));
#1711=AXIS2_PLACEMENT_3D('',#1708,#1709,#1710);
#1712=CYLINDRICAL_SURFACE('',#1711,3.509725509944E0);
#1713=ORIENTED_EDGE('',*,*,#1285,.F.);
#1714=ORIENTED_EDGE('',*,*,#1308,.T.);
#1715=ORIENTED_EDGE('',*,*,#1341,.F.);
#1716=ORIENTED_EDGE('',*,*,#1691,.T.);
#1717=ORIENTED_EDGE('',*,*,#1565,.T.);
#1719=ORIENTED_EDGE('',*,*,#1718,.T.);
#1721=ORIENTED_EDGE('',*,*,#1720,.T.);
#1723=ORIENTED_EDGE('',*,*,#1722,.F.);
#1724=ORIENTED_EDGE('',*,*,#1558,.T.);
#1726=ORIENTED_EDGE('',*,*,#1725,.F.);
#1727=ORIENTED_EDGE('',*,*,#1347,.F.);
#1729=ORIENTED_EDGE('',*,*,#1728,.F.);
#1730=EDGE_LOOP('',(#1713,#1714,#1715,#1716,#1717,#1719,#1721,#1723,#1724,#1726,
#1727,#1729));
#1731=FACE_OUTER_BOUND('',#1730,.F.);
#1733=FILL_AREA_STYLE_COLOUR('',#21);
#1734=FILL_AREA_STYLE('',(#1733));
#1735=SURFACE_STYLE_FILL_AREA(#1734);
#1736=SURFACE_SIDE_STYLE('',(#1735));
#1737=SURFACE_STYLE_USAGE(.BOTH.,#1736);
#1738=PRESENTATION_STYLE_ASSIGNMENT((#1737));
#1739=STYLED_ITEM('',(#1738),#1732);
#1740=CARTESIAN_POINT('',(1.6E0,-1.5E0,0.E0));
#1741=DIRECTION('',(0.E0,-1.E0,0.E0));
#1742=DIRECTION('',(1.E0,0.E0,0.E0));
#1743=AXIS2_PLACEMENT_3D('',#1740,#1741,#1742);
#1744=PLANE('',#1743);
#1746=ORIENTED_EDGE('',*,*,#1745,.F.);
#1747=ORIENTED_EDGE('',*,*,#1718,.F.);
#1748=ORIENTED_EDGE('',*,*,#1563,.T.);
#1749=ORIENTED_EDGE('',*,*,#1053,.T.);
#1750=EDGE_LOOP('',(#1746,#1747,#1748,#1749));
#1751=FACE_OUTER_BOUND('',#1750,.F.);
#1753=FILL_AREA_STYLE_COLOUR('',#21);
#1754=FILL_AREA_STYLE('',(#1753));
#1755=SURFACE_STYLE_FILL_AREA(#1754);
#1756=SURFACE_SIDE_STYLE('',(#1755));
#1757=SURFACE_STYLE_USAGE(.BOTH.,#1756);
#1758=PRESENTATION_STYLE_ASSIGNMENT((#1757));
#1759=STYLED_ITEM('',(#1758),#1752);
#1760=CARTESIAN_POINT('',(5.679561501411E0,1.5E0,3.E0));
#1761=DIRECTION('',(-1.E0,0.E0,0.E0));
#1762=DIRECTION('',(0.E0,-1.E0,0.E0));
#1763=AXIS2_PLACEMENT_3D('',#1760,#1761,#1762);
#1764=PLANE('',#1763);
#1765=ORIENTED_EDGE('',*,*,#1051,.T.);
#1767=ORIENTED_EDGE('',*,*,#1766,.F.);
#1768=ORIENTED_EDGE('',*,*,#1720,.F.);
#1769=ORIENTED_EDGE('',*,*,#1745,.T.);
#1770=EDGE_LOOP('',(#1765,#1767,#1768,#1769));
#1771=FACE_OUTER_BOUND('',#1770,.F.);
#1773=FILL_AREA_STYLE_COLOUR('',#21);
#1774=FILL_AREA_STYLE('',(#1773));
#1775=SURFACE_STYLE_FILL_AREA(#1774);
#1776=SURFACE_SIDE_STYLE('',(#1775));
#1777=SURFACE_STYLE_USAGE(.BOTH.,#1776);
#1778=PRESENTATION_STYLE_ASSIGNMENT((#1777));
#1779=STYLED_ITEM('',(#1778),#1772);
#1780=CARTESIAN_POINT('',(6.1E0,1.5E0,0.E0));
#1781=DIRECTION('',(0.E0,1.E0,0.E0));
#1782=DIRECTION('',(-1.E0,0.E0,0.E0));
#1783=AXIS2_PLACEMENT_3D('',#1780,#1781,#1782);
#1784=PLANE('',#1783);
#1785=ORIENTED_EDGE('',*,*,#1766,.T.);
#1786=ORIENTED_EDGE('',*,*,#1057,.T.);
#1787=ORIENTED_EDGE('',*,*,#1560,.F.);
#1788=ORIENTED_EDGE('',*,*,#1722,.T.);
#1789=EDGE_LOOP('',(#1785,#1786,#1787,#1788));
#1790=FACE_OUTER_BOUND('',#1789,.F.);
#1792=FILL_AREA_STYLE_COLOUR('',#21);
#1793=FILL_AREA_STYLE('',(#1792));
#1794=SURFACE_STYLE_FILL_AREA(#1793);
#1795=SURFACE_SIDE_STYLE('',(#1794));
#1796=SURFACE_STYLE_USAGE(.BOTH.,#1795);
#1797=PRESENTATION_STYLE_ASSIGNMENT((#1796));
#1798=STYLED_ITEM('',(#1797),#1791);
#1799=CARTESIAN_POINT('',(1.6E0,3.E0,0.E0));
#1800=DIRECTION('',(0.E0,1.E0,0.E0));
#1801=DIRECTION('',(-1.E0,0.E0,0.E0));
#1802=AXIS2_PLACEMENT_3D('',#1799,#1800,#1801);
#1803=PLANE('',#1802);
#1804=ORIENTED_EDGE('',*,*,#1725,.T.);
#1805=ORIENTED_EDGE('',*,*,#1556,.T.);
#1806=ORIENTED_EDGE('',*,*,#1441,.T.);
#1807=ORIENTED_EDGE('',*,*,#1674,.T.);
#1808=ORIENTED_EDGE('',*,*,#1459,.T.);
#1809=ORIENTED_EDGE('',*,*,#1349,.F.);
#1810=EDGE_LOOP('',(#1804,#1805,#1806,#1807,#1808,#1809));
#1811=FACE_OUTER_BOUND('',#1810,.F.);
#1813=FILL_AREA_STYLE_COLOUR('',#21);
#1814=FILL_AREA_STYLE('',(#1813));
#1815=SURFACE_STYLE_FILL_AREA(#1814);
#1816=SURFACE_SIDE_STYLE('',(#1815));
#1817=SURFACE_STYLE_USAGE(.BOTH.,#1816);
#1818=PRESENTATION_STYLE_ASSIGNMENT((#1817));
#1819=STYLED_ITEM('',(#1818),#1812);
#1820=CARTESIAN_POINT('',(-1.6E0,1.5E0,0.E0));
#1821=DIRECTION('',(0.E0,1.E0,0.E0));
#1822=DIRECTION('',(-1.E0,0.E0,0.E0));
#1823=AXIS2_PLACEMENT_3D('',#1820,#1821,#1822);
#1824=PLANE('',#1823);
#1825=ORIENTED_EDGE('',*,*,#1287,.F.);
#1826=ORIENTED_EDGE('',*,*,#1728,.T.);
#1827=ORIENTED_EDGE('',*,*,#1345,.T.);
#1828=ORIENTED_EDGE('',*,*,#1024,.T.);
#1829=EDGE_LOOP('',(#1825,#1826,#1827,#1828));
#1830=FACE_OUTER_BOUND('',#1829,.F.);
#1832=FILL_AREA_STYLE_COLOUR('',#21);
#1833=FILL_AREA_STYLE('',(#1832));
#1834=SURFACE_STYLE_FILL_AREA(#1833);
#1835=SURFACE_SIDE_STYLE('',(#1834));
#1836=SURFACE_STYLE_USAGE(.BOTH.,#1835);
#1837=PRESENTATION_STYLE_ASSIGNMENT((#1836));
#1838=STYLED_ITEM('',(#1837),#1831);
#1839=CARTESIAN_POINT('',(0.E0,7.706369578130E-3,1.58E1));
#1840=DIRECTION('',(0.E0,1.E0,0.E0));
#1841=DIRECTION('',(0.E0,0.E0,-1.E0));
#1842=AXIS2_PLACEMENT_3D('',#1839,#1840,#1841);
#1843=TOROIDAL_SURFACE('',#1842,1.513262813991E0,5.E-1);
#1844=ORIENTED_EDGE('',*,*,#1650,.T.);
#1845=ORIENTED_EDGE('',*,*,#1414,.T.);
#1846=ORIENTED_EDGE('',*,*,#1550,.T.);
#1847=ORIENTED_EDGE('',*,*,#1395,.T.);
#1848=ORIENTED_EDGE('',*,*,#1632,.T.);
#1849=ORIENTED_EDGE('',*,*,#1503,.T.);
#1850=ORIENTED_EDGE('',*,*,#1331,.T.);
#1851=ORIENTED_EDGE('',*,*,#1485,.T.);
#1852=EDGE_LOOP('',(#1844,#1845,#1846,#1847,#1848,#1849,#1850,#1851));
#1853=FACE_OUTER_BOUND('',#1852,.F.);
#1855=FILL_AREA_STYLE_COLOUR('',#21);
#1856=FILL_AREA_STYLE('',(#1855));
#1857=SURFACE_STYLE_FILL_AREA(#1856);
#1858=SURFACE_SIDE_STYLE('',(#1857));
#1859=SURFACE_STYLE_USAGE(.BOTH.,#1858);
#1860=PRESENTATION_STYLE_ASSIGNMENT((#1859));
#1861=STYLED_ITEM('',(#1860),#1854);
#1862=CARTESIAN_POINT('',(0.E0,1.683896101511E0,1.58E1));
#1863=DIRECTION('',(0.E0,1.E0,0.E0));
#1864=DIRECTION('',(0.E0,0.E0,-1.E0));
#1865=AXIS2_PLACEMENT_3D('',#1862,#1863,#1864);
#1866=TOROIDAL_SURFACE('',#1865,1.513262813991E0,5.E-1);
#1867=ORIENTED_EDGE('',*,*,#1671,.T.);
#1868=ORIENTED_EDGE('',*,*,#1437,.T.);
#1869=ORIENTED_EDGE('',*,*,#1553,.T.);
#1870=ORIENTED_EDGE('',*,*,#1418,.T.);
#1871=ORIENTED_EDGE('',*,*,#1653,.T.);
#1872=ORIENTED_EDGE('',*,*,#1481,.T.);
#1873=ORIENTED_EDGE('',*,*,#1327,.T.);
#1874=ORIENTED_EDGE('',*,*,#1463,.T.);
#1875=EDGE_LOOP('',(#1867,#1868,#1869,#1870,#1871,#1872,#1873,#1874));
#1876=FACE_OUTER_BOUND('',#1875,.F.);
#1878=FILL_AREA_STYLE_COLOUR('',#21);
#1879=FILL_AREA_STYLE('',(#1878));
#1880=SURFACE_STYLE_FILL_AREA(#1879);
#1881=SURFACE_SIDE_STYLE('',(#1880));
#1882=SURFACE_STYLE_USAGE(.BOTH.,#1881);
#1883=PRESENTATION_STYLE_ASSIGNMENT((#1882));
#1884=STYLED_ITEM('',(#1883),#1877);
#1885=CLOSED_SHELL('',(#1038,#1067,#1089,#1111,#1130,#1148,#1170,#1190,#1211,
#1230,#1250,#1269,#1291,#1312,#1353,#1376,#1399,#1422,#1445,#1467,#1489,#1511,
#1533,#1571,#1596,#1616,#1636,#1657,#1678,#1700,#1732,#1752,#1772,#1791,#1812,
#1831,#1854,#1877));
#1886=MANIFOLD_SOLID_BREP('',#1885);
#1887=FILL_AREA_STYLE_COLOUR('',#21);
#1888=FILL_AREA_STYLE('',(#1887));
#1889=SURFACE_STYLE_FILL_AREA(#1888);
#1890=SURFACE_SIDE_STYLE('',(#1889));
#1891=SURFACE_STYLE_USAGE(.BOTH.,#1890);
#1892=PRESENTATION_STYLE_ASSIGNMENT((#1891));
#28=STYLED_ITEM('',(#1892),#1886);
#1895=PLANE_ANGLE_MEASURE_WITH_UNIT(PLANE_ANGLE_MEASURE(1.745329251994E-2),
#1894);
#1896=(CONVERSION_BASED_UNIT('DEGREE',#1895)NAMED_UNIT(*)PLANE_ANGLE_UNIT());
#1898=UNCERTAINTY_MEASURE_WITH_UNIT(LENGTH_MEASURE(2.286379675801E-3),#1893,
'distance_accuracy_value',
'Maximum model space distance between geometric entities at asserted connectivities');
#1900=CARTESIAN_POINT('',(0.E0,0.E0,0.E0));
#1901=DIRECTION('',(0.E0,0.E0,1.E0));
#1902=DIRECTION('',(1.E0,0.E0,0.E0));
#1905=MECHANICAL_DESIGN_GEOMETRIC_PRESENTATION_REPRESENTATION('',(#37,#45,#53,
#61,#68,#75,#82,#89,#96,#103,#110,#117,#125,#132,#139,#147,#155,#163,#171,#178,
#185,#193,#200,#208,#215,#222,#230,#237,#244,#251,#275,#299,#323,#330,#338,#345,
#353,#360,#367,#374,#381,#388,#395,#402,#409,#416,#423,#430,#437,#444,#451,#458,
#465,#472,#479,#486,#493,#500,#527,#554,#581,#589,#596,#604,#611,#619,#629,#639,
#647,#657,#667,#674,#682,#690,#698,#705,#712,#719,#726,#733,#740,#747,#755,#762,
#769,#776,#784,#794,#804,#812,#822,#832,#840,#850,#860,#868,#878,#888,#1045,
#1074,#1096,#1118,#1137,#1155,#1177,#1197,#1218,#1237,#1257,#1276,#1298,#1319,
#1360,#1383,#1406,#1429,#1452,#1474,#1496,#1518,#1540,#1578,#1603,#1623,#1643,
#1664,#1685,#1707,#1739,#1759,#1779,#1798,#1819,#1838,#1861,#1884,#28),#1899);
#1906=APPLICATION_CONTEXT('automotive_design');
#1907=APPLICATION_PROTOCOL_DEFINITION('international standard',
'automotive_design',2001,#1906);
#1908=PRODUCT_DEFINITION_CONTEXT('part definition',#1906,'design');
#1909=PRODUCT_CONTEXT('',#1906,'mechanical');
#1910=PRODUCT('BRAKE1','BRAKE1','NOT SPECIFIED',(#1909));
#1911=PRODUCT_DEFINITION_FORMATION('24','LAST_VERSION',#1910);
#1919=DERIVED_UNIT_ELEMENT(#1918,2.E0);
#1920=DERIVED_UNIT((#1919));
#1921=MEASURE_REPRESENTATION_ITEM('surface area measure',AREA_MEASURE(
4.892572164216E2),#1920);
#1926=DERIVED_UNIT_ELEMENT(#1925,3.E0);
#1927=DERIVED_UNIT((#1926));
#1928=MEASURE_REPRESENTATION_ITEM('volume measure',VOLUME_MEASURE(
3.810253291934E2),#1927);
#1932=CARTESIAN_POINT('centre point',(-1.476364658848E-3,9.368024913296E-6,
6.236559187262E0));
#1937=DERIVED_UNIT_ELEMENT(#1936,2.E0);
#1938=DERIVED_UNIT((#1937));
#1939=MEASURE_REPRESENTATION_ITEM('surface area measure',AREA_MEASURE(
4.892572164216E2),#1938);
#1944=DERIVED_UNIT_ELEMENT(#1943,3.E0);
#1945=DERIVED_UNIT((#1944));
#1946=MEASURE_REPRESENTATION_ITEM('volume measure',VOLUME_MEASURE(
3.810253291934E2),#1945);
#1950=CARTESIAN_POINT('centre point',(-1.476364658848E-3,9.368024913296E-6,
6.236559187262E0));
#1=DRAUGHTING_PRE_DEFINED_COLOUR('green');
#2=DRAUGHTING_PRE_DEFINED_COLOUR('green');
#3=DRAUGHTING_PRE_DEFINED_COLOUR('green');
#4=COLOUR_RGB('',1.1E-2,1.2E-2,1.E0);
#5=COLOUR_RGB('',1.1E-2,1.2E-2,1.E0);
#6=COLOUR_RGB('',4.1E-1,2.61589E-1,1.12848E-1);
#7=COLOUR_RGB('',5.04854E-1,1.5455E-2,1.5455E-2);
#8=COLOUR_RGB('',6.35294E-1,6.86275E-1,7.4902E-1);
#9=COLOUR_RGB('',6.40777E-1,6.40777E-1,6.40777E-1);
#10=COLOUR_RGB('',6.66667E-1,6.66667E-1,6.66667E-1);
#11=COLOUR_RGB('',6.69062E-1,6.69903E-1,6.55217E-1);
#12=COLOUR_RGB('',7.45098E-1,3.92157E-1,2.94118E-1);
#13=COLOUR_RGB('',8.03922E-1,5.88235E-1,1.96078E-1);
#14=COLOUR_RGB('',9.21569E-1,7.05882E-1,4.70588E-1);
#15=DRAUGHTING_PRE_DEFINED_COLOUR('red');
#16=DRAUGHTING_PRE_DEFINED_COLOUR('red');
#17=DRAUGHTING_PRE_DEFINED_COLOUR('red');
#18=DRAUGHTING_PRE_DEFINED_COLOUR('red');
#19=DRAUGHTING_PRE_DEFINED_COLOUR('red');
#20=DRAUGHTING_PRE_DEFINED_COLOUR('red');
#21=DRAUGHTING_PRE_DEFINED_COLOUR('red');
#22=DRAUGHTING_PRE_DEFINED_COLOUR('yellow');
#23=DRAUGHTING_PRE_DEFINED_COLOUR('yellow');
#24=COLOUR_RGB('',1.E0,1.E0,5.3E-1);
#25=COLOUR_RGB('',1.E0,1.E0,9.49E-1);
#26=COLOUR_RGB('',1.E0,1.E0,9.49E-1);
#27=DRAUGHTING_PRE_DEFINED_COLOUR('white');
#33=CIRCLE('',#32,1.E0);
#42=CIRCLE('',#41,1.E0);
#50=CIRCLE('',#49,1.E0);
#58=CIRCLE('',#57,1.E0);
#122=CIRCLE('',#121,1.E0);
#144=CIRCLE('',#143,6.E-1);
#152=CIRCLE('',#151,6.E-1);
#160=CIRCLE('',#159,6.E-1);
#168=CIRCLE('',#167,6.E-1);
#190=CIRCLE('',#189,1.E0);
#205=CIRCLE('',#204,1.E0);
#227=CIRCLE('',#226,1.E0);
#272=B_SPLINE_CURVE_WITH_KNOTS('',3,(#252,#253,#254,#255,#256,#257,#258,#259,
#260,#261,#262,#263,#264,#265,#266,#267,#268,#269,#270,#271),.UNSPECIFIED.,.F.,
.F.,(4,1,1,1,1,1,1,1,1,1,1,1,1,1,1,1,1,4),(0.E0,5.882352941176E-2,
1.176470588235E-1,1.764705882353E-1,2.352941176471E-1,2.941176470588E-1,
3.529411764706E-1,4.117647058824E-1,4.705882352941E-1,5.294117647059E-1,
5.882352941176E-1,6.470588235294E-1,7.058823529412E-1,7.647058823529E-1,
8.235294117647E-1,8.823529411765E-1,9.411764705882E-1,1.E0),.UNSPECIFIED.);
#296=B_SPLINE_CURVE_WITH_KNOTS('',3,(#276,#277,#278,#279,#280,#281,#282,#283,
#284,#285,#286,#287,#288,#289,#290,#291,#292,#293,#294,#295),.UNSPECIFIED.,.F.,
.F.,(4,1,1,1,1,1,1,1,1,1,1,1,1,1,1,1,1,4),(0.E0,5.882352941176E-2,
1.176470588235E-1,1.764705882353E-1,2.352941176471E-1,2.941176470588E-1,
3.529411764706E-1,4.117647058824E-1,4.705882352941E-1,5.294117647059E-1,
5.882352941176E-1,6.470588235294E-1,7.058823529412E-1,7.647058823529E-1,
8.235294117647E-1,8.823529411765E-1,9.411764705882E-1,1.E0),.UNSPECIFIED.);
#320=B_SPLINE_CURVE_WITH_KNOTS('',3,(#300,#301,#302,#303,#304,#305,#306,#307,
#308,#309,#310,#311,#312,#313,#314,#315,#316,#317,#318,#319),.UNSPECIFIED.,.F.,
.F.,(4,1,1,1,1,1,1,1,1,1,1,1,1,1,1,1,1,4),(0.E0,5.882352941176E-2,
1.176470588235E-1,1.764705882353E-1,2.352941176471E-1,2.941176470588E-1,
3.529411764706E-1,4.117647058824E-1,4.705882352941E-1,5.294117647059E-1,
5.882352941176E-1,6.470588235294E-1,7.058823529412E-1,7.647058823529E-1,
8.235294117647E-1,8.823529411765E-1,9.411764705882E-1,1.E0),.UNSPECIFIED.);
#335=CIRCLE('',#334,3.509725509944E0);
#350=CIRCLE('',#349,3.509725509944E0);
#524=B_SPLINE_CURVE_WITH_KNOTS('',3,(#501,#502,#503,#504,#505,#506,#507,#508,
#509,#510,#511,#512,#513,#514,#515,#516,#517,#518,#519,#520,#521,#522,#523),
.UNSPECIFIED.,.F.,.F.,(4,1,1,1,1,1,1,1,1,1,1,1,1,1,1,1,1,1,1,1,4),(0.E0,5.E-2,
1.E-1,1.5E-1,2.E-1,2.5E-1,3.E-1,3.5E-1,4.E-1,4.5E-1,5.E-1,5.5E-1,6.E-1,6.5E-1,
7.E-1,7.5E-1,8.E-1,8.5E-1,9.E-1,9.5E-1,1.E0),.UNSPECIFIED.);
#551=B_SPLINE_CURVE_WITH_KNOTS('',3,(#528,#529,#530,#531,#532,#533,#534,#535,
#536,#537,#538,#539,#540,#541,#542,#543,#544,#545,#546,#547,#548,#549,#550),
.UNSPECIFIED.,.F.,.F.,(4,1,1,1,1,1,1,1,1,1,1,1,1,1,1,1,1,1,1,1,4),(0.E0,5.E-2,
1.E-1,1.5E-1,2.E-1,2.5E-1,3.E-1,3.5E-1,4.E-1,4.5E-1,5.E-1,5.5E-1,6.E-1,6.5E-1,
7.E-1,7.5E-1,8.E-1,8.5E-1,9.E-1,9.5E-1,1.E0),.UNSPECIFIED.);
#578=B_SPLINE_CURVE_WITH_KNOTS('',3,(#555,#556,#557,#558,#559,#560,#561,#562,
#563,#564,#565,#566,#567,#568,#569,#570,#571,#572,#573,#574,#575,#576,#577),
.UNSPECIFIED.,.F.,.F.,(4,1,1,1,1,1,1,1,1,1,1,1,1,1,1,1,1,1,1,1,4),(0.E0,5.E-2,
1.E-1,1.5E-1,2.E-1,2.5E-1,3.E-1,3.5E-1,4.E-1,4.5E-1,5.E-1,5.5E-1,6.E-1,6.5E-1,
7.E-1,7.5E-1,8.E-1,8.5E-1,9.E-1,9.5E-1,1.E0),.UNSPECIFIED.);
#586=CIRCLE('',#585,3.509725509944E0);
#601=CIRCLE('',#600,3.509725509944E0);
#616=CIRCLE('',#615,1.5E0);
#626=B_SPLINE_CURVE_WITH_KNOTS('',3,(#620,#621,#622,#623,#624,#625),
.UNSPECIFIED.,.F.,.F.,(4,1,1,4),(0.E0,3.333333333333E-1,6.666666666667E-1,1.E0),
.UNSPECIFIED.);
#636=B_SPLINE_CURVE_WITH_KNOTS('',3,(#630,#631,#632,#633,#634,#635),
.UNSPECIFIED.,.F.,.F.,(4,1,1,4),(0.E0,3.333333333333E-1,6.666666666667E-1,1.E0),
.UNSPECIFIED.);
#644=CIRCLE('',#643,1.5E0);
#654=B_SPLINE_CURVE_WITH_KNOTS('',3,(#648,#649,#650,#651,#652,#653),
.UNSPECIFIED.,.F.,.F.,(4,1,1,4),(0.E0,3.333333333333E-1,6.666666666667E-1,1.E0),
.UNSPECIFIED.);
#664=B_SPLINE_CURVE_WITH_KNOTS('',3,(#658,#659,#660,#661,#662,#663),
.UNSPECIFIED.,.F.,.F.,(4,1,1,4),(0.E0,3.333333333333E-1,6.666666666667E-1,1.E0),
.UNSPECIFIED.);
#679=CIRCLE('',#678,1.5E0);
#687=CIRCLE('',#686,3.509725509944E0);
#695=CIRCLE('',#694,3.509725509944E0);
#752=CIRCLE('',#751,1.5E0);
#781=CIRCLE('',#780,1.5E0);
#791=B_SPLINE_CURVE_WITH_KNOTS('',3,(#785,#786,#787,#788,#789,#790),
.UNSPECIFIED.,.F.,.F.,(4,1,1,4),(0.E0,3.333333333333E-1,6.666666666667E-1,1.E0),
.UNSPECIFIED.);
#801=B_SPLINE_CURVE_WITH_KNOTS('',3,(#795,#796,#797,#798,#799,#800),
.UNSPECIFIED.,.F.,.F.,(4,1,1,4),(0.E0,3.333333333333E-1,6.666666666667E-1,1.E0),
.UNSPECIFIED.);
#809=CIRCLE('',#808,1.5E0);
#819=B_SPLINE_CURVE_WITH_KNOTS('',3,(#813,#814,#815,#816,#817,#818),
.UNSPECIFIED.,.F.,.F.,(4,1,1,4),(0.E0,3.333333333333E-1,6.666666666667E-1,1.E0),
.UNSPECIFIED.);
#829=B_SPLINE_CURVE_WITH_KNOTS('',3,(#823,#824,#825,#826,#827,#828),
.UNSPECIFIED.,.F.,.F.,(4,1,1,4),(0.E0,3.333333333333E-1,6.666666666667E-1,1.E0),
.UNSPECIFIED.);
#837=CIRCLE('',#836,1.5E0);
#847=B_SPLINE_CURVE_WITH_KNOTS('',3,(#841,#842,#843,#844,#845,#846),
.UNSPECIFIED.,.F.,.F.,(4,1,1,4),(0.E0,3.333333333333E-1,6.666666666667E-1,1.E0),
.UNSPECIFIED.);
#857=B_SPLINE_CURVE_WITH_KNOTS('',3,(#851,#852,#853,#854,#855,#856),
.UNSPECIFIED.,.F.,.F.,(4,1,1,4),(0.E0,3.333333333333E-1,6.666666666667E-1,1.E0),
.UNSPECIFIED.);
#865=CIRCLE('',#864,1.5E0);
#875=B_SPLINE_CURVE_WITH_KNOTS('',3,(#869,#870,#871,#872,#873,#874),
.UNSPECIFIED.,.F.,.F.,(4,1,1,4),(0.E0,3.333333333333E-1,6.666666666667E-1,1.E0),
.UNSPECIFIED.);
#885=B_SPLINE_CURVE_WITH_KNOTS('',3,(#879,#880,#881,#882,#883,#884),
.UNSPECIFIED.,.F.,.F.,(4,1,1,4),(0.E0,3.333333333333E-1,6.666666666667E-1,1.E0),
.UNSPECIFIED.);
#1022=EDGE_CURVE('',#1003,#1004,#65,.T.);
#1024=EDGE_CURVE('',#904,#1004,#72,.T.);
#1026=EDGE_CURVE('',#903,#904,#79,.T.);
#1028=EDGE_CURVE('',#1003,#903,#86,.T.);
#1032=EDGE_CURVE('',#891,#892,#33,.T.);
#1034=EDGE_CURVE('',#892,#891,#42,.T.);
#1038=ADVANCED_FACE('',(#1031,#1037),#1021,.T.);
#1051=EDGE_CURVE('',#1007,#1008,#93,.T.);
#1053=EDGE_CURVE('',#899,#1007,#100,.T.);
#1055=EDGE_CURVE('',#899,#900,#107,.T.);
#1057=EDGE_CURVE('',#1008,#900,#114,.T.);
#1061=EDGE_CURVE('',#895,#896,#50,.T.);
#1063=EDGE_CURVE('',#896,#895,#58,.T.);
#1067=ADVANCED_FACE('',(#1060,#1066),#1050,.T.);
#1080=EDGE_CURVE('',#952,#951,#122,.T.);
#1082=EDGE_CURVE('',#892,#951,#234,.T.);
#1085=EDGE_CURVE('',#891,#952,#129,.T.);
#1089=ADVANCED_FACE('',(#1088),#1079,.T.);
#1102=EDGE_CURVE('',#948,#947,#168,.T.);
#1104=EDGE_CURVE('',#947,#951,#219,.T.);
#1107=EDGE_CURVE('',#948,#952,#136,.T.);
#1111=ADVANCED_FACE('',(#1110),#1101,.T.);
#1124=EDGE_CURVE('',#939,#940,#144,.T.);
#1126=EDGE_CURVE('',#940,#939,#152,.T.);
#1130=ADVANCED_FACE('',(#1129),#1123,.T.);
#1143=EDGE_CURVE('',#947,#948,#160,.T.);
#1148=ADVANCED_FACE('',(#1147),#1142,.T.);
#1162=EDGE_CURVE('',#940,#944,#182,.T.);
#1164=EDGE_CURVE('',#943,#944,#205,.T.);
#1166=EDGE_CURVE('',#939,#943,#175,.T.);
#1170=ADVANCED_FACE('',(#1169),#1160,.T.);
#1185=EDGE_CURVE('',#944,#943,#190,.T.);
#1190=ADVANCED_FACE('',(#1189),#1182,.T.);
#1204=EDGE_CURVE('',#895,#943,#212,.T.);
#1207=EDGE_CURVE('',#896,#944,#197,.T.);
#1211=ADVANCED_FACE('',(#1210),#1202,.T.);
#1230=ADVANCED_FACE('',(#1229),#1223,.T.);
#1245=EDGE_CURVE('',#951,#952,#227,.T.);
#1250=ADVANCED_FACE('',(#1249),#1242,.T.);
#1269=ADVANCED_FACE('',(#1268),#1262,.T.);
#1283=EDGE_CURVE('',#1010,#1003,#241,.T.);
#1285=EDGE_CURVE('',#1010,#1016,#687,.T.);
#1287=EDGE_CURVE('',#1016,#1004,#759,.T.);
#1291=ADVANCED_FACE('',(#1290),#1281,.F.);
#1306=EDGE_CURVE('',#924,#903,#342,.T.);
#1308=EDGE_CURVE('',#1010,#924,#248,.T.);
#1312=ADVANCED_FACE('',(#1311),#1303,.T.);
#1325=EDGE_CURVE('',#920,#966,#434,.T.);
#1327=EDGE_CURVE('',#969,#966,#272,.T.);
#1329=EDGE_CURVE('',#969,#970,#455,.T.);
#1331=EDGE_CURVE('',#973,#970,#296,.T.);
#1333=EDGE_CURVE('',#973,#974,#469,.T.);
#1335=EDGE_CURVE('',#976,#974,#320,.T.);
#1337=EDGE_CURVE('',#976,#914,#483,.T.);
#1339=EDGE_CURVE('',#914,#923,#327,.T.);
#1341=EDGE_CURVE('',#923,#924,#335,.T.);
#1345=EDGE_CURVE('',#927,#904,#773,.T.);
#1347=EDGE_CURVE('',#927,#928,#350,.T.);
#1349=EDGE_CURVE('',#928,#920,#357,.T.);
#1353=ADVANCED_FACE('',(#1352),#1324,.T.);
#1366=EDGE_CURVE('',#916,#954,#364,.T.);
#1368=EDGE_CURVE('',#907,#916,#371,.T.);
#1370=EDGE_CURVE('',#907,#978,#378,.T.);
#1372=EDGE_CURVE('',#954,#978,#636,.T.);
#1376=ADVANCED_FACE('',(#1375),#1365,.T.);
#1389=EDGE_CURVE('',#957,#958,#385,.T.);
#1391=EDGE_CURVE('',#981,#957,#626,.T.);
#1393=EDGE_CURVE('',#981,#982,#392,.T.);
#1395=EDGE_CURVE('',#958,#982,#801,.T.);
#1399=ADVANCED_FACE('',(#1398),#1388,.T.);
#1412=EDGE_CURVE('',#961,#962,#399,.T.);
#1414=EDGE_CURVE('',#985,#961,#791,.T.);
#1416=EDGE_CURVE('',#985,#986,#406,.T.);
#1418=EDGE_CURVE('',#962,#986,#857,.T.);
#1422=ADVANCED_FACE('',(#1421),#1411,.T.);
#1435=EDGE_CURVE('',#964,#918,#413,.T.);
#1437=EDGE_CURVE('',#988,#964,#847,.T.);
#1439=EDGE_CURVE('',#988,#911,#420,.T.);
#1441=EDGE_CURVE('',#918,#911,#427,.T.);
#1445=ADVANCED_FACE('',(#1444),#1434,.T.);
#1459=EDGE_CURVE('',#912,#920,#441,.T.);
#1461=EDGE_CURVE('',#1000,#912,#448,.T.);
#1463=EDGE_CURVE('',#966,#1000,#885,.T.);
#1467=ADVANCED_FACE('',(#1466),#1457,.T.);
#1481=EDGE_CURVE('',#998,#969,#875,.T.);
#1483=EDGE_CURVE('',#997,#998,#462,.T.);
#1485=EDGE_CURVE('',#970,#997,#829,.T.);
#1489=ADVANCED_FACE('',(#1488),#1479,.T.);
#1503=EDGE_CURVE('',#994,#973,#819,.T.);
#1505=EDGE_CURVE('',#993,#994,#476,.T.);
#1507=EDGE_CURVE('',#974,#993,#664,.T.);
#1511=ADVANCED_FACE('',(#1510),#1501,.T.);
#1525=EDGE_CURVE('',#990,#976,#654,.T.);
#1527=EDGE_CURVE('',#908,#990,#490,.T.);
#1529=EDGE_CURVE('',#914,#908,#497,.T.);
#1533=ADVANCED_FACE('',(#1532),#1523,.T.);
#1547=EDGE_CURVE('',#957,#954,#524,.T.);
#1550=EDGE_CURVE('',#961,#958,#551,.T.);
#1553=EDGE_CURVE('',#964,#962,#578,.T.);
#1556=EDGE_CURVE('',#936,#918,#744,.T.);
#1558=EDGE_CURVE('',#935,#936,#586,.T.);
#1560=EDGE_CURVE('',#935,#900,#593,.T.);
#1563=EDGE_CURVE('',#932,#899,#716,.T.);
#1565=EDGE_CURVE('',#930,#932,#601,.T.);
#1567=EDGE_CURVE('',#930,#916,#608,.T.);
#1571=ADVANCED_FACE('',(#1570),#1545,.T.);
#1584=EDGE_CURVE('',#993,#981,#616,.T.);
#1589=EDGE_CURVE('',#978,#990,#644,.T.);
#1596=ADVANCED_FACE('',(#1595),#1583,.F.);
#1610=EDGE_CURVE('',#907,#908,#679,.T.);
#1616=ADVANCED_FACE('',(#1615),#1608,.F.);
#1632=EDGE_CURVE('',#982,#994,#809,.T.);
#1636=ADVANCED_FACE('',(#1635),#1628,.F.);
#1650=EDGE_CURVE('',#997,#985,#781,.T.);
#1653=EDGE_CURVE('',#986,#998,#865,.T.);
#1657=ADVANCED_FACE('',(#1656),#1648,.F.);
#1671=EDGE_CURVE('',#1000,#988,#837,.T.);
#1674=EDGE_CURVE('',#911,#912,#752,.T.);
#1678=ADVANCED_FACE('',(#1677),#1669,.F.);
#1691=EDGE_CURVE('',#923,#930,#671,.T.);
#1700=ADVANCED_FACE('',(#1699),#1690,.T.);
#1718=EDGE_CURVE('',#932,#1012,#709,.T.);
#1720=EDGE_CURVE('',#1012,#1014,#695,.T.);
#1722=EDGE_CURVE('',#935,#1014,#730,.T.);
#1725=EDGE_CURVE('',#928,#936,#737,.T.);
#1728=EDGE_CURVE('',#1016,#927,#766,.T.);
#1732=ADVANCED_FACE('',(#1731),#1712,.T.);
#1745=EDGE_CURVE('',#1012,#1007,#702,.T.);
#1752=ADVANCED_FACE('',(#1751),#1744,.T.);
#1766=EDGE_CURVE('',#1014,#1008,#723,.T.);
#1772=ADVANCED_FACE('',(#1771),#1764,.F.);
#1791=ADVANCED_FACE('',(#1790),#1784,.T.);
#1812=ADVANCED_FACE('',(#1811),#1803,.T.);
#1831=ADVANCED_FACE('',(#1830),#1824,.T.);
#1854=ADVANCED_FACE('',(#1853),#1843,.F.);
#1877=ADVANCED_FACE('',(#1876),#1866,.F.);
#1893=(LENGTH_UNIT()NAMED_UNIT(*)SI_UNIT(.MILLI.,.METRE.));
#1894=(NAMED_UNIT(*)PLANE_ANGLE_UNIT()SI_UNIT($,.RADIAN.));
#1897=(NAMED_UNIT(*)SI_UNIT($,.STERADIAN.)SOLID_ANGLE_UNIT());
#1899=(GEOMETRIC_REPRESENTATION_CONTEXT(3)GLOBAL_UNCERTAINTY_ASSIGNED_CONTEXT((
#1898))GLOBAL_UNIT_ASSIGNED_CONTEXT((#1893,#1896,#1897))REPRESENTATION_CONTEXT(
'ID1','external'));
#1903=AXIS2_PLACEMENT_3D('',#1900,#1901,#1902);
#1904=ADVANCED_BREP_SHAPE_REPRESENTATION('',(#1903,#1886),#1899);
#1912=PRODUCT_DEFINITION('part definition','',#1911,#1908);
#1913=PRODUCT_DEFINITION_SHAPE('','SHAPE FOR BRAKE1.',#1912);
#1914=SHAPE_ASPECT('','solid data associated with BRAKE1',#1913,.F.);
#1915=PROPERTY_DEFINITION('',
'shape for solid data with which properties are associated',#1914);
#1916=SHAPE_REPRESENTATION('',(#1886),#1899);
#1917=SHAPE_DEFINITION_REPRESENTATION(#1915,#1916);
#1918=(LENGTH_UNIT()NAMED_UNIT(*)SI_UNIT(.MILLI.,.METRE.));
#1922=PROPERTY_DEFINITION('geometric validation property','area of BRAKE1',
#1914);
#1923=REPRESENTATION('surface area',(#1921),#1899);
#1924=PROPERTY_DEFINITION_REPRESENTATION(#1922,#1923);
#1925=(LENGTH_UNIT()NAMED_UNIT(*)SI_UNIT(.MILLI.,.METRE.));
#1929=PROPERTY_DEFINITION('geometric validation property','volume of BRAKE1',
#1914);
#1930=REPRESENTATION('volume',(#1928),#1899);
#1931=PROPERTY_DEFINITION_REPRESENTATION(#1929,#1930);
#1933=PROPERTY_DEFINITION('geometric validation property','centroid of BRAKE1',
#1914);
#1934=REPRESENTATION('centroid',(#1932),#1899);
#1935=PROPERTY_DEFINITION_REPRESENTATION(#1933,#1934);
#1936=(LENGTH_UNIT()NAMED_UNIT(*)SI_UNIT(.MILLI.,.METRE.));
#1940=PROPERTY_DEFINITION('geometric validation property','area of BRAKE1',
#1913);
#1941=REPRESENTATION('surface area',(#1939),#1899);
#1942=PROPERTY_DEFINITION_REPRESENTATION(#1940,#1941);
#1943=(LENGTH_UNIT()NAMED_UNIT(*)SI_UNIT(.MILLI.,.METRE.));
#1947=PROPERTY_DEFINITION('geometric validation property','volume of BRAKE1',
#1913);
#1948=REPRESENTATION('volume',(#1946),#1899);
#1949=PROPERTY_DEFINITION_REPRESENTATION(#1947,#1948);
#1951=PROPERTY_DEFINITION('geometric validation property','centroid of BRAKE1',
#1913);
#1952=REPRESENTATION('centroid',(#1950),#1899);
#1953=PROPERTY_DEFINITION_REPRESENTATION(#1951,#1952);
#1954=SHAPE_DEFINITION_REPRESENTATION(#1913,#1904);
#1955=PRODUCT_RELATED_PRODUCT_CATEGORY('part','',(#1910));
ENDSEC;
END-ISO-10303-21;
