ISO-10303-21;
HEADER;
FILE_DESCRIPTION((''),'2;1');
FILE_NAME('BRAKE2-1','2026-08-11T15:36:33',('gram2'),(''),
'CREO PARAMETRIC BY PTC INC, 2016510','CREO PARAMETRIC BY PTC INC, 2016510','');
FILE_SCHEMA(('CONFIG_CONTROL_DESIGN'));
ENDSEC;
DATA;
#1=CARTESIAN_POINT('',(-4.1E0,0.E0,3.E0));
#2=DIRECTION('',(0.E0,0.E0,1.E0));
#3=DIRECTION('',(1.E0,0.E0,0.E0));
#4=AXIS2_PLACEMENT_3D('',#1,#2,#3);
#6=CARTESIAN_POINT('',(-4.1E0,0.E0,3.E0));
#7=DIRECTION('',(0.E0,0.E0,1.E0));
#8=DIRECTION('',(-1.E0,0.E0,0.E0));
#9=AXIS2_PLACEMENT_3D('',#6,#7,#8);
#11=CARTESIAN_POINT('',(4.1E0,0.E0,3.E0));
#12=DIRECTION('',(0.E0,0.E0,1.E0));
#13=DIRECTION('',(1.E0,0.E0,0.E0));
#14=AXIS2_PLACEMENT_3D('',#11,#12,#13);
#16=CARTESIAN_POINT('',(4.1E0,0.E0,3.E0));
#17=DIRECTION('',(0.E0,0.E0,1.E0));
#18=DIRECTION('',(-1.E0,0.E0,0.E0));
#19=AXIS2_PLACEMENT_3D('',#16,#17,#18);
#21=DIRECTION('',(0.E0,1.E0,0.E0));
#22=VECTOR('',#21,3.E0);
#23=CARTESIAN_POINT('',(2.E0,-1.5E0,3.E0));
#24=LINE('',#23,#22);
#25=DIRECTION('',(-1.E0,0.E0,0.E0));
#26=VECTOR('',#25,3.87E0);
#27=CARTESIAN_POINT('',(5.87E0,1.5E0,3.E0));
#28=LINE('',#27,#26);
#29=DIRECTION('',(0.E0,1.E0,0.E0));
#30=VECTOR('',#29,3.E0);
#31=CARTESIAN_POINT('',(5.87E0,-1.5E0,3.E0));
#32=LINE('',#31,#30);
#33=DIRECTION('',(1.E0,0.E0,0.E0));
#34=VECTOR('',#33,3.87E0);
#35=CARTESIAN_POINT('',(2.E0,-1.5E0,3.E0));
#36=LINE('',#35,#34);
#37=DIRECTION('',(0.E0,1.E0,0.E0));
#38=VECTOR('',#37,3.E0);
#39=CARTESIAN_POINT('',(-2.E0,-1.5E0,3.E0));
#40=LINE('',#39,#38);
#41=DIRECTION('',(1.E0,0.E0,0.E0));
#42=VECTOR('',#41,3.87E0);
#43=CARTESIAN_POINT('',(-5.87E0,-1.5E0,3.E0));
#44=LINE('',#43,#42);
#45=DIRECTION('',(0.E0,-1.E0,0.E0));
#46=VECTOR('',#45,3.E0);
#47=CARTESIAN_POINT('',(-5.87E0,1.5E0,3.E0));
#48=LINE('',#47,#46);
#49=DIRECTION('',(-1.E0,0.E0,0.E0));
#50=VECTOR('',#49,3.87E0);
#51=CARTESIAN_POINT('',(-2.E0,1.5E0,3.E0));
#52=LINE('',#51,#50);
#53=CARTESIAN_POINT('',(-4.1E0,0.E0,9.6E0));
#54=DIRECTION('',(0.E0,0.E0,1.E0));
#55=DIRECTION('',(1.E0,0.E0,0.E0));
#56=AXIS2_PLACEMENT_3D('',#53,#54,#55);
#58=DIRECTION('',(-5.014689000497E-11,-1.419192405482E-10,1.E0));
#59=VECTOR('',#58,6.600000000331E0);
#60=CARTESIAN_POINT('',(-3.1E0,0.E0,3.E0));
#61=LINE('',#60,#59);
#62=DIRECTION('',(7.071067811865E-1,-3.311620178480E-10,-7.071067811865E-1));
#63=VECTOR('',#62,5.656854248556E-1);
#64=CARTESIAN_POINT('',(-3.500000000265E0,-7.493336241889E-10,
1.000000000026E1));
#65=LINE('',#64,#63);
#66=CARTESIAN_POINT('',(-4.1E0,0.E0,1.E1));
#67=DIRECTION('',(0.E0,0.E0,1.E0));
#68=DIRECTION('',(-1.E0,0.E0,0.E0));
#69=AXIS2_PLACEMENT_3D('',#66,#67,#68);
#71=CARTESIAN_POINT('',(-4.1E0,0.E0,1.E1));
#72=DIRECTION('',(0.E0,0.E0,1.E0));
#73=DIRECTION('',(1.E0,0.E0,0.E0));
#74=AXIS2_PLACEMENT_3D('',#71,#72,#73);
#76=CARTESIAN_POINT('',(4.1E0,0.E0,1.E1));
#77=DIRECTION('',(0.E0,0.E0,1.E0));
#78=DIRECTION('',(-1.E0,0.E0,0.E0));
#79=AXIS2_PLACEMENT_3D('',#76,#77,#78);
#81=CARTESIAN_POINT('',(4.1E0,0.E0,1.E1));
#82=DIRECTION('',(0.E0,0.E0,1.E0));
#83=DIRECTION('',(1.E0,0.E0,0.E0));
#84=AXIS2_PLACEMENT_3D('',#81,#82,#83);
#86=DIRECTION('',(-7.071067811866E-1,3.311618687799E-10,-7.071067811865E-1));
#87=VECTOR('',#86,5.656854248556E-1);
#88=CARTESIAN_POINT('',(-4.699999999735E0,7.493337662479E-10,1.000000000026E1));
#89=LINE('',#88,#87);
#90=CARTESIAN_POINT('',(-4.1E0,0.E0,9.6E0));
#91=DIRECTION('',(0.E0,0.E0,1.E0));
#92=DIRECTION('',(-1.E0,0.E0,0.E0));
#93=AXIS2_PLACEMENT_3D('',#90,#91,#92);
#95=DIRECTION('',(5.014695729122E-11,1.419192554808E-10,1.E0));
#96=VECTOR('',#95,6.600000000331E0);
#97=CARTESIAN_POINT('',(-5.1E0,0.E0,3.E0));
#98=LINE('',#97,#96);
#99=DIRECTION('',(-7.071067811865E-1,3.311620650414E-10,-7.071067811865E-1));
#100=VECTOR('',#99,5.656854248556E-1);
#101=CARTESIAN_POINT('',(3.500000000265E0,7.493332641427E-10,1.000000000026E1));
#102=LINE('',#101,#100);
#103=DIRECTION('',(7.071067811865E-1,-3.311620178480E-10,-7.071067811865E-1));
#104=VECTOR('',#103,5.656854248556E-1);
#105=CARTESIAN_POINT('',(4.699999999735E0,-7.493341262940E-10,
1.000000000026E1));
#106=LINE('',#105,#104);
#107=CARTESIAN_POINT('',(4.1E0,0.E0,9.6E0));
#108=DIRECTION('',(0.E0,0.E0,1.E0));
#109=DIRECTION('',(1.E0,0.E0,0.E0));
#110=AXIS2_PLACEMENT_3D('',#107,#108,#109);
#112=DIRECTION('',(-5.014682271873E-11,-1.419192405482E-10,1.E0));
#113=VECTOR('',#112,6.600000000331E0);
#114=CARTESIAN_POINT('',(5.1E0,0.E0,3.E0));
#115=LINE('',#114,#113);
#116=CARTESIAN_POINT('',(4.1E0,0.E0,9.6E0));
#117=DIRECTION('',(0.E0,0.E0,1.E0));
#118=DIRECTION('',(-1.E0,0.E0,0.E0));
#119=AXIS2_PLACEMENT_3D('',#116,#117,#118);
#121=DIRECTION('',(5.014689000497E-11,1.419192723023E-10,1.E0));
#122=VECTOR('',#121,6.600000000331E0);
#123=CARTESIAN_POINT('',(3.1E0,0.E0,3.E0));
#124=LINE('',#123,#122);
#125=DIRECTION('',(0.E0,1.E0,0.E0));
#126=VECTOR('',#125,2.691403098830E-1);
#127=CARTESIAN_POINT('',(2.E0,-3.E0,1.458E1));
#128=LINE('',#127,#126);
#129=CARTESIAN_POINT('',(2.E0,-2.730859690117E0,1.458E1));
#130=CARTESIAN_POINT('',(2.E0,-2.694144206434E0,1.449840466932E1));
#131=CARTESIAN_POINT('',(2.E0,-2.612067824066E0,1.432966677622E1));
#132=CARTESIAN_POINT('',(2.E0,-2.463339077692E0,1.406113368571E1));
#133=CARTESIAN_POINT('',(2.E0,-2.287259576903E0,1.377387453116E1));
#134=CARTESIAN_POINT('',(2.E0,-2.151472919150E0,1.356941342513E1));
#135=CARTESIAN_POINT('',(2.E0,-2.079068156601E0,1.346393202250E1));
#137=CARTESIAN_POINT('',(2.E0,-1.704231716031E0,1.458E1));
#138=CARTESIAN_POINT('',(2.E0,-1.725495598190E0,1.449782768555E1));
#139=CARTESIAN_POINT('',(2.E0,-1.772873006581E0,1.432864399707E1));
#140=CARTESIAN_POINT('',(2.E0,-1.857503398550E0,1.406294966292E1));
#141=CARTESIAN_POINT('',(2.E0,-1.958041880070E0,1.377738343904E1));
#142=CARTESIAN_POINT('',(2.E0,-2.036827946159E0,1.357093644943E1));
#143=CARTESIAN_POINT('',(2.E0,-2.079068156601E0,1.346393202250E1));
#145=DIRECTION('',(0.E0,1.E0,0.E0));
#146=VECTOR('',#145,3.067543588647E-1);
#147=CARTESIAN_POINT('',(2.E0,-1.704231716031E0,1.458E1));
#148=LINE('',#147,#146);
#149=CARTESIAN_POINT('',(2.E0,-1.397477357166E0,1.458E1));
#150=CARTESIAN_POINT('',(2.E0,-1.376592788072E0,1.449780470835E1));
#151=CARTESIAN_POINT('',(2.E0,-1.330065065682E0,1.432859644675E1));
#152=CARTESIAN_POINT('',(2.E0,-1.246985994026E0,1.406296482615E1));
#153=CARTESIAN_POINT('',(2.E0,-1.148288959390E0,1.377745131408E1));
#154=CARTESIAN_POINT('',(2.E0,-1.070917324483E0,1.357096716401E1));
#155=CARTESIAN_POINT('',(2.E0,-1.029430303011E0,1.346393202250E1));
#157=CARTESIAN_POINT('',(2.E0,-6.969993911181E-1,1.458E1));
#158=CARTESIAN_POINT('',(2.E0,-7.158893632036E-1,1.449768960554E1));
#159=CARTESIAN_POINT('',(2.E0,-7.579529577557E-1,1.432835782871E1));
#160=CARTESIAN_POINT('',(2.E0,-8.329085666674E-1,1.406304222030E1));
#161=CARTESIAN_POINT('',(2.E0,-9.219615915649E-1,1.377779483026E1));
#162=CARTESIAN_POINT('',(2.E0,-9.919035016543E-1,1.357112285031E1));
#163=CARTESIAN_POINT('',(2.E0,-1.029430303011E0,1.346393202250E1));
#165=DIRECTION('',(0.E0,1.E0,0.E0));
#166=VECTOR('',#165,3.008487465616E-1);
#167=CARTESIAN_POINT('',(2.E0,-6.969993911181E-1,1.458E1));
#168=LINE('',#167,#166);
#169=CARTESIAN_POINT('',(2.E0,-3.961506445565E-1,1.458E1));
#170=CARTESIAN_POINT('',(2.E0,-3.736979364376E-1,1.449790189524E1));
#171=CARTESIAN_POINT('',(2.E0,-3.236558605040E-1,1.432879738957E1));
#172=CARTESIAN_POINT('',(2.E0,-2.341494379072E-1,1.406290139609E1));
#173=CARTESIAN_POINT('',(2.E0,-1.278235578383E-1,1.377716588811E1));
#174=CARTESIAN_POINT('',(2.E0,-4.460107286923E-2,1.357083810521E1));
#175=CARTESIAN_POINT('',(2.E0,0.E0,1.346393202250E1));
#177=CARTESIAN_POINT('',(2.E0,3.961506445565E-1,1.458E1));
#178=CARTESIAN_POINT('',(2.E0,3.736979364376E-1,1.449790189524E1));
#179=CARTESIAN_POINT('',(2.E0,3.236558605040E-1,1.432879738957E1));
#180=CARTESIAN_POINT('',(2.E0,2.341494379072E-1,1.406290139609E1));
#181=CARTESIAN_POINT('',(2.E0,1.278235578383E-1,1.377716588811E1));
#182=CARTESIAN_POINT('',(2.E0,4.460107286923E-2,1.357083810521E1));
#183=CARTESIAN_POINT('',(2.E0,0.E0,1.346393202250E1));
#185=DIRECTION('',(0.E0,1.E0,0.E0));
#186=VECTOR('',#185,3.008487465616E-1);
#187=CARTESIAN_POINT('',(2.E0,3.961506445565E-1,1.458E1));
#188=LINE('',#187,#186);
#189=CARTESIAN_POINT('',(2.E0,6.969993911181E-1,1.458E1));
#190=CARTESIAN_POINT('',(2.E0,7.158893632036E-1,1.449768960554E1));
#191=CARTESIAN_POINT('',(2.E0,7.579529577557E-1,1.432835782871E1));
#192=CARTESIAN_POINT('',(2.E0,8.329085666674E-1,1.406304222030E1));
#193=CARTESIAN_POINT('',(2.E0,9.219615915649E-1,1.377779483026E1));
#194=CARTESIAN_POINT('',(2.E0,9.919035016543E-1,1.357112285031E1));
#195=CARTESIAN_POINT('',(2.E0,1.029430303011E0,1.346393202250E1));
#197=CARTESIAN_POINT('',(2.E0,1.397477357166E0,1.458E1));
#198=CARTESIAN_POINT('',(2.E0,1.376592788072E0,1.449780470835E1));
#199=CARTESIAN_POINT('',(2.E0,1.330065065682E0,1.432859644675E1));
#200=CARTESIAN_POINT('',(2.E0,1.246985994026E0,1.406296482615E1));
#201=CARTESIAN_POINT('',(2.E0,1.148288959390E0,1.377745131408E1));
#202=CARTESIAN_POINT('',(2.E0,1.070917324483E0,1.357096716401E1));
#203=CARTESIAN_POINT('',(2.E0,1.029430303011E0,1.346393202250E1));
#205=DIRECTION('',(0.E0,1.E0,0.E0));
#206=VECTOR('',#205,3.067543588647E-1);
#207=CARTESIAN_POINT('',(2.E0,1.397477357166E0,1.458E1));
#208=LINE('',#207,#206);
#209=CARTESIAN_POINT('',(2.E0,1.704231716031E0,1.458E1));
#210=CARTESIAN_POINT('',(2.E0,1.725495598190E0,1.449782768555E1));
#211=CARTESIAN_POINT('',(2.E0,1.772873006581E0,1.432864399707E1));
#212=CARTESIAN_POINT('',(2.E0,1.857503398550E0,1.406294966292E1));
#213=CARTESIAN_POINT('',(2.E0,1.958041880070E0,1.377738343904E1));
#214=CARTESIAN_POINT('',(2.E0,2.036827946159E0,1.357093644943E1));
#215=CARTESIAN_POINT('',(2.E0,2.079068156601E0,1.346393202250E1));
#217=CARTESIAN_POINT('',(2.E0,2.730859690117E0,1.458E1));
#218=CARTESIAN_POINT('',(2.E0,2.694144206434E0,1.449840466932E1));
#219=CARTESIAN_POINT('',(2.E0,2.612067824066E0,1.432966677622E1));
#220=CARTESIAN_POINT('',(2.E0,2.463339077692E0,1.406113368571E1));
#221=CARTESIAN_POINT('',(2.E0,2.287259576903E0,1.377387453116E1));
#222=CARTESIAN_POINT('',(2.E0,2.151472919150E0,1.356941342513E1));
#223=CARTESIAN_POINT('',(2.E0,2.079068156601E0,1.346393202250E1));
#225=DIRECTION('',(0.E0,1.E0,0.E0));
#226=VECTOR('',#225,2.691403098830E-1);
#227=CARTESIAN_POINT('',(2.E0,2.730859690117E0,1.458E1));
#228=LINE('',#227,#226);
#229=CARTESIAN_POINT('',(2.E0,0.E0,3.5E0));
#230=DIRECTION('',(1.E0,0.E0,0.E0));
#231=DIRECTION('',(0.E0,4.285714285714E-1,-9.035079029053E-1));
#232=AXIS2_PLACEMENT_3D('',#229,#230,#231);
#234=DIRECTION('',(0.E0,0.E0,1.E0));
#235=VECTOR('',#234,2.662277660168E0);
#236=CARTESIAN_POINT('',(2.E0,1.5E0,3.377223398316E-1));
#237=LINE('',#236,#235);
#238=CARTESIAN_POINT('',(2.E0,0.E0,3.5E0));
#239=DIRECTION('',(1.E0,0.E0,0.E0));
#240=DIRECTION('',(0.E0,-8.571428571429E-1,-5.150787536377E-1));
#241=AXIS2_PLACEMENT_3D('',#238,#239,#240);
#243=DIRECTION('',(0.E0,0.E0,1.E0));
#244=VECTOR('',#243,1.288277563773E1);
#245=CARTESIAN_POINT('',(2.E0,-3.E0,1.697224362268E0));
#246=LINE('',#245,#244);
#247=CARTESIAN_POINT('',(2.E0,-2.730859690117E0,1.458E1));
#248=CARTESIAN_POINT('',(1.940335858270E0,-2.778800936177E0,1.458E1));
#249=CARTESIAN_POINT('',(1.823530201773E0,-2.871632799576E0,1.458E1));
#250=CARTESIAN_POINT('',(1.711687097661E0,-2.958263271183E0,1.458E1));
#251=CARTESIAN_POINT('',(1.656985214177E0,-3.E0,1.458E1));
#253=CARTESIAN_POINT('',(2.E0,-1.704231716031E0,1.458E1));
#254=CARTESIAN_POINT('',(1.939914577345E0,-1.676466687067E0,1.458E1));
#255=CARTESIAN_POINT('',(1.822669069405E0,-1.622885835147E0,1.458E1));
#256=CARTESIAN_POINT('',(1.711246615632E0,-1.573261735569E0,1.458E1));
#257=CARTESIAN_POINT('',(1.656985214177E0,-1.549452786599E0,1.458E1));
#259=CARTESIAN_POINT('',(2.E0,-1.397477357166E0,1.458E1));
#260=CARTESIAN_POINT('',(1.939905166358E0,-1.424743750068E0,1.458E1));
#261=CARTESIAN_POINT('',(1.822649905393E0,-1.477358328745E0,1.458E1));
#262=CARTESIAN_POINT('',(1.711236866647E0,-1.526079287670E0,1.458E1));
#263=CARTESIAN_POINT('',(1.656985214177E0,-1.549452786599E0,1.458E1));
#265=CARTESIAN_POINT('',(-1.656985214177E0,3.E0,1.458E1));
#266=CARTESIAN_POINT('',(-1.711564613978E0,2.958356724423E0,1.458E1));
#267=CARTESIAN_POINT('',(-1.823287881941E0,2.871823210173E0,1.458E1));
#268=CARTESIAN_POINT('',(-1.940215758296E0,2.778897438737E0,1.458E1));
#269=CARTESIAN_POINT('',(-2.E0,2.730859690117E0,1.458E1));
#271=CARTESIAN_POINT('',(-1.656985214177E0,1.549452786599E0,1.458E1));
#272=CARTESIAN_POINT('',(-1.711140960806E0,1.573215376089E0,1.458E1));
#273=CARTESIAN_POINT('',(-1.822458758028E0,1.622790817316E0,1.458E1));
#274=CARTESIAN_POINT('',(-1.939809839397E0,1.676418288436E0,1.458E1));
#275=CARTESIAN_POINT('',(-2.E0,1.704231716031E0,1.458E1));
#277=CARTESIAN_POINT('',(-1.656985214177E0,1.549452786599E0,1.458E1));
#278=CARTESIAN_POINT('',(-1.711131644001E0,1.526124621246E0,1.458E1));
#279=CARTESIAN_POINT('',(-1.822440424107E0,1.477451256834E0,1.458E1));
#280=CARTESIAN_POINT('',(-1.939800829534E0,1.424791090059E0,1.458E1));
#281=CARTESIAN_POINT('',(-2.E0,1.397477357166E0,1.458E1));
#283=CARTESIAN_POINT('',(-1.656985214177E0,-3.E0,1.458E1));
#284=CARTESIAN_POINT('',(-1.711564613978E0,-2.958356724423E0,1.458E1));
#285=CARTESIAN_POINT('',(-1.823287881941E0,-2.871823210173E0,1.458E1));
#286=CARTESIAN_POINT('',(-1.940215758296E0,-2.778897438737E0,1.458E1));
#287=CARTESIAN_POINT('',(-2.E0,-2.730859690117E0,1.458E1));
#289=CARTESIAN_POINT('',(2.E0,-6.969993911181E-1,1.458E1));
#290=CARTESIAN_POINT('',(1.939857295326E0,-6.723519657088E-1,1.458E1));
#291=CARTESIAN_POINT('',(1.822552478903E0,-6.248095070322E-1,1.458E1));
#292=CARTESIAN_POINT('',(1.711187343378E0,-5.808230777711E-1,1.458E1));
#293=CARTESIAN_POINT('',(1.656985214177E0,-5.597307184814E-1,1.458E1));
#295=CARTESIAN_POINT('',(2.E0,-3.961506445565E-1,1.458E1));
#296=CARTESIAN_POINT('',(1.939944645617E0,-4.254797830403E-1,1.458E1));
#297=CARTESIAN_POINT('',(1.822730322272E0,-4.820928168657E-1,1.458E1));
#298=CARTESIAN_POINT('',(1.711277792422E0,-5.345534712035E-1,1.458E1));
#299=CARTESIAN_POINT('',(1.656985214177E0,-5.597307184814E-1,1.458E1));
#301=CARTESIAN_POINT('',(2.E0,3.961506445565E-1,1.458E1));
#302=CARTESIAN_POINT('',(1.939944645617E0,4.254797830403E-1,1.458E1));
#303=CARTESIAN_POINT('',(1.822730322272E0,4.820928168657E-1,1.458E1));
#304=CARTESIAN_POINT('',(1.711277792422E0,5.345534712035E-1,1.458E1));
#305=CARTESIAN_POINT('',(1.656985214177E0,5.597307184814E-1,1.458E1));
#307=CARTESIAN_POINT('',(2.E0,6.969993911181E-1,1.458E1));
#308=CARTESIAN_POINT('',(1.939857295326E0,6.723519657088E-1,1.458E1));
#309=CARTESIAN_POINT('',(1.822552478903E0,6.248095070322E-1,1.458E1));
#310=CARTESIAN_POINT('',(1.711187343378E0,5.808230777711E-1,1.458E1));
#311=CARTESIAN_POINT('',(1.656985214177E0,5.597307184814E-1,1.458E1));
#313=CARTESIAN_POINT('',(-1.656985214177E0,5.597307184814E-1,1.458E1));
#314=CARTESIAN_POINT('',(-1.711084353412E0,5.807829999847E-1,1.458E1));
#315=CARTESIAN_POINT('',(-1.822347291245E0,6.247272940713E-1,1.458E1));
#316=CARTESIAN_POINT('',(-1.939755035146E0,6.723100578804E-1,1.458E1));
#317=CARTESIAN_POINT('',(-2.E0,6.969993911181E-1,1.458E1));
#319=CARTESIAN_POINT('',(-1.656985214177E0,5.597307184814E-1,1.458E1));
#320=CARTESIAN_POINT('',(-1.711170771916E0,5.346031001186E-1,1.458E1));
#321=CARTESIAN_POINT('',(-1.822517390081E0,4.821944906456E-1,1.458E1));
#322=CARTESIAN_POINT('',(-1.939838641991E0,4.255315518634E-1,1.458E1));
#323=CARTESIAN_POINT('',(-2.E0,3.961506445565E-1,1.458E1));
#325=CARTESIAN_POINT('',(-1.656985214177E0,-5.597307184814E-1,1.458E1));
#326=CARTESIAN_POINT('',(-1.711170771916E0,-5.346031001186E-1,1.458E1));
#327=CARTESIAN_POINT('',(-1.822517390081E0,-4.821944906456E-1,1.458E1));
#328=CARTESIAN_POINT('',(-1.939838641991E0,-4.255315518634E-1,1.458E1));
#329=CARTESIAN_POINT('',(-2.E0,-3.961506445565E-1,1.458E1));
#331=CARTESIAN_POINT('',(-1.656985214177E0,-5.597307184814E-1,1.458E1));
#332=CARTESIAN_POINT('',(-1.711084353412E0,-5.807829999847E-1,1.458E1));
#333=CARTESIAN_POINT('',(-1.822347291245E0,-6.247272940713E-1,1.458E1));
#334=CARTESIAN_POINT('',(-1.939755035146E0,-6.723100578804E-1,1.458E1));
#335=CARTESIAN_POINT('',(-2.E0,-6.969993911181E-1,1.458E1));
#337=CARTESIAN_POINT('',(-1.656985214177E0,-1.549452786599E0,1.458E1));
#338=CARTESIAN_POINT('',(-1.711140960806E0,-1.573215376089E0,1.458E1));
#339=CARTESIAN_POINT('',(-1.822458758028E0,-1.622790817316E0,1.458E1));
#340=CARTESIAN_POINT('',(-1.939809839397E0,-1.676418288436E0,1.458E1));
#341=CARTESIAN_POINT('',(-2.E0,-1.704231716031E0,1.458E1));
#343=CARTESIAN_POINT('',(-1.656985214177E0,-1.549452786599E0,1.458E1));
#344=CARTESIAN_POINT('',(-1.711131644001E0,-1.526124621246E0,1.458E1));
#345=CARTESIAN_POINT('',(-1.822440424107E0,-1.477451256834E0,1.458E1));
#346=CARTESIAN_POINT('',(-1.939800829534E0,-1.424791090059E0,1.458E1));
#347=CARTESIAN_POINT('',(-2.E0,-1.397477357166E0,1.458E1));
#349=CARTESIAN_POINT('',(2.E0,1.397477357166E0,1.458E1));
#350=CARTESIAN_POINT('',(1.939905166358E0,1.424743750068E0,1.458E1));
#351=CARTESIAN_POINT('',(1.822649905393E0,1.477358328745E0,1.458E1));
#352=CARTESIAN_POINT('',(1.711236866647E0,1.526079287670E0,1.458E1));
#353=CARTESIAN_POINT('',(1.656985214177E0,1.549452786599E0,1.458E1));
#355=CARTESIAN_POINT('',(2.E0,1.704231716031E0,1.458E1));
#356=CARTESIAN_POINT('',(1.939914577345E0,1.676466687067E0,1.458E1));
#357=CARTESIAN_POINT('',(1.822669069405E0,1.622885835147E0,1.458E1));
#358=CARTESIAN_POINT('',(1.711246615632E0,1.573261735569E0,1.458E1));
#359=CARTESIAN_POINT('',(1.656985214177E0,1.549452786599E0,1.458E1));
#361=CARTESIAN_POINT('',(2.E0,2.730859690117E0,1.458E1));
#362=CARTESIAN_POINT('',(1.940335858270E0,2.778800936177E0,1.458E1));
#363=CARTESIAN_POINT('',(1.823530201773E0,2.871632799576E0,1.458E1));
#364=CARTESIAN_POINT('',(1.711687097661E0,2.958263271183E0,1.458E1));
#365=CARTESIAN_POINT('',(1.656985214177E0,3.E0,1.458E1));
#367=DIRECTION('',(-1.E0,0.E0,0.E0));
#368=VECTOR('',#367,3.430147858234E-1);
#369=CARTESIAN_POINT('',(-1.656985214177E0,-3.E0,1.458E1));
#370=LINE('',#369,#368);
#371=DIRECTION('',(-1.E0,0.E0,0.E0));
#372=VECTOR('',#371,3.430147858234E-1);
#373=CARTESIAN_POINT('',(2.E0,-3.E0,1.458E1));
#374=LINE('',#373,#372);
#375=DIRECTION('',(1.E0,0.E0,0.E0));
#376=VECTOR('',#375,4.E0);
#377=CARTESIAN_POINT('',(-2.E0,-3.E0,1.697224362268E0));
#378=LINE('',#377,#376);
#379=CARTESIAN_POINT('',(0.E0,-3.E0,1.57E1));
#380=DIRECTION('',(0.E0,1.E0,0.E0));
#381=DIRECTION('',(8.284926070883E-1,0.E0,-5.6E-1));
#382=AXIS2_PLACEMENT_3D('',#379,#380,#381);
#384=CARTESIAN_POINT('',(0.E0,-2.079068156601E0,1.57E1));
#385=DIRECTION('',(0.E0,1.E0,0.E0));
#386=DIRECTION('',(6.666666666667E-1,0.E0,-7.453559924999E-1));
#387=AXIS2_PLACEMENT_3D('',#384,#385,#386);
#389=CARTESIAN_POINT('',(0.E0,-1.549452786599E0,1.57E1));
#390=DIRECTION('',(0.E0,1.E0,0.E0));
#391=DIRECTION('',(8.284926070883E-1,0.E0,-5.6E-1));
#392=AXIS2_PLACEMENT_3D('',#389,#390,#391);
#394=CARTESIAN_POINT('',(0.E0,-1.029430303011E0,1.57E1));
#395=DIRECTION('',(0.E0,1.E0,0.E0));
#396=DIRECTION('',(6.666666666667E-1,0.E0,-7.453559924999E-1));
#397=AXIS2_PLACEMENT_3D('',#394,#395,#396);
#399=CARTESIAN_POINT('',(0.E0,-5.597307184814E-1,1.57E1));
#400=DIRECTION('',(0.E0,1.E0,0.E0));
#401=DIRECTION('',(8.284926070883E-1,0.E0,-5.6E-1));
#402=AXIS2_PLACEMENT_3D('',#399,#400,#401);
#404=CARTESIAN_POINT('',(0.E0,0.E0,1.57E1));
#405=DIRECTION('',(0.E0,1.E0,0.E0));
#406=DIRECTION('',(6.666666666667E-1,0.E0,-7.453559924999E-1));
#407=AXIS2_PLACEMENT_3D('',#404,#405,#406);
#409=CARTESIAN_POINT('',(0.E0,5.597307184814E-1,1.57E1));
#410=DIRECTION('',(0.E0,1.E0,0.E0));
#411=DIRECTION('',(8.284926070883E-1,0.E0,-5.6E-1));
#412=AXIS2_PLACEMENT_3D('',#409,#410,#411);
#414=CARTESIAN_POINT('',(0.E0,1.029430303011E0,1.57E1));
#415=DIRECTION('',(0.E0,1.E0,0.E0));
#416=DIRECTION('',(6.666666666667E-1,0.E0,-7.453559924999E-1));
#417=AXIS2_PLACEMENT_3D('',#414,#415,#416);
#419=CARTESIAN_POINT('',(0.E0,1.549452786599E0,1.57E1));
#420=DIRECTION('',(0.E0,1.E0,0.E0));
#421=DIRECTION('',(8.284926070883E-1,0.E0,-5.6E-1));
#422=AXIS2_PLACEMENT_3D('',#419,#420,#421);
#424=CARTESIAN_POINT('',(0.E0,3.E0,1.57E1));
#425=DIRECTION('',(0.E0,-1.E0,0.E0));
#426=DIRECTION('',(-8.284926070883E-1,0.E0,-5.6E-1));
#427=AXIS2_PLACEMENT_3D('',#424,#425,#426);
#429=CARTESIAN_POINT('',(0.E0,2.079068156601E0,1.57E1));
#430=DIRECTION('',(0.E0,1.E0,0.E0));
#431=DIRECTION('',(6.666666666667E-1,0.E0,-7.453559924999E-1));
#432=AXIS2_PLACEMENT_3D('',#429,#430,#431);
#434=DIRECTION('',(-1.E0,0.E0,0.E0));
#435=VECTOR('',#434,3.430147858234E-1);
#436=CARTESIAN_POINT('',(-1.656985214177E0,3.E0,1.458E1));
#437=LINE('',#436,#435);
#438=DIRECTION('',(1.E0,0.E0,0.E0));
#439=VECTOR('',#438,4.E0);
#440=CARTESIAN_POINT('',(-2.E0,3.E0,1.697224362268E0));
#441=LINE('',#440,#439);
#442=DIRECTION('',(0.E0,0.E0,1.E0));
#443=VECTOR('',#442,1.288277563773E1);
#444=CARTESIAN_POINT('',(2.E0,3.E0,1.697224362268E0));
#445=LINE('',#444,#443);
#446=DIRECTION('',(-1.E0,0.E0,0.E0));
#447=VECTOR('',#446,3.430147858234E-1);
#448=CARTESIAN_POINT('',(2.E0,3.E0,1.458E1));
#449=LINE('',#448,#447);
#450=DIRECTION('',(0.E0,-1.E0,0.E0));
#451=VECTOR('',#450,2.691403098830E-1);
#452=CARTESIAN_POINT('',(-2.E0,3.E0,1.458E1));
#453=LINE('',#452,#451);
#454=CARTESIAN_POINT('',(-2.E0,2.079068156601E0,1.346393202250E1));
#455=CARTESIAN_POINT('',(-2.E0,2.151473207622E0,1.356941384539E1));
#456=CARTESIAN_POINT('',(-2.E0,2.287259683298E0,1.377387499580E1));
#457=CARTESIAN_POINT('',(-2.E0,2.463330686743E0,1.406111956484E1));
#458=CARTESIAN_POINT('',(-2.E0,2.612063517912E0,1.432965817216E1));
#459=CARTESIAN_POINT('',(-2.E0,2.694142490668E0,1.449840085626E1));
#460=CARTESIAN_POINT('',(-2.E0,2.730859690117E0,1.458E1));
#462=CARTESIAN_POINT('',(-2.E0,2.079068156601E0,1.346393202250E1));
#463=CARTESIAN_POINT('',(-2.E0,2.036824537407E0,1.357094508460E1));
#464=CARTESIAN_POINT('',(-2.E0,1.958034340796E0,1.377740399662E1));
#465=CARTESIAN_POINT('',(-2.E0,1.857501394116E0,1.406295594546E1));
#466=CARTESIAN_POINT('',(-2.E0,1.772871261957E0,1.432864982342E1));
#467=CARTESIAN_POINT('',(-2.E0,1.725495120378E0,1.449782953201E1));
#468=CARTESIAN_POINT('',(-2.E0,1.704231716031E0,1.458E1));
#470=DIRECTION('',(0.E0,-1.E0,0.E0));
#471=VECTOR('',#470,3.067543588647E-1);
#472=CARTESIAN_POINT('',(-2.E0,1.704231716031E0,1.458E1));
#473=LINE('',#472,#471);
#474=CARTESIAN_POINT('',(-2.E0,1.029430303011E0,1.346393202250E1));
#475=CARTESIAN_POINT('',(-2.E0,1.070920761535E0,1.357097603149E1));
#476=CARTESIAN_POINT('',(-2.E0,1.148296618661E0,1.377747255324E1));
#477=CARTESIAN_POINT('',(-2.E0,1.246988599039E0,1.406297300459E1));
#478=CARTESIAN_POINT('',(-2.E0,1.330067358818E0,1.432860427031E1));
#479=CARTESIAN_POINT('',(-2.E0,1.376593473040E0,1.449780740418E1));
#480=CARTESIAN_POINT('',(-2.E0,1.397477357166E0,1.458E1));
#482=CARTESIAN_POINT('',(-2.E0,1.029430303011E0,1.346393202250E1));
#483=CARTESIAN_POINT('',(-2.E0,9.918999692538E-1,1.357113294019E1));
#484=CARTESIAN_POINT('',(-2.E0,9.219534582382E-1,1.377781964470E1));
#485=CARTESIAN_POINT('',(-2.E0,8.329032157304E-1,1.406306028289E1));
#486=CARTESIAN_POINT('',(-2.E0,7.579481815792E-1,1.432837596462E1));
#487=CARTESIAN_POINT('',(-2.E0,7.158877401840E-1,1.449769667762E1));
#488=CARTESIAN_POINT('',(-2.E0,6.969993911181E-1,1.458E1));
#490=DIRECTION('',(0.E0,-1.E0,0.E0));
#491=VECTOR('',#490,3.008487465616E-1);
#492=CARTESIAN_POINT('',(-2.E0,6.969993911181E-1,1.458E1));
#493=LINE('',#492,#491);
#494=CARTESIAN_POINT('',(-2.E0,0.E0,1.346393202250E1));
#495=CARTESIAN_POINT('',(-2.E0,4.460437404065E-2,1.357084601791E1));
#496=CARTESIAN_POINT('',(-2.E0,1.278306646285E-1,1.377718432056E1));
#497=CARTESIAN_POINT('',(-2.E0,2.341494071246E-1,1.406290173630E1));
#498=CARTESIAN_POINT('',(-2.E0,3.236557326602E-1,1.432879691030E1));
#499=CARTESIAN_POINT('',(-2.E0,3.736977069076E-1,1.449790105596E1));
#500=CARTESIAN_POINT('',(-2.E0,3.961506445565E-1,1.458E1));
#502=CARTESIAN_POINT('',(-2.E0,0.E0,1.346393202250E1));
#503=CARTESIAN_POINT('',(-2.E0,-4.460437404065E-2,1.357084601791E1));
#504=CARTESIAN_POINT('',(-2.E0,-1.278306646285E-1,1.377718432056E1));
#505=CARTESIAN_POINT('',(-2.E0,-2.341494071246E-1,1.406290173630E1));
#506=CARTESIAN_POINT('',(-2.E0,-3.236557326602E-1,1.432879691030E1));
#507=CARTESIAN_POINT('',(-2.E0,-3.736977069076E-1,1.449790105596E1));
#508=CARTESIAN_POINT('',(-2.E0,-3.961506445565E-1,1.458E1));
#510=DIRECTION('',(0.E0,-1.E0,0.E0));
#511=VECTOR('',#510,3.008487465616E-1);
#512=CARTESIAN_POINT('',(-2.E0,-3.961506445565E-1,1.458E1));
#513=LINE('',#512,#511);
#514=CARTESIAN_POINT('',(-2.E0,-1.029430303011E0,1.346393202250E1));
#515=CARTESIAN_POINT('',(-2.E0,-9.918999692538E-1,1.357113294019E1));
#516=CARTESIAN_POINT('',(-2.E0,-9.219534582382E-1,1.377781964470E1));
#517=CARTESIAN_POINT('',(-2.E0,-8.329032157304E-1,1.406306028289E1));
#518=CARTESIAN_POINT('',(-2.E0,-7.579481815792E-1,1.432837596462E1));
#519=CARTESIAN_POINT('',(-2.E0,-7.158877401840E-1,1.449769667762E1));
#520=CARTESIAN_POINT('',(-2.E0,-6.969993911181E-1,1.458E1));
#522=CARTESIAN_POINT('',(-2.E0,-1.029430303011E0,1.346393202250E1));
#523=CARTESIAN_POINT('',(-2.E0,-1.070920761535E0,1.357097603149E1));
#524=CARTESIAN_POINT('',(-2.E0,-1.148296618661E0,1.377747255324E1));
#525=CARTESIAN_POINT('',(-2.E0,-1.246988599039E0,1.406297300459E1));
#526=CARTESIAN_POINT('',(-2.E0,-1.330067358818E0,1.432860427031E1));
#527=CARTESIAN_POINT('',(-2.E0,-1.376593473040E0,1.449780740418E1));
#528=CARTESIAN_POINT('',(-2.E0,-1.397477357166E0,1.458E1));
#530=DIRECTION('',(0.E0,-1.E0,0.E0));
#531=VECTOR('',#530,3.067543588647E-1);
#532=CARTESIAN_POINT('',(-2.E0,-1.397477357166E0,1.458E1));
#533=LINE('',#532,#531);
#534=CARTESIAN_POINT('',(-2.E0,-2.079068156601E0,1.346393202250E1));
#535=CARTESIAN_POINT('',(-2.E0,-2.036824537407E0,1.357094508460E1));
#536=CARTESIAN_POINT('',(-2.E0,-1.958034340796E0,1.377740399662E1));
#537=CARTESIAN_POINT('',(-2.E0,-1.857501394116E0,1.406295594546E1));
#538=CARTESIAN_POINT('',(-2.E0,-1.772871261957E0,1.432864982342E1));
#539=CARTESIAN_POINT('',(-2.E0,-1.725495120378E0,1.449782953201E1));
#540=CARTESIAN_POINT('',(-2.E0,-1.704231716031E0,1.458E1));
#542=CARTESIAN_POINT('',(-2.E0,-2.079068156601E0,1.346393202250E1));
#543=CARTESIAN_POINT('',(-2.E0,-2.151473207622E0,1.356941384539E1));
#544=CARTESIAN_POINT('',(-2.E0,-2.287259683298E0,1.377387499580E1));
#545=CARTESIAN_POINT('',(-2.E0,-2.463330686743E0,1.406111956484E1));
#546=CARTESIAN_POINT('',(-2.E0,-2.612063517912E0,1.432965817216E1));
#547=CARTESIAN_POINT('',(-2.E0,-2.694142490668E0,1.449840085626E1));
#548=CARTESIAN_POINT('',(-2.E0,-2.730859690117E0,1.458E1));
#550=DIRECTION('',(0.E0,-1.E0,0.E0));
#551=VECTOR('',#550,2.691403098830E-1);
#552=CARTESIAN_POINT('',(-2.E0,-2.730859690117E0,1.458E1));
#553=LINE('',#552,#551);
#554=DIRECTION('',(0.E0,0.E0,-1.E0));
#555=VECTOR('',#554,1.288277563773E1);
#556=CARTESIAN_POINT('',(-2.E0,-3.E0,1.458E1));
#557=LINE('',#556,#555);
#558=CARTESIAN_POINT('',(-2.E0,0.E0,3.5E0));
#559=DIRECTION('',(1.E0,0.E0,0.E0));
#560=DIRECTION('',(0.E0,-8.571428571429E-1,-5.150787536377E-1));
#561=AXIS2_PLACEMENT_3D('',#558,#559,#560);
#563=DIRECTION('',(0.E0,0.E0,1.E0));
#564=VECTOR('',#563,2.662277660168E0);
#565=CARTESIAN_POINT('',(-2.E0,-1.5E0,3.377223398316E-1));
#566=LINE('',#565,#564);
#567=CARTESIAN_POINT('',(-2.E0,0.E0,3.5E0));
#568=DIRECTION('',(1.E0,0.E0,0.E0));
#569=DIRECTION('',(0.E0,4.285714285714E-1,-9.035079029053E-1));
#570=AXIS2_PLACEMENT_3D('',#567,#568,#569);
#572=DIRECTION('',(0.E0,0.E0,1.E0));
#573=VECTOR('',#572,1.288277563773E1);
#574=CARTESIAN_POINT('',(-2.E0,3.E0,1.697224362268E0));
#575=LINE('',#574,#573);
#576=CARTESIAN_POINT('',(-5.87E0,0.E0,3.5E0));
#577=DIRECTION('',(1.E0,0.E0,0.E0));
#578=DIRECTION('',(0.E0,-4.285714285714E-1,-9.035079029053E-1));
#579=AXIS2_PLACEMENT_3D('',#576,#577,#578);
#581=DIRECTION('',(0.E0,0.E0,1.E0));
#582=VECTOR('',#581,2.662277660168E0);
#583=CARTESIAN_POINT('',(-5.87E0,1.5E0,3.377223398316E-1));
#584=LINE('',#583,#582);
#585=DIRECTION('',(1.E0,0.E0,0.E0));
#586=VECTOR('',#585,3.87E0);
#587=CARTESIAN_POINT('',(-5.87E0,1.5E0,3.377223398316E-1));
#588=LINE('',#587,#586);
#589=DIRECTION('',(0.E0,0.E0,1.E0));
#590=VECTOR('',#589,2.662277660168E0);
#591=CARTESIAN_POINT('',(-2.E0,1.5E0,3.377223398316E-1));
#592=LINE('',#591,#590);
#593=DIRECTION('',(1.E0,0.E0,0.E0));
#594=VECTOR('',#593,3.87E0);
#595=CARTESIAN_POINT('',(-5.87E0,-1.5E0,3.377223398316E-1));
#596=LINE('',#595,#594);
#597=DIRECTION('',(0.E0,0.E0,1.E0));
#598=VECTOR('',#597,2.662277660168E0);
#599=CARTESIAN_POINT('',(-5.87E0,-1.5E0,3.377223398316E-1));
#600=LINE('',#599,#598);
#601=DIRECTION('',(1.E0,0.E0,0.E0));
#602=VECTOR('',#601,3.87E0);
#603=CARTESIAN_POINT('',(2.E0,-1.5E0,3.377223398316E-1));
#604=LINE('',#603,#602);
#605=DIRECTION('',(0.E0,0.E0,1.E0));
#606=VECTOR('',#605,2.662277660168E0);
#607=CARTESIAN_POINT('',(2.E0,-1.5E0,3.377223398316E-1));
#608=LINE('',#607,#606);
#609=CARTESIAN_POINT('',(5.87E0,0.E0,3.5E0));
#610=DIRECTION('',(-1.E0,0.E0,0.E0));
#611=DIRECTION('',(0.E0,4.285714285714E-1,-9.035079029053E-1));
#612=AXIS2_PLACEMENT_3D('',#609,#610,#611);
#614=DIRECTION('',(0.E0,0.E0,1.E0));
#615=VECTOR('',#614,2.662277660168E0);
#616=CARTESIAN_POINT('',(5.87E0,-1.5E0,3.377223398316E-1));
#617=LINE('',#616,#615);
#618=DIRECTION('',(1.E0,0.E0,0.E0));
#619=VECTOR('',#618,3.87E0);
#620=CARTESIAN_POINT('',(2.E0,1.5E0,3.377223398316E-1));
#621=LINE('',#620,#619);
#622=DIRECTION('',(0.E0,0.E0,1.E0));
#623=VECTOR('',#622,2.662277660168E0);
#624=CARTESIAN_POINT('',(5.87E0,1.5E0,3.377223398316E-1));
#625=LINE('',#624,#623);
#626=CARTESIAN_POINT('',(-5.87E0,1.5E0,3.E0));
#627=CARTESIAN_POINT('',(-5.87E0,-1.5E0,3.E0));
#628=VERTEX_POINT('',#626);
#629=VERTEX_POINT('',#627);
#630=CARTESIAN_POINT('',(5.87E0,-1.5E0,3.E0));
#631=CARTESIAN_POINT('',(5.87E0,1.5E0,3.E0));
#632=VERTEX_POINT('',#630);
#633=VERTEX_POINT('',#631);
#634=CARTESIAN_POINT('',(-3.1E0,0.E0,3.E0));
#635=CARTESIAN_POINT('',(-5.1E0,0.E0,3.E0));
#636=VERTEX_POINT('',#634);
#637=VERTEX_POINT('',#635);
#638=CARTESIAN_POINT('',(5.1E0,0.E0,3.E0));
#639=CARTESIAN_POINT('',(3.1E0,0.E0,3.E0));
#640=VERTEX_POINT('',#638);
#641=VERTEX_POINT('',#639);
#642=CARTESIAN_POINT('',(2.E0,-1.5E0,3.E0));
#643=CARTESIAN_POINT('',(2.E0,1.5E0,3.E0));
#644=VERTEX_POINT('',#642);
#645=VERTEX_POINT('',#643);
#646=CARTESIAN_POINT('',(-2.E0,-1.5E0,3.E0));
#647=CARTESIAN_POINT('',(-2.E0,1.5E0,3.E0));
#648=VERTEX_POINT('',#646);
#649=VERTEX_POINT('',#647);
#650=CARTESIAN_POINT('',(-4.7E0,0.E0,1.E1));
#651=CARTESIAN_POINT('',(-3.5E0,0.E0,1.E1));
#652=VERTEX_POINT('',#650);
#653=VERTEX_POINT('',#651);
#654=CARTESIAN_POINT('',(-5.1E0,0.E0,9.6E0));
#655=CARTESIAN_POINT('',(-3.1E0,0.E0,9.6E0));
#656=VERTEX_POINT('',#654);
#657=VERTEX_POINT('',#655);
#658=CARTESIAN_POINT('',(3.5E0,0.E0,1.E1));
#659=CARTESIAN_POINT('',(4.7E0,0.E0,1.E1));
#660=VERTEX_POINT('',#658);
#661=VERTEX_POINT('',#659);
#662=CARTESIAN_POINT('',(3.1E0,0.E0,9.6E0));
#663=CARTESIAN_POINT('',(5.1E0,0.E0,9.6E0));
#664=VERTEX_POINT('',#662);
#665=VERTEX_POINT('',#663);
#666=CARTESIAN_POINT('',(-5.87E0,-1.5E0,3.377223398316E-1));
#667=CARTESIAN_POINT('',(-5.87E0,1.5E0,3.377223398316E-1));
#668=VERTEX_POINT('',#666);
#669=VERTEX_POINT('',#667);
#670=CARTESIAN_POINT('',(-2.E0,-1.5E0,3.377223398316E-1));
#671=VERTEX_POINT('',#670);
#672=CARTESIAN_POINT('',(-2.E0,-3.E0,1.697224362268E0));
#673=VERTEX_POINT('',#672);
#674=CARTESIAN_POINT('',(-2.E0,1.5E0,3.377223398316E-1));
#675=CARTESIAN_POINT('',(-2.E0,3.E0,1.697224362268E0));
#676=VERTEX_POINT('',#674);
#677=VERTEX_POINT('',#675);
#678=CARTESIAN_POINT('',(2.E0,-3.E0,1.697224362268E0));
#679=VERTEX_POINT('',#678);
#680=CARTESIAN_POINT('',(2.E0,-1.5E0,3.377223398316E-1));
#681=VERTEX_POINT('',#680);
#682=CARTESIAN_POINT('',(2.E0,1.5E0,3.377223398316E-1));
#683=CARTESIAN_POINT('',(2.E0,3.E0,1.697224362268E0));
#684=VERTEX_POINT('',#682);
#685=VERTEX_POINT('',#683);
#686=CARTESIAN_POINT('',(5.87E0,-1.5E0,3.377223398316E-1));
#687=VERTEX_POINT('',#686);
#688=CARTESIAN_POINT('',(5.87E0,1.5E0,3.377223398316E-1));
#689=VERTEX_POINT('',#688);
#690=CARTESIAN_POINT('',(2.E0,-3.E0,1.458E1));
#691=VERTEX_POINT('',#690);
#692=CARTESIAN_POINT('',(2.E0,3.E0,1.458E1));
#693=VERTEX_POINT('',#692);
#694=CARTESIAN_POINT('',(-2.E0,-3.E0,1.458E1));
#695=VERTEX_POINT('',#694);
#696=CARTESIAN_POINT('',(-2.E0,3.E0,1.458E1));
#697=VERTEX_POINT('',#696);
#698=CARTESIAN_POINT('',(2.E0,-2.730859690117E0,1.458E1));
#699=VERTEX_POINT('',#698);
#700=CARTESIAN_POINT('',(2.E0,-1.704231716031E0,1.458E1));
#701=CARTESIAN_POINT('',(2.E0,-1.397477357166E0,1.458E1));
#702=VERTEX_POINT('',#700);
#703=VERTEX_POINT('',#701);
#704=CARTESIAN_POINT('',(-2.E0,2.730859690117E0,1.458E1));
#705=VERTEX_POINT('',#704);
#706=CARTESIAN_POINT('',(-2.E0,1.704231716031E0,1.458E1));
#707=CARTESIAN_POINT('',(-2.E0,1.397477357166E0,1.458E1));
#708=VERTEX_POINT('',#706);
#709=VERTEX_POINT('',#707);
#710=CARTESIAN_POINT('',(-1.656985214177E0,-3.E0,1.458E1));
#711=VERTEX_POINT('',#710);
#712=CARTESIAN_POINT('',(1.656985214177E0,-3.E0,1.458E1));
#713=VERTEX_POINT('',#712);
#714=CARTESIAN_POINT('',(2.E0,-6.969993911181E-1,1.458E1));
#715=CARTESIAN_POINT('',(2.E0,-3.961506445565E-1,1.458E1));
#716=VERTEX_POINT('',#714);
#717=VERTEX_POINT('',#715);
#718=CARTESIAN_POINT('',(2.E0,3.961506445565E-1,1.458E1));
#719=CARTESIAN_POINT('',(2.E0,6.969993911181E-1,1.458E1));
#720=VERTEX_POINT('',#718);
#721=VERTEX_POINT('',#719);
#722=CARTESIAN_POINT('',(-2.E0,6.969993911181E-1,1.458E1));
#723=CARTESIAN_POINT('',(-2.E0,3.961506445565E-1,1.458E1));
#724=VERTEX_POINT('',#722);
#725=VERTEX_POINT('',#723);
#726=CARTESIAN_POINT('',(-2.E0,-3.961506445565E-1,1.458E1));
#727=CARTESIAN_POINT('',(-2.E0,-6.969993911181E-1,1.458E1));
#728=VERTEX_POINT('',#726);
#729=VERTEX_POINT('',#727);
#730=VERTEX_POINT('',#542);
#731=VERTEX_POINT('',#548);
#732=VERTEX_POINT('',#540);
#733=VERTEX_POINT('',#522);
#734=VERTEX_POINT('',#528);
#735=VERTEX_POINT('',#502);
#736=VERTEX_POINT('',#482);
#737=VERTEX_POINT('',#462);
#738=VERTEX_POINT('',#135);
#739=VERTEX_POINT('',#155);
#740=VERTEX_POINT('',#175);
#741=VERTEX_POINT('',#195);
#742=VERTEX_POINT('',#197);
#743=VERTEX_POINT('',#209);
#744=VERTEX_POINT('',#215);
#745=VERTEX_POINT('',#217);
#746=VERTEX_POINT('',#337);
#747=VERTEX_POINT('',#331);
#748=VERTEX_POINT('',#319);
#749=VERTEX_POINT('',#277);
#750=VERTEX_POINT('',#265);
#751=VERTEX_POINT('',#257);
#752=VERTEX_POINT('',#293);
#753=VERTEX_POINT('',#305);
#754=VERTEX_POINT('',#353);
#755=VERTEX_POINT('',#365);
#756=CARTESIAN_POINT('',(0.E0,0.E0,3.E0));
#757=DIRECTION('',(0.E0,0.E0,1.E0));
#758=DIRECTION('',(1.E0,0.E0,0.E0));
#759=AXIS2_PLACEMENT_3D('',#756,#757,#758);
#760=PLANE('',#759);
#762=ORIENTED_EDGE('',*,*,#761,.T.);
#764=ORIENTED_EDGE('',*,*,#763,.F.);
#766=ORIENTED_EDGE('',*,*,#765,.F.);
#768=ORIENTED_EDGE('',*,*,#767,.F.);
#769=EDGE_LOOP('',(#762,#764,#766,#768));
#770=FACE_OUTER_BOUND('',#769,.F.);
#772=ORIENTED_EDGE('',*,*,#771,.T.);
#774=ORIENTED_EDGE('',*,*,#773,.T.);
#775=EDGE_LOOP('',(#772,#774));
#776=FACE_BOUND('',#775,.F.);
#777=ADVANCED_FACE('',(#770,#776),#760,.T.);
#778=CARTESIAN_POINT('',(0.E0,0.E0,3.E0));
#779=DIRECTION('',(0.E0,0.E0,1.E0));
#780=DIRECTION('',(1.E0,0.E0,0.E0));
#781=AXIS2_PLACEMENT_3D('',#778,#779,#780);
#782=PLANE('',#781);
#784=ORIENTED_EDGE('',*,*,#783,.F.);
#786=ORIENTED_EDGE('',*,*,#785,.F.);
#788=ORIENTED_EDGE('',*,*,#787,.F.);
#790=ORIENTED_EDGE('',*,*,#789,.F.);
#791=EDGE_LOOP('',(#784,#786,#788,#790));
#792=FACE_OUTER_BOUND('',#791,.F.);
#794=ORIENTED_EDGE('',*,*,#793,.T.);
#796=ORIENTED_EDGE('',*,*,#795,.T.);
#797=EDGE_LOOP('',(#794,#796));
#798=FACE_BOUND('',#797,.F.);
#799=ADVANCED_FACE('',(#792,#798),#782,.T.);
#800=CARTESIAN_POINT('',(-4.1E0,0.E0,0.E0));
#801=DIRECTION('',(0.E0,0.E0,1.E0));
#802=DIRECTION('',(1.E0,0.E0,0.E0));
#803=AXIS2_PLACEMENT_3D('',#800,#801,#802);
#804=CYLINDRICAL_SURFACE('',#803,1.E0);
#806=ORIENTED_EDGE('',*,*,#805,.T.);
#808=ORIENTED_EDGE('',*,*,#807,.F.);
#809=ORIENTED_EDGE('',*,*,#793,.F.);
#811=ORIENTED_EDGE('',*,*,#810,.T.);
#812=EDGE_LOOP('',(#806,#808,#809,#811));
#813=FACE_OUTER_BOUND('',#812,.F.);
#814=ADVANCED_FACE('',(#813),#804,.T.);
#815=CARTESIAN_POINT('',(-4.1E0,0.E0,9.800000000240E0));
#816=DIRECTION('',(0.E0,0.E0,-1.E0));
#817=DIRECTION('',(0.E0,-1.E0,0.E0));
#818=AXIS2_PLACEMENT_3D('',#815,#816,#817);
#819=CONICAL_SURFACE('',#818,7.999999997598E-1,4.5E1);
#821=ORIENTED_EDGE('',*,*,#820,.T.);
#823=ORIENTED_EDGE('',*,*,#822,.T.);
#824=ORIENTED_EDGE('',*,*,#805,.F.);
#826=ORIENTED_EDGE('',*,*,#825,.F.);
#827=EDGE_LOOP('',(#821,#823,#824,#826));
#828=FACE_OUTER_BOUND('',#827,.F.);
#829=ADVANCED_FACE('',(#828),#819,.T.);
#830=CARTESIAN_POINT('',(0.E0,0.E0,1.E1));
#831=DIRECTION('',(0.E0,0.E0,1.E0));
#832=DIRECTION('',(1.E0,0.E0,0.E0));
#833=AXIS2_PLACEMENT_3D('',#830,#831,#832);
#834=PLANE('',#833);
#836=ORIENTED_EDGE('',*,*,#835,.F.);
#837=ORIENTED_EDGE('',*,*,#820,.F.);
#838=EDGE_LOOP('',(#836,#837));
#839=FACE_OUTER_BOUND('',#838,.F.);
#840=ADVANCED_FACE('',(#839),#834,.T.);
#841=CARTESIAN_POINT('',(0.E0,0.E0,1.E1));
#842=DIRECTION('',(0.E0,0.E0,1.E0));
#843=DIRECTION('',(1.E0,0.E0,0.E0));
#844=AXIS2_PLACEMENT_3D('',#841,#842,#843);
#845=PLANE('',#844);
#847=ORIENTED_EDGE('',*,*,#846,.F.);
#849=ORIENTED_EDGE('',*,*,#848,.F.);
#850=EDGE_LOOP('',(#847,#849));
#851=FACE_OUTER_BOUND('',#850,.F.);
#852=ADVANCED_FACE('',(#851),#845,.T.);
#853=CARTESIAN_POINT('',(-4.1E0,0.E0,9.800000000240E0));
#854=DIRECTION('',(0.E0,0.E0,-1.E0));
#855=DIRECTION('',(0.E0,-1.E0,0.E0));
#856=AXIS2_PLACEMENT_3D('',#853,#854,#855);
#857=CONICAL_SURFACE('',#856,7.999999997598E-1,4.5E1);
#858=ORIENTED_EDGE('',*,*,#835,.T.);
#859=ORIENTED_EDGE('',*,*,#825,.T.);
#861=ORIENTED_EDGE('',*,*,#860,.F.);
#862=ORIENTED_EDGE('',*,*,#822,.F.);
#863=EDGE_LOOP('',(#858,#859,#861,#862));
#864=FACE_OUTER_BOUND('',#863,.F.);
#865=ADVANCED_FACE('',(#864),#857,.T.);
#866=CARTESIAN_POINT('',(-4.1E0,0.E0,0.E0));
#867=DIRECTION('',(0.E0,0.E0,1.E0));
#868=DIRECTION('',(1.E0,0.E0,0.E0));
#869=AXIS2_PLACEMENT_3D('',#866,#867,#868);
#870=CYLINDRICAL_SURFACE('',#869,1.E0);
#871=ORIENTED_EDGE('',*,*,#860,.T.);
#872=ORIENTED_EDGE('',*,*,#810,.F.);
#873=ORIENTED_EDGE('',*,*,#795,.F.);
#874=ORIENTED_EDGE('',*,*,#807,.T.);
#875=EDGE_LOOP('',(#871,#872,#873,#874));
#876=FACE_OUTER_BOUND('',#875,.F.);
#877=ADVANCED_FACE('',(#876),#870,.T.);
#878=CARTESIAN_POINT('',(4.1E0,0.E0,9.800000000240E0));
#879=DIRECTION('',(0.E0,0.E0,-1.E0));
#880=DIRECTION('',(0.E0,-1.E0,0.E0));
#881=AXIS2_PLACEMENT_3D('',#878,#879,#880);
#882=CONICAL_SURFACE('',#881,7.999999997598E-1,4.5E1);
#883=ORIENTED_EDGE('',*,*,#846,.T.);
#885=ORIENTED_EDGE('',*,*,#884,.T.);
#887=ORIENTED_EDGE('',*,*,#886,.F.);
#889=ORIENTED_EDGE('',*,*,#888,.F.);
#890=EDGE_LOOP('',(#883,#885,#887,#889));
#891=FACE_OUTER_BOUND('',#890,.F.);
#892=ADVANCED_FACE('',(#891),#882,.T.);
#893=CARTESIAN_POINT('',(4.1E0,0.E0,9.800000000240E0));
#894=DIRECTION('',(0.E0,0.E0,-1.E0));
#895=DIRECTION('',(0.E0,-1.E0,0.E0));
#896=AXIS2_PLACEMENT_3D('',#893,#894,#895);
#897=CONICAL_SURFACE('',#896,7.999999997598E-1,4.5E1);
#898=ORIENTED_EDGE('',*,*,#848,.T.);
#899=ORIENTED_EDGE('',*,*,#888,.T.);
#901=ORIENTED_EDGE('',*,*,#900,.F.);
#902=ORIENTED_EDGE('',*,*,#884,.F.);
#903=EDGE_LOOP('',(#898,#899,#901,#902));
#904=FACE_OUTER_BOUND('',#903,.F.);
#905=ADVANCED_FACE('',(#904),#897,.T.);
#906=CARTESIAN_POINT('',(4.1E0,0.E0,0.E0));
#907=DIRECTION('',(0.E0,0.E0,1.E0));
#908=DIRECTION('',(1.E0,0.E0,0.E0));
#909=AXIS2_PLACEMENT_3D('',#906,#907,#908);
#910=CYLINDRICAL_SURFACE('',#909,1.E0);
#911=ORIENTED_EDGE('',*,*,#900,.T.);
#913=ORIENTED_EDGE('',*,*,#912,.F.);
#914=ORIENTED_EDGE('',*,*,#771,.F.);
#916=ORIENTED_EDGE('',*,*,#915,.T.);
#917=EDGE_LOOP('',(#911,#913,#914,#916));
#918=FACE_OUTER_BOUND('',#917,.F.);
#919=ADVANCED_FACE('',(#918),#910,.T.);
#920=CARTESIAN_POINT('',(4.1E0,0.E0,0.E0));
#921=DIRECTION('',(0.E0,0.E0,1.E0));
#922=DIRECTION('',(1.E0,0.E0,0.E0));
#923=AXIS2_PLACEMENT_3D('',#920,#921,#922);
#924=CYLINDRICAL_SURFACE('',#923,1.E0);
#925=ORIENTED_EDGE('',*,*,#886,.T.);
#926=ORIENTED_EDGE('',*,*,#915,.F.);
#927=ORIENTED_EDGE('',*,*,#773,.F.);
#928=ORIENTED_EDGE('',*,*,#912,.T.);
#929=EDGE_LOOP('',(#925,#926,#927,#928));
#930=FACE_OUTER_BOUND('',#929,.F.);
#931=ADVANCED_FACE('',(#930),#924,.T.);
#932=CARTESIAN_POINT('',(2.E0,-3.E0,0.E0));
#933=DIRECTION('',(1.E0,0.E0,0.E0));
#934=DIRECTION('',(0.E0,1.E0,0.E0));
#935=AXIS2_PLACEMENT_3D('',#932,#933,#934);
#936=PLANE('',#935);
#938=ORIENTED_EDGE('',*,*,#937,.T.);
#940=ORIENTED_EDGE('',*,*,#939,.T.);
#942=ORIENTED_EDGE('',*,*,#941,.F.);
#944=ORIENTED_EDGE('',*,*,#943,.T.);
#946=ORIENTED_EDGE('',*,*,#945,.T.);
#948=ORIENTED_EDGE('',*,*,#947,.F.);
#950=ORIENTED_EDGE('',*,*,#949,.T.);
#952=ORIENTED_EDGE('',*,*,#951,.T.);
#954=ORIENTED_EDGE('',*,*,#953,.F.);
#956=ORIENTED_EDGE('',*,*,#955,.T.);
#958=ORIENTED_EDGE('',*,*,#957,.T.);
#960=ORIENTED_EDGE('',*,*,#959,.F.);
#962=ORIENTED_EDGE('',*,*,#961,.T.);
#964=ORIENTED_EDGE('',*,*,#963,.T.);
#966=ORIENTED_EDGE('',*,*,#965,.F.);
#968=ORIENTED_EDGE('',*,*,#967,.T.);
#970=ORIENTED_EDGE('',*,*,#969,.F.);
#972=ORIENTED_EDGE('',*,*,#971,.F.);
#974=ORIENTED_EDGE('',*,*,#973,.T.);
#975=ORIENTED_EDGE('',*,*,#761,.F.);
#977=ORIENTED_EDGE('',*,*,#976,.F.);
#979=ORIENTED_EDGE('',*,*,#978,.F.);
#981=ORIENTED_EDGE('',*,*,#980,.T.);
#982=EDGE_LOOP('',(#938,#940,#942,#944,#946,#948,#950,#952,#954,#956,#958,#960,
#962,#964,#966,#968,#970,#972,#974,#975,#977,#979,#981));
#983=FACE_OUTER_BOUND('',#982,.F.);
#984=ADVANCED_FACE('',(#983),#936,.T.);
#985=CARTESIAN_POINT('',(2.E0,3.E0,1.458E1));
#986=DIRECTION('',(0.E0,0.E0,-1.E0));
#987=DIRECTION('',(-1.E0,0.E0,0.E0));
#988=AXIS2_PLACEMENT_3D('',#985,#986,#987);
#989=PLANE('',#988);
#990=ORIENTED_EDGE('',*,*,#937,.F.);
#992=ORIENTED_EDGE('',*,*,#991,.T.);
#994=ORIENTED_EDGE('',*,*,#993,.F.);
#995=EDGE_LOOP('',(#990,#992,#994));
#996=FACE_OUTER_BOUND('',#995,.F.);
#997=ADVANCED_FACE('',(#996),#989,.F.);
#998=CARTESIAN_POINT('',(2.E0,3.E0,1.458E1));
#999=DIRECTION('',(0.E0,0.E0,-1.E0));
#1000=DIRECTION('',(-1.E0,0.E0,0.E0));
#1001=AXIS2_PLACEMENT_3D('',#998,#999,#1000);
#1002=PLANE('',#1001);
#1003=ORIENTED_EDGE('',*,*,#943,.F.);
#1005=ORIENTED_EDGE('',*,*,#1004,.T.);
#1007=ORIENTED_EDGE('',*,*,#1006,.F.);
#1008=EDGE_LOOP('',(#1003,#1005,#1007));
#1009=FACE_OUTER_BOUND('',#1008,.F.);
#1010=ADVANCED_FACE('',(#1009),#1002,.F.);
#1011=CARTESIAN_POINT('',(2.E0,3.E0,1.458E1));
#1012=DIRECTION('',(0.E0,0.E0,-1.E0));
#1013=DIRECTION('',(-1.E0,0.E0,0.E0));
#1014=AXIS2_PLACEMENT_3D('',#1011,#1012,#1013);
#1015=PLANE('',#1014);
#1017=ORIENTED_EDGE('',*,*,#1016,.F.);
#1019=ORIENTED_EDGE('',*,*,#1018,.F.);
#1021=ORIENTED_EDGE('',*,*,#1020,.T.);
#1022=EDGE_LOOP('',(#1017,#1019,#1021));
#1023=FACE_OUTER_BOUND('',#1022,.F.);
#1024=ADVANCED_FACE('',(#1023),#1015,.F.);
#1025=CARTESIAN_POINT('',(2.E0,3.E0,1.458E1));
#1026=DIRECTION('',(0.E0,0.E0,-1.E0));
#1027=DIRECTION('',(-1.E0,0.E0,0.E0));
#1028=AXIS2_PLACEMENT_3D('',#1025,#1026,#1027);
#1029=PLANE('',#1028);
#1031=ORIENTED_EDGE('',*,*,#1030,.F.);
#1033=ORIENTED_EDGE('',*,*,#1032,.F.);
#1035=ORIENTED_EDGE('',*,*,#1034,.T.);
#1036=EDGE_LOOP('',(#1031,#1033,#1035));
#1037=FACE_OUTER_BOUND('',#1036,.F.);
#1038=ADVANCED_FACE('',(#1037),#1029,.F.);
#1039=CARTESIAN_POINT('',(2.E0,3.E0,1.458E1));
#1040=DIRECTION('',(0.E0,0.E0,-1.E0));
#1041=DIRECTION('',(-1.E0,0.E0,0.E0));
#1042=AXIS2_PLACEMENT_3D('',#1039,#1040,#1041);
#1043=PLANE('',#1042);
#1045=ORIENTED_EDGE('',*,*,#1044,.T.);
#1047=ORIENTED_EDGE('',*,*,#1046,.F.);
#1049=ORIENTED_EDGE('',*,*,#1048,.F.);
#1050=EDGE_LOOP('',(#1045,#1047,#1049));
#1051=FACE_OUTER_BOUND('',#1050,.F.);
#1052=ADVANCED_FACE('',(#1051),#1043,.F.);
#1053=CARTESIAN_POINT('',(2.E0,3.E0,1.458E1));
#1054=DIRECTION('',(0.E0,0.E0,-1.E0));
#1055=DIRECTION('',(-1.E0,0.E0,0.E0));
#1056=AXIS2_PLACEMENT_3D('',#1053,#1054,#1055);
#1057=PLANE('',#1056);
#1058=ORIENTED_EDGE('',*,*,#949,.F.);
#1060=ORIENTED_EDGE('',*,*,#1059,.T.);
#1062=ORIENTED_EDGE('',*,*,#1061,.F.);
#1063=EDGE_LOOP('',(#1058,#1060,#1062));
#1064=FACE_OUTER_BOUND('',#1063,.F.);
#1065=ADVANCED_FACE('',(#1064),#1057,.F.);
#1066=CARTESIAN_POINT('',(2.E0,3.E0,1.458E1));
#1067=DIRECTION('',(0.E0,0.E0,-1.E0));
#1068=DIRECTION('',(-1.E0,0.E0,0.E0));
#1069=AXIS2_PLACEMENT_3D('',#1066,#1067,#1068);
#1070=PLANE('',#1069);
#1071=ORIENTED_EDGE('',*,*,#955,.F.);
#1073=ORIENTED_EDGE('',*,*,#1072,.T.);
#1075=ORIENTED_EDGE('',*,*,#1074,.F.);
#1076=EDGE_LOOP('',(#1071,#1073,#1075));
#1077=FACE_OUTER_BOUND('',#1076,.F.);
#1078=ADVANCED_FACE('',(#1077),#1070,.F.);
#1079=CARTESIAN_POINT('',(2.E0,3.E0,1.458E1));
#1080=DIRECTION('',(0.E0,0.E0,-1.E0));
#1081=DIRECTION('',(-1.E0,0.E0,0.E0));
#1082=AXIS2_PLACEMENT_3D('',#1079,#1080,#1081);
#1083=PLANE('',#1082);
#1085=ORIENTED_EDGE('',*,*,#1084,.F.);
#1087=ORIENTED_EDGE('',*,*,#1086,.F.);
#1089=ORIENTED_EDGE('',*,*,#1088,.T.);
#1090=EDGE_LOOP('',(#1085,#1087,#1089));
#1091=FACE_OUTER_BOUND('',#1090,.F.);
#1092=ADVANCED_FACE('',(#1091),#1083,.F.);
#1093=CARTESIAN_POINT('',(2.E0,3.E0,1.458E1));
#1094=DIRECTION('',(0.E0,0.E0,-1.E0));
#1095=DIRECTION('',(-1.E0,0.E0,0.E0));
#1096=AXIS2_PLACEMENT_3D('',#1093,#1094,#1095);
#1097=PLANE('',#1096);
#1099=ORIENTED_EDGE('',*,*,#1098,.F.);
#1101=ORIENTED_EDGE('',*,*,#1100,.F.);
#1103=ORIENTED_EDGE('',*,*,#1102,.T.);
#1104=EDGE_LOOP('',(#1099,#1101,#1103));
#1105=FACE_OUTER_BOUND('',#1104,.F.);
#1106=ADVANCED_FACE('',(#1105),#1097,.F.);
#1107=CARTESIAN_POINT('',(2.E0,3.E0,1.458E1));
#1108=DIRECTION('',(0.E0,0.E0,-1.E0));
#1109=DIRECTION('',(-1.E0,0.E0,0.E0));
#1110=AXIS2_PLACEMENT_3D('',#1107,#1108,#1109);
#1111=PLANE('',#1110);
#1113=ORIENTED_EDGE('',*,*,#1112,.T.);
#1115=ORIENTED_EDGE('',*,*,#1114,.F.);
#1117=ORIENTED_EDGE('',*,*,#1116,.F.);
#1118=EDGE_LOOP('',(#1113,#1115,#1117));
#1119=FACE_OUTER_BOUND('',#1118,.F.);
#1120=ADVANCED_FACE('',(#1119),#1111,.F.);
#1121=CARTESIAN_POINT('',(2.E0,3.E0,1.458E1));
#1122=DIRECTION('',(0.E0,0.E0,-1.E0));
#1123=DIRECTION('',(-1.E0,0.E0,0.E0));
#1124=AXIS2_PLACEMENT_3D('',#1121,#1122,#1123);
#1125=PLANE('',#1124);
#1127=ORIENTED_EDGE('',*,*,#1126,.T.);
#1129=ORIENTED_EDGE('',*,*,#1128,.F.);
#1130=ORIENTED_EDGE('',*,*,#961,.F.);
#1131=EDGE_LOOP('',(#1127,#1129,#1130));
#1132=FACE_OUTER_BOUND('',#1131,.F.);
#1133=ADVANCED_FACE('',(#1132),#1125,.F.);
#1134=CARTESIAN_POINT('',(2.E0,3.E0,1.458E1));
#1135=DIRECTION('',(0.E0,0.E0,-1.E0));
#1136=DIRECTION('',(-1.E0,0.E0,0.E0));
#1137=AXIS2_PLACEMENT_3D('',#1134,#1135,#1136);
#1138=PLANE('',#1137);
#1140=ORIENTED_EDGE('',*,*,#1139,.T.);
#1142=ORIENTED_EDGE('',*,*,#1141,.F.);
#1143=ORIENTED_EDGE('',*,*,#967,.F.);
#1144=EDGE_LOOP('',(#1140,#1142,#1143));
#1145=FACE_OUTER_BOUND('',#1144,.F.);
#1146=ADVANCED_FACE('',(#1145),#1138,.F.);
#1147=CARTESIAN_POINT('',(-2.E0,-3.E0,0.E0));
#1148=DIRECTION('',(0.E0,-1.E0,0.E0));
#1149=DIRECTION('',(1.E0,0.E0,0.E0));
#1150=AXIS2_PLACEMENT_3D('',#1147,#1148,#1149);
#1151=PLANE('',#1150);
#1152=ORIENTED_EDGE('',*,*,#1044,.F.);
#1154=ORIENTED_EDGE('',*,*,#1153,.F.);
#1155=ORIENTED_EDGE('',*,*,#991,.F.);
#1156=ORIENTED_EDGE('',*,*,#980,.F.);
#1158=ORIENTED_EDGE('',*,*,#1157,.F.);
#1160=ORIENTED_EDGE('',*,*,#1159,.F.);
#1161=EDGE_LOOP('',(#1152,#1154,#1155,#1156,#1158,#1160));
#1162=FACE_OUTER_BOUND('',#1161,.F.);
#1163=ADVANCED_FACE('',(#1162),#1151,.T.);
#1164=CARTESIAN_POINT('',(0.E0,-2.539534078300E0,1.57E1));
#1165=DIRECTION('',(0.E0,1.E0,0.E0));
#1166=DIRECTION('',(0.E0,0.E0,-1.E0));
#1167=AXIS2_PLACEMENT_3D('',#1164,#1165,#1166);
#1168=CONICAL_SURFACE('',#1167,2.5E0,4.735704134881E1);
#1170=ORIENTED_EDGE('',*,*,#1169,.F.);
#1171=ORIENTED_EDGE('',*,*,#939,.F.);
#1172=ORIENTED_EDGE('',*,*,#993,.T.);
#1173=ORIENTED_EDGE('',*,*,#1153,.T.);
#1174=ORIENTED_EDGE('',*,*,#1048,.T.);
#1176=ORIENTED_EDGE('',*,*,#1175,.F.);
#1177=EDGE_LOOP('',(#1170,#1171,#1172,#1173,#1174,#1176));
#1178=FACE_OUTER_BOUND('',#1177,.F.);
#1179=ADVANCED_FACE('',(#1178),#1168,.F.);
#1180=CARTESIAN_POINT('',(0.E0,-1.814260471600E0,1.57E1));
#1181=DIRECTION('',(0.E0,-1.E0,0.E0));
#1182=DIRECTION('',(0.E0,0.E0,1.E0));
#1183=AXIS2_PLACEMENT_3D('',#1180,#1181,#1182);
#1184=CONICAL_SURFACE('',#1183,2.5E0,6.209361785982E1);
#1186=ORIENTED_EDGE('',*,*,#1185,.F.);
#1187=ORIENTED_EDGE('',*,*,#1004,.F.);
#1188=ORIENTED_EDGE('',*,*,#941,.T.);
#1189=ORIENTED_EDGE('',*,*,#1169,.T.);
#1191=ORIENTED_EDGE('',*,*,#1190,.T.);
#1192=ORIENTED_EDGE('',*,*,#1112,.F.);
#1193=EDGE_LOOP('',(#1186,#1187,#1188,#1189,#1191,#1192));
#1194=FACE_OUTER_BOUND('',#1193,.F.);
#1195=ADVANCED_FACE('',(#1194),#1184,.F.);
#1196=CARTESIAN_POINT('',(0.E0,-1.289441544805E0,1.57E1));
#1197=DIRECTION('',(0.E0,1.E0,0.E0));
#1198=DIRECTION('',(0.E0,0.E0,-1.E0));
#1199=AXIS2_PLACEMENT_3D('',#1196,#1197,#1198);
#1200=CONICAL_SURFACE('',#1199,2.5E0,6.252455436014E1);
#1202=ORIENTED_EDGE('',*,*,#1201,.F.);
#1203=ORIENTED_EDGE('',*,*,#945,.F.);
#1204=ORIENTED_EDGE('',*,*,#1006,.T.);
#1205=ORIENTED_EDGE('',*,*,#1185,.T.);
#1206=ORIENTED_EDGE('',*,*,#1116,.T.);
#1208=ORIENTED_EDGE('',*,*,#1207,.F.);
#1209=EDGE_LOOP('',(#1202,#1203,#1204,#1205,#1206,#1208));
#1210=FACE_OUTER_BOUND('',#1209,.F.);
#1211=ADVANCED_FACE('',(#1210),#1200,.F.);
#1212=CARTESIAN_POINT('',(0.E0,-7.945805107463E-1,1.57E1));
#1213=DIRECTION('',(0.E0,-1.E0,0.E0));
#1214=DIRECTION('',(0.E0,0.E0,1.E0));
#1215=AXIS2_PLACEMENT_3D('',#1212,#1213,#1214);
#1216=CONICAL_SURFACE('',#1215,2.5E0,6.484057534363E1);
#1218=ORIENTED_EDGE('',*,*,#1217,.F.);
#1219=ORIENTED_EDGE('',*,*,#1059,.F.);
#1220=ORIENTED_EDGE('',*,*,#947,.T.);
#1221=ORIENTED_EDGE('',*,*,#1201,.T.);
#1223=ORIENTED_EDGE('',*,*,#1222,.T.);
#1224=ORIENTED_EDGE('',*,*,#1102,.F.);
#1225=EDGE_LOOP('',(#1218,#1219,#1220,#1221,#1223,#1224));
#1226=FACE_OUTER_BOUND('',#1225,.F.);
#1227=ADVANCED_FACE('',(#1226),#1216,.F.);
#1228=CARTESIAN_POINT('',(0.E0,-2.798653592407E-1,1.57E1));
#1229=DIRECTION('',(0.E0,1.E0,0.E0));
#1230=DIRECTION('',(0.E0,0.E0,-1.E0));
#1231=AXIS2_PLACEMENT_3D('',#1228,#1229,#1230);
#1232=CONICAL_SURFACE('',#1231,2.5E0,6.076292036387E1);
#1234=ORIENTED_EDGE('',*,*,#1233,.F.);
#1235=ORIENTED_EDGE('',*,*,#951,.F.);
#1236=ORIENTED_EDGE('',*,*,#1061,.T.);
#1237=ORIENTED_EDGE('',*,*,#1217,.T.);
#1238=ORIENTED_EDGE('',*,*,#1100,.T.);
#1240=ORIENTED_EDGE('',*,*,#1239,.F.);
#1241=EDGE_LOOP('',(#1234,#1235,#1236,#1237,#1238,#1240));
#1242=FACE_OUTER_BOUND('',#1241,.F.);
#1243=ADVANCED_FACE('',(#1242),#1232,.F.);
#1244=CARTESIAN_POINT('',(0.E0,2.798653592407E-1,1.57E1));
#1245=DIRECTION('',(0.E0,-1.E0,0.E0));
#1246=DIRECTION('',(0.E0,0.E0,1.E0));
#1247=AXIS2_PLACEMENT_3D('',#1244,#1245,#1246);
#1248=CONICAL_SURFACE('',#1247,2.5E0,6.076292036387E1);
#1250=ORIENTED_EDGE('',*,*,#1249,.F.);
#1251=ORIENTED_EDGE('',*,*,#1072,.F.);
#1252=ORIENTED_EDGE('',*,*,#953,.T.);
#1253=ORIENTED_EDGE('',*,*,#1233,.T.);
#1255=ORIENTED_EDGE('',*,*,#1254,.T.);
#1256=ORIENTED_EDGE('',*,*,#1088,.F.);
#1257=EDGE_LOOP('',(#1250,#1251,#1252,#1253,#1255,#1256));
#1258=FACE_OUTER_BOUND('',#1257,.F.);
#1259=ADVANCED_FACE('',(#1258),#1248,.F.);
#1260=CARTESIAN_POINT('',(0.E0,7.945805107463E-1,1.57E1));
#1261=DIRECTION('',(0.E0,1.E0,0.E0));
#1262=DIRECTION('',(0.E0,0.E0,-1.E0));
#1263=AXIS2_PLACEMENT_3D('',#1260,#1261,#1262);
#1264=CONICAL_SURFACE('',#1263,2.5E0,6.484057534363E1);
#1266=ORIENTED_EDGE('',*,*,#1265,.F.);
#1267=ORIENTED_EDGE('',*,*,#957,.F.);
#1268=ORIENTED_EDGE('',*,*,#1074,.T.);
#1269=ORIENTED_EDGE('',*,*,#1249,.T.);
#1270=ORIENTED_EDGE('',*,*,#1086,.T.);
#1272=ORIENTED_EDGE('',*,*,#1271,.F.);
#1273=EDGE_LOOP('',(#1266,#1267,#1268,#1269,#1270,#1272));
#1274=FACE_OUTER_BOUND('',#1273,.F.);
#1275=ADVANCED_FACE('',(#1274),#1264,.F.);
#1276=CARTESIAN_POINT('',(0.E0,1.289441544805E0,1.57E1));
#1277=DIRECTION('',(0.E0,-1.E0,0.E0));
#1278=DIRECTION('',(0.E0,0.E0,1.E0));
#1279=AXIS2_PLACEMENT_3D('',#1276,#1277,#1278);
#1280=CONICAL_SURFACE('',#1279,2.5E0,6.252455436014E1);
#1282=ORIENTED_EDGE('',*,*,#1281,.F.);
#1283=ORIENTED_EDGE('',*,*,#1126,.F.);
#1284=ORIENTED_EDGE('',*,*,#959,.T.);
#1285=ORIENTED_EDGE('',*,*,#1265,.T.);
#1287=ORIENTED_EDGE('',*,*,#1286,.T.);
#1288=ORIENTED_EDGE('',*,*,#1034,.F.);
#1289=EDGE_LOOP('',(#1282,#1283,#1284,#1285,#1287,#1288));
#1290=FACE_OUTER_BOUND('',#1289,.F.);
#1291=ADVANCED_FACE('',(#1290),#1280,.F.);
#1292=CARTESIAN_POINT('',(0.E0,1.814260471600E0,1.57E1));
#1293=DIRECTION('',(0.E0,1.E0,0.E0));
#1294=DIRECTION('',(0.E0,0.E0,-1.E0));
#1295=AXIS2_PLACEMENT_3D('',#1292,#1293,#1294);
#1296=CONICAL_SURFACE('',#1295,2.5E0,6.209361785982E1);
#1298=ORIENTED_EDGE('',*,*,#1297,.F.);
#1299=ORIENTED_EDGE('',*,*,#963,.F.);
#1300=ORIENTED_EDGE('',*,*,#1128,.T.);
#1301=ORIENTED_EDGE('',*,*,#1281,.T.);
#1302=ORIENTED_EDGE('',*,*,#1032,.T.);
#1304=ORIENTED_EDGE('',*,*,#1303,.F.);
#1305=EDGE_LOOP('',(#1298,#1299,#1300,#1301,#1302,#1304));
#1306=FACE_OUTER_BOUND('',#1305,.F.);
#1307=ADVANCED_FACE('',(#1306),#1296,.F.);
#1308=CARTESIAN_POINT('',(0.E0,2.539534078300E0,1.57E1));
#1309=DIRECTION('',(0.E0,-1.E0,0.E0));
#1310=DIRECTION('',(0.E0,0.E0,1.E0));
#1311=AXIS2_PLACEMENT_3D('',#1308,#1309,#1310);
#1312=CONICAL_SURFACE('',#1311,2.5E0,4.735704134881E1);
#1314=ORIENTED_EDGE('',*,*,#1313,.T.);
#1315=ORIENTED_EDGE('',*,*,#1139,.F.);
#1316=ORIENTED_EDGE('',*,*,#965,.T.);
#1317=ORIENTED_EDGE('',*,*,#1297,.T.);
#1319=ORIENTED_EDGE('',*,*,#1318,.T.);
#1320=ORIENTED_EDGE('',*,*,#1020,.F.);
#1321=EDGE_LOOP('',(#1314,#1315,#1316,#1317,#1319,#1320));
#1322=FACE_OUTER_BOUND('',#1321,.F.);
#1323=ADVANCED_FACE('',(#1322),#1312,.F.);
#1324=CARTESIAN_POINT('',(2.E0,3.E0,0.E0));
#1325=DIRECTION('',(0.E0,1.E0,0.E0));
#1326=DIRECTION('',(-1.E0,0.E0,0.E0));
#1327=AXIS2_PLACEMENT_3D('',#1324,#1325,#1326);
#1328=PLANE('',#1327);
#1329=ORIENTED_EDGE('',*,*,#1313,.F.);
#1330=ORIENTED_EDGE('',*,*,#1018,.T.);
#1332=ORIENTED_EDGE('',*,*,#1331,.F.);
#1334=ORIENTED_EDGE('',*,*,#1333,.T.);
#1335=ORIENTED_EDGE('',*,*,#969,.T.);
#1336=ORIENTED_EDGE('',*,*,#1141,.T.);
#1337=EDGE_LOOP('',(#1329,#1330,#1332,#1334,#1335,#1336));
#1338=FACE_OUTER_BOUND('',#1337,.F.);
#1339=ADVANCED_FACE('',(#1338),#1328,.T.);
#1340=CARTESIAN_POINT('',(-2.E0,-1.5E0,0.E0));
#1341=DIRECTION('',(-1.E0,0.E0,0.E0));
#1342=DIRECTION('',(0.E0,-1.E0,0.E0));
#1343=AXIS2_PLACEMENT_3D('',#1340,#1341,#1342);
#1344=PLANE('',#1343);
#1345=ORIENTED_EDGE('',*,*,#1016,.T.);
#1346=ORIENTED_EDGE('',*,*,#1318,.F.);
#1347=ORIENTED_EDGE('',*,*,#1303,.T.);
#1348=ORIENTED_EDGE('',*,*,#1030,.T.);
#1349=ORIENTED_EDGE('',*,*,#1286,.F.);
#1350=ORIENTED_EDGE('',*,*,#1271,.T.);
#1351=ORIENTED_EDGE('',*,*,#1084,.T.);
#1352=ORIENTED_EDGE('',*,*,#1254,.F.);
#1353=ORIENTED_EDGE('',*,*,#1239,.T.);
#1354=ORIENTED_EDGE('',*,*,#1098,.T.);
#1355=ORIENTED_EDGE('',*,*,#1222,.F.);
#1356=ORIENTED_EDGE('',*,*,#1207,.T.);
#1357=ORIENTED_EDGE('',*,*,#1114,.T.);
#1358=ORIENTED_EDGE('',*,*,#1190,.F.);
#1359=ORIENTED_EDGE('',*,*,#1175,.T.);
#1360=ORIENTED_EDGE('',*,*,#1046,.T.);
#1361=ORIENTED_EDGE('',*,*,#1159,.T.);
#1363=ORIENTED_EDGE('',*,*,#1362,.T.);
#1365=ORIENTED_EDGE('',*,*,#1364,.T.);
#1366=ORIENTED_EDGE('',*,*,#783,.T.);
#1368=ORIENTED_EDGE('',*,*,#1367,.F.);
#1370=ORIENTED_EDGE('',*,*,#1369,.T.);
#1371=ORIENTED_EDGE('',*,*,#1331,.T.);
#1372=EDGE_LOOP('',(#1345,#1346,#1347,#1348,#1349,#1350,#1351,#1352,#1353,#1354,
#1355,#1356,#1357,#1358,#1359,#1360,#1361,#1363,#1365,#1366,#1368,#1370,#1371));
#1373=FACE_OUTER_BOUND('',#1372,.F.);
#1374=ADVANCED_FACE('',(#1373),#1344,.T.);
#1375=CARTESIAN_POINT('',(-1.E1,0.E0,3.5E0));
#1376=DIRECTION('',(1.E0,0.E0,0.E0));
#1377=DIRECTION('',(0.E0,0.E0,-1.E0));
#1378=AXIS2_PLACEMENT_3D('',#1375,#1376,#1377);
#1379=CYLINDRICAL_SURFACE('',#1378,3.5E0);
#1381=ORIENTED_EDGE('',*,*,#1380,.F.);
#1383=ORIENTED_EDGE('',*,*,#1382,.T.);
#1384=ORIENTED_EDGE('',*,*,#1362,.F.);
#1385=ORIENTED_EDGE('',*,*,#1157,.T.);
#1386=ORIENTED_EDGE('',*,*,#978,.T.);
#1388=ORIENTED_EDGE('',*,*,#1387,.T.);
#1390=ORIENTED_EDGE('',*,*,#1389,.F.);
#1392=ORIENTED_EDGE('',*,*,#1391,.F.);
#1393=ORIENTED_EDGE('',*,*,#971,.T.);
#1394=ORIENTED_EDGE('',*,*,#1333,.F.);
#1395=ORIENTED_EDGE('',*,*,#1369,.F.);
#1397=ORIENTED_EDGE('',*,*,#1396,.F.);
#1398=EDGE_LOOP('',(#1381,#1383,#1384,#1385,#1386,#1388,#1390,#1392,#1393,#1394,
#1395,#1397));
#1399=FACE_OUTER_BOUND('',#1398,.F.);
#1400=ADVANCED_FACE('',(#1399),#1379,.T.);
#1401=CARTESIAN_POINT('',(-5.87E0,1.5E0,0.E0));
#1402=DIRECTION('',(-1.E0,0.E0,0.E0));
#1403=DIRECTION('',(0.E0,-1.E0,0.E0));
#1404=AXIS2_PLACEMENT_3D('',#1401,#1402,#1403);
#1405=PLANE('',#1404);
#1406=ORIENTED_EDGE('',*,*,#1380,.T.);
#1408=ORIENTED_EDGE('',*,*,#1407,.T.);
#1409=ORIENTED_EDGE('',*,*,#787,.T.);
#1411=ORIENTED_EDGE('',*,*,#1410,.F.);
#1412=EDGE_LOOP('',(#1406,#1408,#1409,#1411));
#1413=FACE_OUTER_BOUND('',#1412,.F.);
#1414=ADVANCED_FACE('',(#1413),#1405,.T.);
#1415=CARTESIAN_POINT('',(-2.E0,1.5E0,0.E0));
#1416=DIRECTION('',(0.E0,1.E0,0.E0));
#1417=DIRECTION('',(-1.E0,0.E0,0.E0));
#1418=AXIS2_PLACEMENT_3D('',#1415,#1416,#1417);
#1419=PLANE('',#1418);
#1420=ORIENTED_EDGE('',*,*,#1396,.T.);
#1421=ORIENTED_EDGE('',*,*,#1367,.T.);
#1422=ORIENTED_EDGE('',*,*,#789,.T.);
#1423=ORIENTED_EDGE('',*,*,#1407,.F.);
#1424=EDGE_LOOP('',(#1420,#1421,#1422,#1423));
#1425=FACE_OUTER_BOUND('',#1424,.F.);
#1426=ADVANCED_FACE('',(#1425),#1419,.T.);
#1427=CARTESIAN_POINT('',(-5.87E0,-1.5E0,0.E0));
#1428=DIRECTION('',(0.E0,-1.E0,0.E0));
#1429=DIRECTION('',(1.E0,0.E0,0.E0));
#1430=AXIS2_PLACEMENT_3D('',#1427,#1428,#1429);
#1431=PLANE('',#1430);
#1432=ORIENTED_EDGE('',*,*,#1382,.F.);
#1433=ORIENTED_EDGE('',*,*,#1410,.T.);
#1434=ORIENTED_EDGE('',*,*,#785,.T.);
#1435=ORIENTED_EDGE('',*,*,#1364,.F.);
#1436=EDGE_LOOP('',(#1432,#1433,#1434,#1435));
#1437=FACE_OUTER_BOUND('',#1436,.F.);
#1438=ADVANCED_FACE('',(#1437),#1431,.T.);
#1439=CARTESIAN_POINT('',(2.E0,-1.5E0,0.E0));
#1440=DIRECTION('',(0.E0,-1.E0,0.E0));
#1441=DIRECTION('',(1.E0,0.E0,0.E0));
#1442=AXIS2_PLACEMENT_3D('',#1439,#1440,#1441);
#1443=PLANE('',#1442);
#1444=ORIENTED_EDGE('',*,*,#1387,.F.);
#1445=ORIENTED_EDGE('',*,*,#976,.T.);
#1446=ORIENTED_EDGE('',*,*,#767,.T.);
#1448=ORIENTED_EDGE('',*,*,#1447,.F.);
#1449=EDGE_LOOP('',(#1444,#1445,#1446,#1448));
#1450=FACE_OUTER_BOUND('',#1449,.F.);
#1451=ADVANCED_FACE('',(#1450),#1443,.T.);
#1452=CARTESIAN_POINT('',(5.87E0,-1.5E0,0.E0));
#1453=DIRECTION('',(1.E0,0.E0,0.E0));
#1454=DIRECTION('',(0.E0,1.E0,0.E0));
#1455=AXIS2_PLACEMENT_3D('',#1452,#1453,#1454);
#1456=PLANE('',#1455);
#1457=ORIENTED_EDGE('',*,*,#1389,.T.);
#1458=ORIENTED_EDGE('',*,*,#1447,.T.);
#1459=ORIENTED_EDGE('',*,*,#765,.T.);
#1461=ORIENTED_EDGE('',*,*,#1460,.F.);
#1462=EDGE_LOOP('',(#1457,#1458,#1459,#1461));
#1463=FACE_OUTER_BOUND('',#1462,.F.);
#1464=ADVANCED_FACE('',(#1463),#1456,.T.);
#1465=CARTESIAN_POINT('',(5.87E0,1.5E0,0.E0));
#1466=DIRECTION('',(0.E0,1.E0,0.E0));
#1467=DIRECTION('',(-1.E0,0.E0,0.E0));
#1468=AXIS2_PLACEMENT_3D('',#1465,#1466,#1467);
#1469=PLANE('',#1468);
#1470=ORIENTED_EDGE('',*,*,#1391,.T.);
#1471=ORIENTED_EDGE('',*,*,#1460,.T.);
#1472=ORIENTED_EDGE('',*,*,#763,.T.);
#1473=ORIENTED_EDGE('',*,*,#973,.F.);
#1474=EDGE_LOOP('',(#1470,#1471,#1472,#1473));
#1475=FACE_OUTER_BOUND('',#1474,.F.);
#1476=ADVANCED_FACE('',(#1475),#1469,.T.);
#1477=CLOSED_SHELL('',(#777,#799,#814,#829,#840,#852,#865,#877,#892,#905,#919,
#931,#984,#997,#1010,#1024,#1038,#1052,#1065,#1078,#1092,#1106,#1120,#1133,
#1146,#1163,#1179,#1195,#1211,#1227,#1243,#1259,#1275,#1291,#1307,#1323,#1339,
#1374,#1400,#1414,#1426,#1438,#1451,#1464,#1476));
#1478=MANIFOLD_SOLID_BREP('',#1477);
#1480=DIMENSIONAL_EXPONENTS(0.E0,0.E0,0.E0,0.E0,0.E0,0.E0,0.E0);
#1482=PLANE_ANGLE_MEASURE_WITH_UNIT(PLANE_ANGLE_MEASURE(1.745329251994E-2),
#1481);
#1483=(CONVERSION_BASED_UNIT('DEGREE',#1482)NAMED_UNIT(*)PLANE_ANGLE_UNIT());
#1485=UNCERTAINTY_MEASURE_WITH_UNIT(LENGTH_MEASURE(2.411449227560E-3),#1479,
'closure',
'Maximum model space distance between geometric entities at asserted connectivities');
#1486=(GEOMETRIC_REPRESENTATION_CONTEXT(3)GLOBAL_UNCERTAINTY_ASSIGNED_CONTEXT((
#1485))GLOBAL_UNIT_ASSIGNED_CONTEXT((#1479,#1483,#1484))REPRESENTATION_CONTEXT(
'ID1','3'));
#1488=APPLICATION_CONTEXT(
'CONFIGURATION CONTROLLED 3D DESIGNS OF MECHANICAL PARTS AND ASSEMBLIES');
#1489=APPLICATION_PROTOCOL_DEFINITION('international standard',
'config_control_design',1994,#1488);
#1490=DESIGN_CONTEXT('',#1488,'design');
#1491=MECHANICAL_CONTEXT('',#1488,'mechanical');
#1492=PRODUCT('BRAKE2-1','BRAKE2-1','NOT SPECIFIED',(#1491));
#1493=PRODUCT_DEFINITION_FORMATION_WITH_SPECIFIED_SOURCE('3','LAST_VERSION',
#1492,.MADE.);
#1497=PRODUCT_CATEGORY('part','');
#1498=PRODUCT_RELATED_PRODUCT_CATEGORY('detail','',(#1492));
#1499=PRODUCT_CATEGORY_RELATIONSHIP('','',#1497,#1498);
#1500=SECURITY_CLASSIFICATION_LEVEL('unclassified');
#1501=SECURITY_CLASSIFICATION('','',#1500);
#1502=CC_DESIGN_SECURITY_CLASSIFICATION(#1501,(#1493));
#1503=APPROVAL_STATUS('approved');
#1504=APPROVAL(#1503,'');
#1505=CC_DESIGN_APPROVAL(#1504,(#1501,#1493,#1494));
#1506=CALENDAR_DATE(126,11,8);
#1507=COORDINATED_UNIVERSAL_TIME_OFFSET(8,0,.AHEAD.);
#1508=LOCAL_TIME(15,36,3.3E1,#1507);
#1509=DATE_AND_TIME(#1506,#1508);
#1510=APPROVAL_DATE_TIME(#1509,#1504);
#1511=DATE_TIME_ROLE('creation_date');
#1512=CC_DESIGN_DATE_AND_TIME_ASSIGNMENT(#1509,#1511,(#1494));
#1513=DATE_TIME_ROLE('classification_date');
#1514=CC_DESIGN_DATE_AND_TIME_ASSIGNMENT(#1509,#1513,(#1501));
#1515=PERSON('UNSPECIFIED','UNSPECIFIED',$,$,$,$);
#1516=ORGANIZATION('UNSPECIFIED','UNSPECIFIED','UNSPECIFIED');
#1517=PERSON_AND_ORGANIZATION(#1515,#1516);
#1518=APPROVAL_ROLE('approver');
#1519=APPROVAL_PERSON_ORGANIZATION(#1517,#1504,#1518);
#1520=PERSON_AND_ORGANIZATION_ROLE('creator');
#1521=CC_DESIGN_PERSON_AND_ORGANIZATION_ASSIGNMENT(#1517,#1520,(#1493,#1494));
#1522=PERSON_AND_ORGANIZATION_ROLE('design_supplier');
#1523=CC_DESIGN_PERSON_AND_ORGANIZATION_ASSIGNMENT(#1517,#1522,(#1493));
#1524=PERSON_AND_ORGANIZATION_ROLE('classification_officer');
#1525=CC_DESIGN_PERSON_AND_ORGANIZATION_ASSIGNMENT(#1517,#1524,(#1501));
#1526=PERSON_AND_ORGANIZATION_ROLE('design_owner');
#1527=CC_DESIGN_PERSON_AND_ORGANIZATION_ASSIGNMENT(#1517,#1526,(#1492));
#5=CIRCLE('',#4,1.E0);
#10=CIRCLE('',#9,1.E0);
#15=CIRCLE('',#14,1.E0);
#20=CIRCLE('',#19,1.E0);
#57=CIRCLE('',#56,1.E0);
#70=CIRCLE('',#69,6.E-1);
#75=CIRCLE('',#74,6.E-1);
#80=CIRCLE('',#79,6.E-1);
#85=CIRCLE('',#84,6.E-1);
#94=CIRCLE('',#93,1.E0);
#111=CIRCLE('',#110,1.E0);
#120=CIRCLE('',#119,1.E0);
#136=B_SPLINE_CURVE_WITH_KNOTS('',3,(#129,#130,#131,#132,#133,#134,#135),
.UNSPECIFIED.,.F.,.F.,(4,1,1,1,4),(0.E0,2.5E-1,5.E-1,7.5E-1,1.E0),
.UNSPECIFIED.);
#144=B_SPLINE_CURVE_WITH_KNOTS('',3,(#137,#138,#139,#140,#141,#142,#143),
.UNSPECIFIED.,.F.,.F.,(4,1,1,1,4),(0.E0,2.5E-1,5.E-1,7.5E-1,1.E0),
.UNSPECIFIED.);
#156=B_SPLINE_CURVE_WITH_KNOTS('',3,(#149,#150,#151,#152,#153,#154,#155),
.UNSPECIFIED.,.F.,.F.,(4,1,1,1,4),(0.E0,2.5E-1,5.E-1,7.5E-1,1.E0),
.UNSPECIFIED.);
#164=B_SPLINE_CURVE_WITH_KNOTS('',3,(#157,#158,#159,#160,#161,#162,#163),
.UNSPECIFIED.,.F.,.F.,(4,1,1,1,4),(0.E0,2.5E-1,5.E-1,7.5E-1,1.E0),
.UNSPECIFIED.);
#176=B_SPLINE_CURVE_WITH_KNOTS('',3,(#169,#170,#171,#172,#173,#174,#175),
.UNSPECIFIED.,.F.,.F.,(4,1,1,1,4),(0.E0,2.5E-1,5.E-1,7.5E-1,1.E0),
.UNSPECIFIED.);
#184=B_SPLINE_CURVE_WITH_KNOTS('',3,(#177,#178,#179,#180,#181,#182,#183),
.UNSPECIFIED.,.F.,.F.,(4,1,1,1,4),(0.E0,2.5E-1,5.E-1,7.5E-1,1.E0),
.UNSPECIFIED.);
#196=B_SPLINE_CURVE_WITH_KNOTS('',3,(#189,#190,#191,#192,#193,#194,#195),
.UNSPECIFIED.,.F.,.F.,(4,1,1,1,4),(0.E0,2.5E-1,5.E-1,7.5E-1,1.E0),
.UNSPECIFIED.);
#204=B_SPLINE_CURVE_WITH_KNOTS('',3,(#197,#198,#199,#200,#201,#202,#203),
.UNSPECIFIED.,.F.,.F.,(4,1,1,1,4),(0.E0,2.5E-1,5.E-1,7.5E-1,1.E0),
.UNSPECIFIED.);
#216=B_SPLINE_CURVE_WITH_KNOTS('',3,(#209,#210,#211,#212,#213,#214,#215),
.UNSPECIFIED.,.F.,.F.,(4,1,1,1,4),(0.E0,2.5E-1,5.E-1,7.5E-1,1.E0),
.UNSPECIFIED.);
#224=B_SPLINE_CURVE_WITH_KNOTS('',3,(#217,#218,#219,#220,#221,#222,#223),
.UNSPECIFIED.,.F.,.F.,(4,1,1,1,4),(0.E0,2.5E-1,5.E-1,7.5E-1,1.E0),
.UNSPECIFIED.);
#233=CIRCLE('',#232,3.5E0);
#242=CIRCLE('',#241,3.5E0);
#252=B_SPLINE_CURVE_WITH_KNOTS('',3,(#247,#248,#249,#250,#251),.UNSPECIFIED.,
.F.,.F.,(4,1,4),(0.E0,5.E-1,1.E0),.UNSPECIFIED.);
#258=B_SPLINE_CURVE_WITH_KNOTS('',3,(#253,#254,#255,#256,#257),.UNSPECIFIED.,
.F.,.F.,(4,1,4),(0.E0,5.E-1,1.E0),.UNSPECIFIED.);
#264=B_SPLINE_CURVE_WITH_KNOTS('',3,(#259,#260,#261,#262,#263),.UNSPECIFIED.,
.F.,.F.,(4,1,4),(0.E0,5.E-1,1.E0),.UNSPECIFIED.);
#270=B_SPLINE_CURVE_WITH_KNOTS('',3,(#265,#266,#267,#268,#269),.UNSPECIFIED.,
.F.,.F.,(4,1,4),(0.E0,5.E-1,1.E0),.UNSPECIFIED.);
#276=B_SPLINE_CURVE_WITH_KNOTS('',3,(#271,#272,#273,#274,#275),.UNSPECIFIED.,
.F.,.F.,(4,1,4),(0.E0,5.E-1,1.E0),.UNSPECIFIED.);
#282=B_SPLINE_CURVE_WITH_KNOTS('',3,(#277,#278,#279,#280,#281),.UNSPECIFIED.,
.F.,.F.,(4,1,4),(0.E0,5.E-1,1.E0),.UNSPECIFIED.);
#288=B_SPLINE_CURVE_WITH_KNOTS('',3,(#283,#284,#285,#286,#287),.UNSPECIFIED.,
.F.,.F.,(4,1,4),(0.E0,5.E-1,1.E0),.UNSPECIFIED.);
#294=B_SPLINE_CURVE_WITH_KNOTS('',3,(#289,#290,#291,#292,#293),.UNSPECIFIED.,
.F.,.F.,(4,1,4),(0.E0,5.E-1,1.E0),.UNSPECIFIED.);
#300=B_SPLINE_CURVE_WITH_KNOTS('',3,(#295,#296,#297,#298,#299),.UNSPECIFIED.,
.F.,.F.,(4,1,4),(0.E0,5.E-1,1.E0),.UNSPECIFIED.);
#306=B_SPLINE_CURVE_WITH_KNOTS('',3,(#301,#302,#303,#304,#305),.UNSPECIFIED.,
.F.,.F.,(4,1,4),(0.E0,5.E-1,1.E0),.UNSPECIFIED.);
#312=B_SPLINE_CURVE_WITH_KNOTS('',3,(#307,#308,#309,#310,#311),.UNSPECIFIED.,
.F.,.F.,(4,1,4),(0.E0,5.E-1,1.E0),.UNSPECIFIED.);
#318=B_SPLINE_CURVE_WITH_KNOTS('',3,(#313,#314,#315,#316,#317),.UNSPECIFIED.,
.F.,.F.,(4,1,4),(0.E0,5.E-1,1.E0),.UNSPECIFIED.);
#324=B_SPLINE_CURVE_WITH_KNOTS('',3,(#319,#320,#321,#322,#323),.UNSPECIFIED.,
.F.,.F.,(4,1,4),(0.E0,5.E-1,1.E0),.UNSPECIFIED.);
#330=B_SPLINE_CURVE_WITH_KNOTS('',3,(#325,#326,#327,#328,#329),.UNSPECIFIED.,
.F.,.F.,(4,1,4),(0.E0,5.E-1,1.E0),.UNSPECIFIED.);
#336=B_SPLINE_CURVE_WITH_KNOTS('',3,(#331,#332,#333,#334,#335),.UNSPECIFIED.,
.F.,.F.,(4,1,4),(0.E0,5.E-1,1.E0),.UNSPECIFIED.);
#342=B_SPLINE_CURVE_WITH_KNOTS('',3,(#337,#338,#339,#340,#341),.UNSPECIFIED.,
.F.,.F.,(4,1,4),(0.E0,5.E-1,1.E0),.UNSPECIFIED.);
#348=B_SPLINE_CURVE_WITH_KNOTS('',3,(#343,#344,#345,#346,#347),.UNSPECIFIED.,
.F.,.F.,(4,1,4),(0.E0,5.E-1,1.E0),.UNSPECIFIED.);
#354=B_SPLINE_CURVE_WITH_KNOTS('',3,(#349,#350,#351,#352,#353),.UNSPECIFIED.,
.F.,.F.,(4,1,4),(0.E0,5.E-1,1.E0),.UNSPECIFIED.);
#360=B_SPLINE_CURVE_WITH_KNOTS('',3,(#355,#356,#357,#358,#359),.UNSPECIFIED.,
.F.,.F.,(4,1,4),(0.E0,5.E-1,1.E0),.UNSPECIFIED.);
#366=B_SPLINE_CURVE_WITH_KNOTS('',3,(#361,#362,#363,#364,#365),.UNSPECIFIED.,
.F.,.F.,(4,1,4),(0.E0,5.E-1,1.E0),.UNSPECIFIED.);
#383=CIRCLE('',#382,2.E0);
#388=CIRCLE('',#387,3.E0);
#393=CIRCLE('',#392,2.E0);
#398=CIRCLE('',#397,3.E0);
#403=CIRCLE('',#402,2.E0);
#408=CIRCLE('',#407,3.E0);
#413=CIRCLE('',#412,2.E0);
#418=CIRCLE('',#417,3.E0);
#423=CIRCLE('',#422,2.E0);
#428=CIRCLE('',#427,2.E0);
#433=CIRCLE('',#432,3.E0);
#461=B_SPLINE_CURVE_WITH_KNOTS('',3,(#454,#455,#456,#457,#458,#459,#460),
.UNSPECIFIED.,.F.,.F.,(4,1,1,1,4),(0.E0,2.5E-1,5.E-1,7.5E-1,1.E0),
.UNSPECIFIED.);
#469=B_SPLINE_CURVE_WITH_KNOTS('',3,(#462,#463,#464,#465,#466,#467,#468),
.UNSPECIFIED.,.F.,.F.,(4,1,1,1,4),(0.E0,2.5E-1,5.E-1,7.5E-1,1.E0),
.UNSPECIFIED.);
#481=B_SPLINE_CURVE_WITH_KNOTS('',3,(#474,#475,#476,#477,#478,#479,#480),
.UNSPECIFIED.,.F.,.F.,(4,1,1,1,4),(0.E0,2.5E-1,5.E-1,7.5E-1,1.E0),
.UNSPECIFIED.);
#489=B_SPLINE_CURVE_WITH_KNOTS('',3,(#482,#483,#484,#485,#486,#487,#488),
.UNSPECIFIED.,.F.,.F.,(4,1,1,1,4),(0.E0,2.5E-1,5.E-1,7.5E-1,1.E0),
.UNSPECIFIED.);
#501=B_SPLINE_CURVE_WITH_KNOTS('',3,(#494,#495,#496,#497,#498,#499,#500),
.UNSPECIFIED.,.F.,.F.,(4,1,1,1,4),(0.E0,2.5E-1,5.E-1,7.5E-1,1.E0),
.UNSPECIFIED.);
#509=B_SPLINE_CURVE_WITH_KNOTS('',3,(#502,#503,#504,#505,#506,#507,#508),
.UNSPECIFIED.,.F.,.F.,(4,1,1,1,4),(0.E0,2.5E-1,5.E-1,7.5E-1,1.E0),
.UNSPECIFIED.);
#521=B_SPLINE_CURVE_WITH_KNOTS('',3,(#514,#515,#516,#517,#518,#519,#520),
.UNSPECIFIED.,.F.,.F.,(4,1,1,1,4),(0.E0,2.5E-1,5.E-1,7.5E-1,1.E0),
.UNSPECIFIED.);
#529=B_SPLINE_CURVE_WITH_KNOTS('',3,(#522,#523,#524,#525,#526,#527,#528),
.UNSPECIFIED.,.F.,.F.,(4,1,1,1,4),(0.E0,2.5E-1,5.E-1,7.5E-1,1.E0),
.UNSPECIFIED.);
#541=B_SPLINE_CURVE_WITH_KNOTS('',3,(#534,#535,#536,#537,#538,#539,#540),
.UNSPECIFIED.,.F.,.F.,(4,1,1,1,4),(0.E0,2.5E-1,5.E-1,7.5E-1,1.E0),
.UNSPECIFIED.);
#549=B_SPLINE_CURVE_WITH_KNOTS('',3,(#542,#543,#544,#545,#546,#547,#548),
.UNSPECIFIED.,.F.,.F.,(4,1,1,1,4),(0.E0,2.5E-1,5.E-1,7.5E-1,1.E0),
.UNSPECIFIED.);
#562=CIRCLE('',#561,3.5E0);
#571=CIRCLE('',#570,3.5E0);
#580=CIRCLE('',#579,3.5E0);
#613=CIRCLE('',#612,3.5E0);
#761=EDGE_CURVE('',#644,#645,#24,.T.);
#763=EDGE_CURVE('',#633,#645,#28,.T.);
#765=EDGE_CURVE('',#632,#633,#32,.T.);
#767=EDGE_CURVE('',#644,#632,#36,.T.);
#771=EDGE_CURVE('',#640,#641,#15,.T.);
#773=EDGE_CURVE('',#641,#640,#20,.T.);
#783=EDGE_CURVE('',#648,#649,#40,.T.);
#785=EDGE_CURVE('',#629,#648,#44,.T.);
#787=EDGE_CURVE('',#628,#629,#48,.T.);
#789=EDGE_CURVE('',#649,#628,#52,.T.);
#793=EDGE_CURVE('',#636,#637,#5,.T.);
#795=EDGE_CURVE('',#637,#636,#10,.T.);
#805=EDGE_CURVE('',#657,#656,#57,.T.);
#807=EDGE_CURVE('',#637,#656,#98,.T.);
#810=EDGE_CURVE('',#636,#657,#61,.T.);
#820=EDGE_CURVE('',#653,#652,#75,.T.);
#822=EDGE_CURVE('',#652,#656,#89,.T.);
#825=EDGE_CURVE('',#653,#657,#65,.T.);
#835=EDGE_CURVE('',#652,#653,#70,.T.);
#846=EDGE_CURVE('',#660,#661,#80,.T.);
#848=EDGE_CURVE('',#661,#660,#85,.T.);
#860=EDGE_CURVE('',#656,#657,#94,.T.);
#884=EDGE_CURVE('',#661,#665,#106,.T.);
#886=EDGE_CURVE('',#664,#665,#120,.T.);
#888=EDGE_CURVE('',#660,#664,#102,.T.);
#900=EDGE_CURVE('',#665,#664,#111,.T.);
#912=EDGE_CURVE('',#641,#664,#124,.T.);
#915=EDGE_CURVE('',#640,#665,#115,.T.);
#937=EDGE_CURVE('',#691,#699,#128,.T.);
#939=EDGE_CURVE('',#699,#738,#136,.T.);
#941=EDGE_CURVE('',#702,#738,#144,.T.);
#943=EDGE_CURVE('',#702,#703,#148,.T.);
#945=EDGE_CURVE('',#703,#739,#156,.T.);
#947=EDGE_CURVE('',#716,#739,#164,.T.);
#949=EDGE_CURVE('',#716,#717,#168,.T.);
#951=EDGE_CURVE('',#717,#740,#176,.T.);
#953=EDGE_CURVE('',#720,#740,#184,.T.);
#955=EDGE_CURVE('',#720,#721,#188,.T.);
#957=EDGE_CURVE('',#721,#741,#196,.T.);
#959=EDGE_CURVE('',#742,#741,#204,.T.);
#961=EDGE_CURVE('',#742,#743,#208,.T.);
#963=EDGE_CURVE('',#743,#744,#216,.T.);
#965=EDGE_CURVE('',#745,#744,#224,.T.);
#967=EDGE_CURVE('',#745,#693,#228,.T.);
#969=EDGE_CURVE('',#685,#693,#445,.T.);
#971=EDGE_CURVE('',#684,#685,#233,.T.);
#973=EDGE_CURVE('',#684,#645,#237,.T.);
#976=EDGE_CURVE('',#681,#644,#608,.T.);
#978=EDGE_CURVE('',#679,#681,#242,.T.);
#980=EDGE_CURVE('',#679,#691,#246,.T.);
#991=EDGE_CURVE('',#691,#713,#374,.T.);
#993=EDGE_CURVE('',#699,#713,#252,.T.);
#1004=EDGE_CURVE('',#702,#751,#258,.T.);
#1006=EDGE_CURVE('',#703,#751,#264,.T.);
#1016=EDGE_CURVE('',#697,#705,#453,.T.);
#1018=EDGE_CURVE('',#750,#697,#437,.T.);
#1020=EDGE_CURVE('',#750,#705,#270,.T.);
#1030=EDGE_CURVE('',#708,#709,#473,.T.);
#1032=EDGE_CURVE('',#749,#708,#276,.T.);
#1034=EDGE_CURVE('',#749,#709,#282,.T.);
#1044=EDGE_CURVE('',#711,#695,#370,.T.);
#1046=EDGE_CURVE('',#731,#695,#553,.T.);
#1048=EDGE_CURVE('',#711,#731,#288,.T.);
#1059=EDGE_CURVE('',#716,#752,#294,.T.);
#1061=EDGE_CURVE('',#717,#752,#300,.T.);
#1072=EDGE_CURVE('',#720,#753,#306,.T.);
#1074=EDGE_CURVE('',#721,#753,#312,.T.);
#1084=EDGE_CURVE('',#724,#725,#493,.T.);
#1086=EDGE_CURVE('',#748,#724,#318,.T.);
#1088=EDGE_CURVE('',#748,#725,#324,.T.);
#1098=EDGE_CURVE('',#728,#729,#513,.T.);
#1100=EDGE_CURVE('',#747,#728,#330,.T.);
#1102=EDGE_CURVE('',#747,#729,#336,.T.);
#1112=EDGE_CURVE('',#746,#732,#342,.T.);
#1114=EDGE_CURVE('',#734,#732,#533,.T.);
#1116=EDGE_CURVE('',#746,#734,#348,.T.);
#1126=EDGE_CURVE('',#742,#754,#354,.T.);
#1128=EDGE_CURVE('',#743,#754,#360,.T.);
#1139=EDGE_CURVE('',#745,#755,#366,.T.);
#1141=EDGE_CURVE('',#693,#755,#449,.T.);
#1153=EDGE_CURVE('',#713,#711,#383,.T.);
#1157=EDGE_CURVE('',#673,#679,#378,.T.);
#1159=EDGE_CURVE('',#695,#673,#557,.T.);
#1169=EDGE_CURVE('',#738,#730,#388,.T.);
#1175=EDGE_CURVE('',#730,#731,#549,.T.);
#1185=EDGE_CURVE('',#751,#746,#393,.T.);
#1190=EDGE_CURVE('',#730,#732,#541,.T.);
#1201=EDGE_CURVE('',#739,#733,#398,.T.);
#1207=EDGE_CURVE('',#733,#734,#529,.T.);
#1217=EDGE_CURVE('',#752,#747,#403,.T.);
#1222=EDGE_CURVE('',#733,#729,#521,.T.);
#1233=EDGE_CURVE('',#740,#735,#408,.T.);
#1239=EDGE_CURVE('',#735,#728,#509,.T.);
#1249=EDGE_CURVE('',#753,#748,#413,.T.);
#1254=EDGE_CURVE('',#735,#725,#501,.T.);
#1265=EDGE_CURVE('',#741,#736,#418,.T.);
#1271=EDGE_CURVE('',#736,#724,#489,.T.);
#1281=EDGE_CURVE('',#754,#749,#423,.T.);
#1286=EDGE_CURVE('',#736,#709,#481,.T.);
#1297=EDGE_CURVE('',#744,#737,#433,.T.);
#1303=EDGE_CURVE('',#737,#708,#469,.T.);
#1313=EDGE_CURVE('',#750,#755,#428,.T.);
#1318=EDGE_CURVE('',#737,#705,#461,.T.);
#1331=EDGE_CURVE('',#677,#697,#575,.T.);
#1333=EDGE_CURVE('',#677,#685,#441,.T.);
#1362=EDGE_CURVE('',#673,#671,#562,.T.);
#1364=EDGE_CURVE('',#671,#648,#566,.T.);
#1367=EDGE_CURVE('',#676,#649,#592,.T.);
#1369=EDGE_CURVE('',#676,#677,#571,.T.);
#1380=EDGE_CURVE('',#668,#669,#580,.T.);
#1382=EDGE_CURVE('',#668,#671,#596,.T.);
#1387=EDGE_CURVE('',#681,#687,#604,.T.);
#1389=EDGE_CURVE('',#689,#687,#613,.T.);
#1391=EDGE_CURVE('',#684,#689,#621,.T.);
#1396=EDGE_CURVE('',#669,#676,#588,.T.);
#1407=EDGE_CURVE('',#669,#628,#584,.T.);
#1410=EDGE_CURVE('',#668,#629,#600,.T.);
#1447=EDGE_CURVE('',#687,#632,#617,.T.);
#1460=EDGE_CURVE('',#689,#633,#625,.T.);
#1479=(LENGTH_UNIT()NAMED_UNIT(*)SI_UNIT(.MILLI.,.METRE.));
#1481=(NAMED_UNIT(*)PLANE_ANGLE_UNIT()SI_UNIT($,.RADIAN.));
#1484=(NAMED_UNIT(*)SI_UNIT($,.STERADIAN.)SOLID_ANGLE_UNIT());
#1487=ADVANCED_BREP_SHAPE_REPRESENTATION('',(#1478),#1486);
#1494=PRODUCT_DEFINITION('design','',#1493,#1490);
#1495=PRODUCT_DEFINITION_SHAPE('','SHAPE FOR BRAKE2-1.',#1494);
#1496=SHAPE_DEFINITION_REPRESENTATION(#1495,#1487);
ENDSEC;
END-ISO-10303-21;
