ISO-10303-21;
HEADER;
FILE_DESCRIPTION((''),'2;1');
FILE_NAME('JOINTCOVER2','2026-08-09T09:56:41',('gram2'),(''),
'CREO PARAMETRIC BY PTC INC, 2016510','CREO PARAMETRIC BY PTC INC, 2016510','');
FILE_SCHEMA(('AUTOMOTIVE_DESIGN { 1 0 10303 214 1 1 1 1 }'));
ENDSEC;
DATA;
#28=CARTESIAN_POINT('',(-1.229E1,9.69E0,0.E0));
#29=DIRECTION('',(0.E0,0.E0,-1.E0));
#30=DIRECTION('',(1.E0,0.E0,0.E0));
#31=AXIS2_PLACEMENT_3D('',#28,#29,#30);
#33=CARTESIAN_POINT('',(-1.229E1,9.69E0,0.E0));
#34=DIRECTION('',(0.E0,0.E0,-1.E0));
#35=DIRECTION('',(-1.E0,0.E0,0.E0));
#36=AXIS2_PLACEMENT_3D('',#33,#34,#35);
#38=CARTESIAN_POINT('',(1.229E1,9.69E0,0.E0));
#39=DIRECTION('',(0.E0,0.E0,-1.E0));
#40=DIRECTION('',(1.E0,0.E0,0.E0));
#41=AXIS2_PLACEMENT_3D('',#38,#39,#40);
#43=CARTESIAN_POINT('',(1.229E1,9.69E0,0.E0));
#44=DIRECTION('',(0.E0,0.E0,-1.E0));
#45=DIRECTION('',(-1.E0,0.E0,0.E0));
#46=AXIS2_PLACEMENT_3D('',#43,#44,#45);
#48=CARTESIAN_POINT('',(0.E0,0.E0,0.E0));
#49=DIRECTION('',(0.E0,0.E0,-1.E0));
#50=DIRECTION('',(1.E0,0.E0,0.E0));
#51=AXIS2_PLACEMENT_3D('',#48,#49,#50);
#53=CARTESIAN_POINT('',(0.E0,0.E0,0.E0));
#54=DIRECTION('',(0.E0,0.E0,-1.E0));
#55=DIRECTION('',(-1.E0,0.E0,0.E0));
#56=AXIS2_PLACEMENT_3D('',#53,#54,#55);
#58=CARTESIAN_POINT('',(-1.229E1,-8.235E0,0.E0));
#59=DIRECTION('',(0.E0,0.E0,-1.E0));
#60=DIRECTION('',(1.E0,0.E0,0.E0));
#61=AXIS2_PLACEMENT_3D('',#58,#59,#60);
#63=CARTESIAN_POINT('',(-1.229E1,-8.235E0,0.E0));
#64=DIRECTION('',(0.E0,0.E0,-1.E0));
#65=DIRECTION('',(-1.E0,0.E0,0.E0));
#66=AXIS2_PLACEMENT_3D('',#63,#64,#65);
#68=CARTESIAN_POINT('',(1.229E1,-8.235E0,0.E0));
#69=DIRECTION('',(0.E0,0.E0,-1.E0));
#70=DIRECTION('',(1.E0,0.E0,0.E0));
#71=AXIS2_PLACEMENT_3D('',#68,#69,#70);
#73=CARTESIAN_POINT('',(1.229E1,-8.235E0,0.E0));
#74=DIRECTION('',(0.E0,0.E0,-1.E0));
#75=DIRECTION('',(-1.E0,0.E0,0.E0));
#76=AXIS2_PLACEMENT_3D('',#73,#74,#75);
#78=DIRECTION('',(0.E0,-1.E0,0.E0));
#79=VECTOR('',#78,2.7E1);
#80=CARTESIAN_POINT('',(-1.88E1,1.35E1,0.E0));
#81=LINE('',#80,#79);
#82=DIRECTION('',(1.E0,0.E0,0.E0));
#83=VECTOR('',#82,3.76E1);
#84=CARTESIAN_POINT('',(-1.88E1,-1.35E1,0.E0));
#85=LINE('',#84,#83);
#86=DIRECTION('',(0.E0,1.E0,0.E0));
#87=VECTOR('',#86,2.7E1);
#88=CARTESIAN_POINT('',(1.88E1,-1.35E1,0.E0));
#89=LINE('',#88,#87);
#90=DIRECTION('',(-1.E0,0.E0,0.E0));
#91=VECTOR('',#90,3.76E1);
#92=CARTESIAN_POINT('',(1.88E1,1.35E1,0.E0));
#93=LINE('',#92,#91);
#94=CARTESIAN_POINT('',(-1.229E1,9.69E0,2.E0));
#95=DIRECTION('',(0.E0,0.E0,-1.E0));
#96=DIRECTION('',(1.E0,0.E0,0.E0));
#97=AXIS2_PLACEMENT_3D('',#94,#95,#96);
#99=DIRECTION('',(-6.250164834041E-10,-4.225714003579E-9,1.E0));
#100=VECTOR('',#99,1.999999998750E0);
#101=CARTESIAN_POINT('',(-1.069E1,9.69E0,0.E0));
#102=LINE('',#101,#100);
#103=DIRECTION('',(-7.071067811865E-1,6.972074705613E-9,-7.071067811865E-1));
#104=VECTOR('',#103,1.414213560311E0);
#105=CARTESIAN_POINT('',(-9.690000002708E0,9.689999981689E0,2.999999997292E0));
#106=LINE('',#105,#104);
#107=CARTESIAN_POINT('',(0.E0,0.E0,3.E0));
#108=DIRECTION('',(0.E0,0.E0,-1.E0));
#109=DIRECTION('',(1.E0,0.E0,0.E0));
#110=AXIS2_PLACEMENT_3D('',#107,#108,#109);
#112=CARTESIAN_POINT('',(0.E0,0.E0,3.E0));
#113=DIRECTION('',(0.E0,0.E0,-1.E0));
#114=DIRECTION('',(-1.E0,0.E0,0.E0));
#115=AXIS2_PLACEMENT_3D('',#112,#113,#114);
#117=DIRECTION('',(0.E0,-1.E0,0.E0));
#118=VECTOR('',#117,2.7E1);
#119=CARTESIAN_POINT('',(-1.88E1,1.35E1,3.E0));
#120=LINE('',#119,#118);
#121=DIRECTION('',(-1.E0,0.E0,0.E0));
#122=VECTOR('',#121,3.76E1);
#123=CARTESIAN_POINT('',(1.88E1,1.35E1,3.E0));
#124=LINE('',#123,#122);
#125=DIRECTION('',(0.E0,1.E0,0.E0));
#126=VECTOR('',#125,2.7E1);
#127=CARTESIAN_POINT('',(1.88E1,-1.35E1,3.E0));
#128=LINE('',#127,#126);
#129=DIRECTION('',(1.E0,0.E0,0.E0));
#130=VECTOR('',#129,3.76E1);
#131=CARTESIAN_POINT('',(-1.88E1,-1.35E1,3.E0));
#132=LINE('',#131,#130);
#133=CARTESIAN_POINT('',(-1.229E1,9.69E0,3.E0));
#134=DIRECTION('',(0.E0,0.E0,-1.E0));
#135=DIRECTION('',(1.E0,0.E0,0.E0));
#136=AXIS2_PLACEMENT_3D('',#133,#134,#135);
#138=CARTESIAN_POINT('',(-1.229E1,9.69E0,3.E0));
#139=DIRECTION('',(0.E0,0.E0,-1.E0));
#140=DIRECTION('',(-1.E0,0.E0,0.E0));
#141=AXIS2_PLACEMENT_3D('',#138,#139,#140);
#143=CARTESIAN_POINT('',(1.229E1,9.69E0,3.E0));
#144=DIRECTION('',(0.E0,0.E0,-1.E0));
#145=DIRECTION('',(1.E0,0.E0,0.E0));
#146=AXIS2_PLACEMENT_3D('',#143,#144,#145);
#148=CARTESIAN_POINT('',(1.229E1,9.69E0,3.E0));
#149=DIRECTION('',(0.E0,0.E0,-1.E0));
#150=DIRECTION('',(-1.E0,0.E0,0.E0));
#151=AXIS2_PLACEMENT_3D('',#148,#149,#150);
#153=CARTESIAN_POINT('',(1.229E1,-8.235E0,3.E0));
#154=DIRECTION('',(0.E0,0.E0,-1.E0));
#155=DIRECTION('',(1.E0,0.E0,0.E0));
#156=AXIS2_PLACEMENT_3D('',#153,#154,#155);
#158=CARTESIAN_POINT('',(1.229E1,-8.235E0,3.E0));
#159=DIRECTION('',(0.E0,0.E0,-1.E0));
#160=DIRECTION('',(-1.E0,0.E0,0.E0));
#161=AXIS2_PLACEMENT_3D('',#158,#159,#160);
#163=CARTESIAN_POINT('',(-1.229E1,-8.235E0,3.E0));
#164=DIRECTION('',(0.E0,0.E0,-1.E0));
#165=DIRECTION('',(1.E0,0.E0,0.E0));
#166=AXIS2_PLACEMENT_3D('',#163,#164,#165);
#168=CARTESIAN_POINT('',(-1.229E1,-8.235E0,3.E0));
#169=DIRECTION('',(0.E0,0.E0,-1.E0));
#170=DIRECTION('',(-1.E0,0.E0,0.E0));
#171=AXIS2_PLACEMENT_3D('',#168,#169,#170);
#173=DIRECTION('',(0.E0,0.E0,1.E0));
#174=VECTOR('',#173,3.E0);
#175=CARTESIAN_POINT('',(8.125E0,0.E0,0.E0));
#176=LINE('',#175,#174);
#177=DIRECTION('',(0.E0,0.E0,1.E0));
#178=VECTOR('',#177,3.E0);
#179=CARTESIAN_POINT('',(-8.125E0,0.E0,0.E0));
#180=LINE('',#179,#178);
#181=DIRECTION('',(0.E0,0.E0,1.E0));
#182=VECTOR('',#181,3.E0);
#183=CARTESIAN_POINT('',(-1.88E1,1.35E1,0.E0));
#184=LINE('',#183,#182);
#185=DIRECTION('',(0.E0,0.E0,1.E0));
#186=VECTOR('',#185,3.E0);
#187=CARTESIAN_POINT('',(1.88E1,1.35E1,0.E0));
#188=LINE('',#187,#186);
#189=DIRECTION('',(0.E0,0.E0,1.E0));
#190=VECTOR('',#189,3.E0);
#191=CARTESIAN_POINT('',(1.88E1,-1.35E1,0.E0));
#192=LINE('',#191,#190);
#193=DIRECTION('',(0.E0,0.E0,1.E0));
#194=VECTOR('',#193,3.E0);
#195=CARTESIAN_POINT('',(-1.88E1,-1.35E1,0.E0));
#196=LINE('',#195,#194);
#197=DIRECTION('',(7.071067811865E-1,-6.972074705613E-9,-7.071067811865E-1));
#198=VECTOR('',#197,1.414213560311E0);
#199=CARTESIAN_POINT('',(-1.488999999729E1,9.690000018311E0,2.999999997292E0));
#200=LINE('',#199,#198);
#201=CARTESIAN_POINT('',(-1.229E1,9.69E0,2.E0));
#202=DIRECTION('',(0.E0,0.E0,-1.E0));
#203=DIRECTION('',(-1.E0,0.E0,0.E0));
#204=AXIS2_PLACEMENT_3D('',#201,#202,#203);
#206=DIRECTION('',(6.250173715826E-10,4.225716668115E-9,1.E0));
#207=VECTOR('',#206,1.999999998750E0);
#208=CARTESIAN_POINT('',(-1.389E1,9.69E0,0.E0));
#209=LINE('',#208,#207);
#210=DIRECTION('',(-7.071067811865E-1,6.972074705613E-9,-7.071067811865E-1));
#211=VECTOR('',#210,1.414213560311E0);
#212=CARTESIAN_POINT('',(1.488999999729E1,9.689999981689E0,2.999999997292E0));
#213=LINE('',#212,#211);
#214=DIRECTION('',(7.071067811865E-1,-6.972073449539E-9,-7.071067811865E-1));
#215=VECTOR('',#214,1.414213560311E0);
#216=CARTESIAN_POINT('',(9.690000002708E0,9.690000018311E0,2.999999997292E0));
#217=LINE('',#216,#215);
#218=CARTESIAN_POINT('',(1.229E1,9.69E0,2.E0));
#219=DIRECTION('',(0.E0,0.E0,-1.E0));
#220=DIRECTION('',(-1.E0,0.E0,0.E0));
#221=AXIS2_PLACEMENT_3D('',#218,#219,#220);
#223=DIRECTION('',(6.250164834041E-10,4.225716668115E-9,1.E0));
#224=VECTOR('',#223,1.999999998750E0);
#225=CARTESIAN_POINT('',(1.069E1,9.69E0,0.E0));
#226=LINE('',#225,#224);
#227=CARTESIAN_POINT('',(1.229E1,9.69E0,2.E0));
#228=DIRECTION('',(0.E0,0.E0,-1.E0));
#229=DIRECTION('',(1.E0,0.E0,0.E0));
#230=AXIS2_PLACEMENT_3D('',#227,#228,#229);
#232=DIRECTION('',(-6.250173715826E-10,-4.225714003579E-9,1.E0));
#233=VECTOR('',#232,1.999999998750E0);
#234=CARTESIAN_POINT('',(1.389E1,9.69E0,0.E0));
#235=LINE('',#234,#233);
#236=DIRECTION('',(-7.071067811865E-1,6.972073449539E-9,-7.071067811865E-1));
#237=VECTOR('',#236,1.414213560311E0);
#238=CARTESIAN_POINT('',(1.488999999729E1,-8.235000018311E0,2.999999997292E0));
#239=LINE('',#238,#237);
#240=DIRECTION('',(7.071067811865E-1,-6.972077217761E-9,-7.071067811865E-1));
#241=VECTOR('',#240,1.414213560311E0);
#242=CARTESIAN_POINT('',(9.690000002708E0,-8.234999981689E0,2.999999997292E0));
#243=LINE('',#242,#241);
#244=CARTESIAN_POINT('',(1.229E1,-8.235E0,2.E0));
#245=DIRECTION('',(0.E0,0.E0,-1.E0));
#246=DIRECTION('',(-1.E0,0.E0,0.E0));
#247=AXIS2_PLACEMENT_3D('',#244,#245,#246);
#249=DIRECTION('',(6.250164834041E-10,4.225714891758E-9,1.E0));
#250=VECTOR('',#249,1.999999998750E0);
#251=CARTESIAN_POINT('',(1.069E1,-8.235E0,0.E0));
#252=LINE('',#251,#250);
#253=CARTESIAN_POINT('',(1.229E1,-8.235E0,2.E0));
#254=DIRECTION('',(0.E0,0.E0,-1.E0));
#255=DIRECTION('',(1.E0,0.E0,0.E0));
#256=AXIS2_PLACEMENT_3D('',#253,#254,#255);
#258=DIRECTION('',(-6.250173715826E-10,-4.225714891758E-9,1.E0));
#259=VECTOR('',#258,1.999999998750E0);
#260=CARTESIAN_POINT('',(1.389E1,-8.235E0,0.E0));
#261=LINE('',#260,#259);
#262=DIRECTION('',(-7.071067811865E-1,6.972075961687E-9,-7.071067811865E-1));
#263=VECTOR('',#262,1.414213560311E0);
#264=CARTESIAN_POINT('',(-9.690000002708E0,-8.235000018311E0,2.999999997292E0));
#265=LINE('',#264,#263);
#266=DIRECTION('',(7.071067811865E-1,-6.972074705613E-9,-7.071067811865E-1));
#267=VECTOR('',#266,1.414213560311E0);
#268=CARTESIAN_POINT('',(-1.488999999729E1,-8.234999981689E0,2.999999997292E0));
#269=LINE('',#268,#267);
#270=CARTESIAN_POINT('',(-1.229E1,-8.235E0,2.E0));
#271=DIRECTION('',(0.E0,0.E0,-1.E0));
#272=DIRECTION('',(-1.E0,0.E0,0.E0));
#273=AXIS2_PLACEMENT_3D('',#270,#271,#272);
#275=DIRECTION('',(6.250173715826E-10,4.225714891758E-9,1.E0));
#276=VECTOR('',#275,1.999999998750E0);
#277=CARTESIAN_POINT('',(-1.389E1,-8.235E0,0.E0));
#278=LINE('',#277,#276);
#279=CARTESIAN_POINT('',(-1.229E1,-8.235E0,2.E0));
#280=DIRECTION('',(0.E0,0.E0,-1.E0));
#281=DIRECTION('',(1.E0,0.E0,0.E0));
#282=AXIS2_PLACEMENT_3D('',#279,#280,#281);
#284=DIRECTION('',(-6.250164834041E-10,-4.225714891758E-9,1.E0));
#285=VECTOR('',#284,1.999999998750E0);
#286=CARTESIAN_POINT('',(-1.069E1,-8.235E0,0.E0));
#287=LINE('',#286,#285);
#288=CARTESIAN_POINT('',(-1.069E1,9.69E0,0.E0));
#289=CARTESIAN_POINT('',(-1.389E1,9.69E0,0.E0));
#290=VERTEX_POINT('',#288);
#291=VERTEX_POINT('',#289);
#292=CARTESIAN_POINT('',(1.389E1,9.69E0,0.E0));
#293=CARTESIAN_POINT('',(1.069E1,9.69E0,0.E0));
#294=VERTEX_POINT('',#292);
#295=VERTEX_POINT('',#293);
#296=CARTESIAN_POINT('',(8.125E0,0.E0,0.E0));
#297=CARTESIAN_POINT('',(-8.125E0,0.E0,0.E0));
#298=VERTEX_POINT('',#296);
#299=VERTEX_POINT('',#297);
#300=CARTESIAN_POINT('',(-1.88E1,1.35E1,0.E0));
#301=CARTESIAN_POINT('',(-1.88E1,-1.35E1,0.E0));
#302=VERTEX_POINT('',#300);
#303=VERTEX_POINT('',#301);
#304=CARTESIAN_POINT('',(1.88E1,-1.35E1,0.E0));
#305=VERTEX_POINT('',#304);
#306=CARTESIAN_POINT('',(1.88E1,1.35E1,0.E0));
#307=VERTEX_POINT('',#306);
#308=CARTESIAN_POINT('',(8.125E0,0.E0,3.E0));
#309=CARTESIAN_POINT('',(-8.125E0,0.E0,3.E0));
#310=VERTEX_POINT('',#308);
#311=VERTEX_POINT('',#309);
#312=CARTESIAN_POINT('',(-1.88E1,1.35E1,3.E0));
#313=CARTESIAN_POINT('',(-1.88E1,-1.35E1,3.E0));
#314=VERTEX_POINT('',#312);
#315=VERTEX_POINT('',#313);
#316=CARTESIAN_POINT('',(1.88E1,-1.35E1,3.E0));
#317=VERTEX_POINT('',#316);
#318=CARTESIAN_POINT('',(1.88E1,1.35E1,3.E0));
#319=VERTEX_POINT('',#318);
#320=CARTESIAN_POINT('',(-1.069E1,-8.235E0,0.E0));
#321=CARTESIAN_POINT('',(-1.389E1,-8.235E0,0.E0));
#322=VERTEX_POINT('',#320);
#323=VERTEX_POINT('',#321);
#324=CARTESIAN_POINT('',(1.389E1,-8.235E0,0.E0));
#325=CARTESIAN_POINT('',(1.069E1,-8.235E0,0.E0));
#326=VERTEX_POINT('',#324);
#327=VERTEX_POINT('',#325);
#328=CARTESIAN_POINT('',(-9.69E0,9.69E0,3.E0));
#329=CARTESIAN_POINT('',(-1.489E1,9.69E0,3.E0));
#330=VERTEX_POINT('',#328);
#331=VERTEX_POINT('',#329);
#332=CARTESIAN_POINT('',(-1.069E1,9.69E0,2.E0));
#333=CARTESIAN_POINT('',(-1.389E1,9.69E0,2.E0));
#334=VERTEX_POINT('',#332);
#335=VERTEX_POINT('',#333);
#336=CARTESIAN_POINT('',(1.489E1,9.69E0,3.E0));
#337=CARTESIAN_POINT('',(9.69E0,9.69E0,3.E0));
#338=VERTEX_POINT('',#336);
#339=VERTEX_POINT('',#337);
#340=CARTESIAN_POINT('',(1.389E1,9.69E0,2.E0));
#341=CARTESIAN_POINT('',(1.069E1,9.69E0,2.E0));
#342=VERTEX_POINT('',#340);
#343=VERTEX_POINT('',#341);
#344=CARTESIAN_POINT('',(1.489E1,-8.235E0,3.E0));
#345=CARTESIAN_POINT('',(9.69E0,-8.235E0,3.E0));
#346=VERTEX_POINT('',#344);
#347=VERTEX_POINT('',#345);
#348=CARTESIAN_POINT('',(1.389E1,-8.235E0,2.E0));
#349=CARTESIAN_POINT('',(1.069E1,-8.235E0,2.E0));
#350=VERTEX_POINT('',#348);
#351=VERTEX_POINT('',#349);
#352=CARTESIAN_POINT('',(-9.69E0,-8.235E0,3.E0));
#353=CARTESIAN_POINT('',(-1.489E1,-8.235E0,3.E0));
#354=VERTEX_POINT('',#352);
#355=VERTEX_POINT('',#353);
#356=CARTESIAN_POINT('',(-1.069E1,-8.235E0,2.E0));
#357=CARTESIAN_POINT('',(-1.389E1,-8.235E0,2.E0));
#358=VERTEX_POINT('',#356);
#359=VERTEX_POINT('',#357);
#360=CARTESIAN_POINT('',(0.E0,0.E0,0.E0));
#361=DIRECTION('',(0.E0,0.E0,1.E0));
#362=DIRECTION('',(1.E0,0.E0,0.E0));
#363=AXIS2_PLACEMENT_3D('',#360,#361,#362);
#364=PLANE('',#363);
#366=ORIENTED_EDGE('',*,*,#365,.T.);
#368=ORIENTED_EDGE('',*,*,#367,.T.);
#370=ORIENTED_EDGE('',*,*,#369,.T.);
#372=ORIENTED_EDGE('',*,*,#371,.T.);
#373=EDGE_LOOP('',(#366,#368,#370,#372));
#374=FACE_OUTER_BOUND('',#373,.F.);
#376=ORIENTED_EDGE('',*,*,#375,.T.);
#378=ORIENTED_EDGE('',*,*,#377,.T.);
#379=EDGE_LOOP('',(#376,#378));
#380=FACE_BOUND('',#379,.F.);
#382=ORIENTED_EDGE('',*,*,#381,.T.);
#384=ORIENTED_EDGE('',*,*,#383,.T.);
#385=EDGE_LOOP('',(#382,#384));
#386=FACE_BOUND('',#385,.F.);
#388=ORIENTED_EDGE('',*,*,#387,.T.);
#390=ORIENTED_EDGE('',*,*,#389,.T.);
#391=EDGE_LOOP('',(#388,#390));
#392=FACE_BOUND('',#391,.F.);
#394=ORIENTED_EDGE('',*,*,#393,.T.);
#396=ORIENTED_EDGE('',*,*,#395,.T.);
#397=EDGE_LOOP('',(#394,#396));
#398=FACE_BOUND('',#397,.F.);
#400=ORIENTED_EDGE('',*,*,#399,.T.);
#402=ORIENTED_EDGE('',*,*,#401,.T.);
#403=EDGE_LOOP('',(#400,#402));
#404=FACE_BOUND('',#403,.F.);
#406=CARTESIAN_POINT('',(-1.229E1,9.69E0,0.E0));
#407=DIRECTION('',(0.E0,0.E0,1.E0));
#408=DIRECTION('',(1.E0,0.E0,0.E0));
#409=AXIS2_PLACEMENT_3D('',#406,#407,#408);
#410=CYLINDRICAL_SURFACE('',#409,1.6E0);
#412=ORIENTED_EDGE('',*,*,#411,.T.);
#414=ORIENTED_EDGE('',*,*,#413,.F.);
#415=ORIENTED_EDGE('',*,*,#399,.F.);
#417=ORIENTED_EDGE('',*,*,#416,.T.);
#418=EDGE_LOOP('',(#412,#414,#415,#417));
#419=FACE_OUTER_BOUND('',#418,.F.);
#421=CARTESIAN_POINT('',(-1.229E1,9.69E0,2.499999998840E0));
#422=DIRECTION('',(0.E0,0.E0,1.E0));
#423=DIRECTION('',(0.E0,-1.E0,0.E0));
#424=AXIS2_PLACEMENT_3D('',#421,#422,#423);
#425=CONICAL_SURFACE('',#424,2.099999998840E0,4.5E1);
#427=ORIENTED_EDGE('',*,*,#426,.T.);
#429=ORIENTED_EDGE('',*,*,#428,.T.);
#430=ORIENTED_EDGE('',*,*,#411,.F.);
#432=ORIENTED_EDGE('',*,*,#431,.F.);
#433=EDGE_LOOP('',(#427,#429,#430,#432));
#434=FACE_OUTER_BOUND('',#433,.F.);
#436=CARTESIAN_POINT('',(0.E0,0.E0,3.E0));
#437=DIRECTION('',(0.E0,0.E0,1.E0));
#438=DIRECTION('',(1.E0,0.E0,0.E0));
#439=AXIS2_PLACEMENT_3D('',#436,#437,#438);
#440=PLANE('',#439);
#442=ORIENTED_EDGE('',*,*,#441,.F.);
#444=ORIENTED_EDGE('',*,*,#443,.F.);
#446=ORIENTED_EDGE('',*,*,#445,.F.);
#448=ORIENTED_EDGE('',*,*,#447,.F.);
#449=EDGE_LOOP('',(#442,#444,#446,#448));
#450=FACE_OUTER_BOUND('',#449,.F.);
#452=ORIENTED_EDGE('',*,*,#451,.F.);
#454=ORIENTED_EDGE('',*,*,#453,.F.);
#455=EDGE_LOOP('',(#452,#454));
#456=FACE_BOUND('',#455,.F.);
#457=ORIENTED_EDGE('',*,*,#426,.F.);
#459=ORIENTED_EDGE('',*,*,#458,.F.);
#460=EDGE_LOOP('',(#457,#459));
#461=FACE_BOUND('',#460,.F.);
#463=ORIENTED_EDGE('',*,*,#462,.F.);
#465=ORIENTED_EDGE('',*,*,#464,.F.);
#466=EDGE_LOOP('',(#463,#465));
#467=FACE_BOUND('',#466,.F.);
#469=ORIENTED_EDGE('',*,*,#468,.F.);
#471=ORIENTED_EDGE('',*,*,#470,.F.);
#472=EDGE_LOOP('',(#469,#471));
#473=FACE_BOUND('',#472,.F.);
#475=ORIENTED_EDGE('',*,*,#474,.F.);
#477=ORIENTED_EDGE('',*,*,#476,.F.);
#478=EDGE_LOOP('',(#475,#477));
#479=FACE_BOUND('',#478,.F.);
#481=CARTESIAN_POINT('',(0.E0,0.E0,0.E0));
#482=DIRECTION('',(0.E0,0.E0,1.E0));
#483=DIRECTION('',(1.E0,0.E0,0.E0));
#484=AXIS2_PLACEMENT_3D('',#481,#482,#483);
#485=CYLINDRICAL_SURFACE('',#484,8.125E0);
#486=ORIENTED_EDGE('',*,*,#381,.F.);
#488=ORIENTED_EDGE('',*,*,#487,.T.);
#489=ORIENTED_EDGE('',*,*,#451,.T.);
#491=ORIENTED_EDGE('',*,*,#490,.F.);
#492=EDGE_LOOP('',(#486,#488,#489,#491));
#493=FACE_OUTER_BOUND('',#492,.F.);
#495=CARTESIAN_POINT('',(0.E0,0.E0,0.E0));
#496=DIRECTION('',(0.E0,0.E0,1.E0));
#497=DIRECTION('',(1.E0,0.E0,0.E0));
#498=AXIS2_PLACEMENT_3D('',#495,#496,#497);
#499=CYLINDRICAL_SURFACE('',#498,8.125E0);
#500=ORIENTED_EDGE('',*,*,#383,.F.);
#501=ORIENTED_EDGE('',*,*,#490,.T.);
#502=ORIENTED_EDGE('',*,*,#453,.T.);
#503=ORIENTED_EDGE('',*,*,#487,.F.);
#504=EDGE_LOOP('',(#500,#501,#502,#503));
#505=FACE_OUTER_BOUND('',#504,.F.);
#507=CARTESIAN_POINT('',(-1.88E1,1.35E1,0.E0));
#508=DIRECTION('',(-1.E0,0.E0,0.E0));
#509=DIRECTION('',(0.E0,-1.E0,0.E0));
#510=AXIS2_PLACEMENT_3D('',#507,#508,#509);
#511=PLANE('',#510);
#512=ORIENTED_EDGE('',*,*,#365,.F.);
#514=ORIENTED_EDGE('',*,*,#513,.T.);
#515=ORIENTED_EDGE('',*,*,#441,.T.);
#517=ORIENTED_EDGE('',*,*,#516,.F.);
#518=EDGE_LOOP('',(#512,#514,#515,#517));
#519=FACE_OUTER_BOUND('',#518,.F.);
#521=CARTESIAN_POINT('',(1.88E1,1.35E1,0.E0));
#522=DIRECTION('',(0.E0,1.E0,0.E0));
#523=DIRECTION('',(-1.E0,0.E0,0.E0));
#524=AXIS2_PLACEMENT_3D('',#521,#522,#523);
#525=PLANE('',#524);
#526=ORIENTED_EDGE('',*,*,#371,.F.);
#528=ORIENTED_EDGE('',*,*,#527,.T.);
#529=ORIENTED_EDGE('',*,*,#443,.T.);
#530=ORIENTED_EDGE('',*,*,#513,.F.);
#531=EDGE_LOOP('',(#526,#528,#529,#530));
#532=FACE_OUTER_BOUND('',#531,.F.);
#534=CARTESIAN_POINT('',(1.88E1,-1.35E1,0.E0));
#535=DIRECTION('',(1.E0,0.E0,0.E0));
#536=DIRECTION('',(0.E0,1.E0,0.E0));
#537=AXIS2_PLACEMENT_3D('',#534,#535,#536);
#538=PLANE('',#537);
#539=ORIENTED_EDGE('',*,*,#369,.F.);
#541=ORIENTED_EDGE('',*,*,#540,.T.);
#542=ORIENTED_EDGE('',*,*,#445,.T.);
#543=ORIENTED_EDGE('',*,*,#527,.F.);
#544=EDGE_LOOP('',(#539,#541,#542,#543));
#545=FACE_OUTER_BOUND('',#544,.F.);
#547=CARTESIAN_POINT('',(-1.88E1,-1.35E1,0.E0));
#548=DIRECTION('',(0.E0,-1.E0,0.E0));
#549=DIRECTION('',(1.E0,0.E0,0.E0));
#550=AXIS2_PLACEMENT_3D('',#547,#548,#549);
#551=PLANE('',#550);
#552=ORIENTED_EDGE('',*,*,#367,.F.);
#553=ORIENTED_EDGE('',*,*,#516,.T.);
#554=ORIENTED_EDGE('',*,*,#447,.T.);
#555=ORIENTED_EDGE('',*,*,#540,.F.);
#556=EDGE_LOOP('',(#552,#553,#554,#555));
#557=FACE_OUTER_BOUND('',#556,.F.);
#559=CARTESIAN_POINT('',(-1.229E1,9.69E0,2.499999998840E0));
#560=DIRECTION('',(0.E0,0.E0,1.E0));
#561=DIRECTION('',(0.E0,-1.E0,0.E0));
#562=AXIS2_PLACEMENT_3D('',#559,#560,#561);
#563=CONICAL_SURFACE('',#562,2.099999998840E0,4.5E1);
#564=ORIENTED_EDGE('',*,*,#458,.T.);
#565=ORIENTED_EDGE('',*,*,#431,.T.);
#567=ORIENTED_EDGE('',*,*,#566,.F.);
#568=ORIENTED_EDGE('',*,*,#428,.F.);
#569=EDGE_LOOP('',(#564,#565,#567,#568));
#570=FACE_OUTER_BOUND('',#569,.F.);
#572=CARTESIAN_POINT('',(-1.229E1,9.69E0,0.E0));
#573=DIRECTION('',(0.E0,0.E0,1.E0));
#574=DIRECTION('',(1.E0,0.E0,0.E0));
#575=AXIS2_PLACEMENT_3D('',#572,#573,#574);
#576=CYLINDRICAL_SURFACE('',#575,1.6E0);
#577=ORIENTED_EDGE('',*,*,#566,.T.);
#578=ORIENTED_EDGE('',*,*,#416,.F.);
#579=ORIENTED_EDGE('',*,*,#401,.F.);
#580=ORIENTED_EDGE('',*,*,#413,.T.);
#581=EDGE_LOOP('',(#577,#578,#579,#580));
#582=FACE_OUTER_BOUND('',#581,.F.);
#584=CARTESIAN_POINT('',(1.229E1,9.69E0,2.499999998840E0));
#585=DIRECTION('',(0.E0,0.E0,1.E0));
#586=DIRECTION('',(0.E0,-1.E0,0.E0));
#587=AXIS2_PLACEMENT_3D('',#584,#585,#586);
#588=CONICAL_SURFACE('',#587,2.099999998840E0,4.5E1);
#589=ORIENTED_EDGE('',*,*,#462,.T.);
#591=ORIENTED_EDGE('',*,*,#590,.T.);
#593=ORIENTED_EDGE('',*,*,#592,.F.);
#595=ORIENTED_EDGE('',*,*,#594,.F.);
#596=EDGE_LOOP('',(#589,#591,#593,#595));
#597=FACE_OUTER_BOUND('',#596,.F.);
#599=CARTESIAN_POINT('',(1.229E1,9.69E0,2.499999998840E0));
#600=DIRECTION('',(0.E0,0.E0,1.E0));
#601=DIRECTION('',(0.E0,-1.E0,0.E0));
#602=AXIS2_PLACEMENT_3D('',#599,#600,#601);
#603=CONICAL_SURFACE('',#602,2.099999998840E0,4.5E1);
#604=ORIENTED_EDGE('',*,*,#464,.T.);
#605=ORIENTED_EDGE('',*,*,#594,.T.);
#607=ORIENTED_EDGE('',*,*,#606,.F.);
#608=ORIENTED_EDGE('',*,*,#590,.F.);
#609=EDGE_LOOP('',(#604,#605,#607,#608));
#610=FACE_OUTER_BOUND('',#609,.F.);
#612=CARTESIAN_POINT('',(1.229E1,9.69E0,0.E0));
#613=DIRECTION('',(0.E0,0.E0,1.E0));
#614=DIRECTION('',(1.E0,0.E0,0.E0));
#615=AXIS2_PLACEMENT_3D('',#612,#613,#614);
#616=CYLINDRICAL_SURFACE('',#615,1.6E0);
#617=ORIENTED_EDGE('',*,*,#606,.T.);
#619=ORIENTED_EDGE('',*,*,#618,.F.);
#620=ORIENTED_EDGE('',*,*,#377,.F.);
#622=ORIENTED_EDGE('',*,*,#621,.T.);
#623=EDGE_LOOP('',(#617,#619,#620,#622));
#624=FACE_OUTER_BOUND('',#623,.F.);
#626=CARTESIAN_POINT('',(1.229E1,9.69E0,0.E0));
#627=DIRECTION('',(0.E0,0.E0,1.E0));
#628=DIRECTION('',(1.E0,0.E0,0.E0));
#629=AXIS2_PLACEMENT_3D('',#626,#627,#628);
#630=CYLINDRICAL_SURFACE('',#629,1.6E0);
#631=ORIENTED_EDGE('',*,*,#592,.T.);
#632=ORIENTED_EDGE('',*,*,#621,.F.);
#633=ORIENTED_EDGE('',*,*,#375,.F.);
#634=ORIENTED_EDGE('',*,*,#618,.T.);
#635=EDGE_LOOP('',(#631,#632,#633,#634));
#636=FACE_OUTER_BOUND('',#635,.F.);
#638=CARTESIAN_POINT('',(1.229E1,-8.235E0,2.499999998840E0));
#639=DIRECTION('',(0.E0,0.E0,1.E0));
#640=DIRECTION('',(0.E0,-1.E0,0.E0));
#641=AXIS2_PLACEMENT_3D('',#638,#639,#640);
#642=CONICAL_SURFACE('',#641,2.099999998840E0,4.5E1);
#643=ORIENTED_EDGE('',*,*,#468,.T.);
#645=ORIENTED_EDGE('',*,*,#644,.T.);
#647=ORIENTED_EDGE('',*,*,#646,.F.);
#649=ORIENTED_EDGE('',*,*,#648,.F.);
#650=EDGE_LOOP('',(#643,#645,#647,#649));
#651=FACE_OUTER_BOUND('',#650,.F.);
#653=CARTESIAN_POINT('',(1.229E1,-8.235E0,2.499999998840E0));
#654=DIRECTION('',(0.E0,0.E0,1.E0));
#655=DIRECTION('',(0.E0,-1.E0,0.E0));
#656=AXIS2_PLACEMENT_3D('',#653,#654,#655);
#657=CONICAL_SURFACE('',#656,2.099999998840E0,4.5E1);
#658=ORIENTED_EDGE('',*,*,#470,.T.);
#659=ORIENTED_EDGE('',*,*,#648,.T.);
#661=ORIENTED_EDGE('',*,*,#660,.F.);
#662=ORIENTED_EDGE('',*,*,#644,.F.);
#663=EDGE_LOOP('',(#658,#659,#661,#662));
#664=FACE_OUTER_BOUND('',#663,.F.);
#666=CARTESIAN_POINT('',(1.229E1,-8.235E0,0.E0));
#667=DIRECTION('',(0.E0,0.E0,1.E0));
#668=DIRECTION('',(1.E0,0.E0,0.E0));
#669=AXIS2_PLACEMENT_3D('',#666,#667,#668);
#670=CYLINDRICAL_SURFACE('',#669,1.6E0);
#671=ORIENTED_EDGE('',*,*,#660,.T.);
#673=ORIENTED_EDGE('',*,*,#672,.F.);
#674=ORIENTED_EDGE('',*,*,#395,.F.);
#676=ORIENTED_EDGE('',*,*,#675,.T.);
#677=EDGE_LOOP('',(#671,#673,#674,#676));
#678=FACE_OUTER_BOUND('',#677,.F.);
#680=CARTESIAN_POINT('',(1.229E1,-8.235E0,0.E0));
#681=DIRECTION('',(0.E0,0.E0,1.E0));
#682=DIRECTION('',(1.E0,0.E0,0.E0));
#683=AXIS2_PLACEMENT_3D('',#680,#681,#682);
#684=CYLINDRICAL_SURFACE('',#683,1.6E0);
#685=ORIENTED_EDGE('',*,*,#646,.T.);
#686=ORIENTED_EDGE('',*,*,#675,.F.);
#687=ORIENTED_EDGE('',*,*,#393,.F.);
#688=ORIENTED_EDGE('',*,*,#672,.T.);
#689=EDGE_LOOP('',(#685,#686,#687,#688));
#690=FACE_OUTER_BOUND('',#689,.F.);
#692=CARTESIAN_POINT('',(-1.229E1,-8.235E0,2.499999998840E0));
#693=DIRECTION('',(0.E0,0.E0,1.E0));
#694=DIRECTION('',(0.E0,-1.E0,0.E0));
#695=AXIS2_PLACEMENT_3D('',#692,#693,#694);
#696=CONICAL_SURFACE('',#695,2.099999998840E0,4.5E1);
#697=ORIENTED_EDGE('',*,*,#474,.T.);
#699=ORIENTED_EDGE('',*,*,#698,.T.);
#701=ORIENTED_EDGE('',*,*,#700,.F.);
#703=ORIENTED_EDGE('',*,*,#702,.F.);
#704=EDGE_LOOP('',(#697,#699,#701,#703));
#705=FACE_OUTER_BOUND('',#704,.F.);
#707=CARTESIAN_POINT('',(-1.229E1,-8.235E0,2.499999998840E0));
#708=DIRECTION('',(0.E0,0.E0,1.E0));
#709=DIRECTION('',(0.E0,-1.E0,0.E0));
#710=AXIS2_PLACEMENT_3D('',#707,#708,#709);
#711=CONICAL_SURFACE('',#710,2.099999998840E0,4.5E1);
#712=ORIENTED_EDGE('',*,*,#476,.T.);
#713=ORIENTED_EDGE('',*,*,#702,.T.);
#715=ORIENTED_EDGE('',*,*,#714,.F.);
#716=ORIENTED_EDGE('',*,*,#698,.F.);
#717=EDGE_LOOP('',(#712,#713,#715,#716));
#718=FACE_OUTER_BOUND('',#717,.F.);
#720=CARTESIAN_POINT('',(-1.229E1,-8.235E0,0.E0));
#721=DIRECTION('',(0.E0,0.E0,1.E0));
#722=DIRECTION('',(1.E0,0.E0,0.E0));
#723=AXIS2_PLACEMENT_3D('',#720,#721,#722);
#724=CYLINDRICAL_SURFACE('',#723,1.6E0);
#725=ORIENTED_EDGE('',*,*,#714,.T.);
#727=ORIENTED_EDGE('',*,*,#726,.F.);
#728=ORIENTED_EDGE('',*,*,#389,.F.);
#730=ORIENTED_EDGE('',*,*,#729,.T.);
#731=EDGE_LOOP('',(#725,#727,#728,#730));
#732=FACE_OUTER_BOUND('',#731,.F.);
#734=CARTESIAN_POINT('',(-1.229E1,-8.235E0,0.E0));
#735=DIRECTION('',(0.E0,0.E0,1.E0));
#736=DIRECTION('',(1.E0,0.E0,0.E0));
#737=AXIS2_PLACEMENT_3D('',#734,#735,#736);
#738=CYLINDRICAL_SURFACE('',#737,1.6E0);
#739=ORIENTED_EDGE('',*,*,#700,.T.);
#740=ORIENTED_EDGE('',*,*,#729,.F.);
#741=ORIENTED_EDGE('',*,*,#387,.F.);
#742=ORIENTED_EDGE('',*,*,#726,.T.);
#743=EDGE_LOOP('',(#739,#740,#741,#742));
#744=FACE_OUTER_BOUND('',#743,.F.);
#746=CLOSED_SHELL('',(#405,#420,#435,#480,#494,#506,#520,#533,#546,#558,#571,
#583,#598,#611,#625,#637,#652,#665,#679,#691,#706,#719,#733,#745));
#747=MANIFOLD_SOLID_BREP('',#746);
#750=PLANE_ANGLE_MEASURE_WITH_UNIT(PLANE_ANGLE_MEASURE(1.745329251994E-2),#749);
#751=(CONVERSION_BASED_UNIT('DEGREE',#750)NAMED_UNIT(*)PLANE_ANGLE_UNIT());
#753=UNCERTAINTY_MEASURE_WITH_UNIT(LENGTH_MEASURE(4.638521168051E-3),#748,
'distance_accuracy_value',
'Maximum model space distance between geometric entities at asserted connectivities');
#755=CARTESIAN_POINT('',(0.E0,0.E0,0.E0));
#756=DIRECTION('',(0.E0,0.E0,1.E0));
#757=DIRECTION('',(1.E0,0.E0,0.E0));
#760=APPLICATION_CONTEXT('automotive_design');
#761=APPLICATION_PROTOCOL_DEFINITION('international standard',
'automotive_design',2001,#760);
#762=PRODUCT_DEFINITION_CONTEXT('part definition',#760,'design');
#763=PRODUCT_CONTEXT('',#760,'mechanical');
#764=PRODUCT('JOINTCOVER2','JOINTCOVER2','NOT SPECIFIED',(#763));
#765=PRODUCT_DEFINITION_FORMATION('3','LAST_VERSION',#764);
#773=DERIVED_UNIT_ELEMENT(#772,2.E0);
#774=DERIVED_UNIT((#773));
#775=MEASURE_REPRESENTATION_ITEM('surface area measure',AREA_MEASURE(
2.194310866984E3),#774);
#780=DERIVED_UNIT_ELEMENT(#779,3.E0);
#781=DERIVED_UNIT((#780));
#782=MEASURE_REPRESENTATION_ITEM('volume measure',VOLUME_MEASURE(
2.302612583392E3),#781);
#786=CARTESIAN_POINT('centre point',(-1.908671549405E-7,-3.816761483533E-2,
1.487538839670E0));
#791=DERIVED_UNIT_ELEMENT(#790,2.E0);
#792=DERIVED_UNIT((#791));
#793=MEASURE_REPRESENTATION_ITEM('surface area measure',AREA_MEASURE(
2.194310866984E3),#792);
#798=DERIVED_UNIT_ELEMENT(#797,3.E0);
#799=DERIVED_UNIT((#798));
#800=MEASURE_REPRESENTATION_ITEM('volume measure',VOLUME_MEASURE(
2.302612583392E3),#799);
#804=CARTESIAN_POINT('centre point',(-1.908671549405E-7,-3.816761483533E-2,
1.487538839670E0));
#1=DRAUGHTING_PRE_DEFINED_COLOUR('green');
#2=DRAUGHTING_PRE_DEFINED_COLOUR('green');
#3=DRAUGHTING_PRE_DEFINED_COLOUR('green');
#4=COLOUR_RGB('',1.1E-2,1.2E-2,1.E0);
#5=COLOUR_RGB('',1.1E-2,1.2E-2,1.E0);
#6=COLOUR_RGB('',4.1E-1,2.61589E-1,1.12848E-1);
#7=COLOUR_RGB('',5.04854E-1,1.5455E-2,1.5455E-2);
#8=COLOUR_RGB('',6.35294E-1,6.86275E-1,7.4902E-1);
#9=COLOUR_RGB('',6.40777E-1,6.40777E-1,6.40777E-1);
#10=COLOUR_RGB('',6.66667E-1,6.66667E-1,6.66667E-1);
#11=COLOUR_RGB('',6.69062E-1,6.69903E-1,6.55217E-1);
#12=COLOUR_RGB('',7.45098E-1,3.92157E-1,2.94118E-1);
#13=COLOUR_RGB('',8.03922E-1,5.88235E-1,1.96078E-1);
#14=COLOUR_RGB('',9.21569E-1,7.05882E-1,4.70588E-1);
#15=DRAUGHTING_PRE_DEFINED_COLOUR('red');
#16=DRAUGHTING_PRE_DEFINED_COLOUR('red');
#17=DRAUGHTING_PRE_DEFINED_COLOUR('red');
#18=DRAUGHTING_PRE_DEFINED_COLOUR('red');
#19=DRAUGHTING_PRE_DEFINED_COLOUR('red');
#20=DRAUGHTING_PRE_DEFINED_COLOUR('red');
#21=DRAUGHTING_PRE_DEFINED_COLOUR('red');
#22=DRAUGHTING_PRE_DEFINED_COLOUR('yellow');
#23=DRAUGHTING_PRE_DEFINED_COLOUR('yellow');
#24=COLOUR_RGB('',1.E0,1.E0,5.3E-1);
#25=COLOUR_RGB('',1.E0,1.E0,9.49E-1);
#26=COLOUR_RGB('',1.E0,1.E0,9.49E-1);
#27=DRAUGHTING_PRE_DEFINED_COLOUR('white');
#32=CIRCLE('',#31,1.6E0);
#37=CIRCLE('',#36,1.6E0);
#42=CIRCLE('',#41,1.6E0);
#47=CIRCLE('',#46,1.6E0);
#52=CIRCLE('',#51,8.125E0);
#57=CIRCLE('',#56,8.125E0);
#62=CIRCLE('',#61,1.6E0);
#67=CIRCLE('',#66,1.6E0);
#72=CIRCLE('',#71,1.6E0);
#77=CIRCLE('',#76,1.6E0);
#98=CIRCLE('',#97,1.6E0);
#111=CIRCLE('',#110,8.125E0);
#116=CIRCLE('',#115,8.125E0);
#137=CIRCLE('',#136,2.6E0);
#142=CIRCLE('',#141,2.6E0);
#147=CIRCLE('',#146,2.6E0);
#152=CIRCLE('',#151,2.6E0);
#157=CIRCLE('',#156,2.6E0);
#162=CIRCLE('',#161,2.6E0);
#167=CIRCLE('',#166,2.6E0);
#172=CIRCLE('',#171,2.6E0);
#205=CIRCLE('',#204,1.6E0);
#222=CIRCLE('',#221,1.6E0);
#231=CIRCLE('',#230,1.6E0);
#248=CIRCLE('',#247,1.6E0);
#257=CIRCLE('',#256,1.6E0);
#274=CIRCLE('',#273,1.6E0);
#283=CIRCLE('',#282,1.6E0);
#365=EDGE_CURVE('',#302,#303,#81,.T.);
#367=EDGE_CURVE('',#303,#305,#85,.T.);
#369=EDGE_CURVE('',#305,#307,#89,.T.);
#371=EDGE_CURVE('',#307,#302,#93,.T.);
#375=EDGE_CURVE('',#294,#295,#42,.T.);
#377=EDGE_CURVE('',#295,#294,#47,.T.);
#381=EDGE_CURVE('',#298,#299,#52,.T.);
#383=EDGE_CURVE('',#299,#298,#57,.T.);
#387=EDGE_CURVE('',#322,#323,#62,.T.);
#389=EDGE_CURVE('',#323,#322,#67,.T.);
#393=EDGE_CURVE('',#326,#327,#72,.T.);
#395=EDGE_CURVE('',#327,#326,#77,.T.);
#399=EDGE_CURVE('',#290,#291,#32,.T.);
#401=EDGE_CURVE('',#291,#290,#37,.T.);
#405=ADVANCED_FACE('',(#374,#380,#386,#392,#398,#404),#364,.F.);
#411=EDGE_CURVE('',#334,#335,#98,.T.);
#413=EDGE_CURVE('',#291,#335,#209,.T.);
#416=EDGE_CURVE('',#290,#334,#102,.T.);
#420=ADVANCED_FACE('',(#419),#410,.F.);
#426=EDGE_CURVE('',#330,#331,#137,.T.);
#428=EDGE_CURVE('',#331,#335,#200,.T.);
#431=EDGE_CURVE('',#330,#334,#106,.T.);
#435=ADVANCED_FACE('',(#434),#425,.F.);
#441=EDGE_CURVE('',#314,#315,#120,.T.);
#443=EDGE_CURVE('',#319,#314,#124,.T.);
#445=EDGE_CURVE('',#317,#319,#128,.T.);
#447=EDGE_CURVE('',#315,#317,#132,.T.);
#451=EDGE_CURVE('',#310,#311,#111,.T.);
#453=EDGE_CURVE('',#311,#310,#116,.T.);
#458=EDGE_CURVE('',#331,#330,#142,.T.);
#462=EDGE_CURVE('',#338,#339,#147,.T.);
#464=EDGE_CURVE('',#339,#338,#152,.T.);
#468=EDGE_CURVE('',#346,#347,#157,.T.);
#470=EDGE_CURVE('',#347,#346,#162,.T.);
#474=EDGE_CURVE('',#354,#355,#167,.T.);
#476=EDGE_CURVE('',#355,#354,#172,.T.);
#480=ADVANCED_FACE('',(#450,#456,#461,#467,#473,#479),#440,.T.);
#487=EDGE_CURVE('',#298,#310,#176,.T.);
#490=EDGE_CURVE('',#299,#311,#180,.T.);
#494=ADVANCED_FACE('',(#493),#485,.F.);
#506=ADVANCED_FACE('',(#505),#499,.F.);
#513=EDGE_CURVE('',#302,#314,#184,.T.);
#516=EDGE_CURVE('',#303,#315,#196,.T.);
#520=ADVANCED_FACE('',(#519),#511,.T.);
#527=EDGE_CURVE('',#307,#319,#188,.T.);
#533=ADVANCED_FACE('',(#532),#525,.T.);
#540=EDGE_CURVE('',#305,#317,#192,.T.);
#546=ADVANCED_FACE('',(#545),#538,.T.);
#558=ADVANCED_FACE('',(#557),#551,.T.);
#566=EDGE_CURVE('',#335,#334,#205,.T.);
#571=ADVANCED_FACE('',(#570),#563,.F.);
#583=ADVANCED_FACE('',(#582),#576,.F.);
#590=EDGE_CURVE('',#339,#343,#217,.T.);
#592=EDGE_CURVE('',#342,#343,#231,.T.);
#594=EDGE_CURVE('',#338,#342,#213,.T.);
#598=ADVANCED_FACE('',(#597),#588,.F.);
#606=EDGE_CURVE('',#343,#342,#222,.T.);
#611=ADVANCED_FACE('',(#610),#603,.F.);
#618=EDGE_CURVE('',#294,#342,#235,.T.);
#621=EDGE_CURVE('',#295,#343,#226,.T.);
#625=ADVANCED_FACE('',(#624),#616,.F.);
#637=ADVANCED_FACE('',(#636),#630,.F.);
#644=EDGE_CURVE('',#347,#351,#243,.T.);
#646=EDGE_CURVE('',#350,#351,#257,.T.);
#648=EDGE_CURVE('',#346,#350,#239,.T.);
#652=ADVANCED_FACE('',(#651),#642,.F.);
#660=EDGE_CURVE('',#351,#350,#248,.T.);
#665=ADVANCED_FACE('',(#664),#657,.F.);
#672=EDGE_CURVE('',#326,#350,#261,.T.);
#675=EDGE_CURVE('',#327,#351,#252,.T.);
#679=ADVANCED_FACE('',(#678),#670,.F.);
#691=ADVANCED_FACE('',(#690),#684,.F.);
#698=EDGE_CURVE('',#355,#359,#269,.T.);
#700=EDGE_CURVE('',#358,#359,#283,.T.);
#702=EDGE_CURVE('',#354,#358,#265,.T.);
#706=ADVANCED_FACE('',(#705),#696,.F.);
#714=EDGE_CURVE('',#359,#358,#274,.T.);
#719=ADVANCED_FACE('',(#718),#711,.F.);
#726=EDGE_CURVE('',#322,#358,#287,.T.);
#729=EDGE_CURVE('',#323,#359,#278,.T.);
#733=ADVANCED_FACE('',(#732),#724,.F.);
#745=ADVANCED_FACE('',(#744),#738,.F.);
#748=(LENGTH_UNIT()NAMED_UNIT(*)SI_UNIT(.MILLI.,.METRE.));
#749=(NAMED_UNIT(*)PLANE_ANGLE_UNIT()SI_UNIT($,.RADIAN.));
#752=(NAMED_UNIT(*)SI_UNIT($,.STERADIAN.)SOLID_ANGLE_UNIT());
#754=(GEOMETRIC_REPRESENTATION_CONTEXT(3)GLOBAL_UNCERTAINTY_ASSIGNED_CONTEXT((
#753))GLOBAL_UNIT_ASSIGNED_CONTEXT((#748,#751,#752))REPRESENTATION_CONTEXT
('ID1','external'));
#758=AXIS2_PLACEMENT_3D('',#755,#756,#757);
#759=ADVANCED_BREP_SHAPE_REPRESENTATION('',(#758,#747),#754);
#766=PRODUCT_DEFINITION('part definition','',#765,#762);
#767=PRODUCT_DEFINITION_SHAPE('','SHAPE FOR JOINTCOVER2.',#766);
#768=SHAPE_ASPECT('','solid data associated with JOINTCOVER2',#767,.F.);
#769=PROPERTY_DEFINITION('',
'shape for solid data with which properties are associated',#768);
#770=SHAPE_REPRESENTATION('',(#747),#754);
#771=SHAPE_DEFINITION_REPRESENTATION(#769,#770);
#772=(LENGTH_UNIT()NAMED_UNIT(*)SI_UNIT(.MILLI.,.METRE.));
#776=PROPERTY_DEFINITION('geometric validation property','area of JOINTCOVER2',
#768);
#777=REPRESENTATION('surface area',(#775),#754);
#778=PROPERTY_DEFINITION_REPRESENTATION(#776,#777);
#779=(LENGTH_UNIT()NAMED_UNIT(*)SI_UNIT(.MILLI.,.METRE.));
#783=PROPERTY_DEFINITION('geometric validation property',
'volume of JOINTCOVER2',#768);
#784=REPRESENTATION('volume',(#782),#754);
#785=PROPERTY_DEFINITION_REPRESENTATION(#783,#784);
#787=PROPERTY_DEFINITION('geometric validation property',
'centroid of JOINTCOVER2',#768);
#788=REPRESENTATION('centroid',(#786),#754);
#789=PROPERTY_DEFINITION_REPRESENTATION(#787,#788);
#790=(LENGTH_UNIT()NAMED_UNIT(*)SI_UNIT(.MILLI.,.METRE.));
#794=PROPERTY_DEFINITION('geometric validation property','area of JOINTCOVER2',
#767);
#795=REPRESENTATION('surface area',(#793),#754);
#796=PROPERTY_DEFINITION_REPRESENTATION(#794,#795);
#797=(LENGTH_UNIT()NAMED_UNIT(*)SI_UNIT(.MILLI.,.METRE.));
#801=PROPERTY_DEFINITION('geometric validation property',
'volume of JOINTCOVER2',#767);
#802=REPRESENTATION('volume',(#800),#754);
#803=PROPERTY_DEFINITION_REPRESENTATION(#801,#802);
#805=PROPERTY_DEFINITION('geometric validation property',
'centroid of JOINTCOVER2',#767);
#806=REPRESENTATION('centroid',(#804),#754);
#807=PROPERTY_DEFINITION_REPRESENTATION(#805,#806);
#808=SHAPE_DEFINITION_REPRESENTATION(#767,#759);
#809=PRODUCT_RELATED_PRODUCT_CATEGORY('part','',(#764));
ENDSEC;
END-ISO-10303-21;
