ISO-10303-21;
HEADER;
FILE_DESCRIPTION((''),'2;1');
FILE_NAME('JOINTCOVER','2026-08-09T09:56:41',('gram2'),(''),
'CREO PARAMETRIC BY PTC INC, 2016510','CREO PARAMETRIC BY PTC INC, 2016510','');
FILE_SCHEMA(('AUTOMOTIVE_DESIGN { 1 0 10303 214 1 1 1 1 }'));
ENDSEC;
DATA;
#29=CARTESIAN_POINT('',(-1.195E1,1.14E1,0.E0));
#30=DIRECTION('',(0.E0,0.E0,-1.E0));
#31=DIRECTION('',(1.E0,0.E0,0.E0));
#32=AXIS2_PLACEMENT_3D('',#29,#30,#31);
#34=DRAUGHTING_PRE_DEFINED_CURVE_FONT('continuous');
#35=CURVE_STYLE('',#34,POSITIVE_LENGTH_MEASURE(2.E-2),#21);
#36=PRESENTATION_STYLE_ASSIGNMENT((#35));
#37=STYLED_ITEM('',(#36),#33);
#38=CARTESIAN_POINT('',(-1.195E1,1.14E1,0.E0));
#39=DIRECTION('',(0.E0,0.E0,-1.E0));
#40=DIRECTION('',(-1.E0,0.E0,0.E0));
#41=AXIS2_PLACEMENT_3D('',#38,#39,#40);
#43=CURVE_STYLE('',#34,POSITIVE_LENGTH_MEASURE(2.E-2),#21);
#44=PRESENTATION_STYLE_ASSIGNMENT((#43));
#45=STYLED_ITEM('',(#44),#42);
#46=CARTESIAN_POINT('',(1.1935E1,1.14E1,0.E0));
#47=DIRECTION('',(0.E0,0.E0,-1.E0));
#48=DIRECTION('',(1.E0,0.E0,0.E0));
#49=AXIS2_PLACEMENT_3D('',#46,#47,#48);
#51=CURVE_STYLE('',#34,POSITIVE_LENGTH_MEASURE(2.E-2),#21);
#52=PRESENTATION_STYLE_ASSIGNMENT((#51));
#53=STYLED_ITEM('',(#52),#50);
#54=CARTESIAN_POINT('',(1.1935E1,1.14E1,0.E0));
#55=DIRECTION('',(0.E0,0.E0,-1.E0));
#56=DIRECTION('',(-1.E0,0.E0,0.E0));
#57=AXIS2_PLACEMENT_3D('',#54,#55,#56);
#59=CURVE_STYLE('',#34,POSITIVE_LENGTH_MEASURE(2.E-2),#21);
#60=PRESENTATION_STYLE_ASSIGNMENT((#59));
#61=STYLED_ITEM('',(#60),#58);
#62=CARTESIAN_POINT('',(1.1935E1,-1.14E1,0.E0));
#63=DIRECTION('',(0.E0,0.E0,-1.E0));
#64=DIRECTION('',(1.E0,0.E0,0.E0));
#65=AXIS2_PLACEMENT_3D('',#62,#63,#64);
#67=CURVE_STYLE('',#34,POSITIVE_LENGTH_MEASURE(2.E-2),#21);
#68=PRESENTATION_STYLE_ASSIGNMENT((#67));
#69=STYLED_ITEM('',(#68),#66);
#70=CARTESIAN_POINT('',(1.1935E1,-1.14E1,0.E0));
#71=DIRECTION('',(0.E0,0.E0,-1.E0));
#72=DIRECTION('',(-1.E0,0.E0,0.E0));
#73=AXIS2_PLACEMENT_3D('',#70,#71,#72);
#75=CURVE_STYLE('',#34,POSITIVE_LENGTH_MEASURE(2.E-2),#21);
#76=PRESENTATION_STYLE_ASSIGNMENT((#75));
#77=STYLED_ITEM('',(#76),#74);
#78=CARTESIAN_POINT('',(-1.195E1,-1.14E1,0.E0));
#79=DIRECTION('',(0.E0,0.E0,-1.E0));
#80=DIRECTION('',(1.E0,0.E0,0.E0));
#81=AXIS2_PLACEMENT_3D('',#78,#79,#80);
#83=CURVE_STYLE('',#34,POSITIVE_LENGTH_MEASURE(2.E-2),#21);
#84=PRESENTATION_STYLE_ASSIGNMENT((#83));
#85=STYLED_ITEM('',(#84),#82);
#86=CARTESIAN_POINT('',(-1.195E1,-1.14E1,0.E0));
#87=DIRECTION('',(0.E0,0.E0,-1.E0));
#88=DIRECTION('',(-1.E0,0.E0,0.E0));
#89=AXIS2_PLACEMENT_3D('',#86,#87,#88);
#91=CURVE_STYLE('',#34,POSITIVE_LENGTH_MEASURE(2.E-2),#21);
#92=PRESENTATION_STYLE_ASSIGNMENT((#91));
#93=STYLED_ITEM('',(#92),#90);
#94=CARTESIAN_POINT('',(0.E0,0.E0,0.E0));
#95=DIRECTION('',(0.E0,0.E0,-1.E0));
#96=DIRECTION('',(1.E0,0.E0,0.E0));
#97=AXIS2_PLACEMENT_3D('',#94,#95,#96);
#99=CURVE_STYLE('',#34,POSITIVE_LENGTH_MEASURE(2.E-2),#21);
#100=PRESENTATION_STYLE_ASSIGNMENT((#99));
#101=STYLED_ITEM('',(#100),#98);
#102=CARTESIAN_POINT('',(0.E0,0.E0,0.E0));
#103=DIRECTION('',(0.E0,0.E0,-1.E0));
#104=DIRECTION('',(-1.E0,0.E0,0.E0));
#105=AXIS2_PLACEMENT_3D('',#102,#103,#104);
#107=CURVE_STYLE('',#34,POSITIVE_LENGTH_MEASURE(2.E-2),#21);
#108=PRESENTATION_STYLE_ASSIGNMENT((#107));
#109=STYLED_ITEM('',(#108),#106);
#110=CARTESIAN_POINT('',(1.6E1,-1.4E1,0.E0));
#111=DIRECTION('',(0.E0,0.E0,-1.E0));
#112=DIRECTION('',(1.E0,0.E0,0.E0));
#113=AXIS2_PLACEMENT_3D('',#110,#111,#112);
#115=CURVE_STYLE('',#34,POSITIVE_LENGTH_MEASURE(2.E-2),#21);
#116=PRESENTATION_STYLE_ASSIGNMENT((#115));
#117=STYLED_ITEM('',(#116),#114);
#118=DIRECTION('',(0.E0,1.E0,0.E0));
#119=VECTOR('',#118,2.8E1);
#120=CARTESIAN_POINT('',(1.9E1,-1.4E1,0.E0));
#121=LINE('',#120,#119);
#122=CURVE_STYLE('',#34,POSITIVE_LENGTH_MEASURE(2.E-2),#21);
#123=PRESENTATION_STYLE_ASSIGNMENT((#122));
#124=STYLED_ITEM('',(#123),#121);
#125=CARTESIAN_POINT('',(1.6E1,1.4E1,0.E0));
#126=DIRECTION('',(0.E0,0.E0,-1.E0));
#127=DIRECTION('',(0.E0,1.E0,0.E0));
#128=AXIS2_PLACEMENT_3D('',#125,#126,#127);
#130=CURVE_STYLE('',#34,POSITIVE_LENGTH_MEASURE(2.E-2),#21);
#131=PRESENTATION_STYLE_ASSIGNMENT((#130));
#132=STYLED_ITEM('',(#131),#129);
#133=DIRECTION('',(-1.E0,0.E0,0.E0));
#134=VECTOR('',#133,3.2E1);
#135=CARTESIAN_POINT('',(1.6E1,1.7E1,0.E0));
#136=LINE('',#135,#134);
#137=CURVE_STYLE('',#34,POSITIVE_LENGTH_MEASURE(2.E-2),#21);
#138=PRESENTATION_STYLE_ASSIGNMENT((#137));
#139=STYLED_ITEM('',(#138),#136);
#140=CARTESIAN_POINT('',(-1.6E1,1.4E1,0.E0));
#141=DIRECTION('',(0.E0,0.E0,-1.E0));
#142=DIRECTION('',(-1.E0,0.E0,0.E0));
#143=AXIS2_PLACEMENT_3D('',#140,#141,#142);
#145=CURVE_STYLE('',#34,POSITIVE_LENGTH_MEASURE(2.E-2),#21);
#146=PRESENTATION_STYLE_ASSIGNMENT((#145));
#147=STYLED_ITEM('',(#146),#144);
#148=DIRECTION('',(0.E0,-1.E0,0.E0));
#149=VECTOR('',#148,2.8E1);
#150=CARTESIAN_POINT('',(-1.9E1,1.4E1,0.E0));
#151=LINE('',#150,#149);
#152=CURVE_STYLE('',#34,POSITIVE_LENGTH_MEASURE(2.E-2),#21);
#153=PRESENTATION_STYLE_ASSIGNMENT((#152));
#154=STYLED_ITEM('',(#153),#151);
#155=CARTESIAN_POINT('',(-1.6E1,-1.4E1,0.E0));
#156=DIRECTION('',(0.E0,0.E0,-1.E0));
#157=DIRECTION('',(0.E0,-1.E0,0.E0));
#158=AXIS2_PLACEMENT_3D('',#155,#156,#157);
#160=CURVE_STYLE('',#34,POSITIVE_LENGTH_MEASURE(2.E-2),#21);
#161=PRESENTATION_STYLE_ASSIGNMENT((#160));
#162=STYLED_ITEM('',(#161),#159);
#163=DIRECTION('',(1.E0,0.E0,0.E0));
#164=VECTOR('',#163,3.2E1);
#165=CARTESIAN_POINT('',(-1.6E1,-1.7E1,0.E0));
#166=LINE('',#165,#164);
#167=CURVE_STYLE('',#34,POSITIVE_LENGTH_MEASURE(2.E-2),#21);
#168=PRESENTATION_STYLE_ASSIGNMENT((#167));
#169=STYLED_ITEM('',(#168),#166);
#170=CARTESIAN_POINT('',(-1.195E1,1.14E1,2.E0));
#171=DIRECTION('',(0.E0,0.E0,-1.E0));
#172=DIRECTION('',(1.E0,0.E0,0.E0));
#173=AXIS2_PLACEMENT_3D('',#170,#171,#172);
#175=CURVE_STYLE('',#34,POSITIVE_LENGTH_MEASURE(2.E-2),#21);
#176=PRESENTATION_STYLE_ASSIGNMENT((#175));
#177=STYLED_ITEM('',(#176),#174);
#178=DIRECTION('',(-1.134941919512E-9,-7.428864642993E-9,1.E0));
#179=VECTOR('',#178,1.999999997730E0);
#180=CARTESIAN_POINT('',(-1.045E1,1.14E1,0.E0));
#181=LINE('',#180,#179);
#182=CURVE_STYLE('',#34,POSITIVE_LENGTH_MEASURE(2.E-2),#21);
#183=PRESENTATION_STYLE_ASSIGNMENT((#182));
#184=STYLED_ITEM('',(#183),#181);
#185=DIRECTION('',(-7.071067811865E-1,1.284066583722E-8,-7.071067811865E-1));
#186=VECTOR('',#185,1.414213558450E0);
#187=CARTESIAN_POINT('',(-9.450000005044E0,1.139999996698E1,2.999999994956E0));
#188=LINE('',#187,#186);
#189=CURVE_STYLE('',#34,POSITIVE_LENGTH_MEASURE(2.E-2),#21);
#190=PRESENTATION_STYLE_ASSIGNMENT((#189));
#191=STYLED_ITEM('',(#190),#188);
#192=CARTESIAN_POINT('',(0.E0,0.E0,3.E0));
#193=DIRECTION('',(0.E0,0.E0,-1.E0));
#194=DIRECTION('',(1.E0,0.E0,0.E0));
#195=AXIS2_PLACEMENT_3D('',#192,#193,#194);
#197=CURVE_STYLE('',#34,POSITIVE_LENGTH_MEASURE(2.E-2),#21);
#198=PRESENTATION_STYLE_ASSIGNMENT((#197));
#199=STYLED_ITEM('',(#198),#196);
#200=CARTESIAN_POINT('',(0.E0,0.E0,3.E0));
#201=DIRECTION('',(0.E0,0.E0,-1.E0));
#202=DIRECTION('',(-1.E0,0.E0,0.E0));
#203=AXIS2_PLACEMENT_3D('',#200,#201,#202);
#205=CURVE_STYLE('',#34,POSITIVE_LENGTH_MEASURE(2.E-2),#21);
#206=PRESENTATION_STYLE_ASSIGNMENT((#205));
#207=STYLED_ITEM('',(#206),#204);
#208=CARTESIAN_POINT('',(1.6E1,-1.4E1,3.E0));
#209=DIRECTION('',(0.E0,0.E0,1.E0));
#210=DIRECTION('',(0.E0,-1.E0,0.E0));
#211=AXIS2_PLACEMENT_3D('',#208,#209,#210);
#213=CURVE_STYLE('',#34,POSITIVE_LENGTH_MEASURE(2.E-2),#21);
#214=PRESENTATION_STYLE_ASSIGNMENT((#213));
#215=STYLED_ITEM('',(#214),#212);
#216=DIRECTION('',(1.E0,0.E0,0.E0));
#217=VECTOR('',#216,3.2E1);
#218=CARTESIAN_POINT('',(-1.6E1,-1.7E1,3.E0));
#219=LINE('',#218,#217);
#220=CURVE_STYLE('',#34,POSITIVE_LENGTH_MEASURE(2.E-2),#21);
#221=PRESENTATION_STYLE_ASSIGNMENT((#220));
#222=STYLED_ITEM('',(#221),#219);
#223=CARTESIAN_POINT('',(-1.6E1,-1.4E1,3.E0));
#224=DIRECTION('',(0.E0,0.E0,1.E0));
#225=DIRECTION('',(-1.E0,0.E0,0.E0));
#226=AXIS2_PLACEMENT_3D('',#223,#224,#225);
#228=CURVE_STYLE('',#34,POSITIVE_LENGTH_MEASURE(2.E-2),#21);
#229=PRESENTATION_STYLE_ASSIGNMENT((#228));
#230=STYLED_ITEM('',(#229),#227);
#231=DIRECTION('',(0.E0,-1.E0,0.E0));
#232=VECTOR('',#231,2.8E1);
#233=CARTESIAN_POINT('',(-1.9E1,1.4E1,3.E0));
#234=LINE('',#233,#232);
#235=CURVE_STYLE('',#34,POSITIVE_LENGTH_MEASURE(2.E-2),#21);
#236=PRESENTATION_STYLE_ASSIGNMENT((#235));
#237=STYLED_ITEM('',(#236),#234);
#238=CARTESIAN_POINT('',(-1.6E1,1.4E1,3.E0));
#239=DIRECTION('',(0.E0,0.E0,1.E0));
#240=DIRECTION('',(0.E0,1.E0,0.E0));
#241=AXIS2_PLACEMENT_3D('',#238,#239,#240);
#243=CURVE_STYLE('',#34,POSITIVE_LENGTH_MEASURE(2.E-2),#21);
#244=PRESENTATION_STYLE_ASSIGNMENT((#243));
#245=STYLED_ITEM('',(#244),#242);
#246=DIRECTION('',(-1.E0,0.E0,0.E0));
#247=VECTOR('',#246,3.2E1);
#248=CARTESIAN_POINT('',(1.6E1,1.7E1,3.E0));
#249=LINE('',#248,#247);
#250=CURVE_STYLE('',#34,POSITIVE_LENGTH_MEASURE(2.E-2),#21);
#251=PRESENTATION_STYLE_ASSIGNMENT((#250));
#252=STYLED_ITEM('',(#251),#249);
#253=CARTESIAN_POINT('',(1.6E1,1.4E1,3.E0));
#254=DIRECTION('',(0.E0,0.E0,1.E0));
#255=DIRECTION('',(1.E0,0.E0,0.E0));
#256=AXIS2_PLACEMENT_3D('',#253,#254,#255);
#258=CURVE_STYLE('',#34,POSITIVE_LENGTH_MEASURE(2.E-2),#21);
#259=PRESENTATION_STYLE_ASSIGNMENT((#258));
#260=STYLED_ITEM('',(#259),#257);
#261=DIRECTION('',(0.E0,1.E0,0.E0));
#262=VECTOR('',#261,2.8E1);
#263=CARTESIAN_POINT('',(1.9E1,-1.4E1,3.E0));
#264=LINE('',#263,#262);
#265=CURVE_STYLE('',#34,POSITIVE_LENGTH_MEASURE(2.E-2),#21);
#266=PRESENTATION_STYLE_ASSIGNMENT((#265));
#267=STYLED_ITEM('',(#266),#264);
#268=CARTESIAN_POINT('',(-1.195E1,1.14E1,3.E0));
#269=DIRECTION('',(0.E0,0.E0,-1.E0));
#270=DIRECTION('',(1.E0,0.E0,0.E0));
#271=AXIS2_PLACEMENT_3D('',#268,#269,#270);
#273=CURVE_STYLE('',#34,POSITIVE_LENGTH_MEASURE(2.E-2),#21);
#274=PRESENTATION_STYLE_ASSIGNMENT((#273));
#275=STYLED_ITEM('',(#274),#272);
#276=CARTESIAN_POINT('',(-1.195E1,1.14E1,3.E0));
#277=DIRECTION('',(0.E0,0.E0,-1.E0));
#278=DIRECTION('',(-1.E0,0.E0,0.E0));
#279=AXIS2_PLACEMENT_3D('',#276,#277,#278);
#281=CURVE_STYLE('',#34,POSITIVE_LENGTH_MEASURE(2.E-2),#21);
#282=PRESENTATION_STYLE_ASSIGNMENT((#281));
#283=STYLED_ITEM('',(#282),#280);
#284=CARTESIAN_POINT('',(1.1935E1,1.14E1,3.E0));
#285=DIRECTION('',(0.E0,0.E0,-1.E0));
#286=DIRECTION('',(1.E0,0.E0,0.E0));
#287=AXIS2_PLACEMENT_3D('',#284,#285,#286);
#289=CURVE_STYLE('',#34,POSITIVE_LENGTH_MEASURE(2.E-2),#21);
#290=PRESENTATION_STYLE_ASSIGNMENT((#289));
#291=STYLED_ITEM('',(#290),#288);
#292=CARTESIAN_POINT('',(1.1935E1,1.14E1,3.E0));
#293=DIRECTION('',(0.E0,0.E0,-1.E0));
#294=DIRECTION('',(-1.E0,0.E0,0.E0));
#295=AXIS2_PLACEMENT_3D('',#292,#293,#294);
#297=CURVE_STYLE('',#34,POSITIVE_LENGTH_MEASURE(2.E-2),#21);
#298=PRESENTATION_STYLE_ASSIGNMENT((#297));
#299=STYLED_ITEM('',(#298),#296);
#300=CARTESIAN_POINT('',(1.1935E1,-1.14E1,3.E0));
#301=DIRECTION('',(0.E0,0.E0,-1.E0));
#302=DIRECTION('',(1.E0,0.E0,0.E0));
#303=AXIS2_PLACEMENT_3D('',#300,#301,#302);
#305=CURVE_STYLE('',#34,POSITIVE_LENGTH_MEASURE(2.E-2),#21);
#306=PRESENTATION_STYLE_ASSIGNMENT((#305));
#307=STYLED_ITEM('',(#306),#304);
#308=CARTESIAN_POINT('',(1.1935E1,-1.14E1,3.E0));
#309=DIRECTION('',(0.E0,0.E0,-1.E0));
#310=DIRECTION('',(-1.E0,0.E0,0.E0));
#311=AXIS2_PLACEMENT_3D('',#308,#309,#310);
#313=CURVE_STYLE('',#34,POSITIVE_LENGTH_MEASURE(2.E-2),#21);
#314=PRESENTATION_STYLE_ASSIGNMENT((#313));
#315=STYLED_ITEM('',(#314),#312);
#316=CARTESIAN_POINT('',(-1.195E1,-1.14E1,3.E0));
#317=DIRECTION('',(0.E0,0.E0,-1.E0));
#318=DIRECTION('',(1.E0,0.E0,0.E0));
#319=AXIS2_PLACEMENT_3D('',#316,#317,#318);
#321=CURVE_STYLE('',#34,POSITIVE_LENGTH_MEASURE(2.E-2),#21);
#322=PRESENTATION_STYLE_ASSIGNMENT((#321));
#323=STYLED_ITEM('',(#322),#320);
#324=CARTESIAN_POINT('',(-1.195E1,-1.14E1,3.E0));
#325=DIRECTION('',(0.E0,0.E0,-1.E0));
#326=DIRECTION('',(-1.E0,0.E0,0.E0));
#327=AXIS2_PLACEMENT_3D('',#324,#325,#326);
#329=CURVE_STYLE('',#34,POSITIVE_LENGTH_MEASURE(2.E-2),#21);
#330=PRESENTATION_STYLE_ASSIGNMENT((#329));
#331=STYLED_ITEM('',(#330),#328);
#332=DIRECTION('',(0.E0,0.E0,1.E0));
#333=VECTOR('',#332,3.E0);
#334=CARTESIAN_POINT('',(8.2E0,0.E0,0.E0));
#335=LINE('',#334,#333);
#336=CURVE_STYLE('',#34,POSITIVE_LENGTH_MEASURE(2.E-2),#21);
#337=PRESENTATION_STYLE_ASSIGNMENT((#336));
#338=STYLED_ITEM('',(#337),#335);
#339=DIRECTION('',(0.E0,0.E0,1.E0));
#340=VECTOR('',#339,3.E0);
#341=CARTESIAN_POINT('',(-8.2E0,0.E0,0.E0));
#342=LINE('',#341,#340);
#343=CURVE_STYLE('',#34,POSITIVE_LENGTH_MEASURE(2.E-2),#21);
#344=PRESENTATION_STYLE_ASSIGNMENT((#343));
#345=STYLED_ITEM('',(#344),#342);
#346=DIRECTION('',(0.E0,0.E0,-1.E0));
#347=VECTOR('',#346,3.E0);
#348=CARTESIAN_POINT('',(1.6E1,-1.7E1,3.E0));
#349=LINE('',#348,#347);
#350=CURVE_STYLE('',#34,POSITIVE_LENGTH_MEASURE(2.E-2),#21);
#351=PRESENTATION_STYLE_ASSIGNMENT((#350));
#352=STYLED_ITEM('',(#351),#349);
#353=DIRECTION('',(0.E0,0.E0,-1.E0));
#354=VECTOR('',#353,3.E0);
#355=CARTESIAN_POINT('',(-1.6E1,-1.7E1,3.E0));
#356=LINE('',#355,#354);
#357=CURVE_STYLE('',#34,POSITIVE_LENGTH_MEASURE(2.E-2),#21);
#358=PRESENTATION_STYLE_ASSIGNMENT((#357));
#359=STYLED_ITEM('',(#358),#356);
#360=DIRECTION('',(0.E0,0.E0,-1.E0));
#361=VECTOR('',#360,3.E0);
#362=CARTESIAN_POINT('',(-1.9E1,1.4E1,3.E0));
#363=LINE('',#362,#361);
#364=CURVE_STYLE('',#34,POSITIVE_LENGTH_MEASURE(2.E-2),#21);
#365=PRESENTATION_STYLE_ASSIGNMENT((#364));
#366=STYLED_ITEM('',(#365),#363);
#367=DIRECTION('',(0.E0,0.E0,-1.E0));
#368=VECTOR('',#367,3.E0);
#369=CARTESIAN_POINT('',(-1.9E1,-1.4E1,3.E0));
#370=LINE('',#369,#368);
#371=CURVE_STYLE('',#34,POSITIVE_LENGTH_MEASURE(2.E-2),#21);
#372=PRESENTATION_STYLE_ASSIGNMENT((#371));
#373=STYLED_ITEM('',(#372),#370);
#374=DIRECTION('',(0.E0,0.E0,-1.E0));
#375=VECTOR('',#374,3.E0);
#376=CARTESIAN_POINT('',(-1.6E1,1.7E1,3.E0));
#377=LINE('',#376,#375);
#378=CURVE_STYLE('',#34,POSITIVE_LENGTH_MEASURE(2.E-2),#21);
#379=PRESENTATION_STYLE_ASSIGNMENT((#378));
#380=STYLED_ITEM('',(#379),#377);
#381=DIRECTION('',(0.E0,0.E0,-1.E0));
#382=VECTOR('',#381,3.E0);
#383=CARTESIAN_POINT('',(1.6E1,1.7E1,3.E0));
#384=LINE('',#383,#382);
#385=CURVE_STYLE('',#34,POSITIVE_LENGTH_MEASURE(2.E-2),#21);
#386=PRESENTATION_STYLE_ASSIGNMENT((#385));
#387=STYLED_ITEM('',(#386),#384);
#388=DIRECTION('',(0.E0,0.E0,-1.E0));
#389=VECTOR('',#388,3.E0);
#390=CARTESIAN_POINT('',(1.9E1,-1.4E1,3.E0));
#391=LINE('',#390,#389);
#392=CURVE_STYLE('',#34,POSITIVE_LENGTH_MEASURE(2.E-2),#21);
#393=PRESENTATION_STYLE_ASSIGNMENT((#392));
#394=STYLED_ITEM('',(#393),#391);
#395=DIRECTION('',(0.E0,0.E0,-1.E0));
#396=VECTOR('',#395,3.E0);
#397=CARTESIAN_POINT('',(1.9E1,1.4E1,3.E0));
#398=LINE('',#397,#396);
#399=CURVE_STYLE('',#34,POSITIVE_LENGTH_MEASURE(2.E-2),#21);
#400=PRESENTATION_STYLE_ASSIGNMENT((#399));
#401=STYLED_ITEM('',(#400),#398);
#402=DIRECTION('',(7.071067811865E-1,-1.284066583722E-8,-7.071067811865E-1));
#403=VECTOR('',#402,1.414213558450E0);
#404=CARTESIAN_POINT('',(-1.444999999496E1,1.140000003302E1,2.999999994956E0));
#405=LINE('',#404,#403);
#406=CURVE_STYLE('',#34,POSITIVE_LENGTH_MEASURE(2.E-2),#21);
#407=PRESENTATION_STYLE_ASSIGNMENT((#406));
#408=STYLED_ITEM('',(#407),#405);
#409=CARTESIAN_POINT('',(-1.195E1,1.14E1,2.E0));
#410=DIRECTION('',(0.E0,0.E0,-1.E0));
#411=DIRECTION('',(-1.E0,0.E0,0.E0));
#412=AXIS2_PLACEMENT_3D('',#409,#410,#411);
#414=CURVE_STYLE('',#34,POSITIVE_LENGTH_MEASURE(2.E-2),#21);
#415=PRESENTATION_STYLE_ASSIGNMENT((#414));
#416=STYLED_ITEM('',(#415),#413);
#417=DIRECTION('',(1.134940143155E-9,7.428863754815E-9,1.E0));
#418=VECTOR('',#417,1.999999997730E0);
#419=CARTESIAN_POINT('',(-1.345E1,1.14E1,0.E0));
#420=LINE('',#419,#418);
#421=CURVE_STYLE('',#34,POSITIVE_LENGTH_MEASURE(2.E-2),#21);
#422=PRESENTATION_STYLE_ASSIGNMENT((#421));
#423=STYLED_ITEM('',(#422),#420);
#424=DIRECTION('',(-7.071067811865E-1,1.284066834937E-8,-7.071067811865E-1));
#425=VECTOR('',#424,1.414213558450E0);
#426=CARTESIAN_POINT('',(1.443499999496E1,1.139999996698E1,2.999999994956E0));
#427=LINE('',#426,#425);
#428=CURVE_STYLE('',#34,POSITIVE_LENGTH_MEASURE(2.E-2),#21);
#429=PRESENTATION_STYLE_ASSIGNMENT((#428));
#430=STYLED_ITEM('',(#429),#427);
#431=DIRECTION('',(7.071067811865E-1,-1.284066834937E-8,-7.071067811865E-1));
#432=VECTOR('',#431,1.414213558450E0);
#433=CARTESIAN_POINT('',(9.435000005044E0,1.140000003302E1,2.999999994956E0));
#434=LINE('',#433,#432);
#435=CURVE_STYLE('',#34,POSITIVE_LENGTH_MEASURE(2.E-2),#21);
#436=PRESENTATION_STYLE_ASSIGNMENT((#435));
#437=STYLED_ITEM('',(#436),#434);
#438=CARTESIAN_POINT('',(1.1935E1,1.14E1,2.E0));
#439=DIRECTION('',(0.E0,0.E0,-1.E0));
#440=DIRECTION('',(-1.E0,0.E0,0.E0));
#441=AXIS2_PLACEMENT_3D('',#438,#439,#440);
#443=CURVE_STYLE('',#34,POSITIVE_LENGTH_MEASURE(2.E-2),#21);
#444=PRESENTATION_STYLE_ASSIGNMENT((#443));
#445=STYLED_ITEM('',(#444),#442);
#446=DIRECTION('',(1.134941919512E-9,7.428863754815E-9,1.E0));
#447=VECTOR('',#446,1.999999997730E0);
#448=CARTESIAN_POINT('',(1.0435E1,1.14E1,0.E0));
#449=LINE('',#448,#447);
#450=CURVE_STYLE('',#34,POSITIVE_LENGTH_MEASURE(2.E-2),#21);
#451=PRESENTATION_STYLE_ASSIGNMENT((#450));
#452=STYLED_ITEM('',(#451),#449);
#453=CARTESIAN_POINT('',(1.1935E1,1.14E1,2.E0));
#454=DIRECTION('',(0.E0,0.E0,-1.E0));
#455=DIRECTION('',(1.E0,0.E0,0.E0));
#456=AXIS2_PLACEMENT_3D('',#453,#454,#455);
#458=CURVE_STYLE('',#34,POSITIVE_LENGTH_MEASURE(2.E-2),#21);
#459=PRESENTATION_STYLE_ASSIGNMENT((#458));
#460=STYLED_ITEM('',(#459),#457);
#461=DIRECTION('',(-1.134940143155E-9,-7.428862866637E-9,1.E0));
#462=VECTOR('',#461,1.999999997730E0);
#463=CARTESIAN_POINT('',(1.3435E1,1.14E1,0.E0));
#464=LINE('',#463,#462);
#465=CURVE_STYLE('',#34,POSITIVE_LENGTH_MEASURE(2.E-2),#21);
#466=PRESENTATION_STYLE_ASSIGNMENT((#465));
#467=STYLED_ITEM('',(#466),#464);
#468=DIRECTION('',(-7.071067811865E-1,1.284066834937E-8,-7.071067811865E-1));
#469=VECTOR('',#468,1.414213558450E0);
#470=CARTESIAN_POINT('',(1.443499999496E1,-1.140000003302E1,2.999999994956E0));
#471=LINE('',#470,#469);
#472=CURVE_STYLE('',#34,POSITIVE_LENGTH_MEASURE(2.E-2),#21);
#473=PRESENTATION_STYLE_ASSIGNMENT((#472));
#474=STYLED_ITEM('',(#473),#471);
#475=DIRECTION('',(7.071067811865E-1,-1.284066834937E-8,-7.071067811865E-1));
#476=VECTOR('',#475,1.414213558450E0);
#477=CARTESIAN_POINT('',(9.435000005044E0,-1.139999996698E1,2.999999994956E0));
#478=LINE('',#477,#476);
#479=CURVE_STYLE('',#34,POSITIVE_LENGTH_MEASURE(2.E-2),#21);
#480=PRESENTATION_STYLE_ASSIGNMENT((#479));
#481=STYLED_ITEM('',(#480),#478);
#482=CARTESIAN_POINT('',(1.1935E1,-1.14E1,2.E0));
#483=DIRECTION('',(0.E0,0.E0,-1.E0));
#484=DIRECTION('',(-1.E0,0.E0,0.E0));
#485=AXIS2_PLACEMENT_3D('',#482,#483,#484);
#487=CURVE_STYLE('',#34,POSITIVE_LENGTH_MEASURE(2.E-2),#21);
#488=PRESENTATION_STYLE_ASSIGNMENT((#487));
#489=STYLED_ITEM('',(#488),#486);
#490=DIRECTION('',(1.134941919512E-9,7.428864642993E-9,1.E0));
#491=VECTOR('',#490,1.999999997730E0);
#492=CARTESIAN_POINT('',(1.0435E1,-1.14E1,0.E0));
#493=LINE('',#492,#491);
#494=CURVE_STYLE('',#34,POSITIVE_LENGTH_MEASURE(2.E-2),#21);
#495=PRESENTATION_STYLE_ASSIGNMENT((#494));
#496=STYLED_ITEM('',(#495),#493);
#497=CARTESIAN_POINT('',(1.1935E1,-1.14E1,2.E0));
#498=DIRECTION('',(0.E0,0.E0,-1.E0));
#499=DIRECTION('',(1.E0,0.E0,0.E0));
#500=AXIS2_PLACEMENT_3D('',#497,#498,#499);
#502=CURVE_STYLE('',#34,POSITIVE_LENGTH_MEASURE(2.E-2),#21);
#503=PRESENTATION_STYLE_ASSIGNMENT((#502));
#504=STYLED_ITEM('',(#503),#501);
#505=DIRECTION('',(-1.134940143155E-9,-7.428863754815E-9,1.E0));
#506=VECTOR('',#505,1.999999997730E0);
#507=CARTESIAN_POINT('',(1.3435E1,-1.14E1,0.E0));
#508=LINE('',#507,#506);
#509=CURVE_STYLE('',#34,POSITIVE_LENGTH_MEASURE(2.E-2),#21);
#510=PRESENTATION_STYLE_ASSIGNMENT((#509));
#511=STYLED_ITEM('',(#510),#508);
#512=DIRECTION('',(-7.071067811865E-1,1.284066583722E-8,-7.071067811865E-1));
#513=VECTOR('',#512,1.414213558450E0);
#514=CARTESIAN_POINT('',(-9.450000005044E0,-1.140000003302E1,2.999999994956E0));
#515=LINE('',#514,#513);
#516=CURVE_STYLE('',#34,POSITIVE_LENGTH_MEASURE(2.E-2),#21);
#517=PRESENTATION_STYLE_ASSIGNMENT((#516));
#518=STYLED_ITEM('',(#517),#515);
#519=DIRECTION('',(7.071067811865E-1,-1.284066583722E-8,-7.071067811865E-1));
#520=VECTOR('',#519,1.414213558450E0);
#521=CARTESIAN_POINT('',(-1.444999999496E1,-1.139999996698E1,2.999999994956E0));
#522=LINE('',#521,#520);
#523=CURVE_STYLE('',#34,POSITIVE_LENGTH_MEASURE(2.E-2),#21);
#524=PRESENTATION_STYLE_ASSIGNMENT((#523));
#525=STYLED_ITEM('',(#524),#522);
#526=CARTESIAN_POINT('',(-1.195E1,-1.14E1,2.E0));
#527=DIRECTION('',(0.E0,0.E0,-1.E0));
#528=DIRECTION('',(-1.E0,0.E0,0.E0));
#529=AXIS2_PLACEMENT_3D('',#526,#527,#528);
#531=CURVE_STYLE('',#34,POSITIVE_LENGTH_MEASURE(2.E-2),#21);
#532=PRESENTATION_STYLE_ASSIGNMENT((#531));
#533=STYLED_ITEM('',(#532),#530);
#534=DIRECTION('',(1.134940143155E-9,7.428864642993E-9,1.E0));
#535=VECTOR('',#534,1.999999997730E0);
#536=CARTESIAN_POINT('',(-1.345E1,-1.14E1,0.E0));
#537=LINE('',#536,#535);
#538=CURVE_STYLE('',#34,POSITIVE_LENGTH_MEASURE(2.E-2),#21);
#539=PRESENTATION_STYLE_ASSIGNMENT((#538));
#540=STYLED_ITEM('',(#539),#537);
#541=CARTESIAN_POINT('',(-1.195E1,-1.14E1,2.E0));
#542=DIRECTION('',(0.E0,0.E0,-1.E0));
#543=DIRECTION('',(1.E0,0.E0,0.E0));
#544=AXIS2_PLACEMENT_3D('',#541,#542,#543);
#546=CURVE_STYLE('',#34,POSITIVE_LENGTH_MEASURE(2.E-2),#21);
#547=PRESENTATION_STYLE_ASSIGNMENT((#546));
#548=STYLED_ITEM('',(#547),#545);
#549=DIRECTION('',(-1.134941919512E-9,-7.428863754815E-9,1.E0));
#550=VECTOR('',#549,1.999999997730E0);
#551=CARTESIAN_POINT('',(-1.045E1,-1.14E1,0.E0));
#552=LINE('',#551,#550);
#553=CURVE_STYLE('',#34,POSITIVE_LENGTH_MEASURE(2.E-2),#21);
#554=PRESENTATION_STYLE_ASSIGNMENT((#553));
#555=STYLED_ITEM('',(#554),#552);
#556=CARTESIAN_POINT('',(-1.045E1,1.14E1,0.E0));
#557=CARTESIAN_POINT('',(-1.345E1,1.14E1,0.E0));
#558=VERTEX_POINT('',#556);
#559=VERTEX_POINT('',#557);
#560=CARTESIAN_POINT('',(1.3435E1,1.14E1,0.E0));
#561=CARTESIAN_POINT('',(1.0435E1,1.14E1,0.E0));
#562=VERTEX_POINT('',#560);
#563=VERTEX_POINT('',#561);
#564=CARTESIAN_POINT('',(1.3435E1,-1.14E1,0.E0));
#565=CARTESIAN_POINT('',(1.0435E1,-1.14E1,0.E0));
#566=VERTEX_POINT('',#564);
#567=VERTEX_POINT('',#565);
#568=CARTESIAN_POINT('',(-1.045E1,-1.14E1,0.E0));
#569=CARTESIAN_POINT('',(-1.345E1,-1.14E1,0.E0));
#570=VERTEX_POINT('',#568);
#571=VERTEX_POINT('',#569);
#572=CARTESIAN_POINT('',(1.6E1,1.7E1,0.E0));
#573=CARTESIAN_POINT('',(1.9E1,1.4E1,0.E0));
#574=VERTEX_POINT('',#572);
#575=VERTEX_POINT('',#573);
#576=CARTESIAN_POINT('',(1.9E1,1.4E1,3.E0));
#577=VERTEX_POINT('',#576);
#578=CARTESIAN_POINT('',(1.6E1,1.7E1,3.E0));
#579=VERTEX_POINT('',#578);
#580=CARTESIAN_POINT('',(-1.9E1,1.4E1,0.E0));
#581=CARTESIAN_POINT('',(-1.6E1,1.7E1,0.E0));
#582=VERTEX_POINT('',#580);
#583=VERTEX_POINT('',#581);
#584=CARTESIAN_POINT('',(-1.6E1,1.7E1,3.E0));
#585=VERTEX_POINT('',#584);
#586=CARTESIAN_POINT('',(-1.9E1,1.4E1,3.E0));
#587=VERTEX_POINT('',#586);
#588=CARTESIAN_POINT('',(-1.6E1,-1.7E1,0.E0));
#589=CARTESIAN_POINT('',(-1.9E1,-1.4E1,0.E0));
#590=VERTEX_POINT('',#588);
#591=VERTEX_POINT('',#589);
#592=CARTESIAN_POINT('',(-1.9E1,-1.4E1,3.E0));
#593=VERTEX_POINT('',#592);
#594=CARTESIAN_POINT('',(-1.6E1,-1.7E1,3.E0));
#595=VERTEX_POINT('',#594);
#596=CARTESIAN_POINT('',(1.9E1,-1.4E1,0.E0));
#597=CARTESIAN_POINT('',(1.6E1,-1.7E1,0.E0));
#598=VERTEX_POINT('',#596);
#599=VERTEX_POINT('',#597);
#600=CARTESIAN_POINT('',(1.6E1,-1.7E1,3.E0));
#601=VERTEX_POINT('',#600);
#602=CARTESIAN_POINT('',(1.9E1,-1.4E1,3.E0));
#603=VERTEX_POINT('',#602);
#604=CARTESIAN_POINT('',(8.2E0,0.E0,0.E0));
#605=CARTESIAN_POINT('',(-8.2E0,0.E0,0.E0));
#606=VERTEX_POINT('',#604);
#607=VERTEX_POINT('',#605);
#608=CARTESIAN_POINT('',(8.2E0,0.E0,3.E0));
#609=CARTESIAN_POINT('',(-8.2E0,0.E0,3.E0));
#610=VERTEX_POINT('',#608);
#611=VERTEX_POINT('',#609);
#612=CARTESIAN_POINT('',(-9.45E0,1.14E1,3.E0));
#613=CARTESIAN_POINT('',(-1.445E1,1.14E1,3.E0));
#614=VERTEX_POINT('',#612);
#615=VERTEX_POINT('',#613);
#616=CARTESIAN_POINT('',(-1.045E1,1.14E1,2.E0));
#617=CARTESIAN_POINT('',(-1.345E1,1.14E1,2.E0));
#618=VERTEX_POINT('',#616);
#619=VERTEX_POINT('',#617);
#620=CARTESIAN_POINT('',(1.4435E1,1.14E1,3.E0));
#621=CARTESIAN_POINT('',(9.435E0,1.14E1,3.E0));
#622=VERTEX_POINT('',#620);
#623=VERTEX_POINT('',#621);
#624=CARTESIAN_POINT('',(1.3435E1,1.14E1,2.E0));
#625=CARTESIAN_POINT('',(1.0435E1,1.14E1,2.E0));
#626=VERTEX_POINT('',#624);
#627=VERTEX_POINT('',#625);
#628=CARTESIAN_POINT('',(1.4435E1,-1.14E1,3.E0));
#629=CARTESIAN_POINT('',(9.435E0,-1.14E1,3.E0));
#630=VERTEX_POINT('',#628);
#631=VERTEX_POINT('',#629);
#632=CARTESIAN_POINT('',(1.3435E1,-1.14E1,2.E0));
#633=CARTESIAN_POINT('',(1.0435E1,-1.14E1,2.E0));
#634=VERTEX_POINT('',#632);
#635=VERTEX_POINT('',#633);
#636=CARTESIAN_POINT('',(-9.45E0,-1.14E1,3.E0));
#637=CARTESIAN_POINT('',(-1.445E1,-1.14E1,3.E0));
#638=VERTEX_POINT('',#636);
#639=VERTEX_POINT('',#637);
#640=CARTESIAN_POINT('',(-1.045E1,-1.14E1,2.E0));
#641=CARTESIAN_POINT('',(-1.345E1,-1.14E1,2.E0));
#642=VERTEX_POINT('',#640);
#643=VERTEX_POINT('',#641);
#644=CARTESIAN_POINT('',(0.E0,0.E0,0.E0));
#645=DIRECTION('',(0.E0,0.E0,1.E0));
#646=DIRECTION('',(1.E0,0.E0,0.E0));
#647=AXIS2_PLACEMENT_3D('',#644,#645,#646);
#648=PLANE('',#647);
#650=ORIENTED_EDGE('',*,*,#649,.F.);
#652=ORIENTED_EDGE('',*,*,#651,.T.);
#654=ORIENTED_EDGE('',*,*,#653,.F.);
#656=ORIENTED_EDGE('',*,*,#655,.T.);
#658=ORIENTED_EDGE('',*,*,#657,.F.);
#660=ORIENTED_EDGE('',*,*,#659,.T.);
#662=ORIENTED_EDGE('',*,*,#661,.F.);
#664=ORIENTED_EDGE('',*,*,#663,.T.);
#665=EDGE_LOOP('',(#650,#652,#654,#656,#658,#660,#662,#664));
#666=FACE_OUTER_BOUND('',#665,.F.);
#668=ORIENTED_EDGE('',*,*,#667,.T.);
#670=ORIENTED_EDGE('',*,*,#669,.T.);
#671=EDGE_LOOP('',(#668,#670));
#672=FACE_BOUND('',#671,.F.);
#674=ORIENTED_EDGE('',*,*,#673,.T.);
#676=ORIENTED_EDGE('',*,*,#675,.T.);
#677=EDGE_LOOP('',(#674,#676));
#678=FACE_BOUND('',#677,.F.);
#680=ORIENTED_EDGE('',*,*,#679,.T.);
#682=ORIENTED_EDGE('',*,*,#681,.T.);
#683=EDGE_LOOP('',(#680,#682));
#684=FACE_BOUND('',#683,.F.);
#686=ORIENTED_EDGE('',*,*,#685,.T.);
#688=ORIENTED_EDGE('',*,*,#687,.T.);
#689=EDGE_LOOP('',(#686,#688));
#690=FACE_BOUND('',#689,.F.);
#692=ORIENTED_EDGE('',*,*,#691,.T.);
#694=ORIENTED_EDGE('',*,*,#693,.T.);
#695=EDGE_LOOP('',(#692,#694));
#696=FACE_BOUND('',#695,.F.);
#698=FILL_AREA_STYLE_COLOUR('',#21);
#699=FILL_AREA_STYLE('',(#698));
#700=SURFACE_STYLE_FILL_AREA(#699);
#701=SURFACE_SIDE_STYLE('',(#700));
#702=SURFACE_STYLE_USAGE(.BOTH.,#701);
#703=PRESENTATION_STYLE_ASSIGNMENT((#702));
#704=STYLED_ITEM('',(#703),#697);
#705=CARTESIAN_POINT('',(-1.195E1,1.14E1,0.E0));
#706=DIRECTION('',(0.E0,0.E0,1.E0));
#707=DIRECTION('',(1.E0,0.E0,0.E0));
#708=AXIS2_PLACEMENT_3D('',#705,#706,#707);
#709=CYLINDRICAL_SURFACE('',#708,1.5E0);
#711=ORIENTED_EDGE('',*,*,#710,.T.);
#713=ORIENTED_EDGE('',*,*,#712,.F.);
#714=ORIENTED_EDGE('',*,*,#691,.F.);
#716=ORIENTED_EDGE('',*,*,#715,.T.);
#717=EDGE_LOOP('',(#711,#713,#714,#716));
#718=FACE_OUTER_BOUND('',#717,.F.);
#720=FILL_AREA_STYLE_COLOUR('',#21);
#721=FILL_AREA_STYLE('',(#720));
#722=SURFACE_STYLE_FILL_AREA(#721);
#723=SURFACE_SIDE_STYLE('',(#722));
#724=SURFACE_STYLE_USAGE(.BOTH.,#723);
#725=PRESENTATION_STYLE_ASSIGNMENT((#724));
#726=STYLED_ITEM('',(#725),#719);
#727=CARTESIAN_POINT('',(-1.195E1,1.14E1,2.499999997963E0));
#728=DIRECTION('',(0.E0,0.E0,1.E0));
#729=DIRECTION('',(0.E0,-1.E0,0.E0));
#730=AXIS2_PLACEMENT_3D('',#727,#728,#729);
#731=CONICAL_SURFACE('',#730,1.999999997963E0,4.5E1);
#733=ORIENTED_EDGE('',*,*,#732,.T.);
#735=ORIENTED_EDGE('',*,*,#734,.T.);
#736=ORIENTED_EDGE('',*,*,#710,.F.);
#738=ORIENTED_EDGE('',*,*,#737,.F.);
#739=EDGE_LOOP('',(#733,#735,#736,#738));
#740=FACE_OUTER_BOUND('',#739,.F.);
#742=FILL_AREA_STYLE_COLOUR('',#21);
#743=FILL_AREA_STYLE('',(#742));
#744=SURFACE_STYLE_FILL_AREA(#743);
#745=SURFACE_SIDE_STYLE('',(#744));
#746=SURFACE_STYLE_USAGE(.BOTH.,#745);
#747=PRESENTATION_STYLE_ASSIGNMENT((#746));
#748=STYLED_ITEM('',(#747),#741);
#749=CARTESIAN_POINT('',(0.E0,0.E0,3.E0));
#750=DIRECTION('',(0.E0,0.E0,1.E0));
#751=DIRECTION('',(1.E0,0.E0,0.E0));
#752=AXIS2_PLACEMENT_3D('',#749,#750,#751);
#753=PLANE('',#752);
#755=ORIENTED_EDGE('',*,*,#754,.F.);
#757=ORIENTED_EDGE('',*,*,#756,.F.);
#759=ORIENTED_EDGE('',*,*,#758,.F.);
#761=ORIENTED_EDGE('',*,*,#760,.F.);
#763=ORIENTED_EDGE('',*,*,#762,.F.);
#765=ORIENTED_EDGE('',*,*,#764,.F.);
#767=ORIENTED_EDGE('',*,*,#766,.F.);
#769=ORIENTED_EDGE('',*,*,#768,.F.);
#770=EDGE_LOOP('',(#755,#757,#759,#761,#763,#765,#767,#769));
#771=FACE_OUTER_BOUND('',#770,.F.);
#773=ORIENTED_EDGE('',*,*,#772,.F.);
#775=ORIENTED_EDGE('',*,*,#774,.F.);
#776=EDGE_LOOP('',(#773,#775));
#777=FACE_BOUND('',#776,.F.);
#778=ORIENTED_EDGE('',*,*,#732,.F.);
#780=ORIENTED_EDGE('',*,*,#779,.F.);
#781=EDGE_LOOP('',(#778,#780));
#782=FACE_BOUND('',#781,.F.);
#784=ORIENTED_EDGE('',*,*,#783,.F.);
#786=ORIENTED_EDGE('',*,*,#785,.F.);
#787=EDGE_LOOP('',(#784,#786));
#788=FACE_BOUND('',#787,.F.);
#790=ORIENTED_EDGE('',*,*,#789,.F.);
#792=ORIENTED_EDGE('',*,*,#791,.F.);
#793=EDGE_LOOP('',(#790,#792));
#794=FACE_BOUND('',#793,.F.);
#796=ORIENTED_EDGE('',*,*,#795,.F.);
#798=ORIENTED_EDGE('',*,*,#797,.F.);
#799=EDGE_LOOP('',(#796,#798));
#800=FACE_BOUND('',#799,.F.);
#802=FILL_AREA_STYLE_COLOUR('',#21);
#803=FILL_AREA_STYLE('',(#802));
#804=SURFACE_STYLE_FILL_AREA(#803);
#805=SURFACE_SIDE_STYLE('',(#804));
#806=SURFACE_STYLE_USAGE(.BOTH.,#805);
#807=PRESENTATION_STYLE_ASSIGNMENT((#806));
#808=STYLED_ITEM('',(#807),#801);
#809=CARTESIAN_POINT('',(0.E0,0.E0,0.E0));
#810=DIRECTION('',(0.E0,0.E0,1.E0));
#811=DIRECTION('',(1.E0,0.E0,0.E0));
#812=AXIS2_PLACEMENT_3D('',#809,#810,#811);
#813=CYLINDRICAL_SURFACE('',#812,8.2E0);
#814=ORIENTED_EDGE('',*,*,#685,.F.);
#816=ORIENTED_EDGE('',*,*,#815,.T.);
#817=ORIENTED_EDGE('',*,*,#772,.T.);
#819=ORIENTED_EDGE('',*,*,#818,.F.);
#820=EDGE_LOOP('',(#814,#816,#817,#819));
#821=FACE_OUTER_BOUND('',#820,.F.);
#823=FILL_AREA_STYLE_COLOUR('',#21);
#824=FILL_AREA_STYLE('',(#823));
#825=SURFACE_STYLE_FILL_AREA(#824);
#826=SURFACE_SIDE_STYLE('',(#825));
#827=SURFACE_STYLE_USAGE(.BOTH.,#826);
#828=PRESENTATION_STYLE_ASSIGNMENT((#827));
#829=STYLED_ITEM('',(#828),#822);
#830=CARTESIAN_POINT('',(0.E0,0.E0,0.E0));
#831=DIRECTION('',(0.E0,0.E0,1.E0));
#832=DIRECTION('',(1.E0,0.E0,0.E0));
#833=AXIS2_PLACEMENT_3D('',#830,#831,#832);
#834=CYLINDRICAL_SURFACE('',#833,8.2E0);
#835=ORIENTED_EDGE('',*,*,#687,.F.);
#836=ORIENTED_EDGE('',*,*,#818,.T.);
#837=ORIENTED_EDGE('',*,*,#774,.T.);
#838=ORIENTED_EDGE('',*,*,#815,.F.);
#839=EDGE_LOOP('',(#835,#836,#837,#838));
#840=FACE_OUTER_BOUND('',#839,.F.);
#842=FILL_AREA_STYLE_COLOUR('',#21);
#843=FILL_AREA_STYLE('',(#842));
#844=SURFACE_STYLE_FILL_AREA(#843);
#845=SURFACE_SIDE_STYLE('',(#844));
#846=SURFACE_STYLE_USAGE(.BOTH.,#845);
#847=PRESENTATION_STYLE_ASSIGNMENT((#846));
#848=STYLED_ITEM('',(#847),#841);
#849=CARTESIAN_POINT('',(1.6E1,-1.4E1,6.9108E0));
#850=DIRECTION('',(0.E0,0.E0,-1.E0));
#851=DIRECTION('',(1.E0,0.E0,0.E0));
#852=AXIS2_PLACEMENT_3D('',#849,#850,#851);
#853=CYLINDRICAL_SURFACE('',#852,3.E0);
#854=ORIENTED_EDGE('',*,*,#649,.T.);
#856=ORIENTED_EDGE('',*,*,#855,.F.);
#857=ORIENTED_EDGE('',*,*,#754,.T.);
#859=ORIENTED_EDGE('',*,*,#858,.T.);
#860=EDGE_LOOP('',(#854,#856,#857,#859));
#861=FACE_OUTER_BOUND('',#860,.F.);
#863=FILL_AREA_STYLE_COLOUR('',#21);
#864=FILL_AREA_STYLE('',(#863));
#865=SURFACE_STYLE_FILL_AREA(#864);
#866=SURFACE_SIDE_STYLE('',(#865));
#867=SURFACE_STYLE_USAGE(.BOTH.,#866);
#868=PRESENTATION_STYLE_ASSIGNMENT((#867));
#869=STYLED_ITEM('',(#868),#862);
#870=CARTESIAN_POINT('',(-1.9E1,-1.7E1,0.E0));
#871=DIRECTION('',(0.E0,-1.E0,0.E0));
#872=DIRECTION('',(1.E0,0.E0,0.E0));
#873=AXIS2_PLACEMENT_3D('',#870,#871,#872);
#874=PLANE('',#873);
#875=ORIENTED_EDGE('',*,*,#855,.T.);
#876=ORIENTED_EDGE('',*,*,#663,.F.);
#878=ORIENTED_EDGE('',*,*,#877,.F.);
#879=ORIENTED_EDGE('',*,*,#756,.T.);
#880=EDGE_LOOP('',(#875,#876,#878,#879));
#881=FACE_OUTER_BOUND('',#880,.F.);
#883=FILL_AREA_STYLE_COLOUR('',#21);
#884=FILL_AREA_STYLE('',(#883));
#885=SURFACE_STYLE_FILL_AREA(#884);
#886=SURFACE_SIDE_STYLE('',(#885));
#887=SURFACE_STYLE_USAGE(.BOTH.,#886);
#888=PRESENTATION_STYLE_ASSIGNMENT((#887));
#889=STYLED_ITEM('',(#888),#882);
#890=CARTESIAN_POINT('',(-1.6E1,-1.4E1,6.9108E0));
#891=DIRECTION('',(0.E0,0.E0,-1.E0));
#892=DIRECTION('',(0.E0,-1.E0,0.E0));
#893=AXIS2_PLACEMENT_3D('',#890,#891,#892);
#894=CYLINDRICAL_SURFACE('',#893,3.E0);
#895=ORIENTED_EDGE('',*,*,#661,.T.);
#897=ORIENTED_EDGE('',*,*,#896,.F.);
#898=ORIENTED_EDGE('',*,*,#758,.T.);
#899=ORIENTED_EDGE('',*,*,#877,.T.);
#900=EDGE_LOOP('',(#895,#897,#898,#899));
#901=FACE_OUTER_BOUND('',#900,.F.);
#903=FILL_AREA_STYLE_COLOUR('',#21);
#904=FILL_AREA_STYLE('',(#903));
#905=SURFACE_STYLE_FILL_AREA(#904);
#906=SURFACE_SIDE_STYLE('',(#905));
#907=SURFACE_STYLE_USAGE(.BOTH.,#906);
#908=PRESENTATION_STYLE_ASSIGNMENT((#907));
#909=STYLED_ITEM('',(#908),#902);
#910=CARTESIAN_POINT('',(-1.9E1,1.7E1,0.E0));
#911=DIRECTION('',(-1.E0,0.E0,0.E0));
#912=DIRECTION('',(0.E0,-1.E0,0.E0));
#913=AXIS2_PLACEMENT_3D('',#910,#911,#912);
#914=PLANE('',#913);
#916=ORIENTED_EDGE('',*,*,#915,.F.);
#917=ORIENTED_EDGE('',*,*,#760,.T.);
#918=ORIENTED_EDGE('',*,*,#896,.T.);
#919=ORIENTED_EDGE('',*,*,#659,.F.);
#920=EDGE_LOOP('',(#916,#917,#918,#919));
#921=FACE_OUTER_BOUND('',#920,.F.);
#923=FILL_AREA_STYLE_COLOUR('',#21);
#924=FILL_AREA_STYLE('',(#923));
#925=SURFACE_STYLE_FILL_AREA(#924);
#926=SURFACE_SIDE_STYLE('',(#925));
#927=SURFACE_STYLE_USAGE(.BOTH.,#926);
#928=PRESENTATION_STYLE_ASSIGNMENT((#927));
#929=STYLED_ITEM('',(#928),#922);
#930=CARTESIAN_POINT('',(-1.6E1,1.4E1,6.9108E0));
#931=DIRECTION('',(0.E0,0.E0,-1.E0));
#932=DIRECTION('',(-1.E0,0.E0,0.E0));
#933=AXIS2_PLACEMENT_3D('',#930,#931,#932);
#934=CYLINDRICAL_SURFACE('',#933,3.E0);
#935=ORIENTED_EDGE('',*,*,#657,.T.);
#937=ORIENTED_EDGE('',*,*,#936,.F.);
#938=ORIENTED_EDGE('',*,*,#762,.T.);
#939=ORIENTED_EDGE('',*,*,#915,.T.);
#940=EDGE_LOOP('',(#935,#937,#938,#939));
#941=FACE_OUTER_BOUND('',#940,.F.);
#943=FILL_AREA_STYLE_COLOUR('',#21);
#944=FILL_AREA_STYLE('',(#943));
#945=SURFACE_STYLE_FILL_AREA(#944);
#946=SURFACE_SIDE_STYLE('',(#945));
#947=SURFACE_STYLE_USAGE(.BOTH.,#946);
#948=PRESENTATION_STYLE_ASSIGNMENT((#947));
#949=STYLED_ITEM('',(#948),#942);
#950=CARTESIAN_POINT('',(1.9E1,1.7E1,0.E0));
#951=DIRECTION('',(0.E0,1.E0,0.E0));
#952=DIRECTION('',(-1.E0,0.E0,0.E0));
#953=AXIS2_PLACEMENT_3D('',#950,#951,#952);
#954=PLANE('',#953);
#955=ORIENTED_EDGE('',*,*,#936,.T.);
#956=ORIENTED_EDGE('',*,*,#655,.F.);
#958=ORIENTED_EDGE('',*,*,#957,.F.);
#959=ORIENTED_EDGE('',*,*,#764,.T.);
#960=EDGE_LOOP('',(#955,#956,#958,#959));
#961=FACE_OUTER_BOUND('',#960,.F.);
#963=FILL_AREA_STYLE_COLOUR('',#21);
#964=FILL_AREA_STYLE('',(#963));
#965=SURFACE_STYLE_FILL_AREA(#964);
#966=SURFACE_SIDE_STYLE('',(#965));
#967=SURFACE_STYLE_USAGE(.BOTH.,#966);
#968=PRESENTATION_STYLE_ASSIGNMENT((#967));
#969=STYLED_ITEM('',(#968),#962);
#970=CARTESIAN_POINT('',(1.6E1,1.4E1,6.9108E0));
#971=DIRECTION('',(0.E0,0.E0,-1.E0));
#972=DIRECTION('',(0.E0,1.E0,0.E0));
#973=AXIS2_PLACEMENT_3D('',#970,#971,#972);
#974=CYLINDRICAL_SURFACE('',#973,3.E0);
#975=ORIENTED_EDGE('',*,*,#653,.T.);
#977=ORIENTED_EDGE('',*,*,#976,.F.);
#978=ORIENTED_EDGE('',*,*,#766,.T.);
#979=ORIENTED_EDGE('',*,*,#957,.T.);
#980=EDGE_LOOP('',(#975,#977,#978,#979));
#981=FACE_OUTER_BOUND('',#980,.F.);
#983=FILL_AREA_STYLE_COLOUR('',#21);
#984=FILL_AREA_STYLE('',(#983));
#985=SURFACE_STYLE_FILL_AREA(#984);
#986=SURFACE_SIDE_STYLE('',(#985));
#987=SURFACE_STYLE_USAGE(.BOTH.,#986);
#988=PRESENTATION_STYLE_ASSIGNMENT((#987));
#989=STYLED_ITEM('',(#988),#982);
#990=CARTESIAN_POINT('',(1.9E1,-1.7E1,0.E0));
#991=DIRECTION('',(1.E0,0.E0,0.E0));
#992=DIRECTION('',(0.E0,1.E0,0.E0));
#993=AXIS2_PLACEMENT_3D('',#990,#991,#992);
#994=PLANE('',#993);
#995=ORIENTED_EDGE('',*,*,#858,.F.);
#996=ORIENTED_EDGE('',*,*,#768,.T.);
#997=ORIENTED_EDGE('',*,*,#976,.T.);
#998=ORIENTED_EDGE('',*,*,#651,.F.);
#999=EDGE_LOOP('',(#995,#996,#997,#998));
#1000=FACE_OUTER_BOUND('',#999,.F.);
#1002=FILL_AREA_STYLE_COLOUR('',#21);
#1003=FILL_AREA_STYLE('',(#1002));
#1004=SURFACE_STYLE_FILL_AREA(#1003);
#1005=SURFACE_SIDE_STYLE('',(#1004));
#1006=SURFACE_STYLE_USAGE(.BOTH.,#1005);
#1007=PRESENTATION_STYLE_ASSIGNMENT((#1006));
#1008=STYLED_ITEM('',(#1007),#1001);
#1009=CARTESIAN_POINT('',(-1.195E1,1.14E1,2.499999997963E0));
#1010=DIRECTION('',(0.E0,0.E0,1.E0));
#1011=DIRECTION('',(0.E0,-1.E0,0.E0));
#1012=AXIS2_PLACEMENT_3D('',#1009,#1010,#1011);
#1013=CONICAL_SURFACE('',#1012,1.999999997963E0,4.5E1);
#1014=ORIENTED_EDGE('',*,*,#779,.T.);
#1015=ORIENTED_EDGE('',*,*,#737,.T.);
#1017=ORIENTED_EDGE('',*,*,#1016,.F.);
#1018=ORIENTED_EDGE('',*,*,#734,.F.);
#1019=EDGE_LOOP('',(#1014,#1015,#1017,#1018));
#1020=FACE_OUTER_BOUND('',#1019,.F.);
#1022=FILL_AREA_STYLE_COLOUR('',#21);
#1023=FILL_AREA_STYLE('',(#1022));
#1024=SURFACE_STYLE_FILL_AREA(#1023);
#1025=SURFACE_SIDE_STYLE('',(#1024));
#1026=SURFACE_STYLE_USAGE(.BOTH.,#1025);
#1027=PRESENTATION_STYLE_ASSIGNMENT((#1026));
#1028=STYLED_ITEM('',(#1027),#1021);
#1029=CARTESIAN_POINT('',(-1.195E1,1.14E1,0.E0));
#1030=DIRECTION('',(0.E0,0.E0,1.E0));
#1031=DIRECTION('',(1.E0,0.E0,0.E0));
#1032=AXIS2_PLACEMENT_3D('',#1029,#1030,#1031);
#1033=CYLINDRICAL_SURFACE('',#1032,1.5E0);
#1034=ORIENTED_EDGE('',*,*,#1016,.T.);
#1035=ORIENTED_EDGE('',*,*,#715,.F.);
#1036=ORIENTED_EDGE('',*,*,#693,.F.);
#1037=ORIENTED_EDGE('',*,*,#712,.T.);
#1038=EDGE_LOOP('',(#1034,#1035,#1036,#1037));
#1039=FACE_OUTER_BOUND('',#1038,.F.);
#1041=FILL_AREA_STYLE_COLOUR('',#21);
#1042=FILL_AREA_STYLE('',(#1041));
#1043=SURFACE_STYLE_FILL_AREA(#1042);
#1044=SURFACE_SIDE_STYLE('',(#1043));
#1045=SURFACE_STYLE_USAGE(.BOTH.,#1044);
#1046=PRESENTATION_STYLE_ASSIGNMENT((#1045));
#1047=STYLED_ITEM('',(#1046),#1040);
#1048=CARTESIAN_POINT('',(1.1935E1,1.14E1,2.499999997963E0));
#1049=DIRECTION('',(0.E0,0.E0,1.E0));
#1050=DIRECTION('',(0.E0,-1.E0,0.E0));
#1051=AXIS2_PLACEMENT_3D('',#1048,#1049,#1050);
#1052=CONICAL_SURFACE('',#1051,1.999999997963E0,4.5E1);
#1053=ORIENTED_EDGE('',*,*,#783,.T.);
#1055=ORIENTED_EDGE('',*,*,#1054,.T.);
#1057=ORIENTED_EDGE('',*,*,#1056,.F.);
#1059=ORIENTED_EDGE('',*,*,#1058,.F.);
#1060=EDGE_LOOP('',(#1053,#1055,#1057,#1059));
#1061=FACE_OUTER_BOUND('',#1060,.F.);
#1063=FILL_AREA_STYLE_COLOUR('',#21);
#1064=FILL_AREA_STYLE('',(#1063));
#1065=SURFACE_STYLE_FILL_AREA(#1064);
#1066=SURFACE_SIDE_STYLE('',(#1065));
#1067=SURFACE_STYLE_USAGE(.BOTH.,#1066);
#1068=PRESENTATION_STYLE_ASSIGNMENT((#1067));
#1069=STYLED_ITEM('',(#1068),#1062);
#1070=CARTESIAN_POINT('',(1.1935E1,1.14E1,2.499999997963E0));
#1071=DIRECTION('',(0.E0,0.E0,1.E0));
#1072=DIRECTION('',(0.E0,-1.E0,0.E0));
#1073=AXIS2_PLACEMENT_3D('',#1070,#1071,#1072);
#1074=CONICAL_SURFACE('',#1073,1.999999997963E0,4.5E1);
#1075=ORIENTED_EDGE('',*,*,#785,.T.);
#1076=ORIENTED_EDGE('',*,*,#1058,.T.);
#1078=ORIENTED_EDGE('',*,*,#1077,.F.);
#1079=ORIENTED_EDGE('',*,*,#1054,.F.);
#1080=EDGE_LOOP('',(#1075,#1076,#1078,#1079));
#1081=FACE_OUTER_BOUND('',#1080,.F.);
#1083=FILL_AREA_STYLE_COLOUR('',#21);
#1084=FILL_AREA_STYLE('',(#1083));
#1085=SURFACE_STYLE_FILL_AREA(#1084);
#1086=SURFACE_SIDE_STYLE('',(#1085));
#1087=SURFACE_STYLE_USAGE(.BOTH.,#1086);
#1088=PRESENTATION_STYLE_ASSIGNMENT((#1087));
#1089=STYLED_ITEM('',(#1088),#1082);
#1090=CARTESIAN_POINT('',(1.1935E1,1.14E1,0.E0));
#1091=DIRECTION('',(0.E0,0.E0,1.E0));
#1092=DIRECTION('',(1.E0,0.E0,0.E0));
#1093=AXIS2_PLACEMENT_3D('',#1090,#1091,#1092);
#1094=CYLINDRICAL_SURFACE('',#1093,1.5E0);
#1095=ORIENTED_EDGE('',*,*,#1077,.T.);
#1097=ORIENTED_EDGE('',*,*,#1096,.F.);
#1098=ORIENTED_EDGE('',*,*,#669,.F.);
#1100=ORIENTED_EDGE('',*,*,#1099,.T.);
#1101=EDGE_LOOP('',(#1095,#1097,#1098,#1100));
#1102=FACE_OUTER_BOUND('',#1101,.F.);
#1104=FILL_AREA_STYLE_COLOUR('',#21);
#1105=FILL_AREA_STYLE('',(#1104));
#1106=SURFACE_STYLE_FILL_AREA(#1105);
#1107=SURFACE_SIDE_STYLE('',(#1106));
#1108=SURFACE_STYLE_USAGE(.BOTH.,#1107);
#1109=PRESENTATION_STYLE_ASSIGNMENT((#1108));
#1110=STYLED_ITEM('',(#1109),#1103);
#1111=CARTESIAN_POINT('',(1.1935E1,1.14E1,0.E0));
#1112=DIRECTION('',(0.E0,0.E0,1.E0));
#1113=DIRECTION('',(1.E0,0.E0,0.E0));
#1114=AXIS2_PLACEMENT_3D('',#1111,#1112,#1113);
#1115=CYLINDRICAL_SURFACE('',#1114,1.5E0);
#1116=ORIENTED_EDGE('',*,*,#1056,.T.);
#1117=ORIENTED_EDGE('',*,*,#1099,.F.);
#1118=ORIENTED_EDGE('',*,*,#667,.F.);
#1119=ORIENTED_EDGE('',*,*,#1096,.T.);
#1120=EDGE_LOOP('',(#1116,#1117,#1118,#1119));
#1121=FACE_OUTER_BOUND('',#1120,.F.);
#1123=FILL_AREA_STYLE_COLOUR('',#21);
#1124=FILL_AREA_STYLE('',(#1123));
#1125=SURFACE_STYLE_FILL_AREA(#1124);
#1126=SURFACE_SIDE_STYLE('',(#1125));
#1127=SURFACE_STYLE_USAGE(.BOTH.,#1126);
#1128=PRESENTATION_STYLE_ASSIGNMENT((#1127));
#1129=STYLED_ITEM('',(#1128),#1122);
#1130=CARTESIAN_POINT('',(1.1935E1,-1.14E1,2.499999997963E0));
#1131=DIRECTION('',(0.E0,0.E0,1.E0));
#1132=DIRECTION('',(0.E0,-1.E0,0.E0));
#1133=AXIS2_PLACEMENT_3D('',#1130,#1131,#1132);
#1134=CONICAL_SURFACE('',#1133,1.999999997963E0,4.5E1);
#1135=ORIENTED_EDGE('',*,*,#789,.T.);
#1137=ORIENTED_EDGE('',*,*,#1136,.T.);
#1139=ORIENTED_EDGE('',*,*,#1138,.F.);
#1141=ORIENTED_EDGE('',*,*,#1140,.F.);
#1142=EDGE_LOOP('',(#1135,#1137,#1139,#1141));
#1143=FACE_OUTER_BOUND('',#1142,.F.);
#1145=FILL_AREA_STYLE_COLOUR('',#21);
#1146=FILL_AREA_STYLE('',(#1145));
#1147=SURFACE_STYLE_FILL_AREA(#1146);
#1148=SURFACE_SIDE_STYLE('',(#1147));
#1149=SURFACE_STYLE_USAGE(.BOTH.,#1148);
#1150=PRESENTATION_STYLE_ASSIGNMENT((#1149));
#1151=STYLED_ITEM('',(#1150),#1144);
#1152=CARTESIAN_POINT('',(1.1935E1,-1.14E1,2.499999997963E0));
#1153=DIRECTION('',(0.E0,0.E0,1.E0));
#1154=DIRECTION('',(0.E0,-1.E0,0.E0));
#1155=AXIS2_PLACEMENT_3D('',#1152,#1153,#1154);
#1156=CONICAL_SURFACE('',#1155,1.999999997963E0,4.5E1);
#1157=ORIENTED_EDGE('',*,*,#791,.T.);
#1158=ORIENTED_EDGE('',*,*,#1140,.T.);
#1160=ORIENTED_EDGE('',*,*,#1159,.F.);
#1161=ORIENTED_EDGE('',*,*,#1136,.F.);
#1162=EDGE_LOOP('',(#1157,#1158,#1160,#1161));
#1163=FACE_OUTER_BOUND('',#1162,.F.);
#1165=FILL_AREA_STYLE_COLOUR('',#21);
#1166=FILL_AREA_STYLE('',(#1165));
#1167=SURFACE_STYLE_FILL_AREA(#1166);
#1168=SURFACE_SIDE_STYLE('',(#1167));
#1169=SURFACE_STYLE_USAGE(.BOTH.,#1168);
#1170=PRESENTATION_STYLE_ASSIGNMENT((#1169));
#1171=STYLED_ITEM('',(#1170),#1164);
#1172=CARTESIAN_POINT('',(1.1935E1,-1.14E1,0.E0));
#1173=DIRECTION('',(0.E0,0.E0,1.E0));
#1174=DIRECTION('',(1.E0,0.E0,0.E0));
#1175=AXIS2_PLACEMENT_3D('',#1172,#1173,#1174);
#1176=CYLINDRICAL_SURFACE('',#1175,1.5E0);
#1177=ORIENTED_EDGE('',*,*,#1159,.T.);
#1179=ORIENTED_EDGE('',*,*,#1178,.F.);
#1180=ORIENTED_EDGE('',*,*,#675,.F.);
#1182=ORIENTED_EDGE('',*,*,#1181,.T.);
#1183=EDGE_LOOP('',(#1177,#1179,#1180,#1182));
#1184=FACE_OUTER_BOUND('',#1183,.F.);
#1186=FILL_AREA_STYLE_COLOUR('',#21);
#1187=FILL_AREA_STYLE('',(#1186));
#1188=SURFACE_STYLE_FILL_AREA(#1187);
#1189=SURFACE_SIDE_STYLE('',(#1188));
#1190=SURFACE_STYLE_USAGE(.BOTH.,#1189);
#1191=PRESENTATION_STYLE_ASSIGNMENT((#1190));
#1192=STYLED_ITEM('',(#1191),#1185);
#1193=CARTESIAN_POINT('',(1.1935E1,-1.14E1,0.E0));
#1194=DIRECTION('',(0.E0,0.E0,1.E0));
#1195=DIRECTION('',(1.E0,0.E0,0.E0));
#1196=AXIS2_PLACEMENT_3D('',#1193,#1194,#1195);
#1197=CYLINDRICAL_SURFACE('',#1196,1.5E0);
#1198=ORIENTED_EDGE('',*,*,#1138,.T.);
#1199=ORIENTED_EDGE('',*,*,#1181,.F.);
#1200=ORIENTED_EDGE('',*,*,#673,.F.);
#1201=ORIENTED_EDGE('',*,*,#1178,.T.);
#1202=EDGE_LOOP('',(#1198,#1199,#1200,#1201));
#1203=FACE_OUTER_BOUND('',#1202,.F.);
#1205=FILL_AREA_STYLE_COLOUR('',#21);
#1206=FILL_AREA_STYLE('',(#1205));
#1207=SURFACE_STYLE_FILL_AREA(#1206);
#1208=SURFACE_SIDE_STYLE('',(#1207));
#1209=SURFACE_STYLE_USAGE(.BOTH.,#1208);
#1210=PRESENTATION_STYLE_ASSIGNMENT((#1209));
#1211=STYLED_ITEM('',(#1210),#1204);
#1212=CARTESIAN_POINT('',(-1.195E1,-1.14E1,2.499999997963E0));
#1213=DIRECTION('',(0.E0,0.E0,1.E0));
#1214=DIRECTION('',(0.E0,-1.E0,0.E0));
#1215=AXIS2_PLACEMENT_3D('',#1212,#1213,#1214);
#1216=CONICAL_SURFACE('',#1215,1.999999997963E0,4.5E1);
#1217=ORIENTED_EDGE('',*,*,#795,.T.);
#1219=ORIENTED_EDGE('',*,*,#1218,.T.);
#1221=ORIENTED_EDGE('',*,*,#1220,.F.);
#1223=ORIENTED_EDGE('',*,*,#1222,.F.);
#1224=EDGE_LOOP('',(#1217,#1219,#1221,#1223));
#1225=FACE_OUTER_BOUND('',#1224,.F.);
#1227=FILL_AREA_STYLE_COLOUR('',#21);
#1228=FILL_AREA_STYLE('',(#1227));
#1229=SURFACE_STYLE_FILL_AREA(#1228);
#1230=SURFACE_SIDE_STYLE('',(#1229));
#1231=SURFACE_STYLE_USAGE(.BOTH.,#1230);
#1232=PRESENTATION_STYLE_ASSIGNMENT((#1231));
#1233=STYLED_ITEM('',(#1232),#1226);
#1234=CARTESIAN_POINT('',(-1.195E1,-1.14E1,2.499999997963E0));
#1235=DIRECTION('',(0.E0,0.E0,1.E0));
#1236=DIRECTION('',(0.E0,-1.E0,0.E0));
#1237=AXIS2_PLACEMENT_3D('',#1234,#1235,#1236);
#1238=CONICAL_SURFACE('',#1237,1.999999997963E0,4.5E1);
#1239=ORIENTED_EDGE('',*,*,#797,.T.);
#1240=ORIENTED_EDGE('',*,*,#1222,.T.);
#1242=ORIENTED_EDGE('',*,*,#1241,.F.);
#1243=ORIENTED_EDGE('',*,*,#1218,.F.);
#1244=EDGE_LOOP('',(#1239,#1240,#1242,#1243));
#1245=FACE_OUTER_BOUND('',#1244,.F.);
#1247=FILL_AREA_STYLE_COLOUR('',#21);
#1248=FILL_AREA_STYLE('',(#1247));
#1249=SURFACE_STYLE_FILL_AREA(#1248);
#1250=SURFACE_SIDE_STYLE('',(#1249));
#1251=SURFACE_STYLE_USAGE(.BOTH.,#1250);
#1252=PRESENTATION_STYLE_ASSIGNMENT((#1251));
#1253=STYLED_ITEM('',(#1252),#1246);
#1254=CARTESIAN_POINT('',(-1.195E1,-1.14E1,0.E0));
#1255=DIRECTION('',(0.E0,0.E0,1.E0));
#1256=DIRECTION('',(1.E0,0.E0,0.E0));
#1257=AXIS2_PLACEMENT_3D('',#1254,#1255,#1256);
#1258=CYLINDRICAL_SURFACE('',#1257,1.5E0);
#1259=ORIENTED_EDGE('',*,*,#1241,.T.);
#1261=ORIENTED_EDGE('',*,*,#1260,.F.);
#1262=ORIENTED_EDGE('',*,*,#681,.F.);
#1264=ORIENTED_EDGE('',*,*,#1263,.T.);
#1265=EDGE_LOOP('',(#1259,#1261,#1262,#1264));
#1266=FACE_OUTER_BOUND('',#1265,.F.);
#1268=FILL_AREA_STYLE_COLOUR('',#21);
#1269=FILL_AREA_STYLE('',(#1268));
#1270=SURFACE_STYLE_FILL_AREA(#1269);
#1271=SURFACE_SIDE_STYLE('',(#1270));
#1272=SURFACE_STYLE_USAGE(.BOTH.,#1271);
#1273=PRESENTATION_STYLE_ASSIGNMENT((#1272));
#1274=STYLED_ITEM('',(#1273),#1267);
#1275=CARTESIAN_POINT('',(-1.195E1,-1.14E1,0.E0));
#1276=DIRECTION('',(0.E0,0.E0,1.E0));
#1277=DIRECTION('',(1.E0,0.E0,0.E0));
#1278=AXIS2_PLACEMENT_3D('',#1275,#1276,#1277);
#1279=CYLINDRICAL_SURFACE('',#1278,1.5E0);
#1280=ORIENTED_EDGE('',*,*,#1220,.T.);
#1281=ORIENTED_EDGE('',*,*,#1263,.F.);
#1282=ORIENTED_EDGE('',*,*,#679,.F.);
#1283=ORIENTED_EDGE('',*,*,#1260,.T.);
#1284=EDGE_LOOP('',(#1280,#1281,#1282,#1283));
#1285=FACE_OUTER_BOUND('',#1284,.F.);
#1287=FILL_AREA_STYLE_COLOUR('',#21);
#1288=FILL_AREA_STYLE('',(#1287));
#1289=SURFACE_STYLE_FILL_AREA(#1288);
#1290=SURFACE_SIDE_STYLE('',(#1289));
#1291=SURFACE_STYLE_USAGE(.BOTH.,#1290);
#1292=PRESENTATION_STYLE_ASSIGNMENT((#1291));
#1293=STYLED_ITEM('',(#1292),#1286);
#1294=CLOSED_SHELL('',(#697,#719,#741,#801,#822,#841,#862,#882,#902,#922,#942,
#962,#982,#1001,#1021,#1040,#1062,#1082,#1103,#1122,#1144,#1164,#1185,#1204,
#1226,#1246,#1267,#1286));
#1295=MANIFOLD_SOLID_BREP('',#1294);
#1296=FILL_AREA_STYLE_COLOUR('',#21);
#1297=FILL_AREA_STYLE('',(#1296));
#1298=SURFACE_STYLE_FILL_AREA(#1297);
#1299=SURFACE_SIDE_STYLE('',(#1298));
#1300=SURFACE_STYLE_USAGE(.BOTH.,#1299);
#1301=PRESENTATION_STYLE_ASSIGNMENT((#1300));
#28=STYLED_ITEM('',(#1301),#1295);
#1304=PLANE_ANGLE_MEASURE_WITH_UNIT(PLANE_ANGLE_MEASURE(1.745329251994E-2),
#1303);
#1305=(CONVERSION_BASED_UNIT('DEGREE',#1304)NAMED_UNIT(*)PLANE_ANGLE_UNIT());
#1307=UNCERTAINTY_MEASURE_WITH_UNIT(LENGTH_MEASURE(5.107632802169E-3),#1302,
'distance_accuracy_value',
'Maximum model space distance between geometric entities at asserted connectivities');
#1309=CARTESIAN_POINT('',(0.E0,0.E0,0.E0));
#1310=DIRECTION('',(0.E0,0.E0,1.E0));
#1311=DIRECTION('',(1.E0,0.E0,0.E0));
#1314=MECHANICAL_DESIGN_GEOMETRIC_PRESENTATION_REPRESENTATION('',(#37,#45,#53,
#61,#69,#77,#85,#93,#101,#109,#117,#124,#132,#139,#147,#154,#162,#169,#177,#184,
#191,#199,#207,#215,#222,#230,#237,#245,#252,#260,#267,#275,#283,#291,#299,#307,
#315,#323,#331,#338,#345,#352,#359,#366,#373,#380,#387,#394,#401,#408,#416,#423,
#430,#437,#445,#452,#460,#467,#474,#481,#489,#496,#504,#511,#518,#525,#533,#540,
#548,#555,#704,#726,#748,#808,#829,#848,#869,#889,#909,#929,#949,#969,#989,
#1008,#1028,#1047,#1069,#1089,#1110,#1129,#1151,#1171,#1192,#1211,#1233,#1253,
#1274,#1293,#28),#1308);
#1315=APPLICATION_CONTEXT('automotive_design');
#1316=APPLICATION_PROTOCOL_DEFINITION('international standard',
'automotive_design',2001,#1315);
#1317=PRODUCT_DEFINITION_CONTEXT('part definition',#1315,'design');
#1318=PRODUCT_CONTEXT('',#1315,'mechanical');
#1319=PRODUCT('JOINTCOVER','JOINTCOVER','NOT SPECIFIED',(#1318));
#1320=PRODUCT_DEFINITION_FORMATION('4','LAST_VERSION',#1319);
#1328=DERIVED_UNIT_ELEMENT(#1327,2.E0);
#1329=DERIVED_UNIT((#1328));
#1330=MEASURE_REPRESENTATION_ITEM('surface area measure',AREA_MEASURE(
2.756852513442E3),#1329);
#1335=DERIVED_UNIT_ELEMENT(#1334,3.E0);
#1336=DERIVED_UNIT((#1335));
#1337=MEASURE_REPRESENTATION_ITEM('volume measure',VOLUME_MEASURE(
3.111239480770E3),#1336);
#1341=CARTESIAN_POINT('centre point',(2.600116800177E-4,1.830828470491E-9,
1.491248780524E0));
#1346=DERIVED_UNIT_ELEMENT(#1345,2.E0);
#1347=DERIVED_UNIT((#1346));
#1348=MEASURE_REPRESENTATION_ITEM('surface area measure',AREA_MEASURE(
2.756852513442E3),#1347);
#1353=DERIVED_UNIT_ELEMENT(#1352,3.E0);
#1354=DERIVED_UNIT((#1353));
#1355=MEASURE_REPRESENTATION_ITEM('volume measure',VOLUME_MEASURE(
3.111239480770E3),#1354);
#1359=CARTESIAN_POINT('centre point',(2.600116800177E-4,1.830828470491E-9,
1.491248780524E0));
#1=DRAUGHTING_PRE_DEFINED_COLOUR('green');
#2=DRAUGHTING_PRE_DEFINED_COLOUR('green');
#3=DRAUGHTING_PRE_DEFINED_COLOUR('green');
#4=COLOUR_RGB('',1.1E-2,1.2E-2,1.E0);
#5=COLOUR_RGB('',1.1E-2,1.2E-2,1.E0);
#6=COLOUR_RGB('',4.1E-1,2.61589E-1,1.12848E-1);
#7=COLOUR_RGB('',5.04854E-1,1.5455E-2,1.5455E-2);
#8=COLOUR_RGB('',6.35294E-1,6.86275E-1,7.4902E-1);
#9=COLOUR_RGB('',6.40777E-1,6.40777E-1,6.40777E-1);
#10=COLOUR_RGB('',6.66667E-1,6.66667E-1,6.66667E-1);
#11=COLOUR_RGB('',6.69062E-1,6.69903E-1,6.55217E-1);
#12=COLOUR_RGB('',7.45098E-1,3.92157E-1,2.94118E-1);
#13=COLOUR_RGB('',8.03922E-1,5.88235E-1,1.96078E-1);
#14=COLOUR_RGB('',9.21569E-1,7.05882E-1,4.70588E-1);
#15=DRAUGHTING_PRE_DEFINED_COLOUR('red');
#16=DRAUGHTING_PRE_DEFINED_COLOUR('red');
#17=DRAUGHTING_PRE_DEFINED_COLOUR('red');
#18=DRAUGHTING_PRE_DEFINED_COLOUR('red');
#19=DRAUGHTING_PRE_DEFINED_COLOUR('red');
#20=DRAUGHTING_PRE_DEFINED_COLOUR('red');
#21=DRAUGHTING_PRE_DEFINED_COLOUR('red');
#22=DRAUGHTING_PRE_DEFINED_COLOUR('yellow');
#23=DRAUGHTING_PRE_DEFINED_COLOUR('yellow');
#24=COLOUR_RGB('',1.E0,1.E0,5.3E-1);
#25=COLOUR_RGB('',1.E0,1.E0,9.49E-1);
#26=COLOUR_RGB('',1.E0,1.E0,9.49E-1);
#27=DRAUGHTING_PRE_DEFINED_COLOUR('white');
#33=CIRCLE('',#32,1.5E0);
#42=CIRCLE('',#41,1.5E0);
#50=CIRCLE('',#49,1.5E0);
#58=CIRCLE('',#57,1.5E0);
#66=CIRCLE('',#65,1.5E0);
#74=CIRCLE('',#73,1.5E0);
#82=CIRCLE('',#81,1.5E0);
#90=CIRCLE('',#89,1.5E0);
#98=CIRCLE('',#97,8.2E0);
#106=CIRCLE('',#105,8.2E0);
#114=CIRCLE('',#113,3.E0);
#129=CIRCLE('',#128,3.E0);
#144=CIRCLE('',#143,3.E0);
#159=CIRCLE('',#158,3.E0);
#174=CIRCLE('',#173,1.5E0);
#196=CIRCLE('',#195,8.2E0);
#204=CIRCLE('',#203,8.2E0);
#212=CIRCLE('',#211,3.E0);
#227=CIRCLE('',#226,3.E0);
#242=CIRCLE('',#241,3.E0);
#257=CIRCLE('',#256,3.E0);
#272=CIRCLE('',#271,2.5E0);
#280=CIRCLE('',#279,2.5E0);
#288=CIRCLE('',#287,2.5E0);
#296=CIRCLE('',#295,2.5E0);
#304=CIRCLE('',#303,2.5E0);
#312=CIRCLE('',#311,2.5E0);
#320=CIRCLE('',#319,2.5E0);
#328=CIRCLE('',#327,2.5E0);
#413=CIRCLE('',#412,1.5E0);
#442=CIRCLE('',#441,1.5E0);
#457=CIRCLE('',#456,1.5E0);
#486=CIRCLE('',#485,1.5E0);
#501=CIRCLE('',#500,1.5E0);
#530=CIRCLE('',#529,1.5E0);
#545=CIRCLE('',#544,1.5E0);
#649=EDGE_CURVE('',#598,#599,#114,.T.);
#651=EDGE_CURVE('',#598,#575,#121,.T.);
#653=EDGE_CURVE('',#574,#575,#129,.T.);
#655=EDGE_CURVE('',#574,#583,#136,.T.);
#657=EDGE_CURVE('',#582,#583,#144,.T.);
#659=EDGE_CURVE('',#582,#591,#151,.T.);
#661=EDGE_CURVE('',#590,#591,#159,.T.);
#663=EDGE_CURVE('',#590,#599,#166,.T.);
#667=EDGE_CURVE('',#562,#563,#50,.T.);
#669=EDGE_CURVE('',#563,#562,#58,.T.);
#673=EDGE_CURVE('',#566,#567,#66,.T.);
#675=EDGE_CURVE('',#567,#566,#74,.T.);
#679=EDGE_CURVE('',#570,#571,#82,.T.);
#681=EDGE_CURVE('',#571,#570,#90,.T.);
#685=EDGE_CURVE('',#606,#607,#98,.T.);
#687=EDGE_CURVE('',#607,#606,#106,.T.);
#691=EDGE_CURVE('',#558,#559,#33,.T.);
#693=EDGE_CURVE('',#559,#558,#42,.T.);
#697=ADVANCED_FACE('',(#666,#672,#678,#684,#690,#696),#648,.F.);
#710=EDGE_CURVE('',#618,#619,#174,.T.);
#712=EDGE_CURVE('',#559,#619,#420,.T.);
#715=EDGE_CURVE('',#558,#618,#181,.T.);
#719=ADVANCED_FACE('',(#718),#709,.F.);
#732=EDGE_CURVE('',#614,#615,#272,.T.);
#734=EDGE_CURVE('',#615,#619,#405,.T.);
#737=EDGE_CURVE('',#614,#618,#188,.T.);
#741=ADVANCED_FACE('',(#740),#731,.F.);
#754=EDGE_CURVE('',#601,#603,#212,.T.);
#756=EDGE_CURVE('',#595,#601,#219,.T.);
#758=EDGE_CURVE('',#593,#595,#227,.T.);
#760=EDGE_CURVE('',#587,#593,#234,.T.);
#762=EDGE_CURVE('',#585,#587,#242,.T.);
#764=EDGE_CURVE('',#579,#585,#249,.T.);
#766=EDGE_CURVE('',#577,#579,#257,.T.);
#768=EDGE_CURVE('',#603,#577,#264,.T.);
#772=EDGE_CURVE('',#610,#611,#196,.T.);
#774=EDGE_CURVE('',#611,#610,#204,.T.);
#779=EDGE_CURVE('',#615,#614,#280,.T.);
#783=EDGE_CURVE('',#622,#623,#288,.T.);
#785=EDGE_CURVE('',#623,#622,#296,.T.);
#789=EDGE_CURVE('',#630,#631,#304,.T.);
#791=EDGE_CURVE('',#631,#630,#312,.T.);
#795=EDGE_CURVE('',#638,#639,#320,.T.);
#797=EDGE_CURVE('',#639,#638,#328,.T.);
#801=ADVANCED_FACE('',(#771,#777,#782,#788,#794,#800),#753,.T.);
#815=EDGE_CURVE('',#606,#610,#335,.T.);
#818=EDGE_CURVE('',#607,#611,#342,.T.);
#822=ADVANCED_FACE('',(#821),#813,.F.);
#841=ADVANCED_FACE('',(#840),#834,.F.);
#855=EDGE_CURVE('',#601,#599,#349,.T.);
#858=EDGE_CURVE('',#603,#598,#391,.T.);
#862=ADVANCED_FACE('',(#861),#853,.T.);
#877=EDGE_CURVE('',#595,#590,#356,.T.);
#882=ADVANCED_FACE('',(#881),#874,.T.);
#896=EDGE_CURVE('',#593,#591,#370,.T.);
#902=ADVANCED_FACE('',(#901),#894,.T.);
#915=EDGE_CURVE('',#587,#582,#363,.T.);
#922=ADVANCED_FACE('',(#921),#914,.T.);
#936=EDGE_CURVE('',#585,#583,#377,.T.);
#942=ADVANCED_FACE('',(#941),#934,.T.);
#957=EDGE_CURVE('',#579,#574,#384,.T.);
#962=ADVANCED_FACE('',(#961),#954,.T.);
#976=EDGE_CURVE('',#577,#575,#398,.T.);
#982=ADVANCED_FACE('',(#981),#974,.T.);
#1001=ADVANCED_FACE('',(#1000),#994,.T.);
#1016=EDGE_CURVE('',#619,#618,#413,.T.);
#1021=ADVANCED_FACE('',(#1020),#1013,.F.);
#1040=ADVANCED_FACE('',(#1039),#1033,.F.);
#1054=EDGE_CURVE('',#623,#627,#434,.T.);
#1056=EDGE_CURVE('',#626,#627,#457,.T.);
#1058=EDGE_CURVE('',#622,#626,#427,.T.);
#1062=ADVANCED_FACE('',(#1061),#1052,.F.);
#1077=EDGE_CURVE('',#627,#626,#442,.T.);
#1082=ADVANCED_FACE('',(#1081),#1074,.F.);
#1096=EDGE_CURVE('',#562,#626,#464,.T.);
#1099=EDGE_CURVE('',#563,#627,#449,.T.);
#1103=ADVANCED_FACE('',(#1102),#1094,.F.);
#1122=ADVANCED_FACE('',(#1121),#1115,.F.);
#1136=EDGE_CURVE('',#631,#635,#478,.T.);
#1138=EDGE_CURVE('',#634,#635,#501,.T.);
#1140=EDGE_CURVE('',#630,#634,#471,.T.);
#1144=ADVANCED_FACE('',(#1143),#1134,.F.);
#1159=EDGE_CURVE('',#635,#634,#486,.T.);
#1164=ADVANCED_FACE('',(#1163),#1156,.F.);
#1178=EDGE_CURVE('',#566,#634,#508,.T.);
#1181=EDGE_CURVE('',#567,#635,#493,.T.);
#1185=ADVANCED_FACE('',(#1184),#1176,.F.);
#1204=ADVANCED_FACE('',(#1203),#1197,.F.);
#1218=EDGE_CURVE('',#639,#643,#522,.T.);
#1220=EDGE_CURVE('',#642,#643,#545,.T.);
#1222=EDGE_CURVE('',#638,#642,#515,.T.);
#1226=ADVANCED_FACE('',(#1225),#1216,.F.);
#1241=EDGE_CURVE('',#643,#642,#530,.T.);
#1246=ADVANCED_FACE('',(#1245),#1238,.F.);
#1260=EDGE_CURVE('',#570,#642,#552,.T.);
#1263=EDGE_CURVE('',#571,#643,#537,.T.);
#1267=ADVANCED_FACE('',(#1266),#1258,.F.);
#1286=ADVANCED_FACE('',(#1285),#1279,.F.);
#1302=(LENGTH_UNIT()NAMED_UNIT(*)SI_UNIT(.MILLI.,.METRE.));
#1303=(NAMED_UNIT(*)PLANE_ANGLE_UNIT()SI_UNIT($,.RADIAN.));
#1306=(NAMED_UNIT(*)SI_UNIT($,.STERADIAN.)SOLID_ANGLE_UNIT());
#1308=(GEOMETRIC_REPRESENTATION_CONTEXT(3)GLOBAL_UNCERTAINTY_ASSIGNED_CONTEXT((
#1307))GLOBAL_UNIT_ASSIGNED_CONTEXT((#1302,#1305,#1306))REPRESENTATION_CONTEXT(
'ID1','external'));
#1312=AXIS2_PLACEMENT_3D('',#1309,#1310,#1311);
#1313=ADVANCED_BREP_SHAPE_REPRESENTATION('',(#1312,#1295),#1308);
#1321=PRODUCT_DEFINITION('part definition','',#1320,#1317);
#1322=PRODUCT_DEFINITION_SHAPE('','SHAPE FOR JOINTCOVER.',#1321);
#1323=SHAPE_ASPECT('','solid data associated with JOINTCOVER',#1322,.F.);
#1324=PROPERTY_DEFINITION('',
'shape for solid data with which properties are associated',#1323);
#1325=SHAPE_REPRESENTATION('',(#1295),#1308);
#1326=SHAPE_DEFINITION_REPRESENTATION(#1324,#1325);
#1327=(LENGTH_UNIT()NAMED_UNIT(*)SI_UNIT(.MILLI.,.METRE.));
#1331=PROPERTY_DEFINITION('geometric validation property','area of JOINTCOVER',
#1323);
#1332=REPRESENTATION('surface area',(#1330),#1308);
#1333=PROPERTY_DEFINITION_REPRESENTATION(#1331,#1332);
#1334=(LENGTH_UNIT()NAMED_UNIT(*)SI_UNIT(.MILLI.,.METRE.));
#1338=PROPERTY_DEFINITION('geometric validation property',
'volume of JOINTCOVER',#1323);
#1339=REPRESENTATION('volume',(#1337),#1308);
#1340=PROPERTY_DEFINITION_REPRESENTATION(#1338,#1339);
#1342=PROPERTY_DEFINITION('geometric validation property',
'centroid of JOINTCOVER',#1323);
#1343=REPRESENTATION('centroid',(#1341),#1308);
#1344=PROPERTY_DEFINITION_REPRESENTATION(#1342,#1343);
#1345=(LENGTH_UNIT()NAMED_UNIT(*)SI_UNIT(.MILLI.,.METRE.));
#1349=PROPERTY_DEFINITION('geometric validation property','area of JOINTCOVER',
#1322);
#1350=REPRESENTATION('surface area',(#1348),#1308);
#1351=PROPERTY_DEFINITION_REPRESENTATION(#1349,#1350);
#1352=(LENGTH_UNIT()NAMED_UNIT(*)SI_UNIT(.MILLI.,.METRE.));
#1356=PROPERTY_DEFINITION('geometric validation property',
'volume of JOINTCOVER',#1322);
#1357=REPRESENTATION('volume',(#1355),#1308);
#1358=PROPERTY_DEFINITION_REPRESENTATION(#1356,#1357);
#1360=PROPERTY_DEFINITION('geometric validation property',
'centroid of JOINTCOVER',#1322);
#1361=REPRESENTATION('centroid',(#1359),#1308);
#1362=PROPERTY_DEFINITION_REPRESENTATION(#1360,#1361);
#1363=SHAPE_DEFINITION_REPRESENTATION(#1322,#1313);
#1364=PRODUCT_RELATED_PRODUCT_CATEGORY('part','',(#1319));
ENDSEC;
END-ISO-10303-21;
