ISO-10303-21;
HEADER;
FILE_DESCRIPTION((''),'2;1');
FILE_NAME('JOINT1','2026-08-09T09:56:41',('gram2'),(''),
'CREO PARAMETRIC BY PTC INC, 2016510','CREO PARAMETRIC BY PTC INC, 2016510','');
FILE_SCHEMA(('AUTOMOTIVE_DESIGN { 1 0 10303 214 1 1 1 1 }'));
ENDSEC;
DATA;
#29=CARTESIAN_POINT('',(0.E0,0.E0,0.E0));
#30=DIRECTION('',(0.E0,0.E0,1.E0));
#31=DIRECTION('',(1.E0,0.E0,0.E0));
#32=AXIS2_PLACEMENT_3D('',#29,#30,#31);
#34=DRAUGHTING_PRE_DEFINED_CURVE_FONT('continuous');
#35=CURVE_STYLE('',#34,POSITIVE_LENGTH_MEASURE(2.E-2),#22);
#36=PRESENTATION_STYLE_ASSIGNMENT((#35));
#37=STYLED_ITEM('',(#36),#33);
#38=CARTESIAN_POINT('',(0.E0,0.E0,0.E0));
#39=DIRECTION('',(0.E0,0.E0,1.E0));
#40=DIRECTION('',(-1.E0,0.E0,0.E0));
#41=AXIS2_PLACEMENT_3D('',#38,#39,#40);
#43=CURVE_STYLE('',#34,POSITIVE_LENGTH_MEASURE(2.E-2),#22);
#44=PRESENTATION_STYLE_ASSIGNMENT((#43));
#45=STYLED_ITEM('',(#44),#42);
#46=CARTESIAN_POINT('',(0.E0,0.E0,3.5E0));
#47=DIRECTION('',(0.E0,0.E0,1.E0));
#48=DIRECTION('',(1.E0,0.E0,0.E0));
#49=AXIS2_PLACEMENT_3D('',#46,#47,#48);
#51=CURVE_STYLE('',#34,POSITIVE_LENGTH_MEASURE(2.E-2),#22);
#52=PRESENTATION_STYLE_ASSIGNMENT((#51));
#53=STYLED_ITEM('',(#52),#50);
#54=DIRECTION('',(0.E0,0.E0,1.E0));
#55=VECTOR('',#54,3.5E0);
#56=CARTESIAN_POINT('',(7.5E0,0.E0,0.E0));
#57=LINE('',#56,#55);
#58=CURVE_STYLE('',#34,POSITIVE_LENGTH_MEASURE(2.E-2),#22);
#59=PRESENTATION_STYLE_ASSIGNMENT((#58));
#60=STYLED_ITEM('',(#59),#57);
#61=CARTESIAN_POINT('',(0.E0,0.E0,3.5E0));
#62=DIRECTION('',(0.E0,0.E0,1.E0));
#63=DIRECTION('',(1.E0,0.E0,0.E0));
#64=AXIS2_PLACEMENT_3D('',#61,#62,#63);
#66=CURVE_STYLE('',#34,POSITIVE_LENGTH_MEASURE(2.E-2),#22);
#67=PRESENTATION_STYLE_ASSIGNMENT((#66));
#68=STYLED_ITEM('',(#67),#65);
#69=CARTESIAN_POINT('',(0.E0,0.E0,3.5E0));
#70=DIRECTION('',(0.E0,0.E0,1.E0));
#71=DIRECTION('',(-1.E0,0.E0,0.E0));
#72=AXIS2_PLACEMENT_3D('',#69,#70,#71);
#74=CURVE_STYLE('',#34,POSITIVE_LENGTH_MEASURE(2.E-2),#22);
#75=PRESENTATION_STYLE_ASSIGNMENT((#74));
#76=STYLED_ITEM('',(#75),#73);
#77=CARTESIAN_POINT('',(0.E0,0.E0,4.5E0));
#78=DIRECTION('',(0.E0,0.E0,1.E0));
#79=DIRECTION('',(1.E0,0.E0,0.E0));
#80=AXIS2_PLACEMENT_3D('',#77,#78,#79);
#82=CURVE_STYLE('',#34,POSITIVE_LENGTH_MEASURE(2.E-2),#22);
#83=PRESENTATION_STYLE_ASSIGNMENT((#82));
#84=STYLED_ITEM('',(#83),#81);
#85=DIRECTION('',(0.E0,0.E0,1.E0));
#86=VECTOR('',#85,1.E0);
#87=CARTESIAN_POINT('',(8.75E0,0.E0,3.5E0));
#88=LINE('',#87,#86);
#89=CURVE_STYLE('',#34,POSITIVE_LENGTH_MEASURE(2.E-2),#22);
#90=PRESENTATION_STYLE_ASSIGNMENT((#89));
#91=STYLED_ITEM('',(#90),#88);
#92=CARTESIAN_POINT('',(0.E0,0.E0,4.5E0));
#93=DIRECTION('',(0.E0,0.E0,1.E0));
#94=DIRECTION('',(1.E0,0.E0,0.E0));
#95=AXIS2_PLACEMENT_3D('',#92,#93,#94);
#97=CURVE_STYLE('',#34,POSITIVE_LENGTH_MEASURE(2.E-2),#22);
#98=PRESENTATION_STYLE_ASSIGNMENT((#97));
#99=STYLED_ITEM('',(#98),#96);
#100=CARTESIAN_POINT('',(0.E0,0.E0,4.5E0));
#101=DIRECTION('',(0.E0,0.E0,1.E0));
#102=DIRECTION('',(-1.E0,0.E0,0.E0));
#103=AXIS2_PLACEMENT_3D('',#100,#101,#102);
#105=CURVE_STYLE('',#34,POSITIVE_LENGTH_MEASURE(2.E-2),#22);
#106=PRESENTATION_STYLE_ASSIGNMENT((#105));
#107=STYLED_ITEM('',(#106),#104);
#108=DIRECTION('',(0.E0,0.E0,1.E0));
#109=VECTOR('',#108,1.5E0);
#110=CARTESIAN_POINT('',(9.7E0,0.E0,4.5E0));
#111=LINE('',#110,#109);
#112=CURVE_STYLE('',#34,POSITIVE_LENGTH_MEASURE(2.E-2),#22);
#113=PRESENTATION_STYLE_ASSIGNMENT((#112));
#114=STYLED_ITEM('',(#113),#111);
#115=DIRECTION('',(0.E0,0.E0,1.E0));
#116=VECTOR('',#115,1.5E0);
#117=CARTESIAN_POINT('',(-9.7E0,0.E0,4.5E0));
#118=LINE('',#117,#116);
#119=CURVE_STYLE('',#34,POSITIVE_LENGTH_MEASURE(2.E-2),#22);
#120=PRESENTATION_STYLE_ASSIGNMENT((#119));
#121=STYLED_ITEM('',(#120),#118);
#122=CARTESIAN_POINT('',(0.E0,0.E0,6.E0));
#123=DIRECTION('',(0.E0,0.E0,1.E0));
#124=DIRECTION('',(1.E0,0.E0,0.E0));
#125=AXIS2_PLACEMENT_3D('',#122,#123,#124);
#127=CURVE_STYLE('',#34,POSITIVE_LENGTH_MEASURE(2.E-2),#22);
#128=PRESENTATION_STYLE_ASSIGNMENT((#127));
#129=STYLED_ITEM('',(#128),#126);
#130=CARTESIAN_POINT('',(0.E0,0.E0,6.E0));
#131=DIRECTION('',(0.E0,0.E0,1.E0));
#132=DIRECTION('',(-1.E0,0.E0,0.E0));
#133=AXIS2_PLACEMENT_3D('',#130,#131,#132);
#135=CURVE_STYLE('',#34,POSITIVE_LENGTH_MEASURE(2.E-2),#22);
#136=PRESENTATION_STYLE_ASSIGNMENT((#135));
#137=STYLED_ITEM('',(#136),#134);
#138=CARTESIAN_POINT('',(0.E0,0.E0,6.E0));
#139=DIRECTION('',(0.E0,0.E0,1.E0));
#140=DIRECTION('',(0.E0,1.E0,0.E0));
#141=AXIS2_PLACEMENT_3D('',#138,#139,#140);
#143=CURVE_STYLE('',#34,POSITIVE_LENGTH_MEASURE(2.E-2),#22);
#144=PRESENTATION_STYLE_ASSIGNMENT((#143));
#145=STYLED_ITEM('',(#144),#142);
#146=CARTESIAN_POINT('',(0.E0,0.E0,6.E0));
#147=DIRECTION('',(0.E0,0.E0,1.E0));
#148=DIRECTION('',(0.E0,-1.E0,0.E0));
#149=AXIS2_PLACEMENT_3D('',#146,#147,#148);
#151=CURVE_STYLE('',#34,POSITIVE_LENGTH_MEASURE(2.E-2),#22);
#152=PRESENTATION_STYLE_ASSIGNMENT((#151));
#153=STYLED_ITEM('',(#152),#150);
#154=CARTESIAN_POINT('',(0.E0,-8.E0,1.789015165046E1));
#155=CARTESIAN_POINT('',(-3.666294589344E-1,-8.E0,1.825950472038E1));
#156=CARTESIAN_POINT('',(-1.113225324332E0,-7.949946886430E0,1.900211185581E1));
#157=CARTESIAN_POINT('',(-2.262132971416E0,-7.704101605313E0,2.015262712183E1));
#158=CARTESIAN_POINT('',(-3.374995452869E0,-7.285316882925E0,2.126504222247E1));
#159=CARTESIAN_POINT('',(-4.395723523268E0,-6.716788234066E0,2.228595219719E1));
#160=CARTESIAN_POINT('',(-5.283427229477E0,-6.039485767619E0,2.317337566694E1));
#161=CARTESIAN_POINT('',(-5.776477906730E0,-5.544952852696E0,2.366705237187E1));
#162=CARTESIAN_POINT('',(-6.E0,-5.291502622129E0,2.389015165046E1));
#164=CURVE_STYLE('',#34,POSITIVE_LENGTH_MEASURE(2.E-2),#22);
#165=PRESENTATION_STYLE_ASSIGNMENT((#164));
#166=STYLED_ITEM('',(#165),#163);
#167=DIRECTION('',(0.E0,0.E0,1.E0));
#168=VECTOR('',#167,1.189015165046E1);
#169=CARTESIAN_POINT('',(0.E0,8.E0,6.E0));
#170=LINE('',#169,#168);
#171=CURVE_STYLE('',#34,POSITIVE_LENGTH_MEASURE(2.E-2),#22);
#172=PRESENTATION_STYLE_ASSIGNMENT((#171));
#173=STYLED_ITEM('',(#172),#170);
#174=CARTESIAN_POINT('',(-6.E0,5.291502622129E0,2.389015165046E1));
#175=CARTESIAN_POINT('',(-5.776403855291E0,5.545036819135E0,2.366698151561E1));
#176=CARTESIAN_POINT('',(-5.283159726197E0,6.039750810929E0,2.317310668822E1));
#177=CARTESIAN_POINT('',(-4.394917167744E0,6.717351487443E0,2.228514621295E1));
#178=CARTESIAN_POINT('',(-3.373624426955E0,7.285974078832E0,2.126367118686E1));
#179=CARTESIAN_POINT('',(-2.260461670848E0,7.704592888810E0,2.015095548877E1));
#180=CARTESIAN_POINT('',(-1.111810004332E0,7.950107632083E0,1.900069787549E1));
#181=CARTESIAN_POINT('',(-3.660653395809E-1,8.E0,1.825893769676E1));
#182=CARTESIAN_POINT('',(0.E0,8.E0,1.789015165046E1));
#184=CURVE_STYLE('',#34,POSITIVE_LENGTH_MEASURE(2.E-2),#22);
#185=PRESENTATION_STYLE_ASSIGNMENT((#184));
#186=STYLED_ITEM('',(#185),#183);
#187=DIRECTION('',(0.E0,0.E0,1.E0));
#188=VECTOR('',#187,1.289015165046E1);
#189=CARTESIAN_POINT('',(-6.E0,5.291502622129E0,1.1E1));
#190=LINE('',#189,#188);
#191=CURVE_STYLE('',#34,POSITIVE_LENGTH_MEASURE(2.E-2),#22);
#192=PRESENTATION_STYLE_ASSIGNMENT((#191));
#193=STYLED_ITEM('',(#192),#190);
#194=CARTESIAN_POINT('',(0.E0,0.E0,1.1E1));
#195=DIRECTION('',(0.E0,0.E0,1.E0));
#196=DIRECTION('',(-7.5E-1,6.614378277661E-1,0.E0));
#197=AXIS2_PLACEMENT_3D('',#194,#195,#196);
#199=CURVE_STYLE('',#34,POSITIVE_LENGTH_MEASURE(2.E-2),#22);
#200=PRESENTATION_STYLE_ASSIGNMENT((#199));
#201=STYLED_ITEM('',(#200),#198);
#202=DIRECTION('',(0.E0,0.E0,1.E0));
#203=VECTOR('',#202,1.289015165046E1);
#204=CARTESIAN_POINT('',(-6.E0,-5.291502622129E0,1.1E1));
#205=LINE('',#204,#203);
#206=CURVE_STYLE('',#34,POSITIVE_LENGTH_MEASURE(2.E-2),#22);
#207=PRESENTATION_STYLE_ASSIGNMENT((#206));
#208=STYLED_ITEM('',(#207),#205);
#209=CARTESIAN_POINT('',(-6.E0,0.E0,1.789015165046E1));
#210=DIRECTION('',(1.E0,0.E0,0.E0));
#211=DIRECTION('',(0.E0,6.614378277661E-1,7.5E-1));
#212=AXIS2_PLACEMENT_3D('',#209,#210,#211);
#214=CURVE_STYLE('',#34,POSITIVE_LENGTH_MEASURE(2.E-2),#22);
#215=PRESENTATION_STYLE_ASSIGNMENT((#214));
#216=STYLED_ITEM('',(#215),#213);
#217=CARTESIAN_POINT('',(-6.E0,0.E0,1.789015165046E1));
#218=DIRECTION('',(1.E0,0.E0,0.E0));
#219=DIRECTION('',(0.E0,1.E0,0.E0));
#220=AXIS2_PLACEMENT_3D('',#217,#218,#219);
#222=CURVE_STYLE('',#34,POSITIVE_LENGTH_MEASURE(2.E-2),#22);
#223=PRESENTATION_STYLE_ASSIGNMENT((#222));
#224=STYLED_ITEM('',(#223),#221);
#225=CARTESIAN_POINT('',(-6.E0,0.E0,1.789015165046E1));
#226=DIRECTION('',(1.E0,0.E0,0.E0));
#227=DIRECTION('',(0.E0,-1.E0,0.E0));
#228=AXIS2_PLACEMENT_3D('',#225,#226,#227);
#230=CURVE_STYLE('',#34,POSITIVE_LENGTH_MEASURE(2.E-2),#22);
#231=PRESENTATION_STYLE_ASSIGNMENT((#230));
#232=STYLED_ITEM('',(#231),#229);
#233=DIRECTION('',(0.E0,1.E0,0.E0));
#234=VECTOR('',#233,1.058300524426E1);
#235=CARTESIAN_POINT('',(-6.E0,-5.291502622129E0,1.1E1));
#236=LINE('',#235,#234);
#237=CURVE_STYLE('',#34,POSITIVE_LENGTH_MEASURE(2.E-2),#22);
#238=PRESENTATION_STYLE_ASSIGNMENT((#237));
#239=STYLED_ITEM('',(#238),#236);
#240=DIRECTION('',(0.E0,-1.E0,0.E0));
#241=VECTOR('',#240,1.058300524426E1);
#242=CARTESIAN_POINT('',(6.E0,5.291502622129E0,1.1E1));
#243=LINE('',#242,#241);
#244=CURVE_STYLE('',#34,POSITIVE_LENGTH_MEASURE(2.E-2),#22);
#245=PRESENTATION_STYLE_ASSIGNMENT((#244));
#246=STYLED_ITEM('',(#245),#243);
#247=CARTESIAN_POINT('',(0.E0,8.E0,1.789015165046E1));
#248=CARTESIAN_POINT('',(3.658650028079E-1,8.E0,1.825873655917E1));
#249=CARTESIAN_POINT('',(1.111313838497E0,7.950165031488E0,1.900020207770E1));
#250=CARTESIAN_POINT('',(2.259912540188E0,7.704756530404E0,2.015040627117E1));
#251=CARTESIAN_POINT('',(3.373213203698E0,7.286173691650E0,2.126325994332E1));
#252=CARTESIAN_POINT('',(4.394700893023E0,6.717504114016E0,2.228493010629E1));
#253=CARTESIAN_POINT('',(5.283093557912E0,6.039816939788E0,2.317303986798E1));
#254=CARTESIAN_POINT('',(5.776387198797E0,5.545055705823E0,2.366696626829E1));
#255=CARTESIAN_POINT('',(6.E0,5.291502622129E0,2.389015165046E1));
#257=CURVE_STYLE('',#34,POSITIVE_LENGTH_MEASURE(2.E-2),#22);
#258=PRESENTATION_STYLE_ASSIGNMENT((#257));
#259=STYLED_ITEM('',(#258),#256);
#260=DIRECTION('',(0.E0,0.E0,1.E0));
#261=VECTOR('',#260,1.189015165046E1);
#262=CARTESIAN_POINT('',(0.E0,-8.E0,6.E0));
#263=LINE('',#262,#261);
#264=CURVE_STYLE('',#34,POSITIVE_LENGTH_MEASURE(2.E-2),#22);
#265=PRESENTATION_STYLE_ASSIGNMENT((#264));
#266=STYLED_ITEM('',(#265),#263);
#267=CARTESIAN_POINT('',(6.E0,-5.291502622129E0,2.389015165046E1));
#268=CARTESIAN_POINT('',(5.776493853687E0,-5.544934770545E0,2.366706978592E1));
#269=CARTESIAN_POINT('',(5.283465255118E0,-6.039449524792E0,2.317341301124E1));
#270=CARTESIAN_POINT('',(4.395791152042E0,-6.716746258149E0,2.228602001003E1));
#271=CARTESIAN_POINT('',(3.374958562050E0,-7.285343667958E0,2.126500527673E1));
#272=CARTESIAN_POINT('',(2.261916557352E0,-7.704173571431E0,2.015241074338E1));
#273=CARTESIAN_POINT('',(1.112929387656E0,-7.949984510747E0,1.900181583160E1));
#274=CARTESIAN_POINT('',(3.665022327992E-1,-8.E0,1.825937767474E1));
#275=CARTESIAN_POINT('',(0.E0,-8.E0,1.789015165046E1));
#277=CURVE_STYLE('',#34,POSITIVE_LENGTH_MEASURE(2.E-2),#22);
#278=PRESENTATION_STYLE_ASSIGNMENT((#277));
#279=STYLED_ITEM('',(#278),#276);
#280=DIRECTION('',(0.E0,0.E0,1.E0));
#281=VECTOR('',#280,1.289015165046E1);
#282=CARTESIAN_POINT('',(6.E0,-5.291502622129E0,1.1E1));
#283=LINE('',#282,#281);
#284=CURVE_STYLE('',#34,POSITIVE_LENGTH_MEASURE(2.E-2),#22);
#285=PRESENTATION_STYLE_ASSIGNMENT((#284));
#286=STYLED_ITEM('',(#285),#283);
#287=CARTESIAN_POINT('',(0.E0,0.E0,1.1E1));
#288=DIRECTION('',(0.E0,0.E0,1.E0));
#289=DIRECTION('',(7.5E-1,-6.614378277661E-1,0.E0));
#290=AXIS2_PLACEMENT_3D('',#287,#288,#289);
#292=CURVE_STYLE('',#34,POSITIVE_LENGTH_MEASURE(2.E-2),#22);
#293=PRESENTATION_STYLE_ASSIGNMENT((#292));
#294=STYLED_ITEM('',(#293),#291);
#295=DIRECTION('',(0.E0,0.E0,1.E0));
#296=VECTOR('',#295,1.289015165046E1);
#297=CARTESIAN_POINT('',(6.E0,5.291502622129E0,1.1E1));
#298=LINE('',#297,#296);
#299=CURVE_STYLE('',#34,POSITIVE_LENGTH_MEASURE(2.E-2),#22);
#300=PRESENTATION_STYLE_ASSIGNMENT((#299));
#301=STYLED_ITEM('',(#300),#298);
#302=CARTESIAN_POINT('',(6.E0,0.E0,1.789015165046E1));
#303=DIRECTION('',(1.E0,0.E0,0.E0));
#304=DIRECTION('',(0.E0,6.614378277661E-1,7.5E-1));
#305=AXIS2_PLACEMENT_3D('',#302,#303,#304);
#307=CURVE_STYLE('',#34,POSITIVE_LENGTH_MEASURE(2.E-2),#22);
#308=PRESENTATION_STYLE_ASSIGNMENT((#307));
#309=STYLED_ITEM('',(#308),#306);
#310=CARTESIAN_POINT('',(6.E0,0.E0,1.789015165046E1));
#311=DIRECTION('',(1.E0,0.E0,0.E0));
#312=DIRECTION('',(0.E0,1.E0,0.E0));
#313=AXIS2_PLACEMENT_3D('',#310,#311,#312);
#315=CURVE_STYLE('',#34,POSITIVE_LENGTH_MEASURE(2.E-2),#22);
#316=PRESENTATION_STYLE_ASSIGNMENT((#315));
#317=STYLED_ITEM('',(#316),#314);
#318=CARTESIAN_POINT('',(6.E0,0.E0,1.789015165046E1));
#319=DIRECTION('',(1.E0,0.E0,0.E0));
#320=DIRECTION('',(0.E0,-1.E0,0.E0));
#321=AXIS2_PLACEMENT_3D('',#318,#319,#320);
#323=CURVE_STYLE('',#34,POSITIVE_LENGTH_MEASURE(2.E-2),#22);
#324=PRESENTATION_STYLE_ASSIGNMENT((#323));
#325=STYLED_ITEM('',(#324),#322);
#326=DIRECTION('',(1.E0,0.E0,0.E0));
#327=VECTOR('',#326,1.2E1);
#328=CARTESIAN_POINT('',(-6.E0,4.E0,1.789015165046E1));
#329=LINE('',#328,#327);
#330=CURVE_STYLE('',#34,POSITIVE_LENGTH_MEASURE(2.E-2),#22);
#331=PRESENTATION_STYLE_ASSIGNMENT((#330));
#332=STYLED_ITEM('',(#331),#329);
#333=DIRECTION('',(1.E0,0.E0,0.E0));
#334=VECTOR('',#333,1.2E1);
#335=CARTESIAN_POINT('',(-6.E0,-4.E0,1.789015165046E1));
#336=LINE('',#335,#334);
#337=CURVE_STYLE('',#34,POSITIVE_LENGTH_MEASURE(2.E-2),#22);
#338=PRESENTATION_STYLE_ASSIGNMENT((#337));
#339=STYLED_ITEM('',(#338),#336);
#340=CARTESIAN_POINT('',(0.E0,0.E0,4.5E0));
#341=DIRECTION('',(0.E0,0.E0,1.E0));
#342=DIRECTION('',(-1.E0,0.E0,0.E0));
#343=AXIS2_PLACEMENT_3D('',#340,#341,#342);
#345=CURVE_STYLE('',#34,POSITIVE_LENGTH_MEASURE(2.E-2),#22);
#346=PRESENTATION_STYLE_ASSIGNMENT((#345));
#347=STYLED_ITEM('',(#346),#344);
#348=DIRECTION('',(0.E0,0.E0,1.E0));
#349=VECTOR('',#348,1.E0);
#350=CARTESIAN_POINT('',(-8.75E0,0.E0,3.5E0));
#351=LINE('',#350,#349);
#352=CURVE_STYLE('',#34,POSITIVE_LENGTH_MEASURE(2.E-2),#22);
#353=PRESENTATION_STYLE_ASSIGNMENT((#352));
#354=STYLED_ITEM('',(#353),#351);
#355=CARTESIAN_POINT('',(0.E0,0.E0,3.5E0));
#356=DIRECTION('',(0.E0,0.E0,1.E0));
#357=DIRECTION('',(-1.E0,0.E0,0.E0));
#358=AXIS2_PLACEMENT_3D('',#355,#356,#357);
#360=CURVE_STYLE('',#34,POSITIVE_LENGTH_MEASURE(2.E-2),#22);
#361=PRESENTATION_STYLE_ASSIGNMENT((#360));
#362=STYLED_ITEM('',(#361),#359);
#363=DIRECTION('',(0.E0,0.E0,1.E0));
#364=VECTOR('',#363,3.5E0);
#365=CARTESIAN_POINT('',(-7.5E0,0.E0,0.E0));
#366=LINE('',#365,#364);
#367=CURVE_STYLE('',#34,POSITIVE_LENGTH_MEASURE(2.E-2),#22);
#368=PRESENTATION_STYLE_ASSIGNMENT((#367));
#369=STYLED_ITEM('',(#368),#366);
#370=CARTESIAN_POINT('',(7.5E0,0.E0,0.E0));
#371=CARTESIAN_POINT('',(-7.5E0,0.E0,0.E0));
#372=VERTEX_POINT('',#370);
#373=VERTEX_POINT('',#371);
#374=CARTESIAN_POINT('',(8.75E0,0.E0,3.5E0));
#375=CARTESIAN_POINT('',(-8.75E0,0.E0,3.5E0));
#376=VERTEX_POINT('',#374);
#377=VERTEX_POINT('',#375);
#378=CARTESIAN_POINT('',(7.5E0,0.E0,3.5E0));
#379=CARTESIAN_POINT('',(-7.5E0,0.E0,3.5E0));
#380=VERTEX_POINT('',#378);
#381=VERTEX_POINT('',#379);
#382=CARTESIAN_POINT('',(9.7E0,0.E0,4.5E0));
#383=CARTESIAN_POINT('',(-9.7E0,0.E0,4.5E0));
#384=VERTEX_POINT('',#382);
#385=VERTEX_POINT('',#383);
#386=CARTESIAN_POINT('',(9.7E0,0.E0,6.E0));
#387=CARTESIAN_POINT('',(-9.7E0,0.E0,6.E0));
#388=VERTEX_POINT('',#386);
#389=VERTEX_POINT('',#387);
#390=CARTESIAN_POINT('',(8.75E0,0.E0,4.5E0));
#391=CARTESIAN_POINT('',(-8.75E0,0.E0,4.5E0));
#392=VERTEX_POINT('',#390);
#393=VERTEX_POINT('',#391);
#394=CARTESIAN_POINT('',(0.E0,8.E0,6.E0));
#395=CARTESIAN_POINT('',(0.E0,-8.E0,6.E0));
#396=VERTEX_POINT('',#394);
#397=VERTEX_POINT('',#395);
#398=CARTESIAN_POINT('',(-6.E0,5.291502622129E0,1.1E1));
#399=CARTESIAN_POINT('',(-6.E0,-5.291502622129E0,1.1E1));
#400=VERTEX_POINT('',#398);
#401=VERTEX_POINT('',#399);
#402=CARTESIAN_POINT('',(6.E0,-5.291502622129E0,1.1E1));
#403=CARTESIAN_POINT('',(6.E0,5.291502622129E0,1.1E1));
#404=VERTEX_POINT('',#402);
#405=VERTEX_POINT('',#403);
#406=VERTEX_POINT('',#154);
#407=VERTEX_POINT('',#162);
#408=VERTEX_POINT('',#174);
#409=VERTEX_POINT('',#182);
#410=VERTEX_POINT('',#255);
#411=VERTEX_POINT('',#267);
#412=CARTESIAN_POINT('',(-6.E0,4.E0,1.789015165046E1));
#413=CARTESIAN_POINT('',(-6.E0,-4.E0,1.789015165046E1));
#414=VERTEX_POINT('',#412);
#415=VERTEX_POINT('',#413);
#416=CARTESIAN_POINT('',(6.E0,4.E0,1.789015165046E1));
#417=CARTESIAN_POINT('',(6.E0,-4.E0,1.789015165046E1));
#418=VERTEX_POINT('',#416);
#419=VERTEX_POINT('',#417);
#420=CARTESIAN_POINT('',(0.E0,0.E0,0.E0));
#421=DIRECTION('',(0.E0,0.E0,1.E0));
#422=DIRECTION('',(1.E0,0.E0,0.E0));
#423=AXIS2_PLACEMENT_3D('',#420,#421,#422);
#424=PLANE('',#423);
#426=ORIENTED_EDGE('',*,*,#425,.T.);
#428=ORIENTED_EDGE('',*,*,#427,.T.);
#429=EDGE_LOOP('',(#426,#428));
#430=FACE_OUTER_BOUND('',#429,.F.);
#432=FILL_AREA_STYLE_COLOUR('',#22);
#433=FILL_AREA_STYLE('',(#432));
#434=SURFACE_STYLE_FILL_AREA(#433);
#435=SURFACE_SIDE_STYLE('',(#434));
#436=SURFACE_STYLE_USAGE(.BOTH.,#435);
#437=PRESENTATION_STYLE_ASSIGNMENT((#436));
#438=STYLED_ITEM('',(#437),#431);
#439=CARTESIAN_POINT('',(0.E0,0.E0,0.E0));
#440=DIRECTION('',(0.E0,0.E0,1.E0));
#441=DIRECTION('',(1.E0,0.E0,0.E0));
#442=AXIS2_PLACEMENT_3D('',#439,#440,#441);
#443=CYLINDRICAL_SURFACE('',#442,7.5E0);
#445=ORIENTED_EDGE('',*,*,#444,.T.);
#447=ORIENTED_EDGE('',*,*,#446,.F.);
#448=ORIENTED_EDGE('',*,*,#425,.F.);
#450=ORIENTED_EDGE('',*,*,#449,.T.);
#451=EDGE_LOOP('',(#445,#447,#448,#450));
#452=FACE_OUTER_BOUND('',#451,.F.);
#454=FILL_AREA_STYLE_COLOUR('',#22);
#455=FILL_AREA_STYLE('',(#454));
#456=SURFACE_STYLE_FILL_AREA(#455);
#457=SURFACE_SIDE_STYLE('',(#456));
#458=SURFACE_STYLE_USAGE(.BOTH.,#457);
#459=PRESENTATION_STYLE_ASSIGNMENT((#458));
#460=STYLED_ITEM('',(#459),#453);
#461=CARTESIAN_POINT('',(0.E0,0.E0,3.5E0));
#462=DIRECTION('',(0.E0,0.E0,1.E0));
#463=DIRECTION('',(1.E0,0.E0,0.E0));
#464=AXIS2_PLACEMENT_3D('',#461,#462,#463);
#465=PLANE('',#464);
#467=ORIENTED_EDGE('',*,*,#466,.T.);
#469=ORIENTED_EDGE('',*,*,#468,.T.);
#470=EDGE_LOOP('',(#467,#469));
#471=FACE_OUTER_BOUND('',#470,.F.);
#472=ORIENTED_EDGE('',*,*,#444,.F.);
#474=ORIENTED_EDGE('',*,*,#473,.F.);
#475=EDGE_LOOP('',(#472,#474));
#476=FACE_BOUND('',#475,.F.);
#478=FILL_AREA_STYLE_COLOUR('',#22);
#479=FILL_AREA_STYLE('',(#478));
#480=SURFACE_STYLE_FILL_AREA(#479);
#481=SURFACE_SIDE_STYLE('',(#480));
#482=SURFACE_STYLE_USAGE(.BOTH.,#481);
#483=PRESENTATION_STYLE_ASSIGNMENT((#482));
#484=STYLED_ITEM('',(#483),#477);
#485=CARTESIAN_POINT('',(0.E0,0.E0,3.5E0));
#486=DIRECTION('',(0.E0,0.E0,1.E0));
#487=DIRECTION('',(1.E0,0.E0,0.E0));
#488=AXIS2_PLACEMENT_3D('',#485,#486,#487);
#489=CYLINDRICAL_SURFACE('',#488,8.75E0);
#491=ORIENTED_EDGE('',*,*,#490,.T.);
#493=ORIENTED_EDGE('',*,*,#492,.F.);
#494=ORIENTED_EDGE('',*,*,#466,.F.);
#496=ORIENTED_EDGE('',*,*,#495,.T.);
#497=EDGE_LOOP('',(#491,#493,#494,#496));
#498=FACE_OUTER_BOUND('',#497,.F.);
#500=FILL_AREA_STYLE_COLOUR('',#22);
#501=FILL_AREA_STYLE('',(#500));
#502=SURFACE_STYLE_FILL_AREA(#501);
#503=SURFACE_SIDE_STYLE('',(#502));
#504=SURFACE_STYLE_USAGE(.BOTH.,#503);
#505=PRESENTATION_STYLE_ASSIGNMENT((#504));
#506=STYLED_ITEM('',(#505),#499);
#507=CARTESIAN_POINT('',(0.E0,0.E0,4.5E0));
#508=DIRECTION('',(0.E0,0.E0,1.E0));
#509=DIRECTION('',(1.E0,0.E0,0.E0));
#510=AXIS2_PLACEMENT_3D('',#507,#508,#509);
#511=PLANE('',#510);
#513=ORIENTED_EDGE('',*,*,#512,.T.);
#515=ORIENTED_EDGE('',*,*,#514,.T.);
#516=EDGE_LOOP('',(#513,#515));
#517=FACE_OUTER_BOUND('',#516,.F.);
#518=ORIENTED_EDGE('',*,*,#490,.F.);
#520=ORIENTED_EDGE('',*,*,#519,.F.);
#521=EDGE_LOOP('',(#518,#520));
#522=FACE_BOUND('',#521,.F.);
#524=FILL_AREA_STYLE_COLOUR('',#22);
#525=FILL_AREA_STYLE('',(#524));
#526=SURFACE_STYLE_FILL_AREA(#525);
#527=SURFACE_SIDE_STYLE('',(#526));
#528=SURFACE_STYLE_USAGE(.BOTH.,#527);
#529=PRESENTATION_STYLE_ASSIGNMENT((#528));
#530=STYLED_ITEM('',(#529),#523);
#531=CARTESIAN_POINT('',(0.E0,0.E0,4.5E0));
#532=DIRECTION('',(0.E0,0.E0,1.E0));
#533=DIRECTION('',(1.E0,0.E0,0.E0));
#534=AXIS2_PLACEMENT_3D('',#531,#532,#533);
#535=CYLINDRICAL_SURFACE('',#534,9.7E0);
#536=ORIENTED_EDGE('',*,*,#512,.F.);
#538=ORIENTED_EDGE('',*,*,#537,.T.);
#540=ORIENTED_EDGE('',*,*,#539,.T.);
#542=ORIENTED_EDGE('',*,*,#541,.F.);
#543=EDGE_LOOP('',(#536,#538,#540,#542));
#544=FACE_OUTER_BOUND('',#543,.F.);
#546=FILL_AREA_STYLE_COLOUR('',#22);
#547=FILL_AREA_STYLE('',(#546));
#548=SURFACE_STYLE_FILL_AREA(#547);
#549=SURFACE_SIDE_STYLE('',(#548));
#550=SURFACE_STYLE_USAGE(.BOTH.,#549);
#551=PRESENTATION_STYLE_ASSIGNMENT((#550));
#552=STYLED_ITEM('',(#551),#545);
#553=CARTESIAN_POINT('',(0.E0,0.E0,4.5E0));
#554=DIRECTION('',(0.E0,0.E0,1.E0));
#555=DIRECTION('',(1.E0,0.E0,0.E0));
#556=AXIS2_PLACEMENT_3D('',#553,#554,#555);
#557=CYLINDRICAL_SURFACE('',#556,9.7E0);
#558=ORIENTED_EDGE('',*,*,#514,.F.);
#559=ORIENTED_EDGE('',*,*,#541,.T.);
#561=ORIENTED_EDGE('',*,*,#560,.T.);
#562=ORIENTED_EDGE('',*,*,#537,.F.);
#563=EDGE_LOOP('',(#558,#559,#561,#562));
#564=FACE_OUTER_BOUND('',#563,.F.);
#566=FILL_AREA_STYLE_COLOUR('',#22);
#567=FILL_AREA_STYLE('',(#566));
#568=SURFACE_STYLE_FILL_AREA(#567);
#569=SURFACE_SIDE_STYLE('',(#568));
#570=SURFACE_STYLE_USAGE(.BOTH.,#569);
#571=PRESENTATION_STYLE_ASSIGNMENT((#570));
#572=STYLED_ITEM('',(#571),#565);
#573=CARTESIAN_POINT('',(0.E0,0.E0,6.E0));
#574=DIRECTION('',(0.E0,0.E0,1.E0));
#575=DIRECTION('',(1.E0,0.E0,0.E0));
#576=AXIS2_PLACEMENT_3D('',#573,#574,#575);
#577=PLANE('',#576);
#578=ORIENTED_EDGE('',*,*,#539,.F.);
#579=ORIENTED_EDGE('',*,*,#560,.F.);
#580=EDGE_LOOP('',(#578,#579));
#581=FACE_OUTER_BOUND('',#580,.F.);
#583=ORIENTED_EDGE('',*,*,#582,.T.);
#585=ORIENTED_EDGE('',*,*,#584,.T.);
#586=EDGE_LOOP('',(#583,#585));
#587=FACE_BOUND('',#586,.F.);
#589=FILL_AREA_STYLE_COLOUR('',#22);
#590=FILL_AREA_STYLE('',(#589));
#591=SURFACE_STYLE_FILL_AREA(#590);
#592=SURFACE_SIDE_STYLE('',(#591));
#593=SURFACE_STYLE_USAGE(.BOTH.,#592);
#594=PRESENTATION_STYLE_ASSIGNMENT((#593));
#595=STYLED_ITEM('',(#594),#588);
#596=CARTESIAN_POINT('',(0.E0,0.E0,6.E0));
#597=DIRECTION('',(0.E0,0.E0,1.E0));
#598=DIRECTION('',(0.E0,1.E0,0.E0));
#599=AXIS2_PLACEMENT_3D('',#596,#597,#598);
#600=CYLINDRICAL_SURFACE('',#599,8.E0);
#602=ORIENTED_EDGE('',*,*,#601,.F.);
#604=ORIENTED_EDGE('',*,*,#603,.F.);
#605=ORIENTED_EDGE('',*,*,#582,.F.);
#607=ORIENTED_EDGE('',*,*,#606,.T.);
#609=ORIENTED_EDGE('',*,*,#608,.F.);
#611=ORIENTED_EDGE('',*,*,#610,.F.);
#613=ORIENTED_EDGE('',*,*,#612,.T.);
#615=ORIENTED_EDGE('',*,*,#614,.T.);
#616=EDGE_LOOP('',(#602,#604,#605,#607,#609,#611,#613,#615));
#617=FACE_OUTER_BOUND('',#616,.F.);
#619=FILL_AREA_STYLE_COLOUR('',#22);
#620=FILL_AREA_STYLE('',(#619));
#621=SURFACE_STYLE_FILL_AREA(#620);
#622=SURFACE_SIDE_STYLE('',(#621));
#623=SURFACE_STYLE_USAGE(.BOTH.,#622);
#624=PRESENTATION_STYLE_ASSIGNMENT((#623));
#625=STYLED_ITEM('',(#624),#618);
#626=CARTESIAN_POINT('',(-1.E1,0.E0,1.789015165046E1));
#627=DIRECTION('',(1.E0,0.E0,0.E0));
#628=DIRECTION('',(0.E0,1.E0,0.E0));
#629=AXIS2_PLACEMENT_3D('',#626,#627,#628);
#630=CYLINDRICAL_SURFACE('',#629,8.E0);
#631=ORIENTED_EDGE('',*,*,#601,.T.);
#633=ORIENTED_EDGE('',*,*,#632,.F.);
#634=ORIENTED_EDGE('',*,*,#608,.T.);
#636=ORIENTED_EDGE('',*,*,#635,.T.);
#638=ORIENTED_EDGE('',*,*,#637,.T.);
#640=ORIENTED_EDGE('',*,*,#639,.T.);
#641=EDGE_LOOP('',(#631,#633,#634,#636,#638,#640));
#642=FACE_OUTER_BOUND('',#641,.F.);
#644=FILL_AREA_STYLE_COLOUR('',#22);
#645=FILL_AREA_STYLE('',(#644));
#646=SURFACE_STYLE_FILL_AREA(#645);
#647=SURFACE_SIDE_STYLE('',(#646));
#648=SURFACE_STYLE_USAGE(.BOTH.,#647);
#649=PRESENTATION_STYLE_ASSIGNMENT((#648));
#650=STYLED_ITEM('',(#649),#643);
#651=CARTESIAN_POINT('',(-6.E0,-1.055647260667E1,2.6E1));
#652=DIRECTION('',(1.E0,0.E0,0.E0));
#653=DIRECTION('',(0.E0,1.E0,0.E0));
#654=AXIS2_PLACEMENT_3D('',#651,#652,#653);
#655=PLANE('',#654);
#656=ORIENTED_EDGE('',*,*,#632,.T.);
#657=ORIENTED_EDGE('',*,*,#614,.F.);
#659=ORIENTED_EDGE('',*,*,#658,.T.);
#660=ORIENTED_EDGE('',*,*,#610,.T.);
#661=EDGE_LOOP('',(#656,#657,#659,#660));
#662=FACE_OUTER_BOUND('',#661,.F.);
#664=ORIENTED_EDGE('',*,*,#663,.F.);
#666=ORIENTED_EDGE('',*,*,#665,.F.);
#667=EDGE_LOOP('',(#664,#666));
#668=FACE_BOUND('',#667,.F.);
#670=FILL_AREA_STYLE_COLOUR('',#22);
#671=FILL_AREA_STYLE('',(#670));
#672=SURFACE_STYLE_FILL_AREA(#671);
#673=SURFACE_SIDE_STYLE('',(#672));
#674=SURFACE_STYLE_USAGE(.BOTH.,#673);
#675=PRESENTATION_STYLE_ASSIGNMENT((#674));
#676=STYLED_ITEM('',(#675),#669);
#677=CARTESIAN_POINT('',(0.E0,0.E0,1.1E1));
#678=DIRECTION('',(0.E0,0.E0,1.E0));
#679=DIRECTION('',(0.E0,1.E0,0.E0));
#680=AXIS2_PLACEMENT_3D('',#677,#678,#679);
#681=PLANE('',#680);
#682=ORIENTED_EDGE('',*,*,#612,.F.);
#683=ORIENTED_EDGE('',*,*,#658,.F.);
#684=EDGE_LOOP('',(#682,#683));
#685=FACE_OUTER_BOUND('',#684,.F.);
#687=FILL_AREA_STYLE_COLOUR('',#22);
#688=FILL_AREA_STYLE('',(#687));
#689=SURFACE_STYLE_FILL_AREA(#688);
#690=SURFACE_SIDE_STYLE('',(#689));
#691=SURFACE_STYLE_USAGE(.BOTH.,#690);
#692=PRESENTATION_STYLE_ASSIGNMENT((#691));
#693=STYLED_ITEM('',(#692),#686);
#694=CARTESIAN_POINT('',(0.E0,0.E0,1.1E1));
#695=DIRECTION('',(0.E0,0.E0,1.E0));
#696=DIRECTION('',(0.E0,1.E0,0.E0));
#697=AXIS2_PLACEMENT_3D('',#694,#695,#696);
#698=PLANE('',#697);
#700=ORIENTED_EDGE('',*,*,#699,.F.);
#702=ORIENTED_EDGE('',*,*,#701,.F.);
#703=EDGE_LOOP('',(#700,#702));
#704=FACE_OUTER_BOUND('',#703,.F.);
#706=FILL_AREA_STYLE_COLOUR('',#22);
#707=FILL_AREA_STYLE('',(#706));
#708=SURFACE_STYLE_FILL_AREA(#707);
#709=SURFACE_SIDE_STYLE('',(#708));
#710=SURFACE_STYLE_USAGE(.POSITIVE.,#709);
#711=PRESENTATION_STYLE_ASSIGNMENT((#710));
#712=STYLED_ITEM('',(#711),#705);
#713=CARTESIAN_POINT('',(0.E0,0.E0,6.E0));
#714=DIRECTION('',(0.E0,0.E0,1.E0));
#715=DIRECTION('',(0.E0,1.E0,0.E0));
#716=AXIS2_PLACEMENT_3D('',#713,#714,#715);
#717=CYLINDRICAL_SURFACE('',#716,8.E0);
#718=ORIENTED_EDGE('',*,*,#635,.F.);
#719=ORIENTED_EDGE('',*,*,#606,.F.);
#720=ORIENTED_EDGE('',*,*,#584,.F.);
#721=ORIENTED_EDGE('',*,*,#603,.T.);
#722=ORIENTED_EDGE('',*,*,#639,.F.);
#724=ORIENTED_EDGE('',*,*,#723,.F.);
#725=ORIENTED_EDGE('',*,*,#699,.T.);
#727=ORIENTED_EDGE('',*,*,#726,.T.);
#728=EDGE_LOOP('',(#718,#719,#720,#721,#722,#724,#725,#727));
#729=FACE_OUTER_BOUND('',#728,.F.);
#731=FILL_AREA_STYLE_COLOUR('',#22);
#732=FILL_AREA_STYLE('',(#731));
#733=SURFACE_STYLE_FILL_AREA(#732);
#734=SURFACE_SIDE_STYLE('',(#733));
#735=SURFACE_STYLE_USAGE(.BOTH.,#734);
#736=PRESENTATION_STYLE_ASSIGNMENT((#735));
#737=STYLED_ITEM('',(#736),#730);
#738=CARTESIAN_POINT('',(6.E0,1.130971514313E1,2.6E1));
#739=DIRECTION('',(-1.E0,0.E0,0.E0));
#740=DIRECTION('',(0.E0,-1.E0,0.E0));
#741=AXIS2_PLACEMENT_3D('',#738,#739,#740);
#742=PLANE('',#741);
#743=ORIENTED_EDGE('',*,*,#637,.F.);
#744=ORIENTED_EDGE('',*,*,#726,.F.);
#745=ORIENTED_EDGE('',*,*,#701,.T.);
#746=ORIENTED_EDGE('',*,*,#723,.T.);
#747=EDGE_LOOP('',(#743,#744,#745,#746));
#748=FACE_OUTER_BOUND('',#747,.F.);
#750=ORIENTED_EDGE('',*,*,#749,.T.);
#752=ORIENTED_EDGE('',*,*,#751,.T.);
#753=EDGE_LOOP('',(#750,#752));
#754=FACE_BOUND('',#753,.F.);
#756=FILL_AREA_STYLE_COLOUR('',#22);
#757=FILL_AREA_STYLE('',(#756));
#758=SURFACE_STYLE_FILL_AREA(#757);
#759=SURFACE_SIDE_STYLE('',(#758));
#760=SURFACE_STYLE_USAGE(.BOTH.,#759);
#761=PRESENTATION_STYLE_ASSIGNMENT((#760));
#762=STYLED_ITEM('',(#761),#755);
#763=CARTESIAN_POINT('',(-1.E1,0.E0,1.789015165046E1));
#764=DIRECTION('',(1.E0,0.E0,0.E0));
#765=DIRECTION('',(0.E0,1.E0,0.E0));
#766=AXIS2_PLACEMENT_3D('',#763,#764,#765);
#767=CYLINDRICAL_SURFACE('',#766,4.E0);
#768=ORIENTED_EDGE('',*,*,#663,.T.);
#770=ORIENTED_EDGE('',*,*,#769,.T.);
#771=ORIENTED_EDGE('',*,*,#749,.F.);
#773=ORIENTED_EDGE('',*,*,#772,.F.);
#774=EDGE_LOOP('',(#768,#770,#771,#773));
#775=FACE_OUTER_BOUND('',#774,.F.);
#777=FILL_AREA_STYLE_COLOUR('',#22);
#778=FILL_AREA_STYLE('',(#777));
#779=SURFACE_STYLE_FILL_AREA(#778);
#780=SURFACE_SIDE_STYLE('',(#779));
#781=SURFACE_STYLE_USAGE(.BOTH.,#780);
#782=PRESENTATION_STYLE_ASSIGNMENT((#781));
#783=STYLED_ITEM('',(#782),#776);
#784=CARTESIAN_POINT('',(-1.E1,0.E0,1.789015165046E1));
#785=DIRECTION('',(1.E0,0.E0,0.E0));
#786=DIRECTION('',(0.E0,1.E0,0.E0));
#787=AXIS2_PLACEMENT_3D('',#784,#785,#786);
#788=CYLINDRICAL_SURFACE('',#787,4.E0);
#789=ORIENTED_EDGE('',*,*,#665,.T.);
#790=ORIENTED_EDGE('',*,*,#772,.T.);
#791=ORIENTED_EDGE('',*,*,#751,.F.);
#792=ORIENTED_EDGE('',*,*,#769,.F.);
#793=EDGE_LOOP('',(#789,#790,#791,#792));
#794=FACE_OUTER_BOUND('',#793,.F.);
#796=FILL_AREA_STYLE_COLOUR('',#22);
#797=FILL_AREA_STYLE('',(#796));
#798=SURFACE_STYLE_FILL_AREA(#797);
#799=SURFACE_SIDE_STYLE('',(#798));
#800=SURFACE_STYLE_USAGE(.BOTH.,#799);
#801=PRESENTATION_STYLE_ASSIGNMENT((#800));
#802=STYLED_ITEM('',(#801),#795);
#803=CARTESIAN_POINT('',(0.E0,0.E0,3.5E0));
#804=DIRECTION('',(0.E0,0.E0,1.E0));
#805=DIRECTION('',(1.E0,0.E0,0.E0));
#806=AXIS2_PLACEMENT_3D('',#803,#804,#805);
#807=CYLINDRICAL_SURFACE('',#806,8.75E0);
#808=ORIENTED_EDGE('',*,*,#519,.T.);
#809=ORIENTED_EDGE('',*,*,#495,.F.);
#810=ORIENTED_EDGE('',*,*,#468,.F.);
#811=ORIENTED_EDGE('',*,*,#492,.T.);
#812=EDGE_LOOP('',(#808,#809,#810,#811));
#813=FACE_OUTER_BOUND('',#812,.F.);
#815=FILL_AREA_STYLE_COLOUR('',#22);
#816=FILL_AREA_STYLE('',(#815));
#817=SURFACE_STYLE_FILL_AREA(#816);
#818=SURFACE_SIDE_STYLE('',(#817));
#819=SURFACE_STYLE_USAGE(.BOTH.,#818);
#820=PRESENTATION_STYLE_ASSIGNMENT((#819));
#821=STYLED_ITEM('',(#820),#814);
#822=CARTESIAN_POINT('',(0.E0,0.E0,0.E0));
#823=DIRECTION('',(0.E0,0.E0,1.E0));
#824=DIRECTION('',(1.E0,0.E0,0.E0));
#825=AXIS2_PLACEMENT_3D('',#822,#823,#824);
#826=CYLINDRICAL_SURFACE('',#825,7.5E0);
#827=ORIENTED_EDGE('',*,*,#473,.T.);
#828=ORIENTED_EDGE('',*,*,#449,.F.);
#829=ORIENTED_EDGE('',*,*,#427,.F.);
#830=ORIENTED_EDGE('',*,*,#446,.T.);
#831=EDGE_LOOP('',(#827,#828,#829,#830));
#832=FACE_OUTER_BOUND('',#831,.F.);
#834=FILL_AREA_STYLE_COLOUR('',#22);
#835=FILL_AREA_STYLE('',(#834));
#836=SURFACE_STYLE_FILL_AREA(#835);
#837=SURFACE_SIDE_STYLE('',(#836));
#838=SURFACE_STYLE_USAGE(.BOTH.,#837);
#839=PRESENTATION_STYLE_ASSIGNMENT((#838));
#840=STYLED_ITEM('',(#839),#833);
#841=CLOSED_SHELL('',(#431,#453,#477,#499,#523,#545,#565,#588,#618,#643,#669,
#686,#705,#730,#755,#776,#795,#814,#833));
#842=MANIFOLD_SOLID_BREP('',#841);
#843=FILL_AREA_STYLE_COLOUR('',#22);
#844=FILL_AREA_STYLE('',(#843));
#845=SURFACE_STYLE_FILL_AREA(#844);
#846=SURFACE_SIDE_STYLE('',(#845));
#847=SURFACE_STYLE_USAGE(.BOTH.,#846);
#848=PRESENTATION_STYLE_ASSIGNMENT((#847));
#28=STYLED_ITEM('',(#848),#842);
#851=PLANE_ANGLE_MEASURE_WITH_UNIT(PLANE_ANGLE_MEASURE(1.745329251994E-2),#850);
#852=(CONVERSION_BASED_UNIT('DEGREE',#851)NAMED_UNIT(*)PLANE_ANGLE_UNIT());
#854=UNCERTAINTY_MEASURE_WITH_UNIT(LENGTH_MEASURE(4.040074430439E-3),#849,
'distance_accuracy_value',
'Maximum model space distance between geometric entities at asserted connectivities');
#856=CARTESIAN_POINT('',(0.E0,0.E0,0.E0));
#857=DIRECTION('',(0.E0,0.E0,1.E0));
#858=DIRECTION('',(1.E0,0.E0,0.E0));
#861=MECHANICAL_DESIGN_GEOMETRIC_PRESENTATION_REPRESENTATION('',(#37,#45,#53,
#60,#68,#76,#84,#91,#99,#107,#114,#121,#129,#137,#145,#153,#166,#173,#186,#193,
#201,#208,#216,#224,#232,#239,#246,#259,#266,#279,#286,#294,#301,#309,#317,#325,
#332,#339,#347,#354,#362,#369,#438,#460,#484,#506,#530,#552,#572,#595,#625,#650,
#676,#693,#712,#737,#762,#783,#802,#821,#840,#28),#855);
#862=APPLICATION_CONTEXT('automotive_design');
#863=APPLICATION_PROTOCOL_DEFINITION('international standard',
'automotive_design',2001,#862);
#864=PRODUCT_DEFINITION_CONTEXT('part definition',#862,'design');
#865=PRODUCT_CONTEXT('',#862,'mechanical');
#866=PRODUCT('JOINT1','JOINT1','NOT SPECIFIED',(#865));
#867=PRODUCT_DEFINITION_FORMATION('4','LAST_VERSION',#866);
#875=DERIVED_UNIT_ELEMENT(#874,2.E0);
#876=DERIVED_UNIT((#875));
#877=MEASURE_REPRESENTATION_ITEM('surface area measure',AREA_MEASURE(
1.983800594810E3),#876);
#882=DERIVED_UNIT_ELEMENT(#881,3.E0);
#883=DERIVED_UNIT((#882));
#884=MEASURE_REPRESENTATION_ITEM('volume measure',VOLUME_MEASURE(
4.034313352687E3),#883);
#888=CARTESIAN_POINT('centre point',(1.357049928827E-9,-3.943241430557E-7,
1.083290502261E1));
#893=DERIVED_UNIT_ELEMENT(#892,2.E0);
#894=DERIVED_UNIT((#893));
#895=MEASURE_REPRESENTATION_ITEM('surface area measure',AREA_MEASURE(
1.983800594810E3),#894);
#900=DERIVED_UNIT_ELEMENT(#899,3.E0);
#901=DERIVED_UNIT((#900));
#902=MEASURE_REPRESENTATION_ITEM('volume measure',VOLUME_MEASURE(
4.034313352687E3),#901);
#906=CARTESIAN_POINT('centre point',(1.357049928827E-9,-3.943241430557E-7,
1.083290502261E1));
#1=DRAUGHTING_PRE_DEFINED_COLOUR('green');
#2=DRAUGHTING_PRE_DEFINED_COLOUR('green');
#3=DRAUGHTING_PRE_DEFINED_COLOUR('green');
#4=COLOUR_RGB('',1.1E-2,1.2E-2,1.E0);
#5=COLOUR_RGB('',1.1E-2,1.2E-2,1.E0);
#6=COLOUR_RGB('',4.1E-1,2.61589E-1,1.12848E-1);
#7=COLOUR_RGB('',5.04854E-1,1.5455E-2,1.5455E-2);
#8=COLOUR_RGB('',6.35294E-1,6.86275E-1,7.4902E-1);
#9=COLOUR_RGB('',6.40777E-1,6.40777E-1,6.40777E-1);
#10=COLOUR_RGB('',6.66667E-1,6.66667E-1,6.66667E-1);
#11=COLOUR_RGB('',6.69062E-1,6.69903E-1,6.55217E-1);
#12=COLOUR_RGB('',7.45098E-1,3.92157E-1,2.94118E-1);
#13=COLOUR_RGB('',8.03922E-1,5.88235E-1,1.96078E-1);
#14=COLOUR_RGB('',9.21569E-1,7.05882E-1,4.70588E-1);
#15=DRAUGHTING_PRE_DEFINED_COLOUR('red');
#16=DRAUGHTING_PRE_DEFINED_COLOUR('red');
#17=DRAUGHTING_PRE_DEFINED_COLOUR('red');
#18=DRAUGHTING_PRE_DEFINED_COLOUR('red');
#19=DRAUGHTING_PRE_DEFINED_COLOUR('red');
#20=DRAUGHTING_PRE_DEFINED_COLOUR('red');
#21=DRAUGHTING_PRE_DEFINED_COLOUR('red');
#22=DRAUGHTING_PRE_DEFINED_COLOUR('yellow');
#23=DRAUGHTING_PRE_DEFINED_COLOUR('yellow');
#24=COLOUR_RGB('',1.E0,1.E0,5.3E-1);
#25=COLOUR_RGB('',1.E0,1.E0,9.49E-1);
#26=COLOUR_RGB('',1.E0,1.E0,9.49E-1);
#27=DRAUGHTING_PRE_DEFINED_COLOUR('white');
#33=CIRCLE('',#32,7.5E0);
#42=CIRCLE('',#41,7.5E0);
#50=CIRCLE('',#49,7.5E0);
#65=CIRCLE('',#64,8.75E0);
#73=CIRCLE('',#72,8.75E0);
#81=CIRCLE('',#80,8.75E0);
#96=CIRCLE('',#95,9.7E0);
#104=CIRCLE('',#103,9.7E0);
#126=CIRCLE('',#125,9.7E0);
#134=CIRCLE('',#133,9.7E0);
#142=CIRCLE('',#141,8.E0);
#150=CIRCLE('',#149,8.E0);
#163=B_SPLINE_CURVE_WITH_KNOTS('',3,(#154,#155,#156,#157,#158,#159,#160,#161,
#162),.UNSPECIFIED.,.F.,.F.,(4,1,1,1,1,1,4),(0.E0,1.666666666667E-1,
3.333333333333E-1,5.E-1,6.666666666667E-1,8.333333333333E-1,1.E0),
.UNSPECIFIED.);
#183=B_SPLINE_CURVE_WITH_KNOTS('',3,(#174,#175,#176,#177,#178,#179,#180,#181,
#182),.UNSPECIFIED.,.F.,.F.,(4,1,1,1,1,1,4),(0.E0,1.666666666667E-1,
3.333333333333E-1,5.E-1,6.666666666667E-1,8.333333333333E-1,1.E0),
.UNSPECIFIED.);
#198=CIRCLE('',#197,8.E0);
#213=CIRCLE('',#212,8.E0);
#221=CIRCLE('',#220,4.E0);
#229=CIRCLE('',#228,4.E0);
#256=B_SPLINE_CURVE_WITH_KNOTS('',3,(#247,#248,#249,#250,#251,#252,#253,#254,
#255),.UNSPECIFIED.,.F.,.F.,(4,1,1,1,1,1,4),(0.E0,1.666666666667E-1,
3.333333333333E-1,5.E-1,6.666666666667E-1,8.333333333333E-1,1.E0),
.UNSPECIFIED.);
#276=B_SPLINE_CURVE_WITH_KNOTS('',3,(#267,#268,#269,#270,#271,#272,#273,#274,
#275),.UNSPECIFIED.,.F.,.F.,(4,1,1,1,1,1,4),(0.E0,1.666666666667E-1,
3.333333333333E-1,5.E-1,6.666666666667E-1,8.333333333333E-1,1.E0),
.UNSPECIFIED.);
#291=CIRCLE('',#290,8.E0);
#306=CIRCLE('',#305,8.E0);
#314=CIRCLE('',#313,4.E0);
#322=CIRCLE('',#321,4.E0);
#344=CIRCLE('',#343,8.75E0);
#359=CIRCLE('',#358,7.5E0);
#425=EDGE_CURVE('',#372,#373,#33,.T.);
#427=EDGE_CURVE('',#373,#372,#42,.T.);
#431=ADVANCED_FACE('',(#430),#424,.F.);
#444=EDGE_CURVE('',#380,#381,#50,.T.);
#446=EDGE_CURVE('',#373,#381,#366,.T.);
#449=EDGE_CURVE('',#372,#380,#57,.T.);
#453=ADVANCED_FACE('',(#452),#443,.T.);
#466=EDGE_CURVE('',#376,#377,#65,.T.);
#468=EDGE_CURVE('',#377,#376,#73,.T.);
#473=EDGE_CURVE('',#381,#380,#359,.T.);
#477=ADVANCED_FACE('',(#471,#476),#465,.F.);
#490=EDGE_CURVE('',#392,#393,#81,.T.);
#492=EDGE_CURVE('',#377,#393,#351,.T.);
#495=EDGE_CURVE('',#376,#392,#88,.T.);
#499=ADVANCED_FACE('',(#498),#489,.T.);
#512=EDGE_CURVE('',#384,#385,#96,.T.);
#514=EDGE_CURVE('',#385,#384,#104,.T.);
#519=EDGE_CURVE('',#393,#392,#344,.T.);
#523=ADVANCED_FACE('',(#517,#522),#511,.F.);
#537=EDGE_CURVE('',#384,#388,#111,.T.);
#539=EDGE_CURVE('',#388,#389,#126,.T.);
#541=EDGE_CURVE('',#385,#389,#118,.T.);
#545=ADVANCED_FACE('',(#544),#535,.T.);
#560=EDGE_CURVE('',#389,#388,#134,.T.);
#565=ADVANCED_FACE('',(#564),#557,.T.);
#582=EDGE_CURVE('',#396,#397,#142,.T.);
#584=EDGE_CURVE('',#397,#396,#150,.T.);
#588=ADVANCED_FACE('',(#581,#587),#577,.T.);
#601=EDGE_CURVE('',#406,#407,#163,.T.);
#603=EDGE_CURVE('',#397,#406,#263,.T.);
#606=EDGE_CURVE('',#396,#409,#170,.T.);
#608=EDGE_CURVE('',#408,#409,#183,.T.);
#610=EDGE_CURVE('',#400,#408,#190,.T.);
#612=EDGE_CURVE('',#400,#401,#198,.T.);
#614=EDGE_CURVE('',#401,#407,#205,.T.);
#618=ADVANCED_FACE('',(#617),#600,.T.);
#632=EDGE_CURVE('',#408,#407,#213,.T.);
#635=EDGE_CURVE('',#409,#410,#256,.T.);
#637=EDGE_CURVE('',#410,#411,#306,.T.);
#639=EDGE_CURVE('',#411,#406,#276,.T.);
#643=ADVANCED_FACE('',(#642),#630,.T.);
#658=EDGE_CURVE('',#401,#400,#236,.T.);
#663=EDGE_CURVE('',#414,#415,#221,.T.);
#665=EDGE_CURVE('',#415,#414,#229,.T.);
#669=ADVANCED_FACE('',(#662,#668),#655,.F.);
#686=ADVANCED_FACE('',(#685),#681,.T.);
#699=EDGE_CURVE('',#404,#405,#291,.T.);
#701=EDGE_CURVE('',#405,#404,#243,.T.);
#705=ADVANCED_FACE('',(#704),#698,.T.);
#723=EDGE_CURVE('',#404,#411,#283,.T.);
#726=EDGE_CURVE('',#405,#410,#298,.T.);
#730=ADVANCED_FACE('',(#729),#717,.T.);
#749=EDGE_CURVE('',#418,#419,#314,.T.);
#751=EDGE_CURVE('',#419,#418,#322,.T.);
#755=ADVANCED_FACE('',(#748,#754),#742,.F.);
#769=EDGE_CURVE('',#415,#419,#336,.T.);
#772=EDGE_CURVE('',#414,#418,#329,.T.);
#776=ADVANCED_FACE('',(#775),#767,.F.);
#795=ADVANCED_FACE('',(#794),#788,.F.);
#814=ADVANCED_FACE('',(#813),#807,.T.);
#833=ADVANCED_FACE('',(#832),#826,.T.);
#849=(LENGTH_UNIT()NAMED_UNIT(*)SI_UNIT(.MILLI.,.METRE.));
#850=(NAMED_UNIT(*)PLANE_ANGLE_UNIT()SI_UNIT($,.RADIAN.));
#853=(NAMED_UNIT(*)SI_UNIT($,.STERADIAN.)SOLID_ANGLE_UNIT());
#855=(GEOMETRIC_REPRESENTATION_CONTEXT(3)GLOBAL_UNCERTAINTY_ASSIGNED_CONTEXT((
#854))GLOBAL_UNIT_ASSIGNED_CONTEXT((#849,#852,#853))REPRESENTATION_CONTEXT
('ID1','external'));
#859=AXIS2_PLACEMENT_3D('',#856,#857,#858);
#860=ADVANCED_BREP_SHAPE_REPRESENTATION('',(#859,#842),#855);
#868=PRODUCT_DEFINITION('part definition','',#867,#864);
#869=PRODUCT_DEFINITION_SHAPE('','SHAPE FOR JOINT1.',#868);
#870=SHAPE_ASPECT('','solid data associated with JOINT1',#869,.F.);
#871=PROPERTY_DEFINITION('',
'shape for solid data with which properties are associated',#870);
#872=SHAPE_REPRESENTATION('',(#842),#855);
#873=SHAPE_DEFINITION_REPRESENTATION(#871,#872);
#874=(LENGTH_UNIT()NAMED_UNIT(*)SI_UNIT(.MILLI.,.METRE.));
#878=PROPERTY_DEFINITION('geometric validation property','area of JOINT1',#870);
#879=REPRESENTATION('surface area',(#877),#855);
#880=PROPERTY_DEFINITION_REPRESENTATION(#878,#879);
#881=(LENGTH_UNIT()NAMED_UNIT(*)SI_UNIT(.MILLI.,.METRE.));
#885=PROPERTY_DEFINITION('geometric validation property','volume of JOINT1',
#870);
#886=REPRESENTATION('volume',(#884),#855);
#887=PROPERTY_DEFINITION_REPRESENTATION(#885,#886);
#889=PROPERTY_DEFINITION('geometric validation property','centroid of JOINT1',
#870);
#890=REPRESENTATION('centroid',(#888),#855);
#891=PROPERTY_DEFINITION_REPRESENTATION(#889,#890);
#892=(LENGTH_UNIT()NAMED_UNIT(*)SI_UNIT(.MILLI.,.METRE.));
#896=PROPERTY_DEFINITION('geometric validation property','area of JOINT1',#869);
#897=REPRESENTATION('surface area',(#895),#855);
#898=PROPERTY_DEFINITION_REPRESENTATION(#896,#897);
#899=(LENGTH_UNIT()NAMED_UNIT(*)SI_UNIT(.MILLI.,.METRE.));
#903=PROPERTY_DEFINITION('geometric validation property','volume of JOINT1',
#869);
#904=REPRESENTATION('volume',(#902),#855);
#905=PROPERTY_DEFINITION_REPRESENTATION(#903,#904);
#907=PROPERTY_DEFINITION('geometric validation property','centroid of JOINT1',
#869);
#908=REPRESENTATION('centroid',(#906),#855);
#909=PROPERTY_DEFINITION_REPRESENTATION(#907,#908);
#910=SHAPE_DEFINITION_REPRESENTATION(#869,#860);
#911=PRODUCT_RELATED_PRODUCT_CATEGORY('part','',(#866));
ENDSEC;
END-ISO-10303-21;
