ISO-10303-21;
HEADER;
FILE_DESCRIPTION((''),'2;1');
FILE_NAME('PTFERING1','2026-08-09T09:56:41',('gram2'),(''),
'CREO PARAMETRIC BY PTC INC, 2016510','CREO PARAMETRIC BY PTC INC, 2016510','');
FILE_SCHEMA(('AUTOMOTIVE_DESIGN { 1 0 10303 214 1 1 1 1 }'));
ENDSEC;
DATA;
#29=CARTESIAN_POINT('',(0.E0,0.E0,0.E0));
#30=DIRECTION('',(0.E0,0.E0,1.E0));
#31=DIRECTION('',(1.E0,0.E0,0.E0));
#32=AXIS2_PLACEMENT_3D('',#29,#30,#31);
#34=DRAUGHTING_PRE_DEFINED_CURVE_FONT('continuous');
#35=CURVE_STYLE('',#34,POSITIVE_LENGTH_MEASURE(2.E-2),#8);
#36=PRESENTATION_STYLE_ASSIGNMENT((#35));
#37=STYLED_ITEM('',(#36),#33);
#38=CARTESIAN_POINT('',(0.E0,0.E0,0.E0));
#39=DIRECTION('',(0.E0,0.E0,1.E0));
#40=DIRECTION('',(-1.E0,0.E0,0.E0));
#41=AXIS2_PLACEMENT_3D('',#38,#39,#40);
#43=CURVE_STYLE('',#34,POSITIVE_LENGTH_MEASURE(2.E-2),#8);
#44=PRESENTATION_STYLE_ASSIGNMENT((#43));
#45=STYLED_ITEM('',(#44),#42);
#46=CARTESIAN_POINT('',(0.E0,0.E0,0.E0));
#47=DIRECTION('',(0.E0,0.E0,-1.E0));
#48=DIRECTION('',(-1.E0,0.E0,0.E0));
#49=AXIS2_PLACEMENT_3D('',#46,#47,#48);
#51=CURVE_STYLE('',#34,POSITIVE_LENGTH_MEASURE(2.E-2),#8);
#52=PRESENTATION_STYLE_ASSIGNMENT((#51));
#53=STYLED_ITEM('',(#52),#50);
#54=CARTESIAN_POINT('',(0.E0,0.E0,0.E0));
#55=DIRECTION('',(0.E0,0.E0,-1.E0));
#56=DIRECTION('',(1.E0,0.E0,0.E0));
#57=AXIS2_PLACEMENT_3D('',#54,#55,#56);
#59=CURVE_STYLE('',#34,POSITIVE_LENGTH_MEASURE(2.E-2),#8);
#60=PRESENTATION_STYLE_ASSIGNMENT((#59));
#61=STYLED_ITEM('',(#60),#58);
#62=DIRECTION('',(0.E0,0.E0,1.E0));
#63=VECTOR('',#62,2.E0);
#64=CARTESIAN_POINT('',(1.E1,0.E0,0.E0));
#65=LINE('',#64,#63);
#66=CURVE_STYLE('',#34,POSITIVE_LENGTH_MEASURE(2.E-2),#8);
#67=PRESENTATION_STYLE_ASSIGNMENT((#66));
#68=STYLED_ITEM('',(#67),#65);
#69=DIRECTION('',(0.E0,0.E0,1.E0));
#70=VECTOR('',#69,2.E0);
#71=CARTESIAN_POINT('',(-1.E1,0.E0,0.E0));
#72=LINE('',#71,#70);
#73=CURVE_STYLE('',#34,POSITIVE_LENGTH_MEASURE(2.E-2),#8);
#74=PRESENTATION_STYLE_ASSIGNMENT((#73));
#75=STYLED_ITEM('',(#74),#72);
#76=CARTESIAN_POINT('',(0.E0,0.E0,2.E0));
#77=DIRECTION('',(0.E0,0.E0,1.E0));
#78=DIRECTION('',(1.E0,0.E0,0.E0));
#79=AXIS2_PLACEMENT_3D('',#76,#77,#78);
#81=CURVE_STYLE('',#34,POSITIVE_LENGTH_MEASURE(2.E-2),#8);
#82=PRESENTATION_STYLE_ASSIGNMENT((#81));
#83=STYLED_ITEM('',(#82),#80);
#84=CARTESIAN_POINT('',(0.E0,0.E0,2.E0));
#85=DIRECTION('',(0.E0,0.E0,1.E0));
#86=DIRECTION('',(-1.E0,0.E0,0.E0));
#87=AXIS2_PLACEMENT_3D('',#84,#85,#86);
#89=CURVE_STYLE('',#34,POSITIVE_LENGTH_MEASURE(2.E-2),#8);
#90=PRESENTATION_STYLE_ASSIGNMENT((#89));
#91=STYLED_ITEM('',(#90),#88);
#92=CARTESIAN_POINT('',(0.E0,0.E0,2.E0));
#93=DIRECTION('',(0.E0,0.E0,1.E0));
#94=DIRECTION('',(1.E0,0.E0,0.E0));
#95=AXIS2_PLACEMENT_3D('',#92,#93,#94);
#97=CURVE_STYLE('',#34,POSITIVE_LENGTH_MEASURE(2.E-2),#8);
#98=PRESENTATION_STYLE_ASSIGNMENT((#97));
#99=STYLED_ITEM('',(#98),#96);
#100=CARTESIAN_POINT('',(0.E0,0.E0,2.E0));
#101=DIRECTION('',(0.E0,0.E0,1.E0));
#102=DIRECTION('',(-1.E0,0.E0,0.E0));
#103=AXIS2_PLACEMENT_3D('',#100,#101,#102);
#105=CURVE_STYLE('',#34,POSITIVE_LENGTH_MEASURE(2.E-2),#8);
#106=PRESENTATION_STYLE_ASSIGNMENT((#105));
#107=STYLED_ITEM('',(#106),#104);
#108=DIRECTION('',(0.E0,0.E0,1.E0));
#109=VECTOR('',#108,6.E0);
#110=CARTESIAN_POINT('',(6.9E0,0.E0,2.E0));
#111=LINE('',#110,#109);
#112=CURVE_STYLE('',#34,POSITIVE_LENGTH_MEASURE(2.E-2),#8);
#113=PRESENTATION_STYLE_ASSIGNMENT((#112));
#114=STYLED_ITEM('',(#113),#111);
#115=DIRECTION('',(0.E0,0.E0,1.E0));
#116=VECTOR('',#115,6.E0);
#117=CARTESIAN_POINT('',(-6.9E0,0.E0,2.E0));
#118=LINE('',#117,#116);
#119=CURVE_STYLE('',#34,POSITIVE_LENGTH_MEASURE(2.E-2),#8);
#120=PRESENTATION_STYLE_ASSIGNMENT((#119));
#121=STYLED_ITEM('',(#120),#118);
#122=CARTESIAN_POINT('',(0.E0,0.E0,8.E0));
#123=DIRECTION('',(0.E0,0.E0,1.E0));
#124=DIRECTION('',(1.E0,0.E0,0.E0));
#125=AXIS2_PLACEMENT_3D('',#122,#123,#124);
#127=CURVE_STYLE('',#34,POSITIVE_LENGTH_MEASURE(2.E-2),#8);
#128=PRESENTATION_STYLE_ASSIGNMENT((#127));
#129=STYLED_ITEM('',(#128),#126);
#130=CARTESIAN_POINT('',(0.E0,0.E0,8.E0));
#131=DIRECTION('',(0.E0,0.E0,1.E0));
#132=DIRECTION('',(-1.E0,0.E0,0.E0));
#133=AXIS2_PLACEMENT_3D('',#130,#131,#132);
#135=CURVE_STYLE('',#34,POSITIVE_LENGTH_MEASURE(2.E-2),#8);
#136=PRESENTATION_STYLE_ASSIGNMENT((#135));
#137=STYLED_ITEM('',(#136),#134);
#138=CARTESIAN_POINT('',(0.E0,0.E0,8.E0));
#139=DIRECTION('',(0.E0,0.E0,-1.E0));
#140=DIRECTION('',(-1.E0,0.E0,0.E0));
#141=AXIS2_PLACEMENT_3D('',#138,#139,#140);
#143=CURVE_STYLE('',#34,POSITIVE_LENGTH_MEASURE(2.E-2),#8);
#144=PRESENTATION_STYLE_ASSIGNMENT((#143));
#145=STYLED_ITEM('',(#144),#142);
#146=CARTESIAN_POINT('',(0.E0,0.E0,8.E0));
#147=DIRECTION('',(0.E0,0.E0,-1.E0));
#148=DIRECTION('',(1.E0,0.E0,0.E0));
#149=AXIS2_PLACEMENT_3D('',#146,#147,#148);
#151=CURVE_STYLE('',#34,POSITIVE_LENGTH_MEASURE(2.E-2),#8);
#152=PRESENTATION_STYLE_ASSIGNMENT((#151));
#153=STYLED_ITEM('',(#152),#150);
#154=DIRECTION('',(0.E0,0.E0,1.E0));
#155=VECTOR('',#154,8.E0);
#156=CARTESIAN_POINT('',(-6.05E0,0.E0,0.E0));
#157=LINE('',#156,#155);
#158=CURVE_STYLE('',#34,POSITIVE_LENGTH_MEASURE(2.E-2),#8);
#159=PRESENTATION_STYLE_ASSIGNMENT((#158));
#160=STYLED_ITEM('',(#159),#157);
#161=DIRECTION('',(0.E0,0.E0,1.E0));
#162=VECTOR('',#161,8.E0);
#163=CARTESIAN_POINT('',(6.05E0,0.E0,0.E0));
#164=LINE('',#163,#162);
#165=CURVE_STYLE('',#34,POSITIVE_LENGTH_MEASURE(2.E-2),#8);
#166=PRESENTATION_STYLE_ASSIGNMENT((#165));
#167=STYLED_ITEM('',(#166),#164);
#168=CARTESIAN_POINT('',(1.E1,0.E0,0.E0));
#169=CARTESIAN_POINT('',(-1.E1,0.E0,0.E0));
#170=VERTEX_POINT('',#168);
#171=VERTEX_POINT('',#169);
#172=CARTESIAN_POINT('',(1.E1,0.E0,2.E0));
#173=CARTESIAN_POINT('',(-1.E1,0.E0,2.E0));
#174=VERTEX_POINT('',#172);
#175=VERTEX_POINT('',#173);
#176=CARTESIAN_POINT('',(6.9E0,0.E0,8.E0));
#177=CARTESIAN_POINT('',(-6.9E0,0.E0,8.E0));
#178=VERTEX_POINT('',#176);
#179=VERTEX_POINT('',#177);
#180=CARTESIAN_POINT('',(6.9E0,0.E0,2.E0));
#181=CARTESIAN_POINT('',(-6.9E0,0.E0,2.E0));
#182=VERTEX_POINT('',#180);
#183=VERTEX_POINT('',#181);
#184=CARTESIAN_POINT('',(-6.05E0,0.E0,0.E0));
#185=CARTESIAN_POINT('',(6.05E0,0.E0,0.E0));
#186=VERTEX_POINT('',#184);
#187=VERTEX_POINT('',#185);
#188=CARTESIAN_POINT('',(-6.05E0,0.E0,8.E0));
#189=CARTESIAN_POINT('',(6.05E0,0.E0,8.E0));
#190=VERTEX_POINT('',#188);
#191=VERTEX_POINT('',#189);
#192=CARTESIAN_POINT('',(0.E0,0.E0,0.E0));
#193=DIRECTION('',(0.E0,0.E0,1.E0));
#194=DIRECTION('',(1.E0,0.E0,0.E0));
#195=AXIS2_PLACEMENT_3D('',#192,#193,#194);
#196=PLANE('',#195);
#198=ORIENTED_EDGE('',*,*,#197,.T.);
#200=ORIENTED_EDGE('',*,*,#199,.T.);
#201=EDGE_LOOP('',(#198,#200));
#202=FACE_OUTER_BOUND('',#201,.F.);
#204=ORIENTED_EDGE('',*,*,#203,.T.);
#206=ORIENTED_EDGE('',*,*,#205,.T.);
#207=EDGE_LOOP('',(#204,#206));
#208=FACE_BOUND('',#207,.F.);
#210=FILL_AREA_STYLE_COLOUR('',#8);
#211=FILL_AREA_STYLE('',(#210));
#212=SURFACE_STYLE_FILL_AREA(#211);
#213=SURFACE_SIDE_STYLE('',(#212));
#214=SURFACE_STYLE_USAGE(.BOTH.,#213);
#215=PRESENTATION_STYLE_ASSIGNMENT((#214));
#216=STYLED_ITEM('',(#215),#209);
#217=CARTESIAN_POINT('',(0.E0,0.E0,0.E0));
#218=DIRECTION('',(0.E0,0.E0,1.E0));
#219=DIRECTION('',(1.E0,0.E0,0.E0));
#220=AXIS2_PLACEMENT_3D('',#217,#218,#219);
#221=CYLINDRICAL_SURFACE('',#220,1.E1);
#222=ORIENTED_EDGE('',*,*,#197,.F.);
#224=ORIENTED_EDGE('',*,*,#223,.T.);
#226=ORIENTED_EDGE('',*,*,#225,.T.);
#228=ORIENTED_EDGE('',*,*,#227,.F.);
#229=EDGE_LOOP('',(#222,#224,#226,#228));
#230=FACE_OUTER_BOUND('',#229,.F.);
#232=FILL_AREA_STYLE_COLOUR('',#8);
#233=FILL_AREA_STYLE('',(#232));
#234=SURFACE_STYLE_FILL_AREA(#233);
#235=SURFACE_SIDE_STYLE('',(#234));
#236=SURFACE_STYLE_USAGE(.BOTH.,#235);
#237=PRESENTATION_STYLE_ASSIGNMENT((#236));
#238=STYLED_ITEM('',(#237),#231);
#239=CARTESIAN_POINT('',(0.E0,0.E0,0.E0));
#240=DIRECTION('',(0.E0,0.E0,1.E0));
#241=DIRECTION('',(1.E0,0.E0,0.E0));
#242=AXIS2_PLACEMENT_3D('',#239,#240,#241);
#243=CYLINDRICAL_SURFACE('',#242,1.E1);
#244=ORIENTED_EDGE('',*,*,#199,.F.);
#245=ORIENTED_EDGE('',*,*,#227,.T.);
#247=ORIENTED_EDGE('',*,*,#246,.T.);
#248=ORIENTED_EDGE('',*,*,#223,.F.);
#249=EDGE_LOOP('',(#244,#245,#247,#248));
#250=FACE_OUTER_BOUND('',#249,.F.);
#252=FILL_AREA_STYLE_COLOUR('',#8);
#253=FILL_AREA_STYLE('',(#252));
#254=SURFACE_STYLE_FILL_AREA(#253);
#255=SURFACE_SIDE_STYLE('',(#254));
#256=SURFACE_STYLE_USAGE(.BOTH.,#255);
#257=PRESENTATION_STYLE_ASSIGNMENT((#256));
#258=STYLED_ITEM('',(#257),#251);
#259=CARTESIAN_POINT('',(0.E0,0.E0,2.E0));
#260=DIRECTION('',(0.E0,0.E0,1.E0));
#261=DIRECTION('',(1.E0,0.E0,0.E0));
#262=AXIS2_PLACEMENT_3D('',#259,#260,#261);
#263=PLANE('',#262);
#264=ORIENTED_EDGE('',*,*,#225,.F.);
#265=ORIENTED_EDGE('',*,*,#246,.F.);
#266=EDGE_LOOP('',(#264,#265));
#267=FACE_OUTER_BOUND('',#266,.F.);
#269=ORIENTED_EDGE('',*,*,#268,.T.);
#271=ORIENTED_EDGE('',*,*,#270,.T.);
#272=EDGE_LOOP('',(#269,#271));
#273=FACE_BOUND('',#272,.F.);
#275=FILL_AREA_STYLE_COLOUR('',#8);
#276=FILL_AREA_STYLE('',(#275));
#277=SURFACE_STYLE_FILL_AREA(#276);
#278=SURFACE_SIDE_STYLE('',(#277));
#279=SURFACE_STYLE_USAGE(.BOTH.,#278);
#280=PRESENTATION_STYLE_ASSIGNMENT((#279));
#281=STYLED_ITEM('',(#280),#274);
#282=CARTESIAN_POINT('',(0.E0,0.E0,2.E0));
#283=DIRECTION('',(0.E0,0.E0,1.E0));
#284=DIRECTION('',(1.E0,0.E0,0.E0));
#285=AXIS2_PLACEMENT_3D('',#282,#283,#284);
#286=CYLINDRICAL_SURFACE('',#285,6.9E0);
#287=ORIENTED_EDGE('',*,*,#268,.F.);
#289=ORIENTED_EDGE('',*,*,#288,.T.);
#291=ORIENTED_EDGE('',*,*,#290,.T.);
#293=ORIENTED_EDGE('',*,*,#292,.F.);
#294=EDGE_LOOP('',(#287,#289,#291,#293));
#295=FACE_OUTER_BOUND('',#294,.F.);
#297=FILL_AREA_STYLE_COLOUR('',#8);
#298=FILL_AREA_STYLE('',(#297));
#299=SURFACE_STYLE_FILL_AREA(#298);
#300=SURFACE_SIDE_STYLE('',(#299));
#301=SURFACE_STYLE_USAGE(.BOTH.,#300);
#302=PRESENTATION_STYLE_ASSIGNMENT((#301));
#303=STYLED_ITEM('',(#302),#296);
#304=CARTESIAN_POINT('',(0.E0,0.E0,2.E0));
#305=DIRECTION('',(0.E0,0.E0,1.E0));
#306=DIRECTION('',(1.E0,0.E0,0.E0));
#307=AXIS2_PLACEMENT_3D('',#304,#305,#306);
#308=CYLINDRICAL_SURFACE('',#307,6.9E0);
#309=ORIENTED_EDGE('',*,*,#270,.F.);
#310=ORIENTED_EDGE('',*,*,#292,.T.);
#312=ORIENTED_EDGE('',*,*,#311,.T.);
#313=ORIENTED_EDGE('',*,*,#288,.F.);
#314=EDGE_LOOP('',(#309,#310,#312,#313));
#315=FACE_OUTER_BOUND('',#314,.F.);
#317=FILL_AREA_STYLE_COLOUR('',#8);
#318=FILL_AREA_STYLE('',(#317));
#319=SURFACE_STYLE_FILL_AREA(#318);
#320=SURFACE_SIDE_STYLE('',(#319));
#321=SURFACE_STYLE_USAGE(.BOTH.,#320);
#322=PRESENTATION_STYLE_ASSIGNMENT((#321));
#323=STYLED_ITEM('',(#322),#316);
#324=CARTESIAN_POINT('',(0.E0,0.E0,8.E0));
#325=DIRECTION('',(0.E0,0.E0,1.E0));
#326=DIRECTION('',(1.E0,0.E0,0.E0));
#327=AXIS2_PLACEMENT_3D('',#324,#325,#326);
#328=PLANE('',#327);
#329=ORIENTED_EDGE('',*,*,#290,.F.);
#330=ORIENTED_EDGE('',*,*,#311,.F.);
#331=EDGE_LOOP('',(#329,#330));
#332=FACE_OUTER_BOUND('',#331,.F.);
#334=ORIENTED_EDGE('',*,*,#333,.F.);
#336=ORIENTED_EDGE('',*,*,#335,.F.);
#337=EDGE_LOOP('',(#334,#336));
#338=FACE_BOUND('',#337,.F.);
#340=FILL_AREA_STYLE_COLOUR('',#8);
#341=FILL_AREA_STYLE('',(#340));
#342=SURFACE_STYLE_FILL_AREA(#341);
#343=SURFACE_SIDE_STYLE('',(#342));
#344=SURFACE_STYLE_USAGE(.BOTH.,#343);
#345=PRESENTATION_STYLE_ASSIGNMENT((#344));
#346=STYLED_ITEM('',(#345),#339);
#347=CARTESIAN_POINT('',(0.E0,0.E0,0.E0));
#348=DIRECTION('',(0.E0,0.E0,-1.E0));
#349=DIRECTION('',(-1.E0,0.E0,0.E0));
#350=AXIS2_PLACEMENT_3D('',#347,#348,#349);
#351=CYLINDRICAL_SURFACE('',#350,6.05E0);
#352=ORIENTED_EDGE('',*,*,#203,.F.);
#354=ORIENTED_EDGE('',*,*,#353,.T.);
#355=ORIENTED_EDGE('',*,*,#333,.T.);
#357=ORIENTED_EDGE('',*,*,#356,.F.);
#358=EDGE_LOOP('',(#352,#354,#355,#357));
#359=FACE_OUTER_BOUND('',#358,.F.);
#361=FILL_AREA_STYLE_COLOUR('',#8);
#362=FILL_AREA_STYLE('',(#361));
#363=SURFACE_STYLE_FILL_AREA(#362);
#364=SURFACE_SIDE_STYLE('',(#363));
#365=SURFACE_STYLE_USAGE(.BOTH.,#364);
#366=PRESENTATION_STYLE_ASSIGNMENT((#365));
#367=STYLED_ITEM('',(#366),#360);
#368=CARTESIAN_POINT('',(0.E0,0.E0,0.E0));
#369=DIRECTION('',(0.E0,0.E0,-1.E0));
#370=DIRECTION('',(-1.E0,0.E0,0.E0));
#371=AXIS2_PLACEMENT_3D('',#368,#369,#370);
#372=CYLINDRICAL_SURFACE('',#371,6.05E0);
#373=ORIENTED_EDGE('',*,*,#205,.F.);
#374=ORIENTED_EDGE('',*,*,#356,.T.);
#375=ORIENTED_EDGE('',*,*,#335,.T.);
#376=ORIENTED_EDGE('',*,*,#353,.F.);
#377=EDGE_LOOP('',(#373,#374,#375,#376));
#378=FACE_OUTER_BOUND('',#377,.F.);
#380=FILL_AREA_STYLE_COLOUR('',#8);
#381=FILL_AREA_STYLE('',(#380));
#382=SURFACE_STYLE_FILL_AREA(#381);
#383=SURFACE_SIDE_STYLE('',(#382));
#384=SURFACE_STYLE_USAGE(.BOTH.,#383);
#385=PRESENTATION_STYLE_ASSIGNMENT((#384));
#386=STYLED_ITEM('',(#385),#379);
#387=CLOSED_SHELL('',(#209,#231,#251,#274,#296,#316,#339,#360,#379));
#388=MANIFOLD_SOLID_BREP('',#387);
#389=FILL_AREA_STYLE_COLOUR('',#8);
#390=FILL_AREA_STYLE('',(#389));
#391=SURFACE_STYLE_FILL_AREA(#390);
#392=SURFACE_SIDE_STYLE('',(#391));
#393=SURFACE_STYLE_USAGE(.BOTH.,#392);
#394=PRESENTATION_STYLE_ASSIGNMENT((#393));
#28=STYLED_ITEM('',(#394),#388);
#397=PLANE_ANGLE_MEASURE_WITH_UNIT(PLANE_ANGLE_MEASURE(1.745329251994E-2),#396);
#398=(CONVERSION_BASED_UNIT('DEGREE',#397)NAMED_UNIT(*)PLANE_ANGLE_UNIT());
#400=UNCERTAINTY_MEASURE_WITH_UNIT(LENGTH_MEASURE(2.940391135189E-3),#395,
'distance_accuracy_value',
'Maximum model space distance between geometric entities at asserted connectivities');
#402=CARTESIAN_POINT('',(0.E0,0.E0,0.E0));
#403=DIRECTION('',(0.E0,0.E0,1.E0));
#404=DIRECTION('',(1.E0,0.E0,0.E0));
#407=MECHANICAL_DESIGN_GEOMETRIC_PRESENTATION_REPRESENTATION('',(#37,#45,#53,
#61,#68,#75,#83,#91,#99,#107,#114,#121,#129,#137,#145,#153,#160,#167,#216,#238,
#258,#281,#303,#323,#346,#367,#386,#28),#401);
#408=APPLICATION_CONTEXT('automotive_design');
#409=APPLICATION_PROTOCOL_DEFINITION('international standard',
'automotive_design',2001,#408);
#410=PRODUCT_DEFINITION_CONTEXT('part definition',#408,'design');
#411=PRODUCT_CONTEXT('',#408,'mechanical');
#412=PRODUCT('PTFERING1','PTFERING1','NOT SPECIFIED',(#411));
#413=PRODUCT_DEFINITION_FORMATION('1','LAST_VERSION',#412);
#421=DERIVED_UNIT_ELEMENT(#420,2.E0);
#422=DERIVED_UNIT((#421));
#423=MEASURE_REPRESENTATION_ITEM('surface area measure',AREA_MEASURE(
1.088231987240E3),#422);
#428=DERIVED_UNIT_ELEMENT(#427,3.E0);
#429=DERIVED_UNIT((#428));
#430=MEASURE_REPRESENTATION_ITEM('volume measure',VOLUME_MEASURE(
6.058247273183E2),#429);
#434=CARTESIAN_POINT('centre point',(0.E0,0.E0,2.369943995022E0));
#439=DERIVED_UNIT_ELEMENT(#438,2.E0);
#440=DERIVED_UNIT((#439));
#441=MEASURE_REPRESENTATION_ITEM('surface area measure',AREA_MEASURE(
1.088231987240E3),#440);
#446=DERIVED_UNIT_ELEMENT(#445,3.E0);
#447=DERIVED_UNIT((#446));
#448=MEASURE_REPRESENTATION_ITEM('volume measure',VOLUME_MEASURE(
6.058247273183E2),#447);
#452=CARTESIAN_POINT('centre point',(0.E0,0.E0,2.369943995022E0));
#1=DRAUGHTING_PRE_DEFINED_COLOUR('green');
#2=DRAUGHTING_PRE_DEFINED_COLOUR('green');
#3=DRAUGHTING_PRE_DEFINED_COLOUR('green');
#4=COLOUR_RGB('',1.1E-2,1.2E-2,1.E0);
#5=COLOUR_RGB('',1.1E-2,1.2E-2,1.E0);
#6=COLOUR_RGB('',4.1E-1,2.61589E-1,1.12848E-1);
#7=COLOUR_RGB('',5.04854E-1,1.5455E-2,1.5455E-2);
#8=COLOUR_RGB('',6.35294E-1,6.86275E-1,7.4902E-1);
#9=COLOUR_RGB('',6.40777E-1,6.40777E-1,6.40777E-1);
#10=COLOUR_RGB('',6.66667E-1,6.66667E-1,6.66667E-1);
#11=COLOUR_RGB('',6.69062E-1,6.69903E-1,6.55217E-1);
#12=COLOUR_RGB('',7.45098E-1,3.92157E-1,2.94118E-1);
#13=COLOUR_RGB('',8.03922E-1,5.88235E-1,1.96078E-1);
#14=COLOUR_RGB('',9.21569E-1,7.05882E-1,4.70588E-1);
#15=DRAUGHTING_PRE_DEFINED_COLOUR('red');
#16=DRAUGHTING_PRE_DEFINED_COLOUR('red');
#17=DRAUGHTING_PRE_DEFINED_COLOUR('red');
#18=DRAUGHTING_PRE_DEFINED_COLOUR('red');
#19=DRAUGHTING_PRE_DEFINED_COLOUR('red');
#20=DRAUGHTING_PRE_DEFINED_COLOUR('red');
#21=DRAUGHTING_PRE_DEFINED_COLOUR('red');
#22=DRAUGHTING_PRE_DEFINED_COLOUR('yellow');
#23=DRAUGHTING_PRE_DEFINED_COLOUR('yellow');
#24=COLOUR_RGB('',1.E0,1.E0,5.3E-1);
#25=COLOUR_RGB('',1.E0,1.E0,9.49E-1);
#26=COLOUR_RGB('',1.E0,1.E0,9.49E-1);
#27=DRAUGHTING_PRE_DEFINED_COLOUR('white');
#33=CIRCLE('',#32,1.E1);
#42=CIRCLE('',#41,1.E1);
#50=CIRCLE('',#49,6.05E0);
#58=CIRCLE('',#57,6.05E0);
#80=CIRCLE('',#79,1.E1);
#88=CIRCLE('',#87,1.E1);
#96=CIRCLE('',#95,6.9E0);
#104=CIRCLE('',#103,6.9E0);
#126=CIRCLE('',#125,6.9E0);
#134=CIRCLE('',#133,6.9E0);
#142=CIRCLE('',#141,6.05E0);
#150=CIRCLE('',#149,6.05E0);
#197=EDGE_CURVE('',#170,#171,#33,.T.);
#199=EDGE_CURVE('',#171,#170,#42,.T.);
#203=EDGE_CURVE('',#186,#187,#50,.T.);
#205=EDGE_CURVE('',#187,#186,#58,.T.);
#209=ADVANCED_FACE('',(#202,#208),#196,.F.);
#223=EDGE_CURVE('',#170,#174,#65,.T.);
#225=EDGE_CURVE('',#174,#175,#80,.T.);
#227=EDGE_CURVE('',#171,#175,#72,.T.);
#231=ADVANCED_FACE('',(#230),#221,.T.);
#246=EDGE_CURVE('',#175,#174,#88,.T.);
#251=ADVANCED_FACE('',(#250),#243,.T.);
#268=EDGE_CURVE('',#182,#183,#96,.T.);
#270=EDGE_CURVE('',#183,#182,#104,.T.);
#274=ADVANCED_FACE('',(#267,#273),#263,.T.);
#288=EDGE_CURVE('',#182,#178,#111,.T.);
#290=EDGE_CURVE('',#178,#179,#126,.T.);
#292=EDGE_CURVE('',#183,#179,#118,.T.);
#296=ADVANCED_FACE('',(#295),#286,.T.);
#311=EDGE_CURVE('',#179,#178,#134,.T.);
#316=ADVANCED_FACE('',(#315),#308,.T.);
#333=EDGE_CURVE('',#190,#191,#142,.T.);
#335=EDGE_CURVE('',#191,#190,#150,.T.);
#339=ADVANCED_FACE('',(#332,#338),#328,.T.);
#353=EDGE_CURVE('',#186,#190,#157,.T.);
#356=EDGE_CURVE('',#187,#191,#164,.T.);
#360=ADVANCED_FACE('',(#359),#351,.F.);
#379=ADVANCED_FACE('',(#378),#372,.F.);
#395=(LENGTH_UNIT()NAMED_UNIT(*)SI_UNIT(.MILLI.,.METRE.));
#396=(NAMED_UNIT(*)PLANE_ANGLE_UNIT()SI_UNIT($,.RADIAN.));
#399=(NAMED_UNIT(*)SI_UNIT($,.STERADIAN.)SOLID_ANGLE_UNIT());
#401=(GEOMETRIC_REPRESENTATION_CONTEXT(3)GLOBAL_UNCERTAINTY_ASSIGNED_CONTEXT((
#400))GLOBAL_UNIT_ASSIGNED_CONTEXT((#395,#398,#399))REPRESENTATION_CONTEXT
('ID1','external'));
#405=AXIS2_PLACEMENT_3D('',#402,#403,#404);
#406=ADVANCED_BREP_SHAPE_REPRESENTATION('',(#405,#388),#401);
#414=PRODUCT_DEFINITION('part definition','',#413,#410);
#415=PRODUCT_DEFINITION_SHAPE('','SHAPE FOR PTFERING1.',#414);
#416=SHAPE_ASPECT('','solid data associated with PTFERING1',#415,.F.);
#417=PROPERTY_DEFINITION('',
'shape for solid data with which properties are associated',#416);
#418=SHAPE_REPRESENTATION('',(#388),#401);
#419=SHAPE_DEFINITION_REPRESENTATION(#417,#418);
#420=(LENGTH_UNIT()NAMED_UNIT(*)SI_UNIT(.MILLI.,.METRE.));
#424=PROPERTY_DEFINITION('geometric validation property','area of PTFERING1',
#416);
#425=REPRESENTATION('surface area',(#423),#401);
#426=PROPERTY_DEFINITION_REPRESENTATION(#424,#425);
#427=(LENGTH_UNIT()NAMED_UNIT(*)SI_UNIT(.MILLI.,.METRE.));
#431=PROPERTY_DEFINITION('geometric validation property','volume of PTFERING1',
#416);
#432=REPRESENTATION('volume',(#430),#401);
#433=PROPERTY_DEFINITION_REPRESENTATION(#431,#432);
#435=PROPERTY_DEFINITION('geometric validation property',
'centroid of PTFERING1',#416);
#436=REPRESENTATION('centroid',(#434),#401);
#437=PROPERTY_DEFINITION_REPRESENTATION(#435,#436);
#438=(LENGTH_UNIT()NAMED_UNIT(*)SI_UNIT(.MILLI.,.METRE.));
#442=PROPERTY_DEFINITION('geometric validation property','area of PTFERING1',
#415);
#443=REPRESENTATION('surface area',(#441),#401);
#444=PROPERTY_DEFINITION_REPRESENTATION(#442,#443);
#445=(LENGTH_UNIT()NAMED_UNIT(*)SI_UNIT(.MILLI.,.METRE.));
#449=PROPERTY_DEFINITION('geometric validation property','volume of PTFERING1',
#415);
#450=REPRESENTATION('volume',(#448),#401);
#451=PROPERTY_DEFINITION_REPRESENTATION(#449,#450);
#453=PROPERTY_DEFINITION('geometric validation property',
'centroid of PTFERING1',#415);
#454=REPRESENTATION('centroid',(#452),#401);
#455=PROPERTY_DEFINITION_REPRESENTATION(#453,#454);
#456=SHAPE_DEFINITION_REPRESENTATION(#415,#406);
#457=PRODUCT_RELATED_PRODUCT_CATEGORY('part','',(#412));
ENDSEC;
END-ISO-10303-21;
