ISO-10303-21;
HEADER;
FILE_DESCRIPTION((''),'2;1');
FILE_NAME('ROPE1','2026-08-09T09:56:41',('gram2'),(''),
'CREO PARAMETRIC BY PTC INC, 2016510','CREO PARAMETRIC BY PTC INC, 2016510','');
FILE_SCHEMA(('AUTOMOTIVE_DESIGN { 1 0 10303 214 1 1 1 1 }'));
ENDSEC;
DATA;
#29=CARTESIAN_POINT('',(0.E0,0.E0,0.E0));
#30=DIRECTION('',(0.E0,0.E0,-1.E0));
#31=DIRECTION('',(-1.E0,0.E0,0.E0));
#32=AXIS2_PLACEMENT_3D('',#29,#30,#31);
#34=DRAUGHTING_PRE_DEFINED_CURVE_FONT('continuous');
#35=CURVE_STYLE('',#34,POSITIVE_LENGTH_MEASURE(2.E-2),#3);
#36=PRESENTATION_STYLE_ASSIGNMENT((#35));
#37=STYLED_ITEM('',(#36),#33);
#38=DIRECTION('',(0.E0,0.E0,1.E0));
#39=VECTOR('',#38,2.4E2);
#40=CARTESIAN_POINT('',(1.5E0,0.E0,0.E0));
#41=LINE('',#40,#39);
#42=CURVE_STYLE('',#34,POSITIVE_LENGTH_MEASURE(2.E-2),#3);
#43=PRESENTATION_STYLE_ASSIGNMENT((#42));
#44=STYLED_ITEM('',(#43),#41);
#45=CARTESIAN_POINT('',(0.E0,0.E0,2.4E2));
#46=DIRECTION('',(0.E0,0.E0,-1.E0));
#47=DIRECTION('',(-1.E0,0.E0,0.E0));
#48=AXIS2_PLACEMENT_3D('',#45,#46,#47);
#50=CURVE_STYLE('',#34,POSITIVE_LENGTH_MEASURE(2.E-2),#3);
#51=PRESENTATION_STYLE_ASSIGNMENT((#50));
#52=STYLED_ITEM('',(#51),#49);
#53=CARTESIAN_POINT('',(-1.5E0,-1.8E1,0.E0));
#54=DIRECTION('',(-1.E0,0.E0,0.E0));
#55=DIRECTION('',(0.E0,1.E0,0.E0));
#56=AXIS2_PLACEMENT_3D('',#53,#54,#55);
#58=CURVE_STYLE('',#34,POSITIVE_LENGTH_MEASURE(2.E-2),#3);
#59=PRESENTATION_STYLE_ASSIGNMENT((#58));
#60=STYLED_ITEM('',(#59),#57);
#61=CARTESIAN_POINT('',(1.5E0,-1.8E1,0.E0));
#62=DIRECTION('',(-1.E0,0.E0,0.E0));
#63=DIRECTION('',(0.E0,1.E0,0.E0));
#64=AXIS2_PLACEMENT_3D('',#61,#62,#63);
#66=CURVE_STYLE('',#34,POSITIVE_LENGTH_MEASURE(2.E-2),#3);
#67=PRESENTATION_STYLE_ASSIGNMENT((#66));
#68=STYLED_ITEM('',(#67),#65);
#69=CARTESIAN_POINT('',(0.E0,0.E0,0.E0));
#70=DIRECTION('',(0.E0,0.E0,-1.E0));
#71=DIRECTION('',(1.E0,0.E0,0.E0));
#72=AXIS2_PLACEMENT_3D('',#69,#70,#71);
#74=CURVE_STYLE('',#34,POSITIVE_LENGTH_MEASURE(2.E-2),#3);
#75=PRESENTATION_STYLE_ASSIGNMENT((#74));
#76=STYLED_ITEM('',(#75),#73);
#77=DIRECTION('',(0.E0,0.E0,1.E0));
#78=VECTOR('',#77,2.4E2);
#79=CARTESIAN_POINT('',(-1.5E0,0.E0,0.E0));
#80=LINE('',#79,#78);
#81=CURVE_STYLE('',#34,POSITIVE_LENGTH_MEASURE(2.E-2),#3);
#82=PRESENTATION_STYLE_ASSIGNMENT((#81));
#83=STYLED_ITEM('',(#82),#80);
#84=CARTESIAN_POINT('',(0.E0,0.E0,2.4E2));
#85=DIRECTION('',(0.E0,0.E0,-1.E0));
#86=DIRECTION('',(1.E0,0.E0,0.E0));
#87=AXIS2_PLACEMENT_3D('',#84,#85,#86);
#89=CURVE_STYLE('',#34,POSITIVE_LENGTH_MEASURE(2.E-2),#3);
#90=PRESENTATION_STYLE_ASSIGNMENT((#89));
#91=STYLED_ITEM('',(#90),#88);
#92=CARTESIAN_POINT('',(0.E0,-3.6E1,2.4E2));
#93=DIRECTION('',(0.E0,0.E0,-1.E0));
#94=DIRECTION('',(-1.E0,0.E0,0.E0));
#95=AXIS2_PLACEMENT_3D('',#92,#93,#94);
#97=CURVE_STYLE('',#34,POSITIVE_LENGTH_MEASURE(2.E-2),#3);
#98=PRESENTATION_STYLE_ASSIGNMENT((#97));
#99=STYLED_ITEM('',(#98),#96);
#100=CARTESIAN_POINT('',(-1.5E0,-1.8E1,2.4E2));
#101=DIRECTION('',(1.E0,0.E0,0.E0));
#102=DIRECTION('',(0.E0,1.E0,0.E0));
#103=AXIS2_PLACEMENT_3D('',#100,#101,#102);
#105=CURVE_STYLE('',#34,POSITIVE_LENGTH_MEASURE(2.E-2),#3);
#106=PRESENTATION_STYLE_ASSIGNMENT((#105));
#107=STYLED_ITEM('',(#106),#104);
#108=CARTESIAN_POINT('',(0.E0,-3.6E1,0.E0));
#109=DIRECTION('',(0.E0,0.E0,1.E0));
#110=DIRECTION('',(1.E0,0.E0,0.E0));
#111=AXIS2_PLACEMENT_3D('',#108,#109,#110);
#113=CURVE_STYLE('',#34,POSITIVE_LENGTH_MEASURE(2.E-2),#3);
#114=PRESENTATION_STYLE_ASSIGNMENT((#113));
#115=STYLED_ITEM('',(#114),#112);
#116=DIRECTION('',(0.E0,0.E0,-1.E0));
#117=VECTOR('',#116,2.4E2);
#118=CARTESIAN_POINT('',(-1.5E0,-3.6E1,2.4E2));
#119=LINE('',#118,#117);
#120=CURVE_STYLE('',#34,POSITIVE_LENGTH_MEASURE(2.E-2),#3);
#121=PRESENTATION_STYLE_ASSIGNMENT((#120));
#122=STYLED_ITEM('',(#121),#119);
#123=CARTESIAN_POINT('',(0.E0,-3.6E1,0.E0));
#124=DIRECTION('',(0.E0,0.E0,1.E0));
#125=DIRECTION('',(-1.E0,0.E0,0.E0));
#126=AXIS2_PLACEMENT_3D('',#123,#124,#125);
#128=CURVE_STYLE('',#34,POSITIVE_LENGTH_MEASURE(2.E-2),#3);
#129=PRESENTATION_STYLE_ASSIGNMENT((#128));
#130=STYLED_ITEM('',(#129),#127);
#131=DIRECTION('',(0.E0,0.E0,-1.E0));
#132=VECTOR('',#131,2.4E2);
#133=CARTESIAN_POINT('',(1.5E0,-3.6E1,2.4E2));
#134=LINE('',#133,#132);
#135=CURVE_STYLE('',#34,POSITIVE_LENGTH_MEASURE(2.E-2),#3);
#136=PRESENTATION_STYLE_ASSIGNMENT((#135));
#137=STYLED_ITEM('',(#136),#134);
#138=CARTESIAN_POINT('',(0.E0,-3.6E1,2.4E2));
#139=DIRECTION('',(0.E0,0.E0,-1.E0));
#140=DIRECTION('',(1.E0,0.E0,0.E0));
#141=AXIS2_PLACEMENT_3D('',#138,#139,#140);
#143=CURVE_STYLE('',#34,POSITIVE_LENGTH_MEASURE(2.E-2),#3);
#144=PRESENTATION_STYLE_ASSIGNMENT((#143));
#145=STYLED_ITEM('',(#144),#142);
#146=CARTESIAN_POINT('',(1.5E0,-1.8E1,2.4E2));
#147=DIRECTION('',(1.E0,0.E0,0.E0));
#148=DIRECTION('',(0.E0,1.E0,0.E0));
#149=AXIS2_PLACEMENT_3D('',#146,#147,#148);
#151=CURVE_STYLE('',#34,POSITIVE_LENGTH_MEASURE(2.E-2),#3);
#152=PRESENTATION_STYLE_ASSIGNMENT((#151));
#153=STYLED_ITEM('',(#152),#150);
#154=CARTESIAN_POINT('',(-1.5E0,0.E0,2.4E2));
#155=CARTESIAN_POINT('',(1.5E0,0.E0,2.4E2));
#156=VERTEX_POINT('',#154);
#157=VERTEX_POINT('',#155);
#158=CARTESIAN_POINT('',(-1.5E0,-3.6E1,2.4E2));
#159=CARTESIAN_POINT('',(1.5E0,-3.6E1,2.4E2));
#160=VERTEX_POINT('',#158);
#161=VERTEX_POINT('',#159);
#162=CARTESIAN_POINT('',(-1.5E0,0.E0,0.E0));
#163=CARTESIAN_POINT('',(1.5E0,0.E0,0.E0));
#164=VERTEX_POINT('',#162);
#165=VERTEX_POINT('',#163);
#166=CARTESIAN_POINT('',(-1.5E0,-3.6E1,0.E0));
#167=CARTESIAN_POINT('',(1.5E0,-3.6E1,0.E0));
#168=VERTEX_POINT('',#166);
#169=VERTEX_POINT('',#167);
#170=CARTESIAN_POINT('',(0.E0,0.E0,0.E0));
#171=DIRECTION('',(0.E0,0.E0,1.E0));
#172=DIRECTION('',(1.E0,0.E0,0.E0));
#173=AXIS2_PLACEMENT_3D('',#170,#171,#172);
#174=CYLINDRICAL_SURFACE('',#173,1.5E0);
#176=ORIENTED_EDGE('',*,*,#175,.T.);
#178=ORIENTED_EDGE('',*,*,#177,.T.);
#180=ORIENTED_EDGE('',*,*,#179,.F.);
#182=ORIENTED_EDGE('',*,*,#181,.F.);
#183=EDGE_LOOP('',(#176,#178,#180,#182));
#184=FACE_OUTER_BOUND('',#183,.F.);
#186=FILL_AREA_STYLE_COLOUR('',#3);
#187=FILL_AREA_STYLE('',(#186));
#188=SURFACE_STYLE_FILL_AREA(#187);
#189=SURFACE_SIDE_STYLE('',(#188));
#190=SURFACE_STYLE_USAGE(.BOTH.,#189);
#191=PRESENTATION_STYLE_ASSIGNMENT((#190));
#192=STYLED_ITEM('',(#191),#185);
#193=CARTESIAN_POINT('',(0.E0,-1.8E1,0.E0));
#194=DIRECTION('',(1.E0,0.E0,0.E0));
#195=DIRECTION('',(0.E0,1.E0,0.E0));
#196=AXIS2_PLACEMENT_3D('',#193,#194,#195);
#197=TOROIDAL_SURFACE('',#196,1.8E1,1.5E0);
#198=ORIENTED_EDGE('',*,*,#175,.F.);
#200=ORIENTED_EDGE('',*,*,#199,.T.);
#202=ORIENTED_EDGE('',*,*,#201,.T.);
#204=ORIENTED_EDGE('',*,*,#203,.F.);
#205=EDGE_LOOP('',(#198,#200,#202,#204));
#206=FACE_OUTER_BOUND('',#205,.F.);
#208=FILL_AREA_STYLE_COLOUR('',#3);
#209=FILL_AREA_STYLE('',(#208));
#210=SURFACE_STYLE_FILL_AREA(#209);
#211=SURFACE_SIDE_STYLE('',(#210));
#212=SURFACE_STYLE_USAGE(.BOTH.,#211);
#213=PRESENTATION_STYLE_ASSIGNMENT((#212));
#214=STYLED_ITEM('',(#213),#207);
#215=CARTESIAN_POINT('',(0.E0,-1.8E1,0.E0));
#216=DIRECTION('',(1.E0,0.E0,0.E0));
#217=DIRECTION('',(0.E0,1.E0,0.E0));
#218=AXIS2_PLACEMENT_3D('',#215,#216,#217);
#219=TOROIDAL_SURFACE('',#218,1.8E1,1.5E0);
#221=ORIENTED_EDGE('',*,*,#220,.F.);
#222=ORIENTED_EDGE('',*,*,#203,.T.);
#224=ORIENTED_EDGE('',*,*,#223,.T.);
#225=ORIENTED_EDGE('',*,*,#199,.F.);
#226=EDGE_LOOP('',(#221,#222,#224,#225));
#227=FACE_OUTER_BOUND('',#226,.F.);
#229=FILL_AREA_STYLE_COLOUR('',#3);
#230=FILL_AREA_STYLE('',(#229));
#231=SURFACE_STYLE_FILL_AREA(#230);
#232=SURFACE_SIDE_STYLE('',(#231));
#233=SURFACE_STYLE_USAGE(.BOTH.,#232);
#234=PRESENTATION_STYLE_ASSIGNMENT((#233));
#235=STYLED_ITEM('',(#234),#228);
#236=CARTESIAN_POINT('',(0.E0,0.E0,0.E0));
#237=DIRECTION('',(0.E0,0.E0,1.E0));
#238=DIRECTION('',(1.E0,0.E0,0.E0));
#239=AXIS2_PLACEMENT_3D('',#236,#237,#238);
#240=CYLINDRICAL_SURFACE('',#239,1.5E0);
#241=ORIENTED_EDGE('',*,*,#220,.T.);
#242=ORIENTED_EDGE('',*,*,#181,.T.);
#244=ORIENTED_EDGE('',*,*,#243,.F.);
#245=ORIENTED_EDGE('',*,*,#177,.F.);
#246=EDGE_LOOP('',(#241,#242,#244,#245));
#247=FACE_OUTER_BOUND('',#246,.F.);
#249=FILL_AREA_STYLE_COLOUR('',#3);
#250=FILL_AREA_STYLE('',(#249));
#251=SURFACE_STYLE_FILL_AREA(#250);
#252=SURFACE_SIDE_STYLE('',(#251));
#253=SURFACE_STYLE_USAGE(.BOTH.,#252);
#254=PRESENTATION_STYLE_ASSIGNMENT((#253));
#255=STYLED_ITEM('',(#254),#248);
#256=CARTESIAN_POINT('',(0.E0,-1.8E1,2.4E2));
#257=DIRECTION('',(1.E0,0.E0,0.E0));
#258=DIRECTION('',(0.E0,-1.E0,0.E0));
#259=AXIS2_PLACEMENT_3D('',#256,#257,#258);
#260=TOROIDAL_SURFACE('',#259,1.8E1,1.5E0);
#262=ORIENTED_EDGE('',*,*,#261,.T.);
#264=ORIENTED_EDGE('',*,*,#263,.F.);
#265=ORIENTED_EDGE('',*,*,#243,.T.);
#267=ORIENTED_EDGE('',*,*,#266,.T.);
#268=EDGE_LOOP('',(#262,#264,#265,#267));
#269=FACE_OUTER_BOUND('',#268,.F.);
#271=FILL_AREA_STYLE_COLOUR('',#3);
#272=FILL_AREA_STYLE('',(#271));
#273=SURFACE_STYLE_FILL_AREA(#272);
#274=SURFACE_SIDE_STYLE('',(#273));
#275=SURFACE_STYLE_USAGE(.BOTH.,#274);
#276=PRESENTATION_STYLE_ASSIGNMENT((#275));
#277=STYLED_ITEM('',(#276),#270);
#278=CARTESIAN_POINT('',(0.E0,-3.6E1,2.4E2));
#279=DIRECTION('',(0.E0,0.E0,-1.E0));
#280=DIRECTION('',(-1.E0,0.E0,0.E0));
#281=AXIS2_PLACEMENT_3D('',#278,#279,#280);
#282=CYLINDRICAL_SURFACE('',#281,1.5E0);
#283=ORIENTED_EDGE('',*,*,#223,.F.);
#285=ORIENTED_EDGE('',*,*,#284,.F.);
#286=ORIENTED_EDGE('',*,*,#261,.F.);
#288=ORIENTED_EDGE('',*,*,#287,.T.);
#289=EDGE_LOOP('',(#283,#285,#286,#288));
#290=FACE_OUTER_BOUND('',#289,.F.);
#292=FILL_AREA_STYLE_COLOUR('',#3);
#293=FILL_AREA_STYLE('',(#292));
#294=SURFACE_STYLE_FILL_AREA(#293);
#295=SURFACE_SIDE_STYLE('',(#294));
#296=SURFACE_STYLE_USAGE(.BOTH.,#295);
#297=PRESENTATION_STYLE_ASSIGNMENT((#296));
#298=STYLED_ITEM('',(#297),#291);
#299=CARTESIAN_POINT('',(0.E0,-3.6E1,2.4E2));
#300=DIRECTION('',(0.E0,0.E0,-1.E0));
#301=DIRECTION('',(-1.E0,0.E0,0.E0));
#302=AXIS2_PLACEMENT_3D('',#299,#300,#301);
#303=CYLINDRICAL_SURFACE('',#302,1.5E0);
#304=ORIENTED_EDGE('',*,*,#201,.F.);
#305=ORIENTED_EDGE('',*,*,#287,.F.);
#307=ORIENTED_EDGE('',*,*,#306,.F.);
#308=ORIENTED_EDGE('',*,*,#284,.T.);
#309=EDGE_LOOP('',(#304,#305,#307,#308));
#310=FACE_OUTER_BOUND('',#309,.F.);
#312=FILL_AREA_STYLE_COLOUR('',#3);
#313=FILL_AREA_STYLE('',(#312));
#314=SURFACE_STYLE_FILL_AREA(#313);
#315=SURFACE_SIDE_STYLE('',(#314));
#316=SURFACE_STYLE_USAGE(.BOTH.,#315);
#317=PRESENTATION_STYLE_ASSIGNMENT((#316));
#318=STYLED_ITEM('',(#317),#311);
#319=CARTESIAN_POINT('',(0.E0,-1.8E1,2.4E2));
#320=DIRECTION('',(1.E0,0.E0,0.E0));
#321=DIRECTION('',(0.E0,-1.E0,0.E0));
#322=AXIS2_PLACEMENT_3D('',#319,#320,#321);
#323=TOROIDAL_SURFACE('',#322,1.8E1,1.5E0);
#324=ORIENTED_EDGE('',*,*,#306,.T.);
#325=ORIENTED_EDGE('',*,*,#266,.F.);
#326=ORIENTED_EDGE('',*,*,#179,.T.);
#327=ORIENTED_EDGE('',*,*,#263,.T.);
#328=EDGE_LOOP('',(#324,#325,#326,#327));
#329=FACE_OUTER_BOUND('',#328,.F.);
#331=FILL_AREA_STYLE_COLOUR('',#3);
#332=FILL_AREA_STYLE('',(#331));
#333=SURFACE_STYLE_FILL_AREA(#332);
#334=SURFACE_SIDE_STYLE('',(#333));
#335=SURFACE_STYLE_USAGE(.BOTH.,#334);
#336=PRESENTATION_STYLE_ASSIGNMENT((#335));
#337=STYLED_ITEM('',(#336),#330);
#338=CLOSED_SHELL('',(#185,#207,#228,#248,#270,#291,#311,#330));
#339=MANIFOLD_SOLID_BREP('',#338);
#340=FILL_AREA_STYLE_COLOUR('',#3);
#341=FILL_AREA_STYLE('',(#340));
#342=SURFACE_STYLE_FILL_AREA(#341);
#343=SURFACE_SIDE_STYLE('',(#342));
#344=SURFACE_STYLE_USAGE(.BOTH.,#343);
#345=PRESENTATION_STYLE_ASSIGNMENT((#344));
#28=STYLED_ITEM('',(#345),#339);
#348=PLANE_ANGLE_MEASURE_WITH_UNIT(PLANE_ANGLE_MEASURE(1.745329251994E-2),#347);
#349=(CONVERSION_BASED_UNIT('DEGREE',#348)NAMED_UNIT(*)PLANE_ANGLE_UNIT());
#351=UNCERTAINTY_MEASURE_WITH_UNIT(LENGTH_MEASURE(2.817173236544E-2),#346,
'distance_accuracy_value',
'Maximum model space distance between geometric entities at asserted connectivities');
#353=CARTESIAN_POINT('',(0.E0,0.E0,0.E0));
#354=DIRECTION('',(0.E0,0.E0,1.E0));
#355=DIRECTION('',(1.E0,0.E0,0.E0));
#358=MECHANICAL_DESIGN_GEOMETRIC_PRESENTATION_REPRESENTATION('',(#37,#44,#52,
#60,#68,#76,#83,#91,#99,#107,#115,#122,#130,#137,#145,#153,#192,#214,#235,#255,
#277,#298,#318,#337,#28),#352);
#359=APPLICATION_CONTEXT('automotive_design');
#360=APPLICATION_PROTOCOL_DEFINITION('international standard',
'automotive_design',2001,#359);
#361=PRODUCT_DEFINITION_CONTEXT('part definition',#359,'design');
#362=PRODUCT_CONTEXT('',#359,'mechanical');
#363=PRODUCT('ROPE1','ROPE1','NOT SPECIFIED',(#362));
#364=PRODUCT_DEFINITION_FORMATION('11','LAST_VERSION',#363);
#372=DERIVED_UNIT_ELEMENT(#371,2.E0);
#373=DERIVED_UNIT((#372));
#374=MEASURE_REPRESENTATION_ITEM('surface area measure',AREA_MEASURE(
5.589810696487E3),#373);
#379=DERIVED_UNIT_ELEMENT(#378,3.E0);
#380=DERIVED_UNIT((#379));
#381=MEASURE_REPRESENTATION_ITEM('volume measure',VOLUME_MEASURE(
4.192358023099E3),#380);
#385=CARTESIAN_POINT('centre point',(1.480764529656E-5,-1.8E1,1.2E2));
#390=DERIVED_UNIT_ELEMENT(#389,2.E0);
#391=DERIVED_UNIT((#390));
#392=MEASURE_REPRESENTATION_ITEM('surface area measure',AREA_MEASURE(
5.589810696487E3),#391);
#397=DERIVED_UNIT_ELEMENT(#396,3.E0);
#398=DERIVED_UNIT((#397));
#399=MEASURE_REPRESENTATION_ITEM('volume measure',VOLUME_MEASURE(
4.192358023099E3),#398);
#403=CARTESIAN_POINT('centre point',(1.480764529656E-5,-1.8E1,1.2E2));
#1=DRAUGHTING_PRE_DEFINED_COLOUR('green');
#2=DRAUGHTING_PRE_DEFINED_COLOUR('green');
#3=DRAUGHTING_PRE_DEFINED_COLOUR('green');
#4=COLOUR_RGB('',1.1E-2,1.2E-2,1.E0);
#5=COLOUR_RGB('',1.1E-2,1.2E-2,1.E0);
#6=COLOUR_RGB('',4.1E-1,2.61589E-1,1.12848E-1);
#7=COLOUR_RGB('',5.04854E-1,1.5455E-2,1.5455E-2);
#8=COLOUR_RGB('',6.35294E-1,6.86275E-1,7.4902E-1);
#9=COLOUR_RGB('',6.40777E-1,6.40777E-1,6.40777E-1);
#10=COLOUR_RGB('',6.66667E-1,6.66667E-1,6.66667E-1);
#11=COLOUR_RGB('',6.69062E-1,6.69903E-1,6.55217E-1);
#12=COLOUR_RGB('',7.45098E-1,3.92157E-1,2.94118E-1);
#13=COLOUR_RGB('',8.03922E-1,5.88235E-1,1.96078E-1);
#14=COLOUR_RGB('',9.21569E-1,7.05882E-1,4.70588E-1);
#15=DRAUGHTING_PRE_DEFINED_COLOUR('red');
#16=DRAUGHTING_PRE_DEFINED_COLOUR('red');
#17=DRAUGHTING_PRE_DEFINED_COLOUR('red');
#18=DRAUGHTING_PRE_DEFINED_COLOUR('red');
#19=DRAUGHTING_PRE_DEFINED_COLOUR('red');
#20=DRAUGHTING_PRE_DEFINED_COLOUR('red');
#21=DRAUGHTING_PRE_DEFINED_COLOUR('red');
#22=DRAUGHTING_PRE_DEFINED_COLOUR('yellow');
#23=DRAUGHTING_PRE_DEFINED_COLOUR('yellow');
#24=COLOUR_RGB('',1.E0,1.E0,5.3E-1);
#25=COLOUR_RGB('',1.E0,1.E0,9.49E-1);
#26=COLOUR_RGB('',1.E0,1.E0,9.49E-1);
#27=DRAUGHTING_PRE_DEFINED_COLOUR('white');
#33=CIRCLE('',#32,1.5E0);
#49=CIRCLE('',#48,1.5E0);
#57=CIRCLE('',#56,1.8E1);
#65=CIRCLE('',#64,1.8E1);
#73=CIRCLE('',#72,1.5E0);
#88=CIRCLE('',#87,1.5E0);
#96=CIRCLE('',#95,1.5E0);
#104=CIRCLE('',#103,1.8E1);
#112=CIRCLE('',#111,1.5E0);
#127=CIRCLE('',#126,1.5E0);
#142=CIRCLE('',#141,1.5E0);
#150=CIRCLE('',#149,1.8E1);
#175=EDGE_CURVE('',#164,#165,#33,.T.);
#177=EDGE_CURVE('',#165,#157,#41,.T.);
#179=EDGE_CURVE('',#156,#157,#49,.T.);
#181=EDGE_CURVE('',#164,#156,#80,.T.);
#185=ADVANCED_FACE('',(#184),#174,.T.);
#199=EDGE_CURVE('',#164,#168,#57,.T.);
#201=EDGE_CURVE('',#168,#169,#127,.T.);
#203=EDGE_CURVE('',#165,#169,#65,.T.);
#207=ADVANCED_FACE('',(#206),#197,.T.);
#220=EDGE_CURVE('',#165,#164,#73,.T.);
#223=EDGE_CURVE('',#169,#168,#112,.T.);
#228=ADVANCED_FACE('',(#227),#219,.T.);
#243=EDGE_CURVE('',#157,#156,#88,.T.);
#248=ADVANCED_FACE('',(#247),#240,.T.);
#261=EDGE_CURVE('',#160,#161,#96,.T.);
#263=EDGE_CURVE('',#157,#161,#150,.T.);
#266=EDGE_CURVE('',#156,#160,#104,.T.);
#270=ADVANCED_FACE('',(#269),#260,.T.);
#284=EDGE_CURVE('',#161,#169,#134,.T.);
#287=EDGE_CURVE('',#160,#168,#119,.T.);
#291=ADVANCED_FACE('',(#290),#282,.T.);
#306=EDGE_CURVE('',#161,#160,#142,.T.);
#311=ADVANCED_FACE('',(#310),#303,.T.);
#330=ADVANCED_FACE('',(#329),#323,.T.);
#346=(LENGTH_UNIT()NAMED_UNIT(*)SI_UNIT(.MILLI.,.METRE.));
#347=(NAMED_UNIT(*)PLANE_ANGLE_UNIT()SI_UNIT($,.RADIAN.));
#350=(NAMED_UNIT(*)SI_UNIT($,.STERADIAN.)SOLID_ANGLE_UNIT());
#352=(GEOMETRIC_REPRESENTATION_CONTEXT(3)GLOBAL_UNCERTAINTY_ASSIGNED_CONTEXT((
#351))GLOBAL_UNIT_ASSIGNED_CONTEXT((#346,#349,#350))REPRESENTATION_CONTEXT
('ID1','external'));
#356=AXIS2_PLACEMENT_3D('',#353,#354,#355);
#357=ADVANCED_BREP_SHAPE_REPRESENTATION('',(#356,#339),#352);
#365=PRODUCT_DEFINITION('part definition','',#364,#361);
#366=PRODUCT_DEFINITION_SHAPE('','SHAPE FOR ROPE1.',#365);
#367=SHAPE_ASPECT('','solid data associated with ROPE1',#366,.F.);
#368=PROPERTY_DEFINITION('',
'shape for solid data with which properties are associated',#367);
#369=SHAPE_REPRESENTATION('',(#339),#352);
#370=SHAPE_DEFINITION_REPRESENTATION(#368,#369);
#371=(LENGTH_UNIT()NAMED_UNIT(*)SI_UNIT(.MILLI.,.METRE.));
#375=PROPERTY_DEFINITION('geometric validation property','area of ROPE1',#367);
#376=REPRESENTATION('surface area',(#374),#352);
#377=PROPERTY_DEFINITION_REPRESENTATION(#375,#376);
#378=(LENGTH_UNIT()NAMED_UNIT(*)SI_UNIT(.MILLI.,.METRE.));
#382=PROPERTY_DEFINITION('geometric validation property','volume of ROPE1',
#367);
#383=REPRESENTATION('volume',(#381),#352);
#384=PROPERTY_DEFINITION_REPRESENTATION(#382,#383);
#386=PROPERTY_DEFINITION('geometric validation property','centroid of ROPE1',
#367);
#387=REPRESENTATION('centroid',(#385),#352);
#388=PROPERTY_DEFINITION_REPRESENTATION(#386,#387);
#389=(LENGTH_UNIT()NAMED_UNIT(*)SI_UNIT(.MILLI.,.METRE.));
#393=PROPERTY_DEFINITION('geometric validation property','area of ROPE1',#366);
#394=REPRESENTATION('surface area',(#392),#352);
#395=PROPERTY_DEFINITION_REPRESENTATION(#393,#394);
#396=(LENGTH_UNIT()NAMED_UNIT(*)SI_UNIT(.MILLI.,.METRE.));
#400=PROPERTY_DEFINITION('geometric validation property','volume of ROPE1',
#366);
#401=REPRESENTATION('volume',(#399),#352);
#402=PROPERTY_DEFINITION_REPRESENTATION(#400,#401);
#404=PROPERTY_DEFINITION('geometric validation property','centroid of ROPE1',
#366);
#405=REPRESENTATION('centroid',(#403),#352);
#406=PROPERTY_DEFINITION_REPRESENTATION(#404,#405);
#407=SHAPE_DEFINITION_REPRESENTATION(#366,#357);
#408=PRODUCT_RELATED_PRODUCT_CATEGORY('part','',(#363));
ENDSEC;
END-ISO-10303-21;
