ISO-10303-21;
HEADER;
FILE_DESCRIPTION((''),'2;1');
FILE_NAME('WHEEL2','2026-08-09T09:56:41',('gram2'),(''),
'CREO PARAMETRIC BY PTC INC, 2016510','CREO PARAMETRIC BY PTC INC, 2016510','');
FILE_SCHEMA(('AUTOMOTIVE_DESIGN { 1 0 10303 214 1 1 1 1 }'));
ENDSEC;
DATA;
#29=CARTESIAN_POINT('',(0.E0,0.E0,-7.E0));
#30=DIRECTION('',(0.E0,0.E0,-1.E0));
#31=DIRECTION('',(-1.E0,0.E0,0.E0));
#32=AXIS2_PLACEMENT_3D('',#29,#30,#31);
#34=DRAUGHTING_PRE_DEFINED_CURVE_FONT('continuous');
#35=CURVE_STYLE('',#34,POSITIVE_LENGTH_MEASURE(2.E-2),#21);
#36=PRESENTATION_STYLE_ASSIGNMENT((#35));
#37=STYLED_ITEM('',(#36),#33);
#38=DIRECTION('',(-2.436018053882E-11,5.479000216517E-11,-1.E0));
#39=VECTOR('',#38,1.600000000039E1);
#40=CARTESIAN_POINT('',(-9.999999999610E0,-8.766416675264E-10,
-6.999999999610E0));
#41=LINE('',#40,#39);
#42=CURVE_STYLE('',#34,POSITIVE_LENGTH_MEASURE(2.E-2),#21);
#43=PRESENTATION_STYLE_ASSIGNMENT((#42));
#44=STYLED_ITEM('',(#43),#41);
#45=CARTESIAN_POINT('',(0.E0,0.E0,-2.3E1));
#46=DIRECTION('',(0.E0,0.E0,-1.E0));
#47=DIRECTION('',(-1.E0,0.E0,0.E0));
#48=AXIS2_PLACEMENT_3D('',#45,#46,#47);
#50=CURVE_STYLE('',#34,POSITIVE_LENGTH_MEASURE(2.E-2),#21);
#51=PRESENTATION_STYLE_ASSIGNMENT((#50));
#52=STYLED_ITEM('',(#51),#49);
#53=DIRECTION('',(0.E0,0.E0,-1.E0));
#54=VECTOR('',#53,2.E1);
#55=CARTESIAN_POINT('',(-9.797958971133E0,2.E0,-2.3E1));
#56=LINE('',#55,#54);
#57=CURVE_STYLE('',#34,POSITIVE_LENGTH_MEASURE(2.E-2),#21);
#58=PRESENTATION_STYLE_ASSIGNMENT((#57));
#59=STYLED_ITEM('',(#58),#56);
#60=CARTESIAN_POINT('',(0.E0,0.E0,-4.3E1));
#61=DIRECTION('',(0.E0,0.E0,-1.E0));
#62=DIRECTION('',(-1.E0,0.E0,0.E0));
#63=AXIS2_PLACEMENT_3D('',#60,#61,#62);
#65=CURVE_STYLE('',#34,POSITIVE_LENGTH_MEASURE(2.E-2),#21);
#66=PRESENTATION_STYLE_ASSIGNMENT((#65));
#67=STYLED_ITEM('',(#66),#64);
#68=DIRECTION('',(3.356870337144E-11,1.655889152764E-10,-1.E0));
#69=VECTOR('',#68,1.600000000054E1);
#70=CARTESIAN_POINT('',(-1.E1,0.E0,-4.3E1));
#71=LINE('',#70,#69);
#72=CURVE_STYLE('',#34,POSITIVE_LENGTH_MEASURE(2.E-2),#21);
#73=PRESENTATION_STYLE_ASSIGNMENT((#72));
#74=STYLED_ITEM('',(#73),#71);
#75=CARTESIAN_POINT('',(0.E0,0.E0,-5.9E1));
#76=DIRECTION('',(0.E0,0.E0,-1.E0));
#77=DIRECTION('',(-1.E0,0.E0,0.E0));
#78=AXIS2_PLACEMENT_3D('',#75,#76,#77);
#80=CURVE_STYLE('',#34,POSITIVE_LENGTH_MEASURE(2.E-2),#21);
#81=PRESENTATION_STYLE_ASSIGNMENT((#80));
#82=STYLED_ITEM('',(#81),#79);
#83=CARTESIAN_POINT('',(0.E0,0.E0,-4.3E1));
#84=DIRECTION('',(0.E0,0.E0,-1.E0));
#85=DIRECTION('',(9.797958971133E-1,2.E-1,0.E0));
#86=AXIS2_PLACEMENT_3D('',#83,#84,#85);
#88=CURVE_STYLE('',#34,POSITIVE_LENGTH_MEASURE(2.E-2),#21);
#89=PRESENTATION_STYLE_ASSIGNMENT((#88));
#90=STYLED_ITEM('',(#89),#87);
#91=DIRECTION('',(0.E0,0.E0,-1.E0));
#92=VECTOR('',#91,2.E1);
#93=CARTESIAN_POINT('',(9.797958971133E0,2.E0,-2.3E1));
#94=LINE('',#93,#92);
#95=CURVE_STYLE('',#34,POSITIVE_LENGTH_MEASURE(2.E-2),#21);
#96=PRESENTATION_STYLE_ASSIGNMENT((#95));
#97=STYLED_ITEM('',(#96),#94);
#98=CARTESIAN_POINT('',(0.E0,0.E0,-2.3E1));
#99=DIRECTION('',(0.E0,0.E0,-1.E0));
#100=DIRECTION('',(9.797958971133E-1,2.E-1,0.E0));
#101=AXIS2_PLACEMENT_3D('',#98,#99,#100);
#103=CURVE_STYLE('',#34,POSITIVE_LENGTH_MEASURE(2.E-2),#21);
#104=PRESENTATION_STYLE_ASSIGNMENT((#103));
#105=STYLED_ITEM('',(#104),#102);
#106=DIRECTION('',(7.071067811865E-1,-1.239751060776E-10,7.071067811865E-1));
#107=VECTOR('',#106,1.414213562483E0);
#108=CARTESIAN_POINT('',(-9.999999999610E0,-8.766416675264E-10,
-6.999999999610E0));
#109=LINE('',#108,#107);
#110=CURVE_STYLE('',#34,POSITIVE_LENGTH_MEASURE(2.E-2),#21);
#111=PRESENTATION_STYLE_ASSIGNMENT((#110));
#112=STYLED_ITEM('',(#111),#109);
#113=DIRECTION('',(-7.071067811865E-1,1.239748828798E-10,7.071067811865E-1));
#114=VECTOR('',#113,1.414213562483E0);
#115=CARTESIAN_POINT('',(9.999999999610E0,8.766424964580E-10,
-6.999999999610E0));
#116=LINE('',#115,#114);
#117=CURVE_STYLE('',#34,POSITIVE_LENGTH_MEASURE(2.E-2),#21);
#118=PRESENTATION_STYLE_ASSIGNMENT((#117));
#119=STYLED_ITEM('',(#118),#116);
#120=CARTESIAN_POINT('',(0.E0,0.E0,-7.E0));
#121=DIRECTION('',(0.E0,0.E0,-1.E0));
#122=DIRECTION('',(1.E0,0.E0,0.E0));
#123=AXIS2_PLACEMENT_3D('',#120,#121,#122);
#125=CURVE_STYLE('',#34,POSITIVE_LENGTH_MEASURE(2.E-2),#21);
#126=PRESENTATION_STYLE_ASSIGNMENT((#125));
#127=STYLED_ITEM('',(#126),#124);
#128=DIRECTION('',(2.436018053882E-11,-5.479007948687E-11,-1.E0));
#129=VECTOR('',#128,1.600000000039E1);
#130=CARTESIAN_POINT('',(9.999999999610E0,8.766424964580E-10,
-6.999999999610E0));
#131=LINE('',#130,#129);
#132=CURVE_STYLE('',#34,POSITIVE_LENGTH_MEASURE(2.E-2),#21);
#133=PRESENTATION_STYLE_ASSIGNMENT((#132));
#134=STYLED_ITEM('',(#133),#131);
#135=CARTESIAN_POINT('',(0.E0,0.E0,-2.3E1));
#136=DIRECTION('',(0.E0,0.E0,-1.E0));
#137=DIRECTION('',(1.E0,0.E0,0.E0));
#138=AXIS2_PLACEMENT_3D('',#135,#136,#137);
#140=CURVE_STYLE('',#34,POSITIVE_LENGTH_MEASURE(2.E-2),#21);
#141=PRESENTATION_STYLE_ASSIGNMENT((#140));
#142=STYLED_ITEM('',(#141),#139);
#143=DIRECTION('',(0.E0,0.E0,-1.E0));
#144=VECTOR('',#143,2.E1);
#145=CARTESIAN_POINT('',(9.797958971133E0,-2.E0,-2.3E1));
#146=LINE('',#145,#144);
#147=CURVE_STYLE('',#34,POSITIVE_LENGTH_MEASURE(2.E-2),#21);
#148=PRESENTATION_STYLE_ASSIGNMENT((#147));
#149=STYLED_ITEM('',(#148),#146);
#150=CARTESIAN_POINT('',(0.E0,0.E0,-4.3E1));
#151=DIRECTION('',(0.E0,0.E0,-1.E0));
#152=DIRECTION('',(1.E0,0.E0,0.E0));
#153=AXIS2_PLACEMENT_3D('',#150,#151,#152);
#155=CURVE_STYLE('',#34,POSITIVE_LENGTH_MEASURE(2.E-2),#21);
#156=PRESENTATION_STYLE_ASSIGNMENT((#155));
#157=STYLED_ITEM('',(#156),#154);
#158=DIRECTION('',(-3.356859234914E-11,-1.655890261874E-10,-1.E0));
#159=VECTOR('',#158,1.600000000054E1);
#160=CARTESIAN_POINT('',(1.E1,0.E0,-4.3E1));
#161=LINE('',#160,#159);
#162=CURVE_STYLE('',#34,POSITIVE_LENGTH_MEASURE(2.E-2),#21);
#163=PRESENTATION_STYLE_ASSIGNMENT((#162));
#164=STYLED_ITEM('',(#163),#161);
#165=CARTESIAN_POINT('',(0.E0,0.E0,-5.9E1));
#166=DIRECTION('',(0.E0,0.E0,-1.E0));
#167=DIRECTION('',(1.E0,0.E0,0.E0));
#168=AXIS2_PLACEMENT_3D('',#165,#166,#167);
#170=CURVE_STYLE('',#34,POSITIVE_LENGTH_MEASURE(2.E-2),#21);
#171=PRESENTATION_STYLE_ASSIGNMENT((#170));
#172=STYLED_ITEM('',(#171),#169);
#173=CARTESIAN_POINT('',(0.E0,0.E0,-4.3E1));
#174=DIRECTION('',(0.E0,0.E0,-1.E0));
#175=DIRECTION('',(-9.797958971133E-1,-2.E-1,0.E0));
#176=AXIS2_PLACEMENT_3D('',#173,#174,#175);
#178=CURVE_STYLE('',#34,POSITIVE_LENGTH_MEASURE(2.E-2),#21);
#179=PRESENTATION_STYLE_ASSIGNMENT((#178));
#180=STYLED_ITEM('',(#179),#177);
#181=DIRECTION('',(0.E0,0.E0,-1.E0));
#182=VECTOR('',#181,2.E1);
#183=CARTESIAN_POINT('',(-9.797958971133E0,-2.E0,-2.3E1));
#184=LINE('',#183,#182);
#185=CURVE_STYLE('',#34,POSITIVE_LENGTH_MEASURE(2.E-2),#21);
#186=PRESENTATION_STYLE_ASSIGNMENT((#185));
#187=STYLED_ITEM('',(#186),#184);
#188=CARTESIAN_POINT('',(0.E0,0.E0,-2.3E1));
#189=DIRECTION('',(0.E0,0.E0,-1.E0));
#190=DIRECTION('',(-9.797958971133E-1,-2.E-1,0.E0));
#191=AXIS2_PLACEMENT_3D('',#188,#189,#190);
#193=CURVE_STYLE('',#34,POSITIVE_LENGTH_MEASURE(2.E-2),#21);
#194=PRESENTATION_STYLE_ASSIGNMENT((#193));
#195=STYLED_ITEM('',(#194),#192);
#196=DIRECTION('',(-1.E0,0.E0,0.E0));
#197=VECTOR('',#196,1.802041028867E0);
#198=CARTESIAN_POINT('',(-9.797958971133E0,-2.E0,-2.3E1));
#199=LINE('',#198,#197);
#200=CURVE_STYLE('',#34,POSITIVE_LENGTH_MEASURE(2.E-2),#21);
#201=PRESENTATION_STYLE_ASSIGNMENT((#200));
#202=STYLED_ITEM('',(#201),#199);
#203=DIRECTION('',(0.E0,1.E0,0.E0));
#204=VECTOR('',#203,4.E0);
#205=CARTESIAN_POINT('',(-1.16E1,-2.E0,-2.3E1));
#206=LINE('',#205,#204);
#207=CURVE_STYLE('',#34,POSITIVE_LENGTH_MEASURE(2.E-2),#21);
#208=PRESENTATION_STYLE_ASSIGNMENT((#207));
#209=STYLED_ITEM('',(#208),#206);
#210=DIRECTION('',(1.E0,0.E0,0.E0));
#211=VECTOR('',#210,1.802041028867E0);
#212=CARTESIAN_POINT('',(-1.16E1,2.E0,-2.3E1));
#213=LINE('',#212,#211);
#214=CURVE_STYLE('',#34,POSITIVE_LENGTH_MEASURE(2.E-2),#21);
#215=PRESENTATION_STYLE_ASSIGNMENT((#214));
#216=STYLED_ITEM('',(#215),#213);
#217=DIRECTION('',(1.E0,0.E0,0.E0));
#218=VECTOR('',#217,1.802041028867E0);
#219=CARTESIAN_POINT('',(9.797958971133E0,2.E0,-2.3E1));
#220=LINE('',#219,#218);
#221=CURVE_STYLE('',#34,POSITIVE_LENGTH_MEASURE(2.E-2),#21);
#222=PRESENTATION_STYLE_ASSIGNMENT((#221));
#223=STYLED_ITEM('',(#222),#220);
#224=DIRECTION('',(0.E0,-1.E0,0.E0));
#225=VECTOR('',#224,4.E0);
#226=CARTESIAN_POINT('',(1.16E1,2.E0,-2.3E1));
#227=LINE('',#226,#225);
#228=CURVE_STYLE('',#34,POSITIVE_LENGTH_MEASURE(2.E-2),#21);
#229=PRESENTATION_STYLE_ASSIGNMENT((#228));
#230=STYLED_ITEM('',(#229),#227);
#231=DIRECTION('',(-1.E0,0.E0,0.E0));
#232=VECTOR('',#231,1.802041028867E0);
#233=CARTESIAN_POINT('',(1.16E1,-2.E0,-2.3E1));
#234=LINE('',#233,#232);
#235=CURVE_STYLE('',#34,POSITIVE_LENGTH_MEASURE(2.E-2),#21);
#236=PRESENTATION_STYLE_ASSIGNMENT((#235));
#237=STYLED_ITEM('',(#236),#234);
#238=DIRECTION('',(1.E0,0.E0,0.E0));
#239=VECTOR('',#238,1.802041028867E0);
#240=CARTESIAN_POINT('',(-1.16E1,2.E0,-4.3E1));
#241=LINE('',#240,#239);
#242=CURVE_STYLE('',#34,POSITIVE_LENGTH_MEASURE(2.E-2),#21);
#243=PRESENTATION_STYLE_ASSIGNMENT((#242));
#244=STYLED_ITEM('',(#243),#241);
#245=DIRECTION('',(0.E0,1.E0,0.E0));
#246=VECTOR('',#245,4.E0);
#247=CARTESIAN_POINT('',(-1.16E1,-2.E0,-4.3E1));
#248=LINE('',#247,#246);
#249=CURVE_STYLE('',#34,POSITIVE_LENGTH_MEASURE(2.E-2),#21);
#250=PRESENTATION_STYLE_ASSIGNMENT((#249));
#251=STYLED_ITEM('',(#250),#248);
#252=DIRECTION('',(-1.E0,0.E0,0.E0));
#253=VECTOR('',#252,1.802041028867E0);
#254=CARTESIAN_POINT('',(-9.797958971133E0,-2.E0,-4.3E1));
#255=LINE('',#254,#253);
#256=CURVE_STYLE('',#34,POSITIVE_LENGTH_MEASURE(2.E-2),#21);
#257=PRESENTATION_STYLE_ASSIGNMENT((#256));
#258=STYLED_ITEM('',(#257),#255);
#259=DIRECTION('',(-1.E0,0.E0,0.E0));
#260=VECTOR('',#259,1.802041028867E0);
#261=CARTESIAN_POINT('',(1.16E1,-2.E0,-4.3E1));
#262=LINE('',#261,#260);
#263=CURVE_STYLE('',#34,POSITIVE_LENGTH_MEASURE(2.E-2),#21);
#264=PRESENTATION_STYLE_ASSIGNMENT((#263));
#265=STYLED_ITEM('',(#264),#262);
#266=DIRECTION('',(0.E0,-1.E0,0.E0));
#267=VECTOR('',#266,4.E0);
#268=CARTESIAN_POINT('',(1.16E1,2.E0,-4.3E1));
#269=LINE('',#268,#267);
#270=CURVE_STYLE('',#34,POSITIVE_LENGTH_MEASURE(2.E-2),#21);
#271=PRESENTATION_STYLE_ASSIGNMENT((#270));
#272=STYLED_ITEM('',(#271),#269);
#273=DIRECTION('',(1.E0,0.E0,0.E0));
#274=VECTOR('',#273,1.802041028867E0);
#275=CARTESIAN_POINT('',(9.797958971133E0,2.E0,-4.3E1));
#276=LINE('',#275,#274);
#277=CURVE_STYLE('',#34,POSITIVE_LENGTH_MEASURE(2.E-2),#21);
#278=PRESENTATION_STYLE_ASSIGNMENT((#277));
#279=STYLED_ITEM('',(#278),#276);
#280=DIRECTION('',(0.E0,0.E0,-1.E0));
#281=VECTOR('',#280,2.E1);
#282=CARTESIAN_POINT('',(-1.16E1,2.E0,-2.3E1));
#283=LINE('',#282,#281);
#284=CURVE_STYLE('',#34,POSITIVE_LENGTH_MEASURE(2.E-2),#21);
#285=PRESENTATION_STYLE_ASSIGNMENT((#284));
#286=STYLED_ITEM('',(#285),#283);
#287=DIRECTION('',(0.E0,0.E0,-1.E0));
#288=VECTOR('',#287,2.E1);
#289=CARTESIAN_POINT('',(-1.16E1,-2.E0,-2.3E1));
#290=LINE('',#289,#288);
#291=CURVE_STYLE('',#34,POSITIVE_LENGTH_MEASURE(2.E-2),#21);
#292=PRESENTATION_STYLE_ASSIGNMENT((#291));
#293=STYLED_ITEM('',(#292),#290);
#294=DIRECTION('',(0.E0,0.E0,-1.E0));
#295=VECTOR('',#294,2.E1);
#296=CARTESIAN_POINT('',(1.16E1,-2.E0,-2.3E1));
#297=LINE('',#296,#295);
#298=CURVE_STYLE('',#34,POSITIVE_LENGTH_MEASURE(2.E-2),#21);
#299=PRESENTATION_STYLE_ASSIGNMENT((#298));
#300=STYLED_ITEM('',(#299),#297);
#301=DIRECTION('',(0.E0,0.E0,-1.E0));
#302=VECTOR('',#301,2.E1);
#303=CARTESIAN_POINT('',(1.16E1,2.E0,-2.3E1));
#304=LINE('',#303,#302);
#305=CURVE_STYLE('',#34,POSITIVE_LENGTH_MEASURE(2.E-2),#21);
#306=PRESENTATION_STYLE_ASSIGNMENT((#305));
#307=STYLED_ITEM('',(#306),#304);
#308=DIRECTION('',(7.071067811865E-1,3.746859710606E-10,7.071067811865E-1));
#309=VECTOR('',#308,1.414213562525E0);
#310=CARTESIAN_POINT('',(8.999999999355E0,-3.179309176403E-9,
-6.000000000064E1));
#311=LINE('',#310,#309);
#312=CURVE_STYLE('',#34,POSITIVE_LENGTH_MEASURE(2.E-2),#21);
#313=PRESENTATION_STYLE_ASSIGNMENT((#312));
#314=STYLED_ITEM('',(#313),#311);
#315=CARTESIAN_POINT('',(0.E0,0.E0,-6.E1));
#316=DIRECTION('',(0.E0,0.E0,-1.E0));
#317=DIRECTION('',(0.E0,1.E0,0.E0));
#318=AXIS2_PLACEMENT_3D('',#315,#316,#317);
#320=CURVE_STYLE('',#34,POSITIVE_LENGTH_MEASURE(2.E-2),#21);
#321=PRESENTATION_STYLE_ASSIGNMENT((#320));
#322=STYLED_ITEM('',(#321),#319);
#323=CARTESIAN_POINT('',(0.E0,0.E0,-6.E1));
#324=DIRECTION('',(0.E0,0.E0,-1.E0));
#325=DIRECTION('',(0.E0,-1.E0,0.E0));
#326=AXIS2_PLACEMENT_3D('',#323,#324,#325);
#328=CURVE_STYLE('',#34,POSITIVE_LENGTH_MEASURE(2.E-2),#21);
#329=PRESENTATION_STYLE_ASSIGNMENT((#328));
#330=STYLED_ITEM('',(#329),#327);
#331=CARTESIAN_POINT('',(0.E0,1.069764998079E-14,-6.E1));
#332=DIRECTION('',(0.E0,0.E0,-1.E0));
#333=DIRECTION('',(1.E0,0.E0,0.E0));
#334=AXIS2_PLACEMENT_3D('',#331,#332,#333);
#336=CURVE_STYLE('',#34,POSITIVE_LENGTH_MEASURE(2.E-2),#21);
#337=PRESENTATION_STYLE_ASSIGNMENT((#336));
#338=STYLED_ITEM('',(#337),#335);
#339=CARTESIAN_POINT('',(0.E0,0.E0,-6.E1));
#340=DIRECTION('',(0.E0,0.E0,-1.E0));
#341=DIRECTION('',(-1.E0,0.E0,0.E0));
#342=AXIS2_PLACEMENT_3D('',#339,#340,#341);
#344=CURVE_STYLE('',#34,POSITIVE_LENGTH_MEASURE(2.E-2),#21);
#345=PRESENTATION_STYLE_ASSIGNMENT((#344));
#346=STYLED_ITEM('',(#345),#343);
#347=DIRECTION('',(0.E0,0.E0,-1.E0));
#348=VECTOR('',#347,6.E-1);
#349=CARTESIAN_POINT('',(0.E0,8.E0,-6.E1));
#350=LINE('',#349,#348);
#351=CURVE_STYLE('',#34,POSITIVE_LENGTH_MEASURE(2.E-2),#21);
#352=PRESENTATION_STYLE_ASSIGNMENT((#351));
#353=STYLED_ITEM('',(#352),#350);
#354=DIRECTION('',(0.E0,0.E0,-1.E0));
#355=VECTOR('',#354,6.E-1);
#356=CARTESIAN_POINT('',(0.E0,-8.E0,-6.E1));
#357=LINE('',#356,#355);
#358=CURVE_STYLE('',#34,POSITIVE_LENGTH_MEASURE(2.E-2),#21);
#359=PRESENTATION_STYLE_ASSIGNMENT((#358));
#360=STYLED_ITEM('',(#359),#357);
#361=CARTESIAN_POINT('',(0.E0,0.E0,-6.06E1));
#362=DIRECTION('',(0.E0,0.E0,-1.E0));
#363=DIRECTION('',(0.E0,1.E0,0.E0));
#364=AXIS2_PLACEMENT_3D('',#361,#362,#363);
#366=CURVE_STYLE('',#34,POSITIVE_LENGTH_MEASURE(2.E-2),#21);
#367=PRESENTATION_STYLE_ASSIGNMENT((#366));
#368=STYLED_ITEM('',(#367),#365);
#369=CARTESIAN_POINT('',(0.E0,0.E0,-6.06E1));
#370=DIRECTION('',(0.E0,0.E0,-1.E0));
#371=DIRECTION('',(0.E0,-1.E0,0.E0));
#372=AXIS2_PLACEMENT_3D('',#369,#370,#371);
#374=CURVE_STYLE('',#34,POSITIVE_LENGTH_MEASURE(2.E-2),#21);
#375=PRESENTATION_STYLE_ASSIGNMENT((#374));
#376=STYLED_ITEM('',(#375),#373);
#377=CARTESIAN_POINT('',(0.E0,0.E0,-7.02E1));
#378=DIRECTION('',(0.E0,0.E0,-1.E0));
#379=DIRECTION('',(-1.E0,0.E0,0.E0));
#380=AXIS2_PLACEMENT_3D('',#377,#378,#379);
#382=CURVE_STYLE('',#34,POSITIVE_LENGTH_MEASURE(2.E-2),#21);
#383=PRESENTATION_STYLE_ASSIGNMENT((#382));
#384=STYLED_ITEM('',(#383),#381);
#385=CARTESIAN_POINT('',(0.E0,0.E0,-6.06E1));
#386=DIRECTION('',(0.E0,0.E0,1.E0));
#387=DIRECTION('',(1.E0,0.E0,0.E0));
#388=AXIS2_PLACEMENT_3D('',#385,#386,#387);
#390=CURVE_STYLE('',#34,POSITIVE_LENGTH_MEASURE(2.E-2),#21);
#391=PRESENTATION_STYLE_ASSIGNMENT((#390));
#392=STYLED_ITEM('',(#391),#389);
#393=DIRECTION('',(1.386588991581E-10,-1.881099739701E-10,-1.E0));
#394=VECTOR('',#393,9.600000001331E0);
#395=CARTESIAN_POINT('',(-6.E0,0.E0,-6.06E1));
#396=LINE('',#395,#394);
#397=CURVE_STYLE('',#34,POSITIVE_LENGTH_MEASURE(2.E-2),#21);
#398=PRESENTATION_STYLE_ASSIGNMENT((#397));
#399=STYLED_ITEM('',(#398),#396);
#400=DIRECTION('',(-7.071067811865E-1,2.482908760308E-10,7.071067811865E-1));
#401=VECTOR('',#400,1.131370850191E0);
#402=CARTESIAN_POINT('',(-5.199999998462E0,-2.086764748641E-9,
-7.100000000154E1));
#403=LINE('',#402,#401);
#404=CURVE_STYLE('',#34,POSITIVE_LENGTH_MEASURE(2.E-2),#21);
#405=PRESENTATION_STYLE_ASSIGNMENT((#404));
#406=STYLED_ITEM('',(#405),#403);
#407=CARTESIAN_POINT('',(0.E0,0.E0,-7.1E1));
#408=DIRECTION('',(0.E0,0.E0,1.E0));
#409=DIRECTION('',(-1.E0,0.E0,0.E0));
#410=AXIS2_PLACEMENT_3D('',#407,#408,#409);
#412=CURVE_STYLE('',#34,POSITIVE_LENGTH_MEASURE(2.E-2),#21);
#413=PRESENTATION_STYLE_ASSIGNMENT((#412));
#414=STYLED_ITEM('',(#413),#411);
#415=CARTESIAN_POINT('',(0.E0,0.E0,-7.1E1));
#416=DIRECTION('',(0.E0,0.E0,1.E0));
#417=DIRECTION('',(1.E0,0.E0,0.E0));
#418=AXIS2_PLACEMENT_3D('',#415,#416,#417);
#420=CURVE_STYLE('',#34,POSITIVE_LENGTH_MEASURE(2.E-2),#21);
#421=PRESENTATION_STYLE_ASSIGNMENT((#420));
#422=STYLED_ITEM('',(#421),#419);
#423=CARTESIAN_POINT('',(0.E0,0.E0,-7.1E1));
#424=DIRECTION('',(0.E0,0.E0,-1.E0));
#425=DIRECTION('',(1.E0,0.E0,0.E0));
#426=AXIS2_PLACEMENT_3D('',#423,#424,#425);
#428=CURVE_STYLE('',#34,POSITIVE_LENGTH_MEASURE(2.E-2),#21);
#429=PRESENTATION_STYLE_ASSIGNMENT((#428));
#430=STYLED_ITEM('',(#429),#427);
#431=CARTESIAN_POINT('',(0.E0,0.E0,-7.1E1));
#432=DIRECTION('',(0.E0,0.E0,-1.E0));
#433=DIRECTION('',(-1.E0,0.E0,0.E0));
#434=AXIS2_PLACEMENT_3D('',#431,#432,#433);
#436=CURVE_STYLE('',#34,POSITIVE_LENGTH_MEASURE(2.E-2),#21);
#437=PRESENTATION_STYLE_ASSIGNMENT((#436));
#438=STYLED_ITEM('',(#437),#435);
#439=CARTESIAN_POINT('',(0.E0,0.E0,-5.75E1));
#440=DIRECTION('',(0.E0,0.E0,-1.E0));
#441=DIRECTION('',(1.E0,0.E0,0.E0));
#442=AXIS2_PLACEMENT_3D('',#439,#440,#441);
#444=CURVE_STYLE('',#34,POSITIVE_LENGTH_MEASURE(2.E-2),#21);
#445=PRESENTATION_STYLE_ASSIGNMENT((#444));
#446=STYLED_ITEM('',(#445),#443);
#447=DIRECTION('',(0.E0,0.E0,-1.E0));
#448=VECTOR('',#447,1.35E1);
#449=CARTESIAN_POINT('',(-4.E0,0.E0,-5.75E1));
#450=LINE('',#449,#448);
#451=CURVE_STYLE('',#34,POSITIVE_LENGTH_MEASURE(2.E-2),#21);
#452=PRESENTATION_STYLE_ASSIGNMENT((#451));
#453=STYLED_ITEM('',(#452),#450);
#454=DIRECTION('',(0.E0,0.E0,1.E0));
#455=VECTOR('',#454,1.35E1);
#456=CARTESIAN_POINT('',(4.E0,0.E0,-7.1E1));
#457=LINE('',#456,#455);
#458=CURVE_STYLE('',#34,POSITIVE_LENGTH_MEASURE(2.E-2),#21);
#459=PRESENTATION_STYLE_ASSIGNMENT((#458));
#460=STYLED_ITEM('',(#459),#457);
#461=CARTESIAN_POINT('',(0.E0,0.E0,-5.75E1));
#462=DIRECTION('',(0.E0,0.E0,-1.E0));
#463=DIRECTION('',(0.E0,1.E0,0.E0));
#464=AXIS2_PLACEMENT_3D('',#461,#462,#463);
#466=CURVE_STYLE('',#34,POSITIVE_LENGTH_MEASURE(2.E-2),#21);
#467=PRESENTATION_STYLE_ASSIGNMENT((#466));
#468=STYLED_ITEM('',(#467),#465);
#469=CARTESIAN_POINT('',(0.E0,0.E0,-5.75E1));
#470=DIRECTION('',(0.E0,0.E0,-1.E0));
#471=DIRECTION('',(0.E0,-1.E0,0.E0));
#472=AXIS2_PLACEMENT_3D('',#469,#470,#471);
#474=CURVE_STYLE('',#34,POSITIVE_LENGTH_MEASURE(2.E-2),#21);
#475=PRESENTATION_STYLE_ASSIGNMENT((#474));
#476=STYLED_ITEM('',(#475),#473);
#477=DIRECTION('',(0.E0,0.E0,1.E0));
#478=VECTOR('',#477,4.4E1);
#479=CARTESIAN_POINT('',(8.E0,0.E0,-5.5E1));
#480=LINE('',#479,#478);
#481=CURVE_STYLE('',#34,POSITIVE_LENGTH_MEASURE(2.E-2),#21);
#482=PRESENTATION_STYLE_ASSIGNMENT((#481));
#483=STYLED_ITEM('',(#482),#480);
#484=DIRECTION('',(0.E0,0.E0,-1.E0));
#485=VECTOR('',#484,2.5E0);
#486=CARTESIAN_POINT('',(0.E0,8.E0,-8.5E0));
#487=LINE('',#486,#485);
#488=CURVE_STYLE('',#34,POSITIVE_LENGTH_MEASURE(2.E-2),#21);
#489=PRESENTATION_STYLE_ASSIGNMENT((#488));
#490=STYLED_ITEM('',(#489),#487);
#491=CARTESIAN_POINT('',(0.E0,0.E0,-1.1E1));
#492=DIRECTION('',(0.E0,0.E0,-1.E0));
#493=DIRECTION('',(0.E0,-1.E0,0.E0));
#494=AXIS2_PLACEMENT_3D('',#491,#492,#493);
#496=CURVE_STYLE('',#34,POSITIVE_LENGTH_MEASURE(2.E-2),#21);
#497=PRESENTATION_STYLE_ASSIGNMENT((#496));
#498=STYLED_ITEM('',(#497),#495);
#499=DIRECTION('',(0.E0,0.E0,-1.E0));
#500=VECTOR('',#499,4.4E1);
#501=CARTESIAN_POINT('',(-8.E0,0.E0,-1.1E1));
#502=LINE('',#501,#500);
#503=CURVE_STYLE('',#34,POSITIVE_LENGTH_MEASURE(2.E-2),#21);
#504=PRESENTATION_STYLE_ASSIGNMENT((#503));
#505=STYLED_ITEM('',(#504),#502);
#506=CARTESIAN_POINT('',(0.E0,0.E0,-5.5E1));
#507=DIRECTION('',(0.E0,0.E0,-1.E0));
#508=DIRECTION('',(0.E0,-1.E0,0.E0));
#509=AXIS2_PLACEMENT_3D('',#506,#507,#508);
#511=CURVE_STYLE('',#34,POSITIVE_LENGTH_MEASURE(2.E-2),#21);
#512=PRESENTATION_STYLE_ASSIGNMENT((#511));
#513=STYLED_ITEM('',(#512),#510);
#514=DIRECTION('',(0.E0,0.E0,-1.E0));
#515=VECTOR('',#514,2.5E0);
#516=CARTESIAN_POINT('',(0.E0,8.E0,-5.5E1));
#517=LINE('',#516,#515);
#518=CURVE_STYLE('',#34,POSITIVE_LENGTH_MEASURE(2.E-2),#21);
#519=PRESENTATION_STYLE_ASSIGNMENT((#518));
#520=STYLED_ITEM('',(#519),#517);
#521=DIRECTION('',(0.E0,0.E0,-1.E0));
#522=VECTOR('',#521,2.5E0);
#523=CARTESIAN_POINT('',(0.E0,-8.E0,-8.5E0));
#524=LINE('',#523,#522);
#525=CURVE_STYLE('',#34,POSITIVE_LENGTH_MEASURE(2.E-2),#21);
#526=PRESENTATION_STYLE_ASSIGNMENT((#525));
#527=STYLED_ITEM('',(#526),#524);
#528=CARTESIAN_POINT('',(0.E0,0.E0,-1.1E1));
#529=DIRECTION('',(0.E0,0.E0,-1.E0));
#530=DIRECTION('',(0.E0,1.E0,0.E0));
#531=AXIS2_PLACEMENT_3D('',#528,#529,#530);
#533=CURVE_STYLE('',#34,POSITIVE_LENGTH_MEASURE(2.E-2),#21);
#534=PRESENTATION_STYLE_ASSIGNMENT((#533));
#535=STYLED_ITEM('',(#534),#532);
#536=CARTESIAN_POINT('',(0.E0,0.E0,-5.5E1));
#537=DIRECTION('',(0.E0,0.E0,-1.E0));
#538=DIRECTION('',(0.E0,1.E0,0.E0));
#539=AXIS2_PLACEMENT_3D('',#536,#537,#538);
#541=CURVE_STYLE('',#34,POSITIVE_LENGTH_MEASURE(2.E-2),#21);
#542=PRESENTATION_STYLE_ASSIGNMENT((#541));
#543=STYLED_ITEM('',(#542),#540);
#544=DIRECTION('',(0.E0,0.E0,-1.E0));
#545=VECTOR('',#544,2.5E0);
#546=CARTESIAN_POINT('',(0.E0,-8.E0,-5.5E1));
#547=LINE('',#546,#545);
#548=CURVE_STYLE('',#34,POSITIVE_LENGTH_MEASURE(2.E-2),#21);
#549=PRESENTATION_STYLE_ASSIGNMENT((#548));
#550=STYLED_ITEM('',(#549),#547);
#551=CARTESIAN_POINT('',(0.E0,0.E0,-8.5E0));
#552=DIRECTION('',(0.E0,0.E0,-1.E0));
#553=DIRECTION('',(0.E0,1.E0,0.E0));
#554=AXIS2_PLACEMENT_3D('',#551,#552,#553);
#556=CURVE_STYLE('',#34,POSITIVE_LENGTH_MEASURE(2.E-2),#21);
#557=PRESENTATION_STYLE_ASSIGNMENT((#556));
#558=STYLED_ITEM('',(#557),#555);
#559=CARTESIAN_POINT('',(0.E0,0.E0,-8.5E0));
#560=DIRECTION('',(0.E0,0.E0,-1.E0));
#561=DIRECTION('',(0.E0,-1.E0,0.E0));
#562=AXIS2_PLACEMENT_3D('',#559,#560,#561);
#564=CURVE_STYLE('',#34,POSITIVE_LENGTH_MEASURE(2.E-2),#21);
#565=PRESENTATION_STYLE_ASSIGNMENT((#564));
#566=STYLED_ITEM('',(#565),#563);
#567=CARTESIAN_POINT('',(0.E0,0.E0,-8.5E0));
#568=DIRECTION('',(0.E0,0.E0,1.E0));
#569=DIRECTION('',(0.E0,1.E0,0.E0));
#570=AXIS2_PLACEMENT_3D('',#567,#568,#569);
#572=CURVE_STYLE('',#34,POSITIVE_LENGTH_MEASURE(2.E-2),#21);
#573=PRESENTATION_STYLE_ASSIGNMENT((#572));
#574=STYLED_ITEM('',(#573),#571);
#575=CARTESIAN_POINT('',(0.E0,0.E0,-8.5E0));
#576=DIRECTION('',(0.E0,0.E0,1.E0));
#577=DIRECTION('',(0.E0,-1.E0,0.E0));
#578=AXIS2_PLACEMENT_3D('',#575,#576,#577);
#580=CURVE_STYLE('',#34,POSITIVE_LENGTH_MEASURE(2.E-2),#21);
#581=PRESENTATION_STYLE_ASSIGNMENT((#580));
#582=STYLED_ITEM('',(#581),#579);
#583=DIRECTION('',(0.E0,0.E0,1.E0));
#584=VECTOR('',#583,1.35E1);
#585=CARTESIAN_POINT('',(0.E0,4.E0,-8.5E0));
#586=LINE('',#585,#584);
#587=CURVE_STYLE('',#34,POSITIVE_LENGTH_MEASURE(2.E-2),#21);
#588=PRESENTATION_STYLE_ASSIGNMENT((#587));
#589=STYLED_ITEM('',(#588),#586);
#590=DIRECTION('',(0.E0,0.E0,-1.E0));
#591=VECTOR('',#590,1.35E1);
#592=CARTESIAN_POINT('',(0.E0,-4.E0,5.E0));
#593=LINE('',#592,#591);
#594=CURVE_STYLE('',#34,POSITIVE_LENGTH_MEASURE(2.E-2),#21);
#595=PRESENTATION_STYLE_ASSIGNMENT((#594));
#596=STYLED_ITEM('',(#595),#593);
#597=CARTESIAN_POINT('',(0.E0,0.E0,5.E0));
#598=DIRECTION('',(0.E0,0.E0,-1.E0));
#599=DIRECTION('',(0.E0,-1.E0,0.E0));
#600=AXIS2_PLACEMENT_3D('',#597,#598,#599);
#602=CURVE_STYLE('',#34,POSITIVE_LENGTH_MEASURE(2.E-2),#21);
#603=PRESENTATION_STYLE_ASSIGNMENT((#602));
#604=STYLED_ITEM('',(#603),#601);
#605=CARTESIAN_POINT('',(0.E0,0.E0,5.E0));
#606=DIRECTION('',(0.E0,0.E0,-1.E0));
#607=DIRECTION('',(0.E0,1.E0,0.E0));
#608=AXIS2_PLACEMENT_3D('',#605,#606,#607);
#610=CURVE_STYLE('',#34,POSITIVE_LENGTH_MEASURE(2.E-2),#21);
#611=PRESENTATION_STYLE_ASSIGNMENT((#610));
#612=STYLED_ITEM('',(#611),#609);
#613=CARTESIAN_POINT('',(0.E0,0.E0,5.E0));
#614=DIRECTION('',(0.E0,0.E0,1.E0));
#615=DIRECTION('',(0.E0,1.E0,0.E0));
#616=AXIS2_PLACEMENT_3D('',#613,#614,#615);
#618=CURVE_STYLE('',#34,POSITIVE_LENGTH_MEASURE(2.E-2),#21);
#619=PRESENTATION_STYLE_ASSIGNMENT((#618));
#620=STYLED_ITEM('',(#619),#617);
#621=CARTESIAN_POINT('',(0.E0,0.E0,5.E0));
#622=DIRECTION('',(0.E0,0.E0,1.E0));
#623=DIRECTION('',(0.E0,-1.E0,0.E0));
#624=AXIS2_PLACEMENT_3D('',#621,#622,#623);
#626=CURVE_STYLE('',#34,POSITIVE_LENGTH_MEASURE(2.E-2),#21);
#627=PRESENTATION_STYLE_ASSIGNMENT((#626));
#628=STYLED_ITEM('',(#627),#625);
#629=DIRECTION('',(-2.482923859269E-10,7.071067811865E-1,-7.071067811865E-1));
#630=VECTOR('',#629,1.131370850191E0);
#631=CARTESIAN_POINT('',(2.086765755861E-9,5.199999998462E0,5.000000001538E0));
#632=LINE('',#631,#630);
#633=CURVE_STYLE('',#34,POSITIVE_LENGTH_MEASURE(2.E-2),#21);
#634=PRESENTATION_STYLE_ASSIGNMENT((#633));
#635=STYLED_ITEM('',(#634),#632);
#636=DIRECTION('',(2.482915443488E-10,-7.071067811865E-1,-7.071067811865E-1));
#637=VECTOR('',#636,1.131370850191E0);
#638=CARTESIAN_POINT('',(-2.086766188370E-9,-5.199999998462E0,
5.000000001538E0));
#639=LINE('',#638,#637);
#640=CURVE_STYLE('',#34,POSITIVE_LENGTH_MEASURE(2.E-2),#21);
#641=PRESENTATION_STYLE_ASSIGNMENT((#640));
#642=STYLED_ITEM('',(#641),#639);
#643=CARTESIAN_POINT('',(0.E0,0.E0,4.2E0));
#644=DIRECTION('',(0.E0,0.E0,1.E0));
#645=DIRECTION('',(0.E0,-1.E0,0.E0));
#646=AXIS2_PLACEMENT_3D('',#643,#644,#645);
#648=CURVE_STYLE('',#34,POSITIVE_LENGTH_MEASURE(2.E-2),#21);
#649=PRESENTATION_STYLE_ASSIGNMENT((#648));
#650=STYLED_ITEM('',(#649),#647);
#651=CARTESIAN_POINT('',(0.E0,0.E0,-5.4E0));
#652=DIRECTION('',(0.E0,0.E0,1.E0));
#653=DIRECTION('',(0.E0,-1.E0,0.E0));
#654=AXIS2_PLACEMENT_3D('',#651,#652,#653);
#656=CURVE_STYLE('',#34,POSITIVE_LENGTH_MEASURE(2.E-2),#21);
#657=PRESENTATION_STYLE_ASSIGNMENT((#656));
#658=STYLED_ITEM('',(#657),#655);
#659=DIRECTION('',(1.881099367476E-10,-1.386588991581E-10,-1.E0));
#660=VECTOR('',#659,9.600000001331E0);
#661=CARTESIAN_POINT('',(-1.805856372745E-9,-5.999999998669E0,
4.200000001331E0));
#662=LINE('',#661,#660);
#663=CURVE_STYLE('',#34,POSITIVE_LENGTH_MEASURE(2.E-2),#21);
#664=PRESENTATION_STYLE_ASSIGNMENT((#663));
#665=STYLED_ITEM('',(#664),#662);
#666=CARTESIAN_POINT('',(0.E0,0.E0,4.2E0));
#667=DIRECTION('',(0.E0,0.E0,1.E0));
#668=DIRECTION('',(0.E0,1.E0,0.E0));
#669=AXIS2_PLACEMENT_3D('',#666,#667,#668);
#671=CURVE_STYLE('',#34,POSITIVE_LENGTH_MEASURE(2.E-2),#21);
#672=PRESENTATION_STYLE_ASSIGNMENT((#671));
#673=STYLED_ITEM('',(#672),#670);
#674=CARTESIAN_POINT('',(0.E0,0.E0,-5.4E0));
#675=DIRECTION('',(0.E0,0.E0,1.E0));
#676=DIRECTION('',(0.E0,1.E0,0.E0));
#677=AXIS2_PLACEMENT_3D('',#674,#675,#676);
#679=CURVE_STYLE('',#34,POSITIVE_LENGTH_MEASURE(2.E-2),#21);
#680=PRESENTATION_STYLE_ASSIGNMENT((#679));
#681=STYLED_ITEM('',(#680),#678);
#682=DIRECTION('',(-1.881098180271E-10,1.386588066395E-10,-1.E0));
#683=VECTOR('',#682,9.600000001331E0);
#684=CARTESIAN_POINT('',(1.805854988098E-9,5.999999998669E0,4.200000001331E0));
#685=LINE('',#684,#683);
#686=CURVE_STYLE('',#34,POSITIVE_LENGTH_MEASURE(2.E-2),#21);
#687=PRESENTATION_STYLE_ASSIGNMENT((#686));
#688=STYLED_ITEM('',(#687),#685);
#689=CARTESIAN_POINT('',(0.E0,0.E0,-5.4E0));
#690=DIRECTION('',(0.E0,0.E0,1.E0));
#691=DIRECTION('',(0.E0,-1.E0,0.E0));
#692=AXIS2_PLACEMENT_3D('',#689,#690,#691);
#694=CURVE_STYLE('',#34,POSITIVE_LENGTH_MEASURE(2.E-2),#21);
#695=PRESENTATION_STYLE_ASSIGNMENT((#694));
#696=STYLED_ITEM('',(#695),#693);
#697=CARTESIAN_POINT('',(0.E0,0.E0,-5.4E0));
#698=DIRECTION('',(0.E0,0.E0,1.E0));
#699=DIRECTION('',(0.E0,1.E0,0.E0));
#700=AXIS2_PLACEMENT_3D('',#697,#698,#699);
#702=CURVE_STYLE('',#34,POSITIVE_LENGTH_MEASURE(2.E-2),#21);
#703=PRESENTATION_STYLE_ASSIGNMENT((#702));
#704=STYLED_ITEM('',(#703),#701);
#705=DIRECTION('',(0.E0,0.E0,1.E0));
#706=VECTOR('',#705,6.E-1);
#707=CARTESIAN_POINT('',(0.E0,-8.E0,-6.E0));
#708=LINE('',#707,#706);
#709=CURVE_STYLE('',#34,POSITIVE_LENGTH_MEASURE(2.E-2),#21);
#710=PRESENTATION_STYLE_ASSIGNMENT((#709));
#711=STYLED_ITEM('',(#710),#708);
#712=CARTESIAN_POINT('',(0.E0,0.E0,-6.E0));
#713=DIRECTION('',(0.E0,0.E0,1.E0));
#714=DIRECTION('',(0.E0,-1.E0,0.E0));
#715=AXIS2_PLACEMENT_3D('',#712,#713,#714);
#717=CURVE_STYLE('',#34,POSITIVE_LENGTH_MEASURE(2.E-2),#21);
#718=PRESENTATION_STYLE_ASSIGNMENT((#717));
#719=STYLED_ITEM('',(#718),#716);
#720=CARTESIAN_POINT('',(0.E0,0.E0,-6.E0));
#721=DIRECTION('',(0.E0,0.E0,1.E0));
#722=DIRECTION('',(0.E0,1.E0,0.E0));
#723=AXIS2_PLACEMENT_3D('',#720,#721,#722);
#725=CURVE_STYLE('',#34,POSITIVE_LENGTH_MEASURE(2.E-2),#21);
#726=PRESENTATION_STYLE_ASSIGNMENT((#725));
#727=STYLED_ITEM('',(#726),#724);
#728=CARTESIAN_POINT('',(0.E0,0.E0,-6.E0));
#729=DIRECTION('',(0.E0,0.E0,-1.E0));
#730=DIRECTION('',(1.E0,0.E0,0.E0));
#731=AXIS2_PLACEMENT_3D('',#728,#729,#730);
#733=CURVE_STYLE('',#34,POSITIVE_LENGTH_MEASURE(2.E-2),#21);
#734=PRESENTATION_STYLE_ASSIGNMENT((#733));
#735=STYLED_ITEM('',(#734),#732);
#736=CARTESIAN_POINT('',(0.E0,0.E0,-6.E0));
#737=DIRECTION('',(0.E0,0.E0,-1.E0));
#738=DIRECTION('',(-1.E0,0.E0,0.E0));
#739=AXIS2_PLACEMENT_3D('',#736,#737,#738);
#741=CURVE_STYLE('',#34,POSITIVE_LENGTH_MEASURE(2.E-2),#21);
#742=PRESENTATION_STYLE_ASSIGNMENT((#741));
#743=STYLED_ITEM('',(#742),#740);
#744=DIRECTION('',(0.E0,0.E0,1.E0));
#745=VECTOR('',#744,6.E-1);
#746=CARTESIAN_POINT('',(0.E0,8.E0,-6.E0));
#747=LINE('',#746,#745);
#748=CURVE_STYLE('',#34,POSITIVE_LENGTH_MEASURE(2.E-2),#21);
#749=PRESENTATION_STYLE_ASSIGNMENT((#748));
#750=STYLED_ITEM('',(#749),#747);
#751=CARTESIAN_POINT('',(0.E0,0.E0,-5.75E1));
#752=DIRECTION('',(0.E0,0.E0,-1.E0));
#753=DIRECTION('',(-1.E0,0.E0,0.E0));
#754=AXIS2_PLACEMENT_3D('',#751,#752,#753);
#756=CURVE_STYLE('',#34,POSITIVE_LENGTH_MEASURE(2.E-2),#21);
#757=PRESENTATION_STYLE_ASSIGNMENT((#756));
#758=STYLED_ITEM('',(#757),#755);
#759=DIRECTION('',(7.071067811865E-1,-2.482931635199E-10,7.071067811865E-1));
#760=VECTOR('',#759,1.131370850191E0);
#761=CARTESIAN_POINT('',(5.199999998462E0,2.086770857856E-9,-7.100000000154E1));
#762=LINE('',#761,#760);
#763=CURVE_STYLE('',#34,POSITIVE_LENGTH_MEASURE(2.E-2),#21);
#764=PRESENTATION_STYLE_ASSIGNMENT((#763));
#765=STYLED_ITEM('',(#764),#762);
#766=CARTESIAN_POINT('',(0.E0,0.E0,-7.02E1));
#767=DIRECTION('',(0.E0,0.E0,-1.E0));
#768=DIRECTION('',(1.E0,0.E0,0.E0));
#769=AXIS2_PLACEMENT_3D('',#766,#767,#768);
#771=CURVE_STYLE('',#34,POSITIVE_LENGTH_MEASURE(2.E-2),#21);
#772=PRESENTATION_STYLE_ASSIGNMENT((#771));
#773=STYLED_ITEM('',(#772),#770);
#774=CARTESIAN_POINT('',(0.E0,0.E0,-6.06E1));
#775=DIRECTION('',(0.E0,0.E0,1.E0));
#776=DIRECTION('',(-1.E0,0.E0,0.E0));
#777=AXIS2_PLACEMENT_3D('',#774,#775,#776);
#779=CURVE_STYLE('',#34,POSITIVE_LENGTH_MEASURE(2.E-2),#21);
#780=PRESENTATION_STYLE_ASSIGNMENT((#779));
#781=STYLED_ITEM('',(#780),#778);
#782=DIRECTION('',(-1.386587141209E-10,1.881101494124E-10,-1.E0));
#783=VECTOR('',#782,9.600000001331E0);
#784=CARTESIAN_POINT('',(6.E0,0.E0,-6.06E1));
#785=LINE('',#784,#783);
#786=CURVE_STYLE('',#34,POSITIVE_LENGTH_MEASURE(2.E-2),#21);
#787=PRESENTATION_STYLE_ASSIGNMENT((#786));
#788=STYLED_ITEM('',(#787),#785);
#789=DIRECTION('',(-7.071067811865E-1,-3.746866785920E-10,7.071067811865E-1));
#790=VECTOR('',#789,1.414213562525E0);
#791=CARTESIAN_POINT('',(-8.999999999355E0,3.179307994212E-9,
-6.000000000064E1));
#792=LINE('',#791,#790);
#793=CURVE_STYLE('',#34,POSITIVE_LENGTH_MEASURE(2.E-2),#21);
#794=PRESENTATION_STYLE_ASSIGNMENT((#793));
#795=STYLED_ITEM('',(#794),#792);
#796=CARTESIAN_POINT('',(-4.E0,0.E0,-7.1E1));
#797=CARTESIAN_POINT('',(4.E0,0.E0,-7.1E1));
#798=VERTEX_POINT('',#796);
#799=VERTEX_POINT('',#797);
#800=CARTESIAN_POINT('',(1.16E1,2.E0,-2.3E1));
#801=CARTESIAN_POINT('',(1.16E1,-2.E0,-2.3E1));
#802=VERTEX_POINT('',#800);
#803=VERTEX_POINT('',#801);
#804=CARTESIAN_POINT('',(1.16E1,2.E0,-4.3E1));
#805=CARTESIAN_POINT('',(1.16E1,-2.E0,-4.3E1));
#806=VERTEX_POINT('',#804);
#807=VERTEX_POINT('',#805);
#808=CARTESIAN_POINT('',(-1.E1,0.E0,-2.3E1));
#809=CARTESIAN_POINT('',(-9.797958971133E0,2.E0,-2.3E1));
#810=VERTEX_POINT('',#808);
#811=VERTEX_POINT('',#809);
#812=CARTESIAN_POINT('',(-1.E1,0.E0,-4.3E1));
#813=CARTESIAN_POINT('',(-9.797958971133E0,2.E0,-4.3E1));
#814=VERTEX_POINT('',#812);
#815=VERTEX_POINT('',#813);
#816=CARTESIAN_POINT('',(9.797958971133E0,2.E0,-2.3E1));
#817=CARTESIAN_POINT('',(9.797958971133E0,2.E0,-4.3E1));
#818=VERTEX_POINT('',#816);
#819=VERTEX_POINT('',#817);
#820=CARTESIAN_POINT('',(1.E1,0.E0,-2.3E1));
#821=CARTESIAN_POINT('',(9.797958971133E0,-2.E0,-2.3E1));
#822=VERTEX_POINT('',#820);
#823=VERTEX_POINT('',#821);
#824=CARTESIAN_POINT('',(1.E1,0.E0,-4.3E1));
#825=CARTESIAN_POINT('',(9.797958971133E0,-2.E0,-4.3E1));
#826=VERTEX_POINT('',#824);
#827=VERTEX_POINT('',#825);
#828=CARTESIAN_POINT('',(-1.16E1,-2.E0,-2.3E1));
#829=CARTESIAN_POINT('',(-1.16E1,2.E0,-2.3E1));
#830=VERTEX_POINT('',#828);
#831=VERTEX_POINT('',#829);
#832=CARTESIAN_POINT('',(-1.16E1,-2.E0,-4.3E1));
#833=CARTESIAN_POINT('',(-1.16E1,2.E0,-4.3E1));
#834=VERTEX_POINT('',#832);
#835=VERTEX_POINT('',#833);
#836=CARTESIAN_POINT('',(-9.797958971133E0,-2.E0,-2.3E1));
#837=VERTEX_POINT('',#836);
#838=CARTESIAN_POINT('',(-9.797958971133E0,-2.E0,-4.3E1));
#839=VERTEX_POINT('',#838);
#840=CARTESIAN_POINT('',(0.E0,-4.E0,5.E0));
#841=CARTESIAN_POINT('',(0.E0,4.E0,5.E0));
#842=VERTEX_POINT('',#840);
#843=VERTEX_POINT('',#841);
#844=CARTESIAN_POINT('',(0.E0,-8.E0,-5.4E0));
#845=CARTESIAN_POINT('',(0.E0,8.E0,-5.4E0));
#846=VERTEX_POINT('',#844);
#847=VERTEX_POINT('',#845);
#848=CARTESIAN_POINT('',(0.E0,-6.E0,-5.4E0));
#849=CARTESIAN_POINT('',(0.E0,6.E0,-5.4E0));
#850=VERTEX_POINT('',#848);
#851=VERTEX_POINT('',#849);
#852=CARTESIAN_POINT('',(0.E0,-8.E0,-6.E0));
#853=CARTESIAN_POINT('',(0.E0,8.E0,-6.E0));
#854=VERTEX_POINT('',#852);
#855=VERTEX_POINT('',#853);
#856=CARTESIAN_POINT('',(0.E0,8.E0,-6.06E1));
#857=CARTESIAN_POINT('',(0.E0,-8.E0,-6.06E1));
#858=VERTEX_POINT('',#856);
#859=VERTEX_POINT('',#857);
#860=CARTESIAN_POINT('',(0.E0,8.E0,-6.E1));
#861=CARTESIAN_POINT('',(0.E0,-8.E0,-6.E1));
#862=VERTEX_POINT('',#860);
#863=VERTEX_POINT('',#861);
#864=CARTESIAN_POINT('',(6.E0,0.E0,-6.06E1));
#865=CARTESIAN_POINT('',(-6.E0,0.E0,-6.06E1));
#866=VERTEX_POINT('',#864);
#867=VERTEX_POINT('',#865);
#868=CARTESIAN_POINT('',(5.2E0,0.E0,-7.1E1));
#869=CARTESIAN_POINT('',(-5.2E0,0.E0,-7.1E1));
#870=VERTEX_POINT('',#868);
#871=VERTEX_POINT('',#869);
#872=CARTESIAN_POINT('',(6.E0,0.E0,-7.02E1));
#873=CARTESIAN_POINT('',(-6.E0,0.E0,-7.02E1));
#874=VERTEX_POINT('',#872);
#875=VERTEX_POINT('',#873);
#876=CARTESIAN_POINT('',(0.E0,5.2E0,5.E0));
#877=CARTESIAN_POINT('',(0.E0,-5.2E0,5.E0));
#878=VERTEX_POINT('',#876);
#879=VERTEX_POINT('',#877);
#880=CARTESIAN_POINT('',(0.E0,6.E0,4.2E0));
#881=CARTESIAN_POINT('',(0.E0,-6.E0,4.2E0));
#882=VERTEX_POINT('',#880);
#883=VERTEX_POINT('',#881);
#884=CARTESIAN_POINT('',(0.E0,8.E0,-8.5E0));
#885=CARTESIAN_POINT('',(0.E0,-8.E0,-8.5E0));
#886=VERTEX_POINT('',#884);
#887=VERTEX_POINT('',#885);
#888=CARTESIAN_POINT('',(0.E0,8.E0,-5.75E1));
#889=CARTESIAN_POINT('',(0.E0,-8.E0,-5.75E1));
#890=VERTEX_POINT('',#888);
#891=VERTEX_POINT('',#889);
#892=CARTESIAN_POINT('',(4.E0,0.E0,-5.75E1));
#893=CARTESIAN_POINT('',(-4.E0,0.E0,-5.75E1));
#894=VERTEX_POINT('',#892);
#895=VERTEX_POINT('',#893);
#896=CARTESIAN_POINT('',(0.E0,8.E0,-5.5E1));
#897=CARTESIAN_POINT('',(8.E0,0.E0,-5.5E1));
#898=VERTEX_POINT('',#896);
#899=VERTEX_POINT('',#897);
#900=CARTESIAN_POINT('',(0.E0,-8.E0,-5.5E1));
#901=CARTESIAN_POINT('',(-8.E0,0.E0,-5.5E1));
#902=VERTEX_POINT('',#900);
#903=VERTEX_POINT('',#901);
#904=CARTESIAN_POINT('',(0.E0,4.E0,-8.5E0));
#905=CARTESIAN_POINT('',(0.E0,-4.E0,-8.5E0));
#906=VERTEX_POINT('',#904);
#907=VERTEX_POINT('',#905);
#908=CARTESIAN_POINT('',(0.E0,8.E0,-1.1E1));
#909=CARTESIAN_POINT('',(8.E0,0.E0,-1.1E1));
#910=VERTEX_POINT('',#908);
#911=VERTEX_POINT('',#909);
#912=CARTESIAN_POINT('',(0.E0,-8.E0,-1.1E1));
#913=CARTESIAN_POINT('',(-8.E0,0.E0,-1.1E1));
#914=VERTEX_POINT('',#912);
#915=VERTEX_POINT('',#913);
#916=CARTESIAN_POINT('',(1.E1,0.E0,-7.E0));
#917=CARTESIAN_POINT('',(-1.E1,0.E0,-7.E0));
#918=VERTEX_POINT('',#916);
#919=VERTEX_POINT('',#917);
#920=CARTESIAN_POINT('',(9.E0,0.E0,-6.E0));
#921=CARTESIAN_POINT('',(-9.E0,0.E0,-6.E0));
#922=VERTEX_POINT('',#920);
#923=VERTEX_POINT('',#921);
#924=CARTESIAN_POINT('',(9.E0,0.E0,-6.E1));
#925=CARTESIAN_POINT('',(-9.E0,0.E0,-6.E1));
#926=VERTEX_POINT('',#924);
#927=VERTEX_POINT('',#925);
#928=CARTESIAN_POINT('',(1.E1,0.E0,-5.9E1));
#929=CARTESIAN_POINT('',(-1.E1,0.E0,-5.9E1));
#930=VERTEX_POINT('',#928);
#931=VERTEX_POINT('',#929);
#932=CARTESIAN_POINT('',(0.E0,0.E0,0.E0));
#933=DIRECTION('',(0.E0,0.E0,-1.E0));
#934=DIRECTION('',(-1.E0,0.E0,0.E0));
#935=AXIS2_PLACEMENT_3D('',#932,#933,#934);
#936=CYLINDRICAL_SURFACE('',#935,1.E1);
#938=ORIENTED_EDGE('',*,*,#937,.F.);
#940=ORIENTED_EDGE('',*,*,#939,.T.);
#942=ORIENTED_EDGE('',*,*,#941,.T.);
#944=ORIENTED_EDGE('',*,*,#943,.T.);
#946=ORIENTED_EDGE('',*,*,#945,.F.);
#948=ORIENTED_EDGE('',*,*,#947,.T.);
#950=ORIENTED_EDGE('',*,*,#949,.T.);
#952=ORIENTED_EDGE('',*,*,#951,.F.);
#954=ORIENTED_EDGE('',*,*,#953,.F.);
#956=ORIENTED_EDGE('',*,*,#955,.F.);
#958=ORIENTED_EDGE('',*,*,#957,.T.);
#960=ORIENTED_EDGE('',*,*,#959,.F.);
#961=EDGE_LOOP('',(#938,#940,#942,#944,#946,#948,#950,#952,#954,#956,#958,
#960));
#962=FACE_OUTER_BOUND('',#961,.F.);
#964=FILL_AREA_STYLE_COLOUR('',#21);
#965=FILL_AREA_STYLE('',(#964));
#966=SURFACE_STYLE_FILL_AREA(#965);
#967=SURFACE_SIDE_STYLE('',(#966));
#968=SURFACE_STYLE_USAGE(.BOTH.,#967);
#969=PRESENTATION_STYLE_ASSIGNMENT((#968));
#970=STYLED_ITEM('',(#969),#963);
#971=CARTESIAN_POINT('',(0.E0,0.E0,-6.499999999624E0));
#972=DIRECTION('',(0.E0,0.E0,-1.E0));
#973=DIRECTION('',(0.E0,-1.E0,0.E0));
#974=AXIS2_PLACEMENT_3D('',#971,#972,#973);
#975=CONICAL_SURFACE('',#974,9.499999999624E0,4.5E1);
#976=ORIENTED_EDGE('',*,*,#937,.T.);
#978=ORIENTED_EDGE('',*,*,#977,.T.);
#980=ORIENTED_EDGE('',*,*,#979,.F.);
#982=ORIENTED_EDGE('',*,*,#981,.F.);
#983=EDGE_LOOP('',(#976,#978,#980,#982));
#984=FACE_OUTER_BOUND('',#983,.F.);
#986=FILL_AREA_STYLE_COLOUR('',#21);
#987=FILL_AREA_STYLE('',(#986));
#988=SURFACE_STYLE_FILL_AREA(#987);
#989=SURFACE_SIDE_STYLE('',(#988));
#990=SURFACE_STYLE_USAGE(.BOTH.,#989);
#991=PRESENTATION_STYLE_ASSIGNMENT((#990));
#992=STYLED_ITEM('',(#991),#985);
#993=CARTESIAN_POINT('',(0.E0,0.E0,-6.499999999624E0));
#994=DIRECTION('',(0.E0,0.E0,-1.E0));
#995=DIRECTION('',(0.E0,-1.E0,0.E0));
#996=AXIS2_PLACEMENT_3D('',#993,#994,#995);
#997=CONICAL_SURFACE('',#996,9.499999999624E0,4.5E1);
#999=ORIENTED_EDGE('',*,*,#998,.T.);
#1000=ORIENTED_EDGE('',*,*,#981,.T.);
#1002=ORIENTED_EDGE('',*,*,#1001,.F.);
#1003=ORIENTED_EDGE('',*,*,#977,.F.);
#1004=EDGE_LOOP('',(#999,#1000,#1002,#1003));
#1005=FACE_OUTER_BOUND('',#1004,.F.);
#1007=FILL_AREA_STYLE_COLOUR('',#21);
#1008=FILL_AREA_STYLE('',(#1007));
#1009=SURFACE_STYLE_FILL_AREA(#1008);
#1010=SURFACE_SIDE_STYLE('',(#1009));
#1011=SURFACE_STYLE_USAGE(.BOTH.,#1010);
#1012=PRESENTATION_STYLE_ASSIGNMENT((#1011));
#1013=STYLED_ITEM('',(#1012),#1006);
#1014=CARTESIAN_POINT('',(0.E0,0.E0,0.E0));
#1015=DIRECTION('',(0.E0,0.E0,-1.E0));
#1016=DIRECTION('',(-1.E0,0.E0,0.E0));
#1017=AXIS2_PLACEMENT_3D('',#1014,#1015,#1016);
#1018=CYLINDRICAL_SURFACE('',#1017,1.E1);
#1019=ORIENTED_EDGE('',*,*,#998,.F.);
#1020=ORIENTED_EDGE('',*,*,#959,.T.);
#1022=ORIENTED_EDGE('',*,*,#1021,.T.);
#1024=ORIENTED_EDGE('',*,*,#1023,.T.);
#1026=ORIENTED_EDGE('',*,*,#1025,.F.);
#1027=ORIENTED_EDGE('',*,*,#951,.T.);
#1029=ORIENTED_EDGE('',*,*,#1028,.T.);
#1030=ORIENTED_EDGE('',*,*,#947,.F.);
#1032=ORIENTED_EDGE('',*,*,#1031,.F.);
#1034=ORIENTED_EDGE('',*,*,#1033,.F.);
#1036=ORIENTED_EDGE('',*,*,#1035,.T.);
#1037=ORIENTED_EDGE('',*,*,#939,.F.);
#1038=EDGE_LOOP('',(#1019,#1020,#1022,#1024,#1026,#1027,#1029,#1030,#1032,#1034,
#1036,#1037));
#1039=FACE_OUTER_BOUND('',#1038,.F.);
#1041=FILL_AREA_STYLE_COLOUR('',#21);
#1042=FILL_AREA_STYLE('',(#1041));
#1043=SURFACE_STYLE_FILL_AREA(#1042);
#1044=SURFACE_SIDE_STYLE('',(#1043));
#1045=SURFACE_STYLE_USAGE(.BOTH.,#1044);
#1046=PRESENTATION_STYLE_ASSIGNMENT((#1045));
#1047=STYLED_ITEM('',(#1046),#1040);
#1048=CARTESIAN_POINT('',(0.E0,0.E0,-2.3E1));
#1049=DIRECTION('',(0.E0,0.E0,-1.E0));
#1050=DIRECTION('',(0.E0,1.E0,0.E0));
#1051=AXIS2_PLACEMENT_3D('',#1048,#1049,#1050);
#1052=PLANE('',#1051);
#1053=ORIENTED_EDGE('',*,*,#941,.F.);
#1054=ORIENTED_EDGE('',*,*,#1035,.F.);
#1056=ORIENTED_EDGE('',*,*,#1055,.T.);
#1058=ORIENTED_EDGE('',*,*,#1057,.T.);
#1060=ORIENTED_EDGE('',*,*,#1059,.T.);
#1061=EDGE_LOOP('',(#1053,#1054,#1056,#1058,#1060));
#1062=FACE_OUTER_BOUND('',#1061,.F.);
#1064=FILL_AREA_STYLE_COLOUR('',#21);
#1065=FILL_AREA_STYLE('',(#1064));
#1066=SURFACE_STYLE_FILL_AREA(#1065);
#1067=SURFACE_SIDE_STYLE('',(#1066));
#1068=SURFACE_STYLE_USAGE(.BOTH.,#1067);
#1069=PRESENTATION_STYLE_ASSIGNMENT((#1068));
#1070=STYLED_ITEM('',(#1069),#1063);
#1071=CARTESIAN_POINT('',(0.E0,0.E0,-2.3E1));
#1072=DIRECTION('',(0.E0,0.E0,-1.E0));
#1073=DIRECTION('',(0.E0,1.E0,0.E0));
#1074=AXIS2_PLACEMENT_3D('',#1071,#1072,#1073);
#1075=PLANE('',#1074);
#1076=ORIENTED_EDGE('',*,*,#1021,.F.);
#1077=ORIENTED_EDGE('',*,*,#957,.F.);
#1079=ORIENTED_EDGE('',*,*,#1078,.T.);
#1081=ORIENTED_EDGE('',*,*,#1080,.T.);
#1083=ORIENTED_EDGE('',*,*,#1082,.T.);
#1084=EDGE_LOOP('',(#1076,#1077,#1079,#1081,#1083));
#1085=FACE_OUTER_BOUND('',#1084,.F.);
#1087=FILL_AREA_STYLE_COLOUR('',#21);
#1088=FILL_AREA_STYLE('',(#1087));
#1089=SURFACE_STYLE_FILL_AREA(#1088);
#1090=SURFACE_SIDE_STYLE('',(#1089));
#1091=SURFACE_STYLE_USAGE(.POSITIVE.,#1090);
#1092=PRESENTATION_STYLE_ASSIGNMENT((#1091));
#1093=STYLED_ITEM('',(#1092),#1086);
#1094=CARTESIAN_POINT('',(-8.957860352196E0,-2.E0,-2.3E1));
#1095=DIRECTION('',(0.E0,-1.E0,0.E0));
#1096=DIRECTION('',(-1.E0,0.E0,0.E0));
#1097=AXIS2_PLACEMENT_3D('',#1094,#1095,#1096);
#1098=PLANE('',#1097);
#1099=ORIENTED_EDGE('',*,*,#1033,.T.);
#1101=ORIENTED_EDGE('',*,*,#1100,.T.);
#1103=ORIENTED_EDGE('',*,*,#1102,.F.);
#1104=ORIENTED_EDGE('',*,*,#1055,.F.);
#1105=EDGE_LOOP('',(#1099,#1101,#1103,#1104));
#1106=FACE_OUTER_BOUND('',#1105,.F.);
#1108=FILL_AREA_STYLE_COLOUR('',#21);
#1109=FILL_AREA_STYLE('',(#1108));
#1110=SURFACE_STYLE_FILL_AREA(#1109);
#1111=SURFACE_SIDE_STYLE('',(#1110));
#1112=SURFACE_STYLE_USAGE(.BOTH.,#1111);
#1113=PRESENTATION_STYLE_ASSIGNMENT((#1112));
#1114=STYLED_ITEM('',(#1113),#1107);
#1115=CARTESIAN_POINT('',(0.E0,0.E0,-4.3E1));
#1116=DIRECTION('',(0.E0,0.E0,-1.E0));
#1117=DIRECTION('',(0.E0,1.E0,0.E0));
#1118=AXIS2_PLACEMENT_3D('',#1115,#1116,#1117);
#1119=PLANE('',#1118);
#1120=ORIENTED_EDGE('',*,*,#945,.T.);
#1122=ORIENTED_EDGE('',*,*,#1121,.F.);
#1124=ORIENTED_EDGE('',*,*,#1123,.F.);
#1125=ORIENTED_EDGE('',*,*,#1100,.F.);
#1126=ORIENTED_EDGE('',*,*,#1031,.T.);
#1127=EDGE_LOOP('',(#1120,#1122,#1124,#1125,#1126));
#1128=FACE_OUTER_BOUND('',#1127,.F.);
#1130=FILL_AREA_STYLE_COLOUR('',#21);
#1131=FILL_AREA_STYLE('',(#1130));
#1132=SURFACE_STYLE_FILL_AREA(#1131);
#1133=SURFACE_SIDE_STYLE('',(#1132));
#1134=SURFACE_STYLE_USAGE(.BOTH.,#1133);
#1135=PRESENTATION_STYLE_ASSIGNMENT((#1134));
#1136=STYLED_ITEM('',(#1135),#1129);
#1137=CARTESIAN_POINT('',(0.E0,0.E0,-4.3E1));
#1138=DIRECTION('',(0.E0,0.E0,-1.E0));
#1139=DIRECTION('',(0.E0,1.E0,0.E0));
#1140=AXIS2_PLACEMENT_3D('',#1137,#1138,#1139);
#1141=PLANE('',#1140);
#1142=ORIENTED_EDGE('',*,*,#1025,.T.);
#1144=ORIENTED_EDGE('',*,*,#1143,.F.);
#1146=ORIENTED_EDGE('',*,*,#1145,.F.);
#1148=ORIENTED_EDGE('',*,*,#1147,.F.);
#1149=ORIENTED_EDGE('',*,*,#953,.T.);
#1150=EDGE_LOOP('',(#1142,#1144,#1146,#1148,#1149));
#1151=FACE_OUTER_BOUND('',#1150,.F.);
#1153=FILL_AREA_STYLE_COLOUR('',#21);
#1154=FILL_AREA_STYLE('',(#1153));
#1155=SURFACE_STYLE_FILL_AREA(#1154);
#1156=SURFACE_SIDE_STYLE('',(#1155));
#1157=SURFACE_STYLE_USAGE(.POSITIVE.,#1156);
#1158=PRESENTATION_STYLE_ASSIGNMENT((#1157));
#1159=STYLED_ITEM('',(#1158),#1152);
#1160=CARTESIAN_POINT('',(-1.16E1,2.E0,-2.3E1));
#1161=DIRECTION('',(0.E0,1.E0,0.E0));
#1162=DIRECTION('',(1.E0,0.E0,0.E0));
#1163=AXIS2_PLACEMENT_3D('',#1160,#1161,#1162);
#1164=PLANE('',#1163);
#1165=ORIENTED_EDGE('',*,*,#943,.F.);
#1166=ORIENTED_EDGE('',*,*,#1059,.F.);
#1168=ORIENTED_EDGE('',*,*,#1167,.T.);
#1169=ORIENTED_EDGE('',*,*,#1121,.T.);
#1170=EDGE_LOOP('',(#1165,#1166,#1168,#1169));
#1171=FACE_OUTER_BOUND('',#1170,.F.);
#1173=FILL_AREA_STYLE_COLOUR('',#21);
#1174=FILL_AREA_STYLE('',(#1173));
#1175=SURFACE_STYLE_FILL_AREA(#1174);
#1176=SURFACE_SIDE_STYLE('',(#1175));
#1177=SURFACE_STYLE_USAGE(.BOTH.,#1176);
#1178=PRESENTATION_STYLE_ASSIGNMENT((#1177));
#1179=STYLED_ITEM('',(#1178),#1172);
#1180=CARTESIAN_POINT('',(-1.16E1,-2.E0,-2.3E1));
#1181=DIRECTION('',(-1.E0,0.E0,0.E0));
#1182=DIRECTION('',(0.E0,1.E0,0.E0));
#1183=AXIS2_PLACEMENT_3D('',#1180,#1181,#1182);
#1184=PLANE('',#1183);
#1185=ORIENTED_EDGE('',*,*,#1057,.F.);
#1186=ORIENTED_EDGE('',*,*,#1102,.T.);
#1187=ORIENTED_EDGE('',*,*,#1123,.T.);
#1188=ORIENTED_EDGE('',*,*,#1167,.F.);
#1189=EDGE_LOOP('',(#1185,#1186,#1187,#1188));
#1190=FACE_OUTER_BOUND('',#1189,.F.);
#1192=FILL_AREA_STYLE_COLOUR('',#21);
#1193=FILL_AREA_STYLE('',(#1192));
#1194=SURFACE_STYLE_FILL_AREA(#1193);
#1195=SURFACE_SIDE_STYLE('',(#1194));
#1196=SURFACE_STYLE_USAGE(.BOTH.,#1195);
#1197=PRESENTATION_STYLE_ASSIGNMENT((#1196));
#1198=STYLED_ITEM('',(#1197),#1191);
#1199=CARTESIAN_POINT('',(1.16E1,-2.E0,-2.3E1));
#1200=DIRECTION('',(0.E0,-1.E0,0.E0));
#1201=DIRECTION('',(-1.E0,0.E0,0.E0));
#1202=AXIS2_PLACEMENT_3D('',#1199,#1200,#1201);
#1203=PLANE('',#1202);
#1204=ORIENTED_EDGE('',*,*,#1023,.F.);
#1205=ORIENTED_EDGE('',*,*,#1082,.F.);
#1207=ORIENTED_EDGE('',*,*,#1206,.T.);
#1208=ORIENTED_EDGE('',*,*,#1143,.T.);
#1209=EDGE_LOOP('',(#1204,#1205,#1207,#1208));
#1210=FACE_OUTER_BOUND('',#1209,.F.);
#1212=FILL_AREA_STYLE_COLOUR('',#21);
#1213=FILL_AREA_STYLE('',(#1212));
#1214=SURFACE_STYLE_FILL_AREA(#1213);
#1215=SURFACE_SIDE_STYLE('',(#1214));
#1216=SURFACE_STYLE_USAGE(.BOTH.,#1215);
#1217=PRESENTATION_STYLE_ASSIGNMENT((#1216));
#1218=STYLED_ITEM('',(#1217),#1211);
#1219=CARTESIAN_POINT('',(1.16E1,2.E0,-2.3E1));
#1220=DIRECTION('',(1.E0,0.E0,0.E0));
#1221=DIRECTION('',(0.E0,-1.E0,0.E0));
#1222=AXIS2_PLACEMENT_3D('',#1219,#1220,#1221);
#1223=PLANE('',#1222);
#1224=ORIENTED_EDGE('',*,*,#1080,.F.);
#1226=ORIENTED_EDGE('',*,*,#1225,.T.);
#1227=ORIENTED_EDGE('',*,*,#1145,.T.);
#1228=ORIENTED_EDGE('',*,*,#1206,.F.);
#1229=EDGE_LOOP('',(#1224,#1226,#1227,#1228));
#1230=FACE_OUTER_BOUND('',#1229,.F.);
#1232=FILL_AREA_STYLE_COLOUR('',#21);
#1233=FILL_AREA_STYLE('',(#1232));
#1234=SURFACE_STYLE_FILL_AREA(#1233);
#1235=SURFACE_SIDE_STYLE('',(#1234));
#1236=SURFACE_STYLE_USAGE(.BOTH.,#1235);
#1237=PRESENTATION_STYLE_ASSIGNMENT((#1236));
#1238=STYLED_ITEM('',(#1237),#1231);
#1239=CARTESIAN_POINT('',(8.957860352196E0,2.E0,-2.3E1));
#1240=DIRECTION('',(0.E0,1.E0,0.E0));
#1241=DIRECTION('',(1.E0,0.E0,0.E0));
#1242=AXIS2_PLACEMENT_3D('',#1239,#1240,#1241);
#1243=PLANE('',#1242);
#1244=ORIENTED_EDGE('',*,*,#955,.T.);
#1245=ORIENTED_EDGE('',*,*,#1147,.T.);
#1246=ORIENTED_EDGE('',*,*,#1225,.F.);
#1247=ORIENTED_EDGE('',*,*,#1078,.F.);
#1248=EDGE_LOOP('',(#1244,#1245,#1246,#1247));
#1249=FACE_OUTER_BOUND('',#1248,.F.);
#1251=FILL_AREA_STYLE_COLOUR('',#21);
#1252=FILL_AREA_STYLE('',(#1251));
#1253=SURFACE_STYLE_FILL_AREA(#1252);
#1254=SURFACE_SIDE_STYLE('',(#1253));
#1255=SURFACE_STYLE_USAGE(.BOTH.,#1254);
#1256=PRESENTATION_STYLE_ASSIGNMENT((#1255));
#1257=STYLED_ITEM('',(#1256),#1250);
#1258=CARTESIAN_POINT('',(0.E0,1.069764998079E-14,-5.950000000055E1));
#1259=DIRECTION('',(0.E0,0.E0,1.E0));
#1260=DIRECTION('',(0.E0,-1.E0,0.E0));
#1261=AXIS2_PLACEMENT_3D('',#1258,#1259,#1260);
#1262=CONICAL_SURFACE('',#1261,9.499999999451E0,4.5E1);
#1264=ORIENTED_EDGE('',*,*,#1263,.T.);
#1266=ORIENTED_EDGE('',*,*,#1265,.T.);
#1267=ORIENTED_EDGE('',*,*,#1028,.F.);
#1269=ORIENTED_EDGE('',*,*,#1268,.F.);
#1270=EDGE_LOOP('',(#1264,#1266,#1267,#1269));
#1271=FACE_OUTER_BOUND('',#1270,.F.);
#1273=FILL_AREA_STYLE_COLOUR('',#21);
#1274=FILL_AREA_STYLE('',(#1273));
#1275=SURFACE_STYLE_FILL_AREA(#1274);
#1276=SURFACE_SIDE_STYLE('',(#1275));
#1277=SURFACE_STYLE_USAGE(.BOTH.,#1276);
#1278=PRESENTATION_STYLE_ASSIGNMENT((#1277));
#1279=STYLED_ITEM('',(#1278),#1272);
#1280=CARTESIAN_POINT('',(0.E0,0.E0,-6.E1));
#1281=DIRECTION('',(0.E0,0.E0,-1.E0));
#1282=DIRECTION('',(-1.E0,0.E0,0.E0));
#1283=AXIS2_PLACEMENT_3D('',#1280,#1281,#1282);
#1284=PLANE('',#1283);
#1285=ORIENTED_EDGE('',*,*,#1263,.F.);
#1287=ORIENTED_EDGE('',*,*,#1286,.F.);
#1288=EDGE_LOOP('',(#1285,#1287));
#1289=FACE_OUTER_BOUND('',#1288,.F.);
#1291=ORIENTED_EDGE('',*,*,#1290,.T.);
#1293=ORIENTED_EDGE('',*,*,#1292,.T.);
#1294=EDGE_LOOP('',(#1291,#1293));
#1295=FACE_BOUND('',#1294,.F.);
#1297=FILL_AREA_STYLE_COLOUR('',#21);
#1298=FILL_AREA_STYLE('',(#1297));
#1299=SURFACE_STYLE_FILL_AREA(#1298);
#1300=SURFACE_SIDE_STYLE('',(#1299));
#1301=SURFACE_STYLE_USAGE(.BOTH.,#1300);
#1302=PRESENTATION_STYLE_ASSIGNMENT((#1301));
#1303=STYLED_ITEM('',(#1302),#1296);
#1304=CARTESIAN_POINT('',(0.E0,0.E0,-6.E1));
#1305=DIRECTION('',(0.E0,0.E0,-1.E0));
#1306=DIRECTION('',(0.E0,1.E0,0.E0));
#1307=AXIS2_PLACEMENT_3D('',#1304,#1305,#1306);
#1308=CYLINDRICAL_SURFACE('',#1307,8.E0);
#1309=ORIENTED_EDGE('',*,*,#1290,.F.);
#1311=ORIENTED_EDGE('',*,*,#1310,.T.);
#1313=ORIENTED_EDGE('',*,*,#1312,.T.);
#1315=ORIENTED_EDGE('',*,*,#1314,.F.);
#1316=EDGE_LOOP('',(#1309,#1311,#1313,#1315));
#1317=FACE_OUTER_BOUND('',#1316,.F.);
#1319=FILL_AREA_STYLE_COLOUR('',#21);
#1320=FILL_AREA_STYLE('',(#1319));
#1321=SURFACE_STYLE_FILL_AREA(#1320);
#1322=SURFACE_SIDE_STYLE('',(#1321));
#1323=SURFACE_STYLE_USAGE(.BOTH.,#1322);
#1324=PRESENTATION_STYLE_ASSIGNMENT((#1323));
#1325=STYLED_ITEM('',(#1324),#1318);
#1326=CARTESIAN_POINT('',(0.E0,0.E0,-6.E1));
#1327=DIRECTION('',(0.E0,0.E0,-1.E0));
#1328=DIRECTION('',(0.E0,1.E0,0.E0));
#1329=AXIS2_PLACEMENT_3D('',#1326,#1327,#1328);
#1330=CYLINDRICAL_SURFACE('',#1329,8.E0);
#1331=ORIENTED_EDGE('',*,*,#1292,.F.);
#1332=ORIENTED_EDGE('',*,*,#1314,.T.);
#1334=ORIENTED_EDGE('',*,*,#1333,.T.);
#1335=ORIENTED_EDGE('',*,*,#1310,.F.);
#1336=EDGE_LOOP('',(#1331,#1332,#1334,#1335));
#1337=FACE_OUTER_BOUND('',#1336,.F.);
#1339=FILL_AREA_STYLE_COLOUR('',#21);
#1340=FILL_AREA_STYLE('',(#1339));
#1341=SURFACE_STYLE_FILL_AREA(#1340);
#1342=SURFACE_SIDE_STYLE('',(#1341));
#1343=SURFACE_STYLE_USAGE(.BOTH.,#1342);
#1344=PRESENTATION_STYLE_ASSIGNMENT((#1343));
#1345=STYLED_ITEM('',(#1344),#1338);
#1346=CARTESIAN_POINT('',(0.E0,0.E0,-6.06E1));
#1347=DIRECTION('',(0.E0,0.E0,-1.E0));
#1348=DIRECTION('',(0.E0,1.E0,0.E0));
#1349=AXIS2_PLACEMENT_3D('',#1346,#1347,#1348);
#1350=PLANE('',#1349);
#1351=ORIENTED_EDGE('',*,*,#1312,.F.);
#1352=ORIENTED_EDGE('',*,*,#1333,.F.);
#1353=EDGE_LOOP('',(#1351,#1352));
#1354=FACE_OUTER_BOUND('',#1353,.F.);
#1356=ORIENTED_EDGE('',*,*,#1355,.F.);
#1358=ORIENTED_EDGE('',*,*,#1357,.F.);
#1359=EDGE_LOOP('',(#1356,#1358));
#1360=FACE_BOUND('',#1359,.F.);
#1362=FILL_AREA_STYLE_COLOUR('',#21);
#1363=FILL_AREA_STYLE('',(#1362));
#1364=SURFACE_STYLE_FILL_AREA(#1363);
#1365=SURFACE_SIDE_STYLE('',(#1364));
#1366=SURFACE_STYLE_USAGE(.BOTH.,#1365);
#1367=PRESENTATION_STYLE_ASSIGNMENT((#1366));
#1368=STYLED_ITEM('',(#1367),#1361);
#1369=CARTESIAN_POINT('',(0.E0,0.E0,-6.E1));
#1370=DIRECTION('',(0.E0,0.E0,-1.E0));
#1371=DIRECTION('',(-1.E0,0.E0,0.E0));
#1372=AXIS2_PLACEMENT_3D('',#1369,#1370,#1371);
#1373=CYLINDRICAL_SURFACE('',#1372,6.E0);
#1375=ORIENTED_EDGE('',*,*,#1374,.T.);
#1377=ORIENTED_EDGE('',*,*,#1376,.F.);
#1378=ORIENTED_EDGE('',*,*,#1355,.T.);
#1380=ORIENTED_EDGE('',*,*,#1379,.T.);
#1381=EDGE_LOOP('',(#1375,#1377,#1378,#1380));
#1382=FACE_OUTER_BOUND('',#1381,.F.);
#1384=FILL_AREA_STYLE_COLOUR('',#21);
#1385=FILL_AREA_STYLE('',(#1384));
#1386=SURFACE_STYLE_FILL_AREA(#1385);
#1387=SURFACE_SIDE_STYLE('',(#1386));
#1388=SURFACE_STYLE_USAGE(.BOTH.,#1387);
#1389=PRESENTATION_STYLE_ASSIGNMENT((#1388));
#1390=STYLED_ITEM('',(#1389),#1383);
#1391=CARTESIAN_POINT('',(0.E0,0.E0,-7.060000000127E1));
#1392=DIRECTION('',(0.E0,0.E0,1.E0));
#1393=DIRECTION('',(0.E0,-1.E0,0.E0));
#1394=AXIS2_PLACEMENT_3D('',#1391,#1392,#1393);
#1395=CONICAL_SURFACE('',#1394,5.599999998733E0,4.5E1);
#1397=ORIENTED_EDGE('',*,*,#1396,.T.);
#1399=ORIENTED_EDGE('',*,*,#1398,.T.);
#1400=ORIENTED_EDGE('',*,*,#1374,.F.);
#1402=ORIENTED_EDGE('',*,*,#1401,.F.);
#1403=EDGE_LOOP('',(#1397,#1399,#1400,#1402));
#1404=FACE_OUTER_BOUND('',#1403,.F.);
#1406=FILL_AREA_STYLE_COLOUR('',#21);
#1407=FILL_AREA_STYLE('',(#1406));
#1408=SURFACE_STYLE_FILL_AREA(#1407);
#1409=SURFACE_SIDE_STYLE('',(#1408));
#1410=SURFACE_STYLE_USAGE(.BOTH.,#1409);
#1411=PRESENTATION_STYLE_ASSIGNMENT((#1410));
#1412=STYLED_ITEM('',(#1411),#1405);
#1413=CARTESIAN_POINT('',(0.E0,0.E0,-7.1E1));
#1414=DIRECTION('',(0.E0,0.E0,-1.E0));
#1415=DIRECTION('',(-1.E0,0.E0,0.E0));
#1416=AXIS2_PLACEMENT_3D('',#1413,#1414,#1415);
#1417=PLANE('',#1416);
#1419=ORIENTED_EDGE('',*,*,#1418,.F.);
#1420=ORIENTED_EDGE('',*,*,#1396,.F.);
#1421=EDGE_LOOP('',(#1419,#1420));
#1422=FACE_OUTER_BOUND('',#1421,.F.);
#1424=ORIENTED_EDGE('',*,*,#1423,.F.);
#1426=ORIENTED_EDGE('',*,*,#1425,.F.);
#1427=EDGE_LOOP('',(#1424,#1426));
#1428=FACE_BOUND('',#1427,.F.);
#1430=FILL_AREA_STYLE_COLOUR('',#21);
#1431=FILL_AREA_STYLE('',(#1430));
#1432=SURFACE_STYLE_FILL_AREA(#1431);
#1433=SURFACE_SIDE_STYLE('',(#1432));
#1434=SURFACE_STYLE_USAGE(.BOTH.,#1433);
#1435=PRESENTATION_STYLE_ASSIGNMENT((#1434));
#1436=STYLED_ITEM('',(#1435),#1429);
#1437=CARTESIAN_POINT('',(0.E0,0.E0,-6.E1));
#1438=DIRECTION('',(0.E0,0.E0,-1.E0));
#1439=DIRECTION('',(-1.E0,0.E0,0.E0));
#1440=AXIS2_PLACEMENT_3D('',#1437,#1438,#1439);
#1441=CYLINDRICAL_SURFACE('',#1440,4.E0);
#1443=ORIENTED_EDGE('',*,*,#1442,.T.);
#1445=ORIENTED_EDGE('',*,*,#1444,.T.);
#1446=ORIENTED_EDGE('',*,*,#1423,.T.);
#1448=ORIENTED_EDGE('',*,*,#1447,.T.);
#1449=EDGE_LOOP('',(#1443,#1445,#1446,#1448));
#1450=FACE_OUTER_BOUND('',#1449,.F.);
#1452=FILL_AREA_STYLE_COLOUR('',#21);
#1453=FILL_AREA_STYLE('',(#1452));
#1454=SURFACE_STYLE_FILL_AREA(#1453);
#1455=SURFACE_SIDE_STYLE('',(#1454));
#1456=SURFACE_STYLE_USAGE(.BOTH.,#1455);
#1457=PRESENTATION_STYLE_ASSIGNMENT((#1456));
#1458=STYLED_ITEM('',(#1457),#1451);
#1459=CARTESIAN_POINT('',(0.E0,0.E0,-5.75E1));
#1460=DIRECTION('',(0.E0,0.E0,-1.E0));
#1461=DIRECTION('',(0.E0,1.E0,0.E0));
#1462=AXIS2_PLACEMENT_3D('',#1459,#1460,#1461);
#1463=PLANE('',#1462);
#1465=ORIENTED_EDGE('',*,*,#1464,.T.);
#1467=ORIENTED_EDGE('',*,*,#1466,.T.);
#1468=EDGE_LOOP('',(#1465,#1467));
#1469=FACE_OUTER_BOUND('',#1468,.F.);
#1470=ORIENTED_EDGE('',*,*,#1442,.F.);
#1472=ORIENTED_EDGE('',*,*,#1471,.F.);
#1473=EDGE_LOOP('',(#1470,#1472));
#1474=FACE_BOUND('',#1473,.F.);
#1476=FILL_AREA_STYLE_COLOUR('',#21);
#1477=FILL_AREA_STYLE('',(#1476));
#1478=SURFACE_STYLE_FILL_AREA(#1477);
#1479=SURFACE_SIDE_STYLE('',(#1478));
#1480=SURFACE_STYLE_USAGE(.BOTH.,#1479);
#1481=PRESENTATION_STYLE_ASSIGNMENT((#1480));
#1482=STYLED_ITEM('',(#1481),#1475);
#1483=CARTESIAN_POINT('',(0.E0,0.E0,0.E0));
#1484=DIRECTION('',(0.E0,0.E0,-1.E0));
#1485=DIRECTION('',(-1.E0,0.E0,0.E0));
#1486=AXIS2_PLACEMENT_3D('',#1483,#1484,#1485);
#1487=CYLINDRICAL_SURFACE('',#1486,8.E0);
#1489=ORIENTED_EDGE('',*,*,#1488,.T.);
#1491=ORIENTED_EDGE('',*,*,#1490,.F.);
#1493=ORIENTED_EDGE('',*,*,#1492,.F.);
#1495=ORIENTED_EDGE('',*,*,#1494,.T.);
#1497=ORIENTED_EDGE('',*,*,#1496,.T.);
#1499=ORIENTED_EDGE('',*,*,#1498,.T.);
#1501=ORIENTED_EDGE('',*,*,#1500,.T.);
#1503=ORIENTED_EDGE('',*,*,#1502,.F.);
#1505=ORIENTED_EDGE('',*,*,#1504,.T.);
#1506=ORIENTED_EDGE('',*,*,#1464,.F.);
#1508=ORIENTED_EDGE('',*,*,#1507,.F.);
#1510=ORIENTED_EDGE('',*,*,#1509,.T.);
#1511=EDGE_LOOP('',(#1489,#1491,#1493,#1495,#1497,#1499,#1501,#1503,#1505,#1506,
#1508,#1510));
#1512=FACE_OUTER_BOUND('',#1511,.F.);
#1514=FILL_AREA_STYLE_COLOUR('',#21);
#1515=FILL_AREA_STYLE('',(#1514));
#1516=SURFACE_STYLE_FILL_AREA(#1515);
#1517=SURFACE_SIDE_STYLE('',(#1516));
#1518=SURFACE_STYLE_USAGE(.BOTH.,#1517);
#1519=PRESENTATION_STYLE_ASSIGNMENT((#1518));
#1520=STYLED_ITEM('',(#1519),#1513);
#1521=CARTESIAN_POINT('',(0.E0,0.E0,0.E0));
#1522=DIRECTION('',(0.E0,0.E0,-1.E0));
#1523=DIRECTION('',(-1.E0,0.E0,0.E0));
#1524=AXIS2_PLACEMENT_3D('',#1521,#1522,#1523);
#1525=CYLINDRICAL_SURFACE('',#1524,8.E0);
#1526=ORIENTED_EDGE('',*,*,#1500,.F.);
#1527=ORIENTED_EDGE('',*,*,#1498,.F.);
#1528=ORIENTED_EDGE('',*,*,#1496,.F.);
#1530=ORIENTED_EDGE('',*,*,#1529,.T.);
#1531=ORIENTED_EDGE('',*,*,#1492,.T.);
#1532=ORIENTED_EDGE('',*,*,#1490,.T.);
#1533=ORIENTED_EDGE('',*,*,#1488,.F.);
#1534=ORIENTED_EDGE('',*,*,#1509,.F.);
#1535=ORIENTED_EDGE('',*,*,#1507,.T.);
#1536=ORIENTED_EDGE('',*,*,#1466,.F.);
#1537=ORIENTED_EDGE('',*,*,#1504,.F.);
#1538=ORIENTED_EDGE('',*,*,#1502,.T.);
#1539=EDGE_LOOP('',(#1526,#1527,#1528,#1530,#1531,#1532,#1533,#1534,#1535,#1536,
#1537,#1538));
#1540=FACE_OUTER_BOUND('',#1539,.F.);
#1542=FILL_AREA_STYLE_COLOUR('',#21);
#1543=FILL_AREA_STYLE('',(#1542));
#1544=SURFACE_STYLE_FILL_AREA(#1543);
#1545=SURFACE_SIDE_STYLE('',(#1544));
#1546=SURFACE_STYLE_USAGE(.BOTH.,#1545);
#1547=PRESENTATION_STYLE_ASSIGNMENT((#1546));
#1548=STYLED_ITEM('',(#1547),#1541);
#1549=CARTESIAN_POINT('',(0.E0,0.E0,-8.5E0));
#1550=DIRECTION('',(0.E0,0.E0,-1.E0));
#1551=DIRECTION('',(0.E0,1.E0,0.E0));
#1552=AXIS2_PLACEMENT_3D('',#1549,#1550,#1551);
#1553=PLANE('',#1552);
#1554=ORIENTED_EDGE('',*,*,#1494,.F.);
#1555=ORIENTED_EDGE('',*,*,#1529,.F.);
#1556=EDGE_LOOP('',(#1554,#1555));
#1557=FACE_OUTER_BOUND('',#1556,.F.);
#1559=ORIENTED_EDGE('',*,*,#1558,.F.);
#1561=ORIENTED_EDGE('',*,*,#1560,.F.);
#1562=EDGE_LOOP('',(#1559,#1561));
#1563=FACE_BOUND('',#1562,.F.);
#1565=FILL_AREA_STYLE_COLOUR('',#21);
#1566=FILL_AREA_STYLE('',(#1565));
#1567=SURFACE_STYLE_FILL_AREA(#1566);
#1568=SURFACE_SIDE_STYLE('',(#1567));
#1569=SURFACE_STYLE_USAGE(.BOTH.,#1568);
#1570=PRESENTATION_STYLE_ASSIGNMENT((#1569));
#1571=STYLED_ITEM('',(#1570),#1564);
#1572=CARTESIAN_POINT('',(0.E0,0.E0,5.E0));
#1573=DIRECTION('',(0.E0,0.E0,1.E0));
#1574=DIRECTION('',(0.E0,-1.E0,0.E0));
#1575=AXIS2_PLACEMENT_3D('',#1572,#1573,#1574);
#1576=CYLINDRICAL_SURFACE('',#1575,4.E0);
#1577=ORIENTED_EDGE('',*,*,#1558,.T.);
#1579=ORIENTED_EDGE('',*,*,#1578,.F.);
#1581=ORIENTED_EDGE('',*,*,#1580,.T.);
#1583=ORIENTED_EDGE('',*,*,#1582,.F.);
#1584=EDGE_LOOP('',(#1577,#1579,#1581,#1583));
#1585=FACE_OUTER_BOUND('',#1584,.F.);
#1587=FILL_AREA_STYLE_COLOUR('',#21);
#1588=FILL_AREA_STYLE('',(#1587));
#1589=SURFACE_STYLE_FILL_AREA(#1588);
#1590=SURFACE_SIDE_STYLE('',(#1589));
#1591=SURFACE_STYLE_USAGE(.BOTH.,#1590);
#1592=PRESENTATION_STYLE_ASSIGNMENT((#1591));
#1593=STYLED_ITEM('',(#1592),#1586);
#1594=CARTESIAN_POINT('',(0.E0,0.E0,5.E0));
#1595=DIRECTION('',(0.E0,0.E0,1.E0));
#1596=DIRECTION('',(0.E0,-1.E0,0.E0));
#1597=AXIS2_PLACEMENT_3D('',#1594,#1595,#1596);
#1598=CYLINDRICAL_SURFACE('',#1597,4.E0);
#1599=ORIENTED_EDGE('',*,*,#1560,.T.);
#1600=ORIENTED_EDGE('',*,*,#1582,.T.);
#1602=ORIENTED_EDGE('',*,*,#1601,.T.);
#1603=ORIENTED_EDGE('',*,*,#1578,.T.);
#1604=EDGE_LOOP('',(#1599,#1600,#1602,#1603));
#1605=FACE_OUTER_BOUND('',#1604,.F.);
#1607=FILL_AREA_STYLE_COLOUR('',#21);
#1608=FILL_AREA_STYLE('',(#1607));
#1609=SURFACE_STYLE_FILL_AREA(#1608);
#1610=SURFACE_SIDE_STYLE('',(#1609));
#1611=SURFACE_STYLE_USAGE(.BOTH.,#1610);
#1612=PRESENTATION_STYLE_ASSIGNMENT((#1611));
#1613=STYLED_ITEM('',(#1612),#1606);
#1614=CARTESIAN_POINT('',(0.E0,0.E0,5.E0));
#1615=DIRECTION('',(0.E0,0.E0,1.E0));
#1616=DIRECTION('',(0.E0,-1.E0,0.E0));
#1617=AXIS2_PLACEMENT_3D('',#1614,#1615,#1616);
#1618=PLANE('',#1617);
#1620=ORIENTED_EDGE('',*,*,#1619,.F.);
#1622=ORIENTED_EDGE('',*,*,#1621,.F.);
#1623=EDGE_LOOP('',(#1620,#1622));
#1624=FACE_OUTER_BOUND('',#1623,.F.);
#1625=ORIENTED_EDGE('',*,*,#1580,.F.);
#1626=ORIENTED_EDGE('',*,*,#1601,.F.);
#1627=EDGE_LOOP('',(#1625,#1626));
#1628=FACE_BOUND('',#1627,.F.);
#1630=FILL_AREA_STYLE_COLOUR('',#21);
#1631=FILL_AREA_STYLE('',(#1630));
#1632=SURFACE_STYLE_FILL_AREA(#1631);
#1633=SURFACE_SIDE_STYLE('',(#1632));
#1634=SURFACE_STYLE_USAGE(.BOTH.,#1633);
#1635=PRESENTATION_STYLE_ASSIGNMENT((#1634));
#1636=STYLED_ITEM('',(#1635),#1629);
#1637=CARTESIAN_POINT('',(0.E0,0.E0,4.600000001267E0));
#1638=DIRECTION('',(0.E0,0.E0,-1.E0));
#1639=DIRECTION('',(0.E0,-1.E0,0.E0));
#1640=AXIS2_PLACEMENT_3D('',#1637,#1638,#1639);
#1641=CONICAL_SURFACE('',#1640,5.599999998733E0,4.5E1);
#1642=ORIENTED_EDGE('',*,*,#1619,.T.);
#1644=ORIENTED_EDGE('',*,*,#1643,.T.);
#1646=ORIENTED_EDGE('',*,*,#1645,.F.);
#1648=ORIENTED_EDGE('',*,*,#1647,.F.);
#1649=EDGE_LOOP('',(#1642,#1644,#1646,#1648));
#1650=FACE_OUTER_BOUND('',#1649,.F.);
#1652=FILL_AREA_STYLE_COLOUR('',#21);
#1653=FILL_AREA_STYLE('',(#1652));
#1654=SURFACE_STYLE_FILL_AREA(#1653);
#1655=SURFACE_SIDE_STYLE('',(#1654));
#1656=SURFACE_STYLE_USAGE(.BOTH.,#1655);
#1657=PRESENTATION_STYLE_ASSIGNMENT((#1656));
#1658=STYLED_ITEM('',(#1657),#1651);
#1659=CARTESIAN_POINT('',(0.E0,0.E0,4.600000001267E0));
#1660=DIRECTION('',(0.E0,0.E0,-1.E0));
#1661=DIRECTION('',(0.E0,-1.E0,0.E0));
#1662=AXIS2_PLACEMENT_3D('',#1659,#1660,#1661);
#1663=CONICAL_SURFACE('',#1662,5.599999998733E0,4.5E1);
#1664=ORIENTED_EDGE('',*,*,#1621,.T.);
#1665=ORIENTED_EDGE('',*,*,#1647,.T.);
#1667=ORIENTED_EDGE('',*,*,#1666,.F.);
#1668=ORIENTED_EDGE('',*,*,#1643,.F.);
#1669=EDGE_LOOP('',(#1664,#1665,#1667,#1668));
#1670=FACE_OUTER_BOUND('',#1669,.F.);
#1672=FILL_AREA_STYLE_COLOUR('',#21);
#1673=FILL_AREA_STYLE('',(#1672));
#1674=SURFACE_STYLE_FILL_AREA(#1673);
#1675=SURFACE_SIDE_STYLE('',(#1674));
#1676=SURFACE_STYLE_USAGE(.BOTH.,#1675);
#1677=PRESENTATION_STYLE_ASSIGNMENT((#1676));
#1678=STYLED_ITEM('',(#1677),#1671);
#1679=CARTESIAN_POINT('',(0.E0,0.E0,5.E0));
#1680=DIRECTION('',(0.E0,0.E0,1.E0));
#1681=DIRECTION('',(0.E0,-1.E0,0.E0));
#1682=AXIS2_PLACEMENT_3D('',#1679,#1680,#1681);
#1683=CYLINDRICAL_SURFACE('',#1682,6.E0);
#1684=ORIENTED_EDGE('',*,*,#1666,.T.);
#1686=ORIENTED_EDGE('',*,*,#1685,.T.);
#1688=ORIENTED_EDGE('',*,*,#1687,.F.);
#1690=ORIENTED_EDGE('',*,*,#1689,.F.);
#1691=EDGE_LOOP('',(#1684,#1686,#1688,#1690));
#1692=FACE_OUTER_BOUND('',#1691,.F.);
#1694=FILL_AREA_STYLE_COLOUR('',#21);
#1695=FILL_AREA_STYLE('',(#1694));
#1696=SURFACE_STYLE_FILL_AREA(#1695);
#1697=SURFACE_SIDE_STYLE('',(#1696));
#1698=SURFACE_STYLE_USAGE(.BOTH.,#1697);
#1699=PRESENTATION_STYLE_ASSIGNMENT((#1698));
#1700=STYLED_ITEM('',(#1699),#1693);
#1701=CARTESIAN_POINT('',(0.E0,0.E0,5.E0));
#1702=DIRECTION('',(0.E0,0.E0,1.E0));
#1703=DIRECTION('',(0.E0,-1.E0,0.E0));
#1704=AXIS2_PLACEMENT_3D('',#1701,#1702,#1703);
#1705=CYLINDRICAL_SURFACE('',#1704,6.E0);
#1706=ORIENTED_EDGE('',*,*,#1645,.T.);
#1707=ORIENTED_EDGE('',*,*,#1689,.T.);
#1709=ORIENTED_EDGE('',*,*,#1708,.F.);
#1710=ORIENTED_EDGE('',*,*,#1685,.F.);
#1711=EDGE_LOOP('',(#1706,#1707,#1709,#1710));
#1712=FACE_OUTER_BOUND('',#1711,.F.);
#1714=FILL_AREA_STYLE_COLOUR('',#21);
#1715=FILL_AREA_STYLE('',(#1714));
#1716=SURFACE_STYLE_FILL_AREA(#1715);
#1717=SURFACE_SIDE_STYLE('',(#1716));
#1718=SURFACE_STYLE_USAGE(.BOTH.,#1717);
#1719=PRESENTATION_STYLE_ASSIGNMENT((#1718));
#1720=STYLED_ITEM('',(#1719),#1713);
#1721=CARTESIAN_POINT('',(0.E0,0.E0,-5.4E0));
#1722=DIRECTION('',(0.E0,0.E0,1.E0));
#1723=DIRECTION('',(0.E0,-1.E0,0.E0));
#1724=AXIS2_PLACEMENT_3D('',#1721,#1722,#1723);
#1725=PLANE('',#1724);
#1727=ORIENTED_EDGE('',*,*,#1726,.F.);
#1729=ORIENTED_EDGE('',*,*,#1728,.F.);
#1730=EDGE_LOOP('',(#1727,#1729));
#1731=FACE_OUTER_BOUND('',#1730,.F.);
#1732=ORIENTED_EDGE('',*,*,#1687,.T.);
#1733=ORIENTED_EDGE('',*,*,#1708,.T.);
#1734=EDGE_LOOP('',(#1732,#1733));
#1735=FACE_BOUND('',#1734,.F.);
#1737=FILL_AREA_STYLE_COLOUR('',#21);
#1738=FILL_AREA_STYLE('',(#1737));
#1739=SURFACE_STYLE_FILL_AREA(#1738);
#1740=SURFACE_SIDE_STYLE('',(#1739));
#1741=SURFACE_STYLE_USAGE(.BOTH.,#1740);
#1742=PRESENTATION_STYLE_ASSIGNMENT((#1741));
#1743=STYLED_ITEM('',(#1742),#1736);
#1744=CARTESIAN_POINT('',(0.E0,0.E0,-6.E0));
#1745=DIRECTION('',(0.E0,0.E0,1.E0));
#1746=DIRECTION('',(0.E0,-1.E0,0.E0));
#1747=AXIS2_PLACEMENT_3D('',#1744,#1745,#1746);
#1748=CYLINDRICAL_SURFACE('',#1747,8.E0);
#1750=ORIENTED_EDGE('',*,*,#1749,.F.);
#1752=ORIENTED_EDGE('',*,*,#1751,.T.);
#1753=ORIENTED_EDGE('',*,*,#1726,.T.);
#1755=ORIENTED_EDGE('',*,*,#1754,.F.);
#1756=EDGE_LOOP('',(#1750,#1752,#1753,#1755));
#1757=FACE_OUTER_BOUND('',#1756,.F.);
#1759=FILL_AREA_STYLE_COLOUR('',#21);
#1760=FILL_AREA_STYLE('',(#1759));
#1761=SURFACE_STYLE_FILL_AREA(#1760);
#1762=SURFACE_SIDE_STYLE('',(#1761));
#1763=SURFACE_STYLE_USAGE(.BOTH.,#1762);
#1764=PRESENTATION_STYLE_ASSIGNMENT((#1763));
#1765=STYLED_ITEM('',(#1764),#1758);
#1766=CARTESIAN_POINT('',(0.E0,0.E0,-6.E0));
#1767=DIRECTION('',(0.E0,0.E0,-1.E0));
#1768=DIRECTION('',(0.E0,1.E0,0.E0));
#1769=AXIS2_PLACEMENT_3D('',#1766,#1767,#1768);
#1770=PLANE('',#1769);
#1771=ORIENTED_EDGE('',*,*,#1001,.T.);
#1772=ORIENTED_EDGE('',*,*,#979,.T.);
#1773=EDGE_LOOP('',(#1771,#1772));
#1774=FACE_OUTER_BOUND('',#1773,.F.);
#1775=ORIENTED_EDGE('',*,*,#1749,.T.);
#1777=ORIENTED_EDGE('',*,*,#1776,.T.);
#1778=EDGE_LOOP('',(#1775,#1777));
#1779=FACE_BOUND('',#1778,.F.);
#1781=FILL_AREA_STYLE_COLOUR('',#21);
#1782=FILL_AREA_STYLE('',(#1781));
#1783=SURFACE_STYLE_FILL_AREA(#1782);
#1784=SURFACE_SIDE_STYLE('',(#1783));
#1785=SURFACE_STYLE_USAGE(.BOTH.,#1784);
#1786=PRESENTATION_STYLE_ASSIGNMENT((#1785));
#1787=STYLED_ITEM('',(#1786),#1780);
#1788=CARTESIAN_POINT('',(0.E0,0.E0,-6.E0));
#1789=DIRECTION('',(0.E0,0.E0,1.E0));
#1790=DIRECTION('',(0.E0,-1.E0,0.E0));
#1791=AXIS2_PLACEMENT_3D('',#1788,#1789,#1790);
#1792=CYLINDRICAL_SURFACE('',#1791,8.E0);
#1793=ORIENTED_EDGE('',*,*,#1776,.F.);
#1794=ORIENTED_EDGE('',*,*,#1754,.T.);
#1795=ORIENTED_EDGE('',*,*,#1728,.T.);
#1796=ORIENTED_EDGE('',*,*,#1751,.F.);
#1797=EDGE_LOOP('',(#1793,#1794,#1795,#1796));
#1798=FACE_OUTER_BOUND('',#1797,.F.);
#1800=FILL_AREA_STYLE_COLOUR('',#21);
#1801=FILL_AREA_STYLE('',(#1800));
#1802=SURFACE_STYLE_FILL_AREA(#1801);
#1803=SURFACE_SIDE_STYLE('',(#1802));
#1804=SURFACE_STYLE_USAGE(.BOTH.,#1803);
#1805=PRESENTATION_STYLE_ASSIGNMENT((#1804));
#1806=STYLED_ITEM('',(#1805),#1799);
#1807=CARTESIAN_POINT('',(0.E0,0.E0,-6.E1));
#1808=DIRECTION('',(0.E0,0.E0,-1.E0));
#1809=DIRECTION('',(-1.E0,0.E0,0.E0));
#1810=AXIS2_PLACEMENT_3D('',#1807,#1808,#1809);
#1811=CYLINDRICAL_SURFACE('',#1810,4.E0);
#1812=ORIENTED_EDGE('',*,*,#1471,.T.);
#1813=ORIENTED_EDGE('',*,*,#1447,.F.);
#1814=ORIENTED_EDGE('',*,*,#1425,.T.);
#1815=ORIENTED_EDGE('',*,*,#1444,.F.);
#1816=EDGE_LOOP('',(#1812,#1813,#1814,#1815));
#1817=FACE_OUTER_BOUND('',#1816,.F.);
#1819=FILL_AREA_STYLE_COLOUR('',#21);
#1820=FILL_AREA_STYLE('',(#1819));
#1821=SURFACE_STYLE_FILL_AREA(#1820);
#1822=SURFACE_SIDE_STYLE('',(#1821));
#1823=SURFACE_STYLE_USAGE(.BOTH.,#1822);
#1824=PRESENTATION_STYLE_ASSIGNMENT((#1823));
#1825=STYLED_ITEM('',(#1824),#1818);
#1826=CARTESIAN_POINT('',(0.E0,0.E0,-7.060000000127E1));
#1827=DIRECTION('',(0.E0,0.E0,1.E0));
#1828=DIRECTION('',(0.E0,-1.E0,0.E0));
#1829=AXIS2_PLACEMENT_3D('',#1826,#1827,#1828);
#1830=CONICAL_SURFACE('',#1829,5.599999998733E0,4.5E1);
#1831=ORIENTED_EDGE('',*,*,#1418,.T.);
#1832=ORIENTED_EDGE('',*,*,#1401,.T.);
#1834=ORIENTED_EDGE('',*,*,#1833,.F.);
#1835=ORIENTED_EDGE('',*,*,#1398,.F.);
#1836=EDGE_LOOP('',(#1831,#1832,#1834,#1835));
#1837=FACE_OUTER_BOUND('',#1836,.F.);
#1839=FILL_AREA_STYLE_COLOUR('',#21);
#1840=FILL_AREA_STYLE('',(#1839));
#1841=SURFACE_STYLE_FILL_AREA(#1840);
#1842=SURFACE_SIDE_STYLE('',(#1841));
#1843=SURFACE_STYLE_USAGE(.BOTH.,#1842);
#1844=PRESENTATION_STYLE_ASSIGNMENT((#1843));
#1845=STYLED_ITEM('',(#1844),#1838);
#1846=CARTESIAN_POINT('',(0.E0,0.E0,-6.E1));
#1847=DIRECTION('',(0.E0,0.E0,-1.E0));
#1848=DIRECTION('',(-1.E0,0.E0,0.E0));
#1849=AXIS2_PLACEMENT_3D('',#1846,#1847,#1848);
#1850=CYLINDRICAL_SURFACE('',#1849,6.E0);
#1851=ORIENTED_EDGE('',*,*,#1833,.T.);
#1852=ORIENTED_EDGE('',*,*,#1379,.F.);
#1853=ORIENTED_EDGE('',*,*,#1357,.T.);
#1854=ORIENTED_EDGE('',*,*,#1376,.T.);
#1855=EDGE_LOOP('',(#1851,#1852,#1853,#1854));
#1856=FACE_OUTER_BOUND('',#1855,.F.);
#1858=FILL_AREA_STYLE_COLOUR('',#21);
#1859=FILL_AREA_STYLE('',(#1858));
#1860=SURFACE_STYLE_FILL_AREA(#1859);
#1861=SURFACE_SIDE_STYLE('',(#1860));
#1862=SURFACE_STYLE_USAGE(.BOTH.,#1861);
#1863=PRESENTATION_STYLE_ASSIGNMENT((#1862));
#1864=STYLED_ITEM('',(#1863),#1857);
#1865=CARTESIAN_POINT('',(0.E0,0.E0,-5.950000000055E1));
#1866=DIRECTION('',(0.E0,0.E0,1.E0));
#1867=DIRECTION('',(0.E0,-1.E0,0.E0));
#1868=AXIS2_PLACEMENT_3D('',#1865,#1866,#1867);
#1869=CONICAL_SURFACE('',#1868,9.499999999451E0,4.5E1);
#1870=ORIENTED_EDGE('',*,*,#1286,.T.);
#1871=ORIENTED_EDGE('',*,*,#1268,.T.);
#1872=ORIENTED_EDGE('',*,*,#949,.F.);
#1873=ORIENTED_EDGE('',*,*,#1265,.F.);
#1874=EDGE_LOOP('',(#1870,#1871,#1872,#1873));
#1875=FACE_OUTER_BOUND('',#1874,.F.);
#1877=FILL_AREA_STYLE_COLOUR('',#21);
#1878=FILL_AREA_STYLE('',(#1877));
#1879=SURFACE_STYLE_FILL_AREA(#1878);
#1880=SURFACE_SIDE_STYLE('',(#1879));
#1881=SURFACE_STYLE_USAGE(.BOTH.,#1880);
#1882=PRESENTATION_STYLE_ASSIGNMENT((#1881));
#1883=STYLED_ITEM('',(#1882),#1876);
#1884=CLOSED_SHELL('',(#963,#985,#1006,#1040,#1063,#1086,#1107,#1129,#1152,
#1172,#1191,#1211,#1231,#1250,#1272,#1296,#1318,#1338,#1361,#1383,#1405,#1429,
#1451,#1475,#1513,#1541,#1564,#1586,#1606,#1629,#1651,#1671,#1693,#1713,#1736,
#1758,#1780,#1799,#1818,#1838,#1857,#1876));
#1885=MANIFOLD_SOLID_BREP('',#1884);
#1886=FILL_AREA_STYLE_COLOUR('',#21);
#1887=FILL_AREA_STYLE('',(#1886));
#1888=SURFACE_STYLE_FILL_AREA(#1887);
#1889=SURFACE_SIDE_STYLE('',(#1888));
#1890=SURFACE_STYLE_USAGE(.BOTH.,#1889);
#1891=PRESENTATION_STYLE_ASSIGNMENT((#1890));
#28=STYLED_ITEM('',(#1891),#1885);
#1894=PLANE_ANGLE_MEASURE_WITH_UNIT(PLANE_ANGLE_MEASURE(1.745329251994E-2),
#1893);
#1895=(CONVERSION_BASED_UNIT('DEGREE',#1894)NAMED_UNIT(*)PLANE_ANGLE_UNIT());
#1897=UNCERTAINTY_MEASURE_WITH_UNIT(LENGTH_MEASURE(8.994030149943E-3),#1892,
'distance_accuracy_value',
'Maximum model space distance between geometric entities at asserted connectivities');
#1899=CARTESIAN_POINT('',(0.E0,0.E0,0.E0));
#1900=DIRECTION('',(0.E0,0.E0,1.E0));
#1901=DIRECTION('',(1.E0,0.E0,0.E0));
#1904=MECHANICAL_DESIGN_GEOMETRIC_PRESENTATION_REPRESENTATION('',(#37,#44,#52,
#59,#67,#74,#82,#90,#97,#105,#112,#119,#127,#134,#142,#149,#157,#164,#172,#180,
#187,#195,#202,#209,#216,#223,#230,#237,#244,#251,#258,#265,#272,#279,#286,#293,
#300,#307,#314,#322,#330,#338,#346,#353,#360,#368,#376,#384,#392,#399,#406,#414,
#422,#430,#438,#446,#453,#460,#468,#476,#483,#490,#498,#505,#513,#520,#527,#535,
#543,#550,#558,#566,#574,#582,#589,#596,#604,#612,#620,#628,#635,#642,#650,#658,
#665,#673,#681,#688,#696,#704,#711,#719,#727,#735,#743,#750,#758,#765,#773,#781,
#788,#795,#970,#992,#1013,#1047,#1070,#1093,#1114,#1136,#1159,#1179,#1198,#1218,
#1238,#1257,#1279,#1303,#1325,#1345,#1368,#1390,#1412,#1436,#1458,#1482,#1520,
#1548,#1571,#1593,#1613,#1636,#1658,#1678,#1700,#1720,#1743,#1765,#1787,#1806,
#1825,#1845,#1864,#1883,#28),#1898);
#1905=APPLICATION_CONTEXT('automotive_design');
#1906=APPLICATION_PROTOCOL_DEFINITION('international standard',
'automotive_design',2001,#1905);
#1907=PRODUCT_DEFINITION_CONTEXT('part definition',#1905,'design');
#1908=PRODUCT_CONTEXT('',#1905,'mechanical');
#1909=PRODUCT('WHEEL2','WHEEL2','NOT SPECIFIED',(#1908));
#1910=PRODUCT_DEFINITION_FORMATION('18','LAST_VERSION',#1909);
#1918=DERIVED_UNIT_ELEMENT(#1917,2.E0);
#1919=DERIVED_UNIT((#1918));
#1920=MEASURE_REPRESENTATION_ITEM('surface area measure',AREA_MEASURE(
8.264889268399E3),#1919);
#1925=DERIVED_UNIT_ELEMENT(#1924,3.E0);
#1926=DERIVED_UNIT((#1925));
#1927=MEASURE_REPRESENTATION_ITEM('volume measure',VOLUME_MEASURE(
8.532035782595E3),#1926);
#1931=CARTESIAN_POINT('centre point',(-2.567850009427E-12,0.E0,
-3.300000006927E1));
#1936=DERIVED_UNIT_ELEMENT(#1935,2.E0);
#1937=DERIVED_UNIT((#1936));
#1938=MEASURE_REPRESENTATION_ITEM('surface area measure',AREA_MEASURE(
8.264889268399E3),#1937);
#1943=DERIVED_UNIT_ELEMENT(#1942,3.E0);
#1944=DERIVED_UNIT((#1943));
#1945=MEASURE_REPRESENTATION_ITEM('volume measure',VOLUME_MEASURE(
8.532035782595E3),#1944);
#1949=CARTESIAN_POINT('centre point',(-2.567850009427E-12,0.E0,
-3.300000006927E1));
#1=DRAUGHTING_PRE_DEFINED_COLOUR('green');
#2=DRAUGHTING_PRE_DEFINED_COLOUR('green');
#3=DRAUGHTING_PRE_DEFINED_COLOUR('green');
#4=COLOUR_RGB('',1.1E-2,1.2E-2,1.E0);
#5=COLOUR_RGB('',1.1E-2,1.2E-2,1.E0);
#6=COLOUR_RGB('',4.1E-1,2.61589E-1,1.12848E-1);
#7=COLOUR_RGB('',5.04854E-1,1.5455E-2,1.5455E-2);
#8=COLOUR_RGB('',6.35294E-1,6.86275E-1,7.4902E-1);
#9=COLOUR_RGB('',6.40777E-1,6.40777E-1,6.40777E-1);
#10=COLOUR_RGB('',6.66667E-1,6.66667E-1,6.66667E-1);
#11=COLOUR_RGB('',6.69062E-1,6.69903E-1,6.55217E-1);
#12=COLOUR_RGB('',7.45098E-1,3.92157E-1,2.94118E-1);
#13=COLOUR_RGB('',8.03922E-1,5.88235E-1,1.96078E-1);
#14=COLOUR_RGB('',9.21569E-1,7.05882E-1,4.70588E-1);
#15=DRAUGHTING_PRE_DEFINED_COLOUR('red');
#16=DRAUGHTING_PRE_DEFINED_COLOUR('red');
#17=DRAUGHTING_PRE_DEFINED_COLOUR('red');
#18=DRAUGHTING_PRE_DEFINED_COLOUR('red');
#19=DRAUGHTING_PRE_DEFINED_COLOUR('red');
#20=DRAUGHTING_PRE_DEFINED_COLOUR('red');
#21=DRAUGHTING_PRE_DEFINED_COLOUR('red');
#22=DRAUGHTING_PRE_DEFINED_COLOUR('yellow');
#23=DRAUGHTING_PRE_DEFINED_COLOUR('yellow');
#24=COLOUR_RGB('',1.E0,1.E0,5.3E-1);
#25=COLOUR_RGB('',1.E0,1.E0,9.49E-1);
#26=COLOUR_RGB('',1.E0,1.E0,9.49E-1);
#27=DRAUGHTING_PRE_DEFINED_COLOUR('white');
#33=CIRCLE('',#32,1.E1);
#49=CIRCLE('',#48,1.E1);
#64=CIRCLE('',#63,1.E1);
#79=CIRCLE('',#78,1.E1);
#87=CIRCLE('',#86,1.E1);
#102=CIRCLE('',#101,1.E1);
#124=CIRCLE('',#123,1.E1);
#139=CIRCLE('',#138,1.E1);
#154=CIRCLE('',#153,1.E1);
#169=CIRCLE('',#168,1.E1);
#177=CIRCLE('',#176,1.E1);
#192=CIRCLE('',#191,1.E1);
#319=CIRCLE('',#318,8.E0);
#327=CIRCLE('',#326,8.E0);
#335=CIRCLE('',#334,9.E0);
#343=CIRCLE('',#342,9.E0);
#365=CIRCLE('',#364,8.E0);
#373=CIRCLE('',#372,8.E0);
#381=CIRCLE('',#380,6.E0);
#389=CIRCLE('',#388,6.E0);
#411=CIRCLE('',#410,4.E0);
#419=CIRCLE('',#418,4.E0);
#427=CIRCLE('',#426,5.2E0);
#435=CIRCLE('',#434,5.2E0);
#443=CIRCLE('',#442,4.E0);
#465=CIRCLE('',#464,8.E0);
#473=CIRCLE('',#472,8.E0);
#495=CIRCLE('',#494,8.E0);
#510=CIRCLE('',#509,8.E0);
#532=CIRCLE('',#531,8.E0);
#540=CIRCLE('',#539,8.E0);
#555=CIRCLE('',#554,8.E0);
#563=CIRCLE('',#562,8.E0);
#571=CIRCLE('',#570,4.E0);
#579=CIRCLE('',#578,4.E0);
#601=CIRCLE('',#600,4.E0);
#609=CIRCLE('',#608,4.E0);
#617=CIRCLE('',#616,5.2E0);
#625=CIRCLE('',#624,5.2E0);
#647=CIRCLE('',#646,6.E0);
#655=CIRCLE('',#654,6.E0);
#670=CIRCLE('',#669,6.E0);
#678=CIRCLE('',#677,6.E0);
#693=CIRCLE('',#692,8.E0);
#701=CIRCLE('',#700,8.E0);
#716=CIRCLE('',#715,8.E0);
#724=CIRCLE('',#723,8.E0);
#732=CIRCLE('',#731,9.E0);
#740=CIRCLE('',#739,9.E0);
#755=CIRCLE('',#754,4.E0);
#770=CIRCLE('',#769,6.E0);
#778=CIRCLE('',#777,6.E0);
#937=EDGE_CURVE('',#919,#918,#33,.T.);
#939=EDGE_CURVE('',#919,#810,#41,.T.);
#941=EDGE_CURVE('',#810,#811,#49,.T.);
#943=EDGE_CURVE('',#811,#815,#56,.T.);
#945=EDGE_CURVE('',#814,#815,#64,.T.);
#947=EDGE_CURVE('',#814,#931,#71,.T.);
#949=EDGE_CURVE('',#931,#930,#79,.T.);
#951=EDGE_CURVE('',#826,#930,#161,.T.);
#953=EDGE_CURVE('',#819,#826,#87,.T.);
#955=EDGE_CURVE('',#818,#819,#94,.T.);
#957=EDGE_CURVE('',#818,#822,#102,.T.);
#959=EDGE_CURVE('',#918,#822,#131,.T.);
#963=ADVANCED_FACE('',(#962),#936,.T.);
#977=EDGE_CURVE('',#918,#922,#116,.T.);
#979=EDGE_CURVE('',#923,#922,#740,.T.);
#981=EDGE_CURVE('',#919,#923,#109,.T.);
#985=ADVANCED_FACE('',(#984),#975,.T.);
#998=EDGE_CURVE('',#918,#919,#124,.T.);
#1001=EDGE_CURVE('',#922,#923,#732,.T.);
#1006=ADVANCED_FACE('',(#1005),#997,.T.);
#1021=EDGE_CURVE('',#822,#823,#139,.T.);
#1023=EDGE_CURVE('',#823,#827,#146,.T.);
#1025=EDGE_CURVE('',#826,#827,#154,.T.);
#1028=EDGE_CURVE('',#930,#931,#169,.T.);
#1031=EDGE_CURVE('',#839,#814,#177,.T.);
#1033=EDGE_CURVE('',#837,#839,#184,.T.);
#1035=EDGE_CURVE('',#837,#810,#192,.T.);
#1040=ADVANCED_FACE('',(#1039),#1018,.T.);
#1055=EDGE_CURVE('',#837,#830,#199,.T.);
#1057=EDGE_CURVE('',#830,#831,#206,.T.);
#1059=EDGE_CURVE('',#831,#811,#213,.T.);
#1063=ADVANCED_FACE('',(#1062),#1052,.F.);
#1078=EDGE_CURVE('',#818,#802,#220,.T.);
#1080=EDGE_CURVE('',#802,#803,#227,.T.);
#1082=EDGE_CURVE('',#803,#823,#234,.T.);
#1086=ADVANCED_FACE('',(#1085),#1075,.F.);
#1100=EDGE_CURVE('',#839,#834,#255,.T.);
#1102=EDGE_CURVE('',#830,#834,#290,.T.);
#1107=ADVANCED_FACE('',(#1106),#1098,.T.);
#1121=EDGE_CURVE('',#835,#815,#241,.T.);
#1123=EDGE_CURVE('',#834,#835,#248,.T.);
#1129=ADVANCED_FACE('',(#1128),#1119,.T.);
#1143=EDGE_CURVE('',#807,#827,#262,.T.);
#1145=EDGE_CURVE('',#806,#807,#269,.T.);
#1147=EDGE_CURVE('',#819,#806,#276,.T.);
#1152=ADVANCED_FACE('',(#1151),#1141,.T.);
#1167=EDGE_CURVE('',#831,#835,#283,.T.);
#1172=ADVANCED_FACE('',(#1171),#1164,.T.);
#1191=ADVANCED_FACE('',(#1190),#1184,.T.);
#1206=EDGE_CURVE('',#803,#807,#297,.T.);
#1211=ADVANCED_FACE('',(#1210),#1203,.T.);
#1225=EDGE_CURVE('',#802,#806,#304,.T.);
#1231=ADVANCED_FACE('',(#1230),#1223,.T.);
#1250=ADVANCED_FACE('',(#1249),#1243,.T.);
#1263=EDGE_CURVE('',#926,#927,#335,.T.);
#1265=EDGE_CURVE('',#927,#931,#792,.T.);
#1268=EDGE_CURVE('',#926,#930,#311,.T.);
#1272=ADVANCED_FACE('',(#1271),#1262,.T.);
#1286=EDGE_CURVE('',#927,#926,#343,.T.);
#1290=EDGE_CURVE('',#862,#863,#319,.T.);
#1292=EDGE_CURVE('',#863,#862,#327,.T.);
#1296=ADVANCED_FACE('',(#1289,#1295),#1284,.T.);
#1310=EDGE_CURVE('',#862,#858,#350,.T.);
#1312=EDGE_CURVE('',#858,#859,#365,.T.);
#1314=EDGE_CURVE('',#863,#859,#357,.T.);
#1318=ADVANCED_FACE('',(#1317),#1308,.T.);
#1333=EDGE_CURVE('',#859,#858,#373,.T.);
#1338=ADVANCED_FACE('',(#1337),#1330,.T.);
#1355=EDGE_CURVE('',#866,#867,#389,.T.);
#1357=EDGE_CURVE('',#867,#866,#778,.T.);
#1361=ADVANCED_FACE('',(#1354,#1360),#1350,.T.);
#1374=EDGE_CURVE('',#875,#874,#381,.T.);
#1376=EDGE_CURVE('',#866,#874,#785,.T.);
#1379=EDGE_CURVE('',#867,#875,#396,.T.);
#1383=ADVANCED_FACE('',(#1382),#1373,.T.);
#1396=EDGE_CURVE('',#871,#870,#435,.T.);
#1398=EDGE_CURVE('',#870,#874,#762,.T.);
#1401=EDGE_CURVE('',#871,#875,#403,.T.);
#1405=ADVANCED_FACE('',(#1404),#1395,.T.);
#1418=EDGE_CURVE('',#870,#871,#427,.T.);
#1423=EDGE_CURVE('',#798,#799,#411,.T.);
#1425=EDGE_CURVE('',#799,#798,#419,.T.);
#1429=ADVANCED_FACE('',(#1422,#1428),#1417,.T.);
#1442=EDGE_CURVE('',#894,#895,#443,.T.);
#1444=EDGE_CURVE('',#895,#798,#450,.T.);
#1447=EDGE_CURVE('',#799,#894,#457,.T.);
#1451=ADVANCED_FACE('',(#1450),#1441,.F.);
#1464=EDGE_CURVE('',#890,#891,#465,.T.);
#1466=EDGE_CURVE('',#891,#890,#473,.T.);
#1471=EDGE_CURVE('',#895,#894,#755,.T.);
#1475=ADVANCED_FACE('',(#1469,#1474),#1463,.F.);
#1488=EDGE_CURVE('',#899,#911,#480,.T.);
#1490=EDGE_CURVE('',#910,#911,#532,.T.);
#1492=EDGE_CURVE('',#886,#910,#487,.T.);
#1494=EDGE_CURVE('',#886,#887,#555,.T.);
#1496=EDGE_CURVE('',#887,#914,#524,.T.);
#1498=EDGE_CURVE('',#914,#915,#495,.T.);
#1500=EDGE_CURVE('',#915,#903,#502,.T.);
#1502=EDGE_CURVE('',#902,#903,#510,.T.);
#1504=EDGE_CURVE('',#902,#891,#547,.T.);
#1507=EDGE_CURVE('',#898,#890,#517,.T.);
#1509=EDGE_CURVE('',#898,#899,#540,.T.);
#1513=ADVANCED_FACE('',(#1512),#1487,.F.);
#1529=EDGE_CURVE('',#887,#886,#563,.T.);
#1541=ADVANCED_FACE('',(#1540),#1525,.F.);
#1558=EDGE_CURVE('',#906,#907,#571,.T.);
#1560=EDGE_CURVE('',#907,#906,#579,.T.);
#1564=ADVANCED_FACE('',(#1557,#1563),#1553,.T.);
#1578=EDGE_CURVE('',#842,#907,#593,.T.);
#1580=EDGE_CURVE('',#842,#843,#601,.T.);
#1582=EDGE_CURVE('',#906,#843,#586,.T.);
#1586=ADVANCED_FACE('',(#1585),#1576,.F.);
#1601=EDGE_CURVE('',#843,#842,#609,.T.);
#1606=ADVANCED_FACE('',(#1605),#1598,.F.);
#1619=EDGE_CURVE('',#878,#879,#617,.T.);
#1621=EDGE_CURVE('',#879,#878,#625,.T.);
#1629=ADVANCED_FACE('',(#1624,#1628),#1618,.T.);
#1643=EDGE_CURVE('',#879,#883,#639,.T.);
#1645=EDGE_CURVE('',#882,#883,#670,.T.);
#1647=EDGE_CURVE('',#878,#882,#632,.T.);
#1651=ADVANCED_FACE('',(#1650),#1641,.T.);
#1666=EDGE_CURVE('',#883,#882,#647,.T.);
#1671=ADVANCED_FACE('',(#1670),#1663,.T.);
#1685=EDGE_CURVE('',#882,#851,#685,.T.);
#1687=EDGE_CURVE('',#850,#851,#655,.T.);
#1689=EDGE_CURVE('',#883,#850,#662,.T.);
#1693=ADVANCED_FACE('',(#1692),#1683,.T.);
#1708=EDGE_CURVE('',#851,#850,#678,.T.);
#1713=ADVANCED_FACE('',(#1712),#1705,.T.);
#1726=EDGE_CURVE('',#846,#847,#693,.T.);
#1728=EDGE_CURVE('',#847,#846,#701,.T.);
#1736=ADVANCED_FACE('',(#1731,#1735),#1725,.T.);
#1749=EDGE_CURVE('',#854,#855,#716,.T.);
#1751=EDGE_CURVE('',#854,#846,#708,.T.);
#1754=EDGE_CURVE('',#855,#847,#747,.T.);
#1758=ADVANCED_FACE('',(#1757),#1748,.T.);
#1776=EDGE_CURVE('',#855,#854,#724,.T.);
#1780=ADVANCED_FACE('',(#1774,#1779),#1770,.F.);
#1799=ADVANCED_FACE('',(#1798),#1792,.T.);
#1818=ADVANCED_FACE('',(#1817),#1811,.F.);
#1833=EDGE_CURVE('',#874,#875,#770,.T.);
#1838=ADVANCED_FACE('',(#1837),#1830,.T.);
#1857=ADVANCED_FACE('',(#1856),#1850,.T.);
#1876=ADVANCED_FACE('',(#1875),#1869,.T.);
#1892=(LENGTH_UNIT()NAMED_UNIT(*)SI_UNIT(.MILLI.,.METRE.));
#1893=(NAMED_UNIT(*)PLANE_ANGLE_UNIT()SI_UNIT($,.RADIAN.));
#1896=(NAMED_UNIT(*)SI_UNIT($,.STERADIAN.)SOLID_ANGLE_UNIT());
#1898=(GEOMETRIC_REPRESENTATION_CONTEXT(3)GLOBAL_UNCERTAINTY_ASSIGNED_CONTEXT((
#1897))GLOBAL_UNIT_ASSIGNED_CONTEXT((#1892,#1895,#1896))REPRESENTATION_CONTEXT(
'ID1','external'));
#1902=AXIS2_PLACEMENT_3D('',#1899,#1900,#1901);
#1903=ADVANCED_BREP_SHAPE_REPRESENTATION('',(#1902,#1885),#1898);
#1911=PRODUCT_DEFINITION('part definition','',#1910,#1907);
#1912=PRODUCT_DEFINITION_SHAPE('','SHAPE FOR WHEEL2.',#1911);
#1913=SHAPE_ASPECT('','solid data associated with WHEEL2',#1912,.F.);
#1914=PROPERTY_DEFINITION('',
'shape for solid data with which properties are associated',#1913);
#1915=SHAPE_REPRESENTATION('',(#1885),#1898);
#1916=SHAPE_DEFINITION_REPRESENTATION(#1914,#1915);
#1917=(LENGTH_UNIT()NAMED_UNIT(*)SI_UNIT(.MILLI.,.METRE.));
#1921=PROPERTY_DEFINITION('geometric validation property','area of WHEEL2',
#1913);
#1922=REPRESENTATION('surface area',(#1920),#1898);
#1923=PROPERTY_DEFINITION_REPRESENTATION(#1921,#1922);
#1924=(LENGTH_UNIT()NAMED_UNIT(*)SI_UNIT(.MILLI.,.METRE.));
#1928=PROPERTY_DEFINITION('geometric validation property','volume of WHEEL2',
#1913);
#1929=REPRESENTATION('volume',(#1927),#1898);
#1930=PROPERTY_DEFINITION_REPRESENTATION(#1928,#1929);
#1932=PROPERTY_DEFINITION('geometric validation property','centroid of WHEEL2',
#1913);
#1933=REPRESENTATION('centroid',(#1931),#1898);
#1934=PROPERTY_DEFINITION_REPRESENTATION(#1932,#1933);
#1935=(LENGTH_UNIT()NAMED_UNIT(*)SI_UNIT(.MILLI.,.METRE.));
#1939=PROPERTY_DEFINITION('geometric validation property','area of WHEEL2',
#1912);
#1940=REPRESENTATION('surface area',(#1938),#1898);
#1941=PROPERTY_DEFINITION_REPRESENTATION(#1939,#1940);
#1942=(LENGTH_UNIT()NAMED_UNIT(*)SI_UNIT(.MILLI.,.METRE.));
#1946=PROPERTY_DEFINITION('geometric validation property','volume of WHEEL2',
#1912);
#1947=REPRESENTATION('volume',(#1945),#1898);
#1948=PROPERTY_DEFINITION_REPRESENTATION(#1946,#1947);
#1950=PROPERTY_DEFINITION('geometric validation property','centroid of WHEEL2',
#1912);
#1951=REPRESENTATION('centroid',(#1949),#1898);
#1952=PROPERTY_DEFINITION_REPRESENTATION(#1950,#1951);
#1953=SHAPE_DEFINITION_REPRESENTATION(#1912,#1903);
#1954=PRODUCT_RELATED_PRODUCT_CATEGORY('part','',(#1909));
ENDSEC;
END-ISO-10303-21;
