ISO-10303-21;
HEADER;
FILE_DESCRIPTION((''),'2;1');
FILE_NAME('WHEEL','2026-08-09T09:56:41',('gram2'),(''),
'CREO PARAMETRIC BY PTC INC, 2016510','CREO PARAMETRIC BY PTC INC, 2016510','');
FILE_SCHEMA(('AUTOMOTIVE_DESIGN { 1 0 10303 214 1 1 1 1 }'));
ENDSEC;
DATA;
#28=CARTESIAN_POINT('',(0.E0,0.E0,0.E0));
#29=DIRECTION('',(0.E0,0.E0,-1.E0));
#30=DIRECTION('',(-1.E0,0.E0,0.E0));
#31=AXIS2_PLACEMENT_3D('',#28,#29,#30);
#33=DIRECTION('',(0.E0,0.E0,-1.E0));
#34=VECTOR('',#33,1.E0);
#35=CARTESIAN_POINT('',(0.E0,1.7E1,0.E0));
#36=LINE('',#35,#34);
#37=DIRECTION('',(0.E0,0.E0,1.E0));
#38=VECTOR('',#37,4.E0);
#39=CARTESIAN_POINT('',(1.7E1,0.E0,0.E0));
#40=LINE('',#39,#38);
#41=CARTESIAN_POINT('',(0.E0,0.E0,4.E0));
#42=DIRECTION('',(0.E0,0.E0,1.E0));
#43=DIRECTION('',(1.E0,0.E0,0.E0));
#44=AXIS2_PLACEMENT_3D('',#41,#42,#43);
#46=CARTESIAN_POINT('',(0.E0,0.E0,0.E0));
#47=DIRECTION('',(0.E0,0.E0,-1.E0));
#48=DIRECTION('',(1.E0,0.E0,0.E0));
#49=AXIS2_PLACEMENT_3D('',#46,#47,#48);
#51=DIRECTION('',(0.E0,0.E0,-1.E0));
#52=VECTOR('',#51,1.E0);
#53=CARTESIAN_POINT('',(0.E0,-1.7E1,0.E0));
#54=LINE('',#53,#52);
#55=DIRECTION('',(0.E0,0.E0,1.E0));
#56=VECTOR('',#55,4.E0);
#57=CARTESIAN_POINT('',(-1.7E1,0.E0,0.E0));
#58=LINE('',#57,#56);
#59=CARTESIAN_POINT('',(0.E0,0.E0,4.E0));
#60=DIRECTION('',(0.E0,0.E0,1.E0));
#61=DIRECTION('',(-1.E0,0.E0,0.E0));
#62=AXIS2_PLACEMENT_3D('',#59,#60,#61);
#64=CARTESIAN_POINT('',(0.E0,0.E0,-1.E0));
#65=DIRECTION('',(0.E0,0.E0,-1.E0));
#66=DIRECTION('',(0.E0,1.E0,0.E0));
#67=AXIS2_PLACEMENT_3D('',#64,#65,#66);
#69=CARTESIAN_POINT('',(0.E0,0.E0,-1.E0));
#70=DIRECTION('',(0.E0,0.E0,-1.E0));
#71=DIRECTION('',(0.E0,-1.E0,0.E0));
#72=AXIS2_PLACEMENT_3D('',#69,#70,#71);
#74=CARTESIAN_POINT('',(1.169134295109E1,6.75E0,-1.E0));
#75=DIRECTION('',(0.E0,0.E0,1.E0));
#76=DIRECTION('',(0.E0,1.E0,0.E0));
#77=AXIS2_PLACEMENT_3D('',#74,#75,#76);
#79=CARTESIAN_POINT('',(1.169134295109E1,6.75E0,-1.E0));
#80=DIRECTION('',(0.E0,0.E0,1.E0));
#81=DIRECTION('',(0.E0,-1.E0,0.E0));
#82=AXIS2_PLACEMENT_3D('',#79,#80,#81);
#84=CARTESIAN_POINT('',(0.E0,-1.35E1,-1.E0));
#85=DIRECTION('',(0.E0,0.E0,1.E0));
#86=DIRECTION('',(0.E0,1.E0,0.E0));
#87=AXIS2_PLACEMENT_3D('',#84,#85,#86);
#89=CARTESIAN_POINT('',(0.E0,-1.35E1,-1.E0));
#90=DIRECTION('',(0.E0,0.E0,1.E0));
#91=DIRECTION('',(0.E0,-1.E0,0.E0));
#92=AXIS2_PLACEMENT_3D('',#89,#90,#91);
#94=CARTESIAN_POINT('',(-1.169134295109E1,6.75E0,-1.E0));
#95=DIRECTION('',(0.E0,0.E0,1.E0));
#96=DIRECTION('',(0.E0,1.E0,0.E0));
#97=AXIS2_PLACEMENT_3D('',#94,#95,#96);
#99=CARTESIAN_POINT('',(-1.169134295109E1,6.75E0,-1.E0));
#100=DIRECTION('',(0.E0,0.E0,1.E0));
#101=DIRECTION('',(0.E0,-1.E0,0.E0));
#102=AXIS2_PLACEMENT_3D('',#99,#100,#101);
#104=CARTESIAN_POINT('',(1.169134295109E1,6.75E0,4.E0));
#105=DIRECTION('',(0.E0,0.E0,1.E0));
#106=DIRECTION('',(0.E0,1.E0,0.E0));
#107=AXIS2_PLACEMENT_3D('',#104,#105,#106);
#109=DIRECTION('',(0.E0,0.E0,-1.E0));
#110=VECTOR('',#109,5.E0);
#111=CARTESIAN_POINT('',(1.169134295109E1,5.15E0,4.E0));
#112=LINE('',#111,#110);
#113=DIRECTION('',(0.E0,0.E0,1.E0));
#114=VECTOR('',#113,5.E0);
#115=CARTESIAN_POINT('',(1.169134295109E1,8.35E0,-1.E0));
#116=LINE('',#115,#114);
#117=CARTESIAN_POINT('',(1.169134295109E1,6.75E0,4.E0));
#118=DIRECTION('',(0.E0,0.E0,1.E0));
#119=DIRECTION('',(0.E0,-1.E0,0.E0));
#120=AXIS2_PLACEMENT_3D('',#117,#118,#119);
#122=CARTESIAN_POINT('',(0.E0,0.E0,4.E0));
#123=DIRECTION('',(0.E0,0.E0,-1.E0));
#124=DIRECTION('',(1.E0,0.E0,0.E0));
#125=AXIS2_PLACEMENT_3D('',#122,#123,#124);
#127=DIRECTION('',(0.E0,0.E0,-1.E0));
#128=VECTOR('',#127,5.9E1);
#129=CARTESIAN_POINT('',(-8.E0,0.E0,4.E0));
#130=LINE('',#129,#128);
#131=CARTESIAN_POINT('',(0.E0,0.E0,-5.5E1));
#132=DIRECTION('',(0.E0,0.E0,-1.E0));
#133=DIRECTION('',(1.E0,0.E0,0.E0));
#134=AXIS2_PLACEMENT_3D('',#131,#132,#133);
#136=DIRECTION('',(0.E0,0.E0,1.E0));
#137=VECTOR('',#136,5.9E1);
#138=CARTESIAN_POINT('',(8.E0,0.E0,-5.5E1));
#139=LINE('',#138,#137);
#140=CARTESIAN_POINT('',(0.E0,0.E0,4.E0));
#141=DIRECTION('',(0.E0,0.E0,-1.E0));
#142=DIRECTION('',(-1.E0,0.E0,0.E0));
#143=AXIS2_PLACEMENT_3D('',#140,#141,#142);
#145=CARTESIAN_POINT('',(0.E0,0.E0,-5.5E1));
#146=DIRECTION('',(0.E0,0.E0,-1.E0));
#147=DIRECTION('',(-1.E0,0.E0,0.E0));
#148=AXIS2_PLACEMENT_3D('',#145,#146,#147);
#150=CARTESIAN_POINT('',(0.E0,0.E0,-5.5E1));
#151=DIRECTION('',(0.E0,0.E0,-1.E0));
#152=DIRECTION('',(-1.E0,0.E0,0.E0));
#153=AXIS2_PLACEMENT_3D('',#150,#151,#152);
#155=CARTESIAN_POINT('',(0.E0,0.E0,-5.5E1));
#156=DIRECTION('',(0.E0,0.E0,-1.E0));
#157=DIRECTION('',(1.E0,0.E0,0.E0));
#158=AXIS2_PLACEMENT_3D('',#155,#156,#157);
#160=DIRECTION('',(0.E0,0.E0,1.E0));
#161=VECTOR('',#160,2.E1);
#162=CARTESIAN_POINT('',(4.E0,0.E0,-7.5E1));
#163=LINE('',#162,#161);
#164=DIRECTION('',(0.E0,0.E0,-1.E0));
#165=VECTOR('',#164,2.E1);
#166=CARTESIAN_POINT('',(-4.E0,0.E0,-5.5E1));
#167=LINE('',#166,#165);
#168=CARTESIAN_POINT('',(0.E0,0.E0,-7.5E1));
#169=DIRECTION('',(0.E0,0.E0,1.E0));
#170=DIRECTION('',(-1.E0,0.E0,0.E0));
#171=AXIS2_PLACEMENT_3D('',#168,#169,#170);
#173=CARTESIAN_POINT('',(0.E0,0.E0,-7.5E1));
#174=DIRECTION('',(0.E0,0.E0,1.E0));
#175=DIRECTION('',(1.E0,0.E0,0.E0));
#176=AXIS2_PLACEMENT_3D('',#173,#174,#175);
#178=CARTESIAN_POINT('',(0.E0,0.E0,-7.5E1));
#179=DIRECTION('',(0.E0,0.E0,-1.E0));
#180=DIRECTION('',(-1.E0,0.E0,0.E0));
#181=AXIS2_PLACEMENT_3D('',#178,#179,#180);
#183=CARTESIAN_POINT('',(0.E0,0.E0,-7.5E1));
#184=DIRECTION('',(0.E0,0.E0,-1.E0));
#185=DIRECTION('',(1.E0,0.E0,0.E0));
#186=AXIS2_PLACEMENT_3D('',#183,#184,#185);
#188=DIRECTION('',(-7.071067811866E-1,1.444554773506E-10,7.071067811865E-1));
#189=VECTOR('',#188,1.414213562550E0);
#190=CARTESIAN_POINT('',(-4.999999998752E0,-2.042918590138E-9,
-7.500000000125E1));
#191=LINE('',#190,#189);
#192=DIRECTION('',(7.071067811866E-1,-1.444566032393E-10,7.071067811865E-1));
#193=VECTOR('',#192,1.414213562550E0);
#194=CARTESIAN_POINT('',(4.999999998752E0,2.042922585290E-9,-7.500000000125E1));
#195=LINE('',#194,#193);
#196=CARTESIAN_POINT('',(0.E0,0.E0,-6.2E1));
#197=DIRECTION('',(0.E0,0.E0,1.E0));
#198=DIRECTION('',(-1.E0,0.E0,0.E0));
#199=AXIS2_PLACEMENT_3D('',#196,#197,#198);
#201=DIRECTION('',(-9.358602780741E-11,1.532190268232E-10,-1.E0));
#202=VECTOR('',#201,1.200000000112E1);
#203=CARTESIAN_POINT('',(6.E0,0.E0,-6.2E1));
#204=LINE('',#203,#202);
#205=CARTESIAN_POINT('',(0.E0,0.E0,-7.4E1));
#206=DIRECTION('',(0.E0,0.E0,-1.E0));
#207=DIRECTION('',(1.E0,0.E0,0.E0));
#208=AXIS2_PLACEMENT_3D('',#205,#206,#207);
#210=CARTESIAN_POINT('',(0.E0,0.E0,-6.2E1));
#211=DIRECTION('',(0.E0,0.E0,-1.E0));
#212=DIRECTION('',(0.E0,1.E0,0.E0));
#213=AXIS2_PLACEMENT_3D('',#210,#211,#212);
#215=CARTESIAN_POINT('',(0.E0,0.E0,-6.2E1));
#216=DIRECTION('',(0.E0,0.E0,-1.E0));
#217=DIRECTION('',(0.E0,-1.E0,0.E0));
#218=AXIS2_PLACEMENT_3D('',#215,#216,#217);
#220=DIRECTION('',(0.E0,0.E0,-1.E0));
#221=VECTOR('',#220,2.E0);
#222=CARTESIAN_POINT('',(0.E0,7.E0,-6.E1));
#223=LINE('',#222,#221);
#224=CARTESIAN_POINT('',(0.E0,0.E0,-6.E1));
#225=DIRECTION('',(0.E0,0.E0,-1.E0));
#226=DIRECTION('',(-1.E0,0.E0,0.E0));
#227=AXIS2_PLACEMENT_3D('',#224,#225,#226);
#229=CARTESIAN_POINT('',(0.E0,0.E0,-6.E1));
#230=DIRECTION('',(0.E0,0.E0,-1.E0));
#231=DIRECTION('',(1.E0,0.E0,0.E0));
#232=AXIS2_PLACEMENT_3D('',#229,#230,#231);
#234=CARTESIAN_POINT('',(0.E0,0.E0,-6.E1));
#235=DIRECTION('',(0.E0,0.E0,-1.E0));
#236=DIRECTION('',(0.E0,1.E0,0.E0));
#237=AXIS2_PLACEMENT_3D('',#234,#235,#236);
#239=CARTESIAN_POINT('',(0.E0,0.E0,-6.E1));
#240=DIRECTION('',(0.E0,0.E0,-1.E0));
#241=DIRECTION('',(0.E0,-1.E0,0.E0));
#242=AXIS2_PLACEMENT_3D('',#239,#240,#241);
#244=CARTESIAN_POINT('',(0.E0,0.E0,-1.E0));
#245=DIRECTION('',(0.E0,0.E0,-1.E0));
#246=DIRECTION('',(-1.E0,0.E0,0.E0));
#247=AXIS2_PLACEMENT_3D('',#244,#245,#246);
#249=DIRECTION('',(0.E0,0.E0,-1.E0));
#250=VECTOR('',#249,2.375E1);
#251=CARTESIAN_POINT('',(-1.E1,0.E0,-1.E0));
#252=LINE('',#251,#250);
#253=CARTESIAN_POINT('',(0.E0,0.E0,-2.475E1));
#254=DIRECTION('',(0.E0,0.E0,-1.E0));
#255=DIRECTION('',(-1.E0,0.E0,0.E0));
#256=AXIS2_PLACEMENT_3D('',#253,#254,#255);
#258=DIRECTION('',(0.E0,0.E0,-1.E0));
#259=VECTOR('',#258,2.E1);
#260=CARTESIAN_POINT('',(-9.797958971133E0,2.E0,-2.475E1));
#261=LINE('',#260,#259);
#262=CARTESIAN_POINT('',(0.E0,0.E0,-4.475E1));
#263=DIRECTION('',(0.E0,0.E0,-1.E0));
#264=DIRECTION('',(-1.E0,0.E0,0.E0));
#265=AXIS2_PLACEMENT_3D('',#262,#263,#264);
#267=DIRECTION('',(0.E0,0.E0,-1.E0));
#268=VECTOR('',#267,1.525E1);
#269=CARTESIAN_POINT('',(-1.E1,0.E0,-4.475E1));
#270=LINE('',#269,#268);
#271=CARTESIAN_POINT('',(0.E0,0.E0,-4.475E1));
#272=DIRECTION('',(0.E0,0.E0,-1.E0));
#273=DIRECTION('',(9.797958971133E-1,2.E-1,0.E0));
#274=AXIS2_PLACEMENT_3D('',#271,#272,#273);
#276=DIRECTION('',(0.E0,0.E0,-1.E0));
#277=VECTOR('',#276,2.E1);
#278=CARTESIAN_POINT('',(9.797958971133E0,2.E0,-2.475E1));
#279=LINE('',#278,#277);
#280=CARTESIAN_POINT('',(0.E0,0.E0,-2.475E1));
#281=DIRECTION('',(0.E0,0.E0,-1.E0));
#282=DIRECTION('',(9.797958971133E-1,2.E-1,0.E0));
#283=AXIS2_PLACEMENT_3D('',#280,#281,#282);
#285=CARTESIAN_POINT('',(0.E0,0.E0,-1.E0));
#286=DIRECTION('',(0.E0,0.E0,-1.E0));
#287=DIRECTION('',(1.E0,0.E0,0.E0));
#288=AXIS2_PLACEMENT_3D('',#285,#286,#287);
#290=DIRECTION('',(0.E0,0.E0,-1.E0));
#291=VECTOR('',#290,2.375E1);
#292=CARTESIAN_POINT('',(1.E1,0.E0,-1.E0));
#293=LINE('',#292,#291);
#294=CARTESIAN_POINT('',(0.E0,0.E0,-2.475E1));
#295=DIRECTION('',(0.E0,0.E0,-1.E0));
#296=DIRECTION('',(1.E0,0.E0,0.E0));
#297=AXIS2_PLACEMENT_3D('',#294,#295,#296);
#299=DIRECTION('',(0.E0,0.E0,-1.E0));
#300=VECTOR('',#299,2.E1);
#301=CARTESIAN_POINT('',(9.797958971133E0,-2.E0,-2.475E1));
#302=LINE('',#301,#300);
#303=CARTESIAN_POINT('',(0.E0,0.E0,-4.475E1));
#304=DIRECTION('',(0.E0,0.E0,-1.E0));
#305=DIRECTION('',(1.E0,0.E0,0.E0));
#306=AXIS2_PLACEMENT_3D('',#303,#304,#305);
#308=DIRECTION('',(0.E0,0.E0,-1.E0));
#309=VECTOR('',#308,1.525E1);
#310=CARTESIAN_POINT('',(1.E1,0.E0,-4.475E1));
#311=LINE('',#310,#309);
#312=CARTESIAN_POINT('',(0.E0,0.E0,-4.475E1));
#313=DIRECTION('',(0.E0,0.E0,-1.E0));
#314=DIRECTION('',(-9.797958971133E-1,-2.E-1,0.E0));
#315=AXIS2_PLACEMENT_3D('',#312,#313,#314);
#317=DIRECTION('',(0.E0,0.E0,-1.E0));
#318=VECTOR('',#317,2.E1);
#319=CARTESIAN_POINT('',(-9.797958971133E0,-2.E0,-2.475E1));
#320=LINE('',#319,#318);
#321=CARTESIAN_POINT('',(0.E0,0.E0,-2.475E1));
#322=DIRECTION('',(0.E0,0.E0,-1.E0));
#323=DIRECTION('',(-9.797958971133E-1,-2.E-1,0.E0));
#324=AXIS2_PLACEMENT_3D('',#321,#322,#323);
#326=DIRECTION('',(-1.E0,0.E0,0.E0));
#327=VECTOR('',#326,1.802041028867E0);
#328=CARTESIAN_POINT('',(-9.797958971133E0,-2.E0,-2.475E1));
#329=LINE('',#328,#327);
#330=DIRECTION('',(0.E0,1.E0,0.E0));
#331=VECTOR('',#330,4.E0);
#332=CARTESIAN_POINT('',(-1.16E1,-2.E0,-2.475E1));
#333=LINE('',#332,#331);
#334=DIRECTION('',(1.E0,0.E0,0.E0));
#335=VECTOR('',#334,1.802041028867E0);
#336=CARTESIAN_POINT('',(-1.16E1,2.E0,-2.475E1));
#337=LINE('',#336,#335);
#338=DIRECTION('',(1.E0,0.E0,0.E0));
#339=VECTOR('',#338,1.802041028867E0);
#340=CARTESIAN_POINT('',(9.797958971133E0,2.E0,-2.475E1));
#341=LINE('',#340,#339);
#342=DIRECTION('',(0.E0,-1.E0,0.E0));
#343=VECTOR('',#342,4.E0);
#344=CARTESIAN_POINT('',(1.16E1,2.E0,-2.475E1));
#345=LINE('',#344,#343);
#346=DIRECTION('',(-1.E0,0.E0,0.E0));
#347=VECTOR('',#346,1.802041028867E0);
#348=CARTESIAN_POINT('',(1.16E1,-2.E0,-2.475E1));
#349=LINE('',#348,#347);
#350=DIRECTION('',(1.E0,0.E0,0.E0));
#351=VECTOR('',#350,1.802041028867E0);
#352=CARTESIAN_POINT('',(-1.16E1,2.E0,-4.475E1));
#353=LINE('',#352,#351);
#354=DIRECTION('',(0.E0,1.E0,0.E0));
#355=VECTOR('',#354,4.E0);
#356=CARTESIAN_POINT('',(-1.16E1,-2.E0,-4.475E1));
#357=LINE('',#356,#355);
#358=DIRECTION('',(-1.E0,0.E0,0.E0));
#359=VECTOR('',#358,1.802041028867E0);
#360=CARTESIAN_POINT('',(-9.797958971133E0,-2.E0,-4.475E1));
#361=LINE('',#360,#359);
#362=DIRECTION('',(-1.E0,0.E0,0.E0));
#363=VECTOR('',#362,1.802041028867E0);
#364=CARTESIAN_POINT('',(1.16E1,-2.E0,-4.475E1));
#365=LINE('',#364,#363);
#366=DIRECTION('',(0.E0,-1.E0,0.E0));
#367=VECTOR('',#366,4.E0);
#368=CARTESIAN_POINT('',(1.16E1,2.E0,-4.475E1));
#369=LINE('',#368,#367);
#370=DIRECTION('',(1.E0,0.E0,0.E0));
#371=VECTOR('',#370,1.802041028867E0);
#372=CARTESIAN_POINT('',(9.797958971133E0,2.E0,-4.475E1));
#373=LINE('',#372,#371);
#374=DIRECTION('',(0.E0,0.E0,-1.E0));
#375=VECTOR('',#374,2.E1);
#376=CARTESIAN_POINT('',(-1.16E1,2.E0,-2.475E1));
#377=LINE('',#376,#375);
#378=DIRECTION('',(0.E0,0.E0,-1.E0));
#379=VECTOR('',#378,2.E1);
#380=CARTESIAN_POINT('',(-1.16E1,-2.E0,-2.475E1));
#381=LINE('',#380,#379);
#382=DIRECTION('',(0.E0,0.E0,-1.E0));
#383=VECTOR('',#382,2.E1);
#384=CARTESIAN_POINT('',(1.16E1,-2.E0,-2.475E1));
#385=LINE('',#384,#383);
#386=DIRECTION('',(0.E0,0.E0,-1.E0));
#387=VECTOR('',#386,2.E1);
#388=CARTESIAN_POINT('',(1.16E1,2.E0,-2.475E1));
#389=LINE('',#388,#387);
#390=DIRECTION('',(0.E0,0.E0,-1.E0));
#391=VECTOR('',#390,2.E0);
#392=CARTESIAN_POINT('',(0.E0,-7.E0,-6.E1));
#393=LINE('',#392,#391);
#394=CARTESIAN_POINT('',(0.E0,0.E0,-6.2E1));
#395=DIRECTION('',(0.E0,0.E0,1.E0));
#396=DIRECTION('',(1.E0,0.E0,0.E0));
#397=AXIS2_PLACEMENT_3D('',#394,#395,#396);
#399=DIRECTION('',(9.358602780741E-11,-1.532189767462E-10,-1.E0));
#400=VECTOR('',#399,1.200000000112E1);
#401=CARTESIAN_POINT('',(-6.E0,0.E0,-6.2E1));
#402=LINE('',#401,#400);
#403=CARTESIAN_POINT('',(0.E0,0.E0,-7.4E1));
#404=DIRECTION('',(0.E0,0.E0,-1.E0));
#405=DIRECTION('',(-1.E0,0.E0,0.E0));
#406=AXIS2_PLACEMENT_3D('',#403,#404,#405);
#408=DIRECTION('',(0.E0,0.E0,-1.E0));
#409=VECTOR('',#408,5.E0);
#410=CARTESIAN_POINT('',(-1.169134295109E1,5.15E0,4.E0));
#411=LINE('',#410,#409);
#412=DIRECTION('',(0.E0,0.E0,1.E0));
#413=VECTOR('',#412,5.E0);
#414=CARTESIAN_POINT('',(-1.169134295109E1,8.35E0,-1.E0));
#415=LINE('',#414,#413);
#416=CARTESIAN_POINT('',(-1.169134295109E1,6.75E0,4.E0));
#417=DIRECTION('',(0.E0,0.E0,1.E0));
#418=DIRECTION('',(0.E0,-1.E0,0.E0));
#419=AXIS2_PLACEMENT_3D('',#416,#417,#418);
#421=CARTESIAN_POINT('',(-1.169134295109E1,6.75E0,4.E0));
#422=DIRECTION('',(0.E0,0.E0,1.E0));
#423=DIRECTION('',(0.E0,1.E0,0.E0));
#424=AXIS2_PLACEMENT_3D('',#421,#422,#423);
#426=DIRECTION('',(0.E0,0.E0,-1.E0));
#427=VECTOR('',#426,5.E0);
#428=CARTESIAN_POINT('',(0.E0,-1.51E1,4.E0));
#429=LINE('',#428,#427);
#430=DIRECTION('',(0.E0,0.E0,1.E0));
#431=VECTOR('',#430,5.E0);
#432=CARTESIAN_POINT('',(0.E0,-1.19E1,-1.E0));
#433=LINE('',#432,#431);
#434=CARTESIAN_POINT('',(0.E0,-1.35E1,4.E0));
#435=DIRECTION('',(0.E0,0.E0,1.E0));
#436=DIRECTION('',(0.E0,-1.E0,0.E0));
#437=AXIS2_PLACEMENT_3D('',#434,#435,#436);
#439=CARTESIAN_POINT('',(0.E0,-1.35E1,4.E0));
#440=DIRECTION('',(0.E0,0.E0,1.E0));
#441=DIRECTION('',(0.E0,1.E0,0.E0));
#442=AXIS2_PLACEMENT_3D('',#439,#440,#441);
#444=CARTESIAN_POINT('',(-1.E1,0.E0,-6.E1));
#445=CARTESIAN_POINT('',(1.E1,0.E0,-6.E1));
#446=VERTEX_POINT('',#444);
#447=VERTEX_POINT('',#445);
#448=CARTESIAN_POINT('',(-4.E0,0.E0,-7.5E1));
#449=CARTESIAN_POINT('',(4.E0,0.E0,-7.5E1));
#450=VERTEX_POINT('',#448);
#451=VERTEX_POINT('',#449);
#452=CARTESIAN_POINT('',(8.E0,0.E0,-5.5E1));
#453=CARTESIAN_POINT('',(-8.E0,0.E0,-5.5E1));
#454=VERTEX_POINT('',#452);
#455=VERTEX_POINT('',#453);
#456=CARTESIAN_POINT('',(-4.E0,0.E0,-5.5E1));
#457=CARTESIAN_POINT('',(4.E0,0.E0,-5.5E1));
#458=VERTEX_POINT('',#456);
#459=VERTEX_POINT('',#457);
#460=CARTESIAN_POINT('',(1.16E1,2.E0,-2.475E1));
#461=CARTESIAN_POINT('',(1.16E1,-2.E0,-2.475E1));
#462=VERTEX_POINT('',#460);
#463=VERTEX_POINT('',#461);
#464=CARTESIAN_POINT('',(1.16E1,2.E0,-4.475E1));
#465=CARTESIAN_POINT('',(1.16E1,-2.E0,-4.475E1));
#466=VERTEX_POINT('',#464);
#467=VERTEX_POINT('',#465);
#468=CARTESIAN_POINT('',(-1.E1,0.E0,-2.475E1));
#469=CARTESIAN_POINT('',(-9.797958971133E0,2.E0,-2.475E1));
#470=VERTEX_POINT('',#468);
#471=VERTEX_POINT('',#469);
#472=CARTESIAN_POINT('',(-1.E1,0.E0,-4.475E1));
#473=CARTESIAN_POINT('',(-9.797958971133E0,2.E0,-4.475E1));
#474=VERTEX_POINT('',#472);
#475=VERTEX_POINT('',#473);
#476=CARTESIAN_POINT('',(9.797958971133E0,2.E0,-2.475E1));
#477=CARTESIAN_POINT('',(9.797958971133E0,2.E0,-4.475E1));
#478=VERTEX_POINT('',#476);
#479=VERTEX_POINT('',#477);
#480=CARTESIAN_POINT('',(1.E1,0.E0,-2.475E1));
#481=CARTESIAN_POINT('',(9.797958971133E0,-2.E0,-2.475E1));
#482=VERTEX_POINT('',#480);
#483=VERTEX_POINT('',#481);
#484=CARTESIAN_POINT('',(1.E1,0.E0,-4.475E1));
#485=CARTESIAN_POINT('',(9.797958971133E0,-2.E0,-4.475E1));
#486=VERTEX_POINT('',#484);
#487=VERTEX_POINT('',#485);
#488=CARTESIAN_POINT('',(-1.16E1,-2.E0,-2.475E1));
#489=CARTESIAN_POINT('',(-1.16E1,2.E0,-2.475E1));
#490=VERTEX_POINT('',#488);
#491=VERTEX_POINT('',#489);
#492=CARTESIAN_POINT('',(-1.16E1,-2.E0,-4.475E1));
#493=CARTESIAN_POINT('',(-1.16E1,2.E0,-4.475E1));
#494=VERTEX_POINT('',#492);
#495=VERTEX_POINT('',#493);
#496=CARTESIAN_POINT('',(-9.797958971133E0,-2.E0,-2.475E1));
#497=VERTEX_POINT('',#496);
#498=CARTESIAN_POINT('',(-9.797958971133E0,-2.E0,-4.475E1));
#499=VERTEX_POINT('',#498);
#500=CARTESIAN_POINT('',(-5.E0,0.E0,-7.5E1));
#501=CARTESIAN_POINT('',(5.E0,0.E0,-7.5E1));
#502=VERTEX_POINT('',#500);
#503=VERTEX_POINT('',#501);
#504=CARTESIAN_POINT('',(-6.E0,0.E0,-7.4E1));
#505=CARTESIAN_POINT('',(6.E0,0.E0,-7.4E1));
#506=VERTEX_POINT('',#504);
#507=VERTEX_POINT('',#505);
#508=CARTESIAN_POINT('',(0.E0,7.E0,-6.2E1));
#509=CARTESIAN_POINT('',(0.E0,-7.E0,-6.2E1));
#510=VERTEX_POINT('',#508);
#511=VERTEX_POINT('',#509);
#512=CARTESIAN_POINT('',(0.E0,7.E0,-6.E1));
#513=CARTESIAN_POINT('',(0.E0,-7.E0,-6.E1));
#514=VERTEX_POINT('',#512);
#515=VERTEX_POINT('',#513);
#516=CARTESIAN_POINT('',(6.E0,0.E0,-6.2E1));
#517=CARTESIAN_POINT('',(-6.E0,0.E0,-6.2E1));
#518=VERTEX_POINT('',#516);
#519=VERTEX_POINT('',#517);
#520=CARTESIAN_POINT('',(1.7E1,0.E0,4.E0));
#521=CARTESIAN_POINT('',(-1.7E1,0.E0,4.E0));
#522=VERTEX_POINT('',#520);
#523=VERTEX_POINT('',#521);
#524=CARTESIAN_POINT('',(8.E0,0.E0,4.E0));
#525=CARTESIAN_POINT('',(-8.E0,0.E0,4.E0));
#526=VERTEX_POINT('',#524);
#527=VERTEX_POINT('',#525);
#528=CARTESIAN_POINT('',(1.169134295109E1,5.15E0,4.E0));
#529=CARTESIAN_POINT('',(1.169134295109E1,8.35E0,4.E0));
#530=VERTEX_POINT('',#528);
#531=VERTEX_POINT('',#529);
#532=CARTESIAN_POINT('',(-1.169134295109E1,5.15E0,4.E0));
#533=CARTESIAN_POINT('',(-1.169134295109E1,8.35E0,4.E0));
#534=VERTEX_POINT('',#532);
#535=VERTEX_POINT('',#533);
#536=CARTESIAN_POINT('',(0.E0,-1.51E1,4.E0));
#537=CARTESIAN_POINT('',(0.E0,-1.19E1,4.E0));
#538=VERTEX_POINT('',#536);
#539=VERTEX_POINT('',#537);
#540=CARTESIAN_POINT('',(0.E0,1.7E1,-1.E0));
#541=CARTESIAN_POINT('',(0.E0,-1.7E1,-1.E0));
#542=VERTEX_POINT('',#540);
#543=VERTEX_POINT('',#541);
#544=CARTESIAN_POINT('',(1.169134295109E1,8.35E0,-1.E0));
#545=CARTESIAN_POINT('',(1.169134295109E1,5.15E0,-1.E0));
#546=VERTEX_POINT('',#544);
#547=VERTEX_POINT('',#545);
#548=CARTESIAN_POINT('',(0.E0,-1.19E1,-1.E0));
#549=CARTESIAN_POINT('',(0.E0,-1.51E1,-1.E0));
#550=VERTEX_POINT('',#548);
#551=VERTEX_POINT('',#549);
#552=CARTESIAN_POINT('',(-1.169134295109E1,8.35E0,-1.E0));
#553=CARTESIAN_POINT('',(-1.169134295109E1,5.15E0,-1.E0));
#554=VERTEX_POINT('',#552);
#555=VERTEX_POINT('',#553);
#556=CARTESIAN_POINT('',(1.7E1,0.E0,0.E0));
#557=CARTESIAN_POINT('',(0.E0,-1.7E1,0.E0));
#558=VERTEX_POINT('',#556);
#559=VERTEX_POINT('',#557);
#560=CARTESIAN_POINT('',(-1.7E1,0.E0,0.E0));
#561=CARTESIAN_POINT('',(0.E0,1.7E1,0.E0));
#562=VERTEX_POINT('',#560);
#563=VERTEX_POINT('',#561);
#564=CARTESIAN_POINT('',(-1.E1,0.E0,-1.E0));
#565=CARTESIAN_POINT('',(1.E1,0.E0,-1.E0));
#566=VERTEX_POINT('',#564);
#567=VERTEX_POINT('',#565);
#568=CARTESIAN_POINT('',(0.E0,0.E0,0.E0));
#569=DIRECTION('',(0.E0,0.E0,1.E0));
#570=DIRECTION('',(1.E0,0.E0,0.E0));
#571=AXIS2_PLACEMENT_3D('',#568,#569,#570);
#572=CYLINDRICAL_SURFACE('',#571,1.7E1);
#574=ORIENTED_EDGE('',*,*,#573,.T.);
#576=ORIENTED_EDGE('',*,*,#575,.T.);
#578=ORIENTED_EDGE('',*,*,#577,.T.);
#580=ORIENTED_EDGE('',*,*,#579,.F.);
#582=ORIENTED_EDGE('',*,*,#581,.F.);
#584=ORIENTED_EDGE('',*,*,#583,.T.);
#586=ORIENTED_EDGE('',*,*,#585,.T.);
#588=ORIENTED_EDGE('',*,*,#587,.F.);
#589=EDGE_LOOP('',(#574,#576,#578,#580,#582,#584,#586,#588));
#590=FACE_OUTER_BOUND('',#589,.F.);
#592=CARTESIAN_POINT('',(0.E0,0.E0,0.E0));
#593=DIRECTION('',(0.E0,0.E0,1.E0));
#594=DIRECTION('',(1.E0,0.E0,0.E0));
#595=AXIS2_PLACEMENT_3D('',#592,#593,#594);
#596=CYLINDRICAL_SURFACE('',#595,1.7E1);
#597=ORIENTED_EDGE('',*,*,#581,.T.);
#598=ORIENTED_EDGE('',*,*,#579,.T.);
#600=ORIENTED_EDGE('',*,*,#599,.T.);
#601=ORIENTED_EDGE('',*,*,#575,.F.);
#602=ORIENTED_EDGE('',*,*,#573,.F.);
#603=ORIENTED_EDGE('',*,*,#587,.T.);
#605=ORIENTED_EDGE('',*,*,#604,.T.);
#606=ORIENTED_EDGE('',*,*,#583,.F.);
#607=EDGE_LOOP('',(#597,#598,#600,#601,#602,#603,#605,#606));
#608=FACE_OUTER_BOUND('',#607,.F.);
#610=CARTESIAN_POINT('',(0.E0,0.E0,-1.E0));
#611=DIRECTION('',(0.E0,0.E0,-1.E0));
#612=DIRECTION('',(0.E0,1.E0,0.E0));
#613=AXIS2_PLACEMENT_3D('',#610,#611,#612);
#614=PLANE('',#613);
#615=ORIENTED_EDGE('',*,*,#577,.F.);
#616=ORIENTED_EDGE('',*,*,#599,.F.);
#617=EDGE_LOOP('',(#615,#616));
#618=FACE_OUTER_BOUND('',#617,.F.);
#620=ORIENTED_EDGE('',*,*,#619,.F.);
#622=ORIENTED_EDGE('',*,*,#621,.F.);
#623=EDGE_LOOP('',(#620,#622));
#624=FACE_BOUND('',#623,.F.);
#626=ORIENTED_EDGE('',*,*,#625,.F.);
#628=ORIENTED_EDGE('',*,*,#627,.F.);
#629=EDGE_LOOP('',(#626,#628));
#630=FACE_BOUND('',#629,.F.);
#632=ORIENTED_EDGE('',*,*,#631,.F.);
#634=ORIENTED_EDGE('',*,*,#633,.F.);
#635=EDGE_LOOP('',(#632,#634));
#636=FACE_BOUND('',#635,.F.);
#638=ORIENTED_EDGE('',*,*,#637,.T.);
#640=ORIENTED_EDGE('',*,*,#639,.T.);
#641=EDGE_LOOP('',(#638,#640));
#642=FACE_BOUND('',#641,.F.);
#644=CARTESIAN_POINT('',(1.169134295109E1,6.75E0,5.E0));
#645=DIRECTION('',(0.E0,0.E0,1.E0));
#646=DIRECTION('',(0.E0,-1.E0,0.E0));
#647=AXIS2_PLACEMENT_3D('',#644,#645,#646);
#648=CYLINDRICAL_SURFACE('',#647,1.6E0);
#650=ORIENTED_EDGE('',*,*,#649,.F.);
#651=ORIENTED_EDGE('',*,*,#619,.T.);
#653=ORIENTED_EDGE('',*,*,#652,.F.);
#655=ORIENTED_EDGE('',*,*,#654,.F.);
#656=EDGE_LOOP('',(#650,#651,#653,#655));
#657=FACE_OUTER_BOUND('',#656,.F.);
#659=CARTESIAN_POINT('',(1.169134295109E1,6.75E0,5.E0));
#660=DIRECTION('',(0.E0,0.E0,1.E0));
#661=DIRECTION('',(0.E0,-1.E0,0.E0));
#662=AXIS2_PLACEMENT_3D('',#659,#660,#661);
#663=CYLINDRICAL_SURFACE('',#662,1.6E0);
#664=ORIENTED_EDGE('',*,*,#652,.T.);
#665=ORIENTED_EDGE('',*,*,#621,.T.);
#666=ORIENTED_EDGE('',*,*,#649,.T.);
#668=ORIENTED_EDGE('',*,*,#667,.F.);
#669=EDGE_LOOP('',(#664,#665,#666,#668));
#670=FACE_OUTER_BOUND('',#669,.F.);
#672=CARTESIAN_POINT('',(0.E0,0.E0,4.E0));
#673=DIRECTION('',(0.E0,0.E0,1.E0));
#674=DIRECTION('',(0.E0,-1.E0,0.E0));
#675=AXIS2_PLACEMENT_3D('',#672,#673,#674);
#676=PLANE('',#675);
#677=ORIENTED_EDGE('',*,*,#585,.F.);
#678=ORIENTED_EDGE('',*,*,#604,.F.);
#679=EDGE_LOOP('',(#677,#678));
#680=FACE_OUTER_BOUND('',#679,.F.);
#682=ORIENTED_EDGE('',*,*,#681,.F.);
#684=ORIENTED_EDGE('',*,*,#683,.F.);
#685=EDGE_LOOP('',(#682,#684));
#686=FACE_BOUND('',#685,.F.);
#687=ORIENTED_EDGE('',*,*,#667,.T.);
#688=ORIENTED_EDGE('',*,*,#654,.T.);
#689=EDGE_LOOP('',(#687,#688));
#690=FACE_BOUND('',#689,.F.);
#692=ORIENTED_EDGE('',*,*,#691,.T.);
#694=ORIENTED_EDGE('',*,*,#693,.T.);
#695=EDGE_LOOP('',(#692,#694));
#696=FACE_BOUND('',#695,.F.);
#698=ORIENTED_EDGE('',*,*,#697,.T.);
#700=ORIENTED_EDGE('',*,*,#699,.T.);
#701=EDGE_LOOP('',(#698,#700));
#702=FACE_BOUND('',#701,.F.);
#704=CARTESIAN_POINT('',(0.E0,0.E0,0.E0));
#705=DIRECTION('',(0.E0,0.E0,-1.E0));
#706=DIRECTION('',(-1.E0,0.E0,0.E0));
#707=AXIS2_PLACEMENT_3D('',#704,#705,#706);
#708=CYLINDRICAL_SURFACE('',#707,8.E0);
#709=ORIENTED_EDGE('',*,*,#681,.T.);
#711=ORIENTED_EDGE('',*,*,#710,.T.);
#713=ORIENTED_EDGE('',*,*,#712,.F.);
#715=ORIENTED_EDGE('',*,*,#714,.T.);
#716=EDGE_LOOP('',(#709,#711,#713,#715));
#717=FACE_OUTER_BOUND('',#716,.F.);
#719=CARTESIAN_POINT('',(0.E0,0.E0,0.E0));
#720=DIRECTION('',(0.E0,0.E0,-1.E0));
#721=DIRECTION('',(-1.E0,0.E0,0.E0));
#722=AXIS2_PLACEMENT_3D('',#719,#720,#721);
#723=CYLINDRICAL_SURFACE('',#722,8.E0);
#724=ORIENTED_EDGE('',*,*,#683,.T.);
#725=ORIENTED_EDGE('',*,*,#714,.F.);
#727=ORIENTED_EDGE('',*,*,#726,.F.);
#728=ORIENTED_EDGE('',*,*,#710,.F.);
#729=EDGE_LOOP('',(#724,#725,#727,#728));
#730=FACE_OUTER_BOUND('',#729,.F.);
#732=CARTESIAN_POINT('',(0.E0,0.E0,-5.5E1));
#733=DIRECTION('',(0.E0,0.E0,-1.E0));
#734=DIRECTION('',(-1.E0,0.E0,0.E0));
#735=AXIS2_PLACEMENT_3D('',#732,#733,#734);
#736=PLANE('',#735);
#737=ORIENTED_EDGE('',*,*,#712,.T.);
#738=ORIENTED_EDGE('',*,*,#726,.T.);
#739=EDGE_LOOP('',(#737,#738));
#740=FACE_OUTER_BOUND('',#739,.F.);
#742=ORIENTED_EDGE('',*,*,#741,.F.);
#744=ORIENTED_EDGE('',*,*,#743,.F.);
#745=EDGE_LOOP('',(#742,#744));
#746=FACE_BOUND('',#745,.F.);
#748=CARTESIAN_POINT('',(0.E0,0.E0,-6.E1));
#749=DIRECTION('',(0.E0,0.E0,-1.E0));
#750=DIRECTION('',(-1.E0,0.E0,0.E0));
#751=AXIS2_PLACEMENT_3D('',#748,#749,#750);
#752=CYLINDRICAL_SURFACE('',#751,4.E0);
#754=ORIENTED_EDGE('',*,*,#753,.F.);
#755=ORIENTED_EDGE('',*,*,#741,.T.);
#757=ORIENTED_EDGE('',*,*,#756,.F.);
#759=ORIENTED_EDGE('',*,*,#758,.T.);
#760=EDGE_LOOP('',(#754,#755,#757,#759));
#761=FACE_OUTER_BOUND('',#760,.F.);
#763=CARTESIAN_POINT('',(0.E0,0.E0,-6.E1));
#764=DIRECTION('',(0.E0,0.E0,-1.E0));
#765=DIRECTION('',(-1.E0,0.E0,0.E0));
#766=AXIS2_PLACEMENT_3D('',#763,#764,#765);
#767=CYLINDRICAL_SURFACE('',#766,4.E0);
#768=ORIENTED_EDGE('',*,*,#756,.T.);
#769=ORIENTED_EDGE('',*,*,#743,.T.);
#770=ORIENTED_EDGE('',*,*,#753,.T.);
#772=ORIENTED_EDGE('',*,*,#771,.T.);
#773=EDGE_LOOP('',(#768,#769,#770,#772));
#774=FACE_OUTER_BOUND('',#773,.F.);
#776=CARTESIAN_POINT('',(0.E0,0.E0,-7.5E1));
#777=DIRECTION('',(0.E0,0.E0,-1.E0));
#778=DIRECTION('',(-1.E0,0.E0,0.E0));
#779=AXIS2_PLACEMENT_3D('',#776,#777,#778);
#780=PLANE('',#779);
#782=ORIENTED_EDGE('',*,*,#781,.F.);
#784=ORIENTED_EDGE('',*,*,#783,.F.);
#785=EDGE_LOOP('',(#782,#784));
#786=FACE_OUTER_BOUND('',#785,.F.);
#787=ORIENTED_EDGE('',*,*,#771,.F.);
#788=ORIENTED_EDGE('',*,*,#758,.F.);
#789=EDGE_LOOP('',(#787,#788));
#790=FACE_BOUND('',#789,.F.);
#792=CARTESIAN_POINT('',(0.E0,0.E0,-7.450000000102E1));
#793=DIRECTION('',(0.E0,0.E0,1.E0));
#794=DIRECTION('',(0.E0,-1.E0,0.E0));
#795=AXIS2_PLACEMENT_3D('',#792,#793,#794);
#796=CONICAL_SURFACE('',#795,5.499999998980E0,4.5E1);
#797=ORIENTED_EDGE('',*,*,#781,.T.);
#799=ORIENTED_EDGE('',*,*,#798,.T.);
#801=ORIENTED_EDGE('',*,*,#800,.F.);
#803=ORIENTED_EDGE('',*,*,#802,.F.);
#804=EDGE_LOOP('',(#797,#799,#801,#803));
#805=FACE_OUTER_BOUND('',#804,.F.);
#807=CARTESIAN_POINT('',(0.E0,0.E0,-7.450000000102E1));
#808=DIRECTION('',(0.E0,0.E0,1.E0));
#809=DIRECTION('',(0.E0,-1.E0,0.E0));
#810=AXIS2_PLACEMENT_3D('',#807,#808,#809);
#811=CONICAL_SURFACE('',#810,5.499999998980E0,4.5E1);
#812=ORIENTED_EDGE('',*,*,#783,.T.);
#813=ORIENTED_EDGE('',*,*,#802,.T.);
#815=ORIENTED_EDGE('',*,*,#814,.F.);
#816=ORIENTED_EDGE('',*,*,#798,.F.);
#817=EDGE_LOOP('',(#812,#813,#815,#816));
#818=FACE_OUTER_BOUND('',#817,.F.);
#820=CARTESIAN_POINT('',(0.E0,0.E0,-6.E1));
#821=DIRECTION('',(0.E0,0.E0,-1.E0));
#822=DIRECTION('',(-1.E0,0.E0,0.E0));
#823=AXIS2_PLACEMENT_3D('',#820,#821,#822);
#824=CYLINDRICAL_SURFACE('',#823,6.E0);
#826=ORIENTED_EDGE('',*,*,#825,.T.);
#828=ORIENTED_EDGE('',*,*,#827,.T.);
#829=ORIENTED_EDGE('',*,*,#814,.T.);
#831=ORIENTED_EDGE('',*,*,#830,.F.);
#832=EDGE_LOOP('',(#826,#828,#829,#831));
#833=FACE_OUTER_BOUND('',#832,.F.);
#835=CARTESIAN_POINT('',(0.E0,0.E0,-6.2E1));
#836=DIRECTION('',(0.E0,0.E0,-1.E0));
#837=DIRECTION('',(0.E0,1.E0,0.E0));
#838=AXIS2_PLACEMENT_3D('',#835,#836,#837);
#839=PLANE('',#838);
#841=ORIENTED_EDGE('',*,*,#840,.F.);
#843=ORIENTED_EDGE('',*,*,#842,.F.);
#844=EDGE_LOOP('',(#841,#843));
#845=FACE_OUTER_BOUND('',#844,.F.);
#847=ORIENTED_EDGE('',*,*,#846,.F.);
#848=ORIENTED_EDGE('',*,*,#825,.F.);
#849=EDGE_LOOP('',(#847,#848));
#850=FACE_BOUND('',#849,.F.);
#852=CARTESIAN_POINT('',(0.E0,0.E0,-6.E1));
#853=DIRECTION('',(0.E0,0.E0,-1.E0));
#854=DIRECTION('',(0.E0,1.E0,0.E0));
#855=AXIS2_PLACEMENT_3D('',#852,#853,#854);
#856=CYLINDRICAL_SURFACE('',#855,7.E0);
#858=ORIENTED_EDGE('',*,*,#857,.F.);
#860=ORIENTED_EDGE('',*,*,#859,.T.);
#861=ORIENTED_EDGE('',*,*,#840,.T.);
#863=ORIENTED_EDGE('',*,*,#862,.F.);
#864=EDGE_LOOP('',(#858,#860,#861,#863));
#865=FACE_OUTER_BOUND('',#864,.F.);
#867=CARTESIAN_POINT('',(0.E0,0.E0,-6.E1));
#868=DIRECTION('',(0.E0,0.E0,-1.E0));
#869=DIRECTION('',(-1.E0,0.E0,0.E0));
#870=AXIS2_PLACEMENT_3D('',#867,#868,#869);
#871=PLANE('',#870);
#873=ORIENTED_EDGE('',*,*,#872,.F.);
#875=ORIENTED_EDGE('',*,*,#874,.F.);
#876=EDGE_LOOP('',(#873,#875));
#877=FACE_OUTER_BOUND('',#876,.F.);
#878=ORIENTED_EDGE('',*,*,#857,.T.);
#880=ORIENTED_EDGE('',*,*,#879,.T.);
#881=EDGE_LOOP('',(#878,#880));
#882=FACE_BOUND('',#881,.F.);
#884=CARTESIAN_POINT('',(0.E0,0.E0,0.E0));
#885=DIRECTION('',(0.E0,0.E0,-1.E0));
#886=DIRECTION('',(-1.E0,0.E0,0.E0));
#887=AXIS2_PLACEMENT_3D('',#884,#885,#886);
#888=CYLINDRICAL_SURFACE('',#887,1.E1);
#889=ORIENTED_EDGE('',*,*,#637,.F.);
#891=ORIENTED_EDGE('',*,*,#890,.T.);
#893=ORIENTED_EDGE('',*,*,#892,.T.);
#895=ORIENTED_EDGE('',*,*,#894,.T.);
#897=ORIENTED_EDGE('',*,*,#896,.F.);
#899=ORIENTED_EDGE('',*,*,#898,.T.);
#900=ORIENTED_EDGE('',*,*,#872,.T.);
#902=ORIENTED_EDGE('',*,*,#901,.F.);
#904=ORIENTED_EDGE('',*,*,#903,.F.);
#906=ORIENTED_EDGE('',*,*,#905,.F.);
#908=ORIENTED_EDGE('',*,*,#907,.T.);
#910=ORIENTED_EDGE('',*,*,#909,.F.);
#911=EDGE_LOOP('',(#889,#891,#893,#895,#897,#899,#900,#902,#904,#906,#908,
#910));
#912=FACE_OUTER_BOUND('',#911,.F.);
#914=CARTESIAN_POINT('',(0.E0,0.E0,0.E0));
#915=DIRECTION('',(0.E0,0.E0,-1.E0));
#916=DIRECTION('',(-1.E0,0.E0,0.E0));
#917=AXIS2_PLACEMENT_3D('',#914,#915,#916);
#918=CYLINDRICAL_SURFACE('',#917,1.E1);
#919=ORIENTED_EDGE('',*,*,#639,.F.);
#920=ORIENTED_EDGE('',*,*,#909,.T.);
#922=ORIENTED_EDGE('',*,*,#921,.T.);
#924=ORIENTED_EDGE('',*,*,#923,.T.);
#926=ORIENTED_EDGE('',*,*,#925,.F.);
#927=ORIENTED_EDGE('',*,*,#901,.T.);
#928=ORIENTED_EDGE('',*,*,#874,.T.);
#929=ORIENTED_EDGE('',*,*,#898,.F.);
#931=ORIENTED_EDGE('',*,*,#930,.F.);
#933=ORIENTED_EDGE('',*,*,#932,.F.);
#935=ORIENTED_EDGE('',*,*,#934,.T.);
#936=ORIENTED_EDGE('',*,*,#890,.F.);
#937=EDGE_LOOP('',(#919,#920,#922,#924,#926,#927,#928,#929,#931,#933,#935,
#936));
#938=FACE_OUTER_BOUND('',#937,.F.);
#940=CARTESIAN_POINT('',(0.E0,0.E0,-2.475E1));
#941=DIRECTION('',(0.E0,0.E0,-1.E0));
#942=DIRECTION('',(0.E0,1.E0,0.E0));
#943=AXIS2_PLACEMENT_3D('',#940,#941,#942);
#944=PLANE('',#943);
#945=ORIENTED_EDGE('',*,*,#892,.F.);
#946=ORIENTED_EDGE('',*,*,#934,.F.);
#948=ORIENTED_EDGE('',*,*,#947,.T.);
#950=ORIENTED_EDGE('',*,*,#949,.T.);
#952=ORIENTED_EDGE('',*,*,#951,.T.);
#953=EDGE_LOOP('',(#945,#946,#948,#950,#952));
#954=FACE_OUTER_BOUND('',#953,.F.);
#956=CARTESIAN_POINT('',(0.E0,0.E0,-2.475E1));
#957=DIRECTION('',(0.E0,0.E0,-1.E0));
#958=DIRECTION('',(0.E0,1.E0,0.E0));
#959=AXIS2_PLACEMENT_3D('',#956,#957,#958);
#960=PLANE('',#959);
#961=ORIENTED_EDGE('',*,*,#921,.F.);
#962=ORIENTED_EDGE('',*,*,#907,.F.);
#964=ORIENTED_EDGE('',*,*,#963,.T.);
#966=ORIENTED_EDGE('',*,*,#965,.T.);
#968=ORIENTED_EDGE('',*,*,#967,.T.);
#969=EDGE_LOOP('',(#961,#962,#964,#966,#968));
#970=FACE_OUTER_BOUND('',#969,.F.);
#972=CARTESIAN_POINT('',(-8.957860352196E0,-2.E0,-2.475E1));
#973=DIRECTION('',(0.E0,-1.E0,0.E0));
#974=DIRECTION('',(-1.E0,0.E0,0.E0));
#975=AXIS2_PLACEMENT_3D('',#972,#973,#974);
#976=PLANE('',#975);
#977=ORIENTED_EDGE('',*,*,#932,.T.);
#979=ORIENTED_EDGE('',*,*,#978,.T.);
#981=ORIENTED_EDGE('',*,*,#980,.F.);
#982=ORIENTED_EDGE('',*,*,#947,.F.);
#983=EDGE_LOOP('',(#977,#979,#981,#982));
#984=FACE_OUTER_BOUND('',#983,.F.);
#986=CARTESIAN_POINT('',(0.E0,0.E0,-4.475E1));
#987=DIRECTION('',(0.E0,0.E0,-1.E0));
#988=DIRECTION('',(0.E0,1.E0,0.E0));
#989=AXIS2_PLACEMENT_3D('',#986,#987,#988);
#990=PLANE('',#989);
#991=ORIENTED_EDGE('',*,*,#896,.T.);
#993=ORIENTED_EDGE('',*,*,#992,.F.);
#995=ORIENTED_EDGE('',*,*,#994,.F.);
#996=ORIENTED_EDGE('',*,*,#978,.F.);
#997=ORIENTED_EDGE('',*,*,#930,.T.);
#998=EDGE_LOOP('',(#991,#993,#995,#996,#997));
#999=FACE_OUTER_BOUND('',#998,.F.);
#1001=CARTESIAN_POINT('',(0.E0,0.E0,-4.475E1));
#1002=DIRECTION('',(0.E0,0.E0,-1.E0));
#1003=DIRECTION('',(0.E0,1.E0,0.E0));
#1004=AXIS2_PLACEMENT_3D('',#1001,#1002,#1003);
#1005=PLANE('',#1004);
#1006=ORIENTED_EDGE('',*,*,#925,.T.);
#1008=ORIENTED_EDGE('',*,*,#1007,.F.);
#1010=ORIENTED_EDGE('',*,*,#1009,.F.);
#1012=ORIENTED_EDGE('',*,*,#1011,.F.);
#1013=ORIENTED_EDGE('',*,*,#903,.T.);
#1014=EDGE_LOOP('',(#1006,#1008,#1010,#1012,#1013));
#1015=FACE_OUTER_BOUND('',#1014,.F.);
#1017=CARTESIAN_POINT('',(-1.16E1,2.E0,-2.475E1));
#1018=DIRECTION('',(0.E0,1.E0,0.E0));
#1019=DIRECTION('',(1.E0,0.E0,0.E0));
#1020=AXIS2_PLACEMENT_3D('',#1017,#1018,#1019);
#1021=PLANE('',#1020);
#1022=ORIENTED_EDGE('',*,*,#894,.F.);
#1023=ORIENTED_EDGE('',*,*,#951,.F.);
#1025=ORIENTED_EDGE('',*,*,#1024,.T.);
#1026=ORIENTED_EDGE('',*,*,#992,.T.);
#1027=EDGE_LOOP('',(#1022,#1023,#1025,#1026));
#1028=FACE_OUTER_BOUND('',#1027,.F.);
#1030=CARTESIAN_POINT('',(-1.16E1,-2.E0,-2.475E1));
#1031=DIRECTION('',(-1.E0,0.E0,0.E0));
#1032=DIRECTION('',(0.E0,1.E0,0.E0));
#1033=AXIS2_PLACEMENT_3D('',#1030,#1031,#1032);
#1034=PLANE('',#1033);
#1035=ORIENTED_EDGE('',*,*,#949,.F.);
#1036=ORIENTED_EDGE('',*,*,#980,.T.);
#1037=ORIENTED_EDGE('',*,*,#994,.T.);
#1038=ORIENTED_EDGE('',*,*,#1024,.F.);
#1039=EDGE_LOOP('',(#1035,#1036,#1037,#1038));
#1040=FACE_OUTER_BOUND('',#1039,.F.);
#1042=CARTESIAN_POINT('',(1.16E1,-2.E0,-2.475E1));
#1043=DIRECTION('',(0.E0,-1.E0,0.E0));
#1044=DIRECTION('',(-1.E0,0.E0,0.E0));
#1045=AXIS2_PLACEMENT_3D('',#1042,#1043,#1044);
#1046=PLANE('',#1045);
#1047=ORIENTED_EDGE('',*,*,#923,.F.);
#1048=ORIENTED_EDGE('',*,*,#967,.F.);
#1050=ORIENTED_EDGE('',*,*,#1049,.T.);
#1051=ORIENTED_EDGE('',*,*,#1007,.T.);
#1052=EDGE_LOOP('',(#1047,#1048,#1050,#1051));
#1053=FACE_OUTER_BOUND('',#1052,.F.);
#1055=CARTESIAN_POINT('',(1.16E1,2.E0,-2.475E1));
#1056=DIRECTION('',(1.E0,0.E0,0.E0));
#1057=DIRECTION('',(0.E0,-1.E0,0.E0));
#1058=AXIS2_PLACEMENT_3D('',#1055,#1056,#1057);
#1059=PLANE('',#1058);
#1060=ORIENTED_EDGE('',*,*,#965,.F.);
#1062=ORIENTED_EDGE('',*,*,#1061,.T.);
#1063=ORIENTED_EDGE('',*,*,#1009,.T.);
#1064=ORIENTED_EDGE('',*,*,#1049,.F.);
#1065=EDGE_LOOP('',(#1060,#1062,#1063,#1064));
#1066=FACE_OUTER_BOUND('',#1065,.F.);
#1068=CARTESIAN_POINT('',(8.957860352196E0,2.E0,-2.475E1));
#1069=DIRECTION('',(0.E0,1.E0,0.E0));
#1070=DIRECTION('',(1.E0,0.E0,0.E0));
#1071=AXIS2_PLACEMENT_3D('',#1068,#1069,#1070);
#1072=PLANE('',#1071);
#1073=ORIENTED_EDGE('',*,*,#905,.T.);
#1074=ORIENTED_EDGE('',*,*,#1011,.T.);
#1075=ORIENTED_EDGE('',*,*,#1061,.F.);
#1076=ORIENTED_EDGE('',*,*,#963,.F.);
#1077=EDGE_LOOP('',(#1073,#1074,#1075,#1076));
#1078=FACE_OUTER_BOUND('',#1077,.F.);
#1080=CARTESIAN_POINT('',(0.E0,0.E0,-6.E1));
#1081=DIRECTION('',(0.E0,0.E0,-1.E0));
#1082=DIRECTION('',(0.E0,1.E0,0.E0));
#1083=AXIS2_PLACEMENT_3D('',#1080,#1081,#1082);
#1084=CYLINDRICAL_SURFACE('',#1083,7.E0);
#1085=ORIENTED_EDGE('',*,*,#879,.F.);
#1086=ORIENTED_EDGE('',*,*,#862,.T.);
#1087=ORIENTED_EDGE('',*,*,#842,.T.);
#1088=ORIENTED_EDGE('',*,*,#859,.F.);
#1089=EDGE_LOOP('',(#1085,#1086,#1087,#1088));
#1090=FACE_OUTER_BOUND('',#1089,.F.);
#1092=CARTESIAN_POINT('',(0.E0,0.E0,-6.E1));
#1093=DIRECTION('',(0.E0,0.E0,-1.E0));
#1094=DIRECTION('',(-1.E0,0.E0,0.E0));
#1095=AXIS2_PLACEMENT_3D('',#1092,#1093,#1094);
#1096=CYLINDRICAL_SURFACE('',#1095,6.E0);
#1097=ORIENTED_EDGE('',*,*,#846,.T.);
#1098=ORIENTED_EDGE('',*,*,#830,.T.);
#1099=ORIENTED_EDGE('',*,*,#800,.T.);
#1100=ORIENTED_EDGE('',*,*,#827,.F.);
#1101=EDGE_LOOP('',(#1097,#1098,#1099,#1100));
#1102=FACE_OUTER_BOUND('',#1101,.F.);
#1104=CARTESIAN_POINT('',(-1.169134295109E1,6.75E0,5.E0));
#1105=DIRECTION('',(0.E0,0.E0,1.E0));
#1106=DIRECTION('',(0.E0,-1.E0,0.E0));
#1107=AXIS2_PLACEMENT_3D('',#1104,#1105,#1106);
#1108=CYLINDRICAL_SURFACE('',#1107,1.6E0);
#1110=ORIENTED_EDGE('',*,*,#1109,.T.);
#1111=ORIENTED_EDGE('',*,*,#633,.T.);
#1113=ORIENTED_EDGE('',*,*,#1112,.T.);
#1114=ORIENTED_EDGE('',*,*,#691,.F.);
#1115=EDGE_LOOP('',(#1110,#1111,#1113,#1114));
#1116=FACE_OUTER_BOUND('',#1115,.F.);
#1118=CARTESIAN_POINT('',(-1.169134295109E1,6.75E0,5.E0));
#1119=DIRECTION('',(0.E0,0.E0,1.E0));
#1120=DIRECTION('',(0.E0,-1.E0,0.E0));
#1121=AXIS2_PLACEMENT_3D('',#1118,#1119,#1120);
#1122=CYLINDRICAL_SURFACE('',#1121,1.6E0);
#1123=ORIENTED_EDGE('',*,*,#1112,.F.);
#1124=ORIENTED_EDGE('',*,*,#631,.T.);
#1125=ORIENTED_EDGE('',*,*,#1109,.F.);
#1126=ORIENTED_EDGE('',*,*,#693,.F.);
#1127=EDGE_LOOP('',(#1123,#1124,#1125,#1126));
#1128=FACE_OUTER_BOUND('',#1127,.F.);
#1130=CARTESIAN_POINT('',(0.E0,-1.35E1,5.E0));
#1131=DIRECTION('',(0.E0,0.E0,1.E0));
#1132=DIRECTION('',(0.E0,-1.E0,0.E0));
#1133=AXIS2_PLACEMENT_3D('',#1130,#1131,#1132);
#1134=CYLINDRICAL_SURFACE('',#1133,1.6E0);
#1136=ORIENTED_EDGE('',*,*,#1135,.T.);
#1137=ORIENTED_EDGE('',*,*,#627,.T.);
#1139=ORIENTED_EDGE('',*,*,#1138,.T.);
#1140=ORIENTED_EDGE('',*,*,#697,.F.);
#1141=EDGE_LOOP('',(#1136,#1137,#1139,#1140));
#1142=FACE_OUTER_BOUND('',#1141,.F.);
#1144=CARTESIAN_POINT('',(0.E0,-1.35E1,5.E0));
#1145=DIRECTION('',(0.E0,0.E0,1.E0));
#1146=DIRECTION('',(0.E0,-1.E0,0.E0));
#1147=AXIS2_PLACEMENT_3D('',#1144,#1145,#1146);
#1148=CYLINDRICAL_SURFACE('',#1147,1.6E0);
#1149=ORIENTED_EDGE('',*,*,#1138,.F.);
#1150=ORIENTED_EDGE('',*,*,#625,.T.);
#1151=ORIENTED_EDGE('',*,*,#1135,.F.);
#1152=ORIENTED_EDGE('',*,*,#699,.F.);
#1153=EDGE_LOOP('',(#1149,#1150,#1151,#1152));
#1154=FACE_OUTER_BOUND('',#1153,.F.);
#1156=CLOSED_SHELL('',(#591,#609,#643,#658,#671,#703,#718,#731,#747,#762,#775,
#791,#806,#819,#834,#851,#866,#883,#913,#939,#955,#971,#985,#1000,#1016,#1029,
#1041,#1054,#1067,#1079,#1091,#1103,#1117,#1129,#1143,#1155));
#1157=MANIFOLD_SOLID_BREP('',#1156);
#1160=PLANE_ANGLE_MEASURE_WITH_UNIT(PLANE_ANGLE_MEASURE(1.745329251994E-2),
#1159);
#1161=(CONVERSION_BASED_UNIT('DEGREE',#1160)NAMED_UNIT(*)PLANE_ANGLE_UNIT());
#1163=UNCERTAINTY_MEASURE_WITH_UNIT(LENGTH_MEASURE(9.334677547355E-3),#1158,
'distance_accuracy_value',
'Maximum model space distance between geometric entities at asserted connectivities');
#1165=CARTESIAN_POINT('',(0.E0,0.E0,0.E0));
#1166=DIRECTION('',(0.E0,0.E0,1.E0));
#1167=DIRECTION('',(1.E0,0.E0,0.E0));
#1170=APPLICATION_CONTEXT('automotive_design');
#1171=APPLICATION_PROTOCOL_DEFINITION('international standard',
'automotive_design',2001,#1170);
#1172=PRODUCT_DEFINITION_CONTEXT('part definition',#1170,'design');
#1173=PRODUCT_CONTEXT('',#1170,'mechanical');
#1174=PRODUCT('WHEEL','WHEEL','NOT SPECIFIED',(#1173));
#1175=PRODUCT_DEFINITION_FORMATION('15','LAST_VERSION',#1174);
#1183=DERIVED_UNIT_ELEMENT(#1182,2.E0);
#1184=DERIVED_UNIT((#1183));
#1185=MEASURE_REPRESENTATION_ITEM('surface area measure',AREA_MEASURE(
1.025173778234E4),#1184);
#1190=DERIVED_UNIT_ELEMENT(#1189,3.E0);
#1191=DERIVED_UNIT((#1190));
#1192=MEASURE_REPRESENTATION_ITEM('volume measure',VOLUME_MEASURE(
1.211346808420E4),#1191);
#1196=CARTESIAN_POINT('centre point',(-8.944017566652E-9,-4.207829195338E-8,
-2.627585563454E1));
#1201=DERIVED_UNIT_ELEMENT(#1200,2.E0);
#1202=DERIVED_UNIT((#1201));
#1203=MEASURE_REPRESENTATION_ITEM('surface area measure',AREA_MEASURE(
1.025173778234E4),#1202);
#1208=DERIVED_UNIT_ELEMENT(#1207,3.E0);
#1209=DERIVED_UNIT((#1208));
#1210=MEASURE_REPRESENTATION_ITEM('volume measure',VOLUME_MEASURE(
1.211346808420E4),#1209);
#1214=CARTESIAN_POINT('centre point',(-8.944017566652E-9,-4.207829195338E-8,
-2.627585563454E1));
#1=DRAUGHTING_PRE_DEFINED_COLOUR('green');
#2=DRAUGHTING_PRE_DEFINED_COLOUR('green');
#3=DRAUGHTING_PRE_DEFINED_COLOUR('green');
#4=COLOUR_RGB('',1.1E-2,1.2E-2,1.E0);
#5=COLOUR_RGB('',1.1E-2,1.2E-2,1.E0);
#6=COLOUR_RGB('',4.1E-1,2.61589E-1,1.12848E-1);
#7=COLOUR_RGB('',5.04854E-1,1.5455E-2,1.5455E-2);
#8=COLOUR_RGB('',6.35294E-1,6.86275E-1,7.4902E-1);
#9=COLOUR_RGB('',6.40777E-1,6.40777E-1,6.40777E-1);
#10=COLOUR_RGB('',6.66667E-1,6.66667E-1,6.66667E-1);
#11=COLOUR_RGB('',6.69062E-1,6.69903E-1,6.55217E-1);
#12=COLOUR_RGB('',7.45098E-1,3.92157E-1,2.94118E-1);
#13=COLOUR_RGB('',8.03922E-1,5.88235E-1,1.96078E-1);
#14=COLOUR_RGB('',9.21569E-1,7.05882E-1,4.70588E-1);
#15=DRAUGHTING_PRE_DEFINED_COLOUR('red');
#16=DRAUGHTING_PRE_DEFINED_COLOUR('red');
#17=DRAUGHTING_PRE_DEFINED_COLOUR('red');
#18=DRAUGHTING_PRE_DEFINED_COLOUR('red');
#19=DRAUGHTING_PRE_DEFINED_COLOUR('red');
#20=DRAUGHTING_PRE_DEFINED_COLOUR('red');
#21=DRAUGHTING_PRE_DEFINED_COLOUR('red');
#22=DRAUGHTING_PRE_DEFINED_COLOUR('yellow');
#23=DRAUGHTING_PRE_DEFINED_COLOUR('yellow');
#24=COLOUR_RGB('',1.E0,1.E0,5.3E-1);
#25=COLOUR_RGB('',1.E0,1.E0,9.49E-1);
#26=COLOUR_RGB('',1.E0,1.E0,9.49E-1);
#27=DRAUGHTING_PRE_DEFINED_COLOUR('white');
#32=CIRCLE('',#31,1.7E1);
#45=CIRCLE('',#44,1.7E1);
#50=CIRCLE('',#49,1.7E1);
#63=CIRCLE('',#62,1.7E1);
#68=CIRCLE('',#67,1.7E1);
#73=CIRCLE('',#72,1.7E1);
#78=CIRCLE('',#77,1.6E0);
#83=CIRCLE('',#82,1.6E0);
#88=CIRCLE('',#87,1.6E0);
#93=CIRCLE('',#92,1.6E0);
#98=CIRCLE('',#97,1.6E0);
#103=CIRCLE('',#102,1.6E0);
#108=CIRCLE('',#107,1.6E0);
#121=CIRCLE('',#120,1.6E0);
#126=CIRCLE('',#125,8.E0);
#135=CIRCLE('',#134,8.E0);
#144=CIRCLE('',#143,8.E0);
#149=CIRCLE('',#148,8.E0);
#154=CIRCLE('',#153,4.E0);
#159=CIRCLE('',#158,4.E0);
#172=CIRCLE('',#171,4.E0);
#177=CIRCLE('',#176,4.E0);
#182=CIRCLE('',#181,5.E0);
#187=CIRCLE('',#186,5.E0);
#200=CIRCLE('',#199,6.E0);
#209=CIRCLE('',#208,6.E0);
#214=CIRCLE('',#213,7.E0);
#219=CIRCLE('',#218,7.E0);
#228=CIRCLE('',#227,1.E1);
#233=CIRCLE('',#232,1.E1);
#238=CIRCLE('',#237,7.E0);
#243=CIRCLE('',#242,7.E0);
#248=CIRCLE('',#247,1.E1);
#257=CIRCLE('',#256,1.E1);
#266=CIRCLE('',#265,1.E1);
#275=CIRCLE('',#274,1.E1);
#284=CIRCLE('',#283,1.E1);
#289=CIRCLE('',#288,1.E1);
#298=CIRCLE('',#297,1.E1);
#307=CIRCLE('',#306,1.E1);
#316=CIRCLE('',#315,1.E1);
#325=CIRCLE('',#324,1.E1);
#398=CIRCLE('',#397,6.E0);
#407=CIRCLE('',#406,6.E0);
#420=CIRCLE('',#419,1.6E0);
#425=CIRCLE('',#424,1.6E0);
#438=CIRCLE('',#437,1.6E0);
#443=CIRCLE('',#442,1.6E0);
#573=EDGE_CURVE('',#562,#563,#32,.T.);
#575=EDGE_CURVE('',#563,#542,#36,.T.);
#577=EDGE_CURVE('',#542,#543,#68,.T.);
#579=EDGE_CURVE('',#559,#543,#54,.T.);
#581=EDGE_CURVE('',#558,#559,#50,.T.);
#583=EDGE_CURVE('',#558,#522,#40,.T.);
#585=EDGE_CURVE('',#522,#523,#45,.T.);
#587=EDGE_CURVE('',#562,#523,#58,.T.);
#591=ADVANCED_FACE('',(#590),#572,.T.);
#599=EDGE_CURVE('',#543,#542,#73,.T.);
#604=EDGE_CURVE('',#523,#522,#63,.T.);
#609=ADVANCED_FACE('',(#608),#596,.T.);
#619=EDGE_CURVE('',#546,#547,#78,.T.);
#621=EDGE_CURVE('',#547,#546,#83,.T.);
#625=EDGE_CURVE('',#550,#551,#88,.T.);
#627=EDGE_CURVE('',#551,#550,#93,.T.);
#631=EDGE_CURVE('',#554,#555,#98,.T.);
#633=EDGE_CURVE('',#555,#554,#103,.T.);
#637=EDGE_CURVE('',#566,#567,#248,.T.);
#639=EDGE_CURVE('',#567,#566,#289,.T.);
#643=ADVANCED_FACE('',(#618,#624,#630,#636,#642),#614,.T.);
#649=EDGE_CURVE('',#546,#531,#116,.T.);
#652=EDGE_CURVE('',#530,#547,#112,.T.);
#654=EDGE_CURVE('',#531,#530,#108,.T.);
#658=ADVANCED_FACE('',(#657),#648,.F.);
#667=EDGE_CURVE('',#530,#531,#121,.T.);
#671=ADVANCED_FACE('',(#670),#663,.F.);
#681=EDGE_CURVE('',#526,#527,#126,.T.);
#683=EDGE_CURVE('',#527,#526,#144,.T.);
#691=EDGE_CURVE('',#534,#535,#420,.T.);
#693=EDGE_CURVE('',#535,#534,#425,.T.);
#697=EDGE_CURVE('',#538,#539,#438,.T.);
#699=EDGE_CURVE('',#539,#538,#443,.T.);
#703=ADVANCED_FACE('',(#680,#686,#690,#696,#702),#676,.T.);
#710=EDGE_CURVE('',#527,#455,#130,.T.);
#712=EDGE_CURVE('',#454,#455,#135,.T.);
#714=EDGE_CURVE('',#454,#526,#139,.T.);
#718=ADVANCED_FACE('',(#717),#708,.F.);
#726=EDGE_CURVE('',#455,#454,#149,.T.);
#731=ADVANCED_FACE('',(#730),#723,.F.);
#741=EDGE_CURVE('',#458,#459,#154,.T.);
#743=EDGE_CURVE('',#459,#458,#159,.T.);
#747=ADVANCED_FACE('',(#740,#746),#736,.F.);
#753=EDGE_CURVE('',#458,#450,#167,.T.);
#756=EDGE_CURVE('',#451,#459,#163,.T.);
#758=EDGE_CURVE('',#451,#450,#177,.T.);
#762=ADVANCED_FACE('',(#761),#752,.F.);
#771=EDGE_CURVE('',#450,#451,#172,.T.);
#775=ADVANCED_FACE('',(#774),#767,.F.);
#781=EDGE_CURVE('',#502,#503,#182,.T.);
#783=EDGE_CURVE('',#503,#502,#187,.T.);
#791=ADVANCED_FACE('',(#786,#790),#780,.T.);
#798=EDGE_CURVE('',#503,#507,#195,.T.);
#800=EDGE_CURVE('',#506,#507,#407,.T.);
#802=EDGE_CURVE('',#502,#506,#191,.T.);
#806=ADVANCED_FACE('',(#805),#796,.T.);
#814=EDGE_CURVE('',#507,#506,#209,.T.);
#819=ADVANCED_FACE('',(#818),#811,.T.);
#825=EDGE_CURVE('',#519,#518,#200,.T.);
#827=EDGE_CURVE('',#518,#507,#204,.T.);
#830=EDGE_CURVE('',#519,#506,#402,.T.);
#834=ADVANCED_FACE('',(#833),#824,.T.);
#840=EDGE_CURVE('',#510,#511,#214,.T.);
#842=EDGE_CURVE('',#511,#510,#219,.T.);
#846=EDGE_CURVE('',#518,#519,#398,.T.);
#851=ADVANCED_FACE('',(#845,#850),#839,.T.);
#857=EDGE_CURVE('',#514,#515,#238,.T.);
#859=EDGE_CURVE('',#514,#510,#223,.T.);
#862=EDGE_CURVE('',#515,#511,#393,.T.);
#866=ADVANCED_FACE('',(#865),#856,.T.);
#872=EDGE_CURVE('',#446,#447,#228,.T.);
#874=EDGE_CURVE('',#447,#446,#233,.T.);
#879=EDGE_CURVE('',#515,#514,#243,.T.);
#883=ADVANCED_FACE('',(#877,#882),#871,.T.);
#890=EDGE_CURVE('',#566,#470,#252,.T.);
#892=EDGE_CURVE('',#470,#471,#257,.T.);
#894=EDGE_CURVE('',#471,#475,#261,.T.);
#896=EDGE_CURVE('',#474,#475,#266,.T.);
#898=EDGE_CURVE('',#474,#446,#270,.T.);
#901=EDGE_CURVE('',#486,#447,#311,.T.);
#903=EDGE_CURVE('',#479,#486,#275,.T.);
#905=EDGE_CURVE('',#478,#479,#279,.T.);
#907=EDGE_CURVE('',#478,#482,#284,.T.);
#909=EDGE_CURVE('',#567,#482,#293,.T.);
#913=ADVANCED_FACE('',(#912),#888,.T.);
#921=EDGE_CURVE('',#482,#483,#298,.T.);
#923=EDGE_CURVE('',#483,#487,#302,.T.);
#925=EDGE_CURVE('',#486,#487,#307,.T.);
#930=EDGE_CURVE('',#499,#474,#316,.T.);
#932=EDGE_CURVE('',#497,#499,#320,.T.);
#934=EDGE_CURVE('',#497,#470,#325,.T.);
#939=ADVANCED_FACE('',(#938),#918,.T.);
#947=EDGE_CURVE('',#497,#490,#329,.T.);
#949=EDGE_CURVE('',#490,#491,#333,.T.);
#951=EDGE_CURVE('',#491,#471,#337,.T.);
#955=ADVANCED_FACE('',(#954),#944,.F.);
#963=EDGE_CURVE('',#478,#462,#341,.T.);
#965=EDGE_CURVE('',#462,#463,#345,.T.);
#967=EDGE_CURVE('',#463,#483,#349,.T.);
#971=ADVANCED_FACE('',(#970),#960,.F.);
#978=EDGE_CURVE('',#499,#494,#361,.T.);
#980=EDGE_CURVE('',#490,#494,#381,.T.);
#985=ADVANCED_FACE('',(#984),#976,.T.);
#992=EDGE_CURVE('',#495,#475,#353,.T.);
#994=EDGE_CURVE('',#494,#495,#357,.T.);
#1000=ADVANCED_FACE('',(#999),#990,.T.);
#1007=EDGE_CURVE('',#467,#487,#365,.T.);
#1009=EDGE_CURVE('',#466,#467,#369,.T.);
#1011=EDGE_CURVE('',#479,#466,#373,.T.);
#1016=ADVANCED_FACE('',(#1015),#1005,.T.);
#1024=EDGE_CURVE('',#491,#495,#377,.T.);
#1029=ADVANCED_FACE('',(#1028),#1021,.T.);
#1041=ADVANCED_FACE('',(#1040),#1034,.T.);
#1049=EDGE_CURVE('',#463,#467,#385,.T.);
#1054=ADVANCED_FACE('',(#1053),#1046,.T.);
#1061=EDGE_CURVE('',#462,#466,#389,.T.);
#1067=ADVANCED_FACE('',(#1066),#1059,.T.);
#1079=ADVANCED_FACE('',(#1078),#1072,.T.);
#1091=ADVANCED_FACE('',(#1090),#1084,.T.);
#1103=ADVANCED_FACE('',(#1102),#1096,.T.);
#1109=EDGE_CURVE('',#534,#555,#411,.T.);
#1112=EDGE_CURVE('',#554,#535,#415,.T.);
#1117=ADVANCED_FACE('',(#1116),#1108,.F.);
#1129=ADVANCED_FACE('',(#1128),#1122,.F.);
#1135=EDGE_CURVE('',#538,#551,#429,.T.);
#1138=EDGE_CURVE('',#550,#539,#433,.T.);
#1143=ADVANCED_FACE('',(#1142),#1134,.F.);
#1155=ADVANCED_FACE('',(#1154),#1148,.F.);
#1158=(LENGTH_UNIT()NAMED_UNIT(*)SI_UNIT(.MILLI.,.METRE.));
#1159=(NAMED_UNIT(*)PLANE_ANGLE_UNIT()SI_UNIT($,.RADIAN.));
#1162=(NAMED_UNIT(*)SI_UNIT($,.STERADIAN.)SOLID_ANGLE_UNIT());
#1164=(GEOMETRIC_REPRESENTATION_CONTEXT(3)GLOBAL_UNCERTAINTY_ASSIGNED_CONTEXT((
#1163))GLOBAL_UNIT_ASSIGNED_CONTEXT((#1158,#1161,#1162))REPRESENTATION_CONTEXT(
'ID1','external'));
#1168=AXIS2_PLACEMENT_3D('',#1165,#1166,#1167);
#1169=ADVANCED_BREP_SHAPE_REPRESENTATION('',(#1168,#1157),#1164);
#1176=PRODUCT_DEFINITION('part definition','',#1175,#1172);
#1177=PRODUCT_DEFINITION_SHAPE('','SHAPE FOR WHEEL.',#1176);
#1178=SHAPE_ASPECT('','solid data associated with WHEEL',#1177,.F.);
#1179=PROPERTY_DEFINITION('',
'shape for solid data with which properties are associated',#1178);
#1180=SHAPE_REPRESENTATION('',(#1157),#1164);
#1181=SHAPE_DEFINITION_REPRESENTATION(#1179,#1180);
#1182=(LENGTH_UNIT()NAMED_UNIT(*)SI_UNIT(.MILLI.,.METRE.));
#1186=PROPERTY_DEFINITION('geometric validation property','area of WHEEL',
#1178);
#1187=REPRESENTATION('surface area',(#1185),#1164);
#1188=PROPERTY_DEFINITION_REPRESENTATION(#1186,#1187);
#1189=(LENGTH_UNIT()NAMED_UNIT(*)SI_UNIT(.MILLI.,.METRE.));
#1193=PROPERTY_DEFINITION('geometric validation property','volume of WHEEL',
#1178);
#1194=REPRESENTATION('volume',(#1192),#1164);
#1195=PROPERTY_DEFINITION_REPRESENTATION(#1193,#1194);
#1197=PROPERTY_DEFINITION('geometric validation property','centroid of WHEEL',
#1178);
#1198=REPRESENTATION('centroid',(#1196),#1164);
#1199=PROPERTY_DEFINITION_REPRESENTATION(#1197,#1198);
#1200=(LENGTH_UNIT()NAMED_UNIT(*)SI_UNIT(.MILLI.,.METRE.));
#1204=PROPERTY_DEFINITION('geometric validation property','area of WHEEL',
#1177);
#1205=REPRESENTATION('surface area',(#1203),#1164);
#1206=PROPERTY_DEFINITION_REPRESENTATION(#1204,#1205);
#1207=(LENGTH_UNIT()NAMED_UNIT(*)SI_UNIT(.MILLI.,.METRE.));
#1211=PROPERTY_DEFINITION('geometric validation property','volume of WHEEL',
#1177);
#1212=REPRESENTATION('volume',(#1210),#1164);
#1213=PROPERTY_DEFINITION_REPRESENTATION(#1211,#1212);
#1215=PROPERTY_DEFINITION('geometric validation property','centroid of WHEEL',
#1177);
#1216=REPRESENTATION('centroid',(#1214),#1164);
#1217=PROPERTY_DEFINITION_REPRESENTATION(#1215,#1216);
#1218=SHAPE_DEFINITION_REPRESENTATION(#1177,#1169);
#1219=PRODUCT_RELATED_PRODUCT_CATEGORY('part','',(#1174));
ENDSEC;
END-ISO-10303-21;
