ISO-10303-21;
HEADER;
FILE_DESCRIPTION((''),'2;1');
FILE_NAME('BRAKE2','2026-07-23T13:11:00',('gram2'),(''),
'CREO PARAMETRIC BY PTC INC, 2016510','CREO PARAMETRIC BY PTC INC, 2016510','');
FILE_SCHEMA(('CONFIG_CONTROL_DESIGN'));
ENDSEC;
DATA;
#1=CARTESIAN_POINT('',(-4.1E0,0.E0,3.E0));
#2=DIRECTION('',(0.E0,0.E0,1.E0));
#3=DIRECTION('',(1.E0,0.E0,0.E0));
#4=AXIS2_PLACEMENT_3D('',#1,#2,#3);
#6=CARTESIAN_POINT('',(-4.1E0,0.E0,3.E0));
#7=DIRECTION('',(0.E0,0.E0,1.E0));
#8=DIRECTION('',(-1.E0,0.E0,0.E0));
#9=AXIS2_PLACEMENT_3D('',#6,#7,#8);
#11=CARTESIAN_POINT('',(4.1E0,0.E0,3.E0));
#12=DIRECTION('',(0.E0,0.E0,1.E0));
#13=DIRECTION('',(1.E0,0.E0,0.E0));
#14=AXIS2_PLACEMENT_3D('',#11,#12,#13);
#16=CARTESIAN_POINT('',(4.1E0,0.E0,3.E0));
#17=DIRECTION('',(0.E0,0.E0,1.E0));
#18=DIRECTION('',(-1.E0,0.E0,0.E0));
#19=AXIS2_PLACEMENT_3D('',#16,#17,#18);
#21=DIRECTION('',(0.E0,1.E0,0.E0));
#22=VECTOR('',#21,3.E0);
#23=CARTESIAN_POINT('',(2.E0,-1.5E0,3.E0));
#24=LINE('',#23,#22);
#25=DIRECTION('',(-1.E0,0.E0,0.E0));
#26=VECTOR('',#25,3.87E0);
#27=CARTESIAN_POINT('',(5.87E0,1.5E0,3.E0));
#28=LINE('',#27,#26);
#29=DIRECTION('',(0.E0,1.E0,0.E0));
#30=VECTOR('',#29,3.E0);
#31=CARTESIAN_POINT('',(5.87E0,-1.5E0,3.E0));
#32=LINE('',#31,#30);
#33=DIRECTION('',(1.E0,0.E0,0.E0));
#34=VECTOR('',#33,3.87E0);
#35=CARTESIAN_POINT('',(2.E0,-1.5E0,3.E0));
#36=LINE('',#35,#34);
#37=DIRECTION('',(0.E0,1.E0,0.E0));
#38=VECTOR('',#37,3.E0);
#39=CARTESIAN_POINT('',(-2.E0,-1.5E0,3.E0));
#40=LINE('',#39,#38);
#41=DIRECTION('',(1.E0,0.E0,0.E0));
#42=VECTOR('',#41,3.87E0);
#43=CARTESIAN_POINT('',(-5.87E0,-1.5E0,3.E0));
#44=LINE('',#43,#42);
#45=DIRECTION('',(0.E0,-1.E0,0.E0));
#46=VECTOR('',#45,3.E0);
#47=CARTESIAN_POINT('',(-5.87E0,1.5E0,3.E0));
#48=LINE('',#47,#46);
#49=DIRECTION('',(-1.E0,0.E0,0.E0));
#50=VECTOR('',#49,3.87E0);
#51=CARTESIAN_POINT('',(-2.E0,1.5E0,3.E0));
#52=LINE('',#51,#50);
#53=CARTESIAN_POINT('',(-4.1E0,0.E0,9.6E0));
#54=DIRECTION('',(0.E0,0.E0,1.E0));
#55=DIRECTION('',(1.E0,0.E0,0.E0));
#56=AXIS2_PLACEMENT_3D('',#53,#54,#55);
#58=DIRECTION('',(-5.087109184818E-11,-1.482345760025E-10,1.E0));
#59=VECTOR('',#58,6.600000000336E0);
#60=CARTESIAN_POINT('',(-3.1E0,0.E0,3.E0));
#61=LINE('',#60,#59);
#62=DIRECTION('',(7.071067811866E-1,-3.458986308901E-10,-7.071067811865E-1));
#63=VECTOR('',#62,5.656854248543E-1);
#64=CARTESIAN_POINT('',(-3.500000000269E0,-7.826785509811E-10,
1.000000000027E1));
#65=LINE('',#64,#63);
#66=CARTESIAN_POINT('',(-4.1E0,0.E0,1.E1));
#67=DIRECTION('',(0.E0,0.E0,1.E0));
#68=DIRECTION('',(-1.E0,0.E0,0.E0));
#69=AXIS2_PLACEMENT_3D('',#66,#67,#68);
#71=CARTESIAN_POINT('',(-4.1E0,0.E0,1.E1));
#72=DIRECTION('',(0.E0,0.E0,1.E0));
#73=DIRECTION('',(1.E0,0.E0,0.E0));
#74=AXIS2_PLACEMENT_3D('',#71,#72,#73);
#76=CARTESIAN_POINT('',(4.1E0,0.E0,1.E1));
#77=DIRECTION('',(0.E0,0.E0,1.E0));
#78=DIRECTION('',(-1.E0,0.E0,0.E0));
#79=AXIS2_PLACEMENT_3D('',#76,#77,#78);
#81=CARTESIAN_POINT('',(4.1E0,0.E0,1.E1));
#82=DIRECTION('',(0.E0,0.E0,1.E0));
#83=DIRECTION('',(1.E0,0.E0,0.E0));
#84=AXIS2_PLACEMENT_3D('',#81,#82,#83);
#86=DIRECTION('',(-7.071067811865E-1,3.458983640651E-10,-7.071067811865E-1));
#87=VECTOR('',#86,5.656854248543E-1);
#88=CARTESIAN_POINT('',(-4.699999999731E0,7.826786486312E-10,1.000000000027E1));
#89=LINE('',#88,#87);
#90=CARTESIAN_POINT('',(-4.1E0,0.E0,9.6E0));
#91=DIRECTION('',(0.E0,0.E0,1.E0));
#92=DIRECTION('',(-1.E0,0.E0,0.E0));
#93=AXIS2_PLACEMENT_3D('',#90,#91,#92);
#95=DIRECTION('',(5.087109184818E-11,1.482345741135E-10,1.E0));
#96=VECTOR('',#95,6.600000000336E0);
#97=CARTESIAN_POINT('',(-5.1E0,0.E0,3.E0));
#98=LINE('',#97,#96);
#99=DIRECTION('',(-7.071067811865E-1,3.458984621958E-10,-7.071067811865E-1));
#100=VECTOR('',#99,5.656854248543E-1);
#101=CARTESIAN_POINT('',(3.500000000269E0,7.826781465260E-10,1.000000000027E1));
#102=LINE('',#101,#100);
#103=DIRECTION('',(7.071067811865E-1,-3.458985327594E-10,-7.071067811865E-1));
#104=VECTOR('',#103,5.656854248543E-1);
#105=CARTESIAN_POINT('',(4.699999999731E0,-7.826790530863E-10,
1.000000000027E1));
#106=LINE('',#105,#104);
#107=CARTESIAN_POINT('',(4.1E0,0.E0,9.6E0));
#108=DIRECTION('',(0.E0,0.E0,1.E0));
#109=DIRECTION('',(1.E0,0.E0,0.E0));
#110=AXIS2_PLACEMENT_3D('',#107,#108,#109);
#112=DIRECTION('',(-5.087109184818E-11,-1.482345675917E-10,1.E0));
#113=VECTOR('',#112,6.600000000336E0);
#114=CARTESIAN_POINT('',(5.1E0,0.E0,3.E0));
#115=LINE('',#114,#113);
#116=CARTESIAN_POINT('',(4.1E0,0.E0,9.6E0));
#117=DIRECTION('',(0.E0,0.E0,1.E0));
#118=DIRECTION('',(-1.E0,0.E0,0.E0));
#119=AXIS2_PLACEMENT_3D('',#116,#117,#118);
#121=DIRECTION('',(5.087109184818E-11,1.482345825243E-10,1.E0));
#122=VECTOR('',#121,6.600000000336E0);
#123=CARTESIAN_POINT('',(3.1E0,0.E0,3.E0));
#124=LINE('',#123,#122);
#125=DIRECTION('',(0.E0,1.E0,0.E0));
#126=VECTOR('',#125,1.277825491191E0);
#127=CARTESIAN_POINT('',(2.E0,2.119914558157E-1,1.458E1));
#128=LINE('',#127,#126);
#129=DIRECTION('',(0.E0,1.E0,0.E0));
#130=VECTOR('',#129,1.086200141361E0);
#131=CARTESIAN_POINT('',(2.E0,1.913799858639E0,1.458E1));
#132=LINE('',#131,#130);
#133=CARTESIAN_POINT('',(2.E0,0.E0,3.5E0));
#134=DIRECTION('',(1.E0,0.E0,0.E0));
#135=DIRECTION('',(0.E0,4.285714285714E-1,-9.035079029053E-1));
#136=AXIS2_PLACEMENT_3D('',#133,#134,#135);
#138=DIRECTION('',(0.E0,0.E0,1.E0));
#139=VECTOR('',#138,2.662277660168E0);
#140=CARTESIAN_POINT('',(2.E0,1.5E0,3.377223398316E-1));
#141=LINE('',#140,#139);
#142=CARTESIAN_POINT('',(2.E0,0.E0,3.5E0));
#143=DIRECTION('',(1.E0,0.E0,0.E0));
#144=DIRECTION('',(0.E0,-8.571428571429E-1,-5.150787536377E-1));
#145=AXIS2_PLACEMENT_3D('',#142,#143,#144);
#147=DIRECTION('',(0.E0,0.E0,1.E0));
#148=VECTOR('',#147,1.288277563773E1);
#149=CARTESIAN_POINT('',(2.E0,-3.E0,1.697224362268E0));
#150=LINE('',#149,#148);
#151=DIRECTION('',(0.E0,1.E0,0.E0));
#152=VECTOR('',#151,1.068008544184E0);
#153=CARTESIAN_POINT('',(2.E0,-3.E0,1.458E1));
#154=LINE('',#153,#152);
#155=DIRECTION('',(0.E0,1.E0,0.E0));
#156=VECTOR('',#155,1.296017088369E0);
#157=CARTESIAN_POINT('',(2.E0,-1.508008544184E0,1.458E1));
#158=LINE('',#157,#156);
#159=CARTESIAN_POINT('',(2.E0,2.119914558157E-1,1.458E1));
#160=CARTESIAN_POINT('',(2.E0,1.843344697571E-1,1.455763529685E1));
#161=CARTESIAN_POINT('',(2.E0,1.277588580204E-1,1.452320199030E1));
#162=CARTESIAN_POINT('',(2.E0,4.197247988748E-2,1.449890497721E1));
#163=CARTESIAN_POINT('',(2.E0,-4.251865043966E-2,1.449901979197E1));
#164=CARTESIAN_POINT('',(2.E0,-1.277853994622E-1,1.452324933821E1));
#165=CARTESIAN_POINT('',(2.E0,-1.843420695403E-1,1.455764144238E1));
#166=CARTESIAN_POINT('',(2.E0,-2.119914558157E-1,1.458E1));
#168=CARTESIAN_POINT('',(0.E0,-5.E-1,1.6E1));
#169=DIRECTION('',(0.E0,1.E0,0.E0));
#170=DIRECTION('',(7.042016756583E-1,0.E0,-7.1E-1));
#171=AXIS2_PLACEMENT_3D('',#168,#169,#170);
#173=CARTESIAN_POINT('',(-2.E0,-2.119914558157E-1,1.458E1));
#174=CARTESIAN_POINT('',(-2.E0,-1.843668399870E-1,1.455766147290E1));
#175=CARTESIAN_POINT('',(-2.E0,-1.278586736253E-1,1.452325604932E1));
#176=CARTESIAN_POINT('',(-2.E0,-4.219771540076E-2,1.449895408223E1));
#177=CARTESIAN_POINT('',(-2.E0,4.220652205298E-2,1.449895532342E1));
#178=CARTESIAN_POINT('',(-2.E0,1.278657436357E-1,1.452325958574E1));
#179=CARTESIAN_POINT('',(-2.E0,1.843692895466E-1,1.455766345373E1));
#180=CARTESIAN_POINT('',(-2.E0,2.119914558157E-1,1.458E1));
#182=CARTESIAN_POINT('',(0.E0,5.E-1,1.6E1));
#183=DIRECTION('',(0.E0,-1.E0,0.E0));
#184=DIRECTION('',(-7.042016756583E-1,0.E0,-7.1E-1));
#185=AXIS2_PLACEMENT_3D('',#182,#183,#184);
#187=CARTESIAN_POINT('',(-1.408403351317E0,-5.E-1,1.458E1));
#188=CARTESIAN_POINT('',(-1.440438393918E0,-5.E-1,1.458E1));
#189=CARTESIAN_POINT('',(-1.503462931864E0,-4.969343688300E-1,1.458E1));
#190=CARTESIAN_POINT('',(-1.594083033053E0,-4.832107079886E-1,1.458E1));
#191=CARTESIAN_POINT('',(-1.683126850467E0,-4.594183038656E-1,1.458E1));
#192=CARTESIAN_POINT('',(-1.771752727919E0,-4.232260199443E-1,1.458E1));
#193=CARTESIAN_POINT('',(-1.859708784401E0,-3.707947672339E-1,1.458E1));
#194=CARTESIAN_POINT('',(-1.940600852990E0,-2.992322516127E-1,1.458E1));
#195=CARTESIAN_POINT('',(-1.982220421194E0,-2.429588621311E-1,1.458E1));
#196=CARTESIAN_POINT('',(-2.E0,-2.119914558157E-1,1.458E1));
#198=CARTESIAN_POINT('',(-2.E0,-1.508008544184E0,1.458E1));
#199=CARTESIAN_POINT('',(-1.980942743132E0,-1.474815754685E0,1.458E1));
#200=CARTESIAN_POINT('',(-1.935799763409E0,-1.414919777539E0,1.458E1));
#201=CARTESIAN_POINT('',(-1.848230894555E0,-1.340516979161E0,1.458E1));
#202=CARTESIAN_POINT('',(-1.750344280160E0,-1.285944608878E0,1.458E1));
#203=CARTESIAN_POINT('',(-1.646299632922E0,-1.248498162639E0,1.458E1));
#204=CARTESIAN_POINT('',(-1.534342201809E0,-1.225579697165E0,1.458E1));
#205=CARTESIAN_POINT('',(-1.451579288110E0,-1.22E0,1.458E1));
#206=CARTESIAN_POINT('',(-1.408403351317E0,-1.22E0,1.458E1));
#208=CARTESIAN_POINT('',(-2.E0,2.119914558157E-1,1.458E1));
#209=CARTESIAN_POINT('',(-1.980942743132E0,2.451842453146E-1,1.458E1));
#210=CARTESIAN_POINT('',(-1.935799763409E0,3.050802224607E-1,1.458E1));
#211=CARTESIAN_POINT('',(-1.848230894555E0,3.794830208394E-1,1.458E1));
#212=CARTESIAN_POINT('',(-1.750344280160E0,4.340553911218E-1,1.458E1));
#213=CARTESIAN_POINT('',(-1.646299632922E0,4.715018373612E-1,1.458E1));
#214=CARTESIAN_POINT('',(-1.534342201809E0,4.944203028345E-1,1.458E1));
#215=CARTESIAN_POINT('',(-1.451579288110E0,5.E-1,1.458E1));
#216=CARTESIAN_POINT('',(-1.408403351317E0,5.E-1,1.458E1));
#218=CARTESIAN_POINT('',(-1.408403351317E0,1.201808402823E0,1.458E1));
#219=CARTESIAN_POINT('',(-1.440438393918E0,1.201808402823E0,1.458E1));
#220=CARTESIAN_POINT('',(-1.503462931864E0,1.204874033993E0,1.458E1));
#221=CARTESIAN_POINT('',(-1.594083033053E0,1.218597694834E0,1.458E1));
#222=CARTESIAN_POINT('',(-1.683126850467E0,1.242390098957E0,1.458E1));
#223=CARTESIAN_POINT('',(-1.771752727919E0,1.278582382879E0,1.458E1));
#224=CARTESIAN_POINT('',(-1.859708784401E0,1.331013635589E0,1.458E1));
#225=CARTESIAN_POINT('',(-1.940600852990E0,1.402576151210E0,1.458E1));
#226=CARTESIAN_POINT('',(-1.982220421194E0,1.458849540692E0,1.458E1));
#227=CARTESIAN_POINT('',(-2.E0,1.489816947007E0,1.458E1));
#229=CARTESIAN_POINT('',(2.E0,-2.119914558157E-1,1.458E1));
#230=CARTESIAN_POINT('',(1.983839708579E0,-2.401384842738E-1,1.458E1));
#231=CARTESIAN_POINT('',(1.946349493037E0,-2.918466009851E-1,1.458E1));
#232=CARTESIAN_POINT('',(1.875531130903E0,-3.581749967446E-1,1.458E1));
#233=CARTESIAN_POINT('',(1.795669486697E0,-4.105183942828E-1,1.458E1));
#234=CARTESIAN_POINT('',(1.709765878916E0,-4.500012626861E-1,1.458E1));
#235=CARTESIAN_POINT('',(1.618090254818E0,-4.781408784653E-1,1.458E1));
#236=CARTESIAN_POINT('',(1.518575922192E0,-4.957688186391E-1,1.458E1));
#237=CARTESIAN_POINT('',(1.446099688959E0,-5.E-1,1.458E1));
#238=CARTESIAN_POINT('',(1.408403351317E0,-5.E-1,1.458E1));
#240=CARTESIAN_POINT('',(1.408403351317E0,-1.22E0,1.458E1));
#241=CARTESIAN_POINT('',(1.450797909709E0,-1.22E0,1.458E1));
#242=CARTESIAN_POINT('',(1.532677320636E0,-1.225332847805E0,1.458E1));
#243=CARTESIAN_POINT('',(1.646675825903E0,-1.248486576611E0,1.458E1));
#244=CARTESIAN_POINT('',(1.752130474797E0,-1.286692351564E0,1.458E1));
#245=CARTESIAN_POINT('',(1.849888383081E0,-1.341734548821E0,1.458E1));
#246=CARTESIAN_POINT('',(1.936114231796E0,-1.415381249805E0,1.458E1));
#247=CARTESIAN_POINT('',(1.981037226971E0,-1.474980320982E0,1.458E1));
#248=CARTESIAN_POINT('',(2.E0,-1.508008544184E0,1.458E1));
#250=CARTESIAN_POINT('',(1.408403351317E0,5.E-1,1.458E1));
#251=CARTESIAN_POINT('',(1.450797909709E0,5.E-1,1.458E1));
#252=CARTESIAN_POINT('',(1.532677320636E0,4.946671521954E-1,1.458E1));
#253=CARTESIAN_POINT('',(1.646675825903E0,4.715134233893E-1,1.458E1));
#254=CARTESIAN_POINT('',(1.752130474797E0,4.333076484365E-1,1.458E1));
#255=CARTESIAN_POINT('',(1.849888383081E0,3.782654511792E-1,1.458E1));
#256=CARTESIAN_POINT('',(1.936114231796E0,3.046187501945E-1,1.458E1));
#257=CARTESIAN_POINT('',(1.981037226971E0,2.450196790184E-1,1.458E1));
#258=CARTESIAN_POINT('',(2.E0,2.119914558157E-1,1.458E1));
#260=CARTESIAN_POINT('',(2.E0,1.489816947007E0,1.458E1));
#261=CARTESIAN_POINT('',(1.983839708579E0,1.461669918549E0,1.458E1));
#262=CARTESIAN_POINT('',(1.946349493037E0,1.409961801838E0,1.458E1));
#263=CARTESIAN_POINT('',(1.875531130903E0,1.343633406078E0,1.458E1));
#264=CARTESIAN_POINT('',(1.795669486697E0,1.291290008540E0,1.458E1));
#265=CARTESIAN_POINT('',(1.709765878916E0,1.251807140137E0,1.458E1));
#266=CARTESIAN_POINT('',(1.618090254818E0,1.223667524358E0,1.458E1));
#267=CARTESIAN_POINT('',(1.518575922192E0,1.206039584184E0,1.458E1));
#268=CARTESIAN_POINT('',(1.446099688959E0,1.201808402823E0,1.458E1));
#269=CARTESIAN_POINT('',(1.408403351317E0,1.201808402823E0,1.458E1));
#271=CARTESIAN_POINT('',(2.E0,-1.931991455816E0,1.458E1));
#272=CARTESIAN_POINT('',(1.983839708579E0,-1.960138484274E0,1.458E1));
#273=CARTESIAN_POINT('',(1.946349493037E0,-2.011846600985E0,1.458E1));
#274=CARTESIAN_POINT('',(1.875531130903E0,-2.078174996745E0,1.458E1));
#275=CARTESIAN_POINT('',(1.795669486697E0,-2.130518394283E0,1.458E1));
#276=CARTESIAN_POINT('',(1.709765878916E0,-2.170001262686E0,1.458E1));
#277=CARTESIAN_POINT('',(1.618090254818E0,-2.198140878465E0,1.458E1));
#278=CARTESIAN_POINT('',(1.518575922192E0,-2.215768818639E0,1.458E1));
#279=CARTESIAN_POINT('',(1.446099688959E0,-2.22E0,1.458E1));
#280=CARTESIAN_POINT('',(1.408403351317E0,-2.22E0,1.458E1));
#282=CARTESIAN_POINT('',(-1.408403351317E0,-2.22E0,1.458E1));
#283=CARTESIAN_POINT('',(-1.440438393918E0,-2.22E0,1.458E1));
#284=CARTESIAN_POINT('',(-1.503462931864E0,-2.216934368830E0,1.458E1));
#285=CARTESIAN_POINT('',(-1.594083033053E0,-2.203210707989E0,1.458E1));
#286=CARTESIAN_POINT('',(-1.683126850467E0,-2.179418303866E0,1.458E1));
#287=CARTESIAN_POINT('',(-1.771752727919E0,-2.143226019944E0,1.458E1));
#288=CARTESIAN_POINT('',(-1.859708784401E0,-2.090794767234E0,1.458E1));
#289=CARTESIAN_POINT('',(-1.940600852990E0,-2.019232251613E0,1.458E1));
#290=CARTESIAN_POINT('',(-1.982220421194E0,-1.962958862131E0,1.458E1));
#291=CARTESIAN_POINT('',(-2.E0,-1.931991455816E0,1.458E1));
#293=CARTESIAN_POINT('',(-2.E0,1.913799858639E0,1.458E1));
#294=CARTESIAN_POINT('',(-1.980942743132E0,1.946992648137E0,1.458E1));
#295=CARTESIAN_POINT('',(-1.935799763409E0,2.006888625284E0,1.458E1));
#296=CARTESIAN_POINT('',(-1.848230894555E0,2.081291423662E0,1.458E1));
#297=CARTESIAN_POINT('',(-1.750344280160E0,2.135863793945E0,1.458E1));
#298=CARTESIAN_POINT('',(-1.646299632922E0,2.173310240184E0,1.458E1));
#299=CARTESIAN_POINT('',(-1.534342201809E0,2.196228705657E0,1.458E1));
#300=CARTESIAN_POINT('',(-1.451579288110E0,2.201808402823E0,1.458E1));
#301=CARTESIAN_POINT('',(-1.408403351317E0,2.201808402823E0,1.458E1));
#303=CARTESIAN_POINT('',(1.408403351317E0,2.201808402823E0,1.458E1));
#304=CARTESIAN_POINT('',(1.450797909709E0,2.201808402823E0,1.458E1));
#305=CARTESIAN_POINT('',(1.532677320636E0,2.196475555018E0,1.458E1));
#306=CARTESIAN_POINT('',(1.646675825903E0,2.173321826212E0,1.458E1));
#307=CARTESIAN_POINT('',(1.752130474797E0,2.135116051259E0,1.458E1));
#308=CARTESIAN_POINT('',(1.849888383081E0,2.080073854002E0,1.458E1));
#309=CARTESIAN_POINT('',(1.936114231796E0,2.006427153017E0,1.458E1));
#310=CARTESIAN_POINT('',(1.981037226971E0,1.946828081841E0,1.458E1));
#311=CARTESIAN_POINT('',(2.E0,1.913799858639E0,1.458E1));
#313=DIRECTION('',(0.E0,1.E0,0.E0));
#314=VECTOR('',#313,7.2E-1);
#315=CARTESIAN_POINT('',(1.408403351317E0,-1.22E0,1.458E1));
#316=LINE('',#315,#314);
#317=DIRECTION('',(0.E0,1.E0,0.E0));
#318=VECTOR('',#317,7.2E-1);
#319=CARTESIAN_POINT('',(-1.408403351317E0,-1.22E0,1.458E1));
#320=LINE('',#319,#318);
#321=DIRECTION('',(0.E0,1.E0,0.E0));
#322=VECTOR('',#321,7.018084028228E-1);
#323=CARTESIAN_POINT('',(-1.408403351317E0,5.E-1,1.458E1));
#324=LINE('',#323,#322);
#325=DIRECTION('',(0.E0,1.E0,0.E0));
#326=VECTOR('',#325,7.018084028228E-1);
#327=CARTESIAN_POINT('',(1.408403351317E0,5.E-1,1.458E1));
#328=LINE('',#327,#326);
#329=DIRECTION('',(0.E0,1.E0,0.E0));
#330=VECTOR('',#329,7.8E-1);
#331=CARTESIAN_POINT('',(1.408403351317E0,-3.E0,1.458E1));
#332=LINE('',#331,#330);
#333=DIRECTION('',(0.E0,1.E0,0.E0));
#334=VECTOR('',#333,7.8E-1);
#335=CARTESIAN_POINT('',(-1.408403351317E0,-3.E0,1.458E1));
#336=LINE('',#335,#334);
#337=DIRECTION('',(0.E0,1.E0,0.E0));
#338=VECTOR('',#337,7.981915971771E-1);
#339=CARTESIAN_POINT('',(-1.408403351317E0,2.201808402823E0,1.458E1));
#340=LINE('',#339,#338);
#341=DIRECTION('',(0.E0,1.E0,0.E0));
#342=VECTOR('',#341,7.981915971771E-1);
#343=CARTESIAN_POINT('',(1.408403351317E0,2.201808402823E0,1.458E1));
#344=LINE('',#343,#342);
#345=CARTESIAN_POINT('',(2.E0,-1.508008544184E0,1.458E1));
#346=CARTESIAN_POINT('',(2.E0,-1.535665530243E0,1.455763529685E1));
#347=CARTESIAN_POINT('',(2.E0,-1.592241141980E0,1.452320199030E1));
#348=CARTESIAN_POINT('',(2.E0,-1.678027520113E0,1.449890497721E1));
#349=CARTESIAN_POINT('',(2.E0,-1.762518650440E0,1.449901979197E1));
#350=CARTESIAN_POINT('',(2.E0,-1.847785399462E0,1.452324933821E1));
#351=CARTESIAN_POINT('',(2.E0,-1.904342069540E0,1.455764144238E1));
#352=CARTESIAN_POINT('',(2.E0,-1.931991455816E0,1.458E1));
#354=CARTESIAN_POINT('',(0.E0,-2.22E0,1.6E1));
#355=DIRECTION('',(0.E0,1.E0,0.E0));
#356=DIRECTION('',(7.042016756583E-1,0.E0,-7.1E-1));
#357=AXIS2_PLACEMENT_3D('',#354,#355,#356);
#359=CARTESIAN_POINT('',(-2.E0,-1.931991455816E0,1.458E1));
#360=CARTESIAN_POINT('',(-2.E0,-1.904366839987E0,1.455766147290E1));
#361=CARTESIAN_POINT('',(-2.E0,-1.847858673625E0,1.452325604932E1));
#362=CARTESIAN_POINT('',(-2.E0,-1.762197715401E0,1.449895408223E1));
#363=CARTESIAN_POINT('',(-2.E0,-1.677793477947E0,1.449895532342E1));
#364=CARTESIAN_POINT('',(-2.E0,-1.592134256364E0,1.452325958574E1));
#365=CARTESIAN_POINT('',(-2.E0,-1.535630710453E0,1.455766345373E1));
#366=CARTESIAN_POINT('',(-2.E0,-1.508008544184E0,1.458E1));
#368=CARTESIAN_POINT('',(0.E0,-1.22E0,1.6E1));
#369=DIRECTION('',(0.E0,-1.E0,0.E0));
#370=DIRECTION('',(-7.042016756583E-1,0.E0,-7.1E-1));
#371=AXIS2_PLACEMENT_3D('',#368,#369,#370);
#373=DIRECTION('',(0.E0,-1.E0,0.E0));
#374=VECTOR('',#373,1.296017088369E0);
#375=CARTESIAN_POINT('',(-2.E0,-2.119914558157E-1,1.458E1));
#376=LINE('',#375,#374);
#377=DIRECTION('',(0.E0,-1.E0,0.E0));
#378=VECTOR('',#377,1.068008544184E0);
#379=CARTESIAN_POINT('',(-2.E0,-1.931991455816E0,1.458E1));
#380=LINE('',#379,#378);
#381=DIRECTION('',(0.E0,0.E0,-1.E0));
#382=VECTOR('',#381,1.288277563773E1);
#383=CARTESIAN_POINT('',(-2.E0,-3.E0,1.458E1));
#384=LINE('',#383,#382);
#385=CARTESIAN_POINT('',(-2.E0,0.E0,3.5E0));
#386=DIRECTION('',(1.E0,0.E0,0.E0));
#387=DIRECTION('',(0.E0,-8.571428571429E-1,-5.150787536377E-1));
#388=AXIS2_PLACEMENT_3D('',#385,#386,#387);
#390=DIRECTION('',(0.E0,0.E0,1.E0));
#391=VECTOR('',#390,2.662277660168E0);
#392=CARTESIAN_POINT('',(-2.E0,-1.5E0,3.377223398316E-1));
#393=LINE('',#392,#391);
#394=CARTESIAN_POINT('',(-2.E0,0.E0,3.5E0));
#395=DIRECTION('',(1.E0,0.E0,0.E0));
#396=DIRECTION('',(0.E0,4.285714285714E-1,-9.035079029053E-1));
#397=AXIS2_PLACEMENT_3D('',#394,#395,#396);
#399=DIRECTION('',(0.E0,0.E0,1.E0));
#400=VECTOR('',#399,1.288277563773E1);
#401=CARTESIAN_POINT('',(-2.E0,3.E0,1.697224362268E0));
#402=LINE('',#401,#400);
#403=DIRECTION('',(0.E0,-1.E0,0.E0));
#404=VECTOR('',#403,1.086200141361E0);
#405=CARTESIAN_POINT('',(-2.E0,3.E0,1.458E1));
#406=LINE('',#405,#404);
#407=DIRECTION('',(0.E0,-1.E0,0.E0));
#408=VECTOR('',#407,1.277825491191E0);
#409=CARTESIAN_POINT('',(-2.E0,1.489816947007E0,1.458E1));
#410=LINE('',#409,#408);
#411=DIRECTION('',(1.E0,0.E0,0.E0));
#412=VECTOR('',#411,4.E0);
#413=CARTESIAN_POINT('',(-2.E0,-3.E0,1.697224362268E0));
#414=LINE('',#413,#412);
#415=DIRECTION('',(-1.E0,0.E0,0.E0));
#416=VECTOR('',#415,5.915966486833E-1);
#417=CARTESIAN_POINT('',(-1.408403351317E0,-3.E0,1.458E1));
#418=LINE('',#417,#416);
#419=CARTESIAN_POINT('',(0.E0,-3.E0,1.6E1));
#420=DIRECTION('',(0.E0,1.E0,0.E0));
#421=DIRECTION('',(7.042016756583E-1,0.E0,-7.1E-1));
#422=AXIS2_PLACEMENT_3D('',#419,#420,#421);
#424=DIRECTION('',(-1.E0,0.E0,0.E0));
#425=VECTOR('',#424,5.915966486833E-1);
#426=CARTESIAN_POINT('',(2.E0,-3.E0,1.458E1));
#427=LINE('',#426,#425);
#428=CARTESIAN_POINT('',(-5.87E0,0.E0,3.5E0));
#429=DIRECTION('',(1.E0,0.E0,0.E0));
#430=DIRECTION('',(0.E0,-4.285714285714E-1,-9.035079029053E-1));
#431=AXIS2_PLACEMENT_3D('',#428,#429,#430);
#433=DIRECTION('',(0.E0,0.E0,1.E0));
#434=VECTOR('',#433,2.662277660168E0);
#435=CARTESIAN_POINT('',(-5.87E0,1.5E0,3.377223398316E-1));
#436=LINE('',#435,#434);
#437=DIRECTION('',(1.E0,0.E0,0.E0));
#438=VECTOR('',#437,3.87E0);
#439=CARTESIAN_POINT('',(-5.87E0,1.5E0,3.377223398316E-1));
#440=LINE('',#439,#438);
#441=DIRECTION('',(0.E0,0.E0,1.E0));
#442=VECTOR('',#441,2.662277660168E0);
#443=CARTESIAN_POINT('',(-2.E0,1.5E0,3.377223398316E-1));
#444=LINE('',#443,#442);
#445=DIRECTION('',(1.E0,0.E0,0.E0));
#446=VECTOR('',#445,3.87E0);
#447=CARTESIAN_POINT('',(-5.87E0,-1.5E0,3.377223398316E-1));
#448=LINE('',#447,#446);
#449=DIRECTION('',(0.E0,0.E0,1.E0));
#450=VECTOR('',#449,2.662277660168E0);
#451=CARTESIAN_POINT('',(-5.87E0,-1.5E0,3.377223398316E-1));
#452=LINE('',#451,#450);
#453=DIRECTION('',(1.E0,0.E0,0.E0));
#454=VECTOR('',#453,3.87E0);
#455=CARTESIAN_POINT('',(2.E0,-1.5E0,3.377223398316E-1));
#456=LINE('',#455,#454);
#457=DIRECTION('',(0.E0,0.E0,1.E0));
#458=VECTOR('',#457,2.662277660168E0);
#459=CARTESIAN_POINT('',(2.E0,-1.5E0,3.377223398316E-1));
#460=LINE('',#459,#458);
#461=CARTESIAN_POINT('',(5.87E0,0.E0,3.5E0));
#462=DIRECTION('',(-1.E0,0.E0,0.E0));
#463=DIRECTION('',(0.E0,4.285714285714E-1,-9.035079029053E-1));
#464=AXIS2_PLACEMENT_3D('',#461,#462,#463);
#466=DIRECTION('',(0.E0,0.E0,1.E0));
#467=VECTOR('',#466,2.662277660168E0);
#468=CARTESIAN_POINT('',(5.87E0,-1.5E0,3.377223398316E-1));
#469=LINE('',#468,#467);
#470=DIRECTION('',(1.E0,0.E0,0.E0));
#471=VECTOR('',#470,3.87E0);
#472=CARTESIAN_POINT('',(2.E0,1.5E0,3.377223398316E-1));
#473=LINE('',#472,#471);
#474=DIRECTION('',(0.E0,0.E0,1.E0));
#475=VECTOR('',#474,2.662277660168E0);
#476=CARTESIAN_POINT('',(5.87E0,1.5E0,3.377223398316E-1));
#477=LINE('',#476,#475);
#478=DIRECTION('',(1.E0,0.E0,0.E0));
#479=VECTOR('',#478,4.E0);
#480=CARTESIAN_POINT('',(-2.E0,3.E0,1.697224362268E0));
#481=LINE('',#480,#479);
#482=DIRECTION('',(0.E0,0.E0,1.E0));
#483=VECTOR('',#482,1.288277563773E1);
#484=CARTESIAN_POINT('',(2.E0,3.E0,1.697224362268E0));
#485=LINE('',#484,#483);
#486=DIRECTION('',(-1.E0,0.E0,0.E0));
#487=VECTOR('',#486,5.915966486833E-1);
#488=CARTESIAN_POINT('',(2.E0,3.E0,1.458E1));
#489=LINE('',#488,#487);
#490=CARTESIAN_POINT('',(0.E0,3.E0,1.6E1));
#491=DIRECTION('',(0.E0,1.E0,0.E0));
#492=DIRECTION('',(7.042016756583E-1,0.E0,-7.1E-1));
#493=AXIS2_PLACEMENT_3D('',#490,#491,#492);
#495=DIRECTION('',(-1.E0,0.E0,0.E0));
#496=VECTOR('',#495,5.915966486833E-1);
#497=CARTESIAN_POINT('',(-1.408403351317E0,3.E0,1.458E1));
#498=LINE('',#497,#496);
#499=CARTESIAN_POINT('',(2.E0,1.913799858639E0,1.458E1));
#500=CARTESIAN_POINT('',(2.E0,1.886142872580E0,1.455763529685E1));
#501=CARTESIAN_POINT('',(2.E0,1.829567260843E0,1.452320199030E1));
#502=CARTESIAN_POINT('',(2.E0,1.743780882710E0,1.449890497721E1));
#503=CARTESIAN_POINT('',(2.E0,1.659289752383E0,1.449901979197E1));
#504=CARTESIAN_POINT('',(2.E0,1.574023003361E0,1.452324933821E1));
#505=CARTESIAN_POINT('',(2.E0,1.517466333283E0,1.455764144238E1));
#506=CARTESIAN_POINT('',(2.E0,1.489816947007E0,1.458E1));
#508=CARTESIAN_POINT('',(0.E0,1.201808402823E0,1.6E1));
#509=DIRECTION('',(0.E0,1.E0,0.E0));
#510=DIRECTION('',(7.042016756583E-1,0.E0,-7.1E-1));
#511=AXIS2_PLACEMENT_3D('',#508,#509,#510);
#513=CARTESIAN_POINT('',(-2.E0,1.489816947007E0,1.458E1));
#514=CARTESIAN_POINT('',(-2.E0,1.517441562836E0,1.455766147290E1));
#515=CARTESIAN_POINT('',(-2.E0,1.573949729198E0,1.452325604932E1));
#516=CARTESIAN_POINT('',(-2.E0,1.659610687422E0,1.449895408223E1));
#517=CARTESIAN_POINT('',(-2.E0,1.744014924876E0,1.449895532342E1));
#518=CARTESIAN_POINT('',(-2.E0,1.829674146459E0,1.452325958574E1));
#519=CARTESIAN_POINT('',(-2.E0,1.886177692369E0,1.455766345373E1));
#520=CARTESIAN_POINT('',(-2.E0,1.913799858639E0,1.458E1));
#522=CARTESIAN_POINT('',(0.E0,2.201808402823E0,1.6E1));
#523=DIRECTION('',(0.E0,-1.E0,0.E0));
#524=DIRECTION('',(-7.042016756583E-1,0.E0,-7.1E-1));
#525=AXIS2_PLACEMENT_3D('',#522,#523,#524);
#527=CARTESIAN_POINT('',(-5.87E0,1.5E0,3.E0));
#528=CARTESIAN_POINT('',(-5.87E0,-1.5E0,3.E0));
#529=VERTEX_POINT('',#527);
#530=VERTEX_POINT('',#528);
#531=CARTESIAN_POINT('',(5.87E0,-1.5E0,3.E0));
#532=CARTESIAN_POINT('',(5.87E0,1.5E0,3.E0));
#533=VERTEX_POINT('',#531);
#534=VERTEX_POINT('',#532);
#535=CARTESIAN_POINT('',(-3.1E0,0.E0,3.E0));
#536=CARTESIAN_POINT('',(-5.1E0,0.E0,3.E0));
#537=VERTEX_POINT('',#535);
#538=VERTEX_POINT('',#536);
#539=CARTESIAN_POINT('',(5.1E0,0.E0,3.E0));
#540=CARTESIAN_POINT('',(3.1E0,0.E0,3.E0));
#541=VERTEX_POINT('',#539);
#542=VERTEX_POINT('',#540);
#543=CARTESIAN_POINT('',(2.E0,-1.5E0,3.E0));
#544=CARTESIAN_POINT('',(2.E0,1.5E0,3.E0));
#545=VERTEX_POINT('',#543);
#546=VERTEX_POINT('',#544);
#547=CARTESIAN_POINT('',(-2.E0,-1.5E0,3.E0));
#548=CARTESIAN_POINT('',(-2.E0,1.5E0,3.E0));
#549=VERTEX_POINT('',#547);
#550=VERTEX_POINT('',#548);
#551=CARTESIAN_POINT('',(-4.7E0,0.E0,1.E1));
#552=CARTESIAN_POINT('',(-3.5E0,0.E0,1.E1));
#553=VERTEX_POINT('',#551);
#554=VERTEX_POINT('',#552);
#555=CARTESIAN_POINT('',(-5.1E0,0.E0,9.6E0));
#556=CARTESIAN_POINT('',(-3.1E0,0.E0,9.6E0));
#557=VERTEX_POINT('',#555);
#558=VERTEX_POINT('',#556);
#559=CARTESIAN_POINT('',(3.5E0,0.E0,1.E1));
#560=CARTESIAN_POINT('',(4.7E0,0.E0,1.E1));
#561=VERTEX_POINT('',#559);
#562=VERTEX_POINT('',#560);
#563=CARTESIAN_POINT('',(3.1E0,0.E0,9.6E0));
#564=CARTESIAN_POINT('',(5.1E0,0.E0,9.6E0));
#565=VERTEX_POINT('',#563);
#566=VERTEX_POINT('',#564);
#567=CARTESIAN_POINT('',(-1.408403351317E0,-3.E0,1.458E1));
#568=CARTESIAN_POINT('',(-2.E0,-3.E0,1.458E1));
#569=VERTEX_POINT('',#567);
#570=VERTEX_POINT('',#568);
#571=CARTESIAN_POINT('',(2.E0,-3.E0,1.458E1));
#572=CARTESIAN_POINT('',(1.408403351317E0,-3.E0,1.458E1));
#573=VERTEX_POINT('',#571);
#574=VERTEX_POINT('',#572);
#575=CARTESIAN_POINT('',(2.E0,3.E0,1.458E1));
#576=CARTESIAN_POINT('',(1.408403351317E0,3.E0,1.458E1));
#577=VERTEX_POINT('',#575);
#578=VERTEX_POINT('',#576);
#579=CARTESIAN_POINT('',(-1.408403351317E0,3.E0,1.458E1));
#580=CARTESIAN_POINT('',(-2.E0,3.E0,1.458E1));
#581=VERTEX_POINT('',#579);
#582=VERTEX_POINT('',#580);
#583=CARTESIAN_POINT('',(-5.87E0,-1.5E0,3.377223398316E-1));
#584=CARTESIAN_POINT('',(-5.87E0,1.5E0,3.377223398316E-1));
#585=VERTEX_POINT('',#583);
#586=VERTEX_POINT('',#584);
#587=CARTESIAN_POINT('',(-2.E0,-1.5E0,3.377223398316E-1));
#588=VERTEX_POINT('',#587);
#589=CARTESIAN_POINT('',(-2.E0,-3.E0,1.697224362268E0));
#590=VERTEX_POINT('',#589);
#591=CARTESIAN_POINT('',(-2.E0,1.5E0,3.377223398316E-1));
#592=CARTESIAN_POINT('',(-2.E0,3.E0,1.697224362268E0));
#593=VERTEX_POINT('',#591);
#594=VERTEX_POINT('',#592);
#595=CARTESIAN_POINT('',(2.E0,-3.E0,1.697224362268E0));
#596=VERTEX_POINT('',#595);
#597=CARTESIAN_POINT('',(2.E0,-1.5E0,3.377223398316E-1));
#598=VERTEX_POINT('',#597);
#599=CARTESIAN_POINT('',(2.E0,1.5E0,3.377223398316E-1));
#600=CARTESIAN_POINT('',(2.E0,3.E0,1.697224362268E0));
#601=VERTEX_POINT('',#599);
#602=VERTEX_POINT('',#600);
#603=CARTESIAN_POINT('',(5.87E0,-1.5E0,3.377223398316E-1));
#604=VERTEX_POINT('',#603);
#605=CARTESIAN_POINT('',(5.87E0,1.5E0,3.377223398316E-1));
#606=VERTEX_POINT('',#605);
#607=VERTEX_POINT('',#187);
#608=VERTEX_POINT('',#196);
#609=VERTEX_POINT('',#208);
#610=VERTEX_POINT('',#216);
#611=VERTEX_POINT('',#229);
#612=VERTEX_POINT('',#238);
#613=VERTEX_POINT('',#250);
#614=VERTEX_POINT('',#258);
#615=CARTESIAN_POINT('',(2.E0,-1.931991455816E0,1.458E1));
#616=VERTEX_POINT('',#615);
#617=CARTESIAN_POINT('',(2.E0,-1.508008544184E0,1.458E1));
#618=VERTEX_POINT('',#617);
#619=CARTESIAN_POINT('',(1.408403351317E0,-2.22E0,1.458E1));
#620=VERTEX_POINT('',#619);
#621=CARTESIAN_POINT('',(1.408403351317E0,-1.22E0,1.458E1));
#622=VERTEX_POINT('',#621);
#623=CARTESIAN_POINT('',(-1.408403351317E0,-2.22E0,1.458E1));
#624=VERTEX_POINT('',#623);
#625=CARTESIAN_POINT('',(-1.408403351317E0,-1.22E0,1.458E1));
#626=VERTEX_POINT('',#625);
#627=CARTESIAN_POINT('',(-2.E0,1.913799858639E0,1.458E1));
#628=VERTEX_POINT('',#627);
#629=CARTESIAN_POINT('',(-2.E0,1.489816947007E0,1.458E1));
#630=VERTEX_POINT('',#629);
#631=VERTEX_POINT('',#291);
#632=VERTEX_POINT('',#198);
#633=VERTEX_POINT('',#218);
#634=VERTEX_POINT('',#301);
#635=VERTEX_POINT('',#260);
#636=VERTEX_POINT('',#269);
#637=VERTEX_POINT('',#303);
#638=VERTEX_POINT('',#311);
#639=CARTESIAN_POINT('',(0.E0,0.E0,3.E0));
#640=DIRECTION('',(0.E0,0.E0,1.E0));
#641=DIRECTION('',(1.E0,0.E0,0.E0));
#642=AXIS2_PLACEMENT_3D('',#639,#640,#641);
#643=PLANE('',#642);
#645=ORIENTED_EDGE('',*,*,#644,.T.);
#647=ORIENTED_EDGE('',*,*,#646,.F.);
#649=ORIENTED_EDGE('',*,*,#648,.F.);
#651=ORIENTED_EDGE('',*,*,#650,.F.);
#652=EDGE_LOOP('',(#645,#647,#649,#651));
#653=FACE_OUTER_BOUND('',#652,.F.);
#655=ORIENTED_EDGE('',*,*,#654,.T.);
#657=ORIENTED_EDGE('',*,*,#656,.T.);
#658=EDGE_LOOP('',(#655,#657));
#659=FACE_BOUND('',#658,.F.);
#660=ADVANCED_FACE('',(#653,#659),#643,.T.);
#661=CARTESIAN_POINT('',(0.E0,0.E0,3.E0));
#662=DIRECTION('',(0.E0,0.E0,1.E0));
#663=DIRECTION('',(1.E0,0.E0,0.E0));
#664=AXIS2_PLACEMENT_3D('',#661,#662,#663);
#665=PLANE('',#664);
#667=ORIENTED_EDGE('',*,*,#666,.F.);
#669=ORIENTED_EDGE('',*,*,#668,.F.);
#671=ORIENTED_EDGE('',*,*,#670,.F.);
#673=ORIENTED_EDGE('',*,*,#672,.F.);
#674=EDGE_LOOP('',(#667,#669,#671,#673));
#675=FACE_OUTER_BOUND('',#674,.F.);
#677=ORIENTED_EDGE('',*,*,#676,.T.);
#679=ORIENTED_EDGE('',*,*,#678,.T.);
#680=EDGE_LOOP('',(#677,#679));
#681=FACE_BOUND('',#680,.F.);
#682=ADVANCED_FACE('',(#675,#681),#665,.T.);
#683=CARTESIAN_POINT('',(-4.1E0,0.E0,0.E0));
#684=DIRECTION('',(0.E0,0.E0,1.E0));
#685=DIRECTION('',(1.E0,0.E0,0.E0));
#686=AXIS2_PLACEMENT_3D('',#683,#684,#685);
#687=CYLINDRICAL_SURFACE('',#686,1.E0);
#689=ORIENTED_EDGE('',*,*,#688,.T.);
#691=ORIENTED_EDGE('',*,*,#690,.F.);
#692=ORIENTED_EDGE('',*,*,#676,.F.);
#694=ORIENTED_EDGE('',*,*,#693,.T.);
#695=EDGE_LOOP('',(#689,#691,#692,#694));
#696=FACE_OUTER_BOUND('',#695,.F.);
#697=ADVANCED_FACE('',(#696),#687,.T.);
#698=CARTESIAN_POINT('',(-4.1E0,0.E0,9.800000000243E0));
#699=DIRECTION('',(0.E0,0.E0,-1.E0));
#700=DIRECTION('',(0.E0,-1.E0,0.E0));
#701=AXIS2_PLACEMENT_3D('',#698,#699,#700);
#702=CONICAL_SURFACE('',#701,7.999999997566E-1,4.5E1);
#704=ORIENTED_EDGE('',*,*,#703,.T.);
#706=ORIENTED_EDGE('',*,*,#705,.T.);
#707=ORIENTED_EDGE('',*,*,#688,.F.);
#709=ORIENTED_EDGE('',*,*,#708,.F.);
#710=EDGE_LOOP('',(#704,#706,#707,#709));
#711=FACE_OUTER_BOUND('',#710,.F.);
#712=ADVANCED_FACE('',(#711),#702,.T.);
#713=CARTESIAN_POINT('',(0.E0,0.E0,1.E1));
#714=DIRECTION('',(0.E0,0.E0,1.E0));
#715=DIRECTION('',(1.E0,0.E0,0.E0));
#716=AXIS2_PLACEMENT_3D('',#713,#714,#715);
#717=PLANE('',#716);
#719=ORIENTED_EDGE('',*,*,#718,.F.);
#720=ORIENTED_EDGE('',*,*,#703,.F.);
#721=EDGE_LOOP('',(#719,#720));
#722=FACE_OUTER_BOUND('',#721,.F.);
#723=ADVANCED_FACE('',(#722),#717,.T.);
#724=CARTESIAN_POINT('',(0.E0,0.E0,1.E1));
#725=DIRECTION('',(0.E0,0.E0,1.E0));
#726=DIRECTION('',(1.E0,0.E0,0.E0));
#727=AXIS2_PLACEMENT_3D('',#724,#725,#726);
#728=PLANE('',#727);
#730=ORIENTED_EDGE('',*,*,#729,.F.);
#732=ORIENTED_EDGE('',*,*,#731,.F.);
#733=EDGE_LOOP('',(#730,#732));
#734=FACE_OUTER_BOUND('',#733,.F.);
#735=ADVANCED_FACE('',(#734),#728,.T.);
#736=CARTESIAN_POINT('',(-4.1E0,0.E0,9.800000000243E0));
#737=DIRECTION('',(0.E0,0.E0,-1.E0));
#738=DIRECTION('',(0.E0,-1.E0,0.E0));
#739=AXIS2_PLACEMENT_3D('',#736,#737,#738);
#740=CONICAL_SURFACE('',#739,7.999999997566E-1,4.5E1);
#741=ORIENTED_EDGE('',*,*,#718,.T.);
#742=ORIENTED_EDGE('',*,*,#708,.T.);
#744=ORIENTED_EDGE('',*,*,#743,.F.);
#745=ORIENTED_EDGE('',*,*,#705,.F.);
#746=EDGE_LOOP('',(#741,#742,#744,#745));
#747=FACE_OUTER_BOUND('',#746,.F.);
#748=ADVANCED_FACE('',(#747),#740,.T.);
#749=CARTESIAN_POINT('',(-4.1E0,0.E0,0.E0));
#750=DIRECTION('',(0.E0,0.E0,1.E0));
#751=DIRECTION('',(1.E0,0.E0,0.E0));
#752=AXIS2_PLACEMENT_3D('',#749,#750,#751);
#753=CYLINDRICAL_SURFACE('',#752,1.E0);
#754=ORIENTED_EDGE('',*,*,#743,.T.);
#755=ORIENTED_EDGE('',*,*,#693,.F.);
#756=ORIENTED_EDGE('',*,*,#678,.F.);
#757=ORIENTED_EDGE('',*,*,#690,.T.);
#758=EDGE_LOOP('',(#754,#755,#756,#757));
#759=FACE_OUTER_BOUND('',#758,.F.);
#760=ADVANCED_FACE('',(#759),#753,.T.);
#761=CARTESIAN_POINT('',(4.1E0,0.E0,9.800000000243E0));
#762=DIRECTION('',(0.E0,0.E0,-1.E0));
#763=DIRECTION('',(0.E0,-1.E0,0.E0));
#764=AXIS2_PLACEMENT_3D('',#761,#762,#763);
#765=CONICAL_SURFACE('',#764,7.999999997566E-1,4.5E1);
#766=ORIENTED_EDGE('',*,*,#729,.T.);
#768=ORIENTED_EDGE('',*,*,#767,.T.);
#770=ORIENTED_EDGE('',*,*,#769,.F.);
#772=ORIENTED_EDGE('',*,*,#771,.F.);
#773=EDGE_LOOP('',(#766,#768,#770,#772));
#774=FACE_OUTER_BOUND('',#773,.F.);
#775=ADVANCED_FACE('',(#774),#765,.T.);
#776=CARTESIAN_POINT('',(4.1E0,0.E0,9.800000000243E0));
#777=DIRECTION('',(0.E0,0.E0,-1.E0));
#778=DIRECTION('',(0.E0,-1.E0,0.E0));
#779=AXIS2_PLACEMENT_3D('',#776,#777,#778);
#780=CONICAL_SURFACE('',#779,7.999999997566E-1,4.5E1);
#781=ORIENTED_EDGE('',*,*,#731,.T.);
#782=ORIENTED_EDGE('',*,*,#771,.T.);
#784=ORIENTED_EDGE('',*,*,#783,.F.);
#785=ORIENTED_EDGE('',*,*,#767,.F.);
#786=EDGE_LOOP('',(#781,#782,#784,#785));
#787=FACE_OUTER_BOUND('',#786,.F.);
#788=ADVANCED_FACE('',(#787),#780,.T.);
#789=CARTESIAN_POINT('',(4.1E0,0.E0,0.E0));
#790=DIRECTION('',(0.E0,0.E0,1.E0));
#791=DIRECTION('',(1.E0,0.E0,0.E0));
#792=AXIS2_PLACEMENT_3D('',#789,#790,#791);
#793=CYLINDRICAL_SURFACE('',#792,1.E0);
#794=ORIENTED_EDGE('',*,*,#783,.T.);
#796=ORIENTED_EDGE('',*,*,#795,.F.);
#797=ORIENTED_EDGE('',*,*,#654,.F.);
#799=ORIENTED_EDGE('',*,*,#798,.T.);
#800=EDGE_LOOP('',(#794,#796,#797,#799));
#801=FACE_OUTER_BOUND('',#800,.F.);
#802=ADVANCED_FACE('',(#801),#793,.T.);
#803=CARTESIAN_POINT('',(4.1E0,0.E0,0.E0));
#804=DIRECTION('',(0.E0,0.E0,1.E0));
#805=DIRECTION('',(1.E0,0.E0,0.E0));
#806=AXIS2_PLACEMENT_3D('',#803,#804,#805);
#807=CYLINDRICAL_SURFACE('',#806,1.E0);
#808=ORIENTED_EDGE('',*,*,#769,.T.);
#809=ORIENTED_EDGE('',*,*,#798,.F.);
#810=ORIENTED_EDGE('',*,*,#656,.F.);
#811=ORIENTED_EDGE('',*,*,#795,.T.);
#812=EDGE_LOOP('',(#808,#809,#810,#811));
#813=FACE_OUTER_BOUND('',#812,.F.);
#814=ADVANCED_FACE('',(#813),#807,.T.);
#815=CARTESIAN_POINT('',(2.E0,-3.E0,0.E0));
#816=DIRECTION('',(1.E0,0.E0,0.E0));
#817=DIRECTION('',(0.E0,1.E0,0.E0));
#818=AXIS2_PLACEMENT_3D('',#815,#816,#817);
#819=PLANE('',#818);
#821=ORIENTED_EDGE('',*,*,#820,.F.);
#823=ORIENTED_EDGE('',*,*,#822,.T.);
#825=ORIENTED_EDGE('',*,*,#824,.F.);
#827=ORIENTED_EDGE('',*,*,#826,.T.);
#829=ORIENTED_EDGE('',*,*,#828,.F.);
#831=ORIENTED_EDGE('',*,*,#830,.F.);
#833=ORIENTED_EDGE('',*,*,#832,.T.);
#834=ORIENTED_EDGE('',*,*,#644,.F.);
#836=ORIENTED_EDGE('',*,*,#835,.F.);
#838=ORIENTED_EDGE('',*,*,#837,.F.);
#840=ORIENTED_EDGE('',*,*,#839,.T.);
#842=ORIENTED_EDGE('',*,*,#841,.T.);
#844=ORIENTED_EDGE('',*,*,#843,.F.);
#846=ORIENTED_EDGE('',*,*,#845,.T.);
#847=EDGE_LOOP('',(#821,#823,#825,#827,#829,#831,#833,#834,#836,#838,#840,#842,
#844,#846));
#848=FACE_OUTER_BOUND('',#847,.F.);
#849=ADVANCED_FACE('',(#848),#819,.T.);
#850=CARTESIAN_POINT('',(0.E0,0.E0,1.6E1));
#851=DIRECTION('',(0.E0,1.E0,0.E0));
#852=DIRECTION('',(0.E0,0.E0,-1.E0));
#853=AXIS2_PLACEMENT_3D('',#850,#851,#852);
#854=TOROIDAL_SURFACE('',#853,2.E0,5.E-1);
#855=ORIENTED_EDGE('',*,*,#820,.T.);
#857=ORIENTED_EDGE('',*,*,#856,.T.);
#859=ORIENTED_EDGE('',*,*,#858,.T.);
#861=ORIENTED_EDGE('',*,*,#860,.T.);
#863=ORIENTED_EDGE('',*,*,#862,.T.);
#865=ORIENTED_EDGE('',*,*,#864,.T.);
#867=ORIENTED_EDGE('',*,*,#866,.T.);
#869=ORIENTED_EDGE('',*,*,#868,.T.);
#870=EDGE_LOOP('',(#855,#857,#859,#861,#863,#865,#867,#869));
#871=FACE_OUTER_BOUND('',#870,.F.);
#872=ADVANCED_FACE('',(#871),#854,.F.);
#873=CARTESIAN_POINT('',(2.E0,3.E0,1.458E1));
#874=DIRECTION('',(0.E0,0.E0,-1.E0));
#875=DIRECTION('',(-1.E0,0.E0,0.E0));
#876=AXIS2_PLACEMENT_3D('',#873,#874,#875);
#877=PLANE('',#876);
#878=ORIENTED_EDGE('',*,*,#860,.F.);
#880=ORIENTED_EDGE('',*,*,#879,.F.);
#882=ORIENTED_EDGE('',*,*,#881,.F.);
#884=ORIENTED_EDGE('',*,*,#883,.F.);
#885=EDGE_LOOP('',(#878,#880,#882,#884));
#886=FACE_OUTER_BOUND('',#885,.F.);
#887=ADVANCED_FACE('',(#886),#877,.F.);
#888=CARTESIAN_POINT('',(2.E0,3.E0,1.458E1));
#889=DIRECTION('',(0.E0,0.E0,-1.E0));
#890=DIRECTION('',(-1.E0,0.E0,0.E0));
#891=AXIS2_PLACEMENT_3D('',#888,#889,#890);
#892=PLANE('',#891);
#893=ORIENTED_EDGE('',*,*,#864,.F.);
#895=ORIENTED_EDGE('',*,*,#894,.F.);
#897=ORIENTED_EDGE('',*,*,#896,.F.);
#899=ORIENTED_EDGE('',*,*,#898,.F.);
#900=EDGE_LOOP('',(#893,#895,#897,#899));
#901=FACE_OUTER_BOUND('',#900,.F.);
#902=ADVANCED_FACE('',(#901),#892,.F.);
#903=CARTESIAN_POINT('',(2.E0,3.E0,1.458E1));
#904=DIRECTION('',(0.E0,0.E0,-1.E0));
#905=DIRECTION('',(-1.E0,0.E0,0.E0));
#906=AXIS2_PLACEMENT_3D('',#903,#904,#905);
#907=PLANE('',#906);
#908=ORIENTED_EDGE('',*,*,#856,.F.);
#909=ORIENTED_EDGE('',*,*,#845,.F.);
#911=ORIENTED_EDGE('',*,*,#910,.F.);
#913=ORIENTED_EDGE('',*,*,#912,.T.);
#914=EDGE_LOOP('',(#908,#909,#911,#913));
#915=FACE_OUTER_BOUND('',#914,.F.);
#916=ADVANCED_FACE('',(#915),#907,.F.);
#917=CARTESIAN_POINT('',(2.E0,3.E0,1.458E1));
#918=DIRECTION('',(0.E0,0.E0,-1.E0));
#919=DIRECTION('',(-1.E0,0.E0,0.E0));
#920=AXIS2_PLACEMENT_3D('',#917,#918,#919);
#921=PLANE('',#920);
#922=ORIENTED_EDGE('',*,*,#868,.F.);
#924=ORIENTED_EDGE('',*,*,#923,.T.);
#926=ORIENTED_EDGE('',*,*,#925,.F.);
#927=ORIENTED_EDGE('',*,*,#822,.F.);
#928=EDGE_LOOP('',(#922,#924,#926,#927));
#929=FACE_OUTER_BOUND('',#928,.F.);
#930=ADVANCED_FACE('',(#929),#921,.F.);
#931=CARTESIAN_POINT('',(2.E0,3.E0,1.458E1));
#932=DIRECTION('',(0.E0,0.E0,-1.E0));
#933=DIRECTION('',(-1.E0,0.E0,0.E0));
#934=AXIS2_PLACEMENT_3D('',#931,#932,#933);
#935=PLANE('',#934);
#936=ORIENTED_EDGE('',*,*,#841,.F.);
#938=ORIENTED_EDGE('',*,*,#937,.T.);
#940=ORIENTED_EDGE('',*,*,#939,.T.);
#942=ORIENTED_EDGE('',*,*,#941,.F.);
#943=EDGE_LOOP('',(#936,#938,#940,#942));
#944=FACE_OUTER_BOUND('',#943,.F.);
#945=ADVANCED_FACE('',(#944),#935,.F.);
#946=CARTESIAN_POINT('',(2.E0,3.E0,1.458E1));
#947=DIRECTION('',(0.E0,0.E0,-1.E0));
#948=DIRECTION('',(-1.E0,0.E0,0.E0));
#949=AXIS2_PLACEMENT_3D('',#946,#947,#948);
#950=PLANE('',#949);
#952=ORIENTED_EDGE('',*,*,#951,.F.);
#954=ORIENTED_EDGE('',*,*,#953,.T.);
#956=ORIENTED_EDGE('',*,*,#955,.F.);
#958=ORIENTED_EDGE('',*,*,#957,.F.);
#959=EDGE_LOOP('',(#952,#954,#956,#958));
#960=FACE_OUTER_BOUND('',#959,.F.);
#961=ADVANCED_FACE('',(#960),#950,.F.);
#962=CARTESIAN_POINT('',(2.E0,3.E0,1.458E1));
#963=DIRECTION('',(0.E0,0.E0,-1.E0));
#964=DIRECTION('',(-1.E0,0.E0,0.E0));
#965=AXIS2_PLACEMENT_3D('',#962,#963,#964);
#966=PLANE('',#965);
#968=ORIENTED_EDGE('',*,*,#967,.F.);
#970=ORIENTED_EDGE('',*,*,#969,.F.);
#972=ORIENTED_EDGE('',*,*,#971,.F.);
#974=ORIENTED_EDGE('',*,*,#973,.F.);
#975=EDGE_LOOP('',(#968,#970,#972,#974));
#976=FACE_OUTER_BOUND('',#975,.F.);
#977=ADVANCED_FACE('',(#976),#966,.F.);
#978=CARTESIAN_POINT('',(2.E0,3.E0,1.458E1));
#979=DIRECTION('',(0.E0,0.E0,-1.E0));
#980=DIRECTION('',(-1.E0,0.E0,0.E0));
#981=AXIS2_PLACEMENT_3D('',#978,#979,#980);
#982=PLANE('',#981);
#984=ORIENTED_EDGE('',*,*,#983,.F.);
#986=ORIENTED_EDGE('',*,*,#985,.T.);
#988=ORIENTED_EDGE('',*,*,#987,.F.);
#989=ORIENTED_EDGE('',*,*,#826,.F.);
#990=EDGE_LOOP('',(#984,#986,#988,#989));
#991=FACE_OUTER_BOUND('',#990,.F.);
#992=ADVANCED_FACE('',(#991),#982,.F.);
#993=CARTESIAN_POINT('',(0.E0,-3.5E0,1.6E1));
#994=DIRECTION('',(0.E0,1.E0,0.E0));
#995=DIRECTION('',(-1.E0,0.E0,0.E0));
#996=AXIS2_PLACEMENT_3D('',#993,#994,#995);
#997=CYLINDRICAL_SURFACE('',#996,2.E0);
#998=ORIENTED_EDGE('',*,*,#858,.F.);
#999=ORIENTED_EDGE('',*,*,#912,.F.);
#1001=ORIENTED_EDGE('',*,*,#1000,.F.);
#1002=ORIENTED_EDGE('',*,*,#879,.T.);
#1003=EDGE_LOOP('',(#998,#999,#1001,#1002));
#1004=FACE_OUTER_BOUND('',#1003,.F.);
#1005=ADVANCED_FACE('',(#1004),#997,.F.);
#1006=CARTESIAN_POINT('',(0.E0,-3.5E0,1.6E1));
#1007=DIRECTION('',(0.E0,1.E0,0.E0));
#1008=DIRECTION('',(-1.E0,0.E0,0.E0));
#1009=AXIS2_PLACEMENT_3D('',#1006,#1007,#1008);
#1010=CYLINDRICAL_SURFACE('',#1009,2.E0);
#1011=ORIENTED_EDGE('',*,*,#866,.F.);
#1012=ORIENTED_EDGE('',*,*,#898,.T.);
#1014=ORIENTED_EDGE('',*,*,#1013,.F.);
#1015=ORIENTED_EDGE('',*,*,#923,.F.);
#1016=EDGE_LOOP('',(#1011,#1012,#1014,#1015));
#1017=FACE_OUTER_BOUND('',#1016,.F.);
#1018=ADVANCED_FACE('',(#1017),#1010,.F.);
#1019=CARTESIAN_POINT('',(0.E0,-3.5E0,1.6E1));
#1020=DIRECTION('',(0.E0,1.E0,0.E0));
#1021=DIRECTION('',(-1.E0,0.E0,0.E0));
#1022=AXIS2_PLACEMENT_3D('',#1019,#1020,#1021);
#1023=CYLINDRICAL_SURFACE('',#1022,2.E0);
#1024=ORIENTED_EDGE('',*,*,#939,.F.);
#1026=ORIENTED_EDGE('',*,*,#1025,.T.);
#1027=ORIENTED_EDGE('',*,*,#951,.T.);
#1029=ORIENTED_EDGE('',*,*,#1028,.F.);
#1030=EDGE_LOOP('',(#1024,#1026,#1027,#1029));
#1031=FACE_OUTER_BOUND('',#1030,.F.);
#1032=ADVANCED_FACE('',(#1031),#1023,.F.);
#1033=CARTESIAN_POINT('',(0.E0,-3.5E0,1.6E1));
#1034=DIRECTION('',(0.E0,1.E0,0.E0));
#1035=DIRECTION('',(-1.E0,0.E0,0.E0));
#1036=AXIS2_PLACEMENT_3D('',#1033,#1034,#1035);
#1037=CYLINDRICAL_SURFACE('',#1036,2.E0);
#1039=ORIENTED_EDGE('',*,*,#1038,.F.);
#1040=ORIENTED_EDGE('',*,*,#971,.T.);
#1042=ORIENTED_EDGE('',*,*,#1041,.F.);
#1043=ORIENTED_EDGE('',*,*,#985,.F.);
#1044=EDGE_LOOP('',(#1039,#1040,#1042,#1043));
#1045=FACE_OUTER_BOUND('',#1044,.F.);
#1046=ADVANCED_FACE('',(#1045),#1037,.F.);
#1047=CARTESIAN_POINT('',(0.E0,-1.72E0,1.6E1));
#1048=DIRECTION('',(0.E0,1.E0,0.E0));
#1049=DIRECTION('',(0.E0,0.E0,-1.E0));
#1050=AXIS2_PLACEMENT_3D('',#1047,#1048,#1049);
#1051=TOROIDAL_SURFACE('',#1050,2.E0,5.E-1);
#1052=ORIENTED_EDGE('',*,*,#843,.T.);
#1053=ORIENTED_EDGE('',*,*,#941,.T.);
#1054=ORIENTED_EDGE('',*,*,#1028,.T.);
#1055=ORIENTED_EDGE('',*,*,#957,.T.);
#1057=ORIENTED_EDGE('',*,*,#1056,.T.);
#1058=ORIENTED_EDGE('',*,*,#881,.T.);
#1059=ORIENTED_EDGE('',*,*,#1000,.T.);
#1060=ORIENTED_EDGE('',*,*,#910,.T.);
#1061=EDGE_LOOP('',(#1052,#1053,#1054,#1055,#1057,#1058,#1059,#1060));
#1062=FACE_OUTER_BOUND('',#1061,.F.);
#1063=ADVANCED_FACE('',(#1062),#1051,.F.);
#1064=CARTESIAN_POINT('',(-2.E0,-1.5E0,0.E0));
#1065=DIRECTION('',(-1.E0,0.E0,0.E0));
#1066=DIRECTION('',(0.E0,-1.E0,0.E0));
#1067=AXIS2_PLACEMENT_3D('',#1064,#1065,#1066);
#1068=PLANE('',#1067);
#1069=ORIENTED_EDGE('',*,*,#862,.F.);
#1070=ORIENTED_EDGE('',*,*,#883,.T.);
#1071=ORIENTED_EDGE('',*,*,#1056,.F.);
#1072=ORIENTED_EDGE('',*,*,#955,.T.);
#1074=ORIENTED_EDGE('',*,*,#1073,.T.);
#1076=ORIENTED_EDGE('',*,*,#1075,.T.);
#1078=ORIENTED_EDGE('',*,*,#1077,.T.);
#1079=ORIENTED_EDGE('',*,*,#666,.T.);
#1081=ORIENTED_EDGE('',*,*,#1080,.F.);
#1083=ORIENTED_EDGE('',*,*,#1082,.T.);
#1085=ORIENTED_EDGE('',*,*,#1084,.T.);
#1086=ORIENTED_EDGE('',*,*,#967,.T.);
#1088=ORIENTED_EDGE('',*,*,#1087,.F.);
#1089=ORIENTED_EDGE('',*,*,#894,.T.);
#1090=EDGE_LOOP('',(#1069,#1070,#1071,#1072,#1074,#1076,#1078,#1079,#1081,#1083,
#1085,#1086,#1088,#1089));
#1091=FACE_OUTER_BOUND('',#1090,.F.);
#1092=ADVANCED_FACE('',(#1091),#1068,.T.);
#1093=CARTESIAN_POINT('',(-2.E0,-3.E0,0.E0));
#1094=DIRECTION('',(0.E0,-1.E0,0.E0));
#1095=DIRECTION('',(1.E0,0.E0,0.E0));
#1096=AXIS2_PLACEMENT_3D('',#1093,#1094,#1095);
#1097=PLANE('',#1096);
#1099=ORIENTED_EDGE('',*,*,#1098,.F.);
#1100=ORIENTED_EDGE('',*,*,#1073,.F.);
#1101=ORIENTED_EDGE('',*,*,#953,.F.);
#1102=ORIENTED_EDGE('',*,*,#1025,.F.);
#1103=ORIENTED_EDGE('',*,*,#937,.F.);
#1104=ORIENTED_EDGE('',*,*,#839,.F.);
#1105=EDGE_LOOP('',(#1099,#1100,#1101,#1102,#1103,#1104));
#1106=FACE_OUTER_BOUND('',#1105,.F.);
#1107=ADVANCED_FACE('',(#1106),#1097,.T.);
#1108=CARTESIAN_POINT('',(-1.E1,0.E0,3.5E0));
#1109=DIRECTION('',(1.E0,0.E0,0.E0));
#1110=DIRECTION('',(0.E0,0.E0,-1.E0));
#1111=AXIS2_PLACEMENT_3D('',#1108,#1109,#1110);
#1112=CYLINDRICAL_SURFACE('',#1111,3.5E0);
#1114=ORIENTED_EDGE('',*,*,#1113,.F.);
#1116=ORIENTED_EDGE('',*,*,#1115,.T.);
#1117=ORIENTED_EDGE('',*,*,#1075,.F.);
#1118=ORIENTED_EDGE('',*,*,#1098,.T.);
#1119=ORIENTED_EDGE('',*,*,#837,.T.);
#1121=ORIENTED_EDGE('',*,*,#1120,.T.);
#1123=ORIENTED_EDGE('',*,*,#1122,.F.);
#1125=ORIENTED_EDGE('',*,*,#1124,.F.);
#1126=ORIENTED_EDGE('',*,*,#830,.T.);
#1128=ORIENTED_EDGE('',*,*,#1127,.F.);
#1129=ORIENTED_EDGE('',*,*,#1082,.F.);
#1131=ORIENTED_EDGE('',*,*,#1130,.F.);
#1132=EDGE_LOOP('',(#1114,#1116,#1117,#1118,#1119,#1121,#1123,#1125,#1126,#1128,
#1129,#1131));
#1133=FACE_OUTER_BOUND('',#1132,.F.);
#1134=ADVANCED_FACE('',(#1133),#1112,.T.);
#1135=CARTESIAN_POINT('',(-5.87E0,1.5E0,0.E0));
#1136=DIRECTION('',(-1.E0,0.E0,0.E0));
#1137=DIRECTION('',(0.E0,-1.E0,0.E0));
#1138=AXIS2_PLACEMENT_3D('',#1135,#1136,#1137);
#1139=PLANE('',#1138);
#1140=ORIENTED_EDGE('',*,*,#1113,.T.);
#1142=ORIENTED_EDGE('',*,*,#1141,.T.);
#1143=ORIENTED_EDGE('',*,*,#670,.T.);
#1145=ORIENTED_EDGE('',*,*,#1144,.F.);
#1146=EDGE_LOOP('',(#1140,#1142,#1143,#1145));
#1147=FACE_OUTER_BOUND('',#1146,.F.);
#1148=ADVANCED_FACE('',(#1147),#1139,.T.);
#1149=CARTESIAN_POINT('',(-2.E0,1.5E0,0.E0));
#1150=DIRECTION('',(0.E0,1.E0,0.E0));
#1151=DIRECTION('',(-1.E0,0.E0,0.E0));
#1152=AXIS2_PLACEMENT_3D('',#1149,#1150,#1151);
#1153=PLANE('',#1152);
#1154=ORIENTED_EDGE('',*,*,#1130,.T.);
#1155=ORIENTED_EDGE('',*,*,#1080,.T.);
#1156=ORIENTED_EDGE('',*,*,#672,.T.);
#1157=ORIENTED_EDGE('',*,*,#1141,.F.);
#1158=EDGE_LOOP('',(#1154,#1155,#1156,#1157));
#1159=FACE_OUTER_BOUND('',#1158,.F.);
#1160=ADVANCED_FACE('',(#1159),#1153,.T.);
#1161=CARTESIAN_POINT('',(-5.87E0,-1.5E0,0.E0));
#1162=DIRECTION('',(0.E0,-1.E0,0.E0));
#1163=DIRECTION('',(1.E0,0.E0,0.E0));
#1164=AXIS2_PLACEMENT_3D('',#1161,#1162,#1163);
#1165=PLANE('',#1164);
#1166=ORIENTED_EDGE('',*,*,#1115,.F.);
#1167=ORIENTED_EDGE('',*,*,#1144,.T.);
#1168=ORIENTED_EDGE('',*,*,#668,.T.);
#1169=ORIENTED_EDGE('',*,*,#1077,.F.);
#1170=EDGE_LOOP('',(#1166,#1167,#1168,#1169));
#1171=FACE_OUTER_BOUND('',#1170,.F.);
#1172=ADVANCED_FACE('',(#1171),#1165,.T.);
#1173=CARTESIAN_POINT('',(2.E0,-1.5E0,0.E0));
#1174=DIRECTION('',(0.E0,-1.E0,0.E0));
#1175=DIRECTION('',(1.E0,0.E0,0.E0));
#1176=AXIS2_PLACEMENT_3D('',#1173,#1174,#1175);
#1177=PLANE('',#1176);
#1178=ORIENTED_EDGE('',*,*,#1120,.F.);
#1179=ORIENTED_EDGE('',*,*,#835,.T.);
#1180=ORIENTED_EDGE('',*,*,#650,.T.);
#1182=ORIENTED_EDGE('',*,*,#1181,.F.);
#1183=EDGE_LOOP('',(#1178,#1179,#1180,#1182));
#1184=FACE_OUTER_BOUND('',#1183,.F.);
#1185=ADVANCED_FACE('',(#1184),#1177,.T.);
#1186=CARTESIAN_POINT('',(5.87E0,-1.5E0,0.E0));
#1187=DIRECTION('',(1.E0,0.E0,0.E0));
#1188=DIRECTION('',(0.E0,1.E0,0.E0));
#1189=AXIS2_PLACEMENT_3D('',#1186,#1187,#1188);
#1190=PLANE('',#1189);
#1191=ORIENTED_EDGE('',*,*,#1122,.T.);
#1192=ORIENTED_EDGE('',*,*,#1181,.T.);
#1193=ORIENTED_EDGE('',*,*,#648,.T.);
#1195=ORIENTED_EDGE('',*,*,#1194,.F.);
#1196=EDGE_LOOP('',(#1191,#1192,#1193,#1195));
#1197=FACE_OUTER_BOUND('',#1196,.F.);
#1198=ADVANCED_FACE('',(#1197),#1190,.T.);
#1199=CARTESIAN_POINT('',(5.87E0,1.5E0,0.E0));
#1200=DIRECTION('',(0.E0,1.E0,0.E0));
#1201=DIRECTION('',(-1.E0,0.E0,0.E0));
#1202=AXIS2_PLACEMENT_3D('',#1199,#1200,#1201);
#1203=PLANE('',#1202);
#1204=ORIENTED_EDGE('',*,*,#1124,.T.);
#1205=ORIENTED_EDGE('',*,*,#1194,.T.);
#1206=ORIENTED_EDGE('',*,*,#646,.T.);
#1207=ORIENTED_EDGE('',*,*,#832,.F.);
#1208=EDGE_LOOP('',(#1204,#1205,#1206,#1207));
#1209=FACE_OUTER_BOUND('',#1208,.F.);
#1210=ADVANCED_FACE('',(#1209),#1203,.T.);
#1211=CARTESIAN_POINT('',(2.E0,3.E0,0.E0));
#1212=DIRECTION('',(0.E0,1.E0,0.E0));
#1213=DIRECTION('',(-1.E0,0.E0,0.E0));
#1214=AXIS2_PLACEMENT_3D('',#1211,#1212,#1213);
#1215=PLANE('',#1214);
#1216=ORIENTED_EDGE('',*,*,#1127,.T.);
#1217=ORIENTED_EDGE('',*,*,#828,.T.);
#1218=ORIENTED_EDGE('',*,*,#987,.T.);
#1219=ORIENTED_EDGE('',*,*,#1041,.T.);
#1220=ORIENTED_EDGE('',*,*,#969,.T.);
#1221=ORIENTED_EDGE('',*,*,#1084,.F.);
#1222=EDGE_LOOP('',(#1216,#1217,#1218,#1219,#1220,#1221));
#1223=FACE_OUTER_BOUND('',#1222,.F.);
#1224=ADVANCED_FACE('',(#1223),#1215,.T.);
#1225=CARTESIAN_POINT('',(0.E0,1.701808402823E0,1.6E1));
#1226=DIRECTION('',(0.E0,1.E0,0.E0));
#1227=DIRECTION('',(0.E0,0.E0,-1.E0));
#1228=AXIS2_PLACEMENT_3D('',#1225,#1226,#1227);
#1229=TOROIDAL_SURFACE('',#1228,2.E0,5.E-1);
#1230=ORIENTED_EDGE('',*,*,#824,.T.);
#1231=ORIENTED_EDGE('',*,*,#925,.T.);
#1232=ORIENTED_EDGE('',*,*,#1013,.T.);
#1233=ORIENTED_EDGE('',*,*,#896,.T.);
#1234=ORIENTED_EDGE('',*,*,#1087,.T.);
#1235=ORIENTED_EDGE('',*,*,#973,.T.);
#1236=ORIENTED_EDGE('',*,*,#1038,.T.);
#1237=ORIENTED_EDGE('',*,*,#983,.T.);
#1238=EDGE_LOOP('',(#1230,#1231,#1232,#1233,#1234,#1235,#1236,#1237));
#1239=FACE_OUTER_BOUND('',#1238,.F.);
#1240=ADVANCED_FACE('',(#1239),#1229,.F.);
#1241=CLOSED_SHELL('',(#660,#682,#697,#712,#723,#735,#748,#760,#775,#788,#802,
#814,#849,#872,#887,#902,#916,#930,#945,#961,#977,#992,#1005,#1018,#1032,#1046,
#1063,#1092,#1107,#1134,#1148,#1160,#1172,#1185,#1198,#1210,#1224,#1240));
#1242=MANIFOLD_SOLID_BREP('',#1241);
#1244=DIMENSIONAL_EXPONENTS(0.E0,0.E0,0.E0,0.E0,0.E0,0.E0,0.E0);
#1246=PLANE_ANGLE_MEASURE_WITH_UNIT(PLANE_ANGLE_MEASURE(1.745329251994E-2),
#1245);
#1247=(CONVERSION_BASED_UNIT('DEGREE',#1246)NAMED_UNIT(*)PLANE_ANGLE_UNIT());
#1249=UNCERTAINTY_MEASURE_WITH_UNIT(LENGTH_MEASURE(2.436223367142E-3),#1243,
'closure',
'Maximum model space distance between geometric entities at asserted connectivities');
#1250=(GEOMETRIC_REPRESENTATION_CONTEXT(3)GLOBAL_UNCERTAINTY_ASSIGNED_CONTEXT((
#1249))GLOBAL_UNIT_ASSIGNED_CONTEXT((#1243,#1247,#1248))REPRESENTATION_CONTEXT(
'ID1','3'));
#1252=APPLICATION_CONTEXT(
'CONFIGURATION CONTROLLED 3D DESIGNS OF MECHANICAL PARTS AND ASSEMBLIES');
#1253=APPLICATION_PROTOCOL_DEFINITION('international standard',
'config_control_design',1994,#1252);
#1254=DESIGN_CONTEXT('',#1252,'design');
#1255=MECHANICAL_CONTEXT('',#1252,'mechanical');
#1256=PRODUCT('BRAKE2','BRAKE2','NOT SPECIFIED',(#1255));
#1257=PRODUCT_DEFINITION_FORMATION_WITH_SPECIFIED_SOURCE('14','LAST_VERSION',
#1256,.MADE.);
#1261=PRODUCT_CATEGORY('part','');
#1262=PRODUCT_RELATED_PRODUCT_CATEGORY('detail','',(#1256));
#1263=PRODUCT_CATEGORY_RELATIONSHIP('','',#1261,#1262);
#1264=SECURITY_CLASSIFICATION_LEVEL('unclassified');
#1265=SECURITY_CLASSIFICATION('','',#1264);
#1266=CC_DESIGN_SECURITY_CLASSIFICATION(#1265,(#1257));
#1267=APPROVAL_STATUS('approved');
#1268=APPROVAL(#1267,'');
#1269=CC_DESIGN_APPROVAL(#1268,(#1265,#1257,#1258));
#1270=CALENDAR_DATE(126,23,7);
#1271=COORDINATED_UNIVERSAL_TIME_OFFSET(8,0,.AHEAD.);
#1272=LOCAL_TIME(13,11,0.E0,#1271);
#1273=DATE_AND_TIME(#1270,#1272);
#1274=APPROVAL_DATE_TIME(#1273,#1268);
#1275=DATE_TIME_ROLE('creation_date');
#1276=CC_DESIGN_DATE_AND_TIME_ASSIGNMENT(#1273,#1275,(#1258));
#1277=DATE_TIME_ROLE('classification_date');
#1278=CC_DESIGN_DATE_AND_TIME_ASSIGNMENT(#1273,#1277,(#1265));
#1279=PERSON('UNSPECIFIED','UNSPECIFIED',$,$,$,$);
#1280=ORGANIZATION('UNSPECIFIED','UNSPECIFIED','UNSPECIFIED');
#1281=PERSON_AND_ORGANIZATION(#1279,#1280);
#1282=APPROVAL_ROLE('approver');
#1283=APPROVAL_PERSON_ORGANIZATION(#1281,#1268,#1282);
#1284=PERSON_AND_ORGANIZATION_ROLE('creator');
#1285=CC_DESIGN_PERSON_AND_ORGANIZATION_ASSIGNMENT(#1281,#1284,(#1257,#1258));
#1286=PERSON_AND_ORGANIZATION_ROLE('design_supplier');
#1287=CC_DESIGN_PERSON_AND_ORGANIZATION_ASSIGNMENT(#1281,#1286,(#1257));
#1288=PERSON_AND_ORGANIZATION_ROLE('classification_officer');
#1289=CC_DESIGN_PERSON_AND_ORGANIZATION_ASSIGNMENT(#1281,#1288,(#1265));
#1290=PERSON_AND_ORGANIZATION_ROLE('design_owner');
#1291=CC_DESIGN_PERSON_AND_ORGANIZATION_ASSIGNMENT(#1281,#1290,(#1256));
#5=CIRCLE('',#4,1.E0);
#10=CIRCLE('',#9,1.E0);
#15=CIRCLE('',#14,1.E0);
#20=CIRCLE('',#19,1.E0);
#57=CIRCLE('',#56,1.E0);
#70=CIRCLE('',#69,6.E-1);
#75=CIRCLE('',#74,6.E-1);
#80=CIRCLE('',#79,6.E-1);
#85=CIRCLE('',#84,6.E-1);
#94=CIRCLE('',#93,1.E0);
#111=CIRCLE('',#110,1.E0);
#120=CIRCLE('',#119,1.E0);
#137=CIRCLE('',#136,3.5E0);
#146=CIRCLE('',#145,3.5E0);
#167=B_SPLINE_CURVE_WITH_KNOTS('',3,(#159,#160,#161,#162,#163,#164,#165,#166),
.UNSPECIFIED.,.F.,.F.,(4,1,1,1,1,4),(0.E0,2.E-1,4.E-1,6.E-1,8.E-1,1.E0),
.UNSPECIFIED.);
#172=CIRCLE('',#171,2.E0);
#181=B_SPLINE_CURVE_WITH_KNOTS('',3,(#173,#174,#175,#176,#177,#178,#179,#180),
.UNSPECIFIED.,.F.,.F.,(4,1,1,1,1,4),(0.E0,2.E-1,4.E-1,6.E-1,8.E-1,1.E0),
.UNSPECIFIED.);
#186=CIRCLE('',#185,2.E0);
#197=B_SPLINE_CURVE_WITH_KNOTS('',3,(#187,#188,#189,#190,#191,#192,#193,#194,
#195,#196),.UNSPECIFIED.,.F.,.F.,(4,1,1,1,1,1,1,4),(0.E0,1.428571428571E-1,
2.857142857143E-1,4.285714285714E-1,5.714285714286E-1,7.142857142857E-1,
8.571428571429E-1,1.E0),.UNSPECIFIED.);
#207=B_SPLINE_CURVE_WITH_KNOTS('',3,(#198,#199,#200,#201,#202,#203,#204,#205,
#206),.UNSPECIFIED.,.F.,.F.,(4,1,1,1,1,1,4),(0.E0,1.666666666667E-1,
3.333333333333E-1,5.E-1,6.666666666667E-1,8.333333333333E-1,1.E0),
.UNSPECIFIED.);
#217=B_SPLINE_CURVE_WITH_KNOTS('',3,(#208,#209,#210,#211,#212,#213,#214,#215,
#216),.UNSPECIFIED.,.F.,.F.,(4,1,1,1,1,1,4),(0.E0,1.666666666667E-1,
3.333333333333E-1,5.E-1,6.666666666667E-1,8.333333333333E-1,1.E0),
.UNSPECIFIED.);
#228=B_SPLINE_CURVE_WITH_KNOTS('',3,(#218,#219,#220,#221,#222,#223,#224,#225,
#226,#227),.UNSPECIFIED.,.F.,.F.,(4,1,1,1,1,1,1,4),(0.E0,1.428571428571E-1,
2.857142857143E-1,4.285714285714E-1,5.714285714286E-1,7.142857142857E-1,
8.571428571429E-1,1.E0),.UNSPECIFIED.);
#239=B_SPLINE_CURVE_WITH_KNOTS('',3,(#229,#230,#231,#232,#233,#234,#235,#236,
#237,#238),.UNSPECIFIED.,.F.,.F.,(4,1,1,1,1,1,1,4),(0.E0,1.428571428571E-1,
2.857142857143E-1,4.285714285714E-1,5.714285714286E-1,7.142857142857E-1,
8.571428571429E-1,1.E0),.UNSPECIFIED.);
#249=B_SPLINE_CURVE_WITH_KNOTS('',3,(#240,#241,#242,#243,#244,#245,#246,#247,
#248),.UNSPECIFIED.,.F.,.F.,(4,1,1,1,1,1,4),(0.E0,1.666666666667E-1,
3.333333333333E-1,5.E-1,6.666666666667E-1,8.333333333333E-1,1.E0),
.UNSPECIFIED.);
#259=B_SPLINE_CURVE_WITH_KNOTS('',3,(#250,#251,#252,#253,#254,#255,#256,#257,
#258),.UNSPECIFIED.,.F.,.F.,(4,1,1,1,1,1,4),(0.E0,1.666666666667E-1,
3.333333333333E-1,5.E-1,6.666666666667E-1,8.333333333333E-1,1.E0),
.UNSPECIFIED.);
#270=B_SPLINE_CURVE_WITH_KNOTS('',3,(#260,#261,#262,#263,#264,#265,#266,#267,
#268,#269),.UNSPECIFIED.,.F.,.F.,(4,1,1,1,1,1,1,4),(0.E0,1.428571428571E-1,
2.857142857143E-1,4.285714285714E-1,5.714285714286E-1,7.142857142857E-1,
8.571428571429E-1,1.E0),.UNSPECIFIED.);
#281=B_SPLINE_CURVE_WITH_KNOTS('',3,(#271,#272,#273,#274,#275,#276,#277,#278,
#279,#280),.UNSPECIFIED.,.F.,.F.,(4,1,1,1,1,1,1,4),(0.E0,1.428571428571E-1,
2.857142857143E-1,4.285714285714E-1,5.714285714286E-1,7.142857142857E-1,
8.571428571429E-1,1.E0),.UNSPECIFIED.);
#292=B_SPLINE_CURVE_WITH_KNOTS('',3,(#282,#283,#284,#285,#286,#287,#288,#289,
#290,#291),.UNSPECIFIED.,.F.,.F.,(4,1,1,1,1,1,1,4),(0.E0,1.428571428571E-1,
2.857142857143E-1,4.285714285714E-1,5.714285714286E-1,7.142857142857E-1,
8.571428571429E-1,1.E0),.UNSPECIFIED.);
#302=B_SPLINE_CURVE_WITH_KNOTS('',3,(#293,#294,#295,#296,#297,#298,#299,#300,
#301),.UNSPECIFIED.,.F.,.F.,(4,1,1,1,1,1,4),(0.E0,1.666666666667E-1,
3.333333333333E-1,5.E-1,6.666666666667E-1,8.333333333333E-1,1.E0),
.UNSPECIFIED.);
#312=B_SPLINE_CURVE_WITH_KNOTS('',3,(#303,#304,#305,#306,#307,#308,#309,#310,
#311),.UNSPECIFIED.,.F.,.F.,(4,1,1,1,1,1,4),(0.E0,1.666666666667E-1,
3.333333333333E-1,5.E-1,6.666666666667E-1,8.333333333333E-1,1.E0),
.UNSPECIFIED.);
#353=B_SPLINE_CURVE_WITH_KNOTS('',3,(#345,#346,#347,#348,#349,#350,#351,#352),
.UNSPECIFIED.,.F.,.F.,(4,1,1,1,1,4),(0.E0,2.E-1,4.E-1,6.E-1,8.E-1,1.E0),
.UNSPECIFIED.);
#358=CIRCLE('',#357,2.E0);
#367=B_SPLINE_CURVE_WITH_KNOTS('',3,(#359,#360,#361,#362,#363,#364,#365,#366),
.UNSPECIFIED.,.F.,.F.,(4,1,1,1,1,4),(0.E0,2.E-1,4.E-1,6.E-1,8.E-1,1.E0),
.UNSPECIFIED.);
#372=CIRCLE('',#371,2.E0);
#389=CIRCLE('',#388,3.5E0);
#398=CIRCLE('',#397,3.5E0);
#423=CIRCLE('',#422,2.E0);
#432=CIRCLE('',#431,3.5E0);
#465=CIRCLE('',#464,3.5E0);
#494=CIRCLE('',#493,2.E0);
#507=B_SPLINE_CURVE_WITH_KNOTS('',3,(#499,#500,#501,#502,#503,#504,#505,#506),
.UNSPECIFIED.,.F.,.F.,(4,1,1,1,1,4),(0.E0,2.E-1,4.E-1,6.E-1,8.E-1,1.E0),
.UNSPECIFIED.);
#512=CIRCLE('',#511,2.E0);
#521=B_SPLINE_CURVE_WITH_KNOTS('',3,(#513,#514,#515,#516,#517,#518,#519,#520),
.UNSPECIFIED.,.F.,.F.,(4,1,1,1,1,4),(0.E0,2.E-1,4.E-1,6.E-1,8.E-1,1.E0),
.UNSPECIFIED.);
#526=CIRCLE('',#525,2.E0);
#644=EDGE_CURVE('',#545,#546,#24,.T.);
#646=EDGE_CURVE('',#534,#546,#28,.T.);
#648=EDGE_CURVE('',#533,#534,#32,.T.);
#650=EDGE_CURVE('',#545,#533,#36,.T.);
#654=EDGE_CURVE('',#541,#542,#15,.T.);
#656=EDGE_CURVE('',#542,#541,#20,.T.);
#666=EDGE_CURVE('',#549,#550,#40,.T.);
#668=EDGE_CURVE('',#530,#549,#44,.T.);
#670=EDGE_CURVE('',#529,#530,#48,.T.);
#672=EDGE_CURVE('',#550,#529,#52,.T.);
#676=EDGE_CURVE('',#537,#538,#5,.T.);
#678=EDGE_CURVE('',#538,#537,#10,.T.);
#688=EDGE_CURVE('',#558,#557,#57,.T.);
#690=EDGE_CURVE('',#538,#557,#98,.T.);
#693=EDGE_CURVE('',#537,#558,#61,.T.);
#703=EDGE_CURVE('',#554,#553,#75,.T.);
#705=EDGE_CURVE('',#553,#557,#89,.T.);
#708=EDGE_CURVE('',#554,#558,#65,.T.);
#718=EDGE_CURVE('',#553,#554,#70,.T.);
#729=EDGE_CURVE('',#561,#562,#80,.T.);
#731=EDGE_CURVE('',#562,#561,#85,.T.);
#743=EDGE_CURVE('',#557,#558,#94,.T.);
#767=EDGE_CURVE('',#562,#566,#106,.T.);
#769=EDGE_CURVE('',#565,#566,#120,.T.);
#771=EDGE_CURVE('',#561,#565,#102,.T.);
#783=EDGE_CURVE('',#566,#565,#111,.T.);
#795=EDGE_CURVE('',#542,#565,#124,.T.);
#798=EDGE_CURVE('',#541,#566,#115,.T.);
#820=EDGE_CURVE('',#614,#611,#167,.T.);
#822=EDGE_CURVE('',#614,#635,#128,.T.);
#824=EDGE_CURVE('',#638,#635,#507,.T.);
#826=EDGE_CURVE('',#638,#577,#132,.T.);
#828=EDGE_CURVE('',#602,#577,#485,.T.);
#830=EDGE_CURVE('',#601,#602,#137,.T.);
#832=EDGE_CURVE('',#601,#546,#141,.T.);
#835=EDGE_CURVE('',#598,#545,#460,.T.);
#837=EDGE_CURVE('',#596,#598,#146,.T.);
#839=EDGE_CURVE('',#596,#573,#150,.T.);
#841=EDGE_CURVE('',#573,#616,#154,.T.);
#843=EDGE_CURVE('',#618,#616,#353,.T.);
#845=EDGE_CURVE('',#618,#611,#158,.T.);
#856=EDGE_CURVE('',#611,#612,#239,.T.);
#858=EDGE_CURVE('',#612,#607,#172,.T.);
#860=EDGE_CURVE('',#607,#608,#197,.T.);
#862=EDGE_CURVE('',#608,#609,#181,.T.);
#864=EDGE_CURVE('',#609,#610,#217,.T.);
#866=EDGE_CURVE('',#610,#613,#186,.T.);
#868=EDGE_CURVE('',#613,#614,#259,.T.);
#879=EDGE_CURVE('',#626,#607,#320,.T.);
#881=EDGE_CURVE('',#632,#626,#207,.T.);
#883=EDGE_CURVE('',#608,#632,#376,.T.);
#894=EDGE_CURVE('',#630,#609,#410,.T.);
#896=EDGE_CURVE('',#633,#630,#228,.T.);
#898=EDGE_CURVE('',#610,#633,#324,.T.);
#910=EDGE_CURVE('',#622,#618,#249,.T.);
#912=EDGE_CURVE('',#622,#612,#316,.T.);
#923=EDGE_CURVE('',#613,#636,#328,.T.);
#925=EDGE_CURVE('',#635,#636,#270,.T.);
#937=EDGE_CURVE('',#573,#574,#427,.T.);
#939=EDGE_CURVE('',#574,#620,#332,.T.);
#941=EDGE_CURVE('',#616,#620,#281,.T.);
#951=EDGE_CURVE('',#569,#624,#336,.T.);
#953=EDGE_CURVE('',#569,#570,#418,.T.);
#955=EDGE_CURVE('',#631,#570,#380,.T.);
#957=EDGE_CURVE('',#624,#631,#292,.T.);
#967=EDGE_CURVE('',#582,#628,#406,.T.);
#969=EDGE_CURVE('',#581,#582,#498,.T.);
#971=EDGE_CURVE('',#634,#581,#340,.T.);
#973=EDGE_CURVE('',#628,#634,#302,.T.);
#983=EDGE_CURVE('',#637,#638,#312,.T.);
#985=EDGE_CURVE('',#637,#578,#344,.T.);
#987=EDGE_CURVE('',#577,#578,#489,.T.);
#1000=EDGE_CURVE('',#626,#622,#372,.T.);
#1013=EDGE_CURVE('',#636,#633,#512,.T.);
#1025=EDGE_CURVE('',#574,#569,#423,.T.);
#1028=EDGE_CURVE('',#620,#624,#358,.T.);
#1038=EDGE_CURVE('',#634,#637,#526,.T.);
#1041=EDGE_CURVE('',#578,#581,#494,.T.);
#1056=EDGE_CURVE('',#631,#632,#367,.T.);
#1073=EDGE_CURVE('',#570,#590,#384,.T.);
#1075=EDGE_CURVE('',#590,#588,#389,.T.);
#1077=EDGE_CURVE('',#588,#549,#393,.T.);
#1080=EDGE_CURVE('',#593,#550,#444,.T.);
#1082=EDGE_CURVE('',#593,#594,#398,.T.);
#1084=EDGE_CURVE('',#594,#582,#402,.T.);
#1087=EDGE_CURVE('',#630,#628,#521,.T.);
#1098=EDGE_CURVE('',#590,#596,#414,.T.);
#1113=EDGE_CURVE('',#585,#586,#432,.T.);
#1115=EDGE_CURVE('',#585,#588,#448,.T.);
#1120=EDGE_CURVE('',#598,#604,#456,.T.);
#1122=EDGE_CURVE('',#606,#604,#465,.T.);
#1124=EDGE_CURVE('',#601,#606,#473,.T.);
#1127=EDGE_CURVE('',#594,#602,#481,.T.);
#1130=EDGE_CURVE('',#586,#593,#440,.T.);
#1141=EDGE_CURVE('',#586,#529,#436,.T.);
#1144=EDGE_CURVE('',#585,#530,#452,.T.);
#1181=EDGE_CURVE('',#604,#533,#469,.T.);
#1194=EDGE_CURVE('',#606,#534,#477,.T.);
#1243=(LENGTH_UNIT()NAMED_UNIT(*)SI_UNIT(.MILLI.,.METRE.));
#1245=(NAMED_UNIT(*)PLANE_ANGLE_UNIT()SI_UNIT($,.RADIAN.));
#1248=(NAMED_UNIT(*)SI_UNIT($,.STERADIAN.)SOLID_ANGLE_UNIT());
#1251=ADVANCED_BREP_SHAPE_REPRESENTATION('',(#1242),#1250);
#1258=PRODUCT_DEFINITION('design','',#1257,#1254);
#1259=PRODUCT_DEFINITION_SHAPE('','SHAPE FOR BRAKE2.',#1258);
#1260=SHAPE_DEFINITION_REPRESENTATION(#1259,#1251);
ENDSEC;
END-ISO-10303-21;
