ISO-10303-21;
HEADER;
FILE_DESCRIPTION((''),'2;1');
FILE_NAME('BRAKE3','2026-07-23T13:10:34',('gram2'),(''),
'CREO PARAMETRIC BY PTC INC, 2016510','CREO PARAMETRIC BY PTC INC, 2016510','');
FILE_SCHEMA(('CONFIG_CONTROL_DESIGN'));
ENDSEC;
DATA;
#1=DIRECTION('',(0.E0,1.E0,0.E0));
#2=VECTOR('',#1,5.505102572168E-1);
#3=CARTESIAN_POINT('',(-3.E0,-3.E0,1.E0));
#4=LINE('',#3,#2);
#5=CARTESIAN_POINT('',(-3.E0,0.E0,3.5E0));
#6=DIRECTION('',(1.E0,0.E0,0.E0));
#7=DIRECTION('',(0.E0,-6.998542122238E-1,-7.142857142857E-1));
#8=AXIS2_PLACEMENT_3D('',#5,#6,#7);
#10=DIRECTION('',(0.E0,-1.E0,0.E0));
#11=VECTOR('',#10,5.505102572168E-1);
#12=CARTESIAN_POINT('',(-3.E0,3.E0,1.E0));
#13=LINE('',#12,#11);
#14=DIRECTION('',(0.E0,0.E0,1.E0));
#15=VECTOR('',#14,1.4E1);
#16=CARTESIAN_POINT('',(-3.E0,3.E0,1.E0));
#17=LINE('',#16,#15);
#18=DIRECTION('',(0.E0,0.E0,-1.E0));
#19=VECTOR('',#18,1.4E1);
#20=CARTESIAN_POINT('',(-3.E0,-3.E0,1.5E1));
#21=LINE('',#20,#19);
#22=DIRECTION('',(1.E0,0.E0,0.E0));
#23=VECTOR('',#22,6.E0);
#24=CARTESIAN_POINT('',(-3.E0,-2.449489742783E0,1.E0));
#25=LINE('',#24,#23);
#26=DIRECTION('',(1.E0,0.E0,0.E0));
#27=VECTOR('',#26,1.5E0);
#28=CARTESIAN_POINT('',(-3.E0,-3.E0,1.E0));
#29=LINE('',#28,#27);
#30=DIRECTION('',(1.E0,0.E0,0.E0));
#31=VECTOR('',#30,1.5E0);
#32=CARTESIAN_POINT('',(1.5E0,-3.E0,1.E0));
#33=LINE('',#32,#31);
#34=DIRECTION('',(1.E0,0.E0,0.E0));
#35=VECTOR('',#34,3.E0);
#36=CARTESIAN_POINT('',(-1.5E0,-3.E0,4.E0));
#37=LINE('',#36,#35);
#38=CARTESIAN_POINT('',(-2.236067977500E0,-4.999263425598E-1,1.5E1));
#39=CARTESIAN_POINT('',(-2.299314147848E0,-4.991170896396E-1,1.5E1));
#40=CARTESIAN_POINT('',(-2.416669176251E0,-4.845026934834E-1,1.5E1));
#41=CARTESIAN_POINT('',(-2.567270366356E0,-4.316081667043E-1,1.5E1));
#42=CARTESIAN_POINT('',(-2.687129029782E0,-3.555537373370E-1,1.5E1));
#43=CARTESIAN_POINT('',(-2.773969352875E0,-2.654462225625E-1,1.5E1));
#44=CARTESIAN_POINT('',(-2.828632830596E0,-1.725058461868E-1,1.5E1));
#45=CARTESIAN_POINT('',(-2.859265610785E0,-7.493455996475E-2,1.5E1));
#46=CARTESIAN_POINT('',(-2.864912066751E0,2.837796623260E-2,1.5E1));
#47=CARTESIAN_POINT('',(-2.846745129495E0,1.219803117506E-1,1.5E1));
#48=CARTESIAN_POINT('',(-2.812065388428E0,2.032555051909E-1,1.5E1));
#49=CARTESIAN_POINT('',(-2.764734026484E0,2.737357802530E-1,1.5E1));
#50=CARTESIAN_POINT('',(-2.706943418970E0,3.345248888478E-1,1.5E1));
#51=CARTESIAN_POINT('',(-2.639886076562E0,3.861267718897E-1,1.5E1));
#52=CARTESIAN_POINT('',(-2.566562111952E0,4.276034205114E-1,1.5E1));
#53=CARTESIAN_POINT('',(-2.488776216267E0,4.593536441461E-1,1.5E1));
#54=CARTESIAN_POINT('',(-2.408302059843E0,4.817999582543E-1,1.5E1));
#55=CARTESIAN_POINT('',(-2.324561272101E0,4.958045434405E-1,1.5E1));
#56=CARTESIAN_POINT('',(-2.265992149827E0,4.995434541776E-1,1.5E1));
#57=CARTESIAN_POINT('',(-2.236067977500E0,4.999263425598E-1,1.5E1));
#59=DIRECTION('',(0.E0,1.E0,0.E0));
#60=VECTOR('',#59,8.290817497927E-1);
#61=CARTESIAN_POINT('',(-2.236067977500E0,-1.329008092352E0,1.5E1));
#62=LINE('',#61,#60);
#63=CARTESIAN_POINT('',(-2.236067977500E0,-2.328860777472E0,1.5E1));
#64=CARTESIAN_POINT('',(-2.299314147848E0,-2.328051524552E0,1.5E1));
#65=CARTESIAN_POINT('',(-2.416669176251E0,-2.313437128396E0,1.5E1));
#66=CARTESIAN_POINT('',(-2.567270366356E0,-2.260542601617E0,1.5E1));
#67=CARTESIAN_POINT('',(-2.687129029782E0,-2.184488172249E0,1.5E1));
#68=CARTESIAN_POINT('',(-2.773969352875E0,-2.094380657475E0,1.5E1));
#69=CARTESIAN_POINT('',(-2.828632830596E0,-2.001440281099E0,1.5E1));
#70=CARTESIAN_POINT('',(-2.859265610785E0,-1.903868994877E0,1.5E1));
#71=CARTESIAN_POINT('',(-2.864912066751E0,-1.800556468680E0,1.5E1));
#72=CARTESIAN_POINT('',(-2.846745129495E0,-1.706954123162E0,1.5E1));
#73=CARTESIAN_POINT('',(-2.812065388428E0,-1.625678929721E0,1.5E1));
#74=CARTESIAN_POINT('',(-2.764734026484E0,-1.555198654659E0,1.5E1));
#75=CARTESIAN_POINT('',(-2.706943418970E0,-1.494409546064E0,1.5E1));
#76=CARTESIAN_POINT('',(-2.639886076562E0,-1.442807663023E0,1.5E1));
#77=CARTESIAN_POINT('',(-2.566562111952E0,-1.401331014401E0,1.5E1));
#78=CARTESIAN_POINT('',(-2.488776216267E0,-1.369580790766E0,1.5E1));
#79=CARTESIAN_POINT('',(-2.408302059843E0,-1.347134476658E0,1.5E1));
#80=CARTESIAN_POINT('',(-2.324561272101E0,-1.333129891472E0,1.5E1));
#81=CARTESIAN_POINT('',(-2.265992149827E0,-1.329390980735E0,1.5E1));
#82=CARTESIAN_POINT('',(-2.236067977500E0,-1.329008092352E0,1.5E1));
#84=DIRECTION('',(0.E0,1.E0,0.E0));
#85=VECTOR('',#84,6.711392225280E-1);
#86=CARTESIAN_POINT('',(-2.236067977500E0,-3.E0,1.5E1));
#87=LINE('',#86,#85);
#88=DIRECTION('',(1.E0,0.E0,0.E0));
#89=VECTOR('',#88,7.639320225002E-1);
#90=CARTESIAN_POINT('',(-3.E0,-3.E0,1.5E1));
#91=LINE('',#90,#89);
#92=DIRECTION('',(0.E0,-1.E0,0.E0));
#93=VECTOR('',#92,6.E0);
#94=CARTESIAN_POINT('',(-3.E0,3.E0,1.5E1));
#95=LINE('',#94,#93);
#96=DIRECTION('',(-1.E0,0.E0,0.E0));
#97=VECTOR('',#96,7.639320225002E-1);
#98=CARTESIAN_POINT('',(-2.236067977500E0,3.E0,1.5E1));
#99=LINE('',#98,#97);
#100=DIRECTION('',(0.E0,1.E0,0.E0));
#101=VECTOR('',#100,6.711392225280E-1);
#102=CARTESIAN_POINT('',(-2.236067977500E0,2.328860777472E0,1.5E1));
#103=LINE('',#102,#101);
#104=CARTESIAN_POINT('',(-2.236067977500E0,1.329008092352E0,1.5E1));
#105=CARTESIAN_POINT('',(-2.299314147848E0,1.329817345273E0,1.5E1));
#106=CARTESIAN_POINT('',(-2.416669176251E0,1.344431741429E0,1.5E1));
#107=CARTESIAN_POINT('',(-2.567270366356E0,1.397326268208E0,1.5E1));
#108=CARTESIAN_POINT('',(-2.687129029782E0,1.473380697575E0,1.5E1));
#109=CARTESIAN_POINT('',(-2.773969352875E0,1.563488212350E0,1.5E1));
#110=CARTESIAN_POINT('',(-2.828632830596E0,1.656428588725E0,1.5E1));
#111=CARTESIAN_POINT('',(-2.859265610785E0,1.753999874948E0,1.5E1));
#112=CARTESIAN_POINT('',(-2.864912066751E0,1.857312401145E0,1.5E1));
#113=CARTESIAN_POINT('',(-2.846745129495E0,1.950914746663E0,1.5E1));
#114=CARTESIAN_POINT('',(-2.812065388428E0,2.032189940103E0,1.5E1));
#115=CARTESIAN_POINT('',(-2.764734026484E0,2.102670215165E0,1.5E1));
#116=CARTESIAN_POINT('',(-2.706943418970E0,2.163459323760E0,1.5E1));
#117=CARTESIAN_POINT('',(-2.639886076562E0,2.215061206802E0,1.5E1));
#118=CARTESIAN_POINT('',(-2.566562111952E0,2.256537855424E0,1.5E1));
#119=CARTESIAN_POINT('',(-2.488776216267E0,2.288288079058E0,1.5E1));
#120=CARTESIAN_POINT('',(-2.408302059843E0,2.310734393167E0,1.5E1));
#121=CARTESIAN_POINT('',(-2.324561272101E0,2.324738978353E0,1.5E1));
#122=CARTESIAN_POINT('',(-2.265992149827E0,2.328477889090E0,1.5E1));
#123=CARTESIAN_POINT('',(-2.236067977500E0,2.328860777472E0,1.5E1));
#125=DIRECTION('',(0.E0,1.E0,0.E0));
#126=VECTOR('',#125,8.290817497927E-1);
#127=CARTESIAN_POINT('',(-2.236067977500E0,4.999263425598E-1,1.5E1));
#128=LINE('',#127,#126);
#129=CARTESIAN_POINT('',(2.236067977500E0,4.999263425598E-1,1.5E1));
#130=CARTESIAN_POINT('',(2.299229751516E0,4.991181695149E-1,1.5E1));
#131=CARTESIAN_POINT('',(2.416382316745E0,4.845298490878E-1,1.5E1));
#132=CARTESIAN_POINT('',(2.566490573174E0,4.319475054901E-1,1.5E1));
#133=CARTESIAN_POINT('',(2.685944999603E0,3.563556378666E-1,1.5E1));
#134=CARTESIAN_POINT('',(2.771825123380E0,2.680332903463E-1,1.5E1));
#135=CARTESIAN_POINT('',(2.827690404743E0,1.751545690033E-1,1.5E1));
#136=CARTESIAN_POINT('',(2.859593245122E0,7.413378518742E-2,1.5E1));
#137=CARTESIAN_POINT('',(2.864739391653E0,-2.889488732969E-2,1.5E1));
#138=CARTESIAN_POINT('',(2.846996866309E0,-1.208053394962E-1,1.5E1));
#139=CARTESIAN_POINT('',(2.813091008667E0,-2.012523666354E-1,1.5E1));
#140=CARTESIAN_POINT('',(2.766522717208E0,-2.714897798827E-1,1.5E1));
#141=CARTESIAN_POINT('',(2.708919589927E0,-3.327579987278E-1,1.5E1));
#142=CARTESIAN_POINT('',(2.642126466385E0,-3.846380681387E-1,1.5E1));
#143=CARTESIAN_POINT('',(2.569028281154E0,-4.263982866318E-1,1.5E1));
#144=CARTESIAN_POINT('',(2.491631367815E0,-4.583724048537E-1,1.5E1));
#145=CARTESIAN_POINT('',(2.410962544546E0,-4.812287929301E-1,1.5E1));
#146=CARTESIAN_POINT('',(2.326420100357E0,-4.956343051918E-1,1.5E1));
#147=CARTESIAN_POINT('',(2.266702936634E0,-4.995343594562E-1,1.5E1));
#148=CARTESIAN_POINT('',(2.236067977500E0,-4.999263425598E-1,1.5E1));
#150=DIRECTION('',(0.E0,1.E0,0.E0));
#151=VECTOR('',#150,8.290817497927E-1);
#152=CARTESIAN_POINT('',(2.236067977500E0,4.999263425598E-1,1.5E1));
#153=LINE('',#152,#151);
#154=CARTESIAN_POINT('',(2.236067977500E0,2.328860777472E0,1.5E1));
#155=CARTESIAN_POINT('',(2.299229751516E0,2.328052604427E0,1.5E1));
#156=CARTESIAN_POINT('',(2.416382316745E0,2.313464284E0,1.5E1));
#157=CARTESIAN_POINT('',(2.566490573174E0,2.260881940402E0,1.5E1));
#158=CARTESIAN_POINT('',(2.685944999603E0,2.185290072779E0,1.5E1));
#159=CARTESIAN_POINT('',(2.771825123380E0,2.096967725259E0,1.5E1));
#160=CARTESIAN_POINT('',(2.827690404743E0,2.004089003916E0,1.5E1));
#161=CARTESIAN_POINT('',(2.859593245122E0,1.903068220100E0,1.5E1));
#162=CARTESIAN_POINT('',(2.864739391653E0,1.800039547583E0,1.5E1));
#163=CARTESIAN_POINT('',(2.846996866309E0,1.708129095416E0,1.5E1));
#164=CARTESIAN_POINT('',(2.813091008667E0,1.627682068277E0,1.5E1));
#165=CARTESIAN_POINT('',(2.766522717208E0,1.557444655030E0,1.5E1));
#166=CARTESIAN_POINT('',(2.708919589927E0,1.496176436184E0,1.5E1));
#167=CARTESIAN_POINT('',(2.642126466385E0,1.444296366774E0,1.5E1));
#168=CARTESIAN_POINT('',(2.569028281154E0,1.402536148280E0,1.5E1));
#169=CARTESIAN_POINT('',(2.491631367815E0,1.370562030059E0,1.5E1));
#170=CARTESIAN_POINT('',(2.410962544546E0,1.347705641982E0,1.5E1));
#171=CARTESIAN_POINT('',(2.326420100357E0,1.333300129720E0,1.5E1));
#172=CARTESIAN_POINT('',(2.266702936634E0,1.329400075456E0,1.5E1));
#173=CARTESIAN_POINT('',(2.236067977500E0,1.329008092352E0,1.5E1));
#175=DIRECTION('',(0.E0,1.E0,0.E0));
#176=VECTOR('',#175,6.711392225280E-1);
#177=CARTESIAN_POINT('',(2.236067977500E0,2.328860777472E0,1.5E1));
#178=LINE('',#177,#176);
#179=DIRECTION('',(-1.E0,0.E0,0.E0));
#180=VECTOR('',#179,7.639320225002E-1);
#181=CARTESIAN_POINT('',(3.E0,3.E0,1.5E1));
#182=LINE('',#181,#180);
#183=DIRECTION('',(0.E0,1.E0,0.E0));
#184=VECTOR('',#183,6.E0);
#185=CARTESIAN_POINT('',(3.E0,-3.E0,1.5E1));
#186=LINE('',#185,#184);
#187=DIRECTION('',(1.E0,0.E0,0.E0));
#188=VECTOR('',#187,7.639320225002E-1);
#189=CARTESIAN_POINT('',(2.236067977500E0,-3.E0,1.5E1));
#190=LINE('',#189,#188);
#191=DIRECTION('',(0.E0,1.E0,0.E0));
#192=VECTOR('',#191,6.711392225280E-1);
#193=CARTESIAN_POINT('',(2.236067977500E0,-3.E0,1.5E1));
#194=LINE('',#193,#192);
#195=CARTESIAN_POINT('',(2.236067977500E0,-1.329008092352E0,1.5E1));
#196=CARTESIAN_POINT('',(2.299229751516E0,-1.329816265397E0,1.5E1));
#197=CARTESIAN_POINT('',(2.416382316745E0,-1.344404585824E0,1.5E1));
#198=CARTESIAN_POINT('',(2.566490573174E0,-1.396986929422E0,1.5E1));
#199=CARTESIAN_POINT('',(2.685944999603E0,-1.472578797046E0,1.5E1));
#200=CARTESIAN_POINT('',(2.771825123380E0,-1.560901144566E0,1.5E1));
#201=CARTESIAN_POINT('',(2.827690404743E0,-1.653779865909E0,1.5E1));
#202=CARTESIAN_POINT('',(2.859593245122E0,-1.754800649725E0,1.5E1));
#203=CARTESIAN_POINT('',(2.864739391653E0,-1.857829322242E0,1.5E1));
#204=CARTESIAN_POINT('',(2.846996866309E0,-1.949739774408E0,1.5E1));
#205=CARTESIAN_POINT('',(2.813091008667E0,-2.030186801548E0,1.5E1));
#206=CARTESIAN_POINT('',(2.766522717208E0,-2.100424214795E0,1.5E1));
#207=CARTESIAN_POINT('',(2.708919589927E0,-2.161692433640E0,1.5E1));
#208=CARTESIAN_POINT('',(2.642126466385E0,-2.213572503051E0,1.5E1));
#209=CARTESIAN_POINT('',(2.569028281154E0,-2.255332721544E0,1.5E1));
#210=CARTESIAN_POINT('',(2.491631367815E0,-2.287306839766E0,1.5E1));
#211=CARTESIAN_POINT('',(2.410962544546E0,-2.310163227842E0,1.5E1));
#212=CARTESIAN_POINT('',(2.326420100357E0,-2.324568740104E0,1.5E1));
#213=CARTESIAN_POINT('',(2.266702936634E0,-2.328468794368E0,1.5E1));
#214=CARTESIAN_POINT('',(2.236067977500E0,-2.328860777472E0,1.5E1));
#216=DIRECTION('',(0.E0,1.E0,0.E0));
#217=VECTOR('',#216,8.290817497927E-1);
#218=CARTESIAN_POINT('',(2.236067977500E0,-1.329008092352E0,1.5E1));
#219=LINE('',#218,#217);
#220=CARTESIAN_POINT('',(0.E0,4.999263425598E-1,1.7E1));
#221=DIRECTION('',(0.E0,-1.E0,0.E0));
#222=DIRECTION('',(-7.453559924999E-1,0.E0,-6.666666666667E-1));
#223=AXIS2_PLACEMENT_3D('',#220,#221,#222);
#225=CARTESIAN_POINT('',(0.E0,-4.999263425598E-1,1.7E1));
#226=DIRECTION('',(0.E0,1.E0,0.E0));
#227=DIRECTION('',(7.453559924999E-1,0.E0,-6.666666666667E-1));
#228=AXIS2_PLACEMENT_3D('',#225,#226,#227);
#230=CARTESIAN_POINT('',(0.E0,-3.E0,1.7E1));
#231=DIRECTION('',(0.E0,1.E0,0.E0));
#232=DIRECTION('',(7.453559924999E-1,0.E0,-6.666666666667E-1));
#233=AXIS2_PLACEMENT_3D('',#230,#231,#232);
#235=CARTESIAN_POINT('',(0.E0,3.E0,1.7E1));
#236=DIRECTION('',(0.E0,-1.E0,0.E0));
#237=DIRECTION('',(-7.453559924999E-1,0.E0,-6.666666666667E-1));
#238=AXIS2_PLACEMENT_3D('',#235,#236,#237);
#240=CARTESIAN_POINT('',(0.E0,2.328860777472E0,1.7E1));
#241=DIRECTION('',(0.E0,-1.E0,0.E0));
#242=DIRECTION('',(-7.453559924999E-1,0.E0,-6.666666666667E-1));
#243=AXIS2_PLACEMENT_3D('',#240,#241,#242);
#245=CARTESIAN_POINT('',(0.E0,1.329008092352E0,1.7E1));
#246=DIRECTION('',(0.E0,1.E0,0.E0));
#247=DIRECTION('',(7.453559924999E-1,0.E0,-6.666666666667E-1));
#248=AXIS2_PLACEMENT_3D('',#245,#246,#247);
#250=CARTESIAN_POINT('',(0.E0,-1.329008092352E0,1.7E1));
#251=DIRECTION('',(0.E0,-1.E0,0.E0));
#252=DIRECTION('',(-7.453559924999E-1,0.E0,-6.666666666667E-1));
#253=AXIS2_PLACEMENT_3D('',#250,#251,#252);
#255=CARTESIAN_POINT('',(0.E0,-2.328860777472E0,1.7E1));
#256=DIRECTION('',(0.E0,1.E0,0.E0));
#257=DIRECTION('',(7.453559924999E-1,0.E0,-6.666666666667E-1));
#258=AXIS2_PLACEMENT_3D('',#255,#256,#257);
#260=DIRECTION('',(-1.E0,0.E0,0.E0));
#261=VECTOR('',#260,1.5E0);
#262=CARTESIAN_POINT('',(3.E0,3.E0,1.E0));
#263=LINE('',#262,#261);
#264=DIRECTION('',(0.E0,0.E0,1.E0));
#265=VECTOR('',#264,1.4E1);
#266=CARTESIAN_POINT('',(3.E0,3.E0,1.E0));
#267=LINE('',#266,#265);
#268=DIRECTION('',(-1.E0,0.E0,0.E0));
#269=VECTOR('',#268,1.5E0);
#270=CARTESIAN_POINT('',(-1.5E0,3.E0,1.E0));
#271=LINE('',#270,#269);
#272=DIRECTION('',(1.E0,0.E0,0.E0));
#273=VECTOR('',#272,3.E0);
#274=CARTESIAN_POINT('',(-1.5E0,3.E0,4.E0));
#275=LINE('',#274,#273);
#276=DIRECTION('',(1.E0,0.E0,0.E0));
#277=VECTOR('',#276,6.E0);
#278=CARTESIAN_POINT('',(-3.E0,2.449489742783E0,1.E0));
#279=LINE('',#278,#277);
#280=DIRECTION('',(0.E0,1.E0,0.E0));
#281=VECTOR('',#280,5.505102572168E-1);
#282=CARTESIAN_POINT('',(3.E0,-3.E0,1.E0));
#283=LINE('',#282,#281);
#284=DIRECTION('',(0.E0,0.E0,1.E0));
#285=VECTOR('',#284,1.4E1);
#286=CARTESIAN_POINT('',(3.E0,-3.E0,1.E0));
#287=LINE('',#286,#285);
#288=DIRECTION('',(0.E0,-1.E0,0.E0));
#289=VECTOR('',#288,5.505102572168E-1);
#290=CARTESIAN_POINT('',(3.E0,3.E0,1.E0));
#291=LINE('',#290,#289);
#292=CARTESIAN_POINT('',(3.E0,0.E0,3.5E0));
#293=DIRECTION('',(-1.E0,0.E0,0.E0));
#294=DIRECTION('',(0.E0,6.998542122238E-1,-7.142857142857E-1));
#295=AXIS2_PLACEMENT_3D('',#292,#293,#294);
#297=DIRECTION('',(0.E0,1.E0,0.E0));
#298=VECTOR('',#297,4.5E0);
#299=CARTESIAN_POINT('',(1.5E0,-7.5E0,1.E0));
#300=LINE('',#299,#298);
#301=DIRECTION('',(0.E0,0.E0,1.E0));
#302=VECTOR('',#301,3.E0);
#303=CARTESIAN_POINT('',(1.5E0,-7.5E0,1.E0));
#304=LINE('',#303,#302);
#305=DIRECTION('',(0.E0,0.E0,-1.E0));
#306=VECTOR('',#305,3.E0);
#307=CARTESIAN_POINT('',(1.5E0,-3.E0,4.E0));
#308=LINE('',#307,#306);
#309=DIRECTION('',(0.E0,-1.E0,0.E0));
#310=VECTOR('',#309,4.5E0);
#311=CARTESIAN_POINT('',(1.5E0,7.5E0,1.E0));
#312=LINE('',#311,#310);
#313=DIRECTION('',(0.E0,0.E0,1.E0));
#314=VECTOR('',#313,3.E0);
#315=CARTESIAN_POINT('',(1.5E0,3.E0,1.E0));
#316=LINE('',#315,#314);
#317=DIRECTION('',(0.E0,0.E0,-1.E0));
#318=VECTOR('',#317,3.E0);
#319=CARTESIAN_POINT('',(1.5E0,7.5E0,4.E0));
#320=LINE('',#319,#318);
#321=DIRECTION('',(1.E0,0.E0,0.E0));
#322=VECTOR('',#321,3.E0);
#323=CARTESIAN_POINT('',(-1.5E0,-7.5E0,1.E0));
#324=LINE('',#323,#322);
#325=DIRECTION('',(0.E0,0.E0,1.E0));
#326=VECTOR('',#325,3.E0);
#327=CARTESIAN_POINT('',(-1.5E0,-7.5E0,1.E0));
#328=LINE('',#327,#326);
#329=DIRECTION('',(0.E0,1.E0,0.E0));
#330=VECTOR('',#329,4.5E0);
#331=CARTESIAN_POINT('',(-1.5E0,-7.5E0,1.E0));
#332=LINE('',#331,#330);
#333=DIRECTION('',(0.E0,0.E0,1.E0));
#334=VECTOR('',#333,3.E0);
#335=CARTESIAN_POINT('',(-1.5E0,-3.E0,1.E0));
#336=LINE('',#335,#334);
#337=DIRECTION('',(0.E0,-1.E0,0.E0));
#338=VECTOR('',#337,4.5E0);
#339=CARTESIAN_POINT('',(-1.5E0,7.5E0,1.E0));
#340=LINE('',#339,#338);
#341=DIRECTION('',(0.E0,0.E0,1.E0));
#342=VECTOR('',#341,3.E0);
#343=CARTESIAN_POINT('',(-1.5E0,7.5E0,1.E0));
#344=LINE('',#343,#342);
#345=DIRECTION('',(0.E0,0.E0,-1.E0));
#346=VECTOR('',#345,3.E0);
#347=CARTESIAN_POINT('',(-1.5E0,3.E0,4.E0));
#348=LINE('',#347,#346);
#349=DIRECTION('',(0.E0,1.E0,0.E0));
#350=VECTOR('',#349,4.5E0);
#351=CARTESIAN_POINT('',(1.5E0,-7.5E0,4.E0));
#352=LINE('',#351,#350);
#353=DIRECTION('',(1.E0,0.E0,0.E0));
#354=VECTOR('',#353,3.E0);
#355=CARTESIAN_POINT('',(-1.5E0,-7.5E0,4.E0));
#356=LINE('',#355,#354);
#357=DIRECTION('',(0.E0,-1.E0,0.E0));
#358=VECTOR('',#357,4.5E0);
#359=CARTESIAN_POINT('',(-1.5E0,-3.E0,4.E0));
#360=LINE('',#359,#358);
#361=DIRECTION('',(0.E0,-1.E0,0.E0));
#362=VECTOR('',#361,4.5E0);
#363=CARTESIAN_POINT('',(-1.5E0,7.5E0,4.E0));
#364=LINE('',#363,#362);
#365=DIRECTION('',(-1.E0,0.E0,0.E0));
#366=VECTOR('',#365,3.E0);
#367=CARTESIAN_POINT('',(1.5E0,7.5E0,4.E0));
#368=LINE('',#367,#366);
#369=DIRECTION('',(0.E0,1.E0,0.E0));
#370=VECTOR('',#369,4.5E0);
#371=CARTESIAN_POINT('',(1.5E0,3.E0,4.E0));
#372=LINE('',#371,#370);
#373=DIRECTION('',(-1.E0,0.E0,0.E0));
#374=VECTOR('',#373,3.E0);
#375=CARTESIAN_POINT('',(1.5E0,7.5E0,1.E0));
#376=LINE('',#375,#374);
#377=CARTESIAN_POINT('',(0.E0,5.E0,4.E0));
#378=DIRECTION('',(0.E0,0.E0,1.E0));
#379=DIRECTION('',(1.E0,0.E0,0.E0));
#380=AXIS2_PLACEMENT_3D('',#377,#378,#379);
#382=DIRECTION('',(-7.192337994501E-11,-2.823658766918E-10,1.E0));
#383=VECTOR('',#382,5.600000000403E0);
#384=CARTESIAN_POINT('',(1.E0,5.E0,4.E0));
#385=LINE('',#384,#383);
#386=CARTESIAN_POINT('',(0.E0,5.E0,9.6E0));
#387=DIRECTION('',(0.E0,0.E0,1.E0));
#388=DIRECTION('',(1.E0,0.E0,0.E0));
#389=AXIS2_PLACEMENT_3D('',#386,#387,#388);
#391=CARTESIAN_POINT('',(0.E0,5.E0,4.E0));
#392=DIRECTION('',(0.E0,0.E0,1.E0));
#393=DIRECTION('',(-1.E0,0.E0,0.E0));
#394=AXIS2_PLACEMENT_3D('',#391,#392,#393);
#396=DIRECTION('',(7.192336011960E-11,2.823658766918E-10,1.E0));
#397=VECTOR('',#396,5.600000000403E0);
#398=CARTESIAN_POINT('',(-1.E0,5.E0,4.E0));
#399=LINE('',#398,#397);
#400=CARTESIAN_POINT('',(0.E0,5.E0,9.6E0));
#401=DIRECTION('',(0.E0,0.E0,1.E0));
#402=DIRECTION('',(-1.E0,0.E0,0.E0));
#403=AXIS2_PLACEMENT_3D('',#400,#401,#402);
#405=DIRECTION('',(-7.071067811865E-1,5.590581115987E-10,-7.071067811865E-1));
#406=VECTOR('',#405,5.656854248353E-1);
#407=CARTESIAN_POINT('',(-5.999999996778E-1,5.000000001265E0,1.000000000032E1));
#408=LINE('',#407,#406);
#409=CARTESIAN_POINT('',(0.E0,-5.E0,1.E1));
#410=DIRECTION('',(0.E0,0.E0,1.E0));
#411=DIRECTION('',(1.E0,0.E0,0.E0));
#412=AXIS2_PLACEMENT_3D('',#409,#410,#411);
#414=CARTESIAN_POINT('',(0.E0,-5.E0,1.E1));
#415=DIRECTION('',(0.E0,0.E0,1.E0));
#416=DIRECTION('',(-1.E0,0.E0,0.E0));
#417=AXIS2_PLACEMENT_3D('',#414,#415,#416);
#419=CARTESIAN_POINT('',(0.E0,5.E0,1.E1));
#420=DIRECTION('',(0.E0,0.E0,1.E0));
#421=DIRECTION('',(-1.E0,0.E0,0.E0));
#422=AXIS2_PLACEMENT_3D('',#419,#420,#421);
#424=CARTESIAN_POINT('',(0.E0,5.E0,1.E1));
#425=DIRECTION('',(0.E0,0.E0,1.E0));
#426=DIRECTION('',(1.E0,0.E0,0.E0));
#427=AXIS2_PLACEMENT_3D('',#424,#425,#426);
#429=DIRECTION('',(7.071067811865E-1,-5.590565415063E-10,-7.071067811865E-1));
#430=VECTOR('',#429,5.656854248353E-1);
#431=CARTESIAN_POINT('',(5.999999996778E-1,-5.000000001265E0,1.000000000032E1));
#432=LINE('',#431,#430);
#433=DIRECTION('',(-7.071067811865E-1,5.590549714138E-10,-7.071067811865E-1));
#434=VECTOR('',#433,5.656854248353E-1);
#435=CARTESIAN_POINT('',(-5.999999996778E-1,-4.999999998735E0,
1.000000000032E1));
#436=LINE('',#435,#434);
#437=CARTESIAN_POINT('',(0.E0,-5.E0,4.E0));
#438=DIRECTION('',(0.E0,0.E0,1.E0));
#439=DIRECTION('',(-1.E0,0.E0,0.E0));
#440=AXIS2_PLACEMENT_3D('',#437,#438,#439);
#442=DIRECTION('',(7.192337994501E-11,2.823657180885E-10,1.E0));
#443=VECTOR('',#442,5.600000000403E0);
#444=CARTESIAN_POINT('',(-1.E0,-5.E0,4.E0));
#445=LINE('',#444,#443);
#446=CARTESIAN_POINT('',(0.E0,-5.E0,9.6E0));
#447=DIRECTION('',(0.E0,0.E0,1.E0));
#448=DIRECTION('',(-1.E0,0.E0,0.E0));
#449=AXIS2_PLACEMENT_3D('',#446,#447,#448);
#451=CARTESIAN_POINT('',(0.E0,-5.E0,4.E0));
#452=DIRECTION('',(0.E0,0.E0,1.E0));
#453=DIRECTION('',(1.E0,0.E0,0.E0));
#454=AXIS2_PLACEMENT_3D('',#451,#452,#453);
#456=DIRECTION('',(-7.192336011960E-11,-2.823658766918E-10,1.E0));
#457=VECTOR('',#456,5.600000000403E0);
#458=CARTESIAN_POINT('',(1.E0,-5.E0,4.E0));
#459=LINE('',#458,#457);
#460=CARTESIAN_POINT('',(0.E0,-5.E0,9.6E0));
#461=DIRECTION('',(0.E0,0.E0,1.E0));
#462=DIRECTION('',(1.E0,0.E0,0.E0));
#463=AXIS2_PLACEMENT_3D('',#460,#461,#462);
#465=DIRECTION('',(7.071067811865E-1,-5.590549714138E-10,-7.071067811865E-1));
#466=VECTOR('',#465,5.656854248353E-1);
#467=CARTESIAN_POINT('',(5.999999996778E-1,4.999999998735E0,1.000000000032E1));
#468=LINE('',#467,#466);
#469=CARTESIAN_POINT('',(3.E0,-3.E0,1.5E1));
#470=CARTESIAN_POINT('',(3.E0,3.E0,1.5E1));
#471=VERTEX_POINT('',#469);
#472=VERTEX_POINT('',#470);
#473=CARTESIAN_POINT('',(-3.E0,3.E0,1.5E1));
#474=CARTESIAN_POINT('',(-3.E0,-3.E0,1.5E1));
#475=VERTEX_POINT('',#473);
#476=VERTEX_POINT('',#474);
#477=CARTESIAN_POINT('',(-2.236067977500E0,-3.E0,1.5E1));
#478=VERTEX_POINT('',#477);
#479=CARTESIAN_POINT('',(2.236067977500E0,-3.E0,1.5E1));
#480=VERTEX_POINT('',#479);
#481=CARTESIAN_POINT('',(2.236067977500E0,3.E0,1.5E1));
#482=VERTEX_POINT('',#481);
#483=CARTESIAN_POINT('',(-2.236067977500E0,3.E0,1.5E1));
#484=VERTEX_POINT('',#483);
#485=CARTESIAN_POINT('',(6.E-1,-5.E0,1.E1));
#486=CARTESIAN_POINT('',(-6.E-1,-5.E0,1.E1));
#487=VERTEX_POINT('',#485);
#488=VERTEX_POINT('',#486);
#489=CARTESIAN_POINT('',(1.E0,-5.E0,9.6E0));
#490=CARTESIAN_POINT('',(-1.E0,-5.E0,9.6E0));
#491=VERTEX_POINT('',#489);
#492=VERTEX_POINT('',#490);
#493=CARTESIAN_POINT('',(-6.E-1,5.E0,1.E1));
#494=CARTESIAN_POINT('',(6.E-1,5.E0,1.E1));
#495=VERTEX_POINT('',#493);
#496=VERTEX_POINT('',#494);
#497=CARTESIAN_POINT('',(-1.E0,5.E0,9.6E0));
#498=CARTESIAN_POINT('',(1.E0,5.E0,9.6E0));
#499=VERTEX_POINT('',#497);
#500=VERTEX_POINT('',#498);
#501=VERTEX_POINT('',#38);
#502=VERTEX_POINT('',#57);
#503=VERTEX_POINT('',#63);
#504=VERTEX_POINT('',#82);
#505=VERTEX_POINT('',#104);
#506=VERTEX_POINT('',#123);
#507=VERTEX_POINT('',#129);
#508=VERTEX_POINT('',#148);
#509=VERTEX_POINT('',#195);
#510=VERTEX_POINT('',#214);
#511=VERTEX_POINT('',#154);
#512=VERTEX_POINT('',#173);
#513=CARTESIAN_POINT('',(1.5E0,7.5E0,4.E0));
#514=CARTESIAN_POINT('',(-1.5E0,7.5E0,4.E0));
#515=VERTEX_POINT('',#513);
#516=VERTEX_POINT('',#514);
#517=CARTESIAN_POINT('',(-1.5E0,-7.5E0,4.E0));
#518=CARTESIAN_POINT('',(1.5E0,-7.5E0,4.E0));
#519=VERTEX_POINT('',#517);
#520=VERTEX_POINT('',#518);
#521=CARTESIAN_POINT('',(-1.5E0,-3.E0,4.E0));
#522=CARTESIAN_POINT('',(1.5E0,-3.E0,4.E0));
#523=VERTEX_POINT('',#521);
#524=VERTEX_POINT('',#522);
#525=CARTESIAN_POINT('',(-1.5E0,3.E0,4.E0));
#526=CARTESIAN_POINT('',(1.5E0,3.E0,4.E0));
#527=VERTEX_POINT('',#525);
#528=VERTEX_POINT('',#526);
#529=CARTESIAN_POINT('',(1.E0,5.E0,4.E0));
#530=CARTESIAN_POINT('',(-1.E0,5.E0,4.E0));
#531=VERTEX_POINT('',#529);
#532=VERTEX_POINT('',#530);
#533=CARTESIAN_POINT('',(1.E0,-5.E0,4.E0));
#534=CARTESIAN_POINT('',(-1.E0,-5.E0,4.E0));
#535=VERTEX_POINT('',#533);
#536=VERTEX_POINT('',#534);
#537=CARTESIAN_POINT('',(-3.E0,-3.E0,1.E0));
#538=CARTESIAN_POINT('',(-3.E0,-2.449489742783E0,1.E0));
#539=VERTEX_POINT('',#537);
#540=VERTEX_POINT('',#538);
#541=CARTESIAN_POINT('',(-3.E0,3.E0,1.E0));
#542=CARTESIAN_POINT('',(-3.E0,2.449489742783E0,1.E0));
#543=VERTEX_POINT('',#541);
#544=VERTEX_POINT('',#542);
#545=CARTESIAN_POINT('',(-1.5E0,-3.E0,1.E0));
#546=VERTEX_POINT('',#545);
#547=CARTESIAN_POINT('',(1.5E0,-3.E0,1.E0));
#548=CARTESIAN_POINT('',(3.E0,-3.E0,1.E0));
#549=VERTEX_POINT('',#547);
#550=VERTEX_POINT('',#548);
#551=CARTESIAN_POINT('',(-1.5E0,-7.5E0,1.E0));
#552=VERTEX_POINT('',#551);
#553=CARTESIAN_POINT('',(-1.5E0,7.5E0,1.E0));
#554=CARTESIAN_POINT('',(-1.5E0,3.E0,1.E0));
#555=VERTEX_POINT('',#553);
#556=VERTEX_POINT('',#554);
#557=CARTESIAN_POINT('',(1.5E0,-7.5E0,1.E0));
#558=VERTEX_POINT('',#557);
#559=CARTESIAN_POINT('',(1.5E0,7.5E0,1.E0));
#560=CARTESIAN_POINT('',(1.5E0,3.E0,1.E0));
#561=VERTEX_POINT('',#559);
#562=VERTEX_POINT('',#560);
#563=CARTESIAN_POINT('',(3.E0,-2.449489742783E0,1.E0));
#564=VERTEX_POINT('',#563);
#565=CARTESIAN_POINT('',(3.E0,3.E0,1.E0));
#566=CARTESIAN_POINT('',(3.E0,2.449489742783E0,1.E0));
#567=VERTEX_POINT('',#565);
#568=VERTEX_POINT('',#566);
#569=CARTESIAN_POINT('',(-3.E0,3.E0,0.E0));
#570=DIRECTION('',(-1.E0,0.E0,0.E0));
#571=DIRECTION('',(0.E0,-1.E0,0.E0));
#572=AXIS2_PLACEMENT_3D('',#569,#570,#571);
#573=PLANE('',#572);
#575=ORIENTED_EDGE('',*,*,#574,.T.);
#577=ORIENTED_EDGE('',*,*,#576,.T.);
#579=ORIENTED_EDGE('',*,*,#578,.F.);
#581=ORIENTED_EDGE('',*,*,#580,.T.);
#583=ORIENTED_EDGE('',*,*,#582,.T.);
#585=ORIENTED_EDGE('',*,*,#584,.T.);
#586=EDGE_LOOP('',(#575,#577,#579,#581,#583,#585));
#587=FACE_OUTER_BOUND('',#586,.F.);
#588=ADVANCED_FACE('',(#587),#573,.T.);
#589=CARTESIAN_POINT('',(-3.395E0,-2.449489742783E0,1.E0));
#590=DIRECTION('',(0.E0,0.E0,1.E0));
#591=DIRECTION('',(0.E0,-1.E0,0.E0));
#592=AXIS2_PLACEMENT_3D('',#589,#590,#591);
#593=PLANE('',#592);
#594=ORIENTED_EDGE('',*,*,#574,.F.);
#596=ORIENTED_EDGE('',*,*,#595,.T.);
#598=ORIENTED_EDGE('',*,*,#597,.F.);
#600=ORIENTED_EDGE('',*,*,#599,.T.);
#602=ORIENTED_EDGE('',*,*,#601,.T.);
#604=ORIENTED_EDGE('',*,*,#603,.T.);
#606=ORIENTED_EDGE('',*,*,#605,.T.);
#608=ORIENTED_EDGE('',*,*,#607,.F.);
#609=EDGE_LOOP('',(#594,#596,#598,#600,#602,#604,#606,#608));
#610=FACE_OUTER_BOUND('',#609,.F.);
#611=ADVANCED_FACE('',(#610),#593,.F.);
#612=CARTESIAN_POINT('',(-3.E0,-3.E0,0.E0));
#613=DIRECTION('',(0.E0,-1.E0,0.E0));
#614=DIRECTION('',(1.E0,0.E0,0.E0));
#615=AXIS2_PLACEMENT_3D('',#612,#613,#614);
#616=PLANE('',#615);
#617=ORIENTED_EDGE('',*,*,#595,.F.);
#618=ORIENTED_EDGE('',*,*,#584,.F.);
#620=ORIENTED_EDGE('',*,*,#619,.T.);
#622=ORIENTED_EDGE('',*,*,#621,.F.);
#624=ORIENTED_EDGE('',*,*,#623,.T.);
#626=ORIENTED_EDGE('',*,*,#625,.F.);
#627=ORIENTED_EDGE('',*,*,#603,.F.);
#629=ORIENTED_EDGE('',*,*,#628,.F.);
#631=ORIENTED_EDGE('',*,*,#630,.F.);
#633=ORIENTED_EDGE('',*,*,#632,.F.);
#634=EDGE_LOOP('',(#617,#618,#620,#622,#624,#626,#627,#629,#631,#633));
#635=FACE_OUTER_BOUND('',#634,.F.);
#636=ADVANCED_FACE('',(#635),#616,.T.);
#637=CARTESIAN_POINT('',(0.E0,0.E0,1.5E1));
#638=DIRECTION('',(0.E0,0.E0,1.E0));
#639=DIRECTION('',(0.E0,1.E0,0.E0));
#640=AXIS2_PLACEMENT_3D('',#637,#638,#639);
#641=PLANE('',#640);
#643=ORIENTED_EDGE('',*,*,#642,.F.);
#645=ORIENTED_EDGE('',*,*,#644,.F.);
#647=ORIENTED_EDGE('',*,*,#646,.F.);
#649=ORIENTED_EDGE('',*,*,#648,.F.);
#650=ORIENTED_EDGE('',*,*,#619,.F.);
#651=ORIENTED_EDGE('',*,*,#582,.F.);
#653=ORIENTED_EDGE('',*,*,#652,.F.);
#655=ORIENTED_EDGE('',*,*,#654,.F.);
#657=ORIENTED_EDGE('',*,*,#656,.F.);
#659=ORIENTED_EDGE('',*,*,#658,.F.);
#660=EDGE_LOOP('',(#643,#645,#647,#649,#650,#651,#653,#655,#657,#659));
#661=FACE_OUTER_BOUND('',#660,.F.);
#662=ADVANCED_FACE('',(#661),#641,.T.);
#663=CARTESIAN_POINT('',(0.E0,0.E0,1.5E1));
#664=DIRECTION('',(0.E0,0.E0,1.E0));
#665=DIRECTION('',(0.E0,1.E0,0.E0));
#666=AXIS2_PLACEMENT_3D('',#663,#664,#665);
#667=PLANE('',#666);
#669=ORIENTED_EDGE('',*,*,#668,.F.);
#671=ORIENTED_EDGE('',*,*,#670,.T.);
#673=ORIENTED_EDGE('',*,*,#672,.F.);
#675=ORIENTED_EDGE('',*,*,#674,.T.);
#677=ORIENTED_EDGE('',*,*,#676,.F.);
#679=ORIENTED_EDGE('',*,*,#678,.F.);
#680=ORIENTED_EDGE('',*,*,#623,.F.);
#682=ORIENTED_EDGE('',*,*,#681,.T.);
#684=ORIENTED_EDGE('',*,*,#683,.F.);
#686=ORIENTED_EDGE('',*,*,#685,.T.);
#687=EDGE_LOOP('',(#669,#671,#673,#675,#677,#679,#680,#682,#684,#686));
#688=FACE_OUTER_BOUND('',#687,.F.);
#689=ADVANCED_FACE('',(#688),#667,.T.);
#690=CARTESIAN_POINT('',(0.E0,0.E0,1.7E1));
#691=DIRECTION('',(0.E0,1.E0,0.E0));
#692=DIRECTION('',(0.E0,0.E0,-1.E0));
#693=AXIS2_PLACEMENT_3D('',#690,#691,#692);
#694=TOROIDAL_SURFACE('',#693,2.991417924796E0,5.E-1);
#696=ORIENTED_EDGE('',*,*,#695,.T.);
#697=ORIENTED_EDGE('',*,*,#668,.T.);
#699=ORIENTED_EDGE('',*,*,#698,.T.);
#700=ORIENTED_EDGE('',*,*,#642,.T.);
#701=EDGE_LOOP('',(#696,#697,#699,#700));
#702=FACE_OUTER_BOUND('',#701,.F.);
#703=ADVANCED_FACE('',(#702),#694,.F.);
#704=CARTESIAN_POINT('',(0.E0,-8.E0,1.7E1));
#705=DIRECTION('',(0.E0,1.E0,0.E0));
#706=DIRECTION('',(0.E0,0.E0,-1.E0));
#707=AXIS2_PLACEMENT_3D('',#704,#705,#706);
#708=CYLINDRICAL_SURFACE('',#707,3.E0);
#709=ORIENTED_EDGE('',*,*,#695,.F.);
#710=ORIENTED_EDGE('',*,*,#658,.T.);
#712=ORIENTED_EDGE('',*,*,#711,.F.);
#713=ORIENTED_EDGE('',*,*,#670,.F.);
#714=EDGE_LOOP('',(#709,#710,#712,#713));
#715=FACE_OUTER_BOUND('',#714,.F.);
#716=ADVANCED_FACE('',(#715),#708,.F.);
#717=CARTESIAN_POINT('',(0.E0,-8.E0,1.7E1));
#718=DIRECTION('',(0.E0,1.E0,0.E0));
#719=DIRECTION('',(0.E0,0.E0,-1.E0));
#720=AXIS2_PLACEMENT_3D('',#717,#718,#719);
#721=CYLINDRICAL_SURFACE('',#720,3.E0);
#722=ORIENTED_EDGE('',*,*,#698,.F.);
#723=ORIENTED_EDGE('',*,*,#685,.F.);
#725=ORIENTED_EDGE('',*,*,#724,.F.);
#726=ORIENTED_EDGE('',*,*,#644,.T.);
#727=EDGE_LOOP('',(#722,#723,#725,#726));
#728=FACE_OUTER_BOUND('',#727,.F.);
#729=ADVANCED_FACE('',(#728),#721,.F.);
#730=CARTESIAN_POINT('',(0.E0,-8.E0,1.7E1));
#731=DIRECTION('',(0.E0,1.E0,0.E0));
#732=DIRECTION('',(0.E0,0.E0,-1.E0));
#733=AXIS2_PLACEMENT_3D('',#730,#731,#732);
#734=CYLINDRICAL_SURFACE('',#733,3.E0);
#736=ORIENTED_EDGE('',*,*,#735,.F.);
#737=ORIENTED_EDGE('',*,*,#681,.F.);
#738=ORIENTED_EDGE('',*,*,#621,.T.);
#739=ORIENTED_EDGE('',*,*,#648,.T.);
#740=EDGE_LOOP('',(#736,#737,#738,#739));
#741=FACE_OUTER_BOUND('',#740,.F.);
#742=ADVANCED_FACE('',(#741),#734,.F.);
#743=CARTESIAN_POINT('',(0.E0,-8.E0,1.7E1));
#744=DIRECTION('',(0.E0,1.E0,0.E0));
#745=DIRECTION('',(0.E0,0.E0,-1.E0));
#746=AXIS2_PLACEMENT_3D('',#743,#744,#745);
#747=CYLINDRICAL_SURFACE('',#746,3.E0);
#749=ORIENTED_EDGE('',*,*,#748,.F.);
#750=ORIENTED_EDGE('',*,*,#654,.T.);
#752=ORIENTED_EDGE('',*,*,#751,.T.);
#753=ORIENTED_EDGE('',*,*,#674,.F.);
#754=EDGE_LOOP('',(#749,#750,#752,#753));
#755=FACE_OUTER_BOUND('',#754,.F.);
#756=ADVANCED_FACE('',(#755),#747,.F.);
#757=CARTESIAN_POINT('',(0.E0,1.828934434912E0,1.7E1));
#758=DIRECTION('',(0.E0,1.E0,0.E0));
#759=DIRECTION('',(0.E0,0.E0,-1.E0));
#760=AXIS2_PLACEMENT_3D('',#757,#758,#759);
#761=TOROIDAL_SURFACE('',#760,2.991417924796E0,5.E-1);
#762=ORIENTED_EDGE('',*,*,#748,.T.);
#763=ORIENTED_EDGE('',*,*,#672,.T.);
#764=ORIENTED_EDGE('',*,*,#711,.T.);
#765=ORIENTED_EDGE('',*,*,#656,.T.);
#766=EDGE_LOOP('',(#762,#763,#764,#765));
#767=FACE_OUTER_BOUND('',#766,.F.);
#768=ADVANCED_FACE('',(#767),#761,.F.);
#769=CARTESIAN_POINT('',(0.E0,-1.828934434912E0,1.7E1));
#770=DIRECTION('',(0.E0,1.E0,0.E0));
#771=DIRECTION('',(0.E0,0.E0,-1.E0));
#772=AXIS2_PLACEMENT_3D('',#769,#770,#771);
#773=TOROIDAL_SURFACE('',#772,2.991417924796E0,5.E-1);
#774=ORIENTED_EDGE('',*,*,#724,.T.);
#775=ORIENTED_EDGE('',*,*,#683,.T.);
#776=ORIENTED_EDGE('',*,*,#735,.T.);
#777=ORIENTED_EDGE('',*,*,#646,.T.);
#778=EDGE_LOOP('',(#774,#775,#776,#777));
#779=FACE_OUTER_BOUND('',#778,.F.);
#780=ADVANCED_FACE('',(#779),#773,.F.);
#781=CARTESIAN_POINT('',(3.E0,3.E0,0.E0));
#782=DIRECTION('',(0.E0,1.E0,0.E0));
#783=DIRECTION('',(-1.E0,0.E0,0.E0));
#784=AXIS2_PLACEMENT_3D('',#781,#782,#783);
#785=PLANE('',#784);
#787=ORIENTED_EDGE('',*,*,#786,.F.);
#789=ORIENTED_EDGE('',*,*,#788,.T.);
#790=ORIENTED_EDGE('',*,*,#676,.T.);
#791=ORIENTED_EDGE('',*,*,#751,.F.);
#792=ORIENTED_EDGE('',*,*,#652,.T.);
#793=ORIENTED_EDGE('',*,*,#580,.F.);
#795=ORIENTED_EDGE('',*,*,#794,.F.);
#797=ORIENTED_EDGE('',*,*,#796,.F.);
#799=ORIENTED_EDGE('',*,*,#798,.T.);
#801=ORIENTED_EDGE('',*,*,#800,.F.);
#802=EDGE_LOOP('',(#787,#789,#790,#791,#792,#793,#795,#797,#799,#801));
#803=FACE_OUTER_BOUND('',#802,.F.);
#804=ADVANCED_FACE('',(#803),#785,.T.);
#805=CARTESIAN_POINT('',(-3.395E0,7.5E0,1.E0));
#806=DIRECTION('',(0.E0,0.E0,1.E0));
#807=DIRECTION('',(0.E0,-1.E0,0.E0));
#808=AXIS2_PLACEMENT_3D('',#805,#806,#807);
#809=PLANE('',#808);
#810=ORIENTED_EDGE('',*,*,#578,.T.);
#812=ORIENTED_EDGE('',*,*,#811,.T.);
#814=ORIENTED_EDGE('',*,*,#813,.F.);
#815=ORIENTED_EDGE('',*,*,#786,.T.);
#817=ORIENTED_EDGE('',*,*,#816,.F.);
#819=ORIENTED_EDGE('',*,*,#818,.T.);
#821=ORIENTED_EDGE('',*,*,#820,.T.);
#822=ORIENTED_EDGE('',*,*,#794,.T.);
#823=EDGE_LOOP('',(#810,#812,#814,#815,#817,#819,#821,#822));
#824=FACE_OUTER_BOUND('',#823,.F.);
#825=ADVANCED_FACE('',(#824),#809,.F.);
#826=CARTESIAN_POINT('',(-3.395E0,0.E0,3.5E0));
#827=DIRECTION('',(1.E0,0.E0,0.E0));
#828=DIRECTION('',(0.E0,-1.E0,0.E0));
#829=AXIS2_PLACEMENT_3D('',#826,#827,#828);
#830=CYLINDRICAL_SURFACE('',#829,3.5E0);
#831=ORIENTED_EDGE('',*,*,#576,.F.);
#832=ORIENTED_EDGE('',*,*,#607,.T.);
#834=ORIENTED_EDGE('',*,*,#833,.F.);
#835=ORIENTED_EDGE('',*,*,#811,.F.);
#836=EDGE_LOOP('',(#831,#832,#834,#835));
#837=FACE_OUTER_BOUND('',#836,.F.);
#838=ADVANCED_FACE('',(#837),#830,.T.);
#839=CARTESIAN_POINT('',(3.E0,-3.E0,0.E0));
#840=DIRECTION('',(1.E0,0.E0,0.E0));
#841=DIRECTION('',(0.E0,1.E0,0.E0));
#842=AXIS2_PLACEMENT_3D('',#839,#840,#841);
#843=PLANE('',#842);
#844=ORIENTED_EDGE('',*,*,#605,.F.);
#845=ORIENTED_EDGE('',*,*,#625,.T.);
#846=ORIENTED_EDGE('',*,*,#678,.T.);
#847=ORIENTED_EDGE('',*,*,#788,.F.);
#848=ORIENTED_EDGE('',*,*,#813,.T.);
#849=ORIENTED_EDGE('',*,*,#833,.T.);
#850=EDGE_LOOP('',(#844,#845,#846,#847,#848,#849));
#851=FACE_OUTER_BOUND('',#850,.F.);
#852=ADVANCED_FACE('',(#851),#843,.T.);
#853=CARTESIAN_POINT('',(1.5E0,-7.5E0,0.E0));
#854=DIRECTION('',(1.E0,0.E0,0.E0));
#855=DIRECTION('',(0.E0,1.E0,0.E0));
#856=AXIS2_PLACEMENT_3D('',#853,#854,#855);
#857=PLANE('',#856);
#858=ORIENTED_EDGE('',*,*,#601,.F.);
#860=ORIENTED_EDGE('',*,*,#859,.T.);
#862=ORIENTED_EDGE('',*,*,#861,.T.);
#863=ORIENTED_EDGE('',*,*,#628,.T.);
#864=EDGE_LOOP('',(#858,#860,#862,#863));
#865=FACE_OUTER_BOUND('',#864,.F.);
#866=ADVANCED_FACE('',(#865),#857,.T.);
#867=CARTESIAN_POINT('',(1.5E0,-7.5E0,0.E0));
#868=DIRECTION('',(1.E0,0.E0,0.E0));
#869=DIRECTION('',(0.E0,1.E0,0.E0));
#870=AXIS2_PLACEMENT_3D('',#867,#868,#869);
#871=PLANE('',#870);
#872=ORIENTED_EDGE('',*,*,#816,.T.);
#873=ORIENTED_EDGE('',*,*,#800,.T.);
#875=ORIENTED_EDGE('',*,*,#874,.T.);
#877=ORIENTED_EDGE('',*,*,#876,.T.);
#878=EDGE_LOOP('',(#872,#873,#875,#877));
#879=FACE_OUTER_BOUND('',#878,.F.);
#880=ADVANCED_FACE('',(#879),#871,.T.);
#881=CARTESIAN_POINT('',(-1.5E0,-7.5E0,0.E0));
#882=DIRECTION('',(0.E0,-1.E0,0.E0));
#883=DIRECTION('',(1.E0,0.E0,0.E0));
#884=AXIS2_PLACEMENT_3D('',#881,#882,#883);
#885=PLANE('',#884);
#886=ORIENTED_EDGE('',*,*,#599,.F.);
#888=ORIENTED_EDGE('',*,*,#887,.T.);
#890=ORIENTED_EDGE('',*,*,#889,.T.);
#891=ORIENTED_EDGE('',*,*,#859,.F.);
#892=EDGE_LOOP('',(#886,#888,#890,#891));
#893=FACE_OUTER_BOUND('',#892,.F.);
#894=ADVANCED_FACE('',(#893),#885,.T.);
#895=CARTESIAN_POINT('',(-1.5E0,-3.E0,0.E0));
#896=DIRECTION('',(-1.E0,0.E0,0.E0));
#897=DIRECTION('',(0.E0,-1.E0,0.E0));
#898=AXIS2_PLACEMENT_3D('',#895,#896,#897);
#899=PLANE('',#898);
#900=ORIENTED_EDGE('',*,*,#597,.T.);
#901=ORIENTED_EDGE('',*,*,#632,.T.);
#903=ORIENTED_EDGE('',*,*,#902,.T.);
#904=ORIENTED_EDGE('',*,*,#887,.F.);
#905=EDGE_LOOP('',(#900,#901,#903,#904));
#906=FACE_OUTER_BOUND('',#905,.F.);
#907=ADVANCED_FACE('',(#906),#899,.T.);
#908=CARTESIAN_POINT('',(-1.5E0,-3.E0,0.E0));
#909=DIRECTION('',(-1.E0,0.E0,0.E0));
#910=DIRECTION('',(0.E0,-1.E0,0.E0));
#911=AXIS2_PLACEMENT_3D('',#908,#909,#910);
#912=PLANE('',#911);
#913=ORIENTED_EDGE('',*,*,#820,.F.);
#915=ORIENTED_EDGE('',*,*,#914,.T.);
#917=ORIENTED_EDGE('',*,*,#916,.T.);
#918=ORIENTED_EDGE('',*,*,#796,.T.);
#919=EDGE_LOOP('',(#913,#915,#917,#918));
#920=FACE_OUTER_BOUND('',#919,.F.);
#921=ADVANCED_FACE('',(#920),#912,.T.);
#922=CARTESIAN_POINT('',(0.E0,0.E0,4.E0));
#923=DIRECTION('',(0.E0,0.E0,1.E0));
#924=DIRECTION('',(0.E0,-1.E0,0.E0));
#925=AXIS2_PLACEMENT_3D('',#922,#923,#924);
#926=PLANE('',#925);
#927=ORIENTED_EDGE('',*,*,#630,.T.);
#928=ORIENTED_EDGE('',*,*,#861,.F.);
#929=ORIENTED_EDGE('',*,*,#889,.F.);
#930=ORIENTED_EDGE('',*,*,#902,.F.);
#931=EDGE_LOOP('',(#927,#928,#929,#930));
#932=FACE_OUTER_BOUND('',#931,.F.);
#934=ORIENTED_EDGE('',*,*,#933,.T.);
#936=ORIENTED_EDGE('',*,*,#935,.T.);
#937=EDGE_LOOP('',(#934,#936));
#938=FACE_BOUND('',#937,.F.);
#939=ADVANCED_FACE('',(#932,#938),#926,.T.);
#940=CARTESIAN_POINT('',(0.E0,0.E0,4.E0));
#941=DIRECTION('',(0.E0,0.E0,1.E0));
#942=DIRECTION('',(0.E0,-1.E0,0.E0));
#943=AXIS2_PLACEMENT_3D('',#940,#941,#942);
#944=PLANE('',#943);
#945=ORIENTED_EDGE('',*,*,#798,.F.);
#946=ORIENTED_EDGE('',*,*,#916,.F.);
#948=ORIENTED_EDGE('',*,*,#947,.F.);
#949=ORIENTED_EDGE('',*,*,#874,.F.);
#950=EDGE_LOOP('',(#945,#946,#948,#949));
#951=FACE_OUTER_BOUND('',#950,.F.);
#953=ORIENTED_EDGE('',*,*,#952,.T.);
#955=ORIENTED_EDGE('',*,*,#954,.T.);
#956=EDGE_LOOP('',(#953,#955));
#957=FACE_BOUND('',#956,.F.);
#958=ADVANCED_FACE('',(#951,#957),#944,.T.);
#959=CARTESIAN_POINT('',(1.5E0,7.5E0,0.E0));
#960=DIRECTION('',(0.E0,1.E0,0.E0));
#961=DIRECTION('',(-1.E0,0.E0,0.E0));
#962=AXIS2_PLACEMENT_3D('',#959,#960,#961);
#963=PLANE('',#962);
#964=ORIENTED_EDGE('',*,*,#818,.F.);
#965=ORIENTED_EDGE('',*,*,#876,.F.);
#966=ORIENTED_EDGE('',*,*,#947,.T.);
#967=ORIENTED_EDGE('',*,*,#914,.F.);
#968=EDGE_LOOP('',(#964,#965,#966,#967));
#969=FACE_OUTER_BOUND('',#968,.F.);
#970=ADVANCED_FACE('',(#969),#963,.T.);
#971=CARTESIAN_POINT('',(0.E0,5.E0,0.E0));
#972=DIRECTION('',(0.E0,0.E0,1.E0));
#973=DIRECTION('',(1.E0,0.E0,0.E0));
#974=AXIS2_PLACEMENT_3D('',#971,#972,#973);
#975=CYLINDRICAL_SURFACE('',#974,1.E0);
#976=ORIENTED_EDGE('',*,*,#952,.F.);
#978=ORIENTED_EDGE('',*,*,#977,.T.);
#980=ORIENTED_EDGE('',*,*,#979,.T.);
#982=ORIENTED_EDGE('',*,*,#981,.F.);
#983=EDGE_LOOP('',(#976,#978,#980,#982));
#984=FACE_OUTER_BOUND('',#983,.F.);
#985=ADVANCED_FACE('',(#984),#975,.T.);
#986=CARTESIAN_POINT('',(0.E0,5.E0,0.E0));
#987=DIRECTION('',(0.E0,0.E0,1.E0));
#988=DIRECTION('',(1.E0,0.E0,0.E0));
#989=AXIS2_PLACEMENT_3D('',#986,#987,#988);
#990=CYLINDRICAL_SURFACE('',#989,1.E0);
#991=ORIENTED_EDGE('',*,*,#954,.F.);
#992=ORIENTED_EDGE('',*,*,#981,.T.);
#994=ORIENTED_EDGE('',*,*,#993,.T.);
#995=ORIENTED_EDGE('',*,*,#977,.F.);
#996=EDGE_LOOP('',(#991,#992,#994,#995));
#997=FACE_OUTER_BOUND('',#996,.F.);
#998=ADVANCED_FACE('',(#997),#990,.T.);
#999=CARTESIAN_POINT('',(0.E0,5.E0,9.800000000286E0));
#1000=DIRECTION('',(0.E0,0.E0,-1.E0));
#1001=DIRECTION('',(0.E0,-1.E0,0.E0));
#1002=AXIS2_PLACEMENT_3D('',#999,#1000,#1001);
#1003=CONICAL_SURFACE('',#1002,7.999999997140E-1,4.5E1);
#1005=ORIENTED_EDGE('',*,*,#1004,.T.);
#1007=ORIENTED_EDGE('',*,*,#1006,.T.);
#1008=ORIENTED_EDGE('',*,*,#993,.F.);
#1010=ORIENTED_EDGE('',*,*,#1009,.F.);
#1011=EDGE_LOOP('',(#1005,#1007,#1008,#1010));
#1012=FACE_OUTER_BOUND('',#1011,.F.);
#1013=ADVANCED_FACE('',(#1012),#1003,.T.);
#1014=CARTESIAN_POINT('',(0.E0,0.E0,1.E1));
#1015=DIRECTION('',(0.E0,0.E0,1.E0));
#1016=DIRECTION('',(1.E0,0.E0,0.E0));
#1017=AXIS2_PLACEMENT_3D('',#1014,#1015,#1016);
#1018=PLANE('',#1017);
#1020=ORIENTED_EDGE('',*,*,#1019,.F.);
#1022=ORIENTED_EDGE('',*,*,#1021,.F.);
#1023=EDGE_LOOP('',(#1020,#1022));
#1024=FACE_OUTER_BOUND('',#1023,.F.);
#1025=ADVANCED_FACE('',(#1024),#1018,.T.);
#1026=CARTESIAN_POINT('',(0.E0,0.E0,1.E1));
#1027=DIRECTION('',(0.E0,0.E0,1.E0));
#1028=DIRECTION('',(1.E0,0.E0,0.E0));
#1029=AXIS2_PLACEMENT_3D('',#1026,#1027,#1028);
#1030=PLANE('',#1029);
#1031=ORIENTED_EDGE('',*,*,#1004,.F.);
#1033=ORIENTED_EDGE('',*,*,#1032,.F.);
#1034=EDGE_LOOP('',(#1031,#1033));
#1035=FACE_OUTER_BOUND('',#1034,.F.);
#1036=ADVANCED_FACE('',(#1035),#1030,.T.);
#1037=CARTESIAN_POINT('',(0.E0,-5.E0,9.800000000286E0));
#1038=DIRECTION('',(0.E0,0.E0,-1.E0));
#1039=DIRECTION('',(0.E0,-1.E0,0.E0));
#1040=AXIS2_PLACEMENT_3D('',#1037,#1038,#1039);
#1041=CONICAL_SURFACE('',#1040,7.999999997140E-1,4.5E1);
#1042=ORIENTED_EDGE('',*,*,#1019,.T.);
#1044=ORIENTED_EDGE('',*,*,#1043,.T.);
#1046=ORIENTED_EDGE('',*,*,#1045,.F.);
#1048=ORIENTED_EDGE('',*,*,#1047,.F.);
#1049=EDGE_LOOP('',(#1042,#1044,#1046,#1048));
#1050=FACE_OUTER_BOUND('',#1049,.F.);
#1051=ADVANCED_FACE('',(#1050),#1041,.T.);
#1052=CARTESIAN_POINT('',(0.E0,-5.E0,9.800000000286E0));
#1053=DIRECTION('',(0.E0,0.E0,-1.E0));
#1054=DIRECTION('',(0.E0,-1.E0,0.E0));
#1055=AXIS2_PLACEMENT_3D('',#1052,#1053,#1054);
#1056=CONICAL_SURFACE('',#1055,7.999999997140E-1,4.5E1);
#1057=ORIENTED_EDGE('',*,*,#1021,.T.);
#1058=ORIENTED_EDGE('',*,*,#1047,.T.);
#1060=ORIENTED_EDGE('',*,*,#1059,.F.);
#1061=ORIENTED_EDGE('',*,*,#1043,.F.);
#1062=EDGE_LOOP('',(#1057,#1058,#1060,#1061));
#1063=FACE_OUTER_BOUND('',#1062,.F.);
#1064=ADVANCED_FACE('',(#1063),#1056,.T.);
#1065=CARTESIAN_POINT('',(0.E0,-5.E0,0.E0));
#1066=DIRECTION('',(0.E0,0.E0,1.E0));
#1067=DIRECTION('',(1.E0,0.E0,0.E0));
#1068=AXIS2_PLACEMENT_3D('',#1065,#1066,#1067);
#1069=CYLINDRICAL_SURFACE('',#1068,1.E0);
#1070=ORIENTED_EDGE('',*,*,#935,.F.);
#1072=ORIENTED_EDGE('',*,*,#1071,.T.);
#1073=ORIENTED_EDGE('',*,*,#1059,.T.);
#1075=ORIENTED_EDGE('',*,*,#1074,.F.);
#1076=EDGE_LOOP('',(#1070,#1072,#1073,#1075));
#1077=FACE_OUTER_BOUND('',#1076,.F.);
#1078=ADVANCED_FACE('',(#1077),#1069,.T.);
#1079=CARTESIAN_POINT('',(0.E0,-5.E0,0.E0));
#1080=DIRECTION('',(0.E0,0.E0,1.E0));
#1081=DIRECTION('',(1.E0,0.E0,0.E0));
#1082=AXIS2_PLACEMENT_3D('',#1079,#1080,#1081);
#1083=CYLINDRICAL_SURFACE('',#1082,1.E0);
#1084=ORIENTED_EDGE('',*,*,#933,.F.);
#1085=ORIENTED_EDGE('',*,*,#1074,.T.);
#1086=ORIENTED_EDGE('',*,*,#1045,.T.);
#1087=ORIENTED_EDGE('',*,*,#1071,.F.);
#1088=EDGE_LOOP('',(#1084,#1085,#1086,#1087));
#1089=FACE_OUTER_BOUND('',#1088,.F.);
#1090=ADVANCED_FACE('',(#1089),#1083,.T.);
#1091=CARTESIAN_POINT('',(0.E0,5.E0,9.800000000286E0));
#1092=DIRECTION('',(0.E0,0.E0,-1.E0));
#1093=DIRECTION('',(0.E0,-1.E0,0.E0));
#1094=AXIS2_PLACEMENT_3D('',#1091,#1092,#1093);
#1095=CONICAL_SURFACE('',#1094,7.999999997140E-1,4.5E1);
#1096=ORIENTED_EDGE('',*,*,#1032,.T.);
#1097=ORIENTED_EDGE('',*,*,#1009,.T.);
#1098=ORIENTED_EDGE('',*,*,#979,.F.);
#1099=ORIENTED_EDGE('',*,*,#1006,.F.);
#1100=EDGE_LOOP('',(#1096,#1097,#1098,#1099));
#1101=FACE_OUTER_BOUND('',#1100,.F.);
#1102=ADVANCED_FACE('',(#1101),#1095,.T.);
#1103=CLOSED_SHELL('',(#588,#611,#636,#662,#689,#703,#716,#729,#742,#756,#768,
#780,#804,#825,#838,#852,#866,#880,#894,#907,#921,#939,#958,#970,#985,#998,
#1013,#1025,#1036,#1051,#1064,#1078,#1090,#1102));
#1104=MANIFOLD_SOLID_BREP('',#1103);
#1106=DIMENSIONAL_EXPONENTS(0.E0,0.E0,0.E0,0.E0,0.E0,0.E0,0.E0);
#1108=PLANE_ANGLE_MEASURE_WITH_UNIT(PLANE_ANGLE_MEASURE(1.745329251994E-2),
#1107);
#1109=(CONVERSION_BASED_UNIT('DEGREE',#1108)NAMED_UNIT(*)PLANE_ANGLE_UNIT());
#1111=UNCERTAINTY_MEASURE_WITH_UNIT(LENGTH_MEASURE(2.717638583437E-3),#1105,
'closure',
'Maximum model space distance between geometric entities at asserted connectivities');
#1112=(GEOMETRIC_REPRESENTATION_CONTEXT(3)GLOBAL_UNCERTAINTY_ASSIGNED_CONTEXT((
#1111))GLOBAL_UNIT_ASSIGNED_CONTEXT((#1105,#1109,#1110))REPRESENTATION_CONTEXT(
'ID1','3'));
#1114=APPLICATION_CONTEXT(
'CONFIGURATION CONTROLLED 3D DESIGNS OF MECHANICAL PARTS AND ASSEMBLIES');
#1115=APPLICATION_PROTOCOL_DEFINITION('international standard',
'config_control_design',1994,#1114);
#1116=DESIGN_CONTEXT('',#1114,'design');
#1117=MECHANICAL_CONTEXT('',#1114,'mechanical');
#1118=PRODUCT('BRAKE3','BRAKE3','NOT SPECIFIED',(#1117));
#1119=PRODUCT_DEFINITION_FORMATION_WITH_SPECIFIED_SOURCE('10','LAST_VERSION',
#1118,.MADE.);
#1123=PRODUCT_CATEGORY('part','');
#1124=PRODUCT_RELATED_PRODUCT_CATEGORY('detail','',(#1118));
#1125=PRODUCT_CATEGORY_RELATIONSHIP('','',#1123,#1124);
#1126=SECURITY_CLASSIFICATION_LEVEL('unclassified');
#1127=SECURITY_CLASSIFICATION('','',#1126);
#1128=CC_DESIGN_SECURITY_CLASSIFICATION(#1127,(#1119));
#1129=APPROVAL_STATUS('approved');
#1130=APPROVAL(#1129,'');
#1131=CC_DESIGN_APPROVAL(#1130,(#1127,#1119,#1120));
#1132=CALENDAR_DATE(126,23,7);
#1133=COORDINATED_UNIVERSAL_TIME_OFFSET(8,0,.AHEAD.);
#1134=LOCAL_TIME(13,10,3.4E1,#1133);
#1135=DATE_AND_TIME(#1132,#1134);
#1136=APPROVAL_DATE_TIME(#1135,#1130);
#1137=DATE_TIME_ROLE('creation_date');
#1138=CC_DESIGN_DATE_AND_TIME_ASSIGNMENT(#1135,#1137,(#1120));
#1139=DATE_TIME_ROLE('classification_date');
#1140=CC_DESIGN_DATE_AND_TIME_ASSIGNMENT(#1135,#1139,(#1127));
#1141=PERSON('UNSPECIFIED','UNSPECIFIED',$,$,$,$);
#1142=ORGANIZATION('UNSPECIFIED','UNSPECIFIED','UNSPECIFIED');
#1143=PERSON_AND_ORGANIZATION(#1141,#1142);
#1144=APPROVAL_ROLE('approver');
#1145=APPROVAL_PERSON_ORGANIZATION(#1143,#1130,#1144);
#1146=PERSON_AND_ORGANIZATION_ROLE('creator');
#1147=CC_DESIGN_PERSON_AND_ORGANIZATION_ASSIGNMENT(#1143,#1146,(#1119,#1120));
#1148=PERSON_AND_ORGANIZATION_ROLE('design_supplier');
#1149=CC_DESIGN_PERSON_AND_ORGANIZATION_ASSIGNMENT(#1143,#1148,(#1119));
#1150=PERSON_AND_ORGANIZATION_ROLE('classification_officer');
#1151=CC_DESIGN_PERSON_AND_ORGANIZATION_ASSIGNMENT(#1143,#1150,(#1127));
#1152=PERSON_AND_ORGANIZATION_ROLE('design_owner');
#1153=CC_DESIGN_PERSON_AND_ORGANIZATION_ASSIGNMENT(#1143,#1152,(#1118));
#9=CIRCLE('',#8,3.5E0);
#58=B_SPLINE_CURVE_WITH_KNOTS('',3,(#38,#39,#40,#41,#42,#43,#44,#45,#46,#47,#48,
#49,#50,#51,#52,#53,#54,#55,#56,#57),.UNSPECIFIED.,.F.,.F.,(4,1,1,1,1,1,1,1,1,1,
1,1,1,1,1,1,1,4),(0.E0,5.882352941176E-2,1.176470588235E-1,1.764705882353E-1,
2.352941176471E-1,2.941176470588E-1,3.529411764706E-1,4.117647058824E-1,
4.705882352941E-1,5.294117647059E-1,5.882352941176E-1,6.470588235294E-1,
7.058823529412E-1,7.647058823529E-1,8.235294117647E-1,8.823529411765E-1,
9.411764705882E-1,1.E0),.UNSPECIFIED.);
#83=B_SPLINE_CURVE_WITH_KNOTS('',3,(#63,#64,#65,#66,#67,#68,#69,#70,#71,#72,#73,
#74,#75,#76,#77,#78,#79,#80,#81,#82),.UNSPECIFIED.,.F.,.F.,(4,1,1,1,1,1,1,1,1,1,
1,1,1,1,1,1,1,4),(0.E0,5.882352941176E-2,1.176470588235E-1,1.764705882353E-1,
2.352941176471E-1,2.941176470588E-1,3.529411764706E-1,4.117647058824E-1,
4.705882352941E-1,5.294117647059E-1,5.882352941176E-1,6.470588235294E-1,
7.058823529412E-1,7.647058823529E-1,8.235294117647E-1,8.823529411765E-1,
9.411764705882E-1,1.E0),.UNSPECIFIED.);
#124=B_SPLINE_CURVE_WITH_KNOTS('',3,(#104,#105,#106,#107,#108,#109,#110,#111,
#112,#113,#114,#115,#116,#117,#118,#119,#120,#121,#122,#123),.UNSPECIFIED.,.F.,
.F.,(4,1,1,1,1,1,1,1,1,1,1,1,1,1,1,1,1,4),(0.E0,5.882352941176E-2,
1.176470588235E-1,1.764705882353E-1,2.352941176471E-1,2.941176470588E-1,
3.529411764706E-1,4.117647058824E-1,4.705882352941E-1,5.294117647059E-1,
5.882352941176E-1,6.470588235294E-1,7.058823529412E-1,7.647058823529E-1,
8.235294117647E-1,8.823529411765E-1,9.411764705882E-1,1.E0),.UNSPECIFIED.);
#149=B_SPLINE_CURVE_WITH_KNOTS('',3,(#129,#130,#131,#132,#133,#134,#135,#136,
#137,#138,#139,#140,#141,#142,#143,#144,#145,#146,#147,#148),.UNSPECIFIED.,.F.,
.F.,(4,1,1,1,1,1,1,1,1,1,1,1,1,1,1,1,1,4),(0.E0,5.882352941176E-2,
1.176470588235E-1,1.764705882353E-1,2.352941176471E-1,2.941176470588E-1,
3.529411764706E-1,4.117647058824E-1,4.705882352941E-1,5.294117647059E-1,
5.882352941176E-1,6.470588235294E-1,7.058823529412E-1,7.647058823529E-1,
8.235294117647E-1,8.823529411765E-1,9.411764705882E-1,1.E0),.UNSPECIFIED.);
#174=B_SPLINE_CURVE_WITH_KNOTS('',3,(#154,#155,#156,#157,#158,#159,#160,#161,
#162,#163,#164,#165,#166,#167,#168,#169,#170,#171,#172,#173),.UNSPECIFIED.,.F.,
.F.,(4,1,1,1,1,1,1,1,1,1,1,1,1,1,1,1,1,4),(0.E0,5.882352941176E-2,
1.176470588235E-1,1.764705882353E-1,2.352941176471E-1,2.941176470588E-1,
3.529411764706E-1,4.117647058824E-1,4.705882352941E-1,5.294117647059E-1,
5.882352941176E-1,6.470588235294E-1,7.058823529412E-1,7.647058823529E-1,
8.235294117647E-1,8.823529411765E-1,9.411764705882E-1,1.E0),.UNSPECIFIED.);
#215=B_SPLINE_CURVE_WITH_KNOTS('',3,(#195,#196,#197,#198,#199,#200,#201,#202,
#203,#204,#205,#206,#207,#208,#209,#210,#211,#212,#213,#214),.UNSPECIFIED.,.F.,
.F.,(4,1,1,1,1,1,1,1,1,1,1,1,1,1,1,1,1,4),(0.E0,5.882352941176E-2,
1.176470588235E-1,1.764705882353E-1,2.352941176471E-1,2.941176470588E-1,
3.529411764706E-1,4.117647058824E-1,4.705882352941E-1,5.294117647059E-1,
5.882352941176E-1,6.470588235294E-1,7.058823529412E-1,7.647058823529E-1,
8.235294117647E-1,8.823529411765E-1,9.411764705882E-1,1.E0),.UNSPECIFIED.);
#224=CIRCLE('',#223,3.E0);
#229=CIRCLE('',#228,3.E0);
#234=CIRCLE('',#233,3.E0);
#239=CIRCLE('',#238,3.E0);
#244=CIRCLE('',#243,3.E0);
#249=CIRCLE('',#248,3.E0);
#254=CIRCLE('',#253,3.E0);
#259=CIRCLE('',#258,3.E0);
#296=CIRCLE('',#295,3.5E0);
#381=CIRCLE('',#380,1.E0);
#390=CIRCLE('',#389,1.E0);
#395=CIRCLE('',#394,1.E0);
#404=CIRCLE('',#403,1.E0);
#413=CIRCLE('',#412,6.E-1);
#418=CIRCLE('',#417,6.E-1);
#423=CIRCLE('',#422,6.E-1);
#428=CIRCLE('',#427,6.E-1);
#441=CIRCLE('',#440,1.E0);
#450=CIRCLE('',#449,1.E0);
#455=CIRCLE('',#454,1.E0);
#464=CIRCLE('',#463,1.E0);
#574=EDGE_CURVE('',#539,#540,#4,.T.);
#576=EDGE_CURVE('',#540,#544,#9,.T.);
#578=EDGE_CURVE('',#543,#544,#13,.T.);
#580=EDGE_CURVE('',#543,#475,#17,.T.);
#582=EDGE_CURVE('',#475,#476,#95,.T.);
#584=EDGE_CURVE('',#476,#539,#21,.T.);
#595=EDGE_CURVE('',#539,#546,#29,.T.);
#597=EDGE_CURVE('',#552,#546,#332,.T.);
#599=EDGE_CURVE('',#552,#558,#324,.T.);
#601=EDGE_CURVE('',#558,#549,#300,.T.);
#603=EDGE_CURVE('',#549,#550,#33,.T.);
#605=EDGE_CURVE('',#550,#564,#283,.T.);
#607=EDGE_CURVE('',#540,#564,#25,.T.);
#619=EDGE_CURVE('',#476,#478,#91,.T.);
#621=EDGE_CURVE('',#480,#478,#234,.T.);
#623=EDGE_CURVE('',#480,#471,#190,.T.);
#625=EDGE_CURVE('',#550,#471,#287,.T.);
#628=EDGE_CURVE('',#524,#549,#308,.T.);
#630=EDGE_CURVE('',#523,#524,#37,.T.);
#632=EDGE_CURVE('',#546,#523,#336,.T.);
#642=EDGE_CURVE('',#501,#502,#58,.T.);
#644=EDGE_CURVE('',#504,#501,#62,.T.);
#646=EDGE_CURVE('',#503,#504,#83,.T.);
#648=EDGE_CURVE('',#478,#503,#87,.T.);
#652=EDGE_CURVE('',#484,#475,#99,.T.);
#654=EDGE_CURVE('',#506,#484,#103,.T.);
#656=EDGE_CURVE('',#505,#506,#124,.T.);
#658=EDGE_CURVE('',#502,#505,#128,.T.);
#668=EDGE_CURVE('',#507,#508,#149,.T.);
#670=EDGE_CURVE('',#507,#512,#153,.T.);
#672=EDGE_CURVE('',#511,#512,#174,.T.);
#674=EDGE_CURVE('',#511,#482,#178,.T.);
#676=EDGE_CURVE('',#472,#482,#182,.T.);
#678=EDGE_CURVE('',#471,#472,#186,.T.);
#681=EDGE_CURVE('',#480,#510,#194,.T.);
#683=EDGE_CURVE('',#509,#510,#215,.T.);
#685=EDGE_CURVE('',#509,#508,#219,.T.);
#695=EDGE_CURVE('',#502,#507,#224,.T.);
#698=EDGE_CURVE('',#508,#501,#229,.T.);
#711=EDGE_CURVE('',#512,#505,#249,.T.);
#724=EDGE_CURVE('',#504,#509,#254,.T.);
#735=EDGE_CURVE('',#510,#503,#259,.T.);
#748=EDGE_CURVE('',#506,#511,#244,.T.);
#751=EDGE_CURVE('',#484,#482,#239,.T.);
#786=EDGE_CURVE('',#567,#562,#263,.T.);
#788=EDGE_CURVE('',#567,#472,#267,.T.);
#794=EDGE_CURVE('',#556,#543,#271,.T.);
#796=EDGE_CURVE('',#527,#556,#348,.T.);
#798=EDGE_CURVE('',#527,#528,#275,.T.);
#800=EDGE_CURVE('',#562,#528,#316,.T.);
#811=EDGE_CURVE('',#544,#568,#279,.T.);
#813=EDGE_CURVE('',#567,#568,#291,.T.);
#816=EDGE_CURVE('',#561,#562,#312,.T.);
#818=EDGE_CURVE('',#561,#555,#376,.T.);
#820=EDGE_CURVE('',#555,#556,#340,.T.);
#833=EDGE_CURVE('',#568,#564,#296,.T.);
#859=EDGE_CURVE('',#558,#520,#304,.T.);
#861=EDGE_CURVE('',#520,#524,#352,.T.);
#874=EDGE_CURVE('',#528,#515,#372,.T.);
#876=EDGE_CURVE('',#515,#561,#320,.T.);
#887=EDGE_CURVE('',#552,#519,#328,.T.);
#889=EDGE_CURVE('',#519,#520,#356,.T.);
#902=EDGE_CURVE('',#523,#519,#360,.T.);
#914=EDGE_CURVE('',#555,#516,#344,.T.);
#916=EDGE_CURVE('',#516,#527,#364,.T.);
#933=EDGE_CURVE('',#535,#536,#455,.T.);
#935=EDGE_CURVE('',#536,#535,#441,.T.);
#947=EDGE_CURVE('',#515,#516,#368,.T.);
#952=EDGE_CURVE('',#531,#532,#381,.T.);
#954=EDGE_CURVE('',#532,#531,#395,.T.);
#977=EDGE_CURVE('',#531,#500,#385,.T.);
#979=EDGE_CURVE('',#500,#499,#390,.T.);
#981=EDGE_CURVE('',#532,#499,#399,.T.);
#993=EDGE_CURVE('',#499,#500,#404,.T.);
#1004=EDGE_CURVE('',#495,#496,#423,.T.);
#1006=EDGE_CURVE('',#496,#500,#468,.T.);
#1009=EDGE_CURVE('',#495,#499,#408,.T.);
#1019=EDGE_CURVE('',#487,#488,#413,.T.);
#1021=EDGE_CURVE('',#488,#487,#418,.T.);
#1032=EDGE_CURVE('',#496,#495,#428,.T.);
#1043=EDGE_CURVE('',#488,#492,#436,.T.);
#1045=EDGE_CURVE('',#491,#492,#464,.T.);
#1047=EDGE_CURVE('',#487,#491,#432,.T.);
#1059=EDGE_CURVE('',#492,#491,#450,.T.);
#1071=EDGE_CURVE('',#536,#492,#445,.T.);
#1074=EDGE_CURVE('',#535,#491,#459,.T.);
#1105=(LENGTH_UNIT()NAMED_UNIT(*)SI_UNIT(.MILLI.,.METRE.));
#1107=(NAMED_UNIT(*)PLANE_ANGLE_UNIT()SI_UNIT($,.RADIAN.));
#1110=(NAMED_UNIT(*)SI_UNIT($,.STERADIAN.)SOLID_ANGLE_UNIT());
#1113=ADVANCED_BREP_SHAPE_REPRESENTATION('',(#1104),#1112);
#1120=PRODUCT_DEFINITION('design','',#1119,#1116);
#1121=PRODUCT_DEFINITION_SHAPE('','SHAPE FOR BRAKE3.',#1120);
#1122=SHAPE_DEFINITION_REPRESENTATION(#1121,#1113);
ENDSEC;
END-ISO-10303-21;
