ISO-10303-21;
HEADER;
FILE_DESCRIPTION((''),'2;1');
FILE_NAME('BRAKE1','2026-07-23T13:13:37',('gram2'),(''),
'CREO PARAMETRIC BY PTC INC, 2016510','CREO PARAMETRIC BY PTC INC, 2016510','');
FILE_SCHEMA(('CONFIG_CONTROL_DESIGN'));
ENDSEC;
DATA;
#1=CARTESIAN_POINT('',(-4.E0,0.E0,3.E0));
#2=DIRECTION('',(0.E0,0.E0,1.E0));
#3=DIRECTION('',(1.E0,0.E0,0.E0));
#4=AXIS2_PLACEMENT_3D('',#1,#2,#3);
#6=CARTESIAN_POINT('',(-4.E0,0.E0,3.E0));
#7=DIRECTION('',(0.E0,0.E0,1.E0));
#8=DIRECTION('',(-1.E0,0.E0,0.E0));
#9=AXIS2_PLACEMENT_3D('',#6,#7,#8);
#11=CARTESIAN_POINT('',(4.E0,0.E0,3.E0));
#12=DIRECTION('',(0.E0,0.E0,1.E0));
#13=DIRECTION('',(1.E0,0.E0,0.E0));
#14=AXIS2_PLACEMENT_3D('',#11,#12,#13);
#16=CARTESIAN_POINT('',(4.E0,0.E0,3.E0));
#17=DIRECTION('',(0.E0,0.E0,1.E0));
#18=DIRECTION('',(-1.E0,0.E0,0.E0));
#19=AXIS2_PLACEMENT_3D('',#16,#17,#18);
#21=DIRECTION('',(0.E0,1.E0,0.E0));
#22=VECTOR('',#21,3.E0);
#23=CARTESIAN_POINT('',(-5.690977705434E0,-1.5E0,3.E0));
#24=LINE('',#23,#22);
#25=DIRECTION('',(-1.E0,0.E0,0.E0));
#26=VECTOR('',#25,4.090977705434E0);
#27=CARTESIAN_POINT('',(-1.6E0,1.5E0,3.E0));
#28=LINE('',#27,#26);
#29=DIRECTION('',(0.E0,1.E0,0.E0));
#30=VECTOR('',#29,3.E0);
#31=CARTESIAN_POINT('',(-1.6E0,-1.5E0,3.E0));
#32=LINE('',#31,#30);
#33=DIRECTION('',(1.E0,0.E0,0.E0));
#34=VECTOR('',#33,4.090977705434E0);
#35=CARTESIAN_POINT('',(-5.690977705434E0,-1.5E0,3.E0));
#36=LINE('',#35,#34);
#37=DIRECTION('',(0.E0,1.E0,0.E0));
#38=VECTOR('',#37,3.E0);
#39=CARTESIAN_POINT('',(5.679561501411E0,-1.5E0,3.E0));
#40=LINE('',#39,#38);
#41=DIRECTION('',(1.E0,0.E0,0.E0));
#42=VECTOR('',#41,4.079561501411E0);
#43=CARTESIAN_POINT('',(1.6E0,-1.5E0,3.E0));
#44=LINE('',#43,#42);
#45=DIRECTION('',(0.E0,1.E0,0.E0));
#46=VECTOR('',#45,3.E0);
#47=CARTESIAN_POINT('',(1.6E0,-1.5E0,3.E0));
#48=LINE('',#47,#46);
#49=DIRECTION('',(-1.E0,0.E0,0.E0));
#50=VECTOR('',#49,4.079561501411E0);
#51=CARTESIAN_POINT('',(5.679561501411E0,1.5E0,3.E0));
#52=LINE('',#51,#50);
#53=CARTESIAN_POINT('',(-4.E0,0.E0,9.6E0));
#54=DIRECTION('',(0.E0,0.E0,1.E0));
#55=DIRECTION('',(1.E0,0.E0,0.E0));
#56=AXIS2_PLACEMENT_3D('',#53,#54,#55);
#58=DIRECTION('',(-5.204227620967E-11,-1.585108928274E-10,1.E0));
#59=VECTOR('',#58,6.600000000343E0);
#60=CARTESIAN_POINT('',(-3.E0,0.E0,3.E0));
#61=LINE('',#60,#59);
#62=DIRECTION('',(7.071067811865E-1,-3.698777698192E-10,-7.071067811865E-1));
#63=VECTOR('',#62,5.656854248521E-1);
#64=CARTESIAN_POINT('',(-3.400000000275E0,-8.369375926378E-10,
1.000000000027E1));
#65=LINE('',#64,#63);
#66=CARTESIAN_POINT('',(4.E0,0.E0,1.E1));
#67=DIRECTION('',(0.E0,0.E0,1.E0));
#68=DIRECTION('',(1.E0,0.E0,0.E0));
#69=AXIS2_PLACEMENT_3D('',#66,#67,#68);
#71=CARTESIAN_POINT('',(4.E0,0.E0,1.E1));
#72=DIRECTION('',(0.E0,0.E0,1.E0));
#73=DIRECTION('',(-1.E0,0.E0,0.E0));
#74=AXIS2_PLACEMENT_3D('',#71,#72,#73);
#76=CARTESIAN_POINT('',(-4.E0,0.E0,1.E1));
#77=DIRECTION('',(0.E0,0.E0,1.E0));
#78=DIRECTION('',(-1.E0,0.E0,0.E0));
#79=AXIS2_PLACEMENT_3D('',#76,#77,#78);
#81=CARTESIAN_POINT('',(-4.E0,0.E0,1.E1));
#82=DIRECTION('',(0.E0,0.E0,1.E0));
#83=DIRECTION('',(1.E0,0.E0,0.E0));
#84=AXIS2_PLACEMENT_3D('',#81,#82,#83);
#86=DIRECTION('',(7.071067811865E-1,-3.698780445853E-10,-7.071067811865E-1));
#87=VECTOR('',#86,5.656854248521E-1);
#88=CARTESIAN_POINT('',(4.599999999725E0,-8.369382601323E-10,1.000000000027E1));
#89=LINE('',#88,#87);
#90=DIRECTION('',(-7.071067811865E-1,3.698779936480E-10,-7.071067811865E-1));
#91=VECTOR('',#90,5.656854248521E-1);
#92=CARTESIAN_POINT('',(3.400000000275E0,8.369372004292E-10,1.000000000027E1));
#93=LINE('',#92,#91);
#94=CARTESIAN_POINT('',(4.E0,0.E0,9.6E0));
#95=DIRECTION('',(0.E0,0.E0,1.E0));
#96=DIRECTION('',(-1.E0,0.E0,0.E0));
#97=AXIS2_PLACEMENT_3D('',#94,#95,#96);
#99=DIRECTION('',(5.204227620967E-11,1.585109329923E-10,1.E0));
#100=VECTOR('',#99,6.600000000343E0);
#101=CARTESIAN_POINT('',(3.E0,0.E0,3.E0));
#102=LINE('',#101,#100);
#103=CARTESIAN_POINT('',(4.E0,0.E0,9.6E0));
#104=DIRECTION('',(0.E0,0.E0,1.E0));
#105=DIRECTION('',(1.E0,0.E0,0.E0));
#106=AXIS2_PLACEMENT_3D('',#103,#104,#105);
#108=DIRECTION('',(-5.204241078216E-11,-1.585109432921E-10,1.E0));
#109=VECTOR('',#108,6.600000000343E0);
#110=CARTESIAN_POINT('',(5.E0,0.E0,3.E0));
#111=LINE('',#110,#109);
#112=DIRECTION('',(-7.071067811865E-1,3.698780132741E-10,-7.071067811865E-1));
#113=VECTOR('',#112,5.656854248521E-1);
#114=CARTESIAN_POINT('',(-4.599999999725E0,8.369377346969E-10,
1.000000000027E1));
#115=LINE('',#114,#113);
#116=CARTESIAN_POINT('',(-4.E0,0.E0,9.6E0));
#117=DIRECTION('',(0.E0,0.E0,1.E0));
#118=DIRECTION('',(-1.E0,0.E0,0.E0));
#119=AXIS2_PLACEMENT_3D('',#116,#117,#118);
#121=DIRECTION('',(5.204227620967E-11,1.585109414031E-10,1.E0));
#122=VECTOR('',#121,6.600000000343E0);
#123=CARTESIAN_POINT('',(-5.E0,0.E0,3.E0));
#124=LINE('',#123,#122);
#125=DIRECTION('',(0.E0,0.E0,1.E0));
#126=VECTOR('',#125,2.663312963688E0);
#127=CARTESIAN_POINT('',(-5.690977705434E0,-1.5E0,3.366870363115E-1));
#128=LINE('',#127,#126);
#129=DIRECTION('',(1.E0,0.E0,0.E0));
#130=VECTOR('',#129,4.090977705434E0);
#131=CARTESIAN_POINT('',(-5.690977705434E0,-1.5E0,3.366870363115E-1));
#132=LINE('',#131,#130);
#133=CARTESIAN_POINT('',(-1.6E0,-4.771774420260E-1,1.5E1));
#134=CARTESIAN_POINT('',(-1.6E0,-4.743167640501E-1,1.496935475083E1));
#135=CARTESIAN_POINT('',(-1.6E0,-4.675703419399E-1,1.490842077637E1));
#136=CARTESIAN_POINT('',(-1.6E0,-4.536549199390E-1,1.481866412309E1));
#137=CARTESIAN_POINT('',(-1.6E0,-4.346708876256E-1,1.472914278954E1));
#138=CARTESIAN_POINT('',(-1.6E0,-4.090237660622E-1,1.463956152057E1));
#139=CARTESIAN_POINT('',(-1.6E0,-3.738735258999E-1,1.454877456374E1));
#140=CARTESIAN_POINT('',(-1.6E0,-3.265264585970E-1,1.445998737587E1));
#141=CARTESIAN_POINT('',(-1.6E0,-2.647136095994E-1,1.437797035416E1));
#142=CARTESIAN_POINT('',(-1.6E0,-1.833234233842E-1,1.430692138034E1));
#143=CARTESIAN_POINT('',(-1.6E0,-8.473725145958E-2,1.426187401128E1));
#144=CARTESIAN_POINT('',(-1.6E0,8.979149224232E-3,1.425129415242E1));
#145=CARTESIAN_POINT('',(-1.6E0,1.010218500869E-1,1.426712586266E1));
#146=CARTESIAN_POINT('',(-1.6E0,1.970032906740E-1,1.431618496197E1));
#147=CARTESIAN_POINT('',(-1.6E0,2.785807171659E-1,1.439340115970E1));
#148=CARTESIAN_POINT('',(-1.6E0,3.374074222609E-1,1.447806286849E1));
#149=CARTESIAN_POINT('',(-1.6E0,3.812981535575E-1,1.456597560566E1));
#150=CARTESIAN_POINT('',(-1.6E0,4.134972047270E-1,1.465371671836E1));
#151=CARTESIAN_POINT('',(-1.6E0,4.371949726020E-1,1.473992247509E1));
#152=CARTESIAN_POINT('',(-1.6E0,4.548905417170E-1,1.482594008087E1));
#153=CARTESIAN_POINT('',(-1.6E0,4.680023011255E-1,1.491213990527E1));
#154=CARTESIAN_POINT('',(-1.6E0,4.744335474610E-1,1.497060580277E1));
#155=CARTESIAN_POINT('',(-1.6E0,4.771774420260E-1,1.5E1));
#157=CARTESIAN_POINT('',(-1.6E0,-2.171015321288E0,1.5E1));
#158=CARTESIAN_POINT('',(-1.6E0,-2.168154643312E0,1.496935475083E1));
#159=CARTESIAN_POINT('',(-1.6E0,-2.161408221202E0,1.490842077637E1));
#160=CARTESIAN_POINT('',(-1.6E0,-2.147492799201E0,1.481866412309E1));
#161=CARTESIAN_POINT('',(-1.6E0,-2.128508766888E0,1.472914278954E1));
#162=CARTESIAN_POINT('',(-1.6E0,-2.102861645324E0,1.463956152057E1));
#163=CARTESIAN_POINT('',(-1.6E0,-2.067711405162E0,1.454877456374E1));
#164=CARTESIAN_POINT('',(-1.6E0,-2.020364337859E0,1.445998737587E1));
#165=CARTESIAN_POINT('',(-1.6E0,-1.958551488861E0,1.437797035416E1));
#166=CARTESIAN_POINT('',(-1.6E0,-1.877161302646E0,1.430692138034E1));
#167=CARTESIAN_POINT('',(-1.6E0,-1.778575130722E0,1.426187401128E1));
#168=CARTESIAN_POINT('',(-1.6E0,-1.684858730038E0,1.425129415242E1));
#169=CARTESIAN_POINT('',(-1.6E0,-1.592816029175E0,1.426712586266E1));
#170=CARTESIAN_POINT('',(-1.6E0,-1.496834588588E0,1.431618496197E1));
#171=CARTESIAN_POINT('',(-1.6E0,-1.415257162096E0,1.439340115970E1));
#172=CARTESIAN_POINT('',(-1.6E0,-1.356430457001E0,1.447806286849E1));
#173=CARTESIAN_POINT('',(-1.6E0,-1.312539725705E0,1.456597560566E1));
#174=CARTESIAN_POINT('',(-1.6E0,-1.280340674535E0,1.465371671836E1));
#175=CARTESIAN_POINT('',(-1.6E0,-1.256642906660E0,1.473992247509E1));
#176=CARTESIAN_POINT('',(-1.6E0,-1.238947337545E0,1.482594008087E1));
#177=CARTESIAN_POINT('',(-1.6E0,-1.225835578137E0,1.491213990527E1));
#178=CARTESIAN_POINT('',(-1.6E0,-1.219404331801E0,1.497060580277E1));
#179=CARTESIAN_POINT('',(-1.6E0,-1.216660437236E0,1.5E1));
#181=DIRECTION('',(0.E0,0.E0,-1.E0));
#182=VECTOR('',#181,1.331185983122E1);
#183=CARTESIAN_POINT('',(-1.6E0,-3.E0,1.5E1));
#184=LINE('',#183,#182);
#185=CARTESIAN_POINT('',(-1.6E0,0.E0,3.509725509944E0));
#186=DIRECTION('',(1.E0,0.E0,0.E0));
#187=DIRECTION('',(0.E0,-8.547676994967E-1,-5.190107705020E-1));
#188=AXIS2_PLACEMENT_3D('',#185,#186,#187);
#190=DIRECTION('',(0.E0,0.E0,1.E0));
#191=VECTOR('',#190,2.663312963688E0);
#192=CARTESIAN_POINT('',(-1.6E0,-1.5E0,3.366870363115E-1));
#193=LINE('',#192,#191);
#194=CARTESIAN_POINT('',(-1.6E0,0.E0,3.509725509944E0));
#195=DIRECTION('',(1.E0,0.E0,0.E0));
#196=DIRECTION('',(0.E0,4.273838497484E-1,-9.040702655072E-1));
#197=AXIS2_PLACEMENT_3D('',#194,#195,#196);
#199=DIRECTION('',(0.E0,0.E0,1.E0));
#200=VECTOR('',#199,1.331185983122E1);
#201=CARTESIAN_POINT('',(-1.6E0,3.E0,1.688140168778E0));
#202=LINE('',#201,#200);
#203=CARTESIAN_POINT('',(-1.6E0,1.216660437236E0,1.5E1));
#204=CARTESIAN_POINT('',(-1.6E0,1.219521115212E0,1.496935475083E1));
#205=CARTESIAN_POINT('',(-1.6E0,1.226267537322E0,1.490842077637E1));
#206=CARTESIAN_POINT('',(-1.6E0,1.240182959323E0,1.481866412309E1));
#207=CARTESIAN_POINT('',(-1.6E0,1.259166991636E0,1.472914278954E1));
#208=CARTESIAN_POINT('',(-1.6E0,1.284814113200E0,1.463956152057E1));
#209=CARTESIAN_POINT('',(-1.6E0,1.319964353362E0,1.454877456374E1));
#210=CARTESIAN_POINT('',(-1.6E0,1.367311420665E0,1.445998737587E1));
#211=CARTESIAN_POINT('',(-1.6E0,1.429124269663E0,1.437797035416E1));
#212=CARTESIAN_POINT('',(-1.6E0,1.510514455878E0,1.430692138034E1));
#213=CARTESIAN_POINT('',(-1.6E0,1.609100627802E0,1.426187401128E1));
#214=CARTESIAN_POINT('',(-1.6E0,1.702817028486E0,1.425129415242E1));
#215=CARTESIAN_POINT('',(-1.6E0,1.794859729349E0,1.426712586266E1));
#216=CARTESIAN_POINT('',(-1.6E0,1.890841169936E0,1.431618496197E1));
#217=CARTESIAN_POINT('',(-1.6E0,1.972418596428E0,1.439340115970E1));
#218=CARTESIAN_POINT('',(-1.6E0,2.031245301523E0,1.447806286849E1));
#219=CARTESIAN_POINT('',(-1.6E0,2.075136032819E0,1.456597560566E1));
#220=CARTESIAN_POINT('',(-1.6E0,2.107335083989E0,1.465371671836E1));
#221=CARTESIAN_POINT('',(-1.6E0,2.131032851864E0,1.473992247509E1));
#222=CARTESIAN_POINT('',(-1.6E0,2.148728420979E0,1.482594008087E1));
#223=CARTESIAN_POINT('',(-1.6E0,2.161840180387E0,1.491213990527E1));
#224=CARTESIAN_POINT('',(-1.6E0,2.168271426723E0,1.497060580277E1));
#225=CARTESIAN_POINT('',(-1.6E0,2.171015321288E0,1.5E1));
#227=CARTESIAN_POINT('',(0.E0,4.992721993475E-1,1.55E1));
#228=DIRECTION('',(0.E0,-1.E0,0.E0));
#229=DIRECTION('',(-9.428090415821E-1,0.E0,-3.333333333333E-1));
#230=AXIS2_PLACEMENT_3D('',#227,#228,#229);
#232=CARTESIAN_POINT('',(1.414213562373E0,4.992721993475E-1,1.5E1));
#233=CARTESIAN_POINT('',(1.435515679817E0,5.003570182705E-1,1.5E1));
#234=CARTESIAN_POINT('',(1.477689413155E0,5.001021164229E-1,1.5E1));
#235=CARTESIAN_POINT('',(1.540140742073E0,4.926081794932E-1,1.5E1));
#236=CARTESIAN_POINT('',(1.580244180859E0,4.830787847257E-1,1.5E1));
#237=CARTESIAN_POINT('',(1.6E0,4.771774420260E-1,1.5E1));
#239=CARTESIAN_POINT('',(1.6E0,-4.771774420260E-1,1.5E1));
#240=CARTESIAN_POINT('',(1.580251924885E0,-4.830764714755E-1,1.5E1));
#241=CARTESIAN_POINT('',(1.540159304134E0,-4.926047582770E-1,1.5E1));
#242=CARTESIAN_POINT('',(1.477701768359E0,-5.001017354505E-1,1.5E1));
#243=CARTESIAN_POINT('',(1.435520937239E0,-5.003572860068E-1,1.5E1));
#244=CARTESIAN_POINT('',(1.414213562373E0,-4.992721993475E-1,1.5E1));
#246=CARTESIAN_POINT('',(0.E0,-4.992721993475E-1,1.55E1));
#247=DIRECTION('',(0.E0,1.E0,0.E0));
#248=DIRECTION('',(9.428090415821E-1,0.E0,-3.333333333333E-1));
#249=AXIS2_PLACEMENT_3D('',#246,#247,#248);
#251=CARTESIAN_POINT('',(-1.414213562373E0,-4.992721993475E-1,1.5E1));
#252=CARTESIAN_POINT('',(-1.435520937144E0,-5.003572860020E-1,1.5E1));
#253=CARTESIAN_POINT('',(-1.477701768147E0,-5.001017355005E-1,1.5E1));
#254=CARTESIAN_POINT('',(-1.540159305292E0,-4.926047580923E-1,1.5E1));
#255=CARTESIAN_POINT('',(-1.580251925369E0,-4.830764713310E-1,1.5E1));
#256=CARTESIAN_POINT('',(-1.6E0,-4.771774420260E-1,1.5E1));
#258=CARTESIAN_POINT('',(-1.6E0,4.771774420260E-1,1.5E1));
#259=CARTESIAN_POINT('',(-1.580244180949E0,4.830787846989E-1,1.5E1));
#260=CARTESIAN_POINT('',(-1.540140742288E0,4.926081794570E-1,1.5E1));
#261=CARTESIAN_POINT('',(-1.477689413182E0,5.001021164272E-1,1.5E1));
#262=CARTESIAN_POINT('',(-1.435515679828E0,5.003570182711E-1,1.5E1));
#263=CARTESIAN_POINT('',(-1.414213562373E0,4.992721993475E-1,1.5E1));
#265=DIRECTION('',(0.E0,-1.E0,0.E0));
#266=VECTOR('',#265,7.394829952099E-1);
#267=CARTESIAN_POINT('',(-1.6E0,1.216660437236E0,1.5E1));
#268=LINE('',#267,#266);
#269=DIRECTION('',(0.E0,1.E0,0.E0));
#270=VECTOR('',#269,6.952934805670E-1);
#271=CARTESIAN_POINT('',(-1.414213562373E0,4.992721993475E-1,1.5E1));
#272=LINE('',#271,#270);
#273=DIRECTION('',(0.E0,1.E0,0.E0));
#274=VECTOR('',#273,6.952934805670E-1);
#275=CARTESIAN_POINT('',(-1.414213562373E0,-1.194565679914E0,1.5E1));
#276=LINE('',#275,#274);
#277=DIRECTION('',(0.E0,-1.E0,0.E0));
#278=VECTOR('',#277,7.394829952099E-1);
#279=CARTESIAN_POINT('',(-1.6E0,-4.771774420260E-1,1.5E1));
#280=LINE('',#279,#278);
#281=DIRECTION('',(0.E0,1.E0,0.E0));
#282=VECTOR('',#281,8.068899213904E-1);
#283=CARTESIAN_POINT('',(-1.414213562373E0,-3.E0,1.5E1));
#284=LINE('',#283,#282);
#285=DIRECTION('',(1.E0,0.E0,0.E0));
#286=VECTOR('',#285,1.857864376269E-1);
#287=CARTESIAN_POINT('',(-1.6E0,-3.E0,1.5E1));
#288=LINE('',#287,#286);
#289=DIRECTION('',(0.E0,-1.E0,0.E0));
#290=VECTOR('',#289,8.289846787119E-1);
#291=CARTESIAN_POINT('',(-1.6E0,-2.171015321288E0,1.5E1));
#292=LINE('',#291,#290);
#293=DIRECTION('',(0.E0,-1.E0,0.E0));
#294=VECTOR('',#293,8.289846787119E-1);
#295=CARTESIAN_POINT('',(-1.6E0,3.E0,1.5E1));
#296=LINE('',#295,#294);
#297=DIRECTION('',(-1.E0,0.E0,0.E0));
#298=VECTOR('',#297,1.857864376269E-1);
#299=CARTESIAN_POINT('',(-1.414213562373E0,3.E0,1.5E1));
#300=LINE('',#299,#298);
#301=DIRECTION('',(0.E0,1.E0,0.E0));
#302=VECTOR('',#301,8.068899213904E-1);
#303=CARTESIAN_POINT('',(-1.414213562373E0,2.193110078610E0,1.5E1));
#304=LINE('',#303,#302);
#305=DIRECTION('',(0.E0,1.E0,0.E0));
#306=VECTOR('',#305,7.394829952099E-1);
#307=CARTESIAN_POINT('',(1.6E0,-1.216660437236E0,1.5E1));
#308=LINE('',#307,#306);
#309=DIRECTION('',(0.E0,1.E0,0.E0));
#310=VECTOR('',#309,6.952934805670E-1);
#311=CARTESIAN_POINT('',(1.414213562373E0,-1.194565679914E0,1.5E1));
#312=LINE('',#311,#310);
#313=DIRECTION('',(0.E0,1.E0,0.E0));
#314=VECTOR('',#313,6.952934805670E-1);
#315=CARTESIAN_POINT('',(1.414213562373E0,4.992721993475E-1,1.5E1));
#316=LINE('',#315,#314);
#317=DIRECTION('',(0.E0,1.E0,0.E0));
#318=VECTOR('',#317,7.394829952099E-1);
#319=CARTESIAN_POINT('',(1.6E0,4.771774420260E-1,1.5E1));
#320=LINE('',#319,#318);
#321=DIRECTION('',(0.E0,1.E0,0.E0));
#322=VECTOR('',#321,8.289846787119E-1);
#323=CARTESIAN_POINT('',(1.6E0,-3.E0,1.5E1));
#324=LINE('',#323,#322);
#325=DIRECTION('',(1.E0,0.E0,0.E0));
#326=VECTOR('',#325,1.857864376269E-1);
#327=CARTESIAN_POINT('',(1.414213562373E0,-3.E0,1.5E1));
#328=LINE('',#327,#326);
#329=DIRECTION('',(0.E0,1.E0,0.E0));
#330=VECTOR('',#329,8.068899213904E-1);
#331=CARTESIAN_POINT('',(1.414213562373E0,-3.E0,1.5E1));
#332=LINE('',#331,#330);
#333=DIRECTION('',(0.E0,1.E0,0.E0));
#334=VECTOR('',#333,8.068899213904E-1);
#335=CARTESIAN_POINT('',(1.414213562373E0,2.193110078610E0,1.5E1));
#336=LINE('',#335,#334);
#337=DIRECTION('',(-1.E0,0.E0,0.E0));
#338=VECTOR('',#337,1.857864376269E-1);
#339=CARTESIAN_POINT('',(1.6E0,3.E0,1.5E1));
#340=LINE('',#339,#338);
#341=DIRECTION('',(0.E0,1.E0,0.E0));
#342=VECTOR('',#341,8.289846787119E-1);
#343=CARTESIAN_POINT('',(1.6E0,2.171015321288E0,1.5E1));
#344=LINE('',#343,#342);
#345=CARTESIAN_POINT('',(0.E0,2.193110078610E0,1.55E1));
#346=DIRECTION('',(0.E0,-1.E0,0.E0));
#347=DIRECTION('',(-9.428090415821E-1,0.E0,-3.333333333333E-1));
#348=AXIS2_PLACEMENT_3D('',#345,#346,#347);
#350=CARTESIAN_POINT('',(1.414213562373E0,2.193110078610E0,1.5E1));
#351=CARTESIAN_POINT('',(1.435515679817E0,2.194194897533E0,1.5E1));
#352=CARTESIAN_POINT('',(1.477689413155E0,2.193939995685E0,1.5E1));
#353=CARTESIAN_POINT('',(1.540140742073E0,2.186446058755E0,1.5E1));
#354=CARTESIAN_POINT('',(1.580244180859E0,2.176916663988E0,1.5E1));
#355=CARTESIAN_POINT('',(1.6E0,2.171015321288E0,1.5E1));
#357=CARTESIAN_POINT('',(1.6E0,1.216660437236E0,1.5E1));
#358=CARTESIAN_POINT('',(1.580251924885E0,1.210761407787E0,1.5E1));
#359=CARTESIAN_POINT('',(1.540159304134E0,1.201233120985E0,1.5E1));
#360=CARTESIAN_POINT('',(1.477701768359E0,1.193736143811E0,1.5E1));
#361=CARTESIAN_POINT('',(1.435520937239E0,1.193480593255E0,1.5E1));
#362=CARTESIAN_POINT('',(1.414213562373E0,1.194565679914E0,1.5E1));
#364=CARTESIAN_POINT('',(0.E0,1.194565679914E0,1.55E1));
#365=DIRECTION('',(0.E0,1.E0,0.E0));
#366=DIRECTION('',(9.428090415821E-1,0.E0,-3.333333333333E-1));
#367=AXIS2_PLACEMENT_3D('',#364,#365,#366);
#369=CARTESIAN_POINT('',(-1.414213562373E0,1.194565679914E0,1.5E1));
#370=CARTESIAN_POINT('',(-1.435520937144E0,1.193480593260E0,1.5E1));
#371=CARTESIAN_POINT('',(-1.477701768147E0,1.193736143762E0,1.5E1));
#372=CARTESIAN_POINT('',(-1.540159305292E0,1.201233121170E0,1.5E1));
#373=CARTESIAN_POINT('',(-1.580251925369E0,1.210761407931E0,1.5E1));
#374=CARTESIAN_POINT('',(-1.6E0,1.216660437236E0,1.5E1));
#376=CARTESIAN_POINT('',(-1.6E0,2.171015321288E0,1.5E1));
#377=CARTESIAN_POINT('',(-1.580244180949E0,2.176916663961E0,1.5E1));
#378=CARTESIAN_POINT('',(-1.540140742288E0,2.186446058719E0,1.5E1));
#379=CARTESIAN_POINT('',(-1.477689413182E0,2.193939995689E0,1.5E1));
#380=CARTESIAN_POINT('',(-1.435515679828E0,2.194194897533E0,1.5E1));
#381=CARTESIAN_POINT('',(-1.414213562373E0,2.193110078610E0,1.5E1));
#383=CARTESIAN_POINT('',(1.6E0,4.771774420260E-1,1.5E1));
#384=CARTESIAN_POINT('',(1.6E0,4.744281886478E-1,1.497054839604E1));
#385=CARTESIAN_POINT('',(1.6E0,4.679834715773E-1,1.491198706424E1));
#386=CARTESIAN_POINT('',(1.6E0,4.548603885589E-1,1.482576628169E1));
#387=CARTESIAN_POINT('',(1.6E0,4.371349431786E-1,1.473965558124E1));
#388=CARTESIAN_POINT('',(1.6E0,4.133408177109E-1,1.465318445193E1));
#389=CARTESIAN_POINT('',(1.6E0,3.809165381817E-1,1.456505392771E1));
#390=CARTESIAN_POINT('',(1.6E0,3.368268458016E-1,1.447706110684E1));
#391=CARTESIAN_POINT('',(1.6E0,2.780220912328E-1,1.439286978561E1));
#392=CARTESIAN_POINT('',(1.6E0,1.974092930332E-1,1.431652741672E1));
#393=CARTESIAN_POINT('',(1.6E0,1.008286543331E-1,1.426690888630E1));
#394=CARTESIAN_POINT('',(1.6E0,7.484703762703E-3,1.425118549394E1));
#395=CARTESIAN_POINT('',(1.6E0,-8.583815787868E-2,1.426233383893E1));
#396=CARTESIAN_POINT('',(1.6E0,-1.830783446760E-1,1.430680873719E1));
#397=CARTESIAN_POINT('',(1.6E0,-2.650560196676E-1,1.437826162504E1));
#398=CARTESIAN_POINT('',(1.6E0,-3.267271739507E-1,1.446035338017E1));
#399=CARTESIAN_POINT('',(1.6E0,-3.738653293425E-1,1.454879790010E1));
#400=CARTESIAN_POINT('',(1.6E0,-4.088707814109E-1,1.463913471088E1));
#401=CARTESIAN_POINT('',(1.6E0,-4.345366480737E-1,1.472858931399E1));
#402=CARTESIAN_POINT('',(1.6E0,-4.535932034672E-1,1.481829262058E1));
#403=CARTESIAN_POINT('',(1.6E0,-4.675650147441E-1,1.490835521072E1));
#404=CARTESIAN_POINT('',(1.6E0,-4.743158599084E-1,1.496934506513E1));
#405=CARTESIAN_POINT('',(1.6E0,-4.771774420260E-1,1.5E1));
#407=CARTESIAN_POINT('',(1.6E0,2.171015321288E0,1.5E1));
#408=CARTESIAN_POINT('',(1.6E0,2.168266067910E0,1.497054839604E1));
#409=CARTESIAN_POINT('',(1.6E0,2.161821350839E0,1.491198706424E1));
#410=CARTESIAN_POINT('',(1.6E0,2.148698267821E0,1.482576628169E1));
#411=CARTESIAN_POINT('',(1.6E0,2.130972822441E0,1.473965558124E1));
#412=CARTESIAN_POINT('',(1.6E0,2.107178696973E0,1.465318445193E1));
#413=CARTESIAN_POINT('',(1.6E0,2.074754417444E0,1.456505392771E1));
#414=CARTESIAN_POINT('',(1.6E0,2.030664725064E0,1.447706110684E1));
#415=CARTESIAN_POINT('',(1.6E0,1.971859970495E0,1.439286978561E1));
#416=CARTESIAN_POINT('',(1.6E0,1.891247172295E0,1.431652741672E1));
#417=CARTESIAN_POINT('',(1.6E0,1.794666533595E0,1.426690888630E1));
#418=CARTESIAN_POINT('',(1.6E0,1.701322583025E0,1.425118549394E1));
#419=CARTESIAN_POINT('',(1.6E0,1.607999721383E0,1.426233383893E1));
#420=CARTESIAN_POINT('',(1.6E0,1.510759534586E0,1.430680873719E1));
#421=CARTESIAN_POINT('',(1.6E0,1.428781859594E0,1.437826162504E1));
#422=CARTESIAN_POINT('',(1.6E0,1.367110705311E0,1.446035338017E1));
#423=CARTESIAN_POINT('',(1.6E0,1.319972549919E0,1.454879790010E1));
#424=CARTESIAN_POINT('',(1.6E0,1.284967097851E0,1.463913471088E1));
#425=CARTESIAN_POINT('',(1.6E0,1.259301231188E0,1.472858931399E1));
#426=CARTESIAN_POINT('',(1.6E0,1.240244675795E0,1.481829262058E1));
#427=CARTESIAN_POINT('',(1.6E0,1.226272864518E0,1.490835521072E1));
#428=CARTESIAN_POINT('',(1.6E0,1.219522019354E0,1.496934506513E1));
#429=CARTESIAN_POINT('',(1.6E0,1.216660437236E0,1.5E1));
#431=CARTESIAN_POINT('',(1.6E0,0.E0,3.509725509944E0));
#432=DIRECTION('',(1.E0,0.E0,0.E0));
#433=DIRECTION('',(0.E0,4.273838497484E-1,-9.040702655072E-1));
#434=AXIS2_PLACEMENT_3D('',#431,#432,#433);
#436=DIRECTION('',(0.E0,0.E0,1.E0));
#437=VECTOR('',#436,2.663312963688E0);
#438=CARTESIAN_POINT('',(1.6E0,1.5E0,3.366870363115E-1));
#439=LINE('',#438,#437);
#440=CARTESIAN_POINT('',(1.6E0,0.E0,3.509725509944E0));
#441=DIRECTION('',(1.E0,0.E0,0.E0));
#442=DIRECTION('',(0.E0,-8.547676994967E-1,-5.190107705020E-1));
#443=AXIS2_PLACEMENT_3D('',#440,#441,#442);
#445=DIRECTION('',(0.E0,0.E0,1.E0));
#446=VECTOR('',#445,1.331185983122E1);
#447=CARTESIAN_POINT('',(1.6E0,-3.E0,1.688140168778E0));
#448=LINE('',#447,#446);
#449=CARTESIAN_POINT('',(1.6E0,-1.216660437236E0,1.5E1));
#450=CARTESIAN_POINT('',(1.6E0,-1.219409690614E0,1.497054839604E1));
#451=CARTESIAN_POINT('',(1.6E0,-1.225854407685E0,1.491198706424E1));
#452=CARTESIAN_POINT('',(1.6E0,-1.238977490703E0,1.482576628169E1));
#453=CARTESIAN_POINT('',(1.6E0,-1.256702936083E0,1.473965558124E1));
#454=CARTESIAN_POINT('',(1.6E0,-1.280497061551E0,1.465318445193E1));
#455=CARTESIAN_POINT('',(1.6E0,-1.312921341080E0,1.456505392771E1));
#456=CARTESIAN_POINT('',(1.6E0,-1.357011033460E0,1.447706110684E1));
#457=CARTESIAN_POINT('',(1.6E0,-1.415815788029E0,1.439286978561E1));
#458=CARTESIAN_POINT('',(1.6E0,-1.496428586229E0,1.431652741672E1));
#459=CARTESIAN_POINT('',(1.6E0,-1.593009224929E0,1.426690888630E1));
#460=CARTESIAN_POINT('',(1.6E0,-1.686353175499E0,1.425118549394E1));
#461=CARTESIAN_POINT('',(1.6E0,-1.779676037141E0,1.426233383893E1));
#462=CARTESIAN_POINT('',(1.6E0,-1.876916223938E0,1.430680873719E1));
#463=CARTESIAN_POINT('',(1.6E0,-1.958893898930E0,1.437826162504E1));
#464=CARTESIAN_POINT('',(1.6E0,-2.020565053213E0,1.446035338017E1));
#465=CARTESIAN_POINT('',(1.6E0,-2.067703208605E0,1.454879790010E1));
#466=CARTESIAN_POINT('',(1.6E0,-2.102708660673E0,1.463913471088E1));
#467=CARTESIAN_POINT('',(1.6E0,-2.128374527336E0,1.472858931399E1));
#468=CARTESIAN_POINT('',(1.6E0,-2.147431082729E0,1.481829262058E1));
#469=CARTESIAN_POINT('',(1.6E0,-2.161402894006E0,1.490835521072E1));
#470=CARTESIAN_POINT('',(1.6E0,-2.168153739170E0,1.496934506513E1));
#471=CARTESIAN_POINT('',(1.6E0,-2.171015321288E0,1.5E1));
#473=DIRECTION('',(1.E0,0.E0,0.E0));
#474=VECTOR('',#473,3.2E0);
#475=CARTESIAN_POINT('',(-1.6E0,3.E0,1.688140168778E0));
#476=LINE('',#475,#474);
#477=DIRECTION('',(0.E0,0.E0,1.E0));
#478=VECTOR('',#477,1.331185983122E1);
#479=CARTESIAN_POINT('',(1.6E0,3.E0,1.688140168778E0));
#480=LINE('',#479,#478);
#481=CARTESIAN_POINT('',(0.E0,3.E0,1.55E1));
#482=DIRECTION('',(0.E0,1.E0,0.E0));
#483=DIRECTION('',(9.428090415821E-1,0.E0,-3.333333333333E-1));
#484=AXIS2_PLACEMENT_3D('',#481,#482,#483);
#486=CARTESIAN_POINT('',(-5.690977705434E0,0.E0,3.509725509944E0));
#487=DIRECTION('',(1.E0,0.E0,0.E0));
#488=DIRECTION('',(0.E0,-4.273838497484E-1,-9.040702655072E-1));
#489=AXIS2_PLACEMENT_3D('',#486,#487,#488);
#491=CARTESIAN_POINT('',(5.679561501411E0,0.E0,3.509725509944E0));
#492=DIRECTION('',(1.E0,0.E0,0.E0));
#493=DIRECTION('',(0.E0,-4.273838497484E-1,-9.040702655072E-1));
#494=AXIS2_PLACEMENT_3D('',#491,#492,#493);
#496=DIRECTION('',(1.E0,0.E0,0.E0));
#497=VECTOR('',#496,3.2E0);
#498=CARTESIAN_POINT('',(-1.6E0,-3.E0,1.688140168778E0));
#499=LINE('',#498,#497);
#500=CARTESIAN_POINT('',(0.E0,-3.E0,1.55E1));
#501=DIRECTION('',(0.E0,1.E0,0.E0));
#502=DIRECTION('',(9.428090415821E-1,0.E0,-3.333333333333E-1));
#503=AXIS2_PLACEMENT_3D('',#500,#501,#502);
#505=DIRECTION('',(0.E0,0.E0,1.E0));
#506=VECTOR('',#505,2.663312963688E0);
#507=CARTESIAN_POINT('',(5.679561501411E0,-1.5E0,3.366870363115E-1));
#508=LINE('',#507,#506);
#509=DIRECTION('',(1.E0,0.E0,0.E0));
#510=VECTOR('',#509,4.079561501411E0);
#511=CARTESIAN_POINT('',(1.6E0,-1.5E0,3.366870363115E-1));
#512=LINE('',#511,#510);
#513=DIRECTION('',(0.E0,0.E0,1.E0));
#514=VECTOR('',#513,2.663312963688E0);
#515=CARTESIAN_POINT('',(1.6E0,-1.5E0,3.366870363115E-1));
#516=LINE('',#515,#514);
#517=DIRECTION('',(0.E0,0.E0,1.E0));
#518=VECTOR('',#517,2.663312963688E0);
#519=CARTESIAN_POINT('',(5.679561501411E0,1.5E0,3.366870363115E-1));
#520=LINE('',#519,#518);
#521=DIRECTION('',(1.E0,0.E0,0.E0));
#522=VECTOR('',#521,4.079561501411E0);
#523=CARTESIAN_POINT('',(1.6E0,1.5E0,3.366870363115E-1));
#524=LINE('',#523,#522);
#525=DIRECTION('',(0.E0,0.E0,1.E0));
#526=VECTOR('',#525,2.663312963688E0);
#527=CARTESIAN_POINT('',(-5.690977705434E0,1.5E0,3.366870363115E-1));
#528=LINE('',#527,#526);
#529=DIRECTION('',(1.E0,0.E0,0.E0));
#530=VECTOR('',#529,4.090977705434E0);
#531=CARTESIAN_POINT('',(-5.690977705434E0,1.5E0,3.366870363115E-1));
#532=LINE('',#531,#530);
#533=DIRECTION('',(0.E0,0.E0,1.E0));
#534=VECTOR('',#533,2.663312963688E0);
#535=CARTESIAN_POINT('',(-1.6E0,1.5E0,3.366870363115E-1));
#536=LINE('',#535,#534);
#537=CARTESIAN_POINT('',(0.E0,-1.194565679914E0,1.55E1));
#538=DIRECTION('',(0.E0,-1.E0,0.E0));
#539=DIRECTION('',(-9.428090415821E-1,0.E0,-3.333333333333E-1));
#540=AXIS2_PLACEMENT_3D('',#537,#538,#539);
#542=CARTESIAN_POINT('',(1.414213562373E0,-1.194565679914E0,1.5E1));
#543=CARTESIAN_POINT('',(1.435515679817E0,-1.193480860992E0,1.5E1));
#544=CARTESIAN_POINT('',(1.477689413155E0,-1.193735762839E0,1.5E1));
#545=CARTESIAN_POINT('',(1.540140742073E0,-1.201229699769E0,1.5E1));
#546=CARTESIAN_POINT('',(1.580244180859E0,-1.210759094536E0,1.5E1));
#547=CARTESIAN_POINT('',(1.6E0,-1.216660437236E0,1.5E1));
#549=CARTESIAN_POINT('',(1.6E0,-2.171015321288E0,1.5E1));
#550=CARTESIAN_POINT('',(1.580251924885E0,-2.176914350738E0,1.5E1));
#551=CARTESIAN_POINT('',(1.540159304134E0,-2.186442637539E0,1.5E1));
#552=CARTESIAN_POINT('',(1.477701768359E0,-2.193939614713E0,1.5E1));
#553=CARTESIAN_POINT('',(1.435520937239E0,-2.194195165269E0,1.5E1));
#554=CARTESIAN_POINT('',(1.414213562373E0,-2.193110078610E0,1.5E1));
#556=CARTESIAN_POINT('',(0.E0,-2.193110078610E0,1.55E1));
#557=DIRECTION('',(0.E0,1.E0,0.E0));
#558=DIRECTION('',(9.428090415821E-1,0.E0,-3.333333333333E-1));
#559=AXIS2_PLACEMENT_3D('',#556,#557,#558);
#561=CARTESIAN_POINT('',(-1.414213562373E0,-2.193110078610E0,1.5E1));
#562=CARTESIAN_POINT('',(-1.435520937144E0,-2.194195165264E0,1.5E1));
#563=CARTESIAN_POINT('',(-1.477701768147E0,-2.193939614763E0,1.5E1));
#564=CARTESIAN_POINT('',(-1.540159305292E0,-2.186442637354E0,1.5E1));
#565=CARTESIAN_POINT('',(-1.580251925369E0,-2.176914350593E0,1.5E1));
#566=CARTESIAN_POINT('',(-1.6E0,-2.171015321288E0,1.5E1));
#568=CARTESIAN_POINT('',(-1.6E0,-1.216660437236E0,1.5E1));
#569=CARTESIAN_POINT('',(-1.580244180949E0,-1.210759094563E0,1.5E1));
#570=CARTESIAN_POINT('',(-1.540140742288E0,-1.201229699805E0,1.5E1));
#571=CARTESIAN_POINT('',(-1.477689413182E0,-1.193735762835E0,1.5E1));
#572=CARTESIAN_POINT('',(-1.435515679828E0,-1.193480860991E0,1.5E1));
#573=CARTESIAN_POINT('',(-1.414213562373E0,-1.194565679914E0,1.5E1));
#575=CARTESIAN_POINT('',(-3.E0,0.E0,3.E0));
#576=CARTESIAN_POINT('',(-5.E0,0.E0,3.E0));
#577=VERTEX_POINT('',#575);
#578=VERTEX_POINT('',#576);
#579=CARTESIAN_POINT('',(5.E0,0.E0,3.E0));
#580=CARTESIAN_POINT('',(3.E0,0.E0,3.E0));
#581=VERTEX_POINT('',#579);
#582=VERTEX_POINT('',#580);
#583=CARTESIAN_POINT('',(1.6E0,-1.5E0,3.E0));
#584=CARTESIAN_POINT('',(1.6E0,1.5E0,3.E0));
#585=VERTEX_POINT('',#583);
#586=VERTEX_POINT('',#584);
#587=CARTESIAN_POINT('',(-1.6E0,-1.5E0,3.E0));
#588=CARTESIAN_POINT('',(-1.6E0,1.5E0,3.E0));
#589=VERTEX_POINT('',#587);
#590=VERTEX_POINT('',#588);
#591=CARTESIAN_POINT('',(1.414213562373E0,-3.E0,1.5E1));
#592=CARTESIAN_POINT('',(-1.414213562373E0,-3.E0,1.5E1));
#593=VERTEX_POINT('',#591);
#594=VERTEX_POINT('',#592);
#595=CARTESIAN_POINT('',(1.414213562373E0,3.E0,1.5E1));
#596=CARTESIAN_POINT('',(-1.414213562373E0,3.E0,1.5E1));
#597=VERTEX_POINT('',#595);
#598=VERTEX_POINT('',#596);
#599=CARTESIAN_POINT('',(-1.6E0,-3.E0,1.5E1));
#600=VERTEX_POINT('',#599);
#601=CARTESIAN_POINT('',(1.6E0,-3.E0,1.5E1));
#602=VERTEX_POINT('',#601);
#603=CARTESIAN_POINT('',(1.6E0,3.E0,1.5E1));
#604=VERTEX_POINT('',#603);
#605=CARTESIAN_POINT('',(-1.6E0,3.E0,1.5E1));
#606=VERTEX_POINT('',#605);
#607=CARTESIAN_POINT('',(-1.6E0,-3.E0,1.688140168778E0));
#608=CARTESIAN_POINT('',(-1.6E0,-1.5E0,3.366870363115E-1));
#609=VERTEX_POINT('',#607);
#610=VERTEX_POINT('',#608);
#611=CARTESIAN_POINT('',(-1.6E0,1.5E0,3.366870363115E-1));
#612=CARTESIAN_POINT('',(-1.6E0,3.E0,1.688140168778E0));
#613=VERTEX_POINT('',#611);
#614=VERTEX_POINT('',#612);
#615=CARTESIAN_POINT('',(1.6E0,-3.E0,1.688140168778E0));
#616=VERTEX_POINT('',#615);
#617=CARTESIAN_POINT('',(1.6E0,-1.5E0,3.366870363115E-1));
#618=VERTEX_POINT('',#617);
#619=CARTESIAN_POINT('',(1.6E0,1.5E0,3.366870363115E-1));
#620=CARTESIAN_POINT('',(1.6E0,3.E0,1.688140168778E0));
#621=VERTEX_POINT('',#619);
#622=VERTEX_POINT('',#620);
#623=CARTESIAN_POINT('',(4.6E0,0.E0,1.E1));
#624=CARTESIAN_POINT('',(3.4E0,0.E0,1.E1));
#625=VERTEX_POINT('',#623);
#626=VERTEX_POINT('',#624);
#627=CARTESIAN_POINT('',(5.E0,0.E0,9.6E0));
#628=CARTESIAN_POINT('',(3.E0,0.E0,9.6E0));
#629=VERTEX_POINT('',#627);
#630=VERTEX_POINT('',#628);
#631=CARTESIAN_POINT('',(-4.6E0,0.E0,1.E1));
#632=CARTESIAN_POINT('',(-3.4E0,0.E0,1.E1));
#633=VERTEX_POINT('',#631);
#634=VERTEX_POINT('',#632);
#635=CARTESIAN_POINT('',(-5.E0,0.E0,9.6E0));
#636=CARTESIAN_POINT('',(-3.E0,0.E0,9.6E0));
#637=VERTEX_POINT('',#635);
#638=VERTEX_POINT('',#636);
#639=VERTEX_POINT('',#133);
#640=VERTEX_POINT('',#155);
#641=VERTEX_POINT('',#157);
#642=VERTEX_POINT('',#179);
#643=VERTEX_POINT('',#203);
#644=VERTEX_POINT('',#225);
#645=VERTEX_POINT('',#383);
#646=VERTEX_POINT('',#405);
#647=VERTEX_POINT('',#449);
#648=VERTEX_POINT('',#471);
#649=VERTEX_POINT('',#407);
#650=VERTEX_POINT('',#429);
#651=CARTESIAN_POINT('',(1.414213562373E0,-2.193110078610E0,1.5E1));
#652=VERTEX_POINT('',#651);
#653=CARTESIAN_POINT('',(1.414213562373E0,-1.194565679914E0,1.5E1));
#654=CARTESIAN_POINT('',(1.414213562373E0,-4.992721993475E-1,1.5E1));
#655=VERTEX_POINT('',#653);
#656=VERTEX_POINT('',#654);
#657=CARTESIAN_POINT('',(1.414213562373E0,4.992721993475E-1,1.5E1));
#658=CARTESIAN_POINT('',(1.414213562373E0,1.194565679914E0,1.5E1));
#659=VERTEX_POINT('',#657);
#660=VERTEX_POINT('',#658);
#661=CARTESIAN_POINT('',(1.414213562373E0,2.193110078610E0,1.5E1));
#662=VERTEX_POINT('',#661);
#663=CARTESIAN_POINT('',(-1.414213562373E0,-2.193110078610E0,1.5E1));
#664=VERTEX_POINT('',#663);
#665=CARTESIAN_POINT('',(-1.414213562373E0,-1.194565679914E0,1.5E1));
#666=CARTESIAN_POINT('',(-1.414213562373E0,-4.992721993475E-1,1.5E1));
#667=VERTEX_POINT('',#665);
#668=VERTEX_POINT('',#666);
#669=CARTESIAN_POINT('',(-1.414213562373E0,4.992721993475E-1,1.5E1));
#670=CARTESIAN_POINT('',(-1.414213562373E0,1.194565679914E0,1.5E1));
#671=VERTEX_POINT('',#669);
#672=VERTEX_POINT('',#670);
#673=CARTESIAN_POINT('',(-1.414213562373E0,2.193110078610E0,1.5E1));
#674=VERTEX_POINT('',#673);
#675=CARTESIAN_POINT('',(-5.690977705434E0,-1.5E0,3.E0));
#676=CARTESIAN_POINT('',(-5.690977705434E0,1.5E0,3.E0));
#677=VERTEX_POINT('',#675);
#678=VERTEX_POINT('',#676);
#679=CARTESIAN_POINT('',(5.679561501411E0,-1.5E0,3.E0));
#680=CARTESIAN_POINT('',(5.679561501411E0,1.5E0,3.E0));
#681=VERTEX_POINT('',#679);
#682=VERTEX_POINT('',#680);
#683=CARTESIAN_POINT('',(-5.690977705434E0,-1.5E0,3.366870363115E-1));
#684=VERTEX_POINT('',#683);
#685=CARTESIAN_POINT('',(5.679561501411E0,-1.5E0,3.366870363115E-1));
#686=VERTEX_POINT('',#685);
#687=CARTESIAN_POINT('',(5.679561501411E0,1.5E0,3.366870363115E-1));
#688=VERTEX_POINT('',#687);
#689=CARTESIAN_POINT('',(-5.690977705434E0,1.5E0,3.366870363115E-1));
#690=VERTEX_POINT('',#689);
#691=CARTESIAN_POINT('',(0.E0,0.E0,3.E0));
#692=DIRECTION('',(0.E0,0.E0,1.E0));
#693=DIRECTION('',(1.E0,0.E0,0.E0));
#694=AXIS2_PLACEMENT_3D('',#691,#692,#693);
#695=PLANE('',#694);
#697=ORIENTED_EDGE('',*,*,#696,.T.);
#699=ORIENTED_EDGE('',*,*,#698,.F.);
#701=ORIENTED_EDGE('',*,*,#700,.F.);
#703=ORIENTED_EDGE('',*,*,#702,.F.);
#704=EDGE_LOOP('',(#697,#699,#701,#703));
#705=FACE_OUTER_BOUND('',#704,.F.);
#707=ORIENTED_EDGE('',*,*,#706,.T.);
#709=ORIENTED_EDGE('',*,*,#708,.T.);
#710=EDGE_LOOP('',(#707,#709));
#711=FACE_BOUND('',#710,.F.);
#712=ADVANCED_FACE('',(#705,#711),#695,.T.);
#713=CARTESIAN_POINT('',(0.E0,0.E0,3.E0));
#714=DIRECTION('',(0.E0,0.E0,1.E0));
#715=DIRECTION('',(1.E0,0.E0,0.E0));
#716=AXIS2_PLACEMENT_3D('',#713,#714,#715);
#717=PLANE('',#716);
#719=ORIENTED_EDGE('',*,*,#718,.F.);
#721=ORIENTED_EDGE('',*,*,#720,.F.);
#723=ORIENTED_EDGE('',*,*,#722,.T.);
#725=ORIENTED_EDGE('',*,*,#724,.F.);
#726=EDGE_LOOP('',(#719,#721,#723,#725));
#727=FACE_OUTER_BOUND('',#726,.F.);
#729=ORIENTED_EDGE('',*,*,#728,.T.);
#731=ORIENTED_EDGE('',*,*,#730,.T.);
#732=EDGE_LOOP('',(#729,#731));
#733=FACE_BOUND('',#732,.F.);
#734=ADVANCED_FACE('',(#727,#733),#717,.T.);
#735=CARTESIAN_POINT('',(-4.E0,0.E0,0.E0));
#736=DIRECTION('',(0.E0,0.E0,1.E0));
#737=DIRECTION('',(1.E0,0.E0,0.E0));
#738=AXIS2_PLACEMENT_3D('',#735,#736,#737);
#739=CYLINDRICAL_SURFACE('',#738,1.E0);
#741=ORIENTED_EDGE('',*,*,#740,.T.);
#743=ORIENTED_EDGE('',*,*,#742,.F.);
#744=ORIENTED_EDGE('',*,*,#706,.F.);
#746=ORIENTED_EDGE('',*,*,#745,.T.);
#747=EDGE_LOOP('',(#741,#743,#744,#746));
#748=FACE_OUTER_BOUND('',#747,.F.);
#749=ADVANCED_FACE('',(#748),#739,.T.);
#750=CARTESIAN_POINT('',(-4.E0,0.E0,9.800000000248E0));
#751=DIRECTION('',(0.E0,0.E0,-1.E0));
#752=DIRECTION('',(0.E0,-1.E0,0.E0));
#753=AXIS2_PLACEMENT_3D('',#750,#751,#752);
#754=CONICAL_SURFACE('',#753,7.999999997516E-1,4.5E1);
#756=ORIENTED_EDGE('',*,*,#755,.T.);
#758=ORIENTED_EDGE('',*,*,#757,.T.);
#759=ORIENTED_EDGE('',*,*,#740,.F.);
#761=ORIENTED_EDGE('',*,*,#760,.F.);
#762=EDGE_LOOP('',(#756,#758,#759,#761));
#763=FACE_OUTER_BOUND('',#762,.F.);
#764=ADVANCED_FACE('',(#763),#754,.T.);
#765=CARTESIAN_POINT('',(0.E0,0.E0,1.E1));
#766=DIRECTION('',(0.E0,0.E0,1.E0));
#767=DIRECTION('',(1.E0,0.E0,0.E0));
#768=AXIS2_PLACEMENT_3D('',#765,#766,#767);
#769=PLANE('',#768);
#771=ORIENTED_EDGE('',*,*,#770,.F.);
#773=ORIENTED_EDGE('',*,*,#772,.F.);
#774=EDGE_LOOP('',(#771,#773));
#775=FACE_OUTER_BOUND('',#774,.F.);
#776=ADVANCED_FACE('',(#775),#769,.T.);
#777=CARTESIAN_POINT('',(0.E0,0.E0,1.E1));
#778=DIRECTION('',(0.E0,0.E0,1.E0));
#779=DIRECTION('',(1.E0,0.E0,0.E0));
#780=AXIS2_PLACEMENT_3D('',#777,#778,#779);
#781=PLANE('',#780);
#783=ORIENTED_EDGE('',*,*,#782,.F.);
#784=ORIENTED_EDGE('',*,*,#755,.F.);
#785=EDGE_LOOP('',(#783,#784));
#786=FACE_OUTER_BOUND('',#785,.F.);
#787=ADVANCED_FACE('',(#786),#781,.T.);
#788=CARTESIAN_POINT('',(4.E0,0.E0,9.800000000248E0));
#789=DIRECTION('',(0.E0,0.E0,-1.E0));
#790=DIRECTION('',(0.E0,-1.E0,0.E0));
#791=AXIS2_PLACEMENT_3D('',#788,#789,#790);
#792=CONICAL_SURFACE('',#791,7.999999997516E-1,4.5E1);
#793=ORIENTED_EDGE('',*,*,#770,.T.);
#795=ORIENTED_EDGE('',*,*,#794,.T.);
#797=ORIENTED_EDGE('',*,*,#796,.F.);
#799=ORIENTED_EDGE('',*,*,#798,.F.);
#800=EDGE_LOOP('',(#793,#795,#797,#799));
#801=FACE_OUTER_BOUND('',#800,.F.);
#802=ADVANCED_FACE('',(#801),#792,.T.);
#803=CARTESIAN_POINT('',(4.E0,0.E0,9.800000000248E0));
#804=DIRECTION('',(0.E0,0.E0,-1.E0));
#805=DIRECTION('',(0.E0,-1.E0,0.E0));
#806=AXIS2_PLACEMENT_3D('',#803,#804,#805);
#807=CONICAL_SURFACE('',#806,7.999999997516E-1,4.5E1);
#808=ORIENTED_EDGE('',*,*,#772,.T.);
#809=ORIENTED_EDGE('',*,*,#798,.T.);
#811=ORIENTED_EDGE('',*,*,#810,.F.);
#812=ORIENTED_EDGE('',*,*,#794,.F.);
#813=EDGE_LOOP('',(#808,#809,#811,#812));
#814=FACE_OUTER_BOUND('',#813,.F.);
#815=ADVANCED_FACE('',(#814),#807,.T.);
#816=CARTESIAN_POINT('',(4.E0,0.E0,0.E0));
#817=DIRECTION('',(0.E0,0.E0,1.E0));
#818=DIRECTION('',(1.E0,0.E0,0.E0));
#819=AXIS2_PLACEMENT_3D('',#816,#817,#818);
#820=CYLINDRICAL_SURFACE('',#819,1.E0);
#821=ORIENTED_EDGE('',*,*,#810,.T.);
#823=ORIENTED_EDGE('',*,*,#822,.F.);
#824=ORIENTED_EDGE('',*,*,#730,.F.);
#826=ORIENTED_EDGE('',*,*,#825,.T.);
#827=EDGE_LOOP('',(#821,#823,#824,#826));
#828=FACE_OUTER_BOUND('',#827,.F.);
#829=ADVANCED_FACE('',(#828),#820,.T.);
#830=CARTESIAN_POINT('',(4.E0,0.E0,0.E0));
#831=DIRECTION('',(0.E0,0.E0,1.E0));
#832=DIRECTION('',(1.E0,0.E0,0.E0));
#833=AXIS2_PLACEMENT_3D('',#830,#831,#832);
#834=CYLINDRICAL_SURFACE('',#833,1.E0);
#835=ORIENTED_EDGE('',*,*,#796,.T.);
#836=ORIENTED_EDGE('',*,*,#825,.F.);
#837=ORIENTED_EDGE('',*,*,#728,.F.);
#838=ORIENTED_EDGE('',*,*,#822,.T.);
#839=EDGE_LOOP('',(#835,#836,#837,#838));
#840=FACE_OUTER_BOUND('',#839,.F.);
#841=ADVANCED_FACE('',(#840),#834,.T.);
#842=CARTESIAN_POINT('',(-4.E0,0.E0,9.800000000248E0));
#843=DIRECTION('',(0.E0,0.E0,-1.E0));
#844=DIRECTION('',(0.E0,-1.E0,0.E0));
#845=AXIS2_PLACEMENT_3D('',#842,#843,#844);
#846=CONICAL_SURFACE('',#845,7.999999997516E-1,4.5E1);
#847=ORIENTED_EDGE('',*,*,#782,.T.);
#848=ORIENTED_EDGE('',*,*,#760,.T.);
#850=ORIENTED_EDGE('',*,*,#849,.F.);
#851=ORIENTED_EDGE('',*,*,#757,.F.);
#852=EDGE_LOOP('',(#847,#848,#850,#851));
#853=FACE_OUTER_BOUND('',#852,.F.);
#854=ADVANCED_FACE('',(#853),#846,.T.);
#855=CARTESIAN_POINT('',(-4.E0,0.E0,0.E0));
#856=DIRECTION('',(0.E0,0.E0,1.E0));
#857=DIRECTION('',(1.E0,0.E0,0.E0));
#858=AXIS2_PLACEMENT_3D('',#855,#856,#857);
#859=CYLINDRICAL_SURFACE('',#858,1.E0);
#860=ORIENTED_EDGE('',*,*,#849,.T.);
#861=ORIENTED_EDGE('',*,*,#745,.F.);
#862=ORIENTED_EDGE('',*,*,#708,.F.);
#863=ORIENTED_EDGE('',*,*,#742,.T.);
#864=EDGE_LOOP('',(#860,#861,#862,#863));
#865=FACE_OUTER_BOUND('',#864,.F.);
#866=ADVANCED_FACE('',(#865),#859,.T.);
#867=CARTESIAN_POINT('',(-5.690977705434E0,-1.5E0,3.E0));
#868=DIRECTION('',(1.E0,0.E0,0.E0));
#869=DIRECTION('',(0.E0,1.E0,0.E0));
#870=AXIS2_PLACEMENT_3D('',#867,#868,#869);
#871=PLANE('',#870);
#872=ORIENTED_EDGE('',*,*,#696,.F.);
#874=ORIENTED_EDGE('',*,*,#873,.F.);
#876=ORIENTED_EDGE('',*,*,#875,.T.);
#878=ORIENTED_EDGE('',*,*,#877,.T.);
#879=EDGE_LOOP('',(#872,#874,#876,#878));
#880=FACE_OUTER_BOUND('',#879,.F.);
#881=ADVANCED_FACE('',(#880),#871,.F.);
#882=CARTESIAN_POINT('',(-6.1E0,-1.5E0,0.E0));
#883=DIRECTION('',(0.E0,-1.E0,0.E0));
#884=DIRECTION('',(1.E0,0.E0,0.E0));
#885=AXIS2_PLACEMENT_3D('',#882,#883,#884);
#886=PLANE('',#885);
#887=ORIENTED_EDGE('',*,*,#873,.T.);
#888=ORIENTED_EDGE('',*,*,#702,.T.);
#890=ORIENTED_EDGE('',*,*,#889,.F.);
#892=ORIENTED_EDGE('',*,*,#891,.F.);
#893=EDGE_LOOP('',(#887,#888,#890,#892));
#894=FACE_OUTER_BOUND('',#893,.F.);
#895=ADVANCED_FACE('',(#894),#886,.T.);
#896=CARTESIAN_POINT('',(-1.6E0,-1.5E0,0.E0));
#897=DIRECTION('',(-1.E0,0.E0,0.E0));
#898=DIRECTION('',(0.E0,-1.E0,0.E0));
#899=AXIS2_PLACEMENT_3D('',#896,#897,#898);
#900=PLANE('',#899);
#902=ORIENTED_EDGE('',*,*,#901,.F.);
#904=ORIENTED_EDGE('',*,*,#903,.T.);
#906=ORIENTED_EDGE('',*,*,#905,.F.);
#908=ORIENTED_EDGE('',*,*,#907,.T.);
#910=ORIENTED_EDGE('',*,*,#909,.T.);
#912=ORIENTED_EDGE('',*,*,#911,.T.);
#913=ORIENTED_EDGE('',*,*,#889,.T.);
#914=ORIENTED_EDGE('',*,*,#700,.T.);
#916=ORIENTED_EDGE('',*,*,#915,.F.);
#918=ORIENTED_EDGE('',*,*,#917,.T.);
#920=ORIENTED_EDGE('',*,*,#919,.T.);
#922=ORIENTED_EDGE('',*,*,#921,.T.);
#924=ORIENTED_EDGE('',*,*,#923,.F.);
#926=ORIENTED_EDGE('',*,*,#925,.T.);
#927=EDGE_LOOP('',(#902,#904,#906,#908,#910,#912,#913,#914,#916,#918,#920,#922,
#924,#926));
#928=FACE_OUTER_BOUND('',#927,.F.);
#929=ADVANCED_FACE('',(#928),#900,.T.);
#930=CARTESIAN_POINT('',(0.E0,0.E0,1.55E1));
#931=DIRECTION('',(0.E0,1.E0,0.E0));
#932=DIRECTION('',(0.E0,0.E0,-1.E0));
#933=AXIS2_PLACEMENT_3D('',#930,#931,#932);
#934=TOROIDAL_SURFACE('',#933,1.526967961708E0,5.E-1);
#936=ORIENTED_EDGE('',*,*,#935,.T.);
#938=ORIENTED_EDGE('',*,*,#937,.T.);
#940=ORIENTED_EDGE('',*,*,#939,.T.);
#942=ORIENTED_EDGE('',*,*,#941,.T.);
#944=ORIENTED_EDGE('',*,*,#943,.T.);
#946=ORIENTED_EDGE('',*,*,#945,.T.);
#947=ORIENTED_EDGE('',*,*,#901,.T.);
#949=ORIENTED_EDGE('',*,*,#948,.T.);
#950=EDGE_LOOP('',(#936,#938,#940,#942,#944,#946,#947,#949));
#951=FACE_OUTER_BOUND('',#950,.F.);
#952=ADVANCED_FACE('',(#951),#934,.F.);
#953=CARTESIAN_POINT('',(0.E0,-3.E0,1.55E1));
#954=DIRECTION('',(0.E0,1.E0,0.E0));
#955=DIRECTION('',(-1.E0,0.E0,0.E0));
#956=AXIS2_PLACEMENT_3D('',#953,#954,#955);
#957=CYLINDRICAL_SURFACE('',#956,1.5E0);
#958=ORIENTED_EDGE('',*,*,#935,.F.);
#960=ORIENTED_EDGE('',*,*,#959,.T.);
#962=ORIENTED_EDGE('',*,*,#961,.F.);
#964=ORIENTED_EDGE('',*,*,#963,.F.);
#965=EDGE_LOOP('',(#958,#960,#962,#964));
#966=FACE_OUTER_BOUND('',#965,.F.);
#967=ADVANCED_FACE('',(#966),#957,.F.);
#968=CARTESIAN_POINT('',(0.E0,-3.E0,1.55E1));
#969=DIRECTION('',(0.E0,1.E0,0.E0));
#970=DIRECTION('',(-1.E0,0.E0,0.E0));
#971=AXIS2_PLACEMENT_3D('',#968,#969,#970);
#972=CYLINDRICAL_SURFACE('',#971,1.5E0);
#973=ORIENTED_EDGE('',*,*,#943,.F.);
#975=ORIENTED_EDGE('',*,*,#974,.F.);
#977=ORIENTED_EDGE('',*,*,#976,.F.);
#979=ORIENTED_EDGE('',*,*,#978,.T.);
#980=EDGE_LOOP('',(#973,#975,#977,#979));
#981=FACE_OUTER_BOUND('',#980,.F.);
#982=ADVANCED_FACE('',(#981),#972,.F.);
#983=CARTESIAN_POINT('',(0.E0,-3.E0,1.55E1));
#984=DIRECTION('',(0.E0,1.E0,0.E0));
#985=DIRECTION('',(-1.E0,0.E0,0.E0));
#986=AXIS2_PLACEMENT_3D('',#983,#984,#985);
#987=CYLINDRICAL_SURFACE('',#986,1.5E0);
#989=ORIENTED_EDGE('',*,*,#988,.F.);
#991=ORIENTED_EDGE('',*,*,#990,.F.);
#993=ORIENTED_EDGE('',*,*,#992,.T.);
#995=ORIENTED_EDGE('',*,*,#994,.T.);
#996=EDGE_LOOP('',(#989,#991,#993,#995));
#997=FACE_OUTER_BOUND('',#996,.F.);
#998=ADVANCED_FACE('',(#997),#987,.F.);
#999=CARTESIAN_POINT('',(0.E0,-3.E0,1.55E1));
#1000=DIRECTION('',(0.E0,1.E0,0.E0));
#1001=DIRECTION('',(-1.E0,0.E0,0.E0));
#1002=AXIS2_PLACEMENT_3D('',#999,#1000,#1001);
#1003=CYLINDRICAL_SURFACE('',#1002,1.5E0);
#1005=ORIENTED_EDGE('',*,*,#1004,.F.);
#1007=ORIENTED_EDGE('',*,*,#1006,.T.);
#1009=ORIENTED_EDGE('',*,*,#1008,.F.);
#1011=ORIENTED_EDGE('',*,*,#1010,.F.);
#1012=EDGE_LOOP('',(#1005,#1007,#1009,#1011));
#1013=FACE_OUTER_BOUND('',#1012,.F.);
#1014=ADVANCED_FACE('',(#1013),#1003,.F.);
#1015=CARTESIAN_POINT('',(0.E0,0.E0,1.5E1));
#1016=DIRECTION('',(0.E0,0.E0,1.E0));
#1017=DIRECTION('',(0.E0,1.E0,0.E0));
#1018=AXIS2_PLACEMENT_3D('',#1015,#1016,#1017);
#1019=PLANE('',#1018);
#1020=ORIENTED_EDGE('',*,*,#948,.F.);
#1021=ORIENTED_EDGE('',*,*,#925,.F.);
#1023=ORIENTED_EDGE('',*,*,#1022,.F.);
#1024=ORIENTED_EDGE('',*,*,#959,.F.);
#1025=EDGE_LOOP('',(#1020,#1021,#1023,#1024));
#1026=FACE_OUTER_BOUND('',#1025,.F.);
#1027=ADVANCED_FACE('',(#1026),#1019,.T.);
#1028=CARTESIAN_POINT('',(0.E0,0.E0,1.5E1));
#1029=DIRECTION('',(0.E0,0.E0,1.E0));
#1030=DIRECTION('',(0.E0,1.E0,0.E0));
#1031=AXIS2_PLACEMENT_3D('',#1028,#1029,#1030);
#1032=PLANE('',#1031);
#1033=ORIENTED_EDGE('',*,*,#945,.F.);
#1034=ORIENTED_EDGE('',*,*,#978,.F.);
#1036=ORIENTED_EDGE('',*,*,#1035,.F.);
#1037=ORIENTED_EDGE('',*,*,#903,.F.);
#1038=EDGE_LOOP('',(#1033,#1034,#1036,#1037));
#1039=FACE_OUTER_BOUND('',#1038,.F.);
#1040=ADVANCED_FACE('',(#1039),#1032,.T.);
#1041=CARTESIAN_POINT('',(0.E0,0.E0,1.5E1));
#1042=DIRECTION('',(0.E0,0.E0,1.E0));
#1043=DIRECTION('',(0.E0,1.E0,0.E0));
#1044=AXIS2_PLACEMENT_3D('',#1041,#1042,#1043);
#1045=PLANE('',#1044);
#1047=ORIENTED_EDGE('',*,*,#1046,.F.);
#1048=ORIENTED_EDGE('',*,*,#994,.F.);
#1050=ORIENTED_EDGE('',*,*,#1049,.F.);
#1051=ORIENTED_EDGE('',*,*,#907,.F.);
#1052=EDGE_LOOP('',(#1047,#1048,#1050,#1051));
#1053=FACE_OUTER_BOUND('',#1052,.F.);
#1054=ADVANCED_FACE('',(#1053),#1045,.T.);
#1055=CARTESIAN_POINT('',(0.E0,0.E0,1.5E1));
#1056=DIRECTION('',(0.E0,0.E0,1.E0));
#1057=DIRECTION('',(0.E0,1.E0,0.E0));
#1058=AXIS2_PLACEMENT_3D('',#1055,#1056,#1057);
#1059=PLANE('',#1058);
#1061=ORIENTED_EDGE('',*,*,#1060,.F.);
#1062=ORIENTED_EDGE('',*,*,#921,.F.);
#1064=ORIENTED_EDGE('',*,*,#1063,.F.);
#1065=ORIENTED_EDGE('',*,*,#1006,.F.);
#1066=EDGE_LOOP('',(#1061,#1062,#1064,#1065));
#1067=FACE_OUTER_BOUND('',#1066,.F.);
#1068=ADVANCED_FACE('',(#1067),#1059,.T.);
#1069=CARTESIAN_POINT('',(0.E0,0.E0,1.5E1));
#1070=DIRECTION('',(0.E0,0.E0,1.E0));
#1071=DIRECTION('',(0.E0,1.E0,0.E0));
#1072=AXIS2_PLACEMENT_3D('',#1069,#1070,#1071);
#1073=PLANE('',#1072);
#1074=ORIENTED_EDGE('',*,*,#941,.F.);
#1076=ORIENTED_EDGE('',*,*,#1075,.F.);
#1078=ORIENTED_EDGE('',*,*,#1077,.F.);
#1079=ORIENTED_EDGE('',*,*,#974,.T.);
#1080=EDGE_LOOP('',(#1074,#1076,#1078,#1079));
#1081=FACE_OUTER_BOUND('',#1080,.F.);
#1082=ADVANCED_FACE('',(#1081),#1073,.T.);
#1083=CARTESIAN_POINT('',(0.E0,0.E0,1.5E1));
#1084=DIRECTION('',(0.E0,0.E0,1.E0));
#1085=DIRECTION('',(0.E0,1.E0,0.E0));
#1086=AXIS2_PLACEMENT_3D('',#1083,#1084,#1085);
#1087=PLANE('',#1086);
#1088=ORIENTED_EDGE('',*,*,#937,.F.);
#1089=ORIENTED_EDGE('',*,*,#963,.T.);
#1091=ORIENTED_EDGE('',*,*,#1090,.F.);
#1093=ORIENTED_EDGE('',*,*,#1092,.F.);
#1094=EDGE_LOOP('',(#1088,#1089,#1091,#1093));
#1095=FACE_OUTER_BOUND('',#1094,.F.);
#1096=ADVANCED_FACE('',(#1095),#1087,.T.);
#1097=CARTESIAN_POINT('',(0.E0,0.E0,1.5E1));
#1098=DIRECTION('',(0.E0,0.E0,1.E0));
#1099=DIRECTION('',(0.E0,1.E0,0.E0));
#1100=AXIS2_PLACEMENT_3D('',#1097,#1098,#1099);
#1101=PLANE('',#1100);
#1103=ORIENTED_EDGE('',*,*,#1102,.F.);
#1105=ORIENTED_EDGE('',*,*,#1104,.F.);
#1107=ORIENTED_EDGE('',*,*,#1106,.F.);
#1108=ORIENTED_EDGE('',*,*,#990,.T.);
#1109=EDGE_LOOP('',(#1103,#1105,#1107,#1108));
#1110=FACE_OUTER_BOUND('',#1109,.F.);
#1111=ADVANCED_FACE('',(#1110),#1101,.T.);
#1112=CARTESIAN_POINT('',(0.E0,0.E0,1.5E1));
#1113=DIRECTION('',(0.E0,0.E0,1.E0));
#1114=DIRECTION('',(0.E0,1.E0,0.E0));
#1115=AXIS2_PLACEMENT_3D('',#1112,#1113,#1114);
#1116=PLANE('',#1115);
#1118=ORIENTED_EDGE('',*,*,#1117,.F.);
#1119=ORIENTED_EDGE('',*,*,#1010,.T.);
#1121=ORIENTED_EDGE('',*,*,#1120,.F.);
#1123=ORIENTED_EDGE('',*,*,#1122,.F.);
#1124=EDGE_LOOP('',(#1118,#1119,#1121,#1123));
#1125=FACE_OUTER_BOUND('',#1124,.F.);
#1126=ADVANCED_FACE('',(#1125),#1116,.T.);
#1127=CARTESIAN_POINT('',(0.E0,1.693837879262E0,1.55E1));
#1128=DIRECTION('',(0.E0,1.E0,0.E0));
#1129=DIRECTION('',(0.E0,0.E0,-1.E0));
#1130=AXIS2_PLACEMENT_3D('',#1127,#1128,#1129);
#1131=TOROIDAL_SURFACE('',#1130,1.526967961708E0,5.E-1);
#1132=ORIENTED_EDGE('',*,*,#1004,.T.);
#1133=ORIENTED_EDGE('',*,*,#1117,.T.);
#1135=ORIENTED_EDGE('',*,*,#1134,.T.);
#1136=ORIENTED_EDGE('',*,*,#1090,.T.);
#1137=ORIENTED_EDGE('',*,*,#961,.T.);
#1138=ORIENTED_EDGE('',*,*,#1022,.T.);
#1139=ORIENTED_EDGE('',*,*,#923,.T.);
#1140=ORIENTED_EDGE('',*,*,#1060,.T.);
#1141=EDGE_LOOP('',(#1132,#1133,#1135,#1136,#1137,#1138,#1139,#1140));
#1142=FACE_OUTER_BOUND('',#1141,.F.);
#1143=ADVANCED_FACE('',(#1142),#1131,.F.);
#1144=CARTESIAN_POINT('',(1.6E0,-3.E0,0.E0));
#1145=DIRECTION('',(1.E0,0.E0,0.E0));
#1146=DIRECTION('',(0.E0,1.E0,0.E0));
#1147=AXIS2_PLACEMENT_3D('',#1144,#1145,#1146);
#1148=PLANE('',#1147);
#1149=ORIENTED_EDGE('',*,*,#939,.F.);
#1150=ORIENTED_EDGE('',*,*,#1092,.T.);
#1151=ORIENTED_EDGE('',*,*,#1134,.F.);
#1152=ORIENTED_EDGE('',*,*,#1122,.T.);
#1154=ORIENTED_EDGE('',*,*,#1153,.F.);
#1156=ORIENTED_EDGE('',*,*,#1155,.F.);
#1158=ORIENTED_EDGE('',*,*,#1157,.T.);
#1159=ORIENTED_EDGE('',*,*,#722,.F.);
#1161=ORIENTED_EDGE('',*,*,#1160,.F.);
#1163=ORIENTED_EDGE('',*,*,#1162,.F.);
#1165=ORIENTED_EDGE('',*,*,#1164,.T.);
#1166=ORIENTED_EDGE('',*,*,#1104,.T.);
#1168=ORIENTED_EDGE('',*,*,#1167,.F.);
#1169=ORIENTED_EDGE('',*,*,#1075,.T.);
#1170=EDGE_LOOP('',(#1149,#1150,#1151,#1152,#1154,#1156,#1158,#1159,#1161,#1163,
#1165,#1166,#1168,#1169));
#1171=FACE_OUTER_BOUND('',#1170,.F.);
#1172=ADVANCED_FACE('',(#1171),#1148,.T.);
#1173=CARTESIAN_POINT('',(1.6E0,3.E0,0.E0));
#1174=DIRECTION('',(0.E0,1.E0,0.E0));
#1175=DIRECTION('',(-1.E0,0.E0,0.E0));
#1176=AXIS2_PLACEMENT_3D('',#1173,#1174,#1175);
#1177=PLANE('',#1176);
#1179=ORIENTED_EDGE('',*,*,#1178,.T.);
#1180=ORIENTED_EDGE('',*,*,#1153,.T.);
#1181=ORIENTED_EDGE('',*,*,#1120,.T.);
#1182=ORIENTED_EDGE('',*,*,#1008,.T.);
#1183=ORIENTED_EDGE('',*,*,#1063,.T.);
#1184=ORIENTED_EDGE('',*,*,#919,.F.);
#1185=EDGE_LOOP('',(#1179,#1180,#1181,#1182,#1183,#1184));
#1186=FACE_OUTER_BOUND('',#1185,.F.);
#1187=ADVANCED_FACE('',(#1186),#1177,.T.);
#1188=CARTESIAN_POINT('',(-7.5E0,0.E0,3.509725509944E0));
#1189=DIRECTION('',(1.E0,0.E0,0.E0));
#1190=DIRECTION('',(0.E0,0.E0,-1.E0));
#1191=AXIS2_PLACEMENT_3D('',#1188,#1189,#1190);
#1192=CYLINDRICAL_SURFACE('',#1191,3.509725509944E0);
#1193=ORIENTED_EDGE('',*,*,#875,.F.);
#1194=ORIENTED_EDGE('',*,*,#891,.T.);
#1195=ORIENTED_EDGE('',*,*,#911,.F.);
#1197=ORIENTED_EDGE('',*,*,#1196,.T.);
#1198=ORIENTED_EDGE('',*,*,#1162,.T.);
#1200=ORIENTED_EDGE('',*,*,#1199,.T.);
#1202=ORIENTED_EDGE('',*,*,#1201,.T.);
#1204=ORIENTED_EDGE('',*,*,#1203,.F.);
#1205=ORIENTED_EDGE('',*,*,#1155,.T.);
#1206=ORIENTED_EDGE('',*,*,#1178,.F.);
#1207=ORIENTED_EDGE('',*,*,#917,.F.);
#1209=ORIENTED_EDGE('',*,*,#1208,.F.);
#1210=EDGE_LOOP('',(#1193,#1194,#1195,#1197,#1198,#1200,#1202,#1204,#1205,#1206,
#1207,#1209));
#1211=FACE_OUTER_BOUND('',#1210,.F.);
#1212=ADVANCED_FACE('',(#1211),#1192,.T.);
#1213=CARTESIAN_POINT('',(-1.6E0,-3.E0,0.E0));
#1214=DIRECTION('',(0.E0,-1.E0,0.E0));
#1215=DIRECTION('',(1.E0,0.E0,0.E0));
#1216=AXIS2_PLACEMENT_3D('',#1213,#1214,#1215);
#1217=PLANE('',#1216);
#1218=ORIENTED_EDGE('',*,*,#1196,.F.);
#1219=ORIENTED_EDGE('',*,*,#909,.F.);
#1220=ORIENTED_EDGE('',*,*,#1049,.T.);
#1221=ORIENTED_EDGE('',*,*,#992,.F.);
#1222=ORIENTED_EDGE('',*,*,#1106,.T.);
#1223=ORIENTED_EDGE('',*,*,#1164,.F.);
#1224=EDGE_LOOP('',(#1218,#1219,#1220,#1221,#1222,#1223));
#1225=FACE_OUTER_BOUND('',#1224,.F.);
#1226=ADVANCED_FACE('',(#1225),#1217,.T.);
#1227=CARTESIAN_POINT('',(1.6E0,-1.5E0,0.E0));
#1228=DIRECTION('',(0.E0,-1.E0,0.E0));
#1229=DIRECTION('',(1.E0,0.E0,0.E0));
#1230=AXIS2_PLACEMENT_3D('',#1227,#1228,#1229);
#1231=PLANE('',#1230);
#1233=ORIENTED_EDGE('',*,*,#1232,.F.);
#1234=ORIENTED_EDGE('',*,*,#1199,.F.);
#1235=ORIENTED_EDGE('',*,*,#1160,.T.);
#1236=ORIENTED_EDGE('',*,*,#720,.T.);
#1237=EDGE_LOOP('',(#1233,#1234,#1235,#1236));
#1238=FACE_OUTER_BOUND('',#1237,.F.);
#1239=ADVANCED_FACE('',(#1238),#1231,.T.);
#1240=CARTESIAN_POINT('',(5.679561501411E0,1.5E0,3.E0));
#1241=DIRECTION('',(-1.E0,0.E0,0.E0));
#1242=DIRECTION('',(0.E0,-1.E0,0.E0));
#1243=AXIS2_PLACEMENT_3D('',#1240,#1241,#1242);
#1244=PLANE('',#1243);
#1245=ORIENTED_EDGE('',*,*,#718,.T.);
#1247=ORIENTED_EDGE('',*,*,#1246,.F.);
#1248=ORIENTED_EDGE('',*,*,#1201,.F.);
#1249=ORIENTED_EDGE('',*,*,#1232,.T.);
#1250=EDGE_LOOP('',(#1245,#1247,#1248,#1249));
#1251=FACE_OUTER_BOUND('',#1250,.F.);
#1252=ADVANCED_FACE('',(#1251),#1244,.F.);
#1253=CARTESIAN_POINT('',(6.1E0,1.5E0,0.E0));
#1254=DIRECTION('',(0.E0,1.E0,0.E0));
#1255=DIRECTION('',(-1.E0,0.E0,0.E0));
#1256=AXIS2_PLACEMENT_3D('',#1253,#1254,#1255);
#1257=PLANE('',#1256);
#1258=ORIENTED_EDGE('',*,*,#1246,.T.);
#1259=ORIENTED_EDGE('',*,*,#724,.T.);
#1260=ORIENTED_EDGE('',*,*,#1157,.F.);
#1261=ORIENTED_EDGE('',*,*,#1203,.T.);
#1262=EDGE_LOOP('',(#1258,#1259,#1260,#1261));
#1263=FACE_OUTER_BOUND('',#1262,.F.);
#1264=ADVANCED_FACE('',(#1263),#1257,.T.);
#1265=CARTESIAN_POINT('',(-1.6E0,1.5E0,0.E0));
#1266=DIRECTION('',(0.E0,1.E0,0.E0));
#1267=DIRECTION('',(-1.E0,0.E0,0.E0));
#1268=AXIS2_PLACEMENT_3D('',#1265,#1266,#1267);
#1269=PLANE('',#1268);
#1270=ORIENTED_EDGE('',*,*,#877,.F.);
#1271=ORIENTED_EDGE('',*,*,#1208,.T.);
#1272=ORIENTED_EDGE('',*,*,#915,.T.);
#1273=ORIENTED_EDGE('',*,*,#698,.T.);
#1274=EDGE_LOOP('',(#1270,#1271,#1272,#1273));
#1275=FACE_OUTER_BOUND('',#1274,.F.);
#1276=ADVANCED_FACE('',(#1275),#1269,.T.);
#1277=CARTESIAN_POINT('',(0.E0,-1.693837879262E0,1.55E1));
#1278=DIRECTION('',(0.E0,1.E0,0.E0));
#1279=DIRECTION('',(0.E0,0.E0,-1.E0));
#1280=AXIS2_PLACEMENT_3D('',#1277,#1278,#1279);
#1281=TOROIDAL_SURFACE('',#1280,1.526967961708E0,5.E-1);
#1282=ORIENTED_EDGE('',*,*,#976,.T.);
#1283=ORIENTED_EDGE('',*,*,#1077,.T.);
#1284=ORIENTED_EDGE('',*,*,#1167,.T.);
#1285=ORIENTED_EDGE('',*,*,#1102,.T.);
#1286=ORIENTED_EDGE('',*,*,#988,.T.);
#1287=ORIENTED_EDGE('',*,*,#1046,.T.);
#1288=ORIENTED_EDGE('',*,*,#905,.T.);
#1289=ORIENTED_EDGE('',*,*,#1035,.T.);
#1290=EDGE_LOOP('',(#1282,#1283,#1284,#1285,#1286,#1287,#1288,#1289));
#1291=FACE_OUTER_BOUND('',#1290,.F.);
#1292=ADVANCED_FACE('',(#1291),#1281,.F.);
#1293=CLOSED_SHELL('',(#712,#734,#749,#764,#776,#787,#802,#815,#829,#841,#854,
#866,#881,#895,#929,#952,#967,#982,#998,#1014,#1027,#1040,#1054,#1068,#1082,
#1096,#1111,#1126,#1143,#1172,#1187,#1212,#1226,#1239,#1252,#1264,#1276,#1292));
#1294=MANIFOLD_SOLID_BREP('',#1293);
#1296=DIMENSIONAL_EXPONENTS(0.E0,0.E0,0.E0,0.E0,0.E0,0.E0,0.E0);
#1298=PLANE_ANGLE_MEASURE_WITH_UNIT(PLANE_ANGLE_MEASURE(1.745329251994E-2),
#1297);
#1299=(CONVERSION_BASED_UNIT('DEGREE',#1298)NAMED_UNIT(*)PLANE_ANGLE_UNIT());
#1301=UNCERTAINTY_MEASURE_WITH_UNIT(LENGTH_MEASURE(2.262330536236E-3),#1295,
'closure',
'Maximum model space distance between geometric entities at asserted connectivities');
#1302=(GEOMETRIC_REPRESENTATION_CONTEXT(3)GLOBAL_UNCERTAINTY_ASSIGNED_CONTEXT((
#1301))GLOBAL_UNIT_ASSIGNED_CONTEXT((#1295,#1299,#1300))REPRESENTATION_CONTEXT(
'ID1','3'));
#1304=APPLICATION_CONTEXT(
'CONFIGURATION CONTROLLED 3D DESIGNS OF MECHANICAL PARTS AND ASSEMBLIES');
#1305=APPLICATION_PROTOCOL_DEFINITION('international standard',
'config_control_design',1994,#1304);
#1306=DESIGN_CONTEXT('',#1304,'design');
#1307=MECHANICAL_CONTEXT('',#1304,'mechanical');
#1308=PRODUCT('BRAKE1','BRAKE1','NOT SPECIFIED',(#1307));
#1309=PRODUCT_DEFINITION_FORMATION_WITH_SPECIFIED_SOURCE('23','LAST_VERSION',
#1308,.MADE.);
#1313=PRODUCT_CATEGORY('part','');
#1314=PRODUCT_RELATED_PRODUCT_CATEGORY('detail','',(#1308));
#1315=PRODUCT_CATEGORY_RELATIONSHIP('','',#1313,#1314);
#1316=SECURITY_CLASSIFICATION_LEVEL('unclassified');
#1317=SECURITY_CLASSIFICATION('','',#1316);
#1318=CC_DESIGN_SECURITY_CLASSIFICATION(#1317,(#1309));
#1319=APPROVAL_STATUS('approved');
#1320=APPROVAL(#1319,'');
#1321=CC_DESIGN_APPROVAL(#1320,(#1317,#1309,#1310));
#1322=CALENDAR_DATE(126,23,7);
#1323=COORDINATED_UNIVERSAL_TIME_OFFSET(8,0,.AHEAD.);
#1324=LOCAL_TIME(13,13,3.7E1,#1323);
#1325=DATE_AND_TIME(#1322,#1324);
#1326=APPROVAL_DATE_TIME(#1325,#1320);
#1327=DATE_TIME_ROLE('creation_date');
#1328=CC_DESIGN_DATE_AND_TIME_ASSIGNMENT(#1325,#1327,(#1310));
#1329=DATE_TIME_ROLE('classification_date');
#1330=CC_DESIGN_DATE_AND_TIME_ASSIGNMENT(#1325,#1329,(#1317));
#1331=PERSON('UNSPECIFIED','UNSPECIFIED',$,$,$,$);
#1332=ORGANIZATION('UNSPECIFIED','UNSPECIFIED','UNSPECIFIED');
#1333=PERSON_AND_ORGANIZATION(#1331,#1332);
#1334=APPROVAL_ROLE('approver');
#1335=APPROVAL_PERSON_ORGANIZATION(#1333,#1320,#1334);
#1336=PERSON_AND_ORGANIZATION_ROLE('creator');
#1337=CC_DESIGN_PERSON_AND_ORGANIZATION_ASSIGNMENT(#1333,#1336,(#1309,#1310));
#1338=PERSON_AND_ORGANIZATION_ROLE('design_supplier');
#1339=CC_DESIGN_PERSON_AND_ORGANIZATION_ASSIGNMENT(#1333,#1338,(#1309));
#1340=PERSON_AND_ORGANIZATION_ROLE('classification_officer');
#1341=CC_DESIGN_PERSON_AND_ORGANIZATION_ASSIGNMENT(#1333,#1340,(#1317));
#1342=PERSON_AND_ORGANIZATION_ROLE('design_owner');
#1343=CC_DESIGN_PERSON_AND_ORGANIZATION_ASSIGNMENT(#1333,#1342,(#1308));
#5=CIRCLE('',#4,1.E0);
#10=CIRCLE('',#9,1.E0);
#15=CIRCLE('',#14,1.E0);
#20=CIRCLE('',#19,1.E0);
#57=CIRCLE('',#56,1.E0);
#70=CIRCLE('',#69,6.E-1);
#75=CIRCLE('',#74,6.E-1);
#80=CIRCLE('',#79,6.E-1);
#85=CIRCLE('',#84,6.E-1);
#98=CIRCLE('',#97,1.E0);
#107=CIRCLE('',#106,1.E0);
#120=CIRCLE('',#119,1.E0);
#156=B_SPLINE_CURVE_WITH_KNOTS('',3,(#133,#134,#135,#136,#137,#138,#139,#140,
#141,#142,#143,#144,#145,#146,#147,#148,#149,#150,#151,#152,#153,#154,#155),
.UNSPECIFIED.,.F.,.F.,(4,1,1,1,1,1,1,1,1,1,1,1,1,1,1,1,1,1,1,1,4),(0.E0,5.E-2,
1.E-1,1.5E-1,2.E-1,2.5E-1,3.E-1,3.5E-1,4.E-1,4.5E-1,5.E-1,5.5E-1,6.E-1,6.5E-1,
7.E-1,7.5E-1,8.E-1,8.5E-1,9.E-1,9.5E-1,1.E0),.UNSPECIFIED.);
#180=B_SPLINE_CURVE_WITH_KNOTS('',3,(#157,#158,#159,#160,#161,#162,#163,#164,
#165,#166,#167,#168,#169,#170,#171,#172,#173,#174,#175,#176,#177,#178,#179),
.UNSPECIFIED.,.F.,.F.,(4,1,1,1,1,1,1,1,1,1,1,1,1,1,1,1,1,1,1,1,4),(0.E0,5.E-2,
1.E-1,1.5E-1,2.E-1,2.5E-1,3.E-1,3.5E-1,4.E-1,4.5E-1,5.E-1,5.5E-1,6.E-1,6.5E-1,
7.E-1,7.5E-1,8.E-1,8.5E-1,9.E-1,9.5E-1,1.E0),.UNSPECIFIED.);
#189=CIRCLE('',#188,3.509725509944E0);
#198=CIRCLE('',#197,3.509725509944E0);
#226=B_SPLINE_CURVE_WITH_KNOTS('',3,(#203,#204,#205,#206,#207,#208,#209,#210,
#211,#212,#213,#214,#215,#216,#217,#218,#219,#220,#221,#222,#223,#224,#225),
.UNSPECIFIED.,.F.,.F.,(4,1,1,1,1,1,1,1,1,1,1,1,1,1,1,1,1,1,1,1,4),(0.E0,5.E-2,
1.E-1,1.5E-1,2.E-1,2.5E-1,3.E-1,3.5E-1,4.E-1,4.5E-1,5.E-1,5.5E-1,6.E-1,6.5E-1,
7.E-1,7.5E-1,8.E-1,8.5E-1,9.E-1,9.5E-1,1.E0),.UNSPECIFIED.);
#231=CIRCLE('',#230,1.5E0);
#238=B_SPLINE_CURVE_WITH_KNOTS('',3,(#232,#233,#234,#235,#236,#237),
.UNSPECIFIED.,.F.,.F.,(4,1,1,4),(0.E0,3.333333333333E-1,6.666666666667E-1,1.E0),
.UNSPECIFIED.);
#245=B_SPLINE_CURVE_WITH_KNOTS('',3,(#239,#240,#241,#242,#243,#244),
.UNSPECIFIED.,.F.,.F.,(4,1,1,4),(0.E0,3.333333333333E-1,6.666666666667E-1,1.E0),
.UNSPECIFIED.);
#250=CIRCLE('',#249,1.5E0);
#257=B_SPLINE_CURVE_WITH_KNOTS('',3,(#251,#252,#253,#254,#255,#256),
.UNSPECIFIED.,.F.,.F.,(4,1,1,4),(0.E0,3.333333333333E-1,6.666666666667E-1,1.E0),
.UNSPECIFIED.);
#264=B_SPLINE_CURVE_WITH_KNOTS('',3,(#258,#259,#260,#261,#262,#263),
.UNSPECIFIED.,.F.,.F.,(4,1,1,4),(0.E0,3.333333333333E-1,6.666666666667E-1,1.E0),
.UNSPECIFIED.);
#349=CIRCLE('',#348,1.5E0);
#356=B_SPLINE_CURVE_WITH_KNOTS('',3,(#350,#351,#352,#353,#354,#355),
.UNSPECIFIED.,.F.,.F.,(4,1,1,4),(0.E0,3.333333333333E-1,6.666666666667E-1,1.E0),
.UNSPECIFIED.);
#363=B_SPLINE_CURVE_WITH_KNOTS('',3,(#357,#358,#359,#360,#361,#362),
.UNSPECIFIED.,.F.,.F.,(4,1,1,4),(0.E0,3.333333333333E-1,6.666666666667E-1,1.E0),
.UNSPECIFIED.);
#368=CIRCLE('',#367,1.5E0);
#375=B_SPLINE_CURVE_WITH_KNOTS('',3,(#369,#370,#371,#372,#373,#374),
.UNSPECIFIED.,.F.,.F.,(4,1,1,4),(0.E0,3.333333333333E-1,6.666666666667E-1,1.E0),
.UNSPECIFIED.);
#382=B_SPLINE_CURVE_WITH_KNOTS('',3,(#376,#377,#378,#379,#380,#381),
.UNSPECIFIED.,.F.,.F.,(4,1,1,4),(0.E0,3.333333333333E-1,6.666666666667E-1,1.E0),
.UNSPECIFIED.);
#406=B_SPLINE_CURVE_WITH_KNOTS('',3,(#383,#384,#385,#386,#387,#388,#389,#390,
#391,#392,#393,#394,#395,#396,#397,#398,#399,#400,#401,#402,#403,#404,#405),
.UNSPECIFIED.,.F.,.F.,(4,1,1,1,1,1,1,1,1,1,1,1,1,1,1,1,1,1,1,1,4),(0.E0,5.E-2,
1.E-1,1.5E-1,2.E-1,2.5E-1,3.E-1,3.5E-1,4.E-1,4.5E-1,5.E-1,5.5E-1,6.E-1,6.5E-1,
7.E-1,7.5E-1,8.E-1,8.5E-1,9.E-1,9.5E-1,1.E0),.UNSPECIFIED.);
#430=B_SPLINE_CURVE_WITH_KNOTS('',3,(#407,#408,#409,#410,#411,#412,#413,#414,
#415,#416,#417,#418,#419,#420,#421,#422,#423,#424,#425,#426,#427,#428,#429),
.UNSPECIFIED.,.F.,.F.,(4,1,1,1,1,1,1,1,1,1,1,1,1,1,1,1,1,1,1,1,4),(0.E0,5.E-2,
1.E-1,1.5E-1,2.E-1,2.5E-1,3.E-1,3.5E-1,4.E-1,4.5E-1,5.E-1,5.5E-1,6.E-1,6.5E-1,
7.E-1,7.5E-1,8.E-1,8.5E-1,9.E-1,9.5E-1,1.E0),.UNSPECIFIED.);
#435=CIRCLE('',#434,3.509725509944E0);
#444=CIRCLE('',#443,3.509725509944E0);
#472=B_SPLINE_CURVE_WITH_KNOTS('',3,(#449,#450,#451,#452,#453,#454,#455,#456,
#457,#458,#459,#460,#461,#462,#463,#464,#465,#466,#467,#468,#469,#470,#471),
.UNSPECIFIED.,.F.,.F.,(4,1,1,1,1,1,1,1,1,1,1,1,1,1,1,1,1,1,1,1,4),(0.E0,5.E-2,
1.E-1,1.5E-1,2.E-1,2.5E-1,3.E-1,3.5E-1,4.E-1,4.5E-1,5.E-1,5.5E-1,6.E-1,6.5E-1,
7.E-1,7.5E-1,8.E-1,8.5E-1,9.E-1,9.5E-1,1.E0),.UNSPECIFIED.);
#485=CIRCLE('',#484,1.5E0);
#490=CIRCLE('',#489,3.509725509944E0);
#495=CIRCLE('',#494,3.509725509944E0);
#504=CIRCLE('',#503,1.5E0);
#541=CIRCLE('',#540,1.5E0);
#548=B_SPLINE_CURVE_WITH_KNOTS('',3,(#542,#543,#544,#545,#546,#547),
.UNSPECIFIED.,.F.,.F.,(4,1,1,4),(0.E0,3.333333333333E-1,6.666666666667E-1,1.E0),
.UNSPECIFIED.);
#555=B_SPLINE_CURVE_WITH_KNOTS('',3,(#549,#550,#551,#552,#553,#554),
.UNSPECIFIED.,.F.,.F.,(4,1,1,4),(0.E0,3.333333333333E-1,6.666666666667E-1,1.E0),
.UNSPECIFIED.);
#560=CIRCLE('',#559,1.5E0);
#567=B_SPLINE_CURVE_WITH_KNOTS('',3,(#561,#562,#563,#564,#565,#566),
.UNSPECIFIED.,.F.,.F.,(4,1,1,4),(0.E0,3.333333333333E-1,6.666666666667E-1,1.E0),
.UNSPECIFIED.);
#574=B_SPLINE_CURVE_WITH_KNOTS('',3,(#568,#569,#570,#571,#572,#573),
.UNSPECIFIED.,.F.,.F.,(4,1,1,4),(0.E0,3.333333333333E-1,6.666666666667E-1,1.E0),
.UNSPECIFIED.);
#696=EDGE_CURVE('',#677,#678,#24,.T.);
#698=EDGE_CURVE('',#590,#678,#28,.T.);
#700=EDGE_CURVE('',#589,#590,#32,.T.);
#702=EDGE_CURVE('',#677,#589,#36,.T.);
#706=EDGE_CURVE('',#577,#578,#5,.T.);
#708=EDGE_CURVE('',#578,#577,#10,.T.);
#718=EDGE_CURVE('',#681,#682,#40,.T.);
#720=EDGE_CURVE('',#585,#681,#44,.T.);
#722=EDGE_CURVE('',#585,#586,#48,.T.);
#724=EDGE_CURVE('',#682,#586,#52,.T.);
#728=EDGE_CURVE('',#581,#582,#15,.T.);
#730=EDGE_CURVE('',#582,#581,#20,.T.);
#740=EDGE_CURVE('',#638,#637,#57,.T.);
#742=EDGE_CURVE('',#578,#637,#124,.T.);
#745=EDGE_CURVE('',#577,#638,#61,.T.);
#755=EDGE_CURVE('',#634,#633,#85,.T.);
#757=EDGE_CURVE('',#633,#637,#115,.T.);
#760=EDGE_CURVE('',#634,#638,#65,.T.);
#770=EDGE_CURVE('',#625,#626,#70,.T.);
#772=EDGE_CURVE('',#626,#625,#75,.T.);
#782=EDGE_CURVE('',#633,#634,#80,.T.);
#794=EDGE_CURVE('',#626,#630,#93,.T.);
#796=EDGE_CURVE('',#629,#630,#107,.T.);
#798=EDGE_CURVE('',#625,#629,#89,.T.);
#810=EDGE_CURVE('',#630,#629,#98,.T.);
#822=EDGE_CURVE('',#581,#629,#111,.T.);
#825=EDGE_CURVE('',#582,#630,#102,.T.);
#849=EDGE_CURVE('',#637,#638,#120,.T.);
#873=EDGE_CURVE('',#684,#677,#128,.T.);
#875=EDGE_CURVE('',#684,#690,#490,.T.);
#877=EDGE_CURVE('',#690,#678,#528,.T.);
#889=EDGE_CURVE('',#610,#589,#193,.T.);
#891=EDGE_CURVE('',#684,#610,#132,.T.);
#901=EDGE_CURVE('',#639,#640,#156,.T.);
#903=EDGE_CURVE('',#639,#642,#280,.T.);
#905=EDGE_CURVE('',#641,#642,#180,.T.);
#907=EDGE_CURVE('',#641,#600,#292,.T.);
#909=EDGE_CURVE('',#600,#609,#184,.T.);
#911=EDGE_CURVE('',#609,#610,#189,.T.);
#915=EDGE_CURVE('',#613,#590,#536,.T.);
#917=EDGE_CURVE('',#613,#614,#198,.T.);
#919=EDGE_CURVE('',#614,#606,#202,.T.);
#921=EDGE_CURVE('',#606,#644,#296,.T.);
#923=EDGE_CURVE('',#643,#644,#226,.T.);
#925=EDGE_CURVE('',#643,#640,#268,.T.);
#935=EDGE_CURVE('',#671,#659,#231,.T.);
#937=EDGE_CURVE('',#659,#645,#238,.T.);
#939=EDGE_CURVE('',#645,#646,#406,.T.);
#941=EDGE_CURVE('',#646,#656,#245,.T.);
#943=EDGE_CURVE('',#656,#668,#250,.T.);
#945=EDGE_CURVE('',#668,#639,#257,.T.);
#948=EDGE_CURVE('',#640,#671,#264,.T.);
#959=EDGE_CURVE('',#671,#672,#272,.T.);
#961=EDGE_CURVE('',#660,#672,#368,.T.);
#963=EDGE_CURVE('',#659,#660,#316,.T.);
#974=EDGE_CURVE('',#655,#656,#312,.T.);
#976=EDGE_CURVE('',#667,#655,#541,.T.);
#978=EDGE_CURVE('',#667,#668,#276,.T.);
#988=EDGE_CURVE('',#652,#664,#560,.T.);
#990=EDGE_CURVE('',#593,#652,#332,.T.);
#992=EDGE_CURVE('',#593,#594,#504,.T.);
#994=EDGE_CURVE('',#594,#664,#284,.T.);
#1004=EDGE_CURVE('',#674,#662,#349,.T.);
#1006=EDGE_CURVE('',#674,#598,#304,.T.);
#1008=EDGE_CURVE('',#597,#598,#485,.T.);
#1010=EDGE_CURVE('',#662,#597,#336,.T.);
#1022=EDGE_CURVE('',#672,#643,#375,.T.);
#1035=EDGE_CURVE('',#642,#667,#574,.T.);
#1046=EDGE_CURVE('',#664,#641,#567,.T.);
#1049=EDGE_CURVE('',#600,#594,#288,.T.);
#1060=EDGE_CURVE('',#644,#674,#382,.T.);
#1063=EDGE_CURVE('',#598,#606,#300,.T.);
#1075=EDGE_CURVE('',#647,#646,#308,.T.);
#1077=EDGE_CURVE('',#655,#647,#548,.T.);
#1090=EDGE_CURVE('',#650,#660,#363,.T.);
#1092=EDGE_CURVE('',#645,#650,#320,.T.);
#1102=EDGE_CURVE('',#648,#652,#555,.T.);
#1104=EDGE_CURVE('',#602,#648,#324,.T.);
#1106=EDGE_CURVE('',#593,#602,#328,.T.);
#1117=EDGE_CURVE('',#662,#649,#356,.T.);
#1120=EDGE_CURVE('',#604,#597,#340,.T.);
#1122=EDGE_CURVE('',#649,#604,#344,.T.);
#1134=EDGE_CURVE('',#649,#650,#430,.T.);
#1153=EDGE_CURVE('',#622,#604,#480,.T.);
#1155=EDGE_CURVE('',#621,#622,#435,.T.);
#1157=EDGE_CURVE('',#621,#586,#439,.T.);
#1160=EDGE_CURVE('',#618,#585,#516,.T.);
#1162=EDGE_CURVE('',#616,#618,#444,.T.);
#1164=EDGE_CURVE('',#616,#602,#448,.T.);
#1167=EDGE_CURVE('',#647,#648,#472,.T.);
#1178=EDGE_CURVE('',#614,#622,#476,.T.);
#1196=EDGE_CURVE('',#609,#616,#499,.T.);
#1199=EDGE_CURVE('',#618,#686,#512,.T.);
#1201=EDGE_CURVE('',#686,#688,#495,.T.);
#1203=EDGE_CURVE('',#621,#688,#524,.T.);
#1208=EDGE_CURVE('',#690,#613,#532,.T.);
#1232=EDGE_CURVE('',#686,#681,#508,.T.);
#1246=EDGE_CURVE('',#688,#682,#520,.T.);
#1295=(LENGTH_UNIT()NAMED_UNIT(*)SI_UNIT(.MILLI.,.METRE.));
#1297=(NAMED_UNIT(*)PLANE_ANGLE_UNIT()SI_UNIT($,.RADIAN.));
#1300=(NAMED_UNIT(*)SI_UNIT($,.STERADIAN.)SOLID_ANGLE_UNIT());
#1303=ADVANCED_BREP_SHAPE_REPRESENTATION('',(#1294),#1302);
#1310=PRODUCT_DEFINITION('design','',#1309,#1306);
#1311=PRODUCT_DEFINITION_SHAPE('','SHAPE FOR BRAKE1.',#1310);
#1312=SHAPE_DEFINITION_REPRESENTATION(#1311,#1303);
ENDSEC;
END-ISO-10303-21;
