ISO-10303-21;
HEADER;
FILE_DESCRIPTION((''),'2;1');
FILE_NAME('JOINTCOVER2','2026-07-24T09:00:01',('gram2'),(''),
'CREO PARAMETRIC BY PTC INC, 2016510','CREO PARAMETRIC BY PTC INC, 2016510','');
FILE_SCHEMA(('CONFIG_CONTROL_DESIGN'));
ENDSEC;
DATA;
#1=CARTESIAN_POINT('',(-1.229E1,9.69E0,0.E0));
#2=DIRECTION('',(0.E0,0.E0,-1.E0));
#3=DIRECTION('',(1.E0,0.E0,0.E0));
#4=AXIS2_PLACEMENT_3D('',#1,#2,#3);
#6=CARTESIAN_POINT('',(-1.229E1,9.69E0,0.E0));
#7=DIRECTION('',(0.E0,0.E0,-1.E0));
#8=DIRECTION('',(-1.E0,0.E0,0.E0));
#9=AXIS2_PLACEMENT_3D('',#6,#7,#8);
#11=CARTESIAN_POINT('',(1.229E1,9.69E0,0.E0));
#12=DIRECTION('',(0.E0,0.E0,-1.E0));
#13=DIRECTION('',(1.E0,0.E0,0.E0));
#14=AXIS2_PLACEMENT_3D('',#11,#12,#13);
#16=CARTESIAN_POINT('',(1.229E1,9.69E0,0.E0));
#17=DIRECTION('',(0.E0,0.E0,-1.E0));
#18=DIRECTION('',(-1.E0,0.E0,0.E0));
#19=AXIS2_PLACEMENT_3D('',#16,#17,#18);
#21=CARTESIAN_POINT('',(0.E0,0.E0,0.E0));
#22=DIRECTION('',(0.E0,0.E0,-1.E0));
#23=DIRECTION('',(1.E0,0.E0,0.E0));
#24=AXIS2_PLACEMENT_3D('',#21,#22,#23);
#26=CARTESIAN_POINT('',(0.E0,0.E0,0.E0));
#27=DIRECTION('',(0.E0,0.E0,-1.E0));
#28=DIRECTION('',(-1.E0,0.E0,0.E0));
#29=AXIS2_PLACEMENT_3D('',#26,#27,#28);
#31=CARTESIAN_POINT('',(-1.229E1,-8.235E0,0.E0));
#32=DIRECTION('',(0.E0,0.E0,-1.E0));
#33=DIRECTION('',(1.E0,0.E0,0.E0));
#34=AXIS2_PLACEMENT_3D('',#31,#32,#33);
#36=CARTESIAN_POINT('',(-1.229E1,-8.235E0,0.E0));
#37=DIRECTION('',(0.E0,0.E0,-1.E0));
#38=DIRECTION('',(-1.E0,0.E0,0.E0));
#39=AXIS2_PLACEMENT_3D('',#36,#37,#38);
#41=CARTESIAN_POINT('',(1.229E1,-8.235E0,0.E0));
#42=DIRECTION('',(0.E0,0.E0,-1.E0));
#43=DIRECTION('',(1.E0,0.E0,0.E0));
#44=AXIS2_PLACEMENT_3D('',#41,#42,#43);
#46=CARTESIAN_POINT('',(1.229E1,-8.235E0,0.E0));
#47=DIRECTION('',(0.E0,0.E0,-1.E0));
#48=DIRECTION('',(-1.E0,0.E0,0.E0));
#49=AXIS2_PLACEMENT_3D('',#46,#47,#48);
#51=DIRECTION('',(0.E0,-1.E0,0.E0));
#52=VECTOR('',#51,2.7E1);
#53=CARTESIAN_POINT('',(-1.88E1,1.35E1,0.E0));
#54=LINE('',#53,#52);
#55=DIRECTION('',(1.E0,0.E0,0.E0));
#56=VECTOR('',#55,3.76E1);
#57=CARTESIAN_POINT('',(-1.88E1,-1.35E1,0.E0));
#58=LINE('',#57,#56);
#59=DIRECTION('',(0.E0,1.E0,0.E0));
#60=VECTOR('',#59,2.7E1);
#61=CARTESIAN_POINT('',(1.88E1,-1.35E1,0.E0));
#62=LINE('',#61,#60);
#63=DIRECTION('',(-1.E0,0.E0,0.E0));
#64=VECTOR('',#63,3.76E1);
#65=CARTESIAN_POINT('',(1.88E1,1.35E1,0.E0));
#66=LINE('',#65,#64);
#67=CARTESIAN_POINT('',(-1.229E1,9.69E0,2.E0));
#68=DIRECTION('',(0.E0,0.E0,-1.E0));
#69=DIRECTION('',(1.E0,0.E0,0.E0));
#70=AXIS2_PLACEMENT_3D('',#67,#68,#69);
#72=DIRECTION('',(-6.250164834041E-10,-4.225714003579E-9,1.E0));
#73=VECTOR('',#72,1.999999998750E0);
#74=CARTESIAN_POINT('',(-1.069E1,9.69E0,0.E0));
#75=LINE('',#74,#73);
#76=DIRECTION('',(-7.071067811865E-1,6.972074705613E-9,-7.071067811865E-1));
#77=VECTOR('',#76,1.414213560311E0);
#78=CARTESIAN_POINT('',(-9.690000002708E0,9.689999981689E0,2.999999997292E0));
#79=LINE('',#78,#77);
#80=CARTESIAN_POINT('',(0.E0,0.E0,3.E0));
#81=DIRECTION('',(0.E0,0.E0,-1.E0));
#82=DIRECTION('',(1.E0,0.E0,0.E0));
#83=AXIS2_PLACEMENT_3D('',#80,#81,#82);
#85=CARTESIAN_POINT('',(0.E0,0.E0,3.E0));
#86=DIRECTION('',(0.E0,0.E0,-1.E0));
#87=DIRECTION('',(-1.E0,0.E0,0.E0));
#88=AXIS2_PLACEMENT_3D('',#85,#86,#87);
#90=DIRECTION('',(0.E0,-1.E0,0.E0));
#91=VECTOR('',#90,2.7E1);
#92=CARTESIAN_POINT('',(-1.88E1,1.35E1,3.E0));
#93=LINE('',#92,#91);
#94=DIRECTION('',(-1.E0,0.E0,0.E0));
#95=VECTOR('',#94,3.76E1);
#96=CARTESIAN_POINT('',(1.88E1,1.35E1,3.E0));
#97=LINE('',#96,#95);
#98=DIRECTION('',(0.E0,1.E0,0.E0));
#99=VECTOR('',#98,2.7E1);
#100=CARTESIAN_POINT('',(1.88E1,-1.35E1,3.E0));
#101=LINE('',#100,#99);
#102=DIRECTION('',(1.E0,0.E0,0.E0));
#103=VECTOR('',#102,3.76E1);
#104=CARTESIAN_POINT('',(-1.88E1,-1.35E1,3.E0));
#105=LINE('',#104,#103);
#106=CARTESIAN_POINT('',(-1.229E1,9.69E0,3.E0));
#107=DIRECTION('',(0.E0,0.E0,-1.E0));
#108=DIRECTION('',(1.E0,0.E0,0.E0));
#109=AXIS2_PLACEMENT_3D('',#106,#107,#108);
#111=CARTESIAN_POINT('',(-1.229E1,9.69E0,3.E0));
#112=DIRECTION('',(0.E0,0.E0,-1.E0));
#113=DIRECTION('',(-1.E0,0.E0,0.E0));
#114=AXIS2_PLACEMENT_3D('',#111,#112,#113);
#116=CARTESIAN_POINT('',(1.229E1,9.69E0,3.E0));
#117=DIRECTION('',(0.E0,0.E0,-1.E0));
#118=DIRECTION('',(1.E0,0.E0,0.E0));
#119=AXIS2_PLACEMENT_3D('',#116,#117,#118);
#121=CARTESIAN_POINT('',(1.229E1,9.69E0,3.E0));
#122=DIRECTION('',(0.E0,0.E0,-1.E0));
#123=DIRECTION('',(-1.E0,0.E0,0.E0));
#124=AXIS2_PLACEMENT_3D('',#121,#122,#123);
#126=CARTESIAN_POINT('',(1.229E1,-8.235E0,3.E0));
#127=DIRECTION('',(0.E0,0.E0,-1.E0));
#128=DIRECTION('',(1.E0,0.E0,0.E0));
#129=AXIS2_PLACEMENT_3D('',#126,#127,#128);
#131=CARTESIAN_POINT('',(1.229E1,-8.235E0,3.E0));
#132=DIRECTION('',(0.E0,0.E0,-1.E0));
#133=DIRECTION('',(-1.E0,0.E0,0.E0));
#134=AXIS2_PLACEMENT_3D('',#131,#132,#133);
#136=CARTESIAN_POINT('',(-1.229E1,-8.235E0,3.E0));
#137=DIRECTION('',(0.E0,0.E0,-1.E0));
#138=DIRECTION('',(1.E0,0.E0,0.E0));
#139=AXIS2_PLACEMENT_3D('',#136,#137,#138);
#141=CARTESIAN_POINT('',(-1.229E1,-8.235E0,3.E0));
#142=DIRECTION('',(0.E0,0.E0,-1.E0));
#143=DIRECTION('',(-1.E0,0.E0,0.E0));
#144=AXIS2_PLACEMENT_3D('',#141,#142,#143);
#146=DIRECTION('',(0.E0,0.E0,1.E0));
#147=VECTOR('',#146,3.E0);
#148=CARTESIAN_POINT('',(8.125E0,0.E0,0.E0));
#149=LINE('',#148,#147);
#150=DIRECTION('',(0.E0,0.E0,1.E0));
#151=VECTOR('',#150,3.E0);
#152=CARTESIAN_POINT('',(-8.125E0,0.E0,0.E0));
#153=LINE('',#152,#151);
#154=DIRECTION('',(0.E0,0.E0,1.E0));
#155=VECTOR('',#154,3.E0);
#156=CARTESIAN_POINT('',(-1.88E1,1.35E1,0.E0));
#157=LINE('',#156,#155);
#158=DIRECTION('',(0.E0,0.E0,1.E0));
#159=VECTOR('',#158,3.E0);
#160=CARTESIAN_POINT('',(1.88E1,1.35E1,0.E0));
#161=LINE('',#160,#159);
#162=DIRECTION('',(0.E0,0.E0,1.E0));
#163=VECTOR('',#162,3.E0);
#164=CARTESIAN_POINT('',(1.88E1,-1.35E1,0.E0));
#165=LINE('',#164,#163);
#166=DIRECTION('',(0.E0,0.E0,1.E0));
#167=VECTOR('',#166,3.E0);
#168=CARTESIAN_POINT('',(-1.88E1,-1.35E1,0.E0));
#169=LINE('',#168,#167);
#170=DIRECTION('',(7.071067811865E-1,-6.972074705613E-9,-7.071067811865E-1));
#171=VECTOR('',#170,1.414213560311E0);
#172=CARTESIAN_POINT('',(-1.488999999729E1,9.690000018311E0,2.999999997292E0));
#173=LINE('',#172,#171);
#174=CARTESIAN_POINT('',(-1.229E1,9.69E0,2.E0));
#175=DIRECTION('',(0.E0,0.E0,-1.E0));
#176=DIRECTION('',(-1.E0,0.E0,0.E0));
#177=AXIS2_PLACEMENT_3D('',#174,#175,#176);
#179=DIRECTION('',(6.250173715826E-10,4.225716668115E-9,1.E0));
#180=VECTOR('',#179,1.999999998750E0);
#181=CARTESIAN_POINT('',(-1.389E1,9.69E0,0.E0));
#182=LINE('',#181,#180);
#183=DIRECTION('',(-7.071067811865E-1,6.972074705613E-9,-7.071067811865E-1));
#184=VECTOR('',#183,1.414213560311E0);
#185=CARTESIAN_POINT('',(1.488999999729E1,9.689999981689E0,2.999999997292E0));
#186=LINE('',#185,#184);
#187=DIRECTION('',(7.071067811865E-1,-6.972073449539E-9,-7.071067811865E-1));
#188=VECTOR('',#187,1.414213560311E0);
#189=CARTESIAN_POINT('',(9.690000002708E0,9.690000018311E0,2.999999997292E0));
#190=LINE('',#189,#188);
#191=CARTESIAN_POINT('',(1.229E1,9.69E0,2.E0));
#192=DIRECTION('',(0.E0,0.E0,-1.E0));
#193=DIRECTION('',(-1.E0,0.E0,0.E0));
#194=AXIS2_PLACEMENT_3D('',#191,#192,#193);
#196=DIRECTION('',(6.250164834041E-10,4.225716668115E-9,1.E0));
#197=VECTOR('',#196,1.999999998750E0);
#198=CARTESIAN_POINT('',(1.069E1,9.69E0,0.E0));
#199=LINE('',#198,#197);
#200=CARTESIAN_POINT('',(1.229E1,9.69E0,2.E0));
#201=DIRECTION('',(0.E0,0.E0,-1.E0));
#202=DIRECTION('',(1.E0,0.E0,0.E0));
#203=AXIS2_PLACEMENT_3D('',#200,#201,#202);
#205=DIRECTION('',(-6.250173715826E-10,-4.225714003579E-9,1.E0));
#206=VECTOR('',#205,1.999999998750E0);
#207=CARTESIAN_POINT('',(1.389E1,9.69E0,0.E0));
#208=LINE('',#207,#206);
#209=DIRECTION('',(-7.071067811865E-1,6.972073449539E-9,-7.071067811865E-1));
#210=VECTOR('',#209,1.414213560311E0);
#211=CARTESIAN_POINT('',(1.488999999729E1,-8.235000018311E0,2.999999997292E0));
#212=LINE('',#211,#210);
#213=DIRECTION('',(7.071067811865E-1,-6.972077217761E-9,-7.071067811865E-1));
#214=VECTOR('',#213,1.414213560311E0);
#215=CARTESIAN_POINT('',(9.690000002708E0,-8.234999981689E0,2.999999997292E0));
#216=LINE('',#215,#214);
#217=CARTESIAN_POINT('',(1.229E1,-8.235E0,2.E0));
#218=DIRECTION('',(0.E0,0.E0,-1.E0));
#219=DIRECTION('',(-1.E0,0.E0,0.E0));
#220=AXIS2_PLACEMENT_3D('',#217,#218,#219);
#222=DIRECTION('',(6.250164834041E-10,4.225714891758E-9,1.E0));
#223=VECTOR('',#222,1.999999998750E0);
#224=CARTESIAN_POINT('',(1.069E1,-8.235E0,0.E0));
#225=LINE('',#224,#223);
#226=CARTESIAN_POINT('',(1.229E1,-8.235E0,2.E0));
#227=DIRECTION('',(0.E0,0.E0,-1.E0));
#228=DIRECTION('',(1.E0,0.E0,0.E0));
#229=AXIS2_PLACEMENT_3D('',#226,#227,#228);
#231=DIRECTION('',(-6.250173715826E-10,-4.225714891758E-9,1.E0));
#232=VECTOR('',#231,1.999999998750E0);
#233=CARTESIAN_POINT('',(1.389E1,-8.235E0,0.E0));
#234=LINE('',#233,#232);
#235=DIRECTION('',(-7.071067811865E-1,6.972075961687E-9,-7.071067811865E-1));
#236=VECTOR('',#235,1.414213560311E0);
#237=CARTESIAN_POINT('',(-9.690000002708E0,-8.235000018311E0,2.999999997292E0));
#238=LINE('',#237,#236);
#239=DIRECTION('',(7.071067811865E-1,-6.972074705613E-9,-7.071067811865E-1));
#240=VECTOR('',#239,1.414213560311E0);
#241=CARTESIAN_POINT('',(-1.488999999729E1,-8.234999981689E0,2.999999997292E0));
#242=LINE('',#241,#240);
#243=CARTESIAN_POINT('',(-1.229E1,-8.235E0,2.E0));
#244=DIRECTION('',(0.E0,0.E0,-1.E0));
#245=DIRECTION('',(-1.E0,0.E0,0.E0));
#246=AXIS2_PLACEMENT_3D('',#243,#244,#245);
#248=DIRECTION('',(6.250173715826E-10,4.225714891758E-9,1.E0));
#249=VECTOR('',#248,1.999999998750E0);
#250=CARTESIAN_POINT('',(-1.389E1,-8.235E0,0.E0));
#251=LINE('',#250,#249);
#252=CARTESIAN_POINT('',(-1.229E1,-8.235E0,2.E0));
#253=DIRECTION('',(0.E0,0.E0,-1.E0));
#254=DIRECTION('',(1.E0,0.E0,0.E0));
#255=AXIS2_PLACEMENT_3D('',#252,#253,#254);
#257=DIRECTION('',(-6.250164834041E-10,-4.225714891758E-9,1.E0));
#258=VECTOR('',#257,1.999999998750E0);
#259=CARTESIAN_POINT('',(-1.069E1,-8.235E0,0.E0));
#260=LINE('',#259,#258);
#261=CARTESIAN_POINT('',(-1.069E1,9.69E0,0.E0));
#262=CARTESIAN_POINT('',(-1.389E1,9.69E0,0.E0));
#263=VERTEX_POINT('',#261);
#264=VERTEX_POINT('',#262);
#265=CARTESIAN_POINT('',(1.389E1,9.69E0,0.E0));
#266=CARTESIAN_POINT('',(1.069E1,9.69E0,0.E0));
#267=VERTEX_POINT('',#265);
#268=VERTEX_POINT('',#266);
#269=CARTESIAN_POINT('',(8.125E0,0.E0,0.E0));
#270=CARTESIAN_POINT('',(-8.125E0,0.E0,0.E0));
#271=VERTEX_POINT('',#269);
#272=VERTEX_POINT('',#270);
#273=CARTESIAN_POINT('',(-1.88E1,1.35E1,0.E0));
#274=CARTESIAN_POINT('',(-1.88E1,-1.35E1,0.E0));
#275=VERTEX_POINT('',#273);
#276=VERTEX_POINT('',#274);
#277=CARTESIAN_POINT('',(1.88E1,-1.35E1,0.E0));
#278=VERTEX_POINT('',#277);
#279=CARTESIAN_POINT('',(1.88E1,1.35E1,0.E0));
#280=VERTEX_POINT('',#279);
#281=CARTESIAN_POINT('',(8.125E0,0.E0,3.E0));
#282=CARTESIAN_POINT('',(-8.125E0,0.E0,3.E0));
#283=VERTEX_POINT('',#281);
#284=VERTEX_POINT('',#282);
#285=CARTESIAN_POINT('',(-1.88E1,1.35E1,3.E0));
#286=CARTESIAN_POINT('',(-1.88E1,-1.35E1,3.E0));
#287=VERTEX_POINT('',#285);
#288=VERTEX_POINT('',#286);
#289=CARTESIAN_POINT('',(1.88E1,-1.35E1,3.E0));
#290=VERTEX_POINT('',#289);
#291=CARTESIAN_POINT('',(1.88E1,1.35E1,3.E0));
#292=VERTEX_POINT('',#291);
#293=CARTESIAN_POINT('',(-1.069E1,-8.235E0,0.E0));
#294=CARTESIAN_POINT('',(-1.389E1,-8.235E0,0.E0));
#295=VERTEX_POINT('',#293);
#296=VERTEX_POINT('',#294);
#297=CARTESIAN_POINT('',(1.389E1,-8.235E0,0.E0));
#298=CARTESIAN_POINT('',(1.069E1,-8.235E0,0.E0));
#299=VERTEX_POINT('',#297);
#300=VERTEX_POINT('',#298);
#301=CARTESIAN_POINT('',(-9.69E0,9.69E0,3.E0));
#302=CARTESIAN_POINT('',(-1.489E1,9.69E0,3.E0));
#303=VERTEX_POINT('',#301);
#304=VERTEX_POINT('',#302);
#305=CARTESIAN_POINT('',(-1.069E1,9.69E0,2.E0));
#306=CARTESIAN_POINT('',(-1.389E1,9.69E0,2.E0));
#307=VERTEX_POINT('',#305);
#308=VERTEX_POINT('',#306);
#309=CARTESIAN_POINT('',(1.489E1,9.69E0,3.E0));
#310=CARTESIAN_POINT('',(9.69E0,9.69E0,3.E0));
#311=VERTEX_POINT('',#309);
#312=VERTEX_POINT('',#310);
#313=CARTESIAN_POINT('',(1.389E1,9.69E0,2.E0));
#314=CARTESIAN_POINT('',(1.069E1,9.69E0,2.E0));
#315=VERTEX_POINT('',#313);
#316=VERTEX_POINT('',#314);
#317=CARTESIAN_POINT('',(1.489E1,-8.235E0,3.E0));
#318=CARTESIAN_POINT('',(9.69E0,-8.235E0,3.E0));
#319=VERTEX_POINT('',#317);
#320=VERTEX_POINT('',#318);
#321=CARTESIAN_POINT('',(1.389E1,-8.235E0,2.E0));
#322=CARTESIAN_POINT('',(1.069E1,-8.235E0,2.E0));
#323=VERTEX_POINT('',#321);
#324=VERTEX_POINT('',#322);
#325=CARTESIAN_POINT('',(-9.69E0,-8.235E0,3.E0));
#326=CARTESIAN_POINT('',(-1.489E1,-8.235E0,3.E0));
#327=VERTEX_POINT('',#325);
#328=VERTEX_POINT('',#326);
#329=CARTESIAN_POINT('',(-1.069E1,-8.235E0,2.E0));
#330=CARTESIAN_POINT('',(-1.389E1,-8.235E0,2.E0));
#331=VERTEX_POINT('',#329);
#332=VERTEX_POINT('',#330);
#333=CARTESIAN_POINT('',(0.E0,0.E0,0.E0));
#334=DIRECTION('',(0.E0,0.E0,1.E0));
#335=DIRECTION('',(1.E0,0.E0,0.E0));
#336=AXIS2_PLACEMENT_3D('',#333,#334,#335);
#337=PLANE('',#336);
#339=ORIENTED_EDGE('',*,*,#338,.T.);
#341=ORIENTED_EDGE('',*,*,#340,.T.);
#343=ORIENTED_EDGE('',*,*,#342,.T.);
#345=ORIENTED_EDGE('',*,*,#344,.T.);
#346=EDGE_LOOP('',(#339,#341,#343,#345));
#347=FACE_OUTER_BOUND('',#346,.F.);
#349=ORIENTED_EDGE('',*,*,#348,.T.);
#351=ORIENTED_EDGE('',*,*,#350,.T.);
#352=EDGE_LOOP('',(#349,#351));
#353=FACE_BOUND('',#352,.F.);
#355=ORIENTED_EDGE('',*,*,#354,.T.);
#357=ORIENTED_EDGE('',*,*,#356,.T.);
#358=EDGE_LOOP('',(#355,#357));
#359=FACE_BOUND('',#358,.F.);
#361=ORIENTED_EDGE('',*,*,#360,.T.);
#363=ORIENTED_EDGE('',*,*,#362,.T.);
#364=EDGE_LOOP('',(#361,#363));
#365=FACE_BOUND('',#364,.F.);
#367=ORIENTED_EDGE('',*,*,#366,.T.);
#369=ORIENTED_EDGE('',*,*,#368,.T.);
#370=EDGE_LOOP('',(#367,#369));
#371=FACE_BOUND('',#370,.F.);
#373=ORIENTED_EDGE('',*,*,#372,.T.);
#375=ORIENTED_EDGE('',*,*,#374,.T.);
#376=EDGE_LOOP('',(#373,#375));
#377=FACE_BOUND('',#376,.F.);
#378=ADVANCED_FACE('',(#347,#353,#359,#365,#371,#377),#337,.F.);
#379=CARTESIAN_POINT('',(-1.229E1,9.69E0,0.E0));
#380=DIRECTION('',(0.E0,0.E0,1.E0));
#381=DIRECTION('',(1.E0,0.E0,0.E0));
#382=AXIS2_PLACEMENT_3D('',#379,#380,#381);
#383=CYLINDRICAL_SURFACE('',#382,1.6E0);
#385=ORIENTED_EDGE('',*,*,#384,.T.);
#387=ORIENTED_EDGE('',*,*,#386,.F.);
#388=ORIENTED_EDGE('',*,*,#372,.F.);
#390=ORIENTED_EDGE('',*,*,#389,.T.);
#391=EDGE_LOOP('',(#385,#387,#388,#390));
#392=FACE_OUTER_BOUND('',#391,.F.);
#393=ADVANCED_FACE('',(#392),#383,.F.);
#394=CARTESIAN_POINT('',(-1.229E1,9.69E0,2.499999998840E0));
#395=DIRECTION('',(0.E0,0.E0,1.E0));
#396=DIRECTION('',(0.E0,-1.E0,0.E0));
#397=AXIS2_PLACEMENT_3D('',#394,#395,#396);
#398=CONICAL_SURFACE('',#397,2.099999998840E0,4.5E1);
#400=ORIENTED_EDGE('',*,*,#399,.T.);
#402=ORIENTED_EDGE('',*,*,#401,.T.);
#403=ORIENTED_EDGE('',*,*,#384,.F.);
#405=ORIENTED_EDGE('',*,*,#404,.F.);
#406=EDGE_LOOP('',(#400,#402,#403,#405));
#407=FACE_OUTER_BOUND('',#406,.F.);
#408=ADVANCED_FACE('',(#407),#398,.F.);
#409=CARTESIAN_POINT('',(0.E0,0.E0,3.E0));
#410=DIRECTION('',(0.E0,0.E0,1.E0));
#411=DIRECTION('',(1.E0,0.E0,0.E0));
#412=AXIS2_PLACEMENT_3D('',#409,#410,#411);
#413=PLANE('',#412);
#415=ORIENTED_EDGE('',*,*,#414,.F.);
#417=ORIENTED_EDGE('',*,*,#416,.F.);
#419=ORIENTED_EDGE('',*,*,#418,.F.);
#421=ORIENTED_EDGE('',*,*,#420,.F.);
#422=EDGE_LOOP('',(#415,#417,#419,#421));
#423=FACE_OUTER_BOUND('',#422,.F.);
#425=ORIENTED_EDGE('',*,*,#424,.F.);
#427=ORIENTED_EDGE('',*,*,#426,.F.);
#428=EDGE_LOOP('',(#425,#427));
#429=FACE_BOUND('',#428,.F.);
#430=ORIENTED_EDGE('',*,*,#399,.F.);
#432=ORIENTED_EDGE('',*,*,#431,.F.);
#433=EDGE_LOOP('',(#430,#432));
#434=FACE_BOUND('',#433,.F.);
#436=ORIENTED_EDGE('',*,*,#435,.F.);
#438=ORIENTED_EDGE('',*,*,#437,.F.);
#439=EDGE_LOOP('',(#436,#438));
#440=FACE_BOUND('',#439,.F.);
#442=ORIENTED_EDGE('',*,*,#441,.F.);
#444=ORIENTED_EDGE('',*,*,#443,.F.);
#445=EDGE_LOOP('',(#442,#444));
#446=FACE_BOUND('',#445,.F.);
#448=ORIENTED_EDGE('',*,*,#447,.F.);
#450=ORIENTED_EDGE('',*,*,#449,.F.);
#451=EDGE_LOOP('',(#448,#450));
#452=FACE_BOUND('',#451,.F.);
#453=ADVANCED_FACE('',(#423,#429,#434,#440,#446,#452),#413,.T.);
#454=CARTESIAN_POINT('',(0.E0,0.E0,0.E0));
#455=DIRECTION('',(0.E0,0.E0,1.E0));
#456=DIRECTION('',(1.E0,0.E0,0.E0));
#457=AXIS2_PLACEMENT_3D('',#454,#455,#456);
#458=CYLINDRICAL_SURFACE('',#457,8.125E0);
#459=ORIENTED_EDGE('',*,*,#354,.F.);
#461=ORIENTED_EDGE('',*,*,#460,.T.);
#462=ORIENTED_EDGE('',*,*,#424,.T.);
#464=ORIENTED_EDGE('',*,*,#463,.F.);
#465=EDGE_LOOP('',(#459,#461,#462,#464));
#466=FACE_OUTER_BOUND('',#465,.F.);
#467=ADVANCED_FACE('',(#466),#458,.F.);
#468=CARTESIAN_POINT('',(0.E0,0.E0,0.E0));
#469=DIRECTION('',(0.E0,0.E0,1.E0));
#470=DIRECTION('',(1.E0,0.E0,0.E0));
#471=AXIS2_PLACEMENT_3D('',#468,#469,#470);
#472=CYLINDRICAL_SURFACE('',#471,8.125E0);
#473=ORIENTED_EDGE('',*,*,#356,.F.);
#474=ORIENTED_EDGE('',*,*,#463,.T.);
#475=ORIENTED_EDGE('',*,*,#426,.T.);
#476=ORIENTED_EDGE('',*,*,#460,.F.);
#477=EDGE_LOOP('',(#473,#474,#475,#476));
#478=FACE_OUTER_BOUND('',#477,.F.);
#479=ADVANCED_FACE('',(#478),#472,.F.);
#480=CARTESIAN_POINT('',(-1.88E1,1.35E1,0.E0));
#481=DIRECTION('',(-1.E0,0.E0,0.E0));
#482=DIRECTION('',(0.E0,-1.E0,0.E0));
#483=AXIS2_PLACEMENT_3D('',#480,#481,#482);
#484=PLANE('',#483);
#485=ORIENTED_EDGE('',*,*,#338,.F.);
#487=ORIENTED_EDGE('',*,*,#486,.T.);
#488=ORIENTED_EDGE('',*,*,#414,.T.);
#490=ORIENTED_EDGE('',*,*,#489,.F.);
#491=EDGE_LOOP('',(#485,#487,#488,#490));
#492=FACE_OUTER_BOUND('',#491,.F.);
#493=ADVANCED_FACE('',(#492),#484,.T.);
#494=CARTESIAN_POINT('',(1.88E1,1.35E1,0.E0));
#495=DIRECTION('',(0.E0,1.E0,0.E0));
#496=DIRECTION('',(-1.E0,0.E0,0.E0));
#497=AXIS2_PLACEMENT_3D('',#494,#495,#496);
#498=PLANE('',#497);
#499=ORIENTED_EDGE('',*,*,#344,.F.);
#501=ORIENTED_EDGE('',*,*,#500,.T.);
#502=ORIENTED_EDGE('',*,*,#416,.T.);
#503=ORIENTED_EDGE('',*,*,#486,.F.);
#504=EDGE_LOOP('',(#499,#501,#502,#503));
#505=FACE_OUTER_BOUND('',#504,.F.);
#506=ADVANCED_FACE('',(#505),#498,.T.);
#507=CARTESIAN_POINT('',(1.88E1,-1.35E1,0.E0));
#508=DIRECTION('',(1.E0,0.E0,0.E0));
#509=DIRECTION('',(0.E0,1.E0,0.E0));
#510=AXIS2_PLACEMENT_3D('',#507,#508,#509);
#511=PLANE('',#510);
#512=ORIENTED_EDGE('',*,*,#342,.F.);
#514=ORIENTED_EDGE('',*,*,#513,.T.);
#515=ORIENTED_EDGE('',*,*,#418,.T.);
#516=ORIENTED_EDGE('',*,*,#500,.F.);
#517=EDGE_LOOP('',(#512,#514,#515,#516));
#518=FACE_OUTER_BOUND('',#517,.F.);
#519=ADVANCED_FACE('',(#518),#511,.T.);
#520=CARTESIAN_POINT('',(-1.88E1,-1.35E1,0.E0));
#521=DIRECTION('',(0.E0,-1.E0,0.E0));
#522=DIRECTION('',(1.E0,0.E0,0.E0));
#523=AXIS2_PLACEMENT_3D('',#520,#521,#522);
#524=PLANE('',#523);
#525=ORIENTED_EDGE('',*,*,#340,.F.);
#526=ORIENTED_EDGE('',*,*,#489,.T.);
#527=ORIENTED_EDGE('',*,*,#420,.T.);
#528=ORIENTED_EDGE('',*,*,#513,.F.);
#529=EDGE_LOOP('',(#525,#526,#527,#528));
#530=FACE_OUTER_BOUND('',#529,.F.);
#531=ADVANCED_FACE('',(#530),#524,.T.);
#532=CARTESIAN_POINT('',(-1.229E1,9.69E0,2.499999998840E0));
#533=DIRECTION('',(0.E0,0.E0,1.E0));
#534=DIRECTION('',(0.E0,-1.E0,0.E0));
#535=AXIS2_PLACEMENT_3D('',#532,#533,#534);
#536=CONICAL_SURFACE('',#535,2.099999998840E0,4.5E1);
#537=ORIENTED_EDGE('',*,*,#431,.T.);
#538=ORIENTED_EDGE('',*,*,#404,.T.);
#540=ORIENTED_EDGE('',*,*,#539,.F.);
#541=ORIENTED_EDGE('',*,*,#401,.F.);
#542=EDGE_LOOP('',(#537,#538,#540,#541));
#543=FACE_OUTER_BOUND('',#542,.F.);
#544=ADVANCED_FACE('',(#543),#536,.F.);
#545=CARTESIAN_POINT('',(-1.229E1,9.69E0,0.E0));
#546=DIRECTION('',(0.E0,0.E0,1.E0));
#547=DIRECTION('',(1.E0,0.E0,0.E0));
#548=AXIS2_PLACEMENT_3D('',#545,#546,#547);
#549=CYLINDRICAL_SURFACE('',#548,1.6E0);
#550=ORIENTED_EDGE('',*,*,#539,.T.);
#551=ORIENTED_EDGE('',*,*,#389,.F.);
#552=ORIENTED_EDGE('',*,*,#374,.F.);
#553=ORIENTED_EDGE('',*,*,#386,.T.);
#554=EDGE_LOOP('',(#550,#551,#552,#553));
#555=FACE_OUTER_BOUND('',#554,.F.);
#556=ADVANCED_FACE('',(#555),#549,.F.);
#557=CARTESIAN_POINT('',(1.229E1,9.69E0,2.499999998840E0));
#558=DIRECTION('',(0.E0,0.E0,1.E0));
#559=DIRECTION('',(0.E0,-1.E0,0.E0));
#560=AXIS2_PLACEMENT_3D('',#557,#558,#559);
#561=CONICAL_SURFACE('',#560,2.099999998840E0,4.5E1);
#562=ORIENTED_EDGE('',*,*,#435,.T.);
#564=ORIENTED_EDGE('',*,*,#563,.T.);
#566=ORIENTED_EDGE('',*,*,#565,.F.);
#568=ORIENTED_EDGE('',*,*,#567,.F.);
#569=EDGE_LOOP('',(#562,#564,#566,#568));
#570=FACE_OUTER_BOUND('',#569,.F.);
#571=ADVANCED_FACE('',(#570),#561,.F.);
#572=CARTESIAN_POINT('',(1.229E1,9.69E0,2.499999998840E0));
#573=DIRECTION('',(0.E0,0.E0,1.E0));
#574=DIRECTION('',(0.E0,-1.E0,0.E0));
#575=AXIS2_PLACEMENT_3D('',#572,#573,#574);
#576=CONICAL_SURFACE('',#575,2.099999998840E0,4.5E1);
#577=ORIENTED_EDGE('',*,*,#437,.T.);
#578=ORIENTED_EDGE('',*,*,#567,.T.);
#580=ORIENTED_EDGE('',*,*,#579,.F.);
#581=ORIENTED_EDGE('',*,*,#563,.F.);
#582=EDGE_LOOP('',(#577,#578,#580,#581));
#583=FACE_OUTER_BOUND('',#582,.F.);
#584=ADVANCED_FACE('',(#583),#576,.F.);
#585=CARTESIAN_POINT('',(1.229E1,9.69E0,0.E0));
#586=DIRECTION('',(0.E0,0.E0,1.E0));
#587=DIRECTION('',(1.E0,0.E0,0.E0));
#588=AXIS2_PLACEMENT_3D('',#585,#586,#587);
#589=CYLINDRICAL_SURFACE('',#588,1.6E0);
#590=ORIENTED_EDGE('',*,*,#579,.T.);
#592=ORIENTED_EDGE('',*,*,#591,.F.);
#593=ORIENTED_EDGE('',*,*,#350,.F.);
#595=ORIENTED_EDGE('',*,*,#594,.T.);
#596=EDGE_LOOP('',(#590,#592,#593,#595));
#597=FACE_OUTER_BOUND('',#596,.F.);
#598=ADVANCED_FACE('',(#597),#589,.F.);
#599=CARTESIAN_POINT('',(1.229E1,9.69E0,0.E0));
#600=DIRECTION('',(0.E0,0.E0,1.E0));
#601=DIRECTION('',(1.E0,0.E0,0.E0));
#602=AXIS2_PLACEMENT_3D('',#599,#600,#601);
#603=CYLINDRICAL_SURFACE('',#602,1.6E0);
#604=ORIENTED_EDGE('',*,*,#565,.T.);
#605=ORIENTED_EDGE('',*,*,#594,.F.);
#606=ORIENTED_EDGE('',*,*,#348,.F.);
#607=ORIENTED_EDGE('',*,*,#591,.T.);
#608=EDGE_LOOP('',(#604,#605,#606,#607));
#609=FACE_OUTER_BOUND('',#608,.F.);
#610=ADVANCED_FACE('',(#609),#603,.F.);
#611=CARTESIAN_POINT('',(1.229E1,-8.235E0,2.499999998840E0));
#612=DIRECTION('',(0.E0,0.E0,1.E0));
#613=DIRECTION('',(0.E0,-1.E0,0.E0));
#614=AXIS2_PLACEMENT_3D('',#611,#612,#613);
#615=CONICAL_SURFACE('',#614,2.099999998840E0,4.5E1);
#616=ORIENTED_EDGE('',*,*,#441,.T.);
#618=ORIENTED_EDGE('',*,*,#617,.T.);
#620=ORIENTED_EDGE('',*,*,#619,.F.);
#622=ORIENTED_EDGE('',*,*,#621,.F.);
#623=EDGE_LOOP('',(#616,#618,#620,#622));
#624=FACE_OUTER_BOUND('',#623,.F.);
#625=ADVANCED_FACE('',(#624),#615,.F.);
#626=CARTESIAN_POINT('',(1.229E1,-8.235E0,2.499999998840E0));
#627=DIRECTION('',(0.E0,0.E0,1.E0));
#628=DIRECTION('',(0.E0,-1.E0,0.E0));
#629=AXIS2_PLACEMENT_3D('',#626,#627,#628);
#630=CONICAL_SURFACE('',#629,2.099999998840E0,4.5E1);
#631=ORIENTED_EDGE('',*,*,#443,.T.);
#632=ORIENTED_EDGE('',*,*,#621,.T.);
#634=ORIENTED_EDGE('',*,*,#633,.F.);
#635=ORIENTED_EDGE('',*,*,#617,.F.);
#636=EDGE_LOOP('',(#631,#632,#634,#635));
#637=FACE_OUTER_BOUND('',#636,.F.);
#638=ADVANCED_FACE('',(#637),#630,.F.);
#639=CARTESIAN_POINT('',(1.229E1,-8.235E0,0.E0));
#640=DIRECTION('',(0.E0,0.E0,1.E0));
#641=DIRECTION('',(1.E0,0.E0,0.E0));
#642=AXIS2_PLACEMENT_3D('',#639,#640,#641);
#643=CYLINDRICAL_SURFACE('',#642,1.6E0);
#644=ORIENTED_EDGE('',*,*,#633,.T.);
#646=ORIENTED_EDGE('',*,*,#645,.F.);
#647=ORIENTED_EDGE('',*,*,#368,.F.);
#649=ORIENTED_EDGE('',*,*,#648,.T.);
#650=EDGE_LOOP('',(#644,#646,#647,#649));
#651=FACE_OUTER_BOUND('',#650,.F.);
#652=ADVANCED_FACE('',(#651),#643,.F.);
#653=CARTESIAN_POINT('',(1.229E1,-8.235E0,0.E0));
#654=DIRECTION('',(0.E0,0.E0,1.E0));
#655=DIRECTION('',(1.E0,0.E0,0.E0));
#656=AXIS2_PLACEMENT_3D('',#653,#654,#655);
#657=CYLINDRICAL_SURFACE('',#656,1.6E0);
#658=ORIENTED_EDGE('',*,*,#619,.T.);
#659=ORIENTED_EDGE('',*,*,#648,.F.);
#660=ORIENTED_EDGE('',*,*,#366,.F.);
#661=ORIENTED_EDGE('',*,*,#645,.T.);
#662=EDGE_LOOP('',(#658,#659,#660,#661));
#663=FACE_OUTER_BOUND('',#662,.F.);
#664=ADVANCED_FACE('',(#663),#657,.F.);
#665=CARTESIAN_POINT('',(-1.229E1,-8.235E0,2.499999998840E0));
#666=DIRECTION('',(0.E0,0.E0,1.E0));
#667=DIRECTION('',(0.E0,-1.E0,0.E0));
#668=AXIS2_PLACEMENT_3D('',#665,#666,#667);
#669=CONICAL_SURFACE('',#668,2.099999998840E0,4.5E1);
#670=ORIENTED_EDGE('',*,*,#447,.T.);
#672=ORIENTED_EDGE('',*,*,#671,.T.);
#674=ORIENTED_EDGE('',*,*,#673,.F.);
#676=ORIENTED_EDGE('',*,*,#675,.F.);
#677=EDGE_LOOP('',(#670,#672,#674,#676));
#678=FACE_OUTER_BOUND('',#677,.F.);
#679=ADVANCED_FACE('',(#678),#669,.F.);
#680=CARTESIAN_POINT('',(-1.229E1,-8.235E0,2.499999998840E0));
#681=DIRECTION('',(0.E0,0.E0,1.E0));
#682=DIRECTION('',(0.E0,-1.E0,0.E0));
#683=AXIS2_PLACEMENT_3D('',#680,#681,#682);
#684=CONICAL_SURFACE('',#683,2.099999998840E0,4.5E1);
#685=ORIENTED_EDGE('',*,*,#449,.T.);
#686=ORIENTED_EDGE('',*,*,#675,.T.);
#688=ORIENTED_EDGE('',*,*,#687,.F.);
#689=ORIENTED_EDGE('',*,*,#671,.F.);
#690=EDGE_LOOP('',(#685,#686,#688,#689));
#691=FACE_OUTER_BOUND('',#690,.F.);
#692=ADVANCED_FACE('',(#691),#684,.F.);
#693=CARTESIAN_POINT('',(-1.229E1,-8.235E0,0.E0));
#694=DIRECTION('',(0.E0,0.E0,1.E0));
#695=DIRECTION('',(1.E0,0.E0,0.E0));
#696=AXIS2_PLACEMENT_3D('',#693,#694,#695);
#697=CYLINDRICAL_SURFACE('',#696,1.6E0);
#698=ORIENTED_EDGE('',*,*,#687,.T.);
#700=ORIENTED_EDGE('',*,*,#699,.F.);
#701=ORIENTED_EDGE('',*,*,#362,.F.);
#703=ORIENTED_EDGE('',*,*,#702,.T.);
#704=EDGE_LOOP('',(#698,#700,#701,#703));
#705=FACE_OUTER_BOUND('',#704,.F.);
#706=ADVANCED_FACE('',(#705),#697,.F.);
#707=CARTESIAN_POINT('',(-1.229E1,-8.235E0,0.E0));
#708=DIRECTION('',(0.E0,0.E0,1.E0));
#709=DIRECTION('',(1.E0,0.E0,0.E0));
#710=AXIS2_PLACEMENT_3D('',#707,#708,#709);
#711=CYLINDRICAL_SURFACE('',#710,1.6E0);
#712=ORIENTED_EDGE('',*,*,#673,.T.);
#713=ORIENTED_EDGE('',*,*,#702,.F.);
#714=ORIENTED_EDGE('',*,*,#360,.F.);
#715=ORIENTED_EDGE('',*,*,#699,.T.);
#716=EDGE_LOOP('',(#712,#713,#714,#715));
#717=FACE_OUTER_BOUND('',#716,.F.);
#718=ADVANCED_FACE('',(#717),#711,.F.);
#719=CLOSED_SHELL('',(#378,#393,#408,#453,#467,#479,#493,#506,#519,#531,#544,
#556,#571,#584,#598,#610,#625,#638,#652,#664,#679,#692,#706,#718));
#720=MANIFOLD_SOLID_BREP('',#719);
#722=DIMENSIONAL_EXPONENTS(0.E0,0.E0,0.E0,0.E0,0.E0,0.E0,0.E0);
#724=PLANE_ANGLE_MEASURE_WITH_UNIT(PLANE_ANGLE_MEASURE(1.745329251994E-2),#723);
#725=(CONVERSION_BASED_UNIT('DEGREE',#724)NAMED_UNIT(*)PLANE_ANGLE_UNIT());
#727=UNCERTAINTY_MEASURE_WITH_UNIT(LENGTH_MEASURE(4.638521168051E-3),#721,
'closure',
'Maximum model space distance between geometric entities at asserted connectivities');
#728=(GEOMETRIC_REPRESENTATION_CONTEXT(3)GLOBAL_UNCERTAINTY_ASSIGNED_CONTEXT((
#727))GLOBAL_UNIT_ASSIGNED_CONTEXT((#721,#725,#726))REPRESENTATION_CONTEXT
('ID1','3'));
#730=APPLICATION_CONTEXT(
'CONFIGURATION CONTROLLED 3D DESIGNS OF MECHANICAL PARTS AND ASSEMBLIES');
#731=APPLICATION_PROTOCOL_DEFINITION('international standard',
'config_control_design',1994,#730);
#732=DESIGN_CONTEXT('',#730,'design');
#733=MECHANICAL_CONTEXT('',#730,'mechanical');
#734=PRODUCT('JOINTCOVER2','JOINTCOVER2','NOT SPECIFIED',(#733));
#735=PRODUCT_DEFINITION_FORMATION_WITH_SPECIFIED_SOURCE('3','LAST_VERSION',#734,
.MADE.);
#739=PRODUCT_CATEGORY('part','');
#740=PRODUCT_RELATED_PRODUCT_CATEGORY('detail','',(#734));
#741=PRODUCT_CATEGORY_RELATIONSHIP('','',#739,#740);
#742=SECURITY_CLASSIFICATION_LEVEL('unclassified');
#743=SECURITY_CLASSIFICATION('','',#742);
#744=CC_DESIGN_SECURITY_CLASSIFICATION(#743,(#735));
#745=APPROVAL_STATUS('approved');
#746=APPROVAL(#745,'');
#747=CC_DESIGN_APPROVAL(#746,(#743,#735,#736));
#748=CALENDAR_DATE(126,24,7);
#749=COORDINATED_UNIVERSAL_TIME_OFFSET(8,0,.AHEAD.);
#750=LOCAL_TIME(9,0,1.E0,#749);
#751=DATE_AND_TIME(#748,#750);
#752=APPROVAL_DATE_TIME(#751,#746);
#753=DATE_TIME_ROLE('creation_date');
#754=CC_DESIGN_DATE_AND_TIME_ASSIGNMENT(#751,#753,(#736));
#755=DATE_TIME_ROLE('classification_date');
#756=CC_DESIGN_DATE_AND_TIME_ASSIGNMENT(#751,#755,(#743));
#757=PERSON('UNSPECIFIED','UNSPECIFIED',$,$,$,$);
#758=ORGANIZATION('UNSPECIFIED','UNSPECIFIED','UNSPECIFIED');
#759=PERSON_AND_ORGANIZATION(#757,#758);
#760=APPROVAL_ROLE('approver');
#761=APPROVAL_PERSON_ORGANIZATION(#759,#746,#760);
#762=PERSON_AND_ORGANIZATION_ROLE('creator');
#763=CC_DESIGN_PERSON_AND_ORGANIZATION_ASSIGNMENT(#759,#762,(#735,#736));
#764=PERSON_AND_ORGANIZATION_ROLE('design_supplier');
#765=CC_DESIGN_PERSON_AND_ORGANIZATION_ASSIGNMENT(#759,#764,(#735));
#766=PERSON_AND_ORGANIZATION_ROLE('classification_officer');
#767=CC_DESIGN_PERSON_AND_ORGANIZATION_ASSIGNMENT(#759,#766,(#743));
#768=PERSON_AND_ORGANIZATION_ROLE('design_owner');
#769=CC_DESIGN_PERSON_AND_ORGANIZATION_ASSIGNMENT(#759,#768,(#734));
#5=CIRCLE('',#4,1.6E0);
#10=CIRCLE('',#9,1.6E0);
#15=CIRCLE('',#14,1.6E0);
#20=CIRCLE('',#19,1.6E0);
#25=CIRCLE('',#24,8.125E0);
#30=CIRCLE('',#29,8.125E0);
#35=CIRCLE('',#34,1.6E0);
#40=CIRCLE('',#39,1.6E0);
#45=CIRCLE('',#44,1.6E0);
#50=CIRCLE('',#49,1.6E0);
#71=CIRCLE('',#70,1.6E0);
#84=CIRCLE('',#83,8.125E0);
#89=CIRCLE('',#88,8.125E0);
#110=CIRCLE('',#109,2.6E0);
#115=CIRCLE('',#114,2.6E0);
#120=CIRCLE('',#119,2.6E0);
#125=CIRCLE('',#124,2.6E0);
#130=CIRCLE('',#129,2.6E0);
#135=CIRCLE('',#134,2.6E0);
#140=CIRCLE('',#139,2.6E0);
#145=CIRCLE('',#144,2.6E0);
#178=CIRCLE('',#177,1.6E0);
#195=CIRCLE('',#194,1.6E0);
#204=CIRCLE('',#203,1.6E0);
#221=CIRCLE('',#220,1.6E0);
#230=CIRCLE('',#229,1.6E0);
#247=CIRCLE('',#246,1.6E0);
#256=CIRCLE('',#255,1.6E0);
#338=EDGE_CURVE('',#275,#276,#54,.T.);
#340=EDGE_CURVE('',#276,#278,#58,.T.);
#342=EDGE_CURVE('',#278,#280,#62,.T.);
#344=EDGE_CURVE('',#280,#275,#66,.T.);
#348=EDGE_CURVE('',#267,#268,#15,.T.);
#350=EDGE_CURVE('',#268,#267,#20,.T.);
#354=EDGE_CURVE('',#271,#272,#25,.T.);
#356=EDGE_CURVE('',#272,#271,#30,.T.);
#360=EDGE_CURVE('',#295,#296,#35,.T.);
#362=EDGE_CURVE('',#296,#295,#40,.T.);
#366=EDGE_CURVE('',#299,#300,#45,.T.);
#368=EDGE_CURVE('',#300,#299,#50,.T.);
#372=EDGE_CURVE('',#263,#264,#5,.T.);
#374=EDGE_CURVE('',#264,#263,#10,.T.);
#384=EDGE_CURVE('',#307,#308,#71,.T.);
#386=EDGE_CURVE('',#264,#308,#182,.T.);
#389=EDGE_CURVE('',#263,#307,#75,.T.);
#399=EDGE_CURVE('',#303,#304,#110,.T.);
#401=EDGE_CURVE('',#304,#308,#173,.T.);
#404=EDGE_CURVE('',#303,#307,#79,.T.);
#414=EDGE_CURVE('',#287,#288,#93,.T.);
#416=EDGE_CURVE('',#292,#287,#97,.T.);
#418=EDGE_CURVE('',#290,#292,#101,.T.);
#420=EDGE_CURVE('',#288,#290,#105,.T.);
#424=EDGE_CURVE('',#283,#284,#84,.T.);
#426=EDGE_CURVE('',#284,#283,#89,.T.);
#431=EDGE_CURVE('',#304,#303,#115,.T.);
#435=EDGE_CURVE('',#311,#312,#120,.T.);
#437=EDGE_CURVE('',#312,#311,#125,.T.);
#441=EDGE_CURVE('',#319,#320,#130,.T.);
#443=EDGE_CURVE('',#320,#319,#135,.T.);
#447=EDGE_CURVE('',#327,#328,#140,.T.);
#449=EDGE_CURVE('',#328,#327,#145,.T.);
#460=EDGE_CURVE('',#271,#283,#149,.T.);
#463=EDGE_CURVE('',#272,#284,#153,.T.);
#486=EDGE_CURVE('',#275,#287,#157,.T.);
#489=EDGE_CURVE('',#276,#288,#169,.T.);
#500=EDGE_CURVE('',#280,#292,#161,.T.);
#513=EDGE_CURVE('',#278,#290,#165,.T.);
#539=EDGE_CURVE('',#308,#307,#178,.T.);
#563=EDGE_CURVE('',#312,#316,#190,.T.);
#565=EDGE_CURVE('',#315,#316,#204,.T.);
#567=EDGE_CURVE('',#311,#315,#186,.T.);
#579=EDGE_CURVE('',#316,#315,#195,.T.);
#591=EDGE_CURVE('',#267,#315,#208,.T.);
#594=EDGE_CURVE('',#268,#316,#199,.T.);
#617=EDGE_CURVE('',#320,#324,#216,.T.);
#619=EDGE_CURVE('',#323,#324,#230,.T.);
#621=EDGE_CURVE('',#319,#323,#212,.T.);
#633=EDGE_CURVE('',#324,#323,#221,.T.);
#645=EDGE_CURVE('',#299,#323,#234,.T.);
#648=EDGE_CURVE('',#300,#324,#225,.T.);
#671=EDGE_CURVE('',#328,#332,#242,.T.);
#673=EDGE_CURVE('',#331,#332,#256,.T.);
#675=EDGE_CURVE('',#327,#331,#238,.T.);
#687=EDGE_CURVE('',#332,#331,#247,.T.);
#699=EDGE_CURVE('',#295,#331,#260,.T.);
#702=EDGE_CURVE('',#296,#332,#251,.T.);
#721=(LENGTH_UNIT()NAMED_UNIT(*)SI_UNIT(.MILLI.,.METRE.));
#723=(NAMED_UNIT(*)PLANE_ANGLE_UNIT()SI_UNIT($,.RADIAN.));
#726=(NAMED_UNIT(*)SI_UNIT($,.STERADIAN.)SOLID_ANGLE_UNIT());
#729=ADVANCED_BREP_SHAPE_REPRESENTATION('',(#720),#728);
#736=PRODUCT_DEFINITION('design','',#735,#732);
#737=PRODUCT_DEFINITION_SHAPE('','SHAPE FOR JOINTCOVER2.',#736);
#738=SHAPE_DEFINITION_REPRESENTATION(#737,#729);
ENDSEC;
END-ISO-10303-21;
