ISO-10303-21;
HEADER;
FILE_DESCRIPTION((''),'2;1');
FILE_NAME('JOINTCOVER','2026-07-24T08:59:00',('gram2'),(''),
'CREO PARAMETRIC BY PTC INC, 2016510','CREO PARAMETRIC BY PTC INC, 2016510','');
FILE_SCHEMA(('CONFIG_CONTROL_DESIGN'));
ENDSEC;
DATA;
#1=CARTESIAN_POINT('',(-1.195E1,1.14E1,0.E0));
#2=DIRECTION('',(0.E0,0.E0,-1.E0));
#3=DIRECTION('',(1.E0,0.E0,0.E0));
#4=AXIS2_PLACEMENT_3D('',#1,#2,#3);
#6=CARTESIAN_POINT('',(-1.195E1,1.14E1,0.E0));
#7=DIRECTION('',(0.E0,0.E0,-1.E0));
#8=DIRECTION('',(-1.E0,0.E0,0.E0));
#9=AXIS2_PLACEMENT_3D('',#6,#7,#8);
#11=CARTESIAN_POINT('',(1.1935E1,1.14E1,0.E0));
#12=DIRECTION('',(0.E0,0.E0,-1.E0));
#13=DIRECTION('',(1.E0,0.E0,0.E0));
#14=AXIS2_PLACEMENT_3D('',#11,#12,#13);
#16=CARTESIAN_POINT('',(1.1935E1,1.14E1,0.E0));
#17=DIRECTION('',(0.E0,0.E0,-1.E0));
#18=DIRECTION('',(-1.E0,0.E0,0.E0));
#19=AXIS2_PLACEMENT_3D('',#16,#17,#18);
#21=CARTESIAN_POINT('',(1.1935E1,-1.14E1,0.E0));
#22=DIRECTION('',(0.E0,0.E0,-1.E0));
#23=DIRECTION('',(1.E0,0.E0,0.E0));
#24=AXIS2_PLACEMENT_3D('',#21,#22,#23);
#26=CARTESIAN_POINT('',(1.1935E1,-1.14E1,0.E0));
#27=DIRECTION('',(0.E0,0.E0,-1.E0));
#28=DIRECTION('',(-1.E0,0.E0,0.E0));
#29=AXIS2_PLACEMENT_3D('',#26,#27,#28);
#31=CARTESIAN_POINT('',(-1.195E1,-1.14E1,0.E0));
#32=DIRECTION('',(0.E0,0.E0,-1.E0));
#33=DIRECTION('',(1.E0,0.E0,0.E0));
#34=AXIS2_PLACEMENT_3D('',#31,#32,#33);
#36=CARTESIAN_POINT('',(-1.195E1,-1.14E1,0.E0));
#37=DIRECTION('',(0.E0,0.E0,-1.E0));
#38=DIRECTION('',(-1.E0,0.E0,0.E0));
#39=AXIS2_PLACEMENT_3D('',#36,#37,#38);
#41=CARTESIAN_POINT('',(0.E0,0.E0,0.E0));
#42=DIRECTION('',(0.E0,0.E0,-1.E0));
#43=DIRECTION('',(1.E0,0.E0,0.E0));
#44=AXIS2_PLACEMENT_3D('',#41,#42,#43);
#46=CARTESIAN_POINT('',(0.E0,0.E0,0.E0));
#47=DIRECTION('',(0.E0,0.E0,-1.E0));
#48=DIRECTION('',(-1.E0,0.E0,0.E0));
#49=AXIS2_PLACEMENT_3D('',#46,#47,#48);
#51=CARTESIAN_POINT('',(1.6E1,-1.4E1,0.E0));
#52=DIRECTION('',(0.E0,0.E0,-1.E0));
#53=DIRECTION('',(1.E0,0.E0,0.E0));
#54=AXIS2_PLACEMENT_3D('',#51,#52,#53);
#56=DIRECTION('',(0.E0,1.E0,0.E0));
#57=VECTOR('',#56,2.8E1);
#58=CARTESIAN_POINT('',(1.9E1,-1.4E1,0.E0));
#59=LINE('',#58,#57);
#60=CARTESIAN_POINT('',(1.6E1,1.4E1,0.E0));
#61=DIRECTION('',(0.E0,0.E0,-1.E0));
#62=DIRECTION('',(0.E0,1.E0,0.E0));
#63=AXIS2_PLACEMENT_3D('',#60,#61,#62);
#65=DIRECTION('',(-1.E0,0.E0,0.E0));
#66=VECTOR('',#65,3.2E1);
#67=CARTESIAN_POINT('',(1.6E1,1.7E1,0.E0));
#68=LINE('',#67,#66);
#69=CARTESIAN_POINT('',(-1.6E1,1.4E1,0.E0));
#70=DIRECTION('',(0.E0,0.E0,-1.E0));
#71=DIRECTION('',(-1.E0,0.E0,0.E0));
#72=AXIS2_PLACEMENT_3D('',#69,#70,#71);
#74=DIRECTION('',(0.E0,-1.E0,0.E0));
#75=VECTOR('',#74,2.8E1);
#76=CARTESIAN_POINT('',(-1.9E1,1.4E1,0.E0));
#77=LINE('',#76,#75);
#78=CARTESIAN_POINT('',(-1.6E1,-1.4E1,0.E0));
#79=DIRECTION('',(0.E0,0.E0,-1.E0));
#80=DIRECTION('',(0.E0,-1.E0,0.E0));
#81=AXIS2_PLACEMENT_3D('',#78,#79,#80);
#83=DIRECTION('',(1.E0,0.E0,0.E0));
#84=VECTOR('',#83,3.2E1);
#85=CARTESIAN_POINT('',(-1.6E1,-1.7E1,0.E0));
#86=LINE('',#85,#84);
#87=CARTESIAN_POINT('',(-1.195E1,1.14E1,2.E0));
#88=DIRECTION('',(0.E0,0.E0,-1.E0));
#89=DIRECTION('',(1.E0,0.E0,0.E0));
#90=AXIS2_PLACEMENT_3D('',#87,#88,#89);
#92=DIRECTION('',(-1.134941919512E-9,-7.428864642993E-9,1.E0));
#93=VECTOR('',#92,1.999999997730E0);
#94=CARTESIAN_POINT('',(-1.045E1,1.14E1,0.E0));
#95=LINE('',#94,#93);
#96=DIRECTION('',(-7.071067811865E-1,1.284066583722E-8,-7.071067811865E-1));
#97=VECTOR('',#96,1.414213558450E0);
#98=CARTESIAN_POINT('',(-9.450000005044E0,1.139999996698E1,2.999999994956E0));
#99=LINE('',#98,#97);
#100=CARTESIAN_POINT('',(0.E0,0.E0,3.E0));
#101=DIRECTION('',(0.E0,0.E0,-1.E0));
#102=DIRECTION('',(1.E0,0.E0,0.E0));
#103=AXIS2_PLACEMENT_3D('',#100,#101,#102);
#105=CARTESIAN_POINT('',(0.E0,0.E0,3.E0));
#106=DIRECTION('',(0.E0,0.E0,-1.E0));
#107=DIRECTION('',(-1.E0,0.E0,0.E0));
#108=AXIS2_PLACEMENT_3D('',#105,#106,#107);
#110=CARTESIAN_POINT('',(1.6E1,-1.4E1,3.E0));
#111=DIRECTION('',(0.E0,0.E0,1.E0));
#112=DIRECTION('',(0.E0,-1.E0,0.E0));
#113=AXIS2_PLACEMENT_3D('',#110,#111,#112);
#115=DIRECTION('',(1.E0,0.E0,0.E0));
#116=VECTOR('',#115,3.2E1);
#117=CARTESIAN_POINT('',(-1.6E1,-1.7E1,3.E0));
#118=LINE('',#117,#116);
#119=CARTESIAN_POINT('',(-1.6E1,-1.4E1,3.E0));
#120=DIRECTION('',(0.E0,0.E0,1.E0));
#121=DIRECTION('',(-1.E0,0.E0,0.E0));
#122=AXIS2_PLACEMENT_3D('',#119,#120,#121);
#124=DIRECTION('',(0.E0,-1.E0,0.E0));
#125=VECTOR('',#124,2.8E1);
#126=CARTESIAN_POINT('',(-1.9E1,1.4E1,3.E0));
#127=LINE('',#126,#125);
#128=CARTESIAN_POINT('',(-1.6E1,1.4E1,3.E0));
#129=DIRECTION('',(0.E0,0.E0,1.E0));
#130=DIRECTION('',(0.E0,1.E0,0.E0));
#131=AXIS2_PLACEMENT_3D('',#128,#129,#130);
#133=DIRECTION('',(-1.E0,0.E0,0.E0));
#134=VECTOR('',#133,3.2E1);
#135=CARTESIAN_POINT('',(1.6E1,1.7E1,3.E0));
#136=LINE('',#135,#134);
#137=CARTESIAN_POINT('',(1.6E1,1.4E1,3.E0));
#138=DIRECTION('',(0.E0,0.E0,1.E0));
#139=DIRECTION('',(1.E0,0.E0,0.E0));
#140=AXIS2_PLACEMENT_3D('',#137,#138,#139);
#142=DIRECTION('',(0.E0,1.E0,0.E0));
#143=VECTOR('',#142,2.8E1);
#144=CARTESIAN_POINT('',(1.9E1,-1.4E1,3.E0));
#145=LINE('',#144,#143);
#146=CARTESIAN_POINT('',(-1.195E1,1.14E1,3.E0));
#147=DIRECTION('',(0.E0,0.E0,-1.E0));
#148=DIRECTION('',(1.E0,0.E0,0.E0));
#149=AXIS2_PLACEMENT_3D('',#146,#147,#148);
#151=CARTESIAN_POINT('',(-1.195E1,1.14E1,3.E0));
#152=DIRECTION('',(0.E0,0.E0,-1.E0));
#153=DIRECTION('',(-1.E0,0.E0,0.E0));
#154=AXIS2_PLACEMENT_3D('',#151,#152,#153);
#156=CARTESIAN_POINT('',(1.1935E1,1.14E1,3.E0));
#157=DIRECTION('',(0.E0,0.E0,-1.E0));
#158=DIRECTION('',(1.E0,0.E0,0.E0));
#159=AXIS2_PLACEMENT_3D('',#156,#157,#158);
#161=CARTESIAN_POINT('',(1.1935E1,1.14E1,3.E0));
#162=DIRECTION('',(0.E0,0.E0,-1.E0));
#163=DIRECTION('',(-1.E0,0.E0,0.E0));
#164=AXIS2_PLACEMENT_3D('',#161,#162,#163);
#166=CARTESIAN_POINT('',(1.1935E1,-1.14E1,3.E0));
#167=DIRECTION('',(0.E0,0.E0,-1.E0));
#168=DIRECTION('',(1.E0,0.E0,0.E0));
#169=AXIS2_PLACEMENT_3D('',#166,#167,#168);
#171=CARTESIAN_POINT('',(1.1935E1,-1.14E1,3.E0));
#172=DIRECTION('',(0.E0,0.E0,-1.E0));
#173=DIRECTION('',(-1.E0,0.E0,0.E0));
#174=AXIS2_PLACEMENT_3D('',#171,#172,#173);
#176=CARTESIAN_POINT('',(-1.195E1,-1.14E1,3.E0));
#177=DIRECTION('',(0.E0,0.E0,-1.E0));
#178=DIRECTION('',(1.E0,0.E0,0.E0));
#179=AXIS2_PLACEMENT_3D('',#176,#177,#178);
#181=CARTESIAN_POINT('',(-1.195E1,-1.14E1,3.E0));
#182=DIRECTION('',(0.E0,0.E0,-1.E0));
#183=DIRECTION('',(-1.E0,0.E0,0.E0));
#184=AXIS2_PLACEMENT_3D('',#181,#182,#183);
#186=DIRECTION('',(0.E0,0.E0,1.E0));
#187=VECTOR('',#186,3.E0);
#188=CARTESIAN_POINT('',(8.2E0,0.E0,0.E0));
#189=LINE('',#188,#187);
#190=DIRECTION('',(0.E0,0.E0,1.E0));
#191=VECTOR('',#190,3.E0);
#192=CARTESIAN_POINT('',(-8.2E0,0.E0,0.E0));
#193=LINE('',#192,#191);
#194=DIRECTION('',(0.E0,0.E0,-1.E0));
#195=VECTOR('',#194,3.E0);
#196=CARTESIAN_POINT('',(1.6E1,-1.7E1,3.E0));
#197=LINE('',#196,#195);
#198=DIRECTION('',(0.E0,0.E0,-1.E0));
#199=VECTOR('',#198,3.E0);
#200=CARTESIAN_POINT('',(-1.6E1,-1.7E1,3.E0));
#201=LINE('',#200,#199);
#202=DIRECTION('',(0.E0,0.E0,-1.E0));
#203=VECTOR('',#202,3.E0);
#204=CARTESIAN_POINT('',(-1.9E1,1.4E1,3.E0));
#205=LINE('',#204,#203);
#206=DIRECTION('',(0.E0,0.E0,-1.E0));
#207=VECTOR('',#206,3.E0);
#208=CARTESIAN_POINT('',(-1.9E1,-1.4E1,3.E0));
#209=LINE('',#208,#207);
#210=DIRECTION('',(0.E0,0.E0,-1.E0));
#211=VECTOR('',#210,3.E0);
#212=CARTESIAN_POINT('',(-1.6E1,1.7E1,3.E0));
#213=LINE('',#212,#211);
#214=DIRECTION('',(0.E0,0.E0,-1.E0));
#215=VECTOR('',#214,3.E0);
#216=CARTESIAN_POINT('',(1.6E1,1.7E1,3.E0));
#217=LINE('',#216,#215);
#218=DIRECTION('',(0.E0,0.E0,-1.E0));
#219=VECTOR('',#218,3.E0);
#220=CARTESIAN_POINT('',(1.9E1,-1.4E1,3.E0));
#221=LINE('',#220,#219);
#222=DIRECTION('',(0.E0,0.E0,-1.E0));
#223=VECTOR('',#222,3.E0);
#224=CARTESIAN_POINT('',(1.9E1,1.4E1,3.E0));
#225=LINE('',#224,#223);
#226=DIRECTION('',(7.071067811865E-1,-1.284066583722E-8,-7.071067811865E-1));
#227=VECTOR('',#226,1.414213558450E0);
#228=CARTESIAN_POINT('',(-1.444999999496E1,1.140000003302E1,2.999999994956E0));
#229=LINE('',#228,#227);
#230=CARTESIAN_POINT('',(-1.195E1,1.14E1,2.E0));
#231=DIRECTION('',(0.E0,0.E0,-1.E0));
#232=DIRECTION('',(-1.E0,0.E0,0.E0));
#233=AXIS2_PLACEMENT_3D('',#230,#231,#232);
#235=DIRECTION('',(1.134940143155E-9,7.428863754815E-9,1.E0));
#236=VECTOR('',#235,1.999999997730E0);
#237=CARTESIAN_POINT('',(-1.345E1,1.14E1,0.E0));
#238=LINE('',#237,#236);
#239=DIRECTION('',(-7.071067811865E-1,1.284066709329E-8,-7.071067811865E-1));
#240=VECTOR('',#239,1.414213558450E0);
#241=CARTESIAN_POINT('',(1.443499999496E1,1.139999996698E1,2.999999994956E0));
#242=LINE('',#241,#240);
#243=DIRECTION('',(7.071067811865E-1,-1.284066834937E-8,-7.071067811865E-1));
#244=VECTOR('',#243,1.414213558450E0);
#245=CARTESIAN_POINT('',(9.435000005044E0,1.140000003302E1,2.999999994956E0));
#246=LINE('',#245,#244);
#247=CARTESIAN_POINT('',(1.1935E1,1.14E1,2.E0));
#248=DIRECTION('',(0.E0,0.E0,-1.E0));
#249=DIRECTION('',(-1.E0,0.E0,0.E0));
#250=AXIS2_PLACEMENT_3D('',#247,#248,#249);
#252=DIRECTION('',(1.134941919512E-9,7.428863754815E-9,1.E0));
#253=VECTOR('',#252,1.999999997730E0);
#254=CARTESIAN_POINT('',(1.0435E1,1.14E1,0.E0));
#255=LINE('',#254,#253);
#256=CARTESIAN_POINT('',(1.1935E1,1.14E1,2.E0));
#257=DIRECTION('',(0.E0,0.E0,-1.E0));
#258=DIRECTION('',(1.E0,0.E0,0.E0));
#259=AXIS2_PLACEMENT_3D('',#256,#257,#258);
#261=DIRECTION('',(-1.134940143155E-9,-7.428862866637E-9,1.E0));
#262=VECTOR('',#261,1.999999997730E0);
#263=CARTESIAN_POINT('',(1.3435E1,1.14E1,0.E0));
#264=LINE('',#263,#262);
#265=DIRECTION('',(-7.071067811865E-1,1.284066834937E-8,-7.071067811865E-1));
#266=VECTOR('',#265,1.414213558450E0);
#267=CARTESIAN_POINT('',(1.443499999496E1,-1.140000003302E1,2.999999994956E0));
#268=LINE('',#267,#266);
#269=DIRECTION('',(7.071067811865E-1,-1.284066834937E-8,-7.071067811865E-1));
#270=VECTOR('',#269,1.414213558450E0);
#271=CARTESIAN_POINT('',(9.435000005044E0,-1.139999996698E1,2.999999994956E0));
#272=LINE('',#271,#270);
#273=CARTESIAN_POINT('',(1.1935E1,-1.14E1,2.E0));
#274=DIRECTION('',(0.E0,0.E0,-1.E0));
#275=DIRECTION('',(-1.E0,0.E0,0.E0));
#276=AXIS2_PLACEMENT_3D('',#273,#274,#275);
#278=DIRECTION('',(1.134941919512E-9,7.428864642993E-9,1.E0));
#279=VECTOR('',#278,1.999999997730E0);
#280=CARTESIAN_POINT('',(1.0435E1,-1.14E1,0.E0));
#281=LINE('',#280,#279);
#282=CARTESIAN_POINT('',(1.1935E1,-1.14E1,2.E0));
#283=DIRECTION('',(0.E0,0.E0,-1.E0));
#284=DIRECTION('',(1.E0,0.E0,0.E0));
#285=AXIS2_PLACEMENT_3D('',#282,#283,#284);
#287=DIRECTION('',(-1.134940143155E-9,-7.428863754815E-9,1.E0));
#288=VECTOR('',#287,1.999999997730E0);
#289=CARTESIAN_POINT('',(1.3435E1,-1.14E1,0.E0));
#290=LINE('',#289,#288);
#291=DIRECTION('',(-7.071067811865E-1,1.284066583722E-8,-7.071067811865E-1));
#292=VECTOR('',#291,1.414213558450E0);
#293=CARTESIAN_POINT('',(-9.450000005044E0,-1.140000003302E1,2.999999994956E0));
#294=LINE('',#293,#292);
#295=DIRECTION('',(7.071067811865E-1,-1.284066583722E-8,-7.071067811865E-1));
#296=VECTOR('',#295,1.414213558450E0);
#297=CARTESIAN_POINT('',(-1.444999999496E1,-1.139999996698E1,2.999999994956E0));
#298=LINE('',#297,#296);
#299=CARTESIAN_POINT('',(-1.195E1,-1.14E1,2.E0));
#300=DIRECTION('',(0.E0,0.E0,-1.E0));
#301=DIRECTION('',(-1.E0,0.E0,0.E0));
#302=AXIS2_PLACEMENT_3D('',#299,#300,#301);
#304=DIRECTION('',(1.134940143155E-9,7.428864642993E-9,1.E0));
#305=VECTOR('',#304,1.999999997730E0);
#306=CARTESIAN_POINT('',(-1.345E1,-1.14E1,0.E0));
#307=LINE('',#306,#305);
#308=CARTESIAN_POINT('',(-1.195E1,-1.14E1,2.E0));
#309=DIRECTION('',(0.E0,0.E0,-1.E0));
#310=DIRECTION('',(1.E0,0.E0,0.E0));
#311=AXIS2_PLACEMENT_3D('',#308,#309,#310);
#313=DIRECTION('',(-1.134941919512E-9,-7.428863754815E-9,1.E0));
#314=VECTOR('',#313,1.999999997730E0);
#315=CARTESIAN_POINT('',(-1.045E1,-1.14E1,0.E0));
#316=LINE('',#315,#314);
#317=CARTESIAN_POINT('',(-1.045E1,1.14E1,0.E0));
#318=CARTESIAN_POINT('',(-1.345E1,1.14E1,0.E0));
#319=VERTEX_POINT('',#317);
#320=VERTEX_POINT('',#318);
#321=CARTESIAN_POINT('',(1.3435E1,1.14E1,0.E0));
#322=CARTESIAN_POINT('',(1.0435E1,1.14E1,0.E0));
#323=VERTEX_POINT('',#321);
#324=VERTEX_POINT('',#322);
#325=CARTESIAN_POINT('',(1.3435E1,-1.14E1,0.E0));
#326=CARTESIAN_POINT('',(1.0435E1,-1.14E1,0.E0));
#327=VERTEX_POINT('',#325);
#328=VERTEX_POINT('',#326);
#329=CARTESIAN_POINT('',(-1.045E1,-1.14E1,0.E0));
#330=CARTESIAN_POINT('',(-1.345E1,-1.14E1,0.E0));
#331=VERTEX_POINT('',#329);
#332=VERTEX_POINT('',#330);
#333=CARTESIAN_POINT('',(1.6E1,1.7E1,0.E0));
#334=CARTESIAN_POINT('',(1.9E1,1.4E1,0.E0));
#335=VERTEX_POINT('',#333);
#336=VERTEX_POINT('',#334);
#337=CARTESIAN_POINT('',(1.9E1,1.4E1,3.E0));
#338=VERTEX_POINT('',#337);
#339=CARTESIAN_POINT('',(1.6E1,1.7E1,3.E0));
#340=VERTEX_POINT('',#339);
#341=CARTESIAN_POINT('',(-1.9E1,1.4E1,0.E0));
#342=CARTESIAN_POINT('',(-1.6E1,1.7E1,0.E0));
#343=VERTEX_POINT('',#341);
#344=VERTEX_POINT('',#342);
#345=CARTESIAN_POINT('',(-1.6E1,1.7E1,3.E0));
#346=VERTEX_POINT('',#345);
#347=CARTESIAN_POINT('',(-1.9E1,1.4E1,3.E0));
#348=VERTEX_POINT('',#347);
#349=CARTESIAN_POINT('',(-1.6E1,-1.7E1,0.E0));
#350=CARTESIAN_POINT('',(-1.9E1,-1.4E1,0.E0));
#351=VERTEX_POINT('',#349);
#352=VERTEX_POINT('',#350);
#353=CARTESIAN_POINT('',(-1.9E1,-1.4E1,3.E0));
#354=VERTEX_POINT('',#353);
#355=CARTESIAN_POINT('',(-1.6E1,-1.7E1,3.E0));
#356=VERTEX_POINT('',#355);
#357=CARTESIAN_POINT('',(1.9E1,-1.4E1,0.E0));
#358=CARTESIAN_POINT('',(1.6E1,-1.7E1,0.E0));
#359=VERTEX_POINT('',#357);
#360=VERTEX_POINT('',#358);
#361=CARTESIAN_POINT('',(1.6E1,-1.7E1,3.E0));
#362=VERTEX_POINT('',#361);
#363=CARTESIAN_POINT('',(1.9E1,-1.4E1,3.E0));
#364=VERTEX_POINT('',#363);
#365=CARTESIAN_POINT('',(8.2E0,0.E0,0.E0));
#366=CARTESIAN_POINT('',(-8.2E0,0.E0,0.E0));
#367=VERTEX_POINT('',#365);
#368=VERTEX_POINT('',#366);
#369=CARTESIAN_POINT('',(8.2E0,0.E0,3.E0));
#370=CARTESIAN_POINT('',(-8.2E0,0.E0,3.E0));
#371=VERTEX_POINT('',#369);
#372=VERTEX_POINT('',#370);
#373=CARTESIAN_POINT('',(-9.45E0,1.14E1,3.E0));
#374=CARTESIAN_POINT('',(-1.445E1,1.14E1,3.E0));
#375=VERTEX_POINT('',#373);
#376=VERTEX_POINT('',#374);
#377=CARTESIAN_POINT('',(-1.045E1,1.14E1,2.E0));
#378=CARTESIAN_POINT('',(-1.345E1,1.14E1,2.E0));
#379=VERTEX_POINT('',#377);
#380=VERTEX_POINT('',#378);
#381=CARTESIAN_POINT('',(1.4435E1,1.14E1,3.E0));
#382=CARTESIAN_POINT('',(9.435E0,1.14E1,3.E0));
#383=VERTEX_POINT('',#381);
#384=VERTEX_POINT('',#382);
#385=CARTESIAN_POINT('',(1.3435E1,1.14E1,2.E0));
#386=CARTESIAN_POINT('',(1.0435E1,1.14E1,2.E0));
#387=VERTEX_POINT('',#385);
#388=VERTEX_POINT('',#386);
#389=CARTESIAN_POINT('',(1.4435E1,-1.14E1,3.E0));
#390=CARTESIAN_POINT('',(9.435E0,-1.14E1,3.E0));
#391=VERTEX_POINT('',#389);
#392=VERTEX_POINT('',#390);
#393=CARTESIAN_POINT('',(1.3435E1,-1.14E1,2.E0));
#394=CARTESIAN_POINT('',(1.0435E1,-1.14E1,2.E0));
#395=VERTEX_POINT('',#393);
#396=VERTEX_POINT('',#394);
#397=CARTESIAN_POINT('',(-9.45E0,-1.14E1,3.E0));
#398=CARTESIAN_POINT('',(-1.445E1,-1.14E1,3.E0));
#399=VERTEX_POINT('',#397);
#400=VERTEX_POINT('',#398);
#401=CARTESIAN_POINT('',(-1.045E1,-1.14E1,2.E0));
#402=CARTESIAN_POINT('',(-1.345E1,-1.14E1,2.E0));
#403=VERTEX_POINT('',#401);
#404=VERTEX_POINT('',#402);
#405=CARTESIAN_POINT('',(0.E0,0.E0,0.E0));
#406=DIRECTION('',(0.E0,0.E0,1.E0));
#407=DIRECTION('',(1.E0,0.E0,0.E0));
#408=AXIS2_PLACEMENT_3D('',#405,#406,#407);
#409=PLANE('',#408);
#411=ORIENTED_EDGE('',*,*,#410,.F.);
#413=ORIENTED_EDGE('',*,*,#412,.T.);
#415=ORIENTED_EDGE('',*,*,#414,.F.);
#417=ORIENTED_EDGE('',*,*,#416,.T.);
#419=ORIENTED_EDGE('',*,*,#418,.F.);
#421=ORIENTED_EDGE('',*,*,#420,.T.);
#423=ORIENTED_EDGE('',*,*,#422,.F.);
#425=ORIENTED_EDGE('',*,*,#424,.T.);
#426=EDGE_LOOP('',(#411,#413,#415,#417,#419,#421,#423,#425));
#427=FACE_OUTER_BOUND('',#426,.F.);
#429=ORIENTED_EDGE('',*,*,#428,.T.);
#431=ORIENTED_EDGE('',*,*,#430,.T.);
#432=EDGE_LOOP('',(#429,#431));
#433=FACE_BOUND('',#432,.F.);
#435=ORIENTED_EDGE('',*,*,#434,.T.);
#437=ORIENTED_EDGE('',*,*,#436,.T.);
#438=EDGE_LOOP('',(#435,#437));
#439=FACE_BOUND('',#438,.F.);
#441=ORIENTED_EDGE('',*,*,#440,.T.);
#443=ORIENTED_EDGE('',*,*,#442,.T.);
#444=EDGE_LOOP('',(#441,#443));
#445=FACE_BOUND('',#444,.F.);
#447=ORIENTED_EDGE('',*,*,#446,.T.);
#449=ORIENTED_EDGE('',*,*,#448,.T.);
#450=EDGE_LOOP('',(#447,#449));
#451=FACE_BOUND('',#450,.F.);
#453=ORIENTED_EDGE('',*,*,#452,.T.);
#455=ORIENTED_EDGE('',*,*,#454,.T.);
#456=EDGE_LOOP('',(#453,#455));
#457=FACE_BOUND('',#456,.F.);
#458=ADVANCED_FACE('',(#427,#433,#439,#445,#451,#457),#409,.F.);
#459=CARTESIAN_POINT('',(-1.195E1,1.14E1,0.E0));
#460=DIRECTION('',(0.E0,0.E0,1.E0));
#461=DIRECTION('',(1.E0,0.E0,0.E0));
#462=AXIS2_PLACEMENT_3D('',#459,#460,#461);
#463=CYLINDRICAL_SURFACE('',#462,1.5E0);
#465=ORIENTED_EDGE('',*,*,#464,.T.);
#467=ORIENTED_EDGE('',*,*,#466,.F.);
#468=ORIENTED_EDGE('',*,*,#452,.F.);
#470=ORIENTED_EDGE('',*,*,#469,.T.);
#471=EDGE_LOOP('',(#465,#467,#468,#470));
#472=FACE_OUTER_BOUND('',#471,.F.);
#473=ADVANCED_FACE('',(#472),#463,.F.);
#474=CARTESIAN_POINT('',(-1.195E1,1.14E1,2.499999997963E0));
#475=DIRECTION('',(0.E0,0.E0,1.E0));
#476=DIRECTION('',(0.E0,-1.E0,0.E0));
#477=AXIS2_PLACEMENT_3D('',#474,#475,#476);
#478=CONICAL_SURFACE('',#477,1.999999997963E0,4.5E1);
#480=ORIENTED_EDGE('',*,*,#479,.T.);
#482=ORIENTED_EDGE('',*,*,#481,.T.);
#483=ORIENTED_EDGE('',*,*,#464,.F.);
#485=ORIENTED_EDGE('',*,*,#484,.F.);
#486=EDGE_LOOP('',(#480,#482,#483,#485));
#487=FACE_OUTER_BOUND('',#486,.F.);
#488=ADVANCED_FACE('',(#487),#478,.F.);
#489=CARTESIAN_POINT('',(0.E0,0.E0,3.E0));
#490=DIRECTION('',(0.E0,0.E0,1.E0));
#491=DIRECTION('',(1.E0,0.E0,0.E0));
#492=AXIS2_PLACEMENT_3D('',#489,#490,#491);
#493=PLANE('',#492);
#495=ORIENTED_EDGE('',*,*,#494,.F.);
#497=ORIENTED_EDGE('',*,*,#496,.F.);
#499=ORIENTED_EDGE('',*,*,#498,.F.);
#501=ORIENTED_EDGE('',*,*,#500,.F.);
#503=ORIENTED_EDGE('',*,*,#502,.F.);
#505=ORIENTED_EDGE('',*,*,#504,.F.);
#507=ORIENTED_EDGE('',*,*,#506,.F.);
#509=ORIENTED_EDGE('',*,*,#508,.F.);
#510=EDGE_LOOP('',(#495,#497,#499,#501,#503,#505,#507,#509));
#511=FACE_OUTER_BOUND('',#510,.F.);
#513=ORIENTED_EDGE('',*,*,#512,.F.);
#515=ORIENTED_EDGE('',*,*,#514,.F.);
#516=EDGE_LOOP('',(#513,#515));
#517=FACE_BOUND('',#516,.F.);
#518=ORIENTED_EDGE('',*,*,#479,.F.);
#520=ORIENTED_EDGE('',*,*,#519,.F.);
#521=EDGE_LOOP('',(#518,#520));
#522=FACE_BOUND('',#521,.F.);
#524=ORIENTED_EDGE('',*,*,#523,.F.);
#526=ORIENTED_EDGE('',*,*,#525,.F.);
#527=EDGE_LOOP('',(#524,#526));
#528=FACE_BOUND('',#527,.F.);
#530=ORIENTED_EDGE('',*,*,#529,.F.);
#532=ORIENTED_EDGE('',*,*,#531,.F.);
#533=EDGE_LOOP('',(#530,#532));
#534=FACE_BOUND('',#533,.F.);
#536=ORIENTED_EDGE('',*,*,#535,.F.);
#538=ORIENTED_EDGE('',*,*,#537,.F.);
#539=EDGE_LOOP('',(#536,#538));
#540=FACE_BOUND('',#539,.F.);
#541=ADVANCED_FACE('',(#511,#517,#522,#528,#534,#540),#493,.T.);
#542=CARTESIAN_POINT('',(0.E0,0.E0,0.E0));
#543=DIRECTION('',(0.E0,0.E0,1.E0));
#544=DIRECTION('',(1.E0,0.E0,0.E0));
#545=AXIS2_PLACEMENT_3D('',#542,#543,#544);
#546=CYLINDRICAL_SURFACE('',#545,8.2E0);
#547=ORIENTED_EDGE('',*,*,#446,.F.);
#549=ORIENTED_EDGE('',*,*,#548,.T.);
#550=ORIENTED_EDGE('',*,*,#512,.T.);
#552=ORIENTED_EDGE('',*,*,#551,.F.);
#553=EDGE_LOOP('',(#547,#549,#550,#552));
#554=FACE_OUTER_BOUND('',#553,.F.);
#555=ADVANCED_FACE('',(#554),#546,.F.);
#556=CARTESIAN_POINT('',(0.E0,0.E0,0.E0));
#557=DIRECTION('',(0.E0,0.E0,1.E0));
#558=DIRECTION('',(1.E0,0.E0,0.E0));
#559=AXIS2_PLACEMENT_3D('',#556,#557,#558);
#560=CYLINDRICAL_SURFACE('',#559,8.2E0);
#561=ORIENTED_EDGE('',*,*,#448,.F.);
#562=ORIENTED_EDGE('',*,*,#551,.T.);
#563=ORIENTED_EDGE('',*,*,#514,.T.);
#564=ORIENTED_EDGE('',*,*,#548,.F.);
#565=EDGE_LOOP('',(#561,#562,#563,#564));
#566=FACE_OUTER_BOUND('',#565,.F.);
#567=ADVANCED_FACE('',(#566),#560,.F.);
#568=CARTESIAN_POINT('',(1.6E1,-1.4E1,6.9108E0));
#569=DIRECTION('',(0.E0,0.E0,-1.E0));
#570=DIRECTION('',(1.E0,0.E0,0.E0));
#571=AXIS2_PLACEMENT_3D('',#568,#569,#570);
#572=CYLINDRICAL_SURFACE('',#571,3.E0);
#573=ORIENTED_EDGE('',*,*,#410,.T.);
#575=ORIENTED_EDGE('',*,*,#574,.F.);
#576=ORIENTED_EDGE('',*,*,#494,.T.);
#578=ORIENTED_EDGE('',*,*,#577,.T.);
#579=EDGE_LOOP('',(#573,#575,#576,#578));
#580=FACE_OUTER_BOUND('',#579,.F.);
#581=ADVANCED_FACE('',(#580),#572,.T.);
#582=CARTESIAN_POINT('',(-1.9E1,-1.7E1,0.E0));
#583=DIRECTION('',(0.E0,-1.E0,0.E0));
#584=DIRECTION('',(1.E0,0.E0,0.E0));
#585=AXIS2_PLACEMENT_3D('',#582,#583,#584);
#586=PLANE('',#585);
#587=ORIENTED_EDGE('',*,*,#574,.T.);
#588=ORIENTED_EDGE('',*,*,#424,.F.);
#590=ORIENTED_EDGE('',*,*,#589,.F.);
#591=ORIENTED_EDGE('',*,*,#496,.T.);
#592=EDGE_LOOP('',(#587,#588,#590,#591));
#593=FACE_OUTER_BOUND('',#592,.F.);
#594=ADVANCED_FACE('',(#593),#586,.T.);
#595=CARTESIAN_POINT('',(-1.6E1,-1.4E1,6.9108E0));
#596=DIRECTION('',(0.E0,0.E0,-1.E0));
#597=DIRECTION('',(0.E0,-1.E0,0.E0));
#598=AXIS2_PLACEMENT_3D('',#595,#596,#597);
#599=CYLINDRICAL_SURFACE('',#598,3.E0);
#600=ORIENTED_EDGE('',*,*,#422,.T.);
#602=ORIENTED_EDGE('',*,*,#601,.F.);
#603=ORIENTED_EDGE('',*,*,#498,.T.);
#604=ORIENTED_EDGE('',*,*,#589,.T.);
#605=EDGE_LOOP('',(#600,#602,#603,#604));
#606=FACE_OUTER_BOUND('',#605,.F.);
#607=ADVANCED_FACE('',(#606),#599,.T.);
#608=CARTESIAN_POINT('',(-1.9E1,1.7E1,0.E0));
#609=DIRECTION('',(-1.E0,0.E0,0.E0));
#610=DIRECTION('',(0.E0,-1.E0,0.E0));
#611=AXIS2_PLACEMENT_3D('',#608,#609,#610);
#612=PLANE('',#611);
#614=ORIENTED_EDGE('',*,*,#613,.F.);
#615=ORIENTED_EDGE('',*,*,#500,.T.);
#616=ORIENTED_EDGE('',*,*,#601,.T.);
#617=ORIENTED_EDGE('',*,*,#420,.F.);
#618=EDGE_LOOP('',(#614,#615,#616,#617));
#619=FACE_OUTER_BOUND('',#618,.F.);
#620=ADVANCED_FACE('',(#619),#612,.T.);
#621=CARTESIAN_POINT('',(-1.6E1,1.4E1,6.9108E0));
#622=DIRECTION('',(0.E0,0.E0,-1.E0));
#623=DIRECTION('',(-1.E0,0.E0,0.E0));
#624=AXIS2_PLACEMENT_3D('',#621,#622,#623);
#625=CYLINDRICAL_SURFACE('',#624,3.E0);
#626=ORIENTED_EDGE('',*,*,#418,.T.);
#628=ORIENTED_EDGE('',*,*,#627,.F.);
#629=ORIENTED_EDGE('',*,*,#502,.T.);
#630=ORIENTED_EDGE('',*,*,#613,.T.);
#631=EDGE_LOOP('',(#626,#628,#629,#630));
#632=FACE_OUTER_BOUND('',#631,.F.);
#633=ADVANCED_FACE('',(#632),#625,.T.);
#634=CARTESIAN_POINT('',(1.9E1,1.7E1,0.E0));
#635=DIRECTION('',(0.E0,1.E0,0.E0));
#636=DIRECTION('',(-1.E0,0.E0,0.E0));
#637=AXIS2_PLACEMENT_3D('',#634,#635,#636);
#638=PLANE('',#637);
#639=ORIENTED_EDGE('',*,*,#627,.T.);
#640=ORIENTED_EDGE('',*,*,#416,.F.);
#642=ORIENTED_EDGE('',*,*,#641,.F.);
#643=ORIENTED_EDGE('',*,*,#504,.T.);
#644=EDGE_LOOP('',(#639,#640,#642,#643));
#645=FACE_OUTER_BOUND('',#644,.F.);
#646=ADVANCED_FACE('',(#645),#638,.T.);
#647=CARTESIAN_POINT('',(1.6E1,1.4E1,6.9108E0));
#648=DIRECTION('',(0.E0,0.E0,-1.E0));
#649=DIRECTION('',(0.E0,1.E0,0.E0));
#650=AXIS2_PLACEMENT_3D('',#647,#648,#649);
#651=CYLINDRICAL_SURFACE('',#650,3.E0);
#652=ORIENTED_EDGE('',*,*,#414,.T.);
#654=ORIENTED_EDGE('',*,*,#653,.F.);
#655=ORIENTED_EDGE('',*,*,#506,.T.);
#656=ORIENTED_EDGE('',*,*,#641,.T.);
#657=EDGE_LOOP('',(#652,#654,#655,#656));
#658=FACE_OUTER_BOUND('',#657,.F.);
#659=ADVANCED_FACE('',(#658),#651,.T.);
#660=CARTESIAN_POINT('',(1.9E1,-1.7E1,0.E0));
#661=DIRECTION('',(1.E0,0.E0,0.E0));
#662=DIRECTION('',(0.E0,1.E0,0.E0));
#663=AXIS2_PLACEMENT_3D('',#660,#661,#662);
#664=PLANE('',#663);
#665=ORIENTED_EDGE('',*,*,#577,.F.);
#666=ORIENTED_EDGE('',*,*,#508,.T.);
#667=ORIENTED_EDGE('',*,*,#653,.T.);
#668=ORIENTED_EDGE('',*,*,#412,.F.);
#669=EDGE_LOOP('',(#665,#666,#667,#668));
#670=FACE_OUTER_BOUND('',#669,.F.);
#671=ADVANCED_FACE('',(#670),#664,.T.);
#672=CARTESIAN_POINT('',(-1.195E1,1.14E1,2.499999997963E0));
#673=DIRECTION('',(0.E0,0.E0,1.E0));
#674=DIRECTION('',(0.E0,-1.E0,0.E0));
#675=AXIS2_PLACEMENT_3D('',#672,#673,#674);
#676=CONICAL_SURFACE('',#675,1.999999997963E0,4.5E1);
#677=ORIENTED_EDGE('',*,*,#519,.T.);
#678=ORIENTED_EDGE('',*,*,#484,.T.);
#680=ORIENTED_EDGE('',*,*,#679,.F.);
#681=ORIENTED_EDGE('',*,*,#481,.F.);
#682=EDGE_LOOP('',(#677,#678,#680,#681));
#683=FACE_OUTER_BOUND('',#682,.F.);
#684=ADVANCED_FACE('',(#683),#676,.F.);
#685=CARTESIAN_POINT('',(-1.195E1,1.14E1,0.E0));
#686=DIRECTION('',(0.E0,0.E0,1.E0));
#687=DIRECTION('',(1.E0,0.E0,0.E0));
#688=AXIS2_PLACEMENT_3D('',#685,#686,#687);
#689=CYLINDRICAL_SURFACE('',#688,1.5E0);
#690=ORIENTED_EDGE('',*,*,#679,.T.);
#691=ORIENTED_EDGE('',*,*,#469,.F.);
#692=ORIENTED_EDGE('',*,*,#454,.F.);
#693=ORIENTED_EDGE('',*,*,#466,.T.);
#694=EDGE_LOOP('',(#690,#691,#692,#693));
#695=FACE_OUTER_BOUND('',#694,.F.);
#696=ADVANCED_FACE('',(#695),#689,.F.);
#697=CARTESIAN_POINT('',(1.1935E1,1.14E1,2.499999997963E0));
#698=DIRECTION('',(0.E0,0.E0,1.E0));
#699=DIRECTION('',(0.E0,-1.E0,0.E0));
#700=AXIS2_PLACEMENT_3D('',#697,#698,#699);
#701=CONICAL_SURFACE('',#700,1.999999997963E0,4.5E1);
#702=ORIENTED_EDGE('',*,*,#523,.T.);
#704=ORIENTED_EDGE('',*,*,#703,.T.);
#706=ORIENTED_EDGE('',*,*,#705,.F.);
#708=ORIENTED_EDGE('',*,*,#707,.F.);
#709=EDGE_LOOP('',(#702,#704,#706,#708));
#710=FACE_OUTER_BOUND('',#709,.F.);
#711=ADVANCED_FACE('',(#710),#701,.F.);
#712=CARTESIAN_POINT('',(1.1935E1,1.14E1,2.499999997963E0));
#713=DIRECTION('',(0.E0,0.E0,1.E0));
#714=DIRECTION('',(0.E0,-1.E0,0.E0));
#715=AXIS2_PLACEMENT_3D('',#712,#713,#714);
#716=CONICAL_SURFACE('',#715,1.999999997963E0,4.5E1);
#717=ORIENTED_EDGE('',*,*,#525,.T.);
#718=ORIENTED_EDGE('',*,*,#707,.T.);
#720=ORIENTED_EDGE('',*,*,#719,.F.);
#721=ORIENTED_EDGE('',*,*,#703,.F.);
#722=EDGE_LOOP('',(#717,#718,#720,#721));
#723=FACE_OUTER_BOUND('',#722,.F.);
#724=ADVANCED_FACE('',(#723),#716,.F.);
#725=CARTESIAN_POINT('',(1.1935E1,1.14E1,0.E0));
#726=DIRECTION('',(0.E0,0.E0,1.E0));
#727=DIRECTION('',(1.E0,0.E0,0.E0));
#728=AXIS2_PLACEMENT_3D('',#725,#726,#727);
#729=CYLINDRICAL_SURFACE('',#728,1.5E0);
#730=ORIENTED_EDGE('',*,*,#719,.T.);
#732=ORIENTED_EDGE('',*,*,#731,.F.);
#733=ORIENTED_EDGE('',*,*,#430,.F.);
#735=ORIENTED_EDGE('',*,*,#734,.T.);
#736=EDGE_LOOP('',(#730,#732,#733,#735));
#737=FACE_OUTER_BOUND('',#736,.F.);
#738=ADVANCED_FACE('',(#737),#729,.F.);
#739=CARTESIAN_POINT('',(1.1935E1,1.14E1,0.E0));
#740=DIRECTION('',(0.E0,0.E0,1.E0));
#741=DIRECTION('',(1.E0,0.E0,0.E0));
#742=AXIS2_PLACEMENT_3D('',#739,#740,#741);
#743=CYLINDRICAL_SURFACE('',#742,1.5E0);
#744=ORIENTED_EDGE('',*,*,#705,.T.);
#745=ORIENTED_EDGE('',*,*,#734,.F.);
#746=ORIENTED_EDGE('',*,*,#428,.F.);
#747=ORIENTED_EDGE('',*,*,#731,.T.);
#748=EDGE_LOOP('',(#744,#745,#746,#747));
#749=FACE_OUTER_BOUND('',#748,.F.);
#750=ADVANCED_FACE('',(#749),#743,.F.);
#751=CARTESIAN_POINT('',(1.1935E1,-1.14E1,2.499999997963E0));
#752=DIRECTION('',(0.E0,0.E0,1.E0));
#753=DIRECTION('',(0.E0,-1.E0,0.E0));
#754=AXIS2_PLACEMENT_3D('',#751,#752,#753);
#755=CONICAL_SURFACE('',#754,1.999999997963E0,4.5E1);
#756=ORIENTED_EDGE('',*,*,#529,.T.);
#758=ORIENTED_EDGE('',*,*,#757,.T.);
#760=ORIENTED_EDGE('',*,*,#759,.F.);
#762=ORIENTED_EDGE('',*,*,#761,.F.);
#763=EDGE_LOOP('',(#756,#758,#760,#762));
#764=FACE_OUTER_BOUND('',#763,.F.);
#765=ADVANCED_FACE('',(#764),#755,.F.);
#766=CARTESIAN_POINT('',(1.1935E1,-1.14E1,2.499999997963E0));
#767=DIRECTION('',(0.E0,0.E0,1.E0));
#768=DIRECTION('',(0.E0,-1.E0,0.E0));
#769=AXIS2_PLACEMENT_3D('',#766,#767,#768);
#770=CONICAL_SURFACE('',#769,1.999999997963E0,4.5E1);
#771=ORIENTED_EDGE('',*,*,#531,.T.);
#772=ORIENTED_EDGE('',*,*,#761,.T.);
#774=ORIENTED_EDGE('',*,*,#773,.F.);
#775=ORIENTED_EDGE('',*,*,#757,.F.);
#776=EDGE_LOOP('',(#771,#772,#774,#775));
#777=FACE_OUTER_BOUND('',#776,.F.);
#778=ADVANCED_FACE('',(#777),#770,.F.);
#779=CARTESIAN_POINT('',(1.1935E1,-1.14E1,0.E0));
#780=DIRECTION('',(0.E0,0.E0,1.E0));
#781=DIRECTION('',(1.E0,0.E0,0.E0));
#782=AXIS2_PLACEMENT_3D('',#779,#780,#781);
#783=CYLINDRICAL_SURFACE('',#782,1.5E0);
#784=ORIENTED_EDGE('',*,*,#773,.T.);
#786=ORIENTED_EDGE('',*,*,#785,.F.);
#787=ORIENTED_EDGE('',*,*,#436,.F.);
#789=ORIENTED_EDGE('',*,*,#788,.T.);
#790=EDGE_LOOP('',(#784,#786,#787,#789));
#791=FACE_OUTER_BOUND('',#790,.F.);
#792=ADVANCED_FACE('',(#791),#783,.F.);
#793=CARTESIAN_POINT('',(1.1935E1,-1.14E1,0.E0));
#794=DIRECTION('',(0.E0,0.E0,1.E0));
#795=DIRECTION('',(1.E0,0.E0,0.E0));
#796=AXIS2_PLACEMENT_3D('',#793,#794,#795);
#797=CYLINDRICAL_SURFACE('',#796,1.5E0);
#798=ORIENTED_EDGE('',*,*,#759,.T.);
#799=ORIENTED_EDGE('',*,*,#788,.F.);
#800=ORIENTED_EDGE('',*,*,#434,.F.);
#801=ORIENTED_EDGE('',*,*,#785,.T.);
#802=EDGE_LOOP('',(#798,#799,#800,#801));
#803=FACE_OUTER_BOUND('',#802,.F.);
#804=ADVANCED_FACE('',(#803),#797,.F.);
#805=CARTESIAN_POINT('',(-1.195E1,-1.14E1,2.499999997963E0));
#806=DIRECTION('',(0.E0,0.E0,1.E0));
#807=DIRECTION('',(0.E0,-1.E0,0.E0));
#808=AXIS2_PLACEMENT_3D('',#805,#806,#807);
#809=CONICAL_SURFACE('',#808,1.999999997963E0,4.5E1);
#810=ORIENTED_EDGE('',*,*,#535,.T.);
#812=ORIENTED_EDGE('',*,*,#811,.T.);
#814=ORIENTED_EDGE('',*,*,#813,.F.);
#816=ORIENTED_EDGE('',*,*,#815,.F.);
#817=EDGE_LOOP('',(#810,#812,#814,#816));
#818=FACE_OUTER_BOUND('',#817,.F.);
#819=ADVANCED_FACE('',(#818),#809,.F.);
#820=CARTESIAN_POINT('',(-1.195E1,-1.14E1,2.499999997963E0));
#821=DIRECTION('',(0.E0,0.E0,1.E0));
#822=DIRECTION('',(0.E0,-1.E0,0.E0));
#823=AXIS2_PLACEMENT_3D('',#820,#821,#822);
#824=CONICAL_SURFACE('',#823,1.999999997963E0,4.5E1);
#825=ORIENTED_EDGE('',*,*,#537,.T.);
#826=ORIENTED_EDGE('',*,*,#815,.T.);
#828=ORIENTED_EDGE('',*,*,#827,.F.);
#829=ORIENTED_EDGE('',*,*,#811,.F.);
#830=EDGE_LOOP('',(#825,#826,#828,#829));
#831=FACE_OUTER_BOUND('',#830,.F.);
#832=ADVANCED_FACE('',(#831),#824,.F.);
#833=CARTESIAN_POINT('',(-1.195E1,-1.14E1,0.E0));
#834=DIRECTION('',(0.E0,0.E0,1.E0));
#835=DIRECTION('',(1.E0,0.E0,0.E0));
#836=AXIS2_PLACEMENT_3D('',#833,#834,#835);
#837=CYLINDRICAL_SURFACE('',#836,1.5E0);
#838=ORIENTED_EDGE('',*,*,#827,.T.);
#840=ORIENTED_EDGE('',*,*,#839,.F.);
#841=ORIENTED_EDGE('',*,*,#442,.F.);
#843=ORIENTED_EDGE('',*,*,#842,.T.);
#844=EDGE_LOOP('',(#838,#840,#841,#843));
#845=FACE_OUTER_BOUND('',#844,.F.);
#846=ADVANCED_FACE('',(#845),#837,.F.);
#847=CARTESIAN_POINT('',(-1.195E1,-1.14E1,0.E0));
#848=DIRECTION('',(0.E0,0.E0,1.E0));
#849=DIRECTION('',(1.E0,0.E0,0.E0));
#850=AXIS2_PLACEMENT_3D('',#847,#848,#849);
#851=CYLINDRICAL_SURFACE('',#850,1.5E0);
#852=ORIENTED_EDGE('',*,*,#813,.T.);
#853=ORIENTED_EDGE('',*,*,#842,.F.);
#854=ORIENTED_EDGE('',*,*,#440,.F.);
#855=ORIENTED_EDGE('',*,*,#839,.T.);
#856=EDGE_LOOP('',(#852,#853,#854,#855));
#857=FACE_OUTER_BOUND('',#856,.F.);
#858=ADVANCED_FACE('',(#857),#851,.F.);
#859=CLOSED_SHELL('',(#458,#473,#488,#541,#555,#567,#581,#594,#607,#620,#633,
#646,#659,#671,#684,#696,#711,#724,#738,#750,#765,#778,#792,#804,#819,#832,#846,
#858));
#860=MANIFOLD_SOLID_BREP('',#859);
#862=DIMENSIONAL_EXPONENTS(0.E0,0.E0,0.E0,0.E0,0.E0,0.E0,0.E0);
#864=PLANE_ANGLE_MEASURE_WITH_UNIT(PLANE_ANGLE_MEASURE(1.745329251994E-2),#863);
#865=(CONVERSION_BASED_UNIT('DEGREE',#864)NAMED_UNIT(*)PLANE_ANGLE_UNIT());
#867=UNCERTAINTY_MEASURE_WITH_UNIT(LENGTH_MEASURE(5.107632802169E-3),#861,
'closure',
'Maximum model space distance between geometric entities at asserted connectivities');
#868=(GEOMETRIC_REPRESENTATION_CONTEXT(3)GLOBAL_UNCERTAINTY_ASSIGNED_CONTEXT((
#867))GLOBAL_UNIT_ASSIGNED_CONTEXT((#861,#865,#866))REPRESENTATION_CONTEXT
('ID1','3'));
#870=APPLICATION_CONTEXT(
'CONFIGURATION CONTROLLED 3D DESIGNS OF MECHANICAL PARTS AND ASSEMBLIES');
#871=APPLICATION_PROTOCOL_DEFINITION('international standard',
'config_control_design',1994,#870);
#872=DESIGN_CONTEXT('',#870,'design');
#873=MECHANICAL_CONTEXT('',#870,'mechanical');
#874=PRODUCT('JOINTCOVER','JOINTCOVER','NOT SPECIFIED',(#873));
#875=PRODUCT_DEFINITION_FORMATION_WITH_SPECIFIED_SOURCE('4','LAST_VERSION',#874,
.MADE.);
#879=PRODUCT_CATEGORY('part','');
#880=PRODUCT_RELATED_PRODUCT_CATEGORY('detail','',(#874));
#881=PRODUCT_CATEGORY_RELATIONSHIP('','',#879,#880);
#882=SECURITY_CLASSIFICATION_LEVEL('unclassified');
#883=SECURITY_CLASSIFICATION('','',#882);
#884=CC_DESIGN_SECURITY_CLASSIFICATION(#883,(#875));
#885=APPROVAL_STATUS('approved');
#886=APPROVAL(#885,'');
#887=CC_DESIGN_APPROVAL(#886,(#883,#875,#876));
#888=CALENDAR_DATE(126,24,7);
#889=COORDINATED_UNIVERSAL_TIME_OFFSET(8,0,.AHEAD.);
#890=LOCAL_TIME(8,59,0.E0,#889);
#891=DATE_AND_TIME(#888,#890);
#892=APPROVAL_DATE_TIME(#891,#886);
#893=DATE_TIME_ROLE('creation_date');
#894=CC_DESIGN_DATE_AND_TIME_ASSIGNMENT(#891,#893,(#876));
#895=DATE_TIME_ROLE('classification_date');
#896=CC_DESIGN_DATE_AND_TIME_ASSIGNMENT(#891,#895,(#883));
#897=PERSON('UNSPECIFIED','UNSPECIFIED',$,$,$,$);
#898=ORGANIZATION('UNSPECIFIED','UNSPECIFIED','UNSPECIFIED');
#899=PERSON_AND_ORGANIZATION(#897,#898);
#900=APPROVAL_ROLE('approver');
#901=APPROVAL_PERSON_ORGANIZATION(#899,#886,#900);
#902=PERSON_AND_ORGANIZATION_ROLE('creator');
#903=CC_DESIGN_PERSON_AND_ORGANIZATION_ASSIGNMENT(#899,#902,(#875,#876));
#904=PERSON_AND_ORGANIZATION_ROLE('design_supplier');
#905=CC_DESIGN_PERSON_AND_ORGANIZATION_ASSIGNMENT(#899,#904,(#875));
#906=PERSON_AND_ORGANIZATION_ROLE('classification_officer');
#907=CC_DESIGN_PERSON_AND_ORGANIZATION_ASSIGNMENT(#899,#906,(#883));
#908=PERSON_AND_ORGANIZATION_ROLE('design_owner');
#909=CC_DESIGN_PERSON_AND_ORGANIZATION_ASSIGNMENT(#899,#908,(#874));
#5=CIRCLE('',#4,1.5E0);
#10=CIRCLE('',#9,1.5E0);
#15=CIRCLE('',#14,1.5E0);
#20=CIRCLE('',#19,1.5E0);
#25=CIRCLE('',#24,1.5E0);
#30=CIRCLE('',#29,1.5E0);
#35=CIRCLE('',#34,1.5E0);
#40=CIRCLE('',#39,1.5E0);
#45=CIRCLE('',#44,8.2E0);
#50=CIRCLE('',#49,8.2E0);
#55=CIRCLE('',#54,3.E0);
#64=CIRCLE('',#63,3.E0);
#73=CIRCLE('',#72,3.E0);
#82=CIRCLE('',#81,3.E0);
#91=CIRCLE('',#90,1.5E0);
#104=CIRCLE('',#103,8.2E0);
#109=CIRCLE('',#108,8.2E0);
#114=CIRCLE('',#113,3.E0);
#123=CIRCLE('',#122,3.E0);
#132=CIRCLE('',#131,3.E0);
#141=CIRCLE('',#140,3.E0);
#150=CIRCLE('',#149,2.5E0);
#155=CIRCLE('',#154,2.5E0);
#160=CIRCLE('',#159,2.5E0);
#165=CIRCLE('',#164,2.5E0);
#170=CIRCLE('',#169,2.5E0);
#175=CIRCLE('',#174,2.5E0);
#180=CIRCLE('',#179,2.5E0);
#185=CIRCLE('',#184,2.5E0);
#234=CIRCLE('',#233,1.5E0);
#251=CIRCLE('',#250,1.5E0);
#260=CIRCLE('',#259,1.5E0);
#277=CIRCLE('',#276,1.5E0);
#286=CIRCLE('',#285,1.5E0);
#303=CIRCLE('',#302,1.5E0);
#312=CIRCLE('',#311,1.5E0);
#410=EDGE_CURVE('',#359,#360,#55,.T.);
#412=EDGE_CURVE('',#359,#336,#59,.T.);
#414=EDGE_CURVE('',#335,#336,#64,.T.);
#416=EDGE_CURVE('',#335,#344,#68,.T.);
#418=EDGE_CURVE('',#343,#344,#73,.T.);
#420=EDGE_CURVE('',#343,#352,#77,.T.);
#422=EDGE_CURVE('',#351,#352,#82,.T.);
#424=EDGE_CURVE('',#351,#360,#86,.T.);
#428=EDGE_CURVE('',#323,#324,#15,.T.);
#430=EDGE_CURVE('',#324,#323,#20,.T.);
#434=EDGE_CURVE('',#327,#328,#25,.T.);
#436=EDGE_CURVE('',#328,#327,#30,.T.);
#440=EDGE_CURVE('',#331,#332,#35,.T.);
#442=EDGE_CURVE('',#332,#331,#40,.T.);
#446=EDGE_CURVE('',#367,#368,#45,.T.);
#448=EDGE_CURVE('',#368,#367,#50,.T.);
#452=EDGE_CURVE('',#319,#320,#5,.T.);
#454=EDGE_CURVE('',#320,#319,#10,.T.);
#464=EDGE_CURVE('',#379,#380,#91,.T.);
#466=EDGE_CURVE('',#320,#380,#238,.T.);
#469=EDGE_CURVE('',#319,#379,#95,.T.);
#479=EDGE_CURVE('',#375,#376,#150,.T.);
#481=EDGE_CURVE('',#376,#380,#229,.T.);
#484=EDGE_CURVE('',#375,#379,#99,.T.);
#494=EDGE_CURVE('',#362,#364,#114,.T.);
#496=EDGE_CURVE('',#356,#362,#118,.T.);
#498=EDGE_CURVE('',#354,#356,#123,.T.);
#500=EDGE_CURVE('',#348,#354,#127,.T.);
#502=EDGE_CURVE('',#346,#348,#132,.T.);
#504=EDGE_CURVE('',#340,#346,#136,.T.);
#506=EDGE_CURVE('',#338,#340,#141,.T.);
#508=EDGE_CURVE('',#364,#338,#145,.T.);
#512=EDGE_CURVE('',#371,#372,#104,.T.);
#514=EDGE_CURVE('',#372,#371,#109,.T.);
#519=EDGE_CURVE('',#376,#375,#155,.T.);
#523=EDGE_CURVE('',#383,#384,#160,.T.);
#525=EDGE_CURVE('',#384,#383,#165,.T.);
#529=EDGE_CURVE('',#391,#392,#170,.T.);
#531=EDGE_CURVE('',#392,#391,#175,.T.);
#535=EDGE_CURVE('',#399,#400,#180,.T.);
#537=EDGE_CURVE('',#400,#399,#185,.T.);
#548=EDGE_CURVE('',#367,#371,#189,.T.);
#551=EDGE_CURVE('',#368,#372,#193,.T.);
#574=EDGE_CURVE('',#362,#360,#197,.T.);
#577=EDGE_CURVE('',#364,#359,#221,.T.);
#589=EDGE_CURVE('',#356,#351,#201,.T.);
#601=EDGE_CURVE('',#354,#352,#209,.T.);
#613=EDGE_CURVE('',#348,#343,#205,.T.);
#627=EDGE_CURVE('',#346,#344,#213,.T.);
#641=EDGE_CURVE('',#340,#335,#217,.T.);
#653=EDGE_CURVE('',#338,#336,#225,.T.);
#679=EDGE_CURVE('',#380,#379,#234,.T.);
#703=EDGE_CURVE('',#384,#388,#246,.T.);
#705=EDGE_CURVE('',#387,#388,#260,.T.);
#707=EDGE_CURVE('',#383,#387,#242,.T.);
#719=EDGE_CURVE('',#388,#387,#251,.T.);
#731=EDGE_CURVE('',#323,#387,#264,.T.);
#734=EDGE_CURVE('',#324,#388,#255,.T.);
#757=EDGE_CURVE('',#392,#396,#272,.T.);
#759=EDGE_CURVE('',#395,#396,#286,.T.);
#761=EDGE_CURVE('',#391,#395,#268,.T.);
#773=EDGE_CURVE('',#396,#395,#277,.T.);
#785=EDGE_CURVE('',#327,#395,#290,.T.);
#788=EDGE_CURVE('',#328,#396,#281,.T.);
#811=EDGE_CURVE('',#400,#404,#298,.T.);
#813=EDGE_CURVE('',#403,#404,#312,.T.);
#815=EDGE_CURVE('',#399,#403,#294,.T.);
#827=EDGE_CURVE('',#404,#403,#303,.T.);
#839=EDGE_CURVE('',#331,#403,#316,.T.);
#842=EDGE_CURVE('',#332,#404,#307,.T.);
#861=(LENGTH_UNIT()NAMED_UNIT(*)SI_UNIT(.MILLI.,.METRE.));
#863=(NAMED_UNIT(*)PLANE_ANGLE_UNIT()SI_UNIT($,.RADIAN.));
#866=(NAMED_UNIT(*)SI_UNIT($,.STERADIAN.)SOLID_ANGLE_UNIT());
#869=ADVANCED_BREP_SHAPE_REPRESENTATION('',(#860),#868);
#876=PRODUCT_DEFINITION('design','',#875,#872);
#877=PRODUCT_DEFINITION_SHAPE('','SHAPE FOR JOINTCOVER.',#876);
#878=SHAPE_DEFINITION_REPRESENTATION(#877,#869);
ENDSEC;
END-ISO-10303-21;
