ISO-10303-21;
HEADER;
FILE_DESCRIPTION((''),'2;1');
FILE_NAME('AXISCOVER','2026-07-23T13:27:36',('gram2'),(''),
'CREO PARAMETRIC BY PTC INC, 2016510','CREO PARAMETRIC BY PTC INC, 2016510','');
FILE_SCHEMA(('CONFIG_CONTROL_DESIGN'));
ENDSEC;
DATA;
#1=CARTESIAN_POINT('',(1.022E1,2.3E-1,0.E0));
#2=DIRECTION('',(0.E0,0.E0,-1.E0));
#3=DIRECTION('',(1.E0,0.E0,0.E0));
#4=AXIS2_PLACEMENT_3D('',#1,#2,#3);
#6=CARTESIAN_POINT('',(1.022E1,2.3E-1,0.E0));
#7=DIRECTION('',(0.E0,0.E0,-1.E0));
#8=DIRECTION('',(-1.E0,0.E0,0.E0));
#9=AXIS2_PLACEMENT_3D('',#6,#7,#8);
#11=CARTESIAN_POINT('',(-1.018E1,2.3E-1,0.E0));
#12=DIRECTION('',(0.E0,0.E0,-1.E0));
#13=DIRECTION('',(1.E0,0.E0,0.E0));
#14=AXIS2_PLACEMENT_3D('',#11,#12,#13);
#16=CARTESIAN_POINT('',(-1.018E1,2.3E-1,0.E0));
#17=DIRECTION('',(0.E0,0.E0,-1.E0));
#18=DIRECTION('',(-1.E0,0.E0,0.E0));
#19=AXIS2_PLACEMENT_3D('',#16,#17,#18);
#21=DIRECTION('',(1.E0,0.E0,0.E0));
#22=VECTOR('',#21,7.789736837660E0);
#23=CARTESIAN_POINT('',(-3.894868418830E0,-2.4E0,0.E0));
#24=LINE('',#23,#22);
#25=DIRECTION('',(0.E0,1.E0,0.E0));
#26=VECTOR('',#25,1.9E0);
#27=CARTESIAN_POINT('',(-3.894868418830E0,-2.4E0,0.E0));
#28=LINE('',#27,#26);
#29=DIRECTION('',(-1.E0,0.E0,0.E0));
#30=VECTOR('',#29,1.001284522575E-1);
#31=CARTESIAN_POINT('',(-3.894868418830E0,-5.E-1,0.E0));
#32=LINE('',#31,#30);
#33=DIRECTION('',(0.E0,1.E0,0.E0));
#34=VECTOR('',#33,3.5E0);
#35=CARTESIAN_POINT('',(-3.994996871088E0,-5.E-1,0.E0));
#36=LINE('',#35,#34);
#37=DIRECTION('',(-1.E0,0.E0,0.E0));
#38=VECTOR('',#37,2.051696440136E0);
#39=CARTESIAN_POINT('',(-3.994996871088E0,3.E0,0.E0));
#40=LINE('',#39,#38);
#41=DIRECTION('',(0.E0,1.E0,0.E0));
#42=VECTOR('',#41,4.5E0);
#43=CARTESIAN_POINT('',(-6.046693311224E0,3.E0,0.E0));
#44=LINE('',#43,#42);
#45=DIRECTION('',(-1.E0,0.E0,0.E0));
#46=VECTOR('',#45,8.953306688776E0);
#47=CARTESIAN_POINT('',(-6.046693311224E0,7.5E0,0.E0));
#48=LINE('',#47,#46);
#49=DIRECTION('',(0.E0,-1.E0,0.E0));
#50=VECTOR('',#49,1.5E1);
#51=CARTESIAN_POINT('',(-1.5E1,7.5E0,0.E0));
#52=LINE('',#51,#50);
#53=DIRECTION('',(1.E0,0.E0,0.E0));
#54=VECTOR('',#53,3.E1);
#55=CARTESIAN_POINT('',(-1.5E1,-7.5E0,0.E0));
#56=LINE('',#55,#54);
#57=DIRECTION('',(0.E0,1.E0,0.E0));
#58=VECTOR('',#57,1.5E1);
#59=CARTESIAN_POINT('',(1.5E1,-7.5E0,0.E0));
#60=LINE('',#59,#58);
#61=DIRECTION('',(-1.E0,0.E0,0.E0));
#62=VECTOR('',#61,8.953306688776E0);
#63=CARTESIAN_POINT('',(1.5E1,7.5E0,0.E0));
#64=LINE('',#63,#62);
#65=DIRECTION('',(0.E0,1.E0,0.E0));
#66=VECTOR('',#65,4.5E0);
#67=CARTESIAN_POINT('',(6.046693311224E0,3.E0,0.E0));
#68=LINE('',#67,#66);
#69=DIRECTION('',(-1.E0,0.E0,0.E0));
#70=VECTOR('',#69,2.051696440136E0);
#71=CARTESIAN_POINT('',(6.046693311224E0,3.E0,0.E0));
#72=LINE('',#71,#70);
#73=DIRECTION('',(0.E0,1.E0,0.E0));
#74=VECTOR('',#73,3.5E0);
#75=CARTESIAN_POINT('',(3.994996871088E0,-5.E-1,0.E0));
#76=LINE('',#75,#74);
#77=DIRECTION('',(-1.E0,0.E0,0.E0));
#78=VECTOR('',#77,1.001284522575E-1);
#79=CARTESIAN_POINT('',(3.994996871088E0,-5.E-1,0.E0));
#80=LINE('',#79,#78);
#81=DIRECTION('',(0.E0,1.E0,0.E0));
#82=VECTOR('',#81,1.9E0);
#83=CARTESIAN_POINT('',(3.894868418830E0,-2.4E0,0.E0));
#84=LINE('',#83,#82);
#85=DIRECTION('',(0.E0,0.E0,1.E0));
#86=VECTOR('',#85,8.E0);
#87=CARTESIAN_POINT('',(1.182E1,2.3E-1,0.E0));
#88=LINE('',#87,#86);
#89=DIRECTION('',(0.E0,0.E0,1.E0));
#90=VECTOR('',#89,8.E0);
#91=CARTESIAN_POINT('',(8.62E0,2.3E-1,0.E0));
#92=LINE('',#91,#90);
#93=CARTESIAN_POINT('',(1.022E1,2.3E-1,8.E0));
#94=DIRECTION('',(0.E0,0.E0,-1.E0));
#95=DIRECTION('',(1.E0,0.E0,0.E0));
#96=AXIS2_PLACEMENT_3D('',#93,#94,#95);
#98=CARTESIAN_POINT('',(1.022E1,2.3E-1,8.E0));
#99=DIRECTION('',(0.E0,0.E0,-1.E0));
#100=DIRECTION('',(-1.E0,0.E0,0.E0));
#101=AXIS2_PLACEMENT_3D('',#98,#99,#100);
#103=CARTESIAN_POINT('',(-1.018E1,2.3E-1,8.E0));
#104=DIRECTION('',(0.E0,0.E0,-1.E0));
#105=DIRECTION('',(1.E0,0.E0,0.E0));
#106=AXIS2_PLACEMENT_3D('',#103,#104,#105);
#108=CARTESIAN_POINT('',(-1.018E1,2.3E-1,8.E0));
#109=DIRECTION('',(0.E0,0.E0,-1.E0));
#110=DIRECTION('',(-1.E0,0.E0,0.E0));
#111=AXIS2_PLACEMENT_3D('',#108,#109,#110);
#113=DIRECTION('',(0.E0,-1.E0,0.E0));
#114=VECTOR('',#113,1.5E1);
#115=CARTESIAN_POINT('',(6.E0,7.5E0,8.E0));
#116=LINE('',#115,#114);
#117=DIRECTION('',(-1.E0,0.E0,0.E0));
#118=VECTOR('',#117,7.E0);
#119=CARTESIAN_POINT('',(1.3E1,7.5E0,8.E0));
#120=LINE('',#119,#118);
#121=DIRECTION('',(0.E0,1.E0,0.E0));
#122=VECTOR('',#121,1.5E1);
#123=CARTESIAN_POINT('',(1.3E1,-7.5E0,8.E0));
#124=LINE('',#123,#122);
#125=DIRECTION('',(1.E0,0.E0,0.E0));
#126=VECTOR('',#125,7.E0);
#127=CARTESIAN_POINT('',(6.E0,-7.5E0,8.E0));
#128=LINE('',#127,#126);
#129=DIRECTION('',(0.E0,-1.E0,0.E0));
#130=VECTOR('',#129,1.5E1);
#131=CARTESIAN_POINT('',(-6.E0,7.5E0,8.E0));
#132=LINE('',#131,#130);
#133=DIRECTION('',(1.E0,0.E0,0.E0));
#134=VECTOR('',#133,7.E0);
#135=CARTESIAN_POINT('',(-1.3E1,-7.5E0,8.E0));
#136=LINE('',#135,#134);
#137=DIRECTION('',(0.E0,-1.E0,0.E0));
#138=VECTOR('',#137,1.5E1);
#139=CARTESIAN_POINT('',(-1.3E1,7.5E0,8.E0));
#140=LINE('',#139,#138);
#141=DIRECTION('',(-1.E0,0.E0,0.E0));
#142=VECTOR('',#141,7.E0);
#143=CARTESIAN_POINT('',(-6.E0,7.5E0,8.E0));
#144=LINE('',#143,#142);
#145=DIRECTION('',(0.E0,0.E0,1.E0));
#146=VECTOR('',#145,8.E0);
#147=CARTESIAN_POINT('',(-8.58E0,2.3E-1,0.E0));
#148=LINE('',#147,#146);
#149=DIRECTION('',(0.E0,0.E0,1.E0));
#150=VECTOR('',#149,8.E0);
#151=CARTESIAN_POINT('',(-1.178E1,2.3E-1,0.E0));
#152=LINE('',#151,#150);
#153=DIRECTION('',(-7.071067811865E-1,0.E0,7.071067811865E-1));
#154=VECTOR('',#153,2.828427124746E0);
#155=CARTESIAN_POINT('',(6.E0,-7.5E0,8.E0));
#156=LINE('',#155,#154);
#157=CARTESIAN_POINT('',(1.3E1,-7.5E0,6.E0));
#158=DIRECTION('',(0.E0,-1.E0,0.E0));
#159=DIRECTION('',(1.E0,0.E0,0.E0));
#160=AXIS2_PLACEMENT_3D('',#157,#158,#159);
#162=DIRECTION('',(0.E0,0.E0,1.E0));
#163=VECTOR('',#162,6.E0);
#164=CARTESIAN_POINT('',(-1.5E1,-7.5E0,0.E0));
#165=LINE('',#164,#163);
#166=CARTESIAN_POINT('',(-1.3E1,-7.5E0,6.E0));
#167=DIRECTION('',(0.E0,-1.E0,0.E0));
#168=DIRECTION('',(0.E0,0.E0,1.E0));
#169=AXIS2_PLACEMENT_3D('',#166,#167,#168);
#171=DIRECTION('',(-7.071067811865E-1,0.E0,-7.071067811865E-1));
#172=VECTOR('',#171,2.828427124746E0);
#173=CARTESIAN_POINT('',(-4.E0,-7.5E0,1.E1));
#174=LINE('',#173,#172);
#175=DIRECTION('',(1.E0,0.E0,0.E0));
#176=VECTOR('',#175,8.E0);
#177=CARTESIAN_POINT('',(-4.E0,-7.5E0,1.E1));
#178=LINE('',#177,#176);
#179=DIRECTION('',(7.071067811865E-1,0.E0,-7.071067811865E-1));
#180=VECTOR('',#179,2.828427124746E0);
#181=CARTESIAN_POINT('',(4.E0,7.5E0,1.E1));
#182=LINE('',#181,#180);
#183=DIRECTION('',(1.E0,0.E0,0.E0));
#184=VECTOR('',#183,8.E0);
#185=CARTESIAN_POINT('',(-4.E0,7.5E0,1.E1));
#186=LINE('',#185,#184);
#187=DIRECTION('',(7.071067811865E-1,0.E0,7.071067811865E-1));
#188=VECTOR('',#187,2.828427124746E0);
#189=CARTESIAN_POINT('',(-6.E0,7.5E0,8.E0));
#190=LINE('',#189,#188);
#191=CARTESIAN_POINT('',(-1.3E1,7.5E0,6.E0));
#192=DIRECTION('',(0.E0,1.E0,0.E0));
#193=DIRECTION('',(-1.E0,0.E0,0.E0));
#194=AXIS2_PLACEMENT_3D('',#191,#192,#193);
#196=CARTESIAN_POINT('',(0.E0,7.5E0,-2.E-1));
#197=DIRECTION('',(0.E0,1.E0,0.E0));
#198=DIRECTION('',(-9.994534398717E-1,0.E0,3.305785123967E-2));
#199=AXIS2_PLACEMENT_3D('',#196,#197,#198);
#201=DIRECTION('',(0.E0,0.E0,1.E0));
#202=VECTOR('',#201,6.E0);
#203=CARTESIAN_POINT('',(1.5E1,7.5E0,0.E0));
#204=LINE('',#203,#202);
#205=CARTESIAN_POINT('',(1.3E1,7.5E0,6.E0));
#206=DIRECTION('',(0.E0,1.E0,0.E0));
#207=DIRECTION('',(0.E0,0.E0,1.E0));
#208=AXIS2_PLACEMENT_3D('',#205,#206,#207);
#210=DIRECTION('',(0.E0,-1.E0,0.E0));
#211=VECTOR('',#210,1.5E1);
#212=CARTESIAN_POINT('',(4.E0,7.5E0,1.E1));
#213=LINE('',#212,#211);
#214=DIRECTION('',(0.E0,-1.E0,0.E0));
#215=VECTOR('',#214,1.5E1);
#216=CARTESIAN_POINT('',(-4.E0,7.5E0,1.E1));
#217=LINE('',#216,#215);
#218=DIRECTION('',(0.E0,-1.E0,0.E0));
#219=VECTOR('',#218,1.5E1);
#220=CARTESIAN_POINT('',(-1.5E1,7.5E0,6.E0));
#221=LINE('',#220,#219);
#222=DIRECTION('',(0.E0,0.E0,1.E0));
#223=VECTOR('',#222,6.E0);
#224=CARTESIAN_POINT('',(-1.5E1,7.5E0,0.E0));
#225=LINE('',#224,#223);
#226=CARTESIAN_POINT('',(0.E0,3.E0,-2.E-1));
#227=DIRECTION('',(0.E0,1.E0,0.E0));
#228=DIRECTION('',(-9.987492177719E-1,0.E0,5.E-2));
#229=AXIS2_PLACEMENT_3D('',#226,#227,#228);
#231=CARTESIAN_POINT('',(0.E0,3.E0,-2.E-1));
#232=DIRECTION('',(0.E0,1.E0,0.E0));
#233=DIRECTION('',(-9.994534398717E-1,0.E0,3.305785123967E-2));
#234=AXIS2_PLACEMENT_3D('',#231,#232,#233);
#236=DIRECTION('',(-7.295535384493E-1,0.E0,-6.839237052012E-1));
#237=VECTOR('',#236,8.207084462414E-1);
#238=CARTESIAN_POINT('',(3.891879881439E0,-5.E-1,-4.515372506185E-1));
#239=LINE('',#238,#237);
#240=CARTESIAN_POINT('',(0.E0,-5.E-1,-2.E-1));
#241=DIRECTION('',(0.E0,1.E0,0.E0));
#242=DIRECTION('',(9.986842099564E-1,0.E0,5.128205128205E-2));
#243=AXIS2_PLACEMENT_3D('',#240,#241,#242);
#245=CARTESIAN_POINT('',(0.E0,-5.E-1,-2.E-1));
#246=DIRECTION('',(0.E0,1.E0,0.E0));
#247=DIRECTION('',(-9.987492177719E-1,0.E0,5.E-2));
#248=AXIS2_PLACEMENT_3D('',#245,#246,#247);
#250=CARTESIAN_POINT('',(0.E0,-5.E-1,-2.E-1));
#251=DIRECTION('',(0.E0,1.E0,0.E0));
#252=DIRECTION('',(-9.979179183177E-1,0.E0,-6.449673092783E-2));
#253=AXIS2_PLACEMENT_3D('',#250,#251,#252);
#255=DIRECTION('',(-7.295535384493E-1,0.E0,6.839237052012E-1));
#256=VECTOR('',#255,8.207084462414E-1);
#257=CARTESIAN_POINT('',(-3.293129130449E0,-5.E-1,-1.012839212062E0));
#258=LINE('',#257,#256);
#259=DIRECTION('',(-1.E0,0.E0,0.E0));
#260=VECTOR('',#259,6.586258260897E0);
#261=CARTESIAN_POINT('',(3.293129130449E0,-5.E-1,-1.012839212062E0));
#262=LINE('',#261,#260);
#263=DIRECTION('',(-6.021863151807E-1,5.645226487082E-1,-5.645226487082E-1));
#264=VECTOR('',#263,3.542816226376E-1);
#265=CARTESIAN_POINT('',(3.506472675321E0,-2.4E0,-8.128392120618E-1));
#266=LINE('',#265,#264);
#267=DIRECTION('',(1.E0,0.E0,0.E0));
#268=VECTOR('',#267,6.586258260897E0);
#269=CARTESIAN_POINT('',(-3.293129130449E0,-2.2E0,-1.012839212062E0));
#270=LINE('',#269,#268);
#271=DIRECTION('',(0.E0,-1.E0,0.E0));
#272=VECTOR('',#271,1.7E0);
#273=CARTESIAN_POINT('',(3.293129130449E0,-5.E-1,-1.012839212062E0));
#274=LINE('',#273,#272);
#275=DIRECTION('',(0.E0,-1.E0,0.E0));
#276=VECTOR('',#275,1.7E0);
#277=CARTESIAN_POINT('',(-3.293129130449E0,-5.E-1,-1.012839212062E0));
#278=LINE('',#277,#276);
#279=DIRECTION('',(-6.021863151807E-1,-5.645226487082E-1,5.645226487082E-1));
#280=VECTOR('',#279,3.542816226376E-1);
#281=CARTESIAN_POINT('',(-3.293129130449E0,-2.2E0,-1.012839212062E0));
#282=LINE('',#281,#280);
#283=DIRECTION('',(0.E0,-1.E0,0.E0));
#284=VECTOR('',#283,1.9E0);
#285=CARTESIAN_POINT('',(3.891879881439E0,-5.E-1,-4.515372506185E-1));
#286=LINE('',#285,#284);
#287=DIRECTION('',(0.E0,-1.E0,0.E0));
#288=VECTOR('',#287,1.9E0);
#289=CARTESIAN_POINT('',(-3.891879881439E0,-5.E-1,-4.515372506185E-1));
#290=LINE('',#289,#288);
#291=DIRECTION('',(1.E0,0.E0,0.E0));
#292=VECTOR('',#291,7.012945350642E0);
#293=CARTESIAN_POINT('',(-3.506472675321E0,-2.4E0,-8.128392120618E-1));
#294=LINE('',#293,#292);
#295=DIRECTION('',(7.295535384493E-1,0.E0,-6.839237052012E-1));
#296=VECTOR('',#295,5.282781671342E-1);
#297=CARTESIAN_POINT('',(-3.891879881439E0,-2.4E0,-4.515372506185E-1));
#298=LINE('',#297,#296);
#299=CARTESIAN_POINT('',(0.E0,-2.4E0,-2.E-1));
#300=DIRECTION('',(0.E0,1.E0,0.E0));
#301=DIRECTION('',(-9.979179183177E-1,0.E0,-6.449673092783E-2));
#302=AXIS2_PLACEMENT_3D('',#299,#300,#301);
#304=CARTESIAN_POINT('',(0.E0,-2.4E0,-2.E-1));
#305=DIRECTION('',(0.E0,1.E0,0.E0));
#306=DIRECTION('',(9.986842099564E-1,0.E0,5.128205128205E-2));
#307=AXIS2_PLACEMENT_3D('',#304,#305,#306);
#309=DIRECTION('',(7.295535384493E-1,0.E0,6.839237052012E-1));
#310=VECTOR('',#309,5.282781671342E-1);
#311=CARTESIAN_POINT('',(3.506472675321E0,-2.4E0,-8.128392120618E-1));
#312=LINE('',#311,#310);
#313=DIRECTION('',(0.E0,1.E0,0.E0));
#314=VECTOR('',#313,1.5E1);
#315=CARTESIAN_POINT('',(1.5E1,-7.5E0,6.E0));
#316=LINE('',#315,#314);
#317=DIRECTION('',(0.E0,0.E0,1.E0));
#318=VECTOR('',#317,6.E0);
#319=CARTESIAN_POINT('',(1.5E1,-7.5E0,0.E0));
#320=LINE('',#319,#318);
#321=CARTESIAN_POINT('',(1.182E1,2.3E-1,0.E0));
#322=CARTESIAN_POINT('',(8.62E0,2.3E-1,0.E0));
#323=VERTEX_POINT('',#321);
#324=VERTEX_POINT('',#322);
#325=CARTESIAN_POINT('',(-8.58E0,2.3E-1,0.E0));
#326=CARTESIAN_POINT('',(-1.178E1,2.3E-1,0.E0));
#327=VERTEX_POINT('',#325);
#328=VERTEX_POINT('',#326);
#329=CARTESIAN_POINT('',(-1.5E1,7.5E0,0.E0));
#330=CARTESIAN_POINT('',(-1.5E1,-7.5E0,0.E0));
#331=VERTEX_POINT('',#329);
#332=VERTEX_POINT('',#330);
#333=CARTESIAN_POINT('',(1.5E1,-7.5E0,0.E0));
#334=VERTEX_POINT('',#333);
#335=CARTESIAN_POINT('',(1.5E1,7.5E0,0.E0));
#336=VERTEX_POINT('',#335);
#337=CARTESIAN_POINT('',(1.182E1,2.3E-1,8.E0));
#338=CARTESIAN_POINT('',(8.62E0,2.3E-1,8.E0));
#339=VERTEX_POINT('',#337);
#340=VERTEX_POINT('',#338);
#341=CARTESIAN_POINT('',(-8.58E0,2.3E-1,8.E0));
#342=CARTESIAN_POINT('',(-1.178E1,2.3E-1,8.E0));
#343=VERTEX_POINT('',#341);
#344=VERTEX_POINT('',#342);
#345=CARTESIAN_POINT('',(-6.046693311224E0,3.E0,0.E0));
#346=CARTESIAN_POINT('',(-6.046693311224E0,7.5E0,0.E0));
#347=VERTEX_POINT('',#345);
#348=VERTEX_POINT('',#346);
#349=CARTESIAN_POINT('',(6.046693311224E0,3.E0,0.E0));
#350=CARTESIAN_POINT('',(6.046693311224E0,7.5E0,0.E0));
#351=VERTEX_POINT('',#349);
#352=VERTEX_POINT('',#350);
#353=CARTESIAN_POINT('',(-3.994996871088E0,-5.E-1,0.E0));
#354=CARTESIAN_POINT('',(-3.994996871088E0,3.E0,0.E0));
#355=VERTEX_POINT('',#353);
#356=VERTEX_POINT('',#354);
#357=CARTESIAN_POINT('',(3.994996871088E0,-5.E-1,0.E0));
#358=CARTESIAN_POINT('',(3.994996871088E0,3.E0,0.E0));
#359=VERTEX_POINT('',#357);
#360=VERTEX_POINT('',#358);
#361=CARTESIAN_POINT('',(-1.3E1,-7.5E0,8.E0));
#362=CARTESIAN_POINT('',(-1.5E1,-7.5E0,6.E0));
#363=VERTEX_POINT('',#361);
#364=VERTEX_POINT('',#362);
#365=CARTESIAN_POINT('',(-1.5E1,7.5E0,6.E0));
#366=VERTEX_POINT('',#365);
#367=CARTESIAN_POINT('',(-1.3E1,7.5E0,8.E0));
#368=VERTEX_POINT('',#367);
#369=CARTESIAN_POINT('',(1.3E1,7.5E0,8.E0));
#370=CARTESIAN_POINT('',(1.5E1,7.5E0,6.E0));
#371=VERTEX_POINT('',#369);
#372=VERTEX_POINT('',#370);
#373=CARTESIAN_POINT('',(1.5E1,-7.5E0,6.E0));
#374=VERTEX_POINT('',#373);
#375=CARTESIAN_POINT('',(1.3E1,-7.5E0,8.E0));
#376=VERTEX_POINT('',#375);
#377=CARTESIAN_POINT('',(-3.894868418830E0,-2.4E0,0.E0));
#378=CARTESIAN_POINT('',(3.894868418830E0,-2.4E0,0.E0));
#379=VERTEX_POINT('',#377);
#380=VERTEX_POINT('',#378);
#381=CARTESIAN_POINT('',(-3.894868418830E0,-5.E-1,0.E0));
#382=VERTEX_POINT('',#381);
#383=CARTESIAN_POINT('',(3.894868418830E0,-5.E-1,0.E0));
#384=VERTEX_POINT('',#383);
#385=CARTESIAN_POINT('',(3.891879881439E0,-5.E-1,-4.515372506185E-1));
#386=CARTESIAN_POINT('',(3.891879881439E0,-2.4E0,-4.515372506185E-1));
#387=VERTEX_POINT('',#385);
#388=VERTEX_POINT('',#386);
#389=CARTESIAN_POINT('',(3.293129130449E0,-5.E-1,-1.012839212062E0));
#390=VERTEX_POINT('',#389);
#391=CARTESIAN_POINT('',(-3.293129130449E0,-5.E-1,-1.012839212062E0));
#392=CARTESIAN_POINT('',(-3.891879881439E0,-5.E-1,-4.515372506185E-1));
#393=VERTEX_POINT('',#391);
#394=VERTEX_POINT('',#392);
#395=CARTESIAN_POINT('',(-3.891879881439E0,-2.4E0,-4.515372506185E-1));
#396=VERTEX_POINT('',#395);
#397=CARTESIAN_POINT('',(3.506472675321E0,-2.4E0,-8.128392120618E-1));
#398=CARTESIAN_POINT('',(3.293129130449E0,-2.2E0,-1.012839212062E0));
#399=VERTEX_POINT('',#397);
#400=VERTEX_POINT('',#398);
#401=CARTESIAN_POINT('',(-3.293129130449E0,-2.2E0,-1.012839212062E0));
#402=VERTEX_POINT('',#401);
#403=CARTESIAN_POINT('',(-3.506472675321E0,-2.4E0,-8.128392120618E-1));
#404=VERTEX_POINT('',#403);
#405=CARTESIAN_POINT('',(6.E0,-7.5E0,8.E0));
#406=CARTESIAN_POINT('',(4.E0,-7.5E0,1.E1));
#407=VERTEX_POINT('',#405);
#408=VERTEX_POINT('',#406);
#409=CARTESIAN_POINT('',(4.E0,7.5E0,1.E1));
#410=VERTEX_POINT('',#409);
#411=CARTESIAN_POINT('',(6.E0,7.5E0,8.E0));
#412=VERTEX_POINT('',#411);
#413=CARTESIAN_POINT('',(-4.E0,-7.5E0,1.E1));
#414=CARTESIAN_POINT('',(-6.E0,-7.5E0,8.E0));
#415=VERTEX_POINT('',#413);
#416=VERTEX_POINT('',#414);
#417=CARTESIAN_POINT('',(-6.E0,7.5E0,8.E0));
#418=VERTEX_POINT('',#417);
#419=CARTESIAN_POINT('',(-4.E0,7.5E0,1.E1));
#420=VERTEX_POINT('',#419);
#421=CARTESIAN_POINT('',(0.E0,0.E0,0.E0));
#422=DIRECTION('',(0.E0,0.E0,1.E0));
#423=DIRECTION('',(1.E0,0.E0,0.E0));
#424=AXIS2_PLACEMENT_3D('',#421,#422,#423);
#425=PLANE('',#424);
#427=ORIENTED_EDGE('',*,*,#426,.F.);
#429=ORIENTED_EDGE('',*,*,#428,.T.);
#431=ORIENTED_EDGE('',*,*,#430,.T.);
#433=ORIENTED_EDGE('',*,*,#432,.T.);
#435=ORIENTED_EDGE('',*,*,#434,.T.);
#437=ORIENTED_EDGE('',*,*,#436,.T.);
#439=ORIENTED_EDGE('',*,*,#438,.T.);
#441=ORIENTED_EDGE('',*,*,#440,.T.);
#443=ORIENTED_EDGE('',*,*,#442,.T.);
#445=ORIENTED_EDGE('',*,*,#444,.T.);
#447=ORIENTED_EDGE('',*,*,#446,.T.);
#449=ORIENTED_EDGE('',*,*,#448,.F.);
#451=ORIENTED_EDGE('',*,*,#450,.T.);
#453=ORIENTED_EDGE('',*,*,#452,.F.);
#455=ORIENTED_EDGE('',*,*,#454,.T.);
#457=ORIENTED_EDGE('',*,*,#456,.F.);
#458=EDGE_LOOP('',(#427,#429,#431,#433,#435,#437,#439,#441,#443,#445,#447,#449,
#451,#453,#455,#457));
#459=FACE_OUTER_BOUND('',#458,.F.);
#461=ORIENTED_EDGE('',*,*,#460,.T.);
#463=ORIENTED_EDGE('',*,*,#462,.T.);
#464=EDGE_LOOP('',(#461,#463));
#465=FACE_BOUND('',#464,.F.);
#467=ORIENTED_EDGE('',*,*,#466,.T.);
#469=ORIENTED_EDGE('',*,*,#468,.T.);
#470=EDGE_LOOP('',(#467,#469));
#471=FACE_BOUND('',#470,.F.);
#472=ADVANCED_FACE('',(#459,#465,#471),#425,.F.);
#473=CARTESIAN_POINT('',(1.022E1,2.3E-1,0.E0));
#474=DIRECTION('',(0.E0,0.E0,1.E0));
#475=DIRECTION('',(1.E0,0.E0,0.E0));
#476=AXIS2_PLACEMENT_3D('',#473,#474,#475);
#477=CYLINDRICAL_SURFACE('',#476,1.6E0);
#478=ORIENTED_EDGE('',*,*,#466,.F.);
#480=ORIENTED_EDGE('',*,*,#479,.T.);
#482=ORIENTED_EDGE('',*,*,#481,.T.);
#484=ORIENTED_EDGE('',*,*,#483,.F.);
#485=EDGE_LOOP('',(#478,#480,#482,#484));
#486=FACE_OUTER_BOUND('',#485,.F.);
#487=ADVANCED_FACE('',(#486),#477,.F.);
#488=CARTESIAN_POINT('',(1.022E1,2.3E-1,0.E0));
#489=DIRECTION('',(0.E0,0.E0,1.E0));
#490=DIRECTION('',(1.E0,0.E0,0.E0));
#491=AXIS2_PLACEMENT_3D('',#488,#489,#490);
#492=CYLINDRICAL_SURFACE('',#491,1.6E0);
#493=ORIENTED_EDGE('',*,*,#468,.F.);
#494=ORIENTED_EDGE('',*,*,#483,.T.);
#496=ORIENTED_EDGE('',*,*,#495,.T.);
#497=ORIENTED_EDGE('',*,*,#479,.F.);
#498=EDGE_LOOP('',(#493,#494,#496,#497));
#499=FACE_OUTER_BOUND('',#498,.F.);
#500=ADVANCED_FACE('',(#499),#492,.F.);
#501=CARTESIAN_POINT('',(0.E0,0.E0,8.E0));
#502=DIRECTION('',(0.E0,0.E0,1.E0));
#503=DIRECTION('',(1.E0,0.E0,0.E0));
#504=AXIS2_PLACEMENT_3D('',#501,#502,#503);
#505=PLANE('',#504);
#507=ORIENTED_EDGE('',*,*,#506,.F.);
#509=ORIENTED_EDGE('',*,*,#508,.F.);
#511=ORIENTED_EDGE('',*,*,#510,.F.);
#513=ORIENTED_EDGE('',*,*,#512,.F.);
#514=EDGE_LOOP('',(#507,#509,#511,#513));
#515=FACE_OUTER_BOUND('',#514,.F.);
#516=ORIENTED_EDGE('',*,*,#481,.F.);
#517=ORIENTED_EDGE('',*,*,#495,.F.);
#518=EDGE_LOOP('',(#516,#517));
#519=FACE_BOUND('',#518,.F.);
#520=ADVANCED_FACE('',(#515,#519),#505,.T.);
#521=CARTESIAN_POINT('',(0.E0,0.E0,8.E0));
#522=DIRECTION('',(0.E0,0.E0,1.E0));
#523=DIRECTION('',(1.E0,0.E0,0.E0));
#524=AXIS2_PLACEMENT_3D('',#521,#522,#523);
#525=PLANE('',#524);
#527=ORIENTED_EDGE('',*,*,#526,.T.);
#529=ORIENTED_EDGE('',*,*,#528,.F.);
#531=ORIENTED_EDGE('',*,*,#530,.F.);
#533=ORIENTED_EDGE('',*,*,#532,.F.);
#534=EDGE_LOOP('',(#527,#529,#531,#533));
#535=FACE_OUTER_BOUND('',#534,.F.);
#537=ORIENTED_EDGE('',*,*,#536,.F.);
#539=ORIENTED_EDGE('',*,*,#538,.F.);
#540=EDGE_LOOP('',(#537,#539));
#541=FACE_BOUND('',#540,.F.);
#542=ADVANCED_FACE('',(#535,#541),#525,.T.);
#543=CARTESIAN_POINT('',(-1.018E1,2.3E-1,0.E0));
#544=DIRECTION('',(0.E0,0.E0,1.E0));
#545=DIRECTION('',(1.E0,0.E0,0.E0));
#546=AXIS2_PLACEMENT_3D('',#543,#544,#545);
#547=CYLINDRICAL_SURFACE('',#546,1.6E0);
#548=ORIENTED_EDGE('',*,*,#460,.F.);
#550=ORIENTED_EDGE('',*,*,#549,.T.);
#551=ORIENTED_EDGE('',*,*,#536,.T.);
#553=ORIENTED_EDGE('',*,*,#552,.F.);
#554=EDGE_LOOP('',(#548,#550,#551,#553));
#555=FACE_OUTER_BOUND('',#554,.F.);
#556=ADVANCED_FACE('',(#555),#547,.F.);
#557=CARTESIAN_POINT('',(-1.018E1,2.3E-1,0.E0));
#558=DIRECTION('',(0.E0,0.E0,1.E0));
#559=DIRECTION('',(1.E0,0.E0,0.E0));
#560=AXIS2_PLACEMENT_3D('',#557,#558,#559);
#561=CYLINDRICAL_SURFACE('',#560,1.6E0);
#562=ORIENTED_EDGE('',*,*,#462,.F.);
#563=ORIENTED_EDGE('',*,*,#552,.T.);
#564=ORIENTED_EDGE('',*,*,#538,.T.);
#565=ORIENTED_EDGE('',*,*,#549,.F.);
#566=EDGE_LOOP('',(#562,#563,#564,#565));
#567=FACE_OUTER_BOUND('',#566,.F.);
#568=ADVANCED_FACE('',(#567),#561,.F.);
#569=CARTESIAN_POINT('',(5.E0,1.065814103640E-14,9.E0));
#570=DIRECTION('',(7.071067811865E-1,0.E0,7.071067811865E-1));
#571=DIRECTION('',(-7.071067811865E-1,0.E0,7.071067811865E-1));
#572=AXIS2_PLACEMENT_3D('',#569,#570,#571);
#573=PLANE('',#572);
#575=ORIENTED_EDGE('',*,*,#574,.T.);
#577=ORIENTED_EDGE('',*,*,#576,.F.);
#579=ORIENTED_EDGE('',*,*,#578,.T.);
#580=ORIENTED_EDGE('',*,*,#506,.T.);
#581=EDGE_LOOP('',(#575,#577,#579,#580));
#582=FACE_OUTER_BOUND('',#581,.F.);
#583=ADVANCED_FACE('',(#582),#573,.T.);
#584=CARTESIAN_POINT('',(-1.5E1,-7.5E0,0.E0));
#585=DIRECTION('',(0.E0,-1.E0,0.E0));
#586=DIRECTION('',(1.E0,0.E0,0.E0));
#587=AXIS2_PLACEMENT_3D('',#584,#585,#586);
#588=PLANE('',#587);
#589=ORIENTED_EDGE('',*,*,#574,.F.);
#590=ORIENTED_EDGE('',*,*,#512,.T.);
#592=ORIENTED_EDGE('',*,*,#591,.F.);
#594=ORIENTED_EDGE('',*,*,#593,.F.);
#595=ORIENTED_EDGE('',*,*,#442,.F.);
#597=ORIENTED_EDGE('',*,*,#596,.T.);
#599=ORIENTED_EDGE('',*,*,#598,.F.);
#600=ORIENTED_EDGE('',*,*,#528,.T.);
#602=ORIENTED_EDGE('',*,*,#601,.F.);
#604=ORIENTED_EDGE('',*,*,#603,.T.);
#605=EDGE_LOOP('',(#589,#590,#592,#594,#595,#597,#599,#600,#602,#604));
#606=FACE_OUTER_BOUND('',#605,.F.);
#607=ADVANCED_FACE('',(#606),#588,.T.);
#608=CARTESIAN_POINT('',(1.3E1,-2.7054E1,6.E0));
#609=DIRECTION('',(0.E0,1.E0,0.E0));
#610=DIRECTION('',(0.E0,0.E0,1.E0));
#611=AXIS2_PLACEMENT_3D('',#608,#609,#610);
#612=CYLINDRICAL_SURFACE('',#611,2.E0);
#614=ORIENTED_EDGE('',*,*,#613,.T.);
#616=ORIENTED_EDGE('',*,*,#615,.F.);
#617=ORIENTED_EDGE('',*,*,#591,.T.);
#618=ORIENTED_EDGE('',*,*,#510,.T.);
#619=EDGE_LOOP('',(#614,#616,#617,#618));
#620=FACE_OUTER_BOUND('',#619,.F.);
#621=ADVANCED_FACE('',(#620),#612,.T.);
#622=CARTESIAN_POINT('',(1.5E1,7.5E0,0.E0));
#623=DIRECTION('',(0.E0,1.E0,0.E0));
#624=DIRECTION('',(-1.E0,0.E0,0.E0));
#625=AXIS2_PLACEMENT_3D('',#622,#623,#624);
#626=PLANE('',#625);
#627=ORIENTED_EDGE('',*,*,#578,.F.);
#629=ORIENTED_EDGE('',*,*,#628,.F.);
#631=ORIENTED_EDGE('',*,*,#630,.F.);
#632=ORIENTED_EDGE('',*,*,#532,.T.);
#634=ORIENTED_EDGE('',*,*,#633,.F.);
#636=ORIENTED_EDGE('',*,*,#635,.F.);
#637=ORIENTED_EDGE('',*,*,#438,.F.);
#639=ORIENTED_EDGE('',*,*,#638,.T.);
#640=ORIENTED_EDGE('',*,*,#446,.F.);
#642=ORIENTED_EDGE('',*,*,#641,.T.);
#643=ORIENTED_EDGE('',*,*,#613,.F.);
#644=ORIENTED_EDGE('',*,*,#508,.T.);
#645=EDGE_LOOP('',(#627,#629,#631,#632,#634,#636,#637,#639,#640,#642,#643,
#644));
#646=FACE_OUTER_BOUND('',#645,.F.);
#647=ADVANCED_FACE('',(#646),#626,.T.);
#648=CARTESIAN_POINT('',(-6.E0,7.5E0,1.E1));
#649=DIRECTION('',(0.E0,0.E0,1.E0));
#650=DIRECTION('',(1.E0,0.E0,0.E0));
#651=AXIS2_PLACEMENT_3D('',#648,#649,#650);
#652=PLANE('',#651);
#653=ORIENTED_EDGE('',*,*,#576,.T.);
#654=ORIENTED_EDGE('',*,*,#603,.F.);
#656=ORIENTED_EDGE('',*,*,#655,.F.);
#657=ORIENTED_EDGE('',*,*,#628,.T.);
#658=EDGE_LOOP('',(#653,#654,#656,#657));
#659=FACE_OUTER_BOUND('',#658,.F.);
#660=ADVANCED_FACE('',(#659),#652,.T.);
#661=CARTESIAN_POINT('',(-5.E0,1.598721155460E-14,9.E0));
#662=DIRECTION('',(-7.071067811865E-1,0.E0,7.071067811865E-1));
#663=DIRECTION('',(-7.071067811865E-1,0.E0,-7.071067811865E-1));
#664=AXIS2_PLACEMENT_3D('',#661,#662,#663);
#665=PLANE('',#664);
#666=ORIENTED_EDGE('',*,*,#601,.T.);
#667=ORIENTED_EDGE('',*,*,#526,.F.);
#668=ORIENTED_EDGE('',*,*,#630,.T.);
#669=ORIENTED_EDGE('',*,*,#655,.T.);
#670=EDGE_LOOP('',(#666,#667,#668,#669));
#671=FACE_OUTER_BOUND('',#670,.F.);
#672=ADVANCED_FACE('',(#671),#665,.T.);
#673=CARTESIAN_POINT('',(-1.3E1,2.7054E1,6.E0));
#674=DIRECTION('',(0.E0,-1.E0,0.E0));
#675=DIRECTION('',(0.E0,0.E0,1.E0));
#676=AXIS2_PLACEMENT_3D('',#673,#674,#675);
#677=CYLINDRICAL_SURFACE('',#676,2.E0);
#678=ORIENTED_EDGE('',*,*,#598,.T.);
#680=ORIENTED_EDGE('',*,*,#679,.F.);
#681=ORIENTED_EDGE('',*,*,#633,.T.);
#682=ORIENTED_EDGE('',*,*,#530,.T.);
#683=EDGE_LOOP('',(#678,#680,#681,#682));
#684=FACE_OUTER_BOUND('',#683,.F.);
#685=ADVANCED_FACE('',(#684),#677,.T.);
#686=CARTESIAN_POINT('',(-1.5E1,7.5E0,0.E0));
#687=DIRECTION('',(-1.E0,0.E0,0.E0));
#688=DIRECTION('',(0.E0,-1.E0,0.E0));
#689=AXIS2_PLACEMENT_3D('',#686,#687,#688);
#690=PLANE('',#689);
#691=ORIENTED_EDGE('',*,*,#679,.T.);
#692=ORIENTED_EDGE('',*,*,#596,.F.);
#693=ORIENTED_EDGE('',*,*,#440,.F.);
#694=ORIENTED_EDGE('',*,*,#635,.T.);
#695=EDGE_LOOP('',(#691,#692,#693,#694));
#696=FACE_OUTER_BOUND('',#695,.F.);
#697=ADVANCED_FACE('',(#696),#690,.T.);
#698=CARTESIAN_POINT('',(0.E0,7.5E0,-2.E-1));
#699=DIRECTION('',(0.E0,1.E0,0.E0));
#700=DIRECTION('',(-1.E0,0.E0,0.E0));
#701=AXIS2_PLACEMENT_3D('',#698,#699,#700);
#702=CYLINDRICAL_SURFACE('',#701,6.05E0);
#703=ORIENTED_EDGE('',*,*,#436,.F.);
#705=ORIENTED_EDGE('',*,*,#704,.T.);
#706=ORIENTED_EDGE('',*,*,#448,.T.);
#707=ORIENTED_EDGE('',*,*,#638,.F.);
#708=EDGE_LOOP('',(#703,#705,#706,#707));
#709=FACE_OUTER_BOUND('',#708,.F.);
#710=ADVANCED_FACE('',(#709),#702,.F.);
#711=CARTESIAN_POINT('',(0.E0,3.E0,0.E0));
#712=DIRECTION('',(0.E0,1.E0,0.E0));
#713=DIRECTION('',(-1.E0,0.E0,0.E0));
#714=AXIS2_PLACEMENT_3D('',#711,#712,#713);
#715=PLANE('',#714);
#717=ORIENTED_EDGE('',*,*,#716,.T.);
#718=ORIENTED_EDGE('',*,*,#450,.F.);
#719=ORIENTED_EDGE('',*,*,#704,.F.);
#720=ORIENTED_EDGE('',*,*,#434,.F.);
#721=EDGE_LOOP('',(#717,#718,#719,#720));
#722=FACE_OUTER_BOUND('',#721,.F.);
#723=ADVANCED_FACE('',(#722),#715,.T.);
#724=CARTESIAN_POINT('',(0.E0,7.5E0,-2.E-1));
#725=DIRECTION('',(0.E0,1.E0,0.E0));
#726=DIRECTION('',(-1.E0,0.E0,0.E0));
#727=AXIS2_PLACEMENT_3D('',#724,#725,#726);
#728=CYLINDRICAL_SURFACE('',#727,4.E0);
#729=ORIENTED_EDGE('',*,*,#432,.F.);
#731=ORIENTED_EDGE('',*,*,#730,.T.);
#732=ORIENTED_EDGE('',*,*,#452,.T.);
#733=ORIENTED_EDGE('',*,*,#716,.F.);
#734=EDGE_LOOP('',(#729,#731,#732,#733));
#735=FACE_OUTER_BOUND('',#734,.F.);
#736=ADVANCED_FACE('',(#735),#728,.F.);
#737=CARTESIAN_POINT('',(0.E0,-5.E-1,0.E0));
#738=DIRECTION('',(0.E0,1.E0,0.E0));
#739=DIRECTION('',(-1.E0,0.E0,0.E0));
#740=AXIS2_PLACEMENT_3D('',#737,#738,#739);
#741=PLANE('',#740);
#743=ORIENTED_EDGE('',*,*,#742,.F.);
#745=ORIENTED_EDGE('',*,*,#744,.F.);
#746=ORIENTED_EDGE('',*,*,#454,.F.);
#747=ORIENTED_EDGE('',*,*,#730,.F.);
#748=ORIENTED_EDGE('',*,*,#430,.F.);
#750=ORIENTED_EDGE('',*,*,#749,.F.);
#752=ORIENTED_EDGE('',*,*,#751,.F.);
#754=ORIENTED_EDGE('',*,*,#753,.F.);
#755=EDGE_LOOP('',(#743,#745,#746,#747,#748,#750,#752,#754));
#756=FACE_OUTER_BOUND('',#755,.F.);
#757=ADVANCED_FACE('',(#756),#741,.T.);
#758=CARTESIAN_POINT('',(3.592504505944E0,-1.45E0,-7.321882313402E-1));
#759=DIRECTION('',(6.839237052012E-1,0.E0,-7.295535384493E-1));
#760=DIRECTION('',(7.295535384493E-1,0.E0,6.839237052012E-1));
#761=AXIS2_PLACEMENT_3D('',#758,#759,#760);
#762=PLANE('',#761);
#764=ORIENTED_EDGE('',*,*,#763,.F.);
#766=ORIENTED_EDGE('',*,*,#765,.T.);
#768=ORIENTED_EDGE('',*,*,#767,.F.);
#769=ORIENTED_EDGE('',*,*,#742,.T.);
#771=ORIENTED_EDGE('',*,*,#770,.T.);
#772=EDGE_LOOP('',(#764,#766,#768,#769,#771));
#773=FACE_OUTER_BOUND('',#772,.F.);
#774=ADVANCED_FACE('',(#773),#762,.T.);
#775=CARTESIAN_POINT('',(0.E0,-2.3E0,-9.128392120618E-1));
#776=DIRECTION('',(0.E0,-7.071067811865E-1,-7.071067811865E-1));
#777=DIRECTION('',(0.E0,7.071067811865E-1,-7.071067811865E-1));
#778=AXIS2_PLACEMENT_3D('',#775,#776,#777);
#779=PLANE('',#778);
#780=ORIENTED_EDGE('',*,*,#763,.T.);
#782=ORIENTED_EDGE('',*,*,#781,.F.);
#784=ORIENTED_EDGE('',*,*,#783,.T.);
#786=ORIENTED_EDGE('',*,*,#785,.T.);
#787=EDGE_LOOP('',(#780,#782,#784,#786));
#788=FACE_OUTER_BOUND('',#787,.F.);
#789=ADVANCED_FACE('',(#788),#779,.T.);
#790=CARTESIAN_POINT('',(3.814353472783E0,-5.E-1,-1.012839212062E0));
#791=DIRECTION('',(0.E0,0.E0,-1.E0));
#792=DIRECTION('',(-1.E0,0.E0,0.E0));
#793=AXIS2_PLACEMENT_3D('',#790,#791,#792);
#794=PLANE('',#793);
#795=ORIENTED_EDGE('',*,*,#781,.T.);
#796=ORIENTED_EDGE('',*,*,#770,.F.);
#797=ORIENTED_EDGE('',*,*,#753,.T.);
#799=ORIENTED_EDGE('',*,*,#798,.T.);
#800=EDGE_LOOP('',(#795,#796,#797,#799));
#801=FACE_OUTER_BOUND('',#800,.F.);
#802=ADVANCED_FACE('',(#801),#794,.T.);
#803=CARTESIAN_POINT('',(-3.592504505944E0,-1.45E0,-7.321882313402E-1));
#804=DIRECTION('',(-6.839237052012E-1,0.E0,-7.295535384493E-1));
#805=DIRECTION('',(7.295535384493E-1,0.E0,-6.839237052012E-1));
#806=AXIS2_PLACEMENT_3D('',#803,#804,#805);
#807=PLANE('',#806);
#808=ORIENTED_EDGE('',*,*,#783,.F.);
#809=ORIENTED_EDGE('',*,*,#798,.F.);
#810=ORIENTED_EDGE('',*,*,#751,.T.);
#812=ORIENTED_EDGE('',*,*,#811,.T.);
#814=ORIENTED_EDGE('',*,*,#813,.T.);
#815=EDGE_LOOP('',(#808,#809,#810,#812,#814));
#816=FACE_OUTER_BOUND('',#815,.F.);
#817=ADVANCED_FACE('',(#816),#807,.T.);
#818=CARTESIAN_POINT('',(0.E0,-5.E-1,-2.E-1));
#819=DIRECTION('',(0.E0,1.E0,0.E0));
#820=DIRECTION('',(1.E0,0.E0,0.E0));
#821=AXIS2_PLACEMENT_3D('',#818,#819,#820);
#822=CYLINDRICAL_SURFACE('',#821,3.9E0);
#823=ORIENTED_EDGE('',*,*,#767,.T.);
#825=ORIENTED_EDGE('',*,*,#824,.F.);
#826=ORIENTED_EDGE('',*,*,#456,.T.);
#827=ORIENTED_EDGE('',*,*,#744,.T.);
#828=EDGE_LOOP('',(#823,#825,#826,#827));
#829=FACE_OUTER_BOUND('',#828,.F.);
#830=ADVANCED_FACE('',(#829),#822,.T.);
#831=CARTESIAN_POINT('',(0.E0,-5.E-1,-2.E-1));
#832=DIRECTION('',(0.E0,1.E0,0.E0));
#833=DIRECTION('',(1.E0,0.E0,0.E0));
#834=AXIS2_PLACEMENT_3D('',#831,#832,#833);
#835=CYLINDRICAL_SURFACE('',#834,3.9E0);
#836=ORIENTED_EDGE('',*,*,#811,.F.);
#837=ORIENTED_EDGE('',*,*,#749,.T.);
#838=ORIENTED_EDGE('',*,*,#428,.F.);
#840=ORIENTED_EDGE('',*,*,#839,.F.);
#841=EDGE_LOOP('',(#836,#837,#838,#840));
#842=FACE_OUTER_BOUND('',#841,.F.);
#843=ADVANCED_FACE('',(#842),#835,.T.);
#844=CARTESIAN_POINT('',(0.E0,-2.4E0,0.E0));
#845=DIRECTION('',(0.E0,1.E0,0.E0));
#846=DIRECTION('',(1.E0,0.E0,0.E0));
#847=AXIS2_PLACEMENT_3D('',#844,#845,#846);
#848=PLANE('',#847);
#849=ORIENTED_EDGE('',*,*,#785,.F.);
#850=ORIENTED_EDGE('',*,*,#813,.F.);
#851=ORIENTED_EDGE('',*,*,#839,.T.);
#852=ORIENTED_EDGE('',*,*,#426,.T.);
#853=ORIENTED_EDGE('',*,*,#824,.T.);
#854=ORIENTED_EDGE('',*,*,#765,.F.);
#855=EDGE_LOOP('',(#849,#850,#851,#852,#853,#854));
#856=FACE_OUTER_BOUND('',#855,.F.);
#857=ADVANCED_FACE('',(#856),#848,.F.);
#858=CARTESIAN_POINT('',(1.5E1,-7.5E0,0.E0));
#859=DIRECTION('',(1.E0,0.E0,0.E0));
#860=DIRECTION('',(0.E0,1.E0,0.E0));
#861=AXIS2_PLACEMENT_3D('',#858,#859,#860);
#862=PLANE('',#861);
#863=ORIENTED_EDGE('',*,*,#615,.T.);
#864=ORIENTED_EDGE('',*,*,#641,.F.);
#865=ORIENTED_EDGE('',*,*,#444,.F.);
#866=ORIENTED_EDGE('',*,*,#593,.T.);
#867=EDGE_LOOP('',(#863,#864,#865,#866));
#868=FACE_OUTER_BOUND('',#867,.F.);
#869=ADVANCED_FACE('',(#868),#862,.T.);
#870=CLOSED_SHELL('',(#472,#487,#500,#520,#542,#556,#568,#583,#607,#621,#647,
#660,#672,#685,#697,#710,#723,#736,#757,#774,#789,#802,#817,#830,#843,#857,
#869));
#871=MANIFOLD_SOLID_BREP('',#870);
#873=DIMENSIONAL_EXPONENTS(0.E0,0.E0,0.E0,0.E0,0.E0,0.E0,0.E0);
#875=PLANE_ANGLE_MEASURE_WITH_UNIT(PLANE_ANGLE_MEASURE(1.745329251994E-2),#874);
#876=(CONVERSION_BASED_UNIT('DEGREE',#875)NAMED_UNIT(*)PLANE_ANGLE_UNIT());
#878=UNCERTAINTY_MEASURE_WITH_UNIT(LENGTH_MEASURE(3.714049417527E-3),#872,
'closure',
'Maximum model space distance between geometric entities at asserted connectivities');
#879=(GEOMETRIC_REPRESENTATION_CONTEXT(3)GLOBAL_UNCERTAINTY_ASSIGNED_CONTEXT((
#878))GLOBAL_UNIT_ASSIGNED_CONTEXT((#872,#876,#877))REPRESENTATION_CONTEXT
('ID1','3'));
#881=APPLICATION_CONTEXT(
'CONFIGURATION CONTROLLED 3D DESIGNS OF MECHANICAL PARTS AND ASSEMBLIES');
#882=APPLICATION_PROTOCOL_DEFINITION('international standard',
'config_control_design',1994,#881);
#883=DESIGN_CONTEXT('',#881,'design');
#884=MECHANICAL_CONTEXT('',#881,'mechanical');
#885=PRODUCT('AXISCOVER','AXISCOVER','NOT SPECIFIED',(#884));
#886=PRODUCT_DEFINITION_FORMATION_WITH_SPECIFIED_SOURCE('2','LAST_VERSION',#885,
.MADE.);
#890=PRODUCT_CATEGORY('part','');
#891=PRODUCT_RELATED_PRODUCT_CATEGORY('detail','',(#885));
#892=PRODUCT_CATEGORY_RELATIONSHIP('','',#890,#891);
#893=SECURITY_CLASSIFICATION_LEVEL('unclassified');
#894=SECURITY_CLASSIFICATION('','',#893);
#895=CC_DESIGN_SECURITY_CLASSIFICATION(#894,(#886));
#896=APPROVAL_STATUS('approved');
#897=APPROVAL(#896,'');
#898=CC_DESIGN_APPROVAL(#897,(#894,#886,#887));
#899=CALENDAR_DATE(126,23,7);
#900=COORDINATED_UNIVERSAL_TIME_OFFSET(8,0,.AHEAD.);
#901=LOCAL_TIME(13,27,3.6E1,#900);
#902=DATE_AND_TIME(#899,#901);
#903=APPROVAL_DATE_TIME(#902,#897);
#904=DATE_TIME_ROLE('creation_date');
#905=CC_DESIGN_DATE_AND_TIME_ASSIGNMENT(#902,#904,(#887));
#906=DATE_TIME_ROLE('classification_date');
#907=CC_DESIGN_DATE_AND_TIME_ASSIGNMENT(#902,#906,(#894));
#908=PERSON('UNSPECIFIED','UNSPECIFIED',$,$,$,$);
#909=ORGANIZATION('UNSPECIFIED','UNSPECIFIED','UNSPECIFIED');
#910=PERSON_AND_ORGANIZATION(#908,#909);
#911=APPROVAL_ROLE('approver');
#912=APPROVAL_PERSON_ORGANIZATION(#910,#897,#911);
#913=PERSON_AND_ORGANIZATION_ROLE('creator');
#914=CC_DESIGN_PERSON_AND_ORGANIZATION_ASSIGNMENT(#910,#913,(#886,#887));
#915=PERSON_AND_ORGANIZATION_ROLE('design_supplier');
#916=CC_DESIGN_PERSON_AND_ORGANIZATION_ASSIGNMENT(#910,#915,(#886));
#917=PERSON_AND_ORGANIZATION_ROLE('classification_officer');
#918=CC_DESIGN_PERSON_AND_ORGANIZATION_ASSIGNMENT(#910,#917,(#894));
#919=PERSON_AND_ORGANIZATION_ROLE('design_owner');
#920=CC_DESIGN_PERSON_AND_ORGANIZATION_ASSIGNMENT(#910,#919,(#885));
#5=CIRCLE('',#4,1.6E0);
#10=CIRCLE('',#9,1.6E0);
#15=CIRCLE('',#14,1.6E0);
#20=CIRCLE('',#19,1.6E0);
#97=CIRCLE('',#96,1.6E0);
#102=CIRCLE('',#101,1.6E0);
#107=CIRCLE('',#106,1.6E0);
#112=CIRCLE('',#111,1.6E0);
#161=CIRCLE('',#160,2.E0);
#170=CIRCLE('',#169,2.E0);
#195=CIRCLE('',#194,2.E0);
#200=CIRCLE('',#199,6.05E0);
#209=CIRCLE('',#208,2.E0);
#230=CIRCLE('',#229,4.E0);
#235=CIRCLE('',#234,6.05E0);
#244=CIRCLE('',#243,3.9E0);
#249=CIRCLE('',#248,4.E0);
#254=CIRCLE('',#253,3.9E0);
#303=CIRCLE('',#302,3.9E0);
#308=CIRCLE('',#307,3.9E0);
#426=EDGE_CURVE('',#379,#380,#24,.T.);
#428=EDGE_CURVE('',#379,#382,#28,.T.);
#430=EDGE_CURVE('',#382,#355,#32,.T.);
#432=EDGE_CURVE('',#355,#356,#36,.T.);
#434=EDGE_CURVE('',#356,#347,#40,.T.);
#436=EDGE_CURVE('',#347,#348,#44,.T.);
#438=EDGE_CURVE('',#348,#331,#48,.T.);
#440=EDGE_CURVE('',#331,#332,#52,.T.);
#442=EDGE_CURVE('',#332,#334,#56,.T.);
#444=EDGE_CURVE('',#334,#336,#60,.T.);
#446=EDGE_CURVE('',#336,#352,#64,.T.);
#448=EDGE_CURVE('',#351,#352,#68,.T.);
#450=EDGE_CURVE('',#351,#360,#72,.T.);
#452=EDGE_CURVE('',#359,#360,#76,.T.);
#454=EDGE_CURVE('',#359,#384,#80,.T.);
#456=EDGE_CURVE('',#380,#384,#84,.T.);
#460=EDGE_CURVE('',#327,#328,#15,.T.);
#462=EDGE_CURVE('',#328,#327,#20,.T.);
#466=EDGE_CURVE('',#323,#324,#5,.T.);
#468=EDGE_CURVE('',#324,#323,#10,.T.);
#479=EDGE_CURVE('',#323,#339,#88,.T.);
#481=EDGE_CURVE('',#339,#340,#97,.T.);
#483=EDGE_CURVE('',#324,#340,#92,.T.);
#495=EDGE_CURVE('',#340,#339,#102,.T.);
#506=EDGE_CURVE('',#412,#407,#116,.T.);
#508=EDGE_CURVE('',#371,#412,#120,.T.);
#510=EDGE_CURVE('',#376,#371,#124,.T.);
#512=EDGE_CURVE('',#407,#376,#128,.T.);
#526=EDGE_CURVE('',#418,#416,#132,.T.);
#528=EDGE_CURVE('',#363,#416,#136,.T.);
#530=EDGE_CURVE('',#368,#363,#140,.T.);
#532=EDGE_CURVE('',#418,#368,#144,.T.);
#536=EDGE_CURVE('',#343,#344,#107,.T.);
#538=EDGE_CURVE('',#344,#343,#112,.T.);
#549=EDGE_CURVE('',#327,#343,#148,.T.);
#552=EDGE_CURVE('',#328,#344,#152,.T.);
#574=EDGE_CURVE('',#407,#408,#156,.T.);
#576=EDGE_CURVE('',#410,#408,#213,.T.);
#578=EDGE_CURVE('',#410,#412,#182,.T.);
#591=EDGE_CURVE('',#374,#376,#161,.T.);
#593=EDGE_CURVE('',#334,#374,#320,.T.);
#596=EDGE_CURVE('',#332,#364,#165,.T.);
#598=EDGE_CURVE('',#363,#364,#170,.T.);
#601=EDGE_CURVE('',#415,#416,#174,.T.);
#603=EDGE_CURVE('',#415,#408,#178,.T.);
#613=EDGE_CURVE('',#371,#372,#209,.T.);
#615=EDGE_CURVE('',#374,#372,#316,.T.);
#628=EDGE_CURVE('',#420,#410,#186,.T.);
#630=EDGE_CURVE('',#418,#420,#190,.T.);
#633=EDGE_CURVE('',#366,#368,#195,.T.);
#635=EDGE_CURVE('',#331,#366,#225,.T.);
#638=EDGE_CURVE('',#348,#352,#200,.T.);
#641=EDGE_CURVE('',#336,#372,#204,.T.);
#655=EDGE_CURVE('',#420,#415,#217,.T.);
#679=EDGE_CURVE('',#366,#364,#221,.T.);
#704=EDGE_CURVE('',#347,#351,#235,.T.);
#716=EDGE_CURVE('',#356,#360,#230,.T.);
#730=EDGE_CURVE('',#355,#359,#249,.T.);
#742=EDGE_CURVE('',#387,#390,#239,.T.);
#744=EDGE_CURVE('',#384,#387,#244,.T.);
#749=EDGE_CURVE('',#394,#382,#254,.T.);
#751=EDGE_CURVE('',#393,#394,#258,.T.);
#753=EDGE_CURVE('',#390,#393,#262,.T.);
#763=EDGE_CURVE('',#399,#400,#266,.T.);
#765=EDGE_CURVE('',#399,#388,#312,.T.);
#767=EDGE_CURVE('',#387,#388,#286,.T.);
#770=EDGE_CURVE('',#390,#400,#274,.T.);
#781=EDGE_CURVE('',#402,#400,#270,.T.);
#783=EDGE_CURVE('',#402,#404,#282,.T.);
#785=EDGE_CURVE('',#404,#399,#294,.T.);
#798=EDGE_CURVE('',#393,#402,#278,.T.);
#811=EDGE_CURVE('',#394,#396,#290,.T.);
#813=EDGE_CURVE('',#396,#404,#298,.T.);
#824=EDGE_CURVE('',#380,#388,#308,.T.);
#839=EDGE_CURVE('',#396,#379,#303,.T.);
#872=(LENGTH_UNIT()NAMED_UNIT(*)SI_UNIT(.MILLI.,.METRE.));
#874=(NAMED_UNIT(*)PLANE_ANGLE_UNIT()SI_UNIT($,.RADIAN.));
#877=(NAMED_UNIT(*)SI_UNIT($,.STERADIAN.)SOLID_ANGLE_UNIT());
#880=ADVANCED_BREP_SHAPE_REPRESENTATION('',(#871),#879);
#887=PRODUCT_DEFINITION('design','',#886,#883);
#888=PRODUCT_DEFINITION_SHAPE('','SHAPE FOR AXISCOVER.',#887);
#889=SHAPE_DEFINITION_REPRESENTATION(#888,#880);
ENDSEC;
END-ISO-10303-21;
