ISO-10303-21;
HEADER;
FILE_DESCRIPTION((''),'2;1');
FILE_NAME('JOINT1','2026-07-23T15:25:42',('gram2'),(''),
'CREO PARAMETRIC BY PTC INC, 2016510','CREO PARAMETRIC BY PTC INC, 2016510','');
FILE_SCHEMA(('CONFIG_CONTROL_DESIGN'));
ENDSEC;
DATA;
#1=CARTESIAN_POINT('',(0.E0,0.E0,0.E0));
#2=DIRECTION('',(0.E0,0.E0,1.E0));
#3=DIRECTION('',(1.E0,0.E0,0.E0));
#4=AXIS2_PLACEMENT_3D('',#1,#2,#3);
#6=CARTESIAN_POINT('',(0.E0,0.E0,0.E0));
#7=DIRECTION('',(0.E0,0.E0,1.E0));
#8=DIRECTION('',(-1.E0,0.E0,0.E0));
#9=AXIS2_PLACEMENT_3D('',#6,#7,#8);
#11=CARTESIAN_POINT('',(0.E0,0.E0,3.5E0));
#12=DIRECTION('',(0.E0,0.E0,1.E0));
#13=DIRECTION('',(1.E0,0.E0,0.E0));
#14=AXIS2_PLACEMENT_3D('',#11,#12,#13);
#16=DIRECTION('',(0.E0,0.E0,1.E0));
#17=VECTOR('',#16,3.5E0);
#18=CARTESIAN_POINT('',(7.5E0,0.E0,0.E0));
#19=LINE('',#18,#17);
#20=CARTESIAN_POINT('',(0.E0,0.E0,3.5E0));
#21=DIRECTION('',(0.E0,0.E0,1.E0));
#22=DIRECTION('',(1.E0,0.E0,0.E0));
#23=AXIS2_PLACEMENT_3D('',#20,#21,#22);
#25=CARTESIAN_POINT('',(0.E0,0.E0,3.5E0));
#26=DIRECTION('',(0.E0,0.E0,1.E0));
#27=DIRECTION('',(-1.E0,0.E0,0.E0));
#28=AXIS2_PLACEMENT_3D('',#25,#26,#27);
#30=CARTESIAN_POINT('',(0.E0,0.E0,4.5E0));
#31=DIRECTION('',(0.E0,0.E0,1.E0));
#32=DIRECTION('',(1.E0,0.E0,0.E0));
#33=AXIS2_PLACEMENT_3D('',#30,#31,#32);
#35=DIRECTION('',(0.E0,0.E0,1.E0));
#36=VECTOR('',#35,1.E0);
#37=CARTESIAN_POINT('',(8.75E0,0.E0,3.5E0));
#38=LINE('',#37,#36);
#39=CARTESIAN_POINT('',(0.E0,0.E0,4.5E0));
#40=DIRECTION('',(0.E0,0.E0,1.E0));
#41=DIRECTION('',(1.E0,0.E0,0.E0));
#42=AXIS2_PLACEMENT_3D('',#39,#40,#41);
#44=CARTESIAN_POINT('',(0.E0,0.E0,4.5E0));
#45=DIRECTION('',(0.E0,0.E0,1.E0));
#46=DIRECTION('',(-1.E0,0.E0,0.E0));
#47=AXIS2_PLACEMENT_3D('',#44,#45,#46);
#49=DIRECTION('',(0.E0,0.E0,1.E0));
#50=VECTOR('',#49,1.5E0);
#51=CARTESIAN_POINT('',(9.7E0,0.E0,4.5E0));
#52=LINE('',#51,#50);
#53=DIRECTION('',(0.E0,0.E0,1.E0));
#54=VECTOR('',#53,1.5E0);
#55=CARTESIAN_POINT('',(-9.7E0,0.E0,4.5E0));
#56=LINE('',#55,#54);
#57=CARTESIAN_POINT('',(0.E0,0.E0,6.E0));
#58=DIRECTION('',(0.E0,0.E0,1.E0));
#59=DIRECTION('',(1.E0,0.E0,0.E0));
#60=AXIS2_PLACEMENT_3D('',#57,#58,#59);
#62=CARTESIAN_POINT('',(0.E0,0.E0,6.E0));
#63=DIRECTION('',(0.E0,0.E0,1.E0));
#64=DIRECTION('',(-1.E0,0.E0,0.E0));
#65=AXIS2_PLACEMENT_3D('',#62,#63,#64);
#67=CARTESIAN_POINT('',(0.E0,0.E0,6.E0));
#68=DIRECTION('',(0.E0,0.E0,1.E0));
#69=DIRECTION('',(0.E0,1.E0,0.E0));
#70=AXIS2_PLACEMENT_3D('',#67,#68,#69);
#72=CARTESIAN_POINT('',(0.E0,0.E0,6.E0));
#73=DIRECTION('',(0.E0,0.E0,1.E0));
#74=DIRECTION('',(0.E0,-1.E0,0.E0));
#75=AXIS2_PLACEMENT_3D('',#72,#73,#74);
#77=CARTESIAN_POINT('',(0.E0,-8.E0,1.789015165046E1));
#78=CARTESIAN_POINT('',(-3.666294589344E-1,-8.E0,1.825950472038E1));
#79=CARTESIAN_POINT('',(-1.113225324332E0,-7.949946886430E0,1.900211185581E1));
#80=CARTESIAN_POINT('',(-2.262132971416E0,-7.704101605313E0,2.015262712183E1));
#81=CARTESIAN_POINT('',(-3.374995452869E0,-7.285316882925E0,2.126504222247E1));
#82=CARTESIAN_POINT('',(-4.395723523268E0,-6.716788234066E0,2.228595219719E1));
#83=CARTESIAN_POINT('',(-5.283427229477E0,-6.039485767619E0,2.317337566694E1));
#84=CARTESIAN_POINT('',(-5.776477906730E0,-5.544952852696E0,2.366705237187E1));
#85=CARTESIAN_POINT('',(-6.E0,-5.291502622129E0,2.389015165046E1));
#87=DIRECTION('',(0.E0,0.E0,1.E0));
#88=VECTOR('',#87,1.189015165046E1);
#89=CARTESIAN_POINT('',(0.E0,8.E0,6.E0));
#90=LINE('',#89,#88);
#91=CARTESIAN_POINT('',(-6.E0,5.291502622129E0,2.389015165046E1));
#92=CARTESIAN_POINT('',(-5.776403855291E0,5.545036819135E0,2.366698151561E1));
#93=CARTESIAN_POINT('',(-5.283159726197E0,6.039750810929E0,2.317310668822E1));
#94=CARTESIAN_POINT('',(-4.394917167744E0,6.717351487443E0,2.228514621295E1));
#95=CARTESIAN_POINT('',(-3.373624426955E0,7.285974078832E0,2.126367118686E1));
#96=CARTESIAN_POINT('',(-2.260461670848E0,7.704592888810E0,2.015095548877E1));
#97=CARTESIAN_POINT('',(-1.111810004332E0,7.950107632083E0,1.900069787549E1));
#98=CARTESIAN_POINT('',(-3.660653395809E-1,8.E0,1.825893769676E1));
#99=CARTESIAN_POINT('',(0.E0,8.E0,1.789015165046E1));
#101=DIRECTION('',(0.E0,0.E0,1.E0));
#102=VECTOR('',#101,1.289015165046E1);
#103=CARTESIAN_POINT('',(-6.E0,5.291502622129E0,1.1E1));
#104=LINE('',#103,#102);
#105=CARTESIAN_POINT('',(0.E0,0.E0,1.1E1));
#106=DIRECTION('',(0.E0,0.E0,1.E0));
#107=DIRECTION('',(-7.5E-1,6.614378277661E-1,0.E0));
#108=AXIS2_PLACEMENT_3D('',#105,#106,#107);
#110=DIRECTION('',(0.E0,0.E0,1.E0));
#111=VECTOR('',#110,1.289015165046E1);
#112=CARTESIAN_POINT('',(-6.E0,-5.291502622129E0,1.1E1));
#113=LINE('',#112,#111);
#114=CARTESIAN_POINT('',(-6.E0,0.E0,1.789015165046E1));
#115=DIRECTION('',(1.E0,0.E0,0.E0));
#116=DIRECTION('',(0.E0,6.614378277661E-1,7.5E-1));
#117=AXIS2_PLACEMENT_3D('',#114,#115,#116);
#119=CARTESIAN_POINT('',(-6.E0,0.E0,1.789015165046E1));
#120=DIRECTION('',(1.E0,0.E0,0.E0));
#121=DIRECTION('',(0.E0,1.E0,0.E0));
#122=AXIS2_PLACEMENT_3D('',#119,#120,#121);
#124=CARTESIAN_POINT('',(-6.E0,0.E0,1.789015165046E1));
#125=DIRECTION('',(1.E0,0.E0,0.E0));
#126=DIRECTION('',(0.E0,-1.E0,0.E0));
#127=AXIS2_PLACEMENT_3D('',#124,#125,#126);
#129=DIRECTION('',(0.E0,1.E0,0.E0));
#130=VECTOR('',#129,1.058300524426E1);
#131=CARTESIAN_POINT('',(-6.E0,-5.291502622129E0,1.1E1));
#132=LINE('',#131,#130);
#133=DIRECTION('',(0.E0,-1.E0,0.E0));
#134=VECTOR('',#133,1.058300524426E1);
#135=CARTESIAN_POINT('',(6.E0,5.291502622129E0,1.1E1));
#136=LINE('',#135,#134);
#137=CARTESIAN_POINT('',(0.E0,8.E0,1.789015165046E1));
#138=CARTESIAN_POINT('',(3.658650028079E-1,8.E0,1.825873655917E1));
#139=CARTESIAN_POINT('',(1.111313838497E0,7.950165031488E0,1.900020207770E1));
#140=CARTESIAN_POINT('',(2.259912540188E0,7.704756530404E0,2.015040627117E1));
#141=CARTESIAN_POINT('',(3.373213203698E0,7.286173691650E0,2.126325994332E1));
#142=CARTESIAN_POINT('',(4.394700893023E0,6.717504114016E0,2.228493010629E1));
#143=CARTESIAN_POINT('',(5.283093557912E0,6.039816939788E0,2.317303986798E1));
#144=CARTESIAN_POINT('',(5.776387198797E0,5.545055705823E0,2.366696626829E1));
#145=CARTESIAN_POINT('',(6.E0,5.291502622129E0,2.389015165046E1));
#147=DIRECTION('',(0.E0,0.E0,1.E0));
#148=VECTOR('',#147,1.189015165046E1);
#149=CARTESIAN_POINT('',(0.E0,-8.E0,6.E0));
#150=LINE('',#149,#148);
#151=CARTESIAN_POINT('',(6.E0,-5.291502622129E0,2.389015165046E1));
#152=CARTESIAN_POINT('',(5.776493853687E0,-5.544934770545E0,2.366706978592E1));
#153=CARTESIAN_POINT('',(5.283465255118E0,-6.039449524792E0,2.317341301124E1));
#154=CARTESIAN_POINT('',(4.395791152042E0,-6.716746258149E0,2.228602001003E1));
#155=CARTESIAN_POINT('',(3.374958562050E0,-7.285343667958E0,2.126500527673E1));
#156=CARTESIAN_POINT('',(2.261916557352E0,-7.704173571431E0,2.015241074338E1));
#157=CARTESIAN_POINT('',(1.112929387656E0,-7.949984510747E0,1.900181583160E1));
#158=CARTESIAN_POINT('',(3.665022327992E-1,-8.E0,1.825937767474E1));
#159=CARTESIAN_POINT('',(0.E0,-8.E0,1.789015165046E1));
#161=DIRECTION('',(0.E0,0.E0,1.E0));
#162=VECTOR('',#161,1.289015165046E1);
#163=CARTESIAN_POINT('',(6.E0,-5.291502622129E0,1.1E1));
#164=LINE('',#163,#162);
#165=CARTESIAN_POINT('',(0.E0,0.E0,1.1E1));
#166=DIRECTION('',(0.E0,0.E0,1.E0));
#167=DIRECTION('',(7.5E-1,-6.614378277661E-1,0.E0));
#168=AXIS2_PLACEMENT_3D('',#165,#166,#167);
#170=DIRECTION('',(0.E0,0.E0,1.E0));
#171=VECTOR('',#170,1.289015165046E1);
#172=CARTESIAN_POINT('',(6.E0,5.291502622129E0,1.1E1));
#173=LINE('',#172,#171);
#174=CARTESIAN_POINT('',(6.E0,0.E0,1.789015165046E1));
#175=DIRECTION('',(1.E0,0.E0,0.E0));
#176=DIRECTION('',(0.E0,6.614378277661E-1,7.5E-1));
#177=AXIS2_PLACEMENT_3D('',#174,#175,#176);
#179=CARTESIAN_POINT('',(6.E0,0.E0,1.789015165046E1));
#180=DIRECTION('',(1.E0,0.E0,0.E0));
#181=DIRECTION('',(0.E0,1.E0,0.E0));
#182=AXIS2_PLACEMENT_3D('',#179,#180,#181);
#184=CARTESIAN_POINT('',(6.E0,0.E0,1.789015165046E1));
#185=DIRECTION('',(1.E0,0.E0,0.E0));
#186=DIRECTION('',(0.E0,-1.E0,0.E0));
#187=AXIS2_PLACEMENT_3D('',#184,#185,#186);
#189=DIRECTION('',(1.E0,0.E0,0.E0));
#190=VECTOR('',#189,1.2E1);
#191=CARTESIAN_POINT('',(-6.E0,4.E0,1.789015165046E1));
#192=LINE('',#191,#190);
#193=DIRECTION('',(1.E0,0.E0,0.E0));
#194=VECTOR('',#193,1.2E1);
#195=CARTESIAN_POINT('',(-6.E0,-4.E0,1.789015165046E1));
#196=LINE('',#195,#194);
#197=CARTESIAN_POINT('',(0.E0,0.E0,4.5E0));
#198=DIRECTION('',(0.E0,0.E0,1.E0));
#199=DIRECTION('',(-1.E0,0.E0,0.E0));
#200=AXIS2_PLACEMENT_3D('',#197,#198,#199);
#202=DIRECTION('',(0.E0,0.E0,1.E0));
#203=VECTOR('',#202,1.E0);
#204=CARTESIAN_POINT('',(-8.75E0,0.E0,3.5E0));
#205=LINE('',#204,#203);
#206=CARTESIAN_POINT('',(0.E0,0.E0,3.5E0));
#207=DIRECTION('',(0.E0,0.E0,1.E0));
#208=DIRECTION('',(-1.E0,0.E0,0.E0));
#209=AXIS2_PLACEMENT_3D('',#206,#207,#208);
#211=DIRECTION('',(0.E0,0.E0,1.E0));
#212=VECTOR('',#211,3.5E0);
#213=CARTESIAN_POINT('',(-7.5E0,0.E0,0.E0));
#214=LINE('',#213,#212);
#215=CARTESIAN_POINT('',(7.5E0,0.E0,0.E0));
#216=CARTESIAN_POINT('',(-7.5E0,0.E0,0.E0));
#217=VERTEX_POINT('',#215);
#218=VERTEX_POINT('',#216);
#219=CARTESIAN_POINT('',(8.75E0,0.E0,3.5E0));
#220=CARTESIAN_POINT('',(-8.75E0,0.E0,3.5E0));
#221=VERTEX_POINT('',#219);
#222=VERTEX_POINT('',#220);
#223=CARTESIAN_POINT('',(7.5E0,0.E0,3.5E0));
#224=CARTESIAN_POINT('',(-7.5E0,0.E0,3.5E0));
#225=VERTEX_POINT('',#223);
#226=VERTEX_POINT('',#224);
#227=CARTESIAN_POINT('',(9.7E0,0.E0,4.5E0));
#228=CARTESIAN_POINT('',(-9.7E0,0.E0,4.5E0));
#229=VERTEX_POINT('',#227);
#230=VERTEX_POINT('',#228);
#231=CARTESIAN_POINT('',(9.7E0,0.E0,6.E0));
#232=CARTESIAN_POINT('',(-9.7E0,0.E0,6.E0));
#233=VERTEX_POINT('',#231);
#234=VERTEX_POINT('',#232);
#235=CARTESIAN_POINT('',(8.75E0,0.E0,4.5E0));
#236=CARTESIAN_POINT('',(-8.75E0,0.E0,4.5E0));
#237=VERTEX_POINT('',#235);
#238=VERTEX_POINT('',#236);
#239=CARTESIAN_POINT('',(0.E0,8.E0,6.E0));
#240=CARTESIAN_POINT('',(0.E0,-8.E0,6.E0));
#241=VERTEX_POINT('',#239);
#242=VERTEX_POINT('',#240);
#243=CARTESIAN_POINT('',(-6.E0,5.291502622129E0,1.1E1));
#244=CARTESIAN_POINT('',(-6.E0,-5.291502622129E0,1.1E1));
#245=VERTEX_POINT('',#243);
#246=VERTEX_POINT('',#244);
#247=CARTESIAN_POINT('',(6.E0,-5.291502622129E0,1.1E1));
#248=CARTESIAN_POINT('',(6.E0,5.291502622129E0,1.1E1));
#249=VERTEX_POINT('',#247);
#250=VERTEX_POINT('',#248);
#251=VERTEX_POINT('',#77);
#252=VERTEX_POINT('',#85);
#253=VERTEX_POINT('',#91);
#254=VERTEX_POINT('',#99);
#255=VERTEX_POINT('',#145);
#256=VERTEX_POINT('',#151);
#257=CARTESIAN_POINT('',(-6.E0,4.E0,1.789015165046E1));
#258=CARTESIAN_POINT('',(-6.E0,-4.E0,1.789015165046E1));
#259=VERTEX_POINT('',#257);
#260=VERTEX_POINT('',#258);
#261=CARTESIAN_POINT('',(6.E0,4.E0,1.789015165046E1));
#262=CARTESIAN_POINT('',(6.E0,-4.E0,1.789015165046E1));
#263=VERTEX_POINT('',#261);
#264=VERTEX_POINT('',#262);
#265=CARTESIAN_POINT('',(0.E0,0.E0,0.E0));
#266=DIRECTION('',(0.E0,0.E0,1.E0));
#267=DIRECTION('',(1.E0,0.E0,0.E0));
#268=AXIS2_PLACEMENT_3D('',#265,#266,#267);
#269=PLANE('',#268);
#271=ORIENTED_EDGE('',*,*,#270,.T.);
#273=ORIENTED_EDGE('',*,*,#272,.T.);
#274=EDGE_LOOP('',(#271,#273));
#275=FACE_OUTER_BOUND('',#274,.F.);
#276=ADVANCED_FACE('',(#275),#269,.F.);
#277=CARTESIAN_POINT('',(0.E0,0.E0,0.E0));
#278=DIRECTION('',(0.E0,0.E0,1.E0));
#279=DIRECTION('',(1.E0,0.E0,0.E0));
#280=AXIS2_PLACEMENT_3D('',#277,#278,#279);
#281=CYLINDRICAL_SURFACE('',#280,7.5E0);
#283=ORIENTED_EDGE('',*,*,#282,.T.);
#285=ORIENTED_EDGE('',*,*,#284,.F.);
#286=ORIENTED_EDGE('',*,*,#270,.F.);
#288=ORIENTED_EDGE('',*,*,#287,.T.);
#289=EDGE_LOOP('',(#283,#285,#286,#288));
#290=FACE_OUTER_BOUND('',#289,.F.);
#291=ADVANCED_FACE('',(#290),#281,.T.);
#292=CARTESIAN_POINT('',(0.E0,0.E0,3.5E0));
#293=DIRECTION('',(0.E0,0.E0,1.E0));
#294=DIRECTION('',(1.E0,0.E0,0.E0));
#295=AXIS2_PLACEMENT_3D('',#292,#293,#294);
#296=PLANE('',#295);
#298=ORIENTED_EDGE('',*,*,#297,.T.);
#300=ORIENTED_EDGE('',*,*,#299,.T.);
#301=EDGE_LOOP('',(#298,#300));
#302=FACE_OUTER_BOUND('',#301,.F.);
#303=ORIENTED_EDGE('',*,*,#282,.F.);
#305=ORIENTED_EDGE('',*,*,#304,.F.);
#306=EDGE_LOOP('',(#303,#305));
#307=FACE_BOUND('',#306,.F.);
#308=ADVANCED_FACE('',(#302,#307),#296,.F.);
#309=CARTESIAN_POINT('',(0.E0,0.E0,3.5E0));
#310=DIRECTION('',(0.E0,0.E0,1.E0));
#311=DIRECTION('',(1.E0,0.E0,0.E0));
#312=AXIS2_PLACEMENT_3D('',#309,#310,#311);
#313=CYLINDRICAL_SURFACE('',#312,8.75E0);
#315=ORIENTED_EDGE('',*,*,#314,.T.);
#317=ORIENTED_EDGE('',*,*,#316,.F.);
#318=ORIENTED_EDGE('',*,*,#297,.F.);
#320=ORIENTED_EDGE('',*,*,#319,.T.);
#321=EDGE_LOOP('',(#315,#317,#318,#320));
#322=FACE_OUTER_BOUND('',#321,.F.);
#323=ADVANCED_FACE('',(#322),#313,.T.);
#324=CARTESIAN_POINT('',(0.E0,0.E0,4.5E0));
#325=DIRECTION('',(0.E0,0.E0,1.E0));
#326=DIRECTION('',(1.E0,0.E0,0.E0));
#327=AXIS2_PLACEMENT_3D('',#324,#325,#326);
#328=PLANE('',#327);
#330=ORIENTED_EDGE('',*,*,#329,.T.);
#332=ORIENTED_EDGE('',*,*,#331,.T.);
#333=EDGE_LOOP('',(#330,#332));
#334=FACE_OUTER_BOUND('',#333,.F.);
#335=ORIENTED_EDGE('',*,*,#314,.F.);
#337=ORIENTED_EDGE('',*,*,#336,.F.);
#338=EDGE_LOOP('',(#335,#337));
#339=FACE_BOUND('',#338,.F.);
#340=ADVANCED_FACE('',(#334,#339),#328,.F.);
#341=CARTESIAN_POINT('',(0.E0,0.E0,4.5E0));
#342=DIRECTION('',(0.E0,0.E0,1.E0));
#343=DIRECTION('',(1.E0,0.E0,0.E0));
#344=AXIS2_PLACEMENT_3D('',#341,#342,#343);
#345=CYLINDRICAL_SURFACE('',#344,9.7E0);
#346=ORIENTED_EDGE('',*,*,#329,.F.);
#348=ORIENTED_EDGE('',*,*,#347,.T.);
#350=ORIENTED_EDGE('',*,*,#349,.T.);
#352=ORIENTED_EDGE('',*,*,#351,.F.);
#353=EDGE_LOOP('',(#346,#348,#350,#352));
#354=FACE_OUTER_BOUND('',#353,.F.);
#355=ADVANCED_FACE('',(#354),#345,.T.);
#356=CARTESIAN_POINT('',(0.E0,0.E0,4.5E0));
#357=DIRECTION('',(0.E0,0.E0,1.E0));
#358=DIRECTION('',(1.E0,0.E0,0.E0));
#359=AXIS2_PLACEMENT_3D('',#356,#357,#358);
#360=CYLINDRICAL_SURFACE('',#359,9.7E0);
#361=ORIENTED_EDGE('',*,*,#331,.F.);
#362=ORIENTED_EDGE('',*,*,#351,.T.);
#364=ORIENTED_EDGE('',*,*,#363,.T.);
#365=ORIENTED_EDGE('',*,*,#347,.F.);
#366=EDGE_LOOP('',(#361,#362,#364,#365));
#367=FACE_OUTER_BOUND('',#366,.F.);
#368=ADVANCED_FACE('',(#367),#360,.T.);
#369=CARTESIAN_POINT('',(0.E0,0.E0,6.E0));
#370=DIRECTION('',(0.E0,0.E0,1.E0));
#371=DIRECTION('',(1.E0,0.E0,0.E0));
#372=AXIS2_PLACEMENT_3D('',#369,#370,#371);
#373=PLANE('',#372);
#374=ORIENTED_EDGE('',*,*,#349,.F.);
#375=ORIENTED_EDGE('',*,*,#363,.F.);
#376=EDGE_LOOP('',(#374,#375));
#377=FACE_OUTER_BOUND('',#376,.F.);
#379=ORIENTED_EDGE('',*,*,#378,.T.);
#381=ORIENTED_EDGE('',*,*,#380,.T.);
#382=EDGE_LOOP('',(#379,#381));
#383=FACE_BOUND('',#382,.F.);
#384=ADVANCED_FACE('',(#377,#383),#373,.T.);
#385=CARTESIAN_POINT('',(0.E0,0.E0,6.E0));
#386=DIRECTION('',(0.E0,0.E0,1.E0));
#387=DIRECTION('',(0.E0,1.E0,0.E0));
#388=AXIS2_PLACEMENT_3D('',#385,#386,#387);
#389=CYLINDRICAL_SURFACE('',#388,8.E0);
#391=ORIENTED_EDGE('',*,*,#390,.F.);
#393=ORIENTED_EDGE('',*,*,#392,.F.);
#394=ORIENTED_EDGE('',*,*,#378,.F.);
#396=ORIENTED_EDGE('',*,*,#395,.T.);
#398=ORIENTED_EDGE('',*,*,#397,.F.);
#400=ORIENTED_EDGE('',*,*,#399,.F.);
#402=ORIENTED_EDGE('',*,*,#401,.T.);
#404=ORIENTED_EDGE('',*,*,#403,.T.);
#405=EDGE_LOOP('',(#391,#393,#394,#396,#398,#400,#402,#404));
#406=FACE_OUTER_BOUND('',#405,.F.);
#407=ADVANCED_FACE('',(#406),#389,.T.);
#408=CARTESIAN_POINT('',(-1.E1,0.E0,1.789015165046E1));
#409=DIRECTION('',(1.E0,0.E0,0.E0));
#410=DIRECTION('',(0.E0,1.E0,0.E0));
#411=AXIS2_PLACEMENT_3D('',#408,#409,#410);
#412=CYLINDRICAL_SURFACE('',#411,8.E0);
#413=ORIENTED_EDGE('',*,*,#390,.T.);
#415=ORIENTED_EDGE('',*,*,#414,.F.);
#416=ORIENTED_EDGE('',*,*,#397,.T.);
#418=ORIENTED_EDGE('',*,*,#417,.T.);
#420=ORIENTED_EDGE('',*,*,#419,.T.);
#422=ORIENTED_EDGE('',*,*,#421,.T.);
#423=EDGE_LOOP('',(#413,#415,#416,#418,#420,#422));
#424=FACE_OUTER_BOUND('',#423,.F.);
#425=ADVANCED_FACE('',(#424),#412,.T.);
#426=CARTESIAN_POINT('',(-6.E0,-1.055647260667E1,2.6E1));
#427=DIRECTION('',(1.E0,0.E0,0.E0));
#428=DIRECTION('',(0.E0,1.E0,0.E0));
#429=AXIS2_PLACEMENT_3D('',#426,#427,#428);
#430=PLANE('',#429);
#431=ORIENTED_EDGE('',*,*,#414,.T.);
#432=ORIENTED_EDGE('',*,*,#403,.F.);
#434=ORIENTED_EDGE('',*,*,#433,.T.);
#435=ORIENTED_EDGE('',*,*,#399,.T.);
#436=EDGE_LOOP('',(#431,#432,#434,#435));
#437=FACE_OUTER_BOUND('',#436,.F.);
#439=ORIENTED_EDGE('',*,*,#438,.F.);
#441=ORIENTED_EDGE('',*,*,#440,.F.);
#442=EDGE_LOOP('',(#439,#441));
#443=FACE_BOUND('',#442,.F.);
#444=ADVANCED_FACE('',(#437,#443),#430,.F.);
#445=CARTESIAN_POINT('',(0.E0,0.E0,1.1E1));
#446=DIRECTION('',(0.E0,0.E0,1.E0));
#447=DIRECTION('',(0.E0,1.E0,0.E0));
#448=AXIS2_PLACEMENT_3D('',#445,#446,#447);
#449=PLANE('',#448);
#450=ORIENTED_EDGE('',*,*,#401,.F.);
#451=ORIENTED_EDGE('',*,*,#433,.F.);
#452=EDGE_LOOP('',(#450,#451));
#453=FACE_OUTER_BOUND('',#452,.F.);
#454=ADVANCED_FACE('',(#453),#449,.T.);
#455=CARTESIAN_POINT('',(0.E0,0.E0,1.1E1));
#456=DIRECTION('',(0.E0,0.E0,1.E0));
#457=DIRECTION('',(0.E0,1.E0,0.E0));
#458=AXIS2_PLACEMENT_3D('',#455,#456,#457);
#459=PLANE('',#458);
#461=ORIENTED_EDGE('',*,*,#460,.F.);
#463=ORIENTED_EDGE('',*,*,#462,.F.);
#464=EDGE_LOOP('',(#461,#463));
#465=FACE_OUTER_BOUND('',#464,.F.);
#466=ADVANCED_FACE('',(#465),#459,.T.);
#467=CARTESIAN_POINT('',(0.E0,0.E0,6.E0));
#468=DIRECTION('',(0.E0,0.E0,1.E0));
#469=DIRECTION('',(0.E0,1.E0,0.E0));
#470=AXIS2_PLACEMENT_3D('',#467,#468,#469);
#471=CYLINDRICAL_SURFACE('',#470,8.E0);
#472=ORIENTED_EDGE('',*,*,#417,.F.);
#473=ORIENTED_EDGE('',*,*,#395,.F.);
#474=ORIENTED_EDGE('',*,*,#380,.F.);
#475=ORIENTED_EDGE('',*,*,#392,.T.);
#476=ORIENTED_EDGE('',*,*,#421,.F.);
#478=ORIENTED_EDGE('',*,*,#477,.F.);
#479=ORIENTED_EDGE('',*,*,#460,.T.);
#481=ORIENTED_EDGE('',*,*,#480,.T.);
#482=EDGE_LOOP('',(#472,#473,#474,#475,#476,#478,#479,#481));
#483=FACE_OUTER_BOUND('',#482,.F.);
#484=ADVANCED_FACE('',(#483),#471,.T.);
#485=CARTESIAN_POINT('',(6.E0,1.130971514313E1,2.6E1));
#486=DIRECTION('',(-1.E0,0.E0,0.E0));
#487=DIRECTION('',(0.E0,-1.E0,0.E0));
#488=AXIS2_PLACEMENT_3D('',#485,#486,#487);
#489=PLANE('',#488);
#490=ORIENTED_EDGE('',*,*,#419,.F.);
#491=ORIENTED_EDGE('',*,*,#480,.F.);
#492=ORIENTED_EDGE('',*,*,#462,.T.);
#493=ORIENTED_EDGE('',*,*,#477,.T.);
#494=EDGE_LOOP('',(#490,#491,#492,#493));
#495=FACE_OUTER_BOUND('',#494,.F.);
#497=ORIENTED_EDGE('',*,*,#496,.T.);
#499=ORIENTED_EDGE('',*,*,#498,.T.);
#500=EDGE_LOOP('',(#497,#499));
#501=FACE_BOUND('',#500,.F.);
#502=ADVANCED_FACE('',(#495,#501),#489,.F.);
#503=CARTESIAN_POINT('',(-1.E1,0.E0,1.789015165046E1));
#504=DIRECTION('',(1.E0,0.E0,0.E0));
#505=DIRECTION('',(0.E0,1.E0,0.E0));
#506=AXIS2_PLACEMENT_3D('',#503,#504,#505);
#507=CYLINDRICAL_SURFACE('',#506,4.E0);
#508=ORIENTED_EDGE('',*,*,#438,.T.);
#510=ORIENTED_EDGE('',*,*,#509,.T.);
#511=ORIENTED_EDGE('',*,*,#496,.F.);
#513=ORIENTED_EDGE('',*,*,#512,.F.);
#514=EDGE_LOOP('',(#508,#510,#511,#513));
#515=FACE_OUTER_BOUND('',#514,.F.);
#516=ADVANCED_FACE('',(#515),#507,.F.);
#517=CARTESIAN_POINT('',(-1.E1,0.E0,1.789015165046E1));
#518=DIRECTION('',(1.E0,0.E0,0.E0));
#519=DIRECTION('',(0.E0,1.E0,0.E0));
#520=AXIS2_PLACEMENT_3D('',#517,#518,#519);
#521=CYLINDRICAL_SURFACE('',#520,4.E0);
#522=ORIENTED_EDGE('',*,*,#440,.T.);
#523=ORIENTED_EDGE('',*,*,#512,.T.);
#524=ORIENTED_EDGE('',*,*,#498,.F.);
#525=ORIENTED_EDGE('',*,*,#509,.F.);
#526=EDGE_LOOP('',(#522,#523,#524,#525));
#527=FACE_OUTER_BOUND('',#526,.F.);
#528=ADVANCED_FACE('',(#527),#521,.F.);
#529=CARTESIAN_POINT('',(0.E0,0.E0,3.5E0));
#530=DIRECTION('',(0.E0,0.E0,1.E0));
#531=DIRECTION('',(1.E0,0.E0,0.E0));
#532=AXIS2_PLACEMENT_3D('',#529,#530,#531);
#533=CYLINDRICAL_SURFACE('',#532,8.75E0);
#534=ORIENTED_EDGE('',*,*,#336,.T.);
#535=ORIENTED_EDGE('',*,*,#319,.F.);
#536=ORIENTED_EDGE('',*,*,#299,.F.);
#537=ORIENTED_EDGE('',*,*,#316,.T.);
#538=EDGE_LOOP('',(#534,#535,#536,#537));
#539=FACE_OUTER_BOUND('',#538,.F.);
#540=ADVANCED_FACE('',(#539),#533,.T.);
#541=CARTESIAN_POINT('',(0.E0,0.E0,0.E0));
#542=DIRECTION('',(0.E0,0.E0,1.E0));
#543=DIRECTION('',(1.E0,0.E0,0.E0));
#544=AXIS2_PLACEMENT_3D('',#541,#542,#543);
#545=CYLINDRICAL_SURFACE('',#544,7.5E0);
#546=ORIENTED_EDGE('',*,*,#304,.T.);
#547=ORIENTED_EDGE('',*,*,#287,.F.);
#548=ORIENTED_EDGE('',*,*,#272,.F.);
#549=ORIENTED_EDGE('',*,*,#284,.T.);
#550=EDGE_LOOP('',(#546,#547,#548,#549));
#551=FACE_OUTER_BOUND('',#550,.F.);
#552=ADVANCED_FACE('',(#551),#545,.T.);
#553=CLOSED_SHELL('',(#276,#291,#308,#323,#340,#355,#368,#384,#407,#425,#444,
#454,#466,#484,#502,#516,#528,#540,#552));
#554=MANIFOLD_SOLID_BREP('',#553);
#556=DIMENSIONAL_EXPONENTS(0.E0,0.E0,0.E0,0.E0,0.E0,0.E0,0.E0);
#558=PLANE_ANGLE_MEASURE_WITH_UNIT(PLANE_ANGLE_MEASURE(1.745329251994E-2),#557);
#559=(CONVERSION_BASED_UNIT('DEGREE',#558)NAMED_UNIT(*)PLANE_ANGLE_UNIT());
#561=UNCERTAINTY_MEASURE_WITH_UNIT(LENGTH_MEASURE(4.040074430439E-3),#555,
'closure',
'Maximum model space distance between geometric entities at asserted connectivities');
#562=(GEOMETRIC_REPRESENTATION_CONTEXT(3)GLOBAL_UNCERTAINTY_ASSIGNED_CONTEXT((
#561))GLOBAL_UNIT_ASSIGNED_CONTEXT((#555,#559,#560))REPRESENTATION_CONTEXT
('ID1','3'));
#564=APPLICATION_CONTEXT(
'CONFIGURATION CONTROLLED 3D DESIGNS OF MECHANICAL PARTS AND ASSEMBLIES');
#565=APPLICATION_PROTOCOL_DEFINITION('international standard',
'config_control_design',1994,#564);
#566=DESIGN_CONTEXT('',#564,'design');
#567=MECHANICAL_CONTEXT('',#564,'mechanical');
#568=PRODUCT('JOINT1','JOINT1','NOT SPECIFIED',(#567));
#569=PRODUCT_DEFINITION_FORMATION_WITH_SPECIFIED_SOURCE('4','LAST_VERSION',#568,
.MADE.);
#573=PRODUCT_CATEGORY('part','');
#574=PRODUCT_RELATED_PRODUCT_CATEGORY('detail','',(#568));
#575=PRODUCT_CATEGORY_RELATIONSHIP('','',#573,#574);
#576=SECURITY_CLASSIFICATION_LEVEL('unclassified');
#577=SECURITY_CLASSIFICATION('','',#576);
#578=CC_DESIGN_SECURITY_CLASSIFICATION(#577,(#569));
#579=APPROVAL_STATUS('approved');
#580=APPROVAL(#579,'');
#581=CC_DESIGN_APPROVAL(#580,(#577,#569,#570));
#582=CALENDAR_DATE(126,23,7);
#583=COORDINATED_UNIVERSAL_TIME_OFFSET(8,0,.AHEAD.);
#584=LOCAL_TIME(15,25,4.2E1,#583);
#585=DATE_AND_TIME(#582,#584);
#586=APPROVAL_DATE_TIME(#585,#580);
#587=DATE_TIME_ROLE('creation_date');
#588=CC_DESIGN_DATE_AND_TIME_ASSIGNMENT(#585,#587,(#570));
#589=DATE_TIME_ROLE('classification_date');
#590=CC_DESIGN_DATE_AND_TIME_ASSIGNMENT(#585,#589,(#577));
#591=PERSON('UNSPECIFIED','UNSPECIFIED',$,$,$,$);
#592=ORGANIZATION('UNSPECIFIED','UNSPECIFIED','UNSPECIFIED');
#593=PERSON_AND_ORGANIZATION(#591,#592);
#594=APPROVAL_ROLE('approver');
#595=APPROVAL_PERSON_ORGANIZATION(#593,#580,#594);
#596=PERSON_AND_ORGANIZATION_ROLE('creator');
#597=CC_DESIGN_PERSON_AND_ORGANIZATION_ASSIGNMENT(#593,#596,(#569,#570));
#598=PERSON_AND_ORGANIZATION_ROLE('design_supplier');
#599=CC_DESIGN_PERSON_AND_ORGANIZATION_ASSIGNMENT(#593,#598,(#569));
#600=PERSON_AND_ORGANIZATION_ROLE('classification_officer');
#601=CC_DESIGN_PERSON_AND_ORGANIZATION_ASSIGNMENT(#593,#600,(#577));
#602=PERSON_AND_ORGANIZATION_ROLE('design_owner');
#603=CC_DESIGN_PERSON_AND_ORGANIZATION_ASSIGNMENT(#593,#602,(#568));
#5=CIRCLE('',#4,7.5E0);
#10=CIRCLE('',#9,7.5E0);
#15=CIRCLE('',#14,7.5E0);
#24=CIRCLE('',#23,8.75E0);
#29=CIRCLE('',#28,8.75E0);
#34=CIRCLE('',#33,8.75E0);
#43=CIRCLE('',#42,9.7E0);
#48=CIRCLE('',#47,9.7E0);
#61=CIRCLE('',#60,9.7E0);
#66=CIRCLE('',#65,9.7E0);
#71=CIRCLE('',#70,8.E0);
#76=CIRCLE('',#75,8.E0);
#86=B_SPLINE_CURVE_WITH_KNOTS('',3,(#77,#78,#79,#80,#81,#82,#83,#84,#85),
.UNSPECIFIED.,.F.,.F.,(4,1,1,1,1,1,4),(0.E0,1.666666666667E-1,3.333333333333E-1,
5.E-1,6.666666666667E-1,8.333333333333E-1,1.E0),.UNSPECIFIED.);
#100=B_SPLINE_CURVE_WITH_KNOTS('',3,(#91,#92,#93,#94,#95,#96,#97,#98,#99),
.UNSPECIFIED.,.F.,.F.,(4,1,1,1,1,1,4),(0.E0,1.666666666667E-1,3.333333333333E-1,
5.E-1,6.666666666667E-1,8.333333333333E-1,1.E0),.UNSPECIFIED.);
#109=CIRCLE('',#108,8.E0);
#118=CIRCLE('',#117,8.E0);
#123=CIRCLE('',#122,4.E0);
#128=CIRCLE('',#127,4.E0);
#146=B_SPLINE_CURVE_WITH_KNOTS('',3,(#137,#138,#139,#140,#141,#142,#143,#144,
#145),.UNSPECIFIED.,.F.,.F.,(4,1,1,1,1,1,4),(0.E0,1.666666666667E-1,
3.333333333333E-1,5.E-1,6.666666666667E-1,8.333333333333E-1,1.E0),
.UNSPECIFIED.);
#160=B_SPLINE_CURVE_WITH_KNOTS('',3,(#151,#152,#153,#154,#155,#156,#157,#158,
#159),.UNSPECIFIED.,.F.,.F.,(4,1,1,1,1,1,4),(0.E0,1.666666666667E-1,
3.333333333333E-1,5.E-1,6.666666666667E-1,8.333333333333E-1,1.E0),
.UNSPECIFIED.);
#169=CIRCLE('',#168,8.E0);
#178=CIRCLE('',#177,8.E0);
#183=CIRCLE('',#182,4.E0);
#188=CIRCLE('',#187,4.E0);
#201=CIRCLE('',#200,8.75E0);
#210=CIRCLE('',#209,7.5E0);
#270=EDGE_CURVE('',#217,#218,#5,.T.);
#272=EDGE_CURVE('',#218,#217,#10,.T.);
#282=EDGE_CURVE('',#225,#226,#15,.T.);
#284=EDGE_CURVE('',#218,#226,#214,.T.);
#287=EDGE_CURVE('',#217,#225,#19,.T.);
#297=EDGE_CURVE('',#221,#222,#24,.T.);
#299=EDGE_CURVE('',#222,#221,#29,.T.);
#304=EDGE_CURVE('',#226,#225,#210,.T.);
#314=EDGE_CURVE('',#237,#238,#34,.T.);
#316=EDGE_CURVE('',#222,#238,#205,.T.);
#319=EDGE_CURVE('',#221,#237,#38,.T.);
#329=EDGE_CURVE('',#229,#230,#43,.T.);
#331=EDGE_CURVE('',#230,#229,#48,.T.);
#336=EDGE_CURVE('',#238,#237,#201,.T.);
#347=EDGE_CURVE('',#229,#233,#52,.T.);
#349=EDGE_CURVE('',#233,#234,#61,.T.);
#351=EDGE_CURVE('',#230,#234,#56,.T.);
#363=EDGE_CURVE('',#234,#233,#66,.T.);
#378=EDGE_CURVE('',#241,#242,#71,.T.);
#380=EDGE_CURVE('',#242,#241,#76,.T.);
#390=EDGE_CURVE('',#251,#252,#86,.T.);
#392=EDGE_CURVE('',#242,#251,#150,.T.);
#395=EDGE_CURVE('',#241,#254,#90,.T.);
#397=EDGE_CURVE('',#253,#254,#100,.T.);
#399=EDGE_CURVE('',#245,#253,#104,.T.);
#401=EDGE_CURVE('',#245,#246,#109,.T.);
#403=EDGE_CURVE('',#246,#252,#113,.T.);
#414=EDGE_CURVE('',#253,#252,#118,.T.);
#417=EDGE_CURVE('',#254,#255,#146,.T.);
#419=EDGE_CURVE('',#255,#256,#178,.T.);
#421=EDGE_CURVE('',#256,#251,#160,.T.);
#433=EDGE_CURVE('',#246,#245,#132,.T.);
#438=EDGE_CURVE('',#259,#260,#123,.T.);
#440=EDGE_CURVE('',#260,#259,#128,.T.);
#460=EDGE_CURVE('',#249,#250,#169,.T.);
#462=EDGE_CURVE('',#250,#249,#136,.T.);
#477=EDGE_CURVE('',#249,#256,#164,.T.);
#480=EDGE_CURVE('',#250,#255,#173,.T.);
#496=EDGE_CURVE('',#263,#264,#183,.T.);
#498=EDGE_CURVE('',#264,#263,#188,.T.);
#509=EDGE_CURVE('',#260,#264,#196,.T.);
#512=EDGE_CURVE('',#259,#263,#192,.T.);
#555=(LENGTH_UNIT()NAMED_UNIT(*)SI_UNIT(.MILLI.,.METRE.));
#557=(NAMED_UNIT(*)PLANE_ANGLE_UNIT()SI_UNIT($,.RADIAN.));
#560=(NAMED_UNIT(*)SI_UNIT($,.STERADIAN.)SOLID_ANGLE_UNIT());
#563=ADVANCED_BREP_SHAPE_REPRESENTATION('',(#554),#562);
#570=PRODUCT_DEFINITION('design','',#569,#566);
#571=PRODUCT_DEFINITION_SHAPE('','SHAPE FOR JOINT1.',#570);
#572=SHAPE_DEFINITION_REPRESENTATION(#571,#563);
ENDSEC;
END-ISO-10303-21;
